<?xml version="1.0" encoding="UTF-8" standalone="no"?>
<svg
   height="100"
   viewBox="0 0 366.35144 100"
   width="366.35144"
   version="1.1"
   id="svg47268"
   sodipodi:docname="atarixegs.svg"
   inkscape:version="1.2.1 (9c6d41e410, 2022-07-14)"
   xmlns:inkscape="http://www.inkscape.org/namespaces/inkscape"
   xmlns:sodipodi="http://sodipodi.sourceforge.net/DTD/sodipodi-0.dtd"
   xmlns="http://www.w3.org/2000/svg"
   xmlns:svg="http://www.w3.org/2000/svg">
  <defs
     id="defs47272" />
  <sodipodi:namedview
     id="namedview47270"
     pagecolor="#505050"
     bordercolor="#ffffff"
     borderopacity="1"
     inkscape:showpageshadow="0"
     inkscape:pageopacity="0"
     inkscape:pagecheckerboard="1"
     inkscape:deskcolor="#505050"
     showgrid="false"
     inkscape:zoom="1.3961116"
     inkscape:cx="252.48697"
     inkscape:cy="137.52482"
     inkscape:window-width="1920"
     inkscape:window-height="1017"
     inkscape:window-x="-8"
     inkscape:window-y="-8"
     inkscape:window-maximized="1"
     inkscape:current-layer="svg47268" />
  <g
     id="g47768"
     transform="scale(1.181195)">
    <g
       fill="#ffffff"
       fill-opacity="0.5"
       stroke-width="1.25"
       id="g47254"
       transform="translate(-0.68220063,-2.009069)">
      <path
         d="m 192.066,65.471 q 0,0.12 -0.029,0.202 -0.043,0.122 -0.138,0.122 -0.063,0 -0.132,-0.029 -0.083,-0.035 -0.09,-0.086 0.027,0 0.065,0.01 0.088,0.023 0.11,0.023 0.085,0 0.128,-0.085 0.034,-0.068 0.034,-0.163 0,-0.067 -0.044,-0.19 -0.043,-0.126 -0.043,-0.175 0,-0.015 0.008,-0.024 0.01,-0.01 0.024,-0.01 0.04,0 0.076,0.18 0.031,0.152 0.031,0.225 z m 0.385,0.102 q 0,0.102 -0.059,0.16 -0.059,0.058 -0.163,0.058 -0.057,0 -0.088,-0.027 -0.03,-0.027 -0.03,-0.083 0,-0.079 0.102,-0.159 0.098,-0.076 0.181,-0.076 0.038,0 0.05,0.047 0.007,0.027 0.007,0.08 z m -0.06,0.028 q 0,-0.012 -0.004,-0.023 -0.002,-0.012 -0.008,-0.027 -0.016,0.011 -0.053,0.054 -0.019,0.022 -0.033,0.032 0,-0.019 0.004,-0.03 l 0.013,-0.03 q -0.044,0 -0.092,0.037 -0.047,0.037 -0.047,0.08 0,0.03 0.032,0.03 0.061,0 0.118,-0.03 0.07,-0.037 0.07,-0.093 z m 0.472,0.013 q 0,0.05 -0.037,0.11 -0.042,0.07 -0.087,0.07 -0.013,0 -0.022,-0.015 -0.008,-0.015 -0.008,-0.029 0,-0.018 0.038,-0.056 0.04,-0.039 0.04,-0.053 0,-0.009 -0.004,-0.018 l -0.004,-0.012 q -0.075,0.017 -0.153,0.086 -0.077,0.07 -0.117,0.078 -0.008,-0.022 -0.008,-0.045 0,-0.028 0.013,-0.059 0.01,-0.022 0.03,-0.053 0.035,-0.053 0.074,-0.12 l 0.07,-0.12 0.072,-0.123 q 0.012,-0.018 0.021,-0.027 0.013,-0.012 0.031,-0.016 0.012,0.004 0.017,0.015 0.006,0.011 0.006,0.026 0,0.034 -0.044,0.092 l -0.082,0.108 q -0.045,0.068 -0.045,0.123 l 0.002,0.01 q 0.055,-0.027 0.065,-0.03 0.041,-0.018 0.07,-0.018 0.032,0 0.047,0.022 0.015,0.021 0.015,0.054 z m 0.464,-0.059 q 0,0.068 -0.033,0.145 -0.036,0.085 -0.089,0.117 -0.01,-0.013 -0.019,-0.029 -0.007,-0.016 -0.007,-0.032 0,-0.017 0.05,-0.1 0.022,-0.038 0.02,-0.066 v -0.013 q -0.038,0.011 -0.129,0.067 l -0.182,0.112 q -0.014,0 -0.026,-0.01 -0.01,-0.01 -0.01,-0.024 0,-0.02 0.066,-0.14 l 0.072,-0.126 q 0.016,0.021 0.021,0.047 0.005,0.025 0.005,0.06 v 0.023 q 0.092,-0.055 0.144,-0.083 0.057,-0.03 0.078,-0.03 0.014,0 0.026,0.031 0.013,0.032 0.013,0.051 z m 0.869,0.195 q 0,0.017 -0.016,0.027 -0.015,0.01 -0.034,0.01 -0.017,0 -0.043,-0.005 -0.059,-0.009 -0.076,-0.009 -0.03,0 -0.118,0.007 -0.05,0.004 -0.072,0.004 -0.06,0 -0.06,-0.06 0,-0.059 0.037,-0.167 0.021,-0.06 0.08,-0.2 0.051,-0.125 0.065,-0.176 0.005,-0.016 0.008,-0.02 0.008,-0.013 0.02,-0.013 0.02,0 0.032,0.028 0.013,0.027 0.013,0.05 0,0.034 -0.04,0.117 -0.042,0.082 -0.08,0.161 -0.044,0.094 -0.044,0.143 0,0.025 0.021,0.035 0.015,0.007 0.044,0.007 0.022,0 0.076,-0.005 0.054,-0.006 0.072,-0.006 0.045,0 0.074,0.013 0.041,0.018 0.041,0.058 z m 0.372,-0.177 q 0,0.102 -0.059,0.16 -0.059,0.058 -0.163,0.058 -0.057,0 -0.088,-0.027 -0.03,-0.027 -0.03,-0.083 0,-0.079 0.102,-0.159 0.098,-0.076 0.181,-0.076 0.038,0 0.05,0.047 0.007,0.027 0.007,0.08 z m -0.06,0.028 q 0,-0.012 -0.004,-0.023 -0.002,-0.012 -0.008,-0.027 -0.016,0.011 -0.053,0.054 -0.019,0.022 -0.033,0.032 0,-0.019 0.004,-0.03 l 0.013,-0.03 q -0.044,0 -0.092,0.037 -0.047,0.037 -0.047,0.08 0,0.03 0.032,0.03 0.061,0 0.118,-0.03 0.07,-0.037 0.07,-0.093 z m 0.482,-0.049 q 0,0.032 -0.018,0.068 -0.016,0.036 -0.04,0.06 l -0.002,-0.014 0.003,-0.037 0.003,-0.037 q 0,-0.017 -0.005,-0.025 -0.005,-0.009 -0.02,-0.009 -0.048,0 -0.118,0.073 l -0.15,0.16 q -0.007,0 -0.013,-0.002 l -0.02,-0.005 q 0.003,-0.036 0.025,-0.08 0.06,-0.119 0.061,-0.127 l 0.012,-0.047 q 0.004,-0.015 0.011,-0.03 0.008,-0.018 0.018,-0.03 0.011,-0.015 0.028,-0.022 l 0.01,0.12 0.066,-0.054 q 0.044,-0.035 0.076,-0.035 0.032,0 0.052,0.021 0.02,0.021 0.02,0.052 z m 0.49,-0.116 q 0,0.042 -0.112,0.111 -0.108,0.066 -0.157,0.066 -0.023,0 -0.03,-0.016 -0.008,-0.016 -0.008,-0.045 v -0.027 q 0.067,0 0.122,-0.02 0.055,-0.02 0.096,-0.066 -0.03,-0.01 -0.06,-0.01 -0.074,0 -0.156,0.055 -0.09,0.061 -0.09,0.13 0,0.066 0.09,0.092 0.014,0.004 0.17,0.028 0.09,0.014 0.09,0.05 0,0.014 -0.033,0.023 -0.033,0.01 -0.084,0.01 -0.128,0 -0.202,-0.039 -0.098,-0.052 -0.098,-0.167 0,-0.12 0.12,-0.19 0.102,-0.06 0.232,-0.06 0.04,0 0.071,0.017 0.04,0.022 0.04,0.058 z m 0.398,-0.179 q 0,0.022 -0.053,0.092 -0.053,0.07 -0.053,0.107 0,0.02 0.022,0.038 0.05,0.044 0.05,0.054 0,0.013 -0.009,0.025 -0.008,0.012 -0.02,0.012 -0.012,0 -0.032,-0.012 -0.014,-0.008 -0.054,-0.039 l -0.023,0.044 q -0.028,0.053 -0.038,0.077 l -0.03,0.092 q -0.026,0.062 -0.065,0.062 v -0.023 q 0,-0.07 0.045,-0.168 l 0.05,-0.093 q -0.079,-0.043 -0.174,-0.043 0,-0.037 0.015,-0.054 0.016,-0.018 0.053,-0.018 0.034,0 0.085,0.012 l 0.05,0.012 q 0.02,-0.006 0.052,-0.065 0.081,-0.142 0.11,-0.163 0.008,0.013 0.013,0.026 0.006,0.013 0.006,0.025 z m 0.369,0.357 q 0,0.05 -0.037,0.11 -0.042,0.07 -0.087,0.07 -0.013,0 -0.022,-0.015 -0.008,-0.015 -0.008,-0.029 0,-0.018 0.038,-0.056 0.04,-0.039 0.04,-0.053 0,-0.009 -0.004,-0.018 l -0.004,-0.012 q -0.075,0.017 -0.153,0.086 -0.077,0.07 -0.117,0.078 -0.008,-0.022 -0.008,-0.045 0,-0.028 0.013,-0.059 0.01,-0.022 0.03,-0.053 0.035,-0.053 0.074,-0.12 l 0.07,-0.12 0.072,-0.123 q 0.012,-0.018 0.021,-0.027 0.013,-0.012 0.031,-0.016 0.012,0.004 0.017,0.015 0.006,0.011 0.006,0.026 0,0.034 -0.044,0.092 l -0.082,0.108 q -0.045,0.068 -0.045,0.123 l 0.002,0.01 q 0.055,-0.027 0.065,-0.03 0.041,-0.018 0.07,-0.018 0.032,0 0.047,0.022 0.015,0.021 0.015,0.054 z m 0.821,-0.326 q 0,0.047 -0.05,0.126 -0.032,0.05 -0.105,0.144 -0.073,0.093 -0.09,0.122 l 0.074,0.024 q 0.073,0.022 0.073,0.08 l -0.059,0.01 -0.01,-0.002 v -0.008 q -0.017,-0.004 -0.027,-0.004 -0.019,0 -0.06,0.006 -0.04,0.006 -0.062,0.006 -0.027,0 -0.044,-0.01 -0.017,-0.01 -0.017,-0.036 0,-0.02 0.077,-0.119 l 0.145,-0.185 q 0.078,-0.106 0.078,-0.142 0,-0.014 -0.01,-0.02 -0.009,-0.008 -0.037,-0.008 -0.019,0 -0.079,0.037 -0.029,0.018 -0.047,0.018 l -0.017,-0.003 q -0.006,-0.004 -0.013,-0.015 -0.007,-0.012 -0.007,-0.019 0,-0.042 0.081,-0.077 0.07,-0.03 0.12,-0.03 0.043,0 0.066,0.032 0.02,0.028 0.02,0.073 z m 0.602,0.18 q 0,0.121 -0.132,0.214 -0.12,0.085 -0.247,0.085 -0.063,0 -0.1,-0.032 -0.037,-0.032 -0.037,-0.093 0,-0.136 0.12,-0.236 0.112,-0.095 0.252,-0.095 0.071,0 0.107,0.042 0.036,0.042 0.036,0.115 z m -0.062,0.023 q 0,-0.046 -0.052,-0.069 -0.039,-0.017 -0.093,-0.017 -0.079,0 -0.165,0.077 -0.086,0.077 -0.086,0.155 0,0.032 0.016,0.046 0.017,0.013 0.051,0.013 0.098,0 0.204,-0.054 0.125,-0.064 0.125,-0.15 z m 0.519,-0.203 q 0,0.047 -0.05,0.126 -0.032,0.05 -0.105,0.144 -0.073,0.093 -0.09,0.122 l 0.074,0.024 q 0.073,0.022 0.073,0.08 l -0.059,0.01 -0.01,-0.002 v -0.008 q -0.017,-0.004 -0.027,-0.004 -0.019,0 -0.06,0.006 -0.04,0.006 -0.062,0.006 -0.027,0 -0.044,-0.01 -0.017,-0.01 -0.017,-0.036 0,-0.02 0.077,-0.119 l 0.145,-0.185 q 0.078,-0.106 0.078,-0.142 0,-0.014 -0.01,-0.02 -0.009,-0.008 -0.037,-0.008 -0.019,0 -0.079,0.037 -0.029,0.018 -0.047,0.018 l -0.017,-0.003 q -0.006,-0.004 -0.013,-0.015 -0.007,-0.012 -0.007,-0.019 0,-0.042 0.081,-0.077 0.07,-0.03 0.12,-0.03 0.043,0 0.066,0.032 0.02,0.028 0.02,0.073 z m 0.46,0 q 0,0.047 -0.05,0.126 -0.032,0.05 -0.105,0.144 -0.073,0.093 -0.09,0.122 l 0.074,0.024 q 0.073,0.022 0.073,0.08 l -0.059,0.01 -0.01,-0.002 v -0.008 q -0.017,-0.004 -0.027,-0.004 -0.019,0 -0.06,0.006 -0.04,0.006 -0.062,0.006 -0.027,0 -0.044,-0.01 -0.017,-0.01 -0.017,-0.036 0,-0.02 0.077,-0.119 l 0.145,-0.185 q 0.078,-0.106 0.078,-0.142 0,-0.014 -0.01,-0.02 -0.009,-0.008 -0.037,-0.008 -0.019,0 -0.079,0.037 -0.029,0.018 -0.047,0.018 l -0.017,-0.003 q -0.006,-0.004 -0.013,-0.015 -0.007,-0.012 -0.007,-0.019 0,-0.042 0.081,-0.077 0.07,-0.03 0.12,-0.03 0.043,0 0.066,0.032 0.02,0.028 0.02,0.073 z"
         id="path47252" />
    </g>
    <path
       d="m 94.972799,79.468931 h -18.276 l 28.845001,-38.983 -26.270001,-35.503 17.184,-0.084 17.710001,23.933 17.647,-23.85 h 18.277 l -26.786,36.2 24.436,33.024 v -25.627 h -10.883 l 32.26,-43.596 h 34.666 l -11.07,14.303 h -24.973 v 15.693 h 35.617 l -10.496,14.08 h -25.121 v 15.84 h 35.435 l -10.78,14.57 h -58.007 l -19.707,-26.634 z"
       style="opacity:0.98;fill:#d03c3b;stroke:#efd828;stroke-width:2;stroke-linecap:round;stroke-linejoin:round"
       id="path47256" />
    <g
       fill="#324cab"
       stroke="#ffffff"
       stroke-width="1.5"
       id="g47266"
       transform="translate(-0.68220063,-2.009069)">
      <path
         d="m 21.61,58.527 h -5.307 l -1.833,-6.5 H 6.904 l -1.854,6.5 h -5.265 l 7.46,-26.621 q 0.895,-3.154 3.453,-3.154 2.536,0 3.453,3.154 z M 13.064,46.932 10.698,38.535 8.332,46.932 Z M 33.312,33.846 H 27.493 V 58.527 H 22.4 V 33.846 H 16.58 V 28.752 H 33.312 Z M 50.15,58.527 h -5.307 l -1.833,-6.5 h -7.567 l -1.854,6.5 h -5.265 l 7.46,-26.621 q 0.895,-3.154 3.453,-3.154 2.537,0 3.453,3.154 z m -8.547,-11.595 -2.366,-8.397 -2.366,8.397 z m 27.09,11.595 h -5.925 l -6.117,-9.549 q -1.343,-2.067 -1.343,-3.24 0,-2.195 1.897,-3.58 0.895,-0.49 1.748,-0.98 0.852,-0.49 1.747,-0.98 1.897,-1.258 1.897,-3.091 0,-1.258 -1.002,-2.26 -1.001,-1.001 -2.28,-1.001 H 55.308 V 58.527 H 50.214 V 32.013 q 0,-1.3 0.98,-2.281 0.98,-0.98 2.302,-0.98 h 5.819 q 3.282,0 5.819,2.365 2.536,2.345 2.536,5.627 0,3.048 -1.982,5.563 -1.961,2.494 -4.966,3.56 z m 6.799,0 H 70.398 V 28.752 h 5.094 z"
         transform="matrix(1.07951,0,0,0.92634,1.982,-0.212)"
         id="path47258" />
      <path
         d="m 224.326,3.382 -5.67,19.344 q -0.617,2.152 -1.1,2.785 -0.935,1.234 -2.569,1.234 -1.4,0 -2.284,-0.917 -0.868,-0.934 -1.468,-3.052 l -5.57,-19.394 h 5.07 l 4.236,16.276 4.385,-16.276 z m 6.904,0 v 22.763 h -4.636 V 3.382 Z m 4.22,4.769 q 0,-1.184 0.116,-1.784 0.133,-0.617 0.5,-1.251 0.6,-1 1.534,-1.367 0.934,-0.384 2.852,-0.384 3.202,0 5.237,0.85 3.335,1.385 5.27,4.436 1.767,2.769 1.767,6.104 0,4.736 -3.302,8.038 -2.902,2.902 -6.704,3.252 -1.184,0.117 -2.585,0.117 -1.434,0 -2.268,-0.284 -0.817,-0.283 -1.467,-0.984 -0.567,-0.617 -0.767,-1.467 -0.184,-0.85 -0.184,-2.735 z m 4.635,13.508 h 0.6 q 1.652,0 2.836,-0.367 1.184,-0.383 2.168,-1.234 1,-0.85 1.65,-2.068 0.818,-1.567 0.818,-3.218 0,-1.451 -0.65,-2.869 -0.651,-1.417 -1.768,-2.368 -1.952,-1.667 -5.087,-1.667 -0.15,0 -0.567,0.016 z M 267.051,3.382 v 4.452 h -6.72 v 4.27 h 6.27 v 4.335 h -6.27 v 5.237 h 6.72 v 4.469 h -6.67 q -1.518,0 -2.335,-0.267 -0.8,-0.283 -1.401,-0.984 -0.517,-0.6 -0.734,-1.434 -0.217,-0.834 -0.217,-2.134 V 8.2 q 0,-2.635 1.068,-3.719 1.067,-1.1 3.619,-1.1 z m 14.375,-0.384 q 4.87,0 8.338,3.552 3.352,3.402 3.352,8.405 0,3.102 -1.7,5.904 -1.618,2.685 -4.37,4.202 -2.635,1.45 -5.686,1.45 -3.069,0 -5.737,-1.483 -2.869,-1.585 -4.486,-4.403 -1.568,-2.751 -1.568,-5.87 0,-5.27 4.003,-8.839 3.235,-2.868 7.854,-2.918 z m -0.033,4.503 q -3.252,0 -5.42,2.501 -1.75,2.018 -1.75,4.753 0,3.335 2.45,5.487 2.035,1.784 4.703,1.784 3.252,0 5.387,-2.535 1.717,-2.068 1.717,-4.62 0,-3.201 -2.318,-5.42 -1.95,-1.884 -4.77,-1.95 z"
         transform="matrix(1.01213,0,0,0.98802,1.982,-0.212)"
         id="path47260" />
      <path
         d="m 218.207,44.264 h 8.445 q 1.502,0 2.253,0.734 0.801,0.801 0.801,2.086 0,1.152 -0.65,2.704 -0.652,1.535 -1.687,2.82 -1.635,2.053 -3.938,3.205 -2.47,1.235 -5.258,1.235 -3.037,0 -5.674,-1.452 -2.871,-1.569 -4.54,-4.423 -1.602,-2.754 -1.602,-5.908 0,-3.271 1.685,-6.075 1.636,-2.72 4.407,-4.256 2.653,-1.469 5.708,-1.469 3.004,0 5.54,1.385 2.554,1.386 4.323,3.99 l -3.888,2.52 q -0.701,-1.102 -1.603,-1.803 -2.002,-1.569 -4.406,-1.569 -1.886,0 -3.571,1.002 -1.686,1 -2.637,2.72 -0.902,1.636 -0.902,3.555 0,3.371 2.47,5.524 2.02,1.753 4.657,1.753 2.053,0 3.655,-1.002 1.619,-1.018 2.687,-2.987 h -6.275 z m 30.225,12.383 h -5.04 l -1.135,-4.422 h -6.142 l -1.152,4.422 h -4.89 l 5.541,-19.844 q 0.384,-1.402 1.052,-2.17 1.034,-1.184 2.537,-1.184 2.603,0 3.571,3.388 z m -7.277,-8.795 -1.986,-7.677 -1.936,7.677 z m 30.943,8.795 h -4.64 V 43.312 l -3.004,10.715 q -0.367,1.335 -0.6,1.786 -0.618,1.168 -2.103,1.168 -1.486,0 -2.137,-1.201 -0.267,-0.484 -0.684,-1.786 l -3.455,-10.849 v 13.502 h -4.64 V 38.656 q 0,-1.519 0.067,-2.12 0.067,-0.6 0.3,-1.085 0.368,-0.8 1.219,-1.302 0.851,-0.517 1.786,-0.517 0.8,0 1.535,0.367 0.735,0.367 1.169,0.968 0.317,0.468 0.45,0.818 0.15,0.334 0.634,1.903 l 3.605,11.382 3.171,-11.332 q 0.401,-1.469 0.551,-1.853 0.15,-0.384 0.5,-0.884 0.952,-1.352 2.705,-1.352 1.018,0 1.852,0.517 0.851,0.5 1.269,1.385 0.45,0.935 0.45,3.055 z m 15.455,-22.781 v 4.456 h -6.726 v 4.273 h 6.276 v 4.339 h -6.276 v 5.24 h 6.726 v 4.473 h -6.676 q -1.519,0 -2.336,-0.267 -0.802,-0.283 -1.402,-0.984 -0.518,-0.601 -0.735,-1.436 -0.217,-0.834 -0.217,-2.136 V 38.69 q 0,-2.637 1.068,-3.722 1.069,-1.101 3.622,-1.101 z"
         transform="matrix(1.01272,0,0,0.98744,1.982,-0.212)"
         id="path47262" />
      <path
         d="m 219.414,64.273 v 4.724 q -2.42,-1.128 -4.376,-1.128 -1.558,0 -2.42,0.813 -0.812,0.762 -0.812,1.79 0,1.011 0.63,1.541 0.63,0.53 2.37,0.978 2.238,0.58 3.116,0.995 0.895,0.398 1.625,1.193 1.757,1.89 1.757,4.675 0,3.43 -2.487,5.453 -2.105,1.707 -5.503,1.707 -2.387,0 -5.768,-1.094 v -4.807 q 3.547,1.492 5.868,1.492 1.508,0 2.337,-0.73 0.862,-0.762 0.862,-1.889 0,-1.326 -1.194,-1.94 -0.497,-0.248 -2.42,-0.728 -3.497,-0.879 -4.79,-2.918 -1.044,-1.657 -1.044,-3.646 0,-2.503 1.541,-4.476 1.094,-1.409 2.57,-2.039 1.491,-0.646 3.68,-0.646 2.12,0 4.458,0.68 z m 12.78,22.343 h -4.592 V 76.82 l -6.017,-12.83 h 5.04 l 3.364,7.824 3.53,-7.823 h 4.89 l -6.215,12.83 z m 18.714,-22.343 v 4.724 q -2.42,-1.128 -4.376,-1.128 -1.558,0 -2.42,0.813 -0.813,0.762 -0.813,1.79 0,1.011 0.63,1.541 0.63,0.53 2.37,0.978 2.238,0.58 3.117,0.995 0.895,0.398 1.624,1.193 1.757,1.89 1.757,4.675 0,3.43 -2.486,5.453 -2.105,1.707 -5.503,1.707 -2.387,0 -5.769,-1.094 v -4.807 q 3.548,1.492 5.868,1.492 1.509,0 2.337,-0.73 0.862,-0.762 0.862,-1.889 0,-1.326 -1.193,-1.94 -0.497,-0.248 -2.42,-0.728 -3.498,-0.879 -4.79,-2.918 -1.045,-1.657 -1.045,-3.646 0,-2.503 1.542,-4.476 1.094,-1.409 2.569,-2.039 1.492,-0.646 3.68,-0.646 2.121,0 4.459,0.68 z m 15.68,-0.283 v 4.426 h -4.31 v 18.2 h -4.608 v -18.2 h -4.243 v -4.425 z m 13.658,0 v 4.426 h -6.68 v 4.244 h 6.233 v 4.31 h -6.233 v 5.204 h 6.68 v 4.442 h -6.63 q -1.508,0 -2.32,-0.265 -0.796,-0.282 -1.393,-0.978 -0.514,-0.596 -0.73,-1.425 -0.215,-0.829 -0.215,-2.122 V 68.781 q 0,-2.619 1.061,-3.696 1.061,-1.094 3.597,-1.094 z m 24.748,22.626 h -4.608 V 73.373 l -2.984,10.641 q -0.365,1.326 -0.597,1.774 -0.613,1.16 -2.088,1.16 -1.476,0 -2.122,-1.194 -0.265,-0.48 -0.68,-1.773 l -3.43,-10.774 v 13.41 h -4.609 v -17.87 q 0,-1.508 0.067,-2.105 0.066,-0.597 0.298,-1.078 0.365,-0.795 1.21,-1.292 0.845,-0.514 1.774,-0.514 0.795,0 1.524,0.364 0.73,0.365 1.16,0.962 0.316,0.464 0.448,0.812 0.15,0.332 0.63,1.89 l 3.58,11.304 3.15,-11.255 q 0.398,-1.458 0.547,-1.84 0.149,-0.38 0.497,-0.878 0.945,-1.343 2.685,-1.343 1.011,0 1.84,0.514 0.846,0.497 1.26,1.376 0.448,0.928 0.448,3.033 z"
         transform="matrix(1.01017,0,0,0.98994,1.982,-0.212)"
         id="path47264" />
    </g>
  </g>
</svg>
