<?xml version="1.0" encoding="UTF-8" standalone="no"?>
<svg
   width="306.50229"
   height="100"
   viewBox="0 -0.001 306.50228 100"
   xml:space="preserve"
   version="1.1"
   id="svg9611"
   sodipodi:docname="mame2003.svg"
   inkscape:version="1.2.1 (9c6d41e410, 2022-07-14)"
   xmlns:inkscape="http://www.inkscape.org/namespaces/inkscape"
   xmlns:sodipodi="http://sodipodi.sourceforge.net/DTD/sodipodi-0.dtd"
   xmlns:xlink="http://www.w3.org/1999/xlink"
   xmlns="http://www.w3.org/2000/svg"
   xmlns:svg="http://www.w3.org/2000/svg"><defs
   id="defs9615"><linearGradient
     inkscape:collect="always"
     id="linearGradient15966"><stop
       style="stop-color:#6acefc;stop-opacity:1;"
       offset="0"
       id="stop15962" /><stop
       style="stop-color:#12527f;stop-opacity:1;"
       offset="1"
       id="stop15964" /></linearGradient><linearGradient
     inkscape:collect="always"
     id="linearGradient12441"><stop
       style="stop-color:#58b4e2;stop-opacity:1;"
       offset="0"
       id="stop12437" /><stop
       style="stop-color:#053f6c;stop-opacity:1;"
       offset="0.5481981"
       id="stop15053" /><stop
       style="stop-color:#57b2e0;stop-opacity:1;"
       offset="0.62770951"
       id="stop15055" /><stop
       style="stop-color:#053f6c;stop-opacity:1;"
       offset="1"
       id="stop12439" /></linearGradient><linearGradient
     inkscape:collect="always"
     xlink:href="#linearGradient12441"
     id="linearGradient12443"
     x1="374.7756"
     y1="112.88228"
     x2="374.45355"
     y2="142.99805"
     gradientUnits="userSpaceOnUse"
     gradientTransform="translate(-75.736766,-33.619789)" /><linearGradient
     inkscape:collect="always"
     xlink:href="#linearGradient15966"
     id="linearGradient15968"
     x1="272.57883"
     y1="98.067169"
     x2="427.35049"
     y2="98.067169"
     gradientUnits="userSpaceOnUse"
     gradientTransform="translate(-33.055908)" /></defs><sodipodi:namedview
   id="namedview9613"
   pagecolor="#505050"
   bordercolor="#ffffff"
   borderopacity="1"
   inkscape:showpageshadow="0"
   inkscape:pageopacity="0"
   inkscape:pagecheckerboard="1"
   inkscape:deskcolor="#505050"
   showgrid="false"
   inkscape:zoom="2.7364842"
   inkscape:cx="157.68408"
   inkscape:cy="54.814861"
   inkscape:window-width="1920"
   inkscape:window-height="1017"
   inkscape:window-x="-8"
   inkscape:window-y="-8"
   inkscape:window-maximized="1"
   inkscape:current-layer="g22320" /><linearGradient
   id="a"
   gradientUnits="userSpaceOnUse"
   x1="558.12799"
   y1="955.59802"
   x2="11.77"
   y2="955.59802"
   gradientTransform="translate(-0.18,-875.41)">
        <stop
   offset="0"
   style="stop-color:#013a67"
   id="stop9343" />
        <stop
   offset="1"
   style="stop-color:#6cd1ff"
   id="stop9345" />
    </linearGradient><linearGradient
   id="b"
   gradientUnits="userSpaceOnUse"
   x1="64.709999"
   y1="938.789"
   x2="60.764999"
   y2="934.84497"
   gradientTransform="translate(-0.18,-875.41)">
        <stop
   offset="0"
   style="stop-color:#08406f"
   id="stop9350" />
        <stop
   offset="1"
   style="stop-color:#60c5f5"
   id="stop9352" />
    </linearGradient><linearGradient
   id="c"
   gradientUnits="userSpaceOnUse"
   x1="123.295"
   y1="1013.91"
   x2="119.67"
   y2="1010.285"
   gradientTransform="translate(-0.18,-875.41)">
        <stop
   offset="0"
   style="stop-color:#08406f"
   id="stop9357" />
        <stop
   offset="1"
   style="stop-color:#60c5f5"
   id="stop9359" />
    </linearGradient><linearGradient
   id="d"
   gradientUnits="userSpaceOnUse"
   x1="25.724001"
   y1="994.05103"
   x2="25.724001"
   y2="989.73798"
   gradientTransform="translate(-0.18,-875.41)">
        <stop
   offset="0"
   style="stop-color:#08406f"
   id="stop9364" />
        <stop
   offset="1"
   style="stop-color:#60c5f5"
   id="stop9366" />
    </linearGradient><linearGradient
   id="e"
   gradientUnits="userSpaceOnUse"
   x1="121.186"
   y1="1033.182"
   x2="121.186"
   y2="1028.725"
   gradientTransform="translate(-0.18,-875.41)">
        <stop
   offset="0"
   style="stop-color:#08406f"
   id="stop9371" />
        <stop
   offset="1"
   style="stop-color:#60c5f5"
   id="stop9373" />
    </linearGradient><linearGradient
   id="f"
   gradientUnits="userSpaceOnUse"
   x1="427.694"
   y1="994.02301"
   x2="427.694"
   y2="989.55701"
   gradientTransform="translate(-0.18,-875.41)">
        <stop
   offset="0"
   style="stop-color:#08406f"
   id="stop9378" />
        <stop
   offset="1"
   style="stop-color:#60c5f5"
   id="stop9380" />
    </linearGradient><linearGradient
   id="g"
   gradientUnits="userSpaceOnUse"
   x1="251.065"
   y1="994.89398"
   x2="251.065"
   y2="990.41602"
   gradientTransform="translate(-0.18,-875.41)">
        <stop
   offset="0"
   style="stop-color:#08406f"
   id="stop9385" />
        <stop
   offset="1"
   style="stop-color:#60c5f5"
   id="stop9387" />
    </linearGradient><linearGradient
   id="h"
   gradientUnits="userSpaceOnUse"
   x1="522.28101"
   y1="882.18799"
   x2="522.28101"
   y2="877.32397"
   gradientTransform="translate(-0.18,-875.41)">
        <stop
   offset="0"
   style="stop-color:#08406f"
   id="stop9392" />
        <stop
   offset="1"
   style="stop-color:#60c5f5"
   id="stop9394" />
    </linearGradient><linearGradient
   id="i"
   gradientUnits="userSpaceOnUse"
   x1="515.013"
   y1="906.71503"
   x2="515.013"
   y2="902.505"
   gradientTransform="translate(-0.18,-875.41)">
        <stop
   offset="0"
   style="stop-color:#08406f"
   id="stop9399" />
        <stop
   offset="1"
   style="stop-color:#60c5f5"
   id="stop9401" />
    </linearGradient><linearGradient
   id="j"
   gradientUnits="userSpaceOnUse"
   x1="459.37"
   y1="950.23102"
   x2="459.37"
   y2="946.51202"
   gradientTransform="translate(-0.18,-875.41)">
        <stop
   offset="0"
   style="stop-color:#08406f"
   id="stop9406" />
        <stop
   offset="1"
   style="stop-color:#60c5f5"
   id="stop9408" />
    </linearGradient><linearGradient
   id="k"
   gradientUnits="userSpaceOnUse"
   x1="490.16101"
   y1="925.11102"
   x2="490.16101"
   y2="919.55701"
   gradientTransform="translate(-0.18,-875.41)">
        <stop
   offset="0"
   style="stop-color:#08406f"
   id="stop9413" />
        <stop
   offset="1"
   style="stop-color:#60c5f5"
   id="stop9415" />
    </linearGradient>
    
    <linearGradient
   id="l"
   gradientUnits="userSpaceOnUse"
   x1="74.389"
   y1="968.82501"
   x2="70.846001"
   y2="965.28198"
   gradientTransform="translate(-0.18,-875.41)">
        <stop
   offset="0"
   style="stop-color:#08406f"
   id="stop9420" />
        <stop
   offset="1"
   style="stop-color:#60c5f5"
   id="stop9422" />
    </linearGradient>
    
    <linearGradient
   id="m"
   gradientUnits="userSpaceOnUse"
   x1="120.255"
   y1="904.36902"
   x2="114.889"
   y2="904.36902"
   gradientTransform="translate(-0.18,-875.41)">
        <stop
   offset="0"
   style="stop-color:#08406f"
   id="stop9427" />
        <stop
   offset="1"
   style="stop-color:#60c5f5"
   id="stop9429" />
    </linearGradient>
    
    <linearGradient
   id="n"
   gradientUnits="userSpaceOnUse"
   x1="173.08099"
   y1="919.961"
   x2="166.42101"
   y2="919.961"
   gradientTransform="translate(-0.18,-875.41)">
        <stop
   offset="0"
   style="stop-color:#08406f"
   id="stop9434" />
        <stop
   offset="1"
   style="stop-color:#60c5f5"
   id="stop9436" />
    </linearGradient>
    
    <linearGradient
   id="o"
   gradientUnits="userSpaceOnUse"
   x1="255.98801"
   y1="925.216"
   x2="249.995"
   y2="925.216"
   gradientTransform="translate(-0.18,-875.41)">
        <stop
   offset="0"
   style="stop-color:#08406f"
   id="stop9441" />
        <stop
   offset="1"
   style="stop-color:#60c5f5"
   id="stop9443" />
    </linearGradient>
    
    <linearGradient
   id="p"
   gradientUnits="userSpaceOnUse"
   x1="349.27701"
   y1="904.625"
   x2="343.57599"
   y2="904.625"
   gradientTransform="translate(-0.18,-875.41)">
        <stop
   offset="0"
   style="stop-color:#08406f"
   id="stop9448" />
        <stop
   offset="1"
   style="stop-color:#60c5f5"
   id="stop9450" />
    </linearGradient>
    
    <linearGradient
   id="q"
   gradientUnits="userSpaceOnUse"
   x1="400.95999"
   y1="918.44598"
   x2="395.164"
   y2="918.44598"
   gradientTransform="translate(-0.18,-875.41)">
        <stop
   offset="0"
   style="stop-color:#08406f"
   id="stop9455" />
        <stop
   offset="1"
   style="stop-color:#60c5f5"
   id="stop9457" />
    </linearGradient>
    
    <linearGradient
   id="r"
   gradientUnits="userSpaceOnUse"
   x1="101.765"
   y1="968.93799"
   x2="96.653999"
   y2="968.93799"
   gradientTransform="translate(-0.18,-875.41)">
        <stop
   offset="0"
   style="stop-color:#08406f"
   id="stop9462" />
        <stop
   offset="1"
   style="stop-color:#60c5f5"
   id="stop9464" />
    </linearGradient>
    
    <linearGradient
   id="s"
   gradientUnits="userSpaceOnUse"
   x1="121.249"
   y1="973.83801"
   x2="117.696"
   y2="970.28601"
   gradientTransform="translate(-0.18,-875.41)">
        <stop
   offset="0"
   style="stop-color:#08406f"
   id="stop9469" />
        <stop
   offset="1"
   style="stop-color:#60c5f5"
   id="stop9471" />
    </linearGradient>
    
    <linearGradient
   id="t"
   gradientUnits="userSpaceOnUse"
   x1="553.43597"
   y1="892.5"
   x2="549.76703"
   y2="888.83099"
   gradientTransform="translate(-0.18,-875.41)">
        <stop
   offset="0"
   style="stop-color:#08406f"
   id="stop9476" />
        <stop
   offset="1"
   style="stop-color:#60c5f5"
   id="stop9478" />
    </linearGradient>
    
    <linearGradient
   id="u"
   gradientUnits="userSpaceOnUse"
   x1="145.994"
   y1="969.87903"
   x2="140.59599"
   y2="969.87903"
   gradientTransform="translate(-0.18,-875.41)">
        <stop
   offset="0"
   style="stop-color:#08406f"
   id="stop9483" />
        <stop
   offset="1"
   style="stop-color:#60c5f5"
   id="stop9485" />
    </linearGradient>
    
    <linearGradient
   id="v"
   gradientUnits="userSpaceOnUse"
   x1="148.77699"
   y1="907.01001"
   x2="144.289"
   y2="902.52197"
   gradientTransform="translate(-0.18,-875.41)">
        <stop
   offset="0"
   style="stop-color:#08406f"
   id="stop9490" />
        <stop
   offset="1"
   style="stop-color:#60c5f5"
   id="stop9492" />
    </linearGradient>
    
    <linearGradient
   id="w"
   gradientUnits="userSpaceOnUse"
   x1="215.84599"
   y1="922.32098"
   x2="211.688"
   y2="918.164"
   gradientTransform="translate(-0.18,-875.41)">
        <stop
   offset="0"
   style="stop-color:#08406f"
   id="stop9497" />
        <stop
   offset="1"
   style="stop-color:#60c5f5"
   id="stop9499" />
    </linearGradient>
    
    <linearGradient
   id="x"
   gradientUnits="userSpaceOnUse"
   x1="304.31601"
   y1="927.81097"
   x2="299.93201"
   y2="923.42603"
   gradientTransform="translate(-0.18,-875.41)">
        <stop
   offset="0"
   style="stop-color:#08406f"
   id="stop9504" />
        <stop
   offset="1"
   style="stop-color:#60c5f5"
   id="stop9506" />
    </linearGradient>
    
    <linearGradient
   id="y"
   gradientUnits="userSpaceOnUse"
   x1="376.97101"
   y1="906.86102"
   x2="372.763"
   y2="902.65302"
   gradientTransform="translate(-0.18,-875.41)">
        <stop
   offset="0"
   style="stop-color:#08406f"
   id="stop9511" />
        <stop
   offset="1"
   style="stop-color:#60c5f5"
   id="stop9513" />
    </linearGradient>
    
    <linearGradient
   id="z"
   gradientUnits="userSpaceOnUse"
   x1="488.73801"
   y1="935.26501"
   x2="485.28201"
   y2="931.80902"
   gradientTransform="translate(-0.18,-875.41)">
        <stop
   offset="0"
   style="stop-color:#08406f"
   id="stop9518" />
        <stop
   offset="1"
   style="stop-color:#60c5f5"
   id="stop9520" />
    </linearGradient>
    
    <linearGradient
   id="A"
   gradientUnits="userSpaceOnUse"
   x1="499.80801"
   y1="979.37701"
   x2="495.849"
   y2="975.41803"
   gradientTransform="translate(-0.18,-875.41)">
        <stop
   offset="0"
   style="stop-color:#08406f"
   id="stop9525" />
        <stop
   offset="1"
   style="stop-color:#60c5f5"
   id="stop9527" />
    </linearGradient>
    
    <linearGradient
   id="B"
   gradientUnits="userSpaceOnUse"
   x1="441.83701"
   y1="921.61298"
   x2="437.55499"
   y2="917.33099"
   gradientTransform="translate(-0.18,-875.41)">
        <stop
   offset="0"
   style="stop-color:#08406f"
   id="stop9532" />
        <stop
   offset="1"
   style="stop-color:#60c5f5"
   id="stop9534" />
    </linearGradient>
    
    <linearGradient
   id="C"
   gradientUnits="userSpaceOnUse"
   x1="486.85901"
   y1="916.64899"
   x2="481.745"
   y2="911.53497"
   gradientTransform="translate(-0.18,-875.41)">
        <stop
   offset="0"
   style="stop-color:#08406f"
   id="stop9539" />
        <stop
   offset="1"
   style="stop-color:#60c5f5"
   id="stop9541" />
    </linearGradient>
    
    <linearGradient
   id="D"
   gradientUnits="userSpaceOnUse"
   x1="185.97701"
   y1="992.33002"
   x2="182.33501"
   y2="988.68799"
   gradientTransform="translate(-0.18,-875.41)">
        <stop
   offset="0"
   style="stop-color:#08406f"
   id="stop9546" />
        <stop
   offset="1"
   style="stop-color:#60c5f5"
   id="stop9548" />
    </linearGradient>
    
    <linearGradient
   id="E"
   gradientUnits="userSpaceOnUse"
   x1="303.02802"
   y1="969.14001"
   x2="299.38699"
   y2="965.49902"
   gradientTransform="translate(-0.18,-875.41)">
        <stop
   offset="0"
   style="stop-color:#08406f"
   id="stop9553" />
        <stop
   offset="1"
   style="stop-color:#60c5f5"
   id="stop9555" />
    </linearGradient>
    
    <linearGradient
   id="F"
   gradientUnits="userSpaceOnUse"
   x1="349.88901"
   y1="973.08502"
   x2="346.38"
   y2="969.57599"
   gradientTransform="translate(-0.18,-875.41)">
        <stop
   offset="0"
   style="stop-color:#08406f"
   id="stop9560" />
        <stop
   offset="1"
   style="stop-color:#60c5f5"
   id="stop9562" />
    </linearGradient>
    
    <linearGradient
   id="G"
   gradientUnits="userSpaceOnUse"
   x1="370.80399"
   y1="993.64001"
   x2="366.38101"
   y2="989.21698"
   gradientTransform="translate(-0.18,-875.41)">
        <stop
   offset="0"
   style="stop-color:#08406f"
   id="stop9567" />
        <stop
   offset="1"
   style="stop-color:#60c5f5"
   id="stop9569" />
    </linearGradient>
    
    <linearGradient
   id="H"
   gradientUnits="userSpaceOnUse"
   x1="229.457"
   y1="971.76898"
   x2="223.41901"
   y2="971.76898"
   gradientTransform="translate(-0.18,-875.41)">
        <stop
   offset="0"
   style="stop-color:#08406f"
   id="stop9574" />
        <stop
   offset="1"
   style="stop-color:#60c5f5"
   id="stop9576" />
    </linearGradient>
    
    <linearGradient
   id="I"
   gradientUnits="userSpaceOnUse"
   x1="330.30399"
   y1="968.51898"
   x2="325.09201"
   y2="968.51898"
   gradientTransform="translate(-0.18,-875.41)">
        <stop
   offset="0"
   style="stop-color:#08406f"
   id="stop9581" />
        <stop
   offset="1"
   style="stop-color:#60c5f5"
   id="stop9583" />
    </linearGradient>
    
    <linearGradient
   id="J"
   gradientUnits="userSpaceOnUse"
   x1="374.97"
   y1="967.80701"
   x2="368.72501"
   y2="967.80701"
   gradientTransform="translate(-0.18,-875.41)">
        <stop
   offset="0"
   style="stop-color:#08406f"
   id="stop9588" />
        <stop
   offset="1"
   style="stop-color:#60c5f5"
   id="stop9590" />
    </linearGradient>
    
    <linearGradient
   id="K"
   gradientUnits="userSpaceOnUse"
   x1="440.63699"
   y1="959.67499"
   x2="436.21899"
   y2="955.25702"
   gradientTransform="translate(-0.18,-875.41)">
        <stop
   offset="0"
   style="stop-color:#08406f"
   id="stop9595" />
        <stop
   offset="1"
   style="stop-color:#60c5f5"
   id="stop9597" />
    </linearGradient>
    
    <linearGradient
   id="L"
   gradientUnits="userSpaceOnUse"
   x1="472.92001"
   y1="969.51001"
   x2="472.92001"
   y2="963.70801"
   gradientTransform="translate(-0.18,-875.41)">
        <stop
   offset="0"
   style="stop-color:#08406f"
   id="stop9602" />
        <stop
   offset="1"
   style="stop-color:#60c5f5"
   id="stop9604" />
    </linearGradient>
    
    
<g
   id="g22320"
   transform="matrix(0.85563076,0,0,0.85563076,4.3455707e-8,-1.4436925e-4)"><g
     id="g10097"
     transform="matrix(0.63379615,0,0,0.63379615,-1.0995326,-1.0840122e-4)"><path
       fill="url(#a)"
       d="m 491.191,27.662 45.586,0.284 21.172,-22.019 -77.998,-0.285 -73.289,73.575 -10.262,0.567 0.286,-70.783 -41.205,42.054 -9.856,1.169 V 9.374 l -84.361,83.468 -10.489,1.116 0.892,-85.881 -73.73,74.863 -9.682,0.047 L 167.12,11.089 127.342,51.15 116.278,51.717 116.697,8.939 11.591,114.895 46.209,114.328 91.598,70.276 h 8.705 l -0.42,44.264 36.152,-36.997 h 8.644 v 37.687 l -39.787,39.5 38.127,-0.565 75.017,-75.866 h 10.104 v 37.271 l 46.757,0.284 45.218,-45.501 8.728,-0.567 -0.135,43.013 36.131,-36.132 h 8.536 l 0.566,36.435 -0.738,1.896 h 109.175 l 20.901,-21.183 -67.881,-1.154 -0.617,-9.852 10.576,-11.139 25.611,-0.003 22.248,-22.534 -13.447,-0.568 v -9.483 z"
       id="path9348"
       style="fill:url(#a)" /><path
       fill="url(#b)"
       d="M 114.692,13.213 13.577,114.328 2.106,118.641 c 0,0 -0.604,0.039 -0.271,-0.445 0,0 117.26,-117.292 117.472,-117.471 0.212,-0.181 0.467,-0.028 0.467,-0.028 z"
       id="path9355"
       style="fill:url(#b)" /><path
       fill="url(#c)"
       d="m 145.814,115.797 -37.518,37.521 -11.065,4.457 c 0,0 -0.576,0.065 -0.236,-0.407 l 43.929,-43.749 z"
       id="path9362"
       style="fill:url(#c)" /><path
       fill="url(#d)"
       d="M 48.982,118.641 H 2.106 l 11.497,-4.313 h 32.606 z"
       id="path9369"
       style="fill:url(#d)" /><path
       fill="url(#e)"
       d="M 144.781,157.771 H 97.23 l 11.066,-4.457 h 33.872 z"
       id="path9376"
       style="fill:url(#e)" /><path
       fill="url(#f)"
       d="m 484.787,118.613 -114.545,-0.029 3.81,-4.436 107.477,-0.002 z"
       id="path9383"
       style="fill:url(#f)" /><path
       fill="url(#g)"
       d="m 277.053,119.484 -51.527,-0.029 c -0.333,0.005 -0.81,-0.335 -0.81,-0.335 l 4.561,-4.115 h 45.054 z"
       id="path9390"
       style="fill:url(#g)" /><path
       fill="url(#h)"
       d="m 477.382,1.913 h 88.652 c 0.785,0 0.785,0.313 0.785,0.313 l -10.572,4.55 h -75.164 z"
       id="path9397"
       style="fill:url(#h)" /><path
       fill="url(#i)"
       d="m 539.042,31.304 h -46.345 l -2.072,-4.21 h 45.302 z"
       id="path9404"
       style="fill:url(#i)" /><path
       fill="url(#j)"
       d="M 473.589,74.82 H 448.91 l -4.119,-3.718 25.611,-0.002 z"
       id="path9411"
       style="fill:url(#j)" /><path
       fill="url(#k)"
       d="m 491.8,49.7 h -13.58 l -1.193,-5.548 h 25.467 c 0.346,-0.043 0.441,0.146 0.441,0.146 z"
       id="path9418"
       style="fill:url(#k)" /><path
       fill="url(#l)"
       d="M 96.872,70.634 48.982,118.643 46.209,114.33 92.81,67.965 c 2,-2.313 4.675,-1.731 4.675,-1.731 z"
       id="path9425"
       style="fill:url(#l)" /><path
       fill="url(#m)"
       d="M 114.71,51.669 V 13.193 l 5.063,-12.499 c 0,0 0.303,0.075 0.303,0.571 v 53.647 l -0.315,2.311 c 0,10e-4 -4.496,0.025 -5.051,-5.554 z"
       id="path9432"
       style="fill:url(#m)" /><path
       fill="url(#n)"
       d="m 172.902,88.843 c 0,0 -6.539,1.95 -6.621,-5.625 -0.08,-7.313 -0.013,-69.291 -0.013,-69.291 l 5.214,-13.896 c 0,0 0.182,-0.027 0.182,0.725 l -0.017,81.793 z"
       id="path9439"
       style="fill:url(#n)" /><path
       fill="url(#o)"
       d="m 255.809,98.91 c 0,0 -5.889,0.577 -5.96,-6.088 l -0.033,-80.063 4.651,-12.071 c 0,0 0.583,0.153 0.583,0.907 l -0.016,91.14 z"
       id="path9446"
       style="fill:url(#o)" /><path
       fill="url(#p)"
       d="m 349.097,57.425 c 0,0 -4.868,0.452 -5.701,-4.563 V 13.139 l 4.393,-12.147 c 0,0 0.563,0.134 0.563,0.886 v 49.667 z"
       id="path9453"
       style="fill:url(#p)" /><path
       fill="url(#q)"
       d="m 400.781,85.333 c 0,0 -4.938,0.643 -5.797,-4.373 V 13.254 l 4.85,-12.544 c 0,0 0.268,0.221 0.268,1.708 v 77.226 z"
       id="path9460"
       style="fill:url(#q)" /><path
       fill="url(#r)"
       d="m 97.759,120.82 c 0,0 -0.833,-0.069 -0.809,-1.149 L 96.872,70.635 c 0,0 -1.218,-1.577 0.613,-4.4 0.547,0.131 3.495,0.727 4.101,4.256 v 40.37 z"
       id="path9467"
       style="fill:url(#r)" /><path
       fill="url(#s)"
       d="m 140.843,78.598 c 0,0 -41.489,41.548 -41.883,41.938 -0.346,0.379 -1.202,0.282 -1.202,0.282 l 3.827,-9.963 36.059,-36.088 c 0,0 1.34,-1.727 3.831,-1.637 z"
       id="path9474"
       style="fill:url(#s)" /><path
       fill="url(#t)"
       d="M 566.609,3.639 539.043,31.304 535.928,27.093 556.24,6.769 566.822,2.227 c 0,0.001 0.349,0.847 -0.213,1.412 z"
       id="path9481"
       style="fill:url(#t)" /><path
       fill="url(#u)"
       d="m 140.924,113.616 -0.079,-35.025 c 0,0 -1.301,-2.633 0.631,-5.456 0.593,-0.007 3.7,0.421 4.339,4.146 l -0.001,38.52 z"
       id="path9488"
       style="fill:url(#u)" /><path
       fill="url(#v)"
       d="m 166.269,13.926 -41.462,41.463 c -1.987,1.986 -5.045,1.836 -5.045,1.836 -1.795,-3.531 0.315,-6.065 0.315,-6.065 0,0 50.503,-50.49 50.867,-50.87 0.331,-0.417 0.541,-0.264 0.541,-0.264 z"
       id="path9495"
       style="fill:url(#v)" /><path
       fill="url(#w)"
       d="m 249.815,12.762 -74.376,74.375 c -1.55,1.551 -2.537,1.703 -2.537,1.703 -3.781,-1.878 -1.213,-6.255 -1.213,-6.255 0,0 80.652,-80.635 81.016,-81.015 0.943,-1.093 1.761,-0.883 1.761,-0.883 z"
       id="path9502"
       style="fill:url(#w)" /><path
       fill="url(#x)"
       d="M 343.396,13.139 259.233,97.3 c -1.429,1.432 -3.424,1.608 -3.424,1.608 -3.115,-1.556 -0.776,-6.175 -0.776,-6.175 0,0 90.61,-90.5 90.974,-90.881 0.941,-1.098 1.781,-0.862 1.781,-0.862 z"
       id="path9509"
       style="fill:url(#x)" /><path
       fill="url(#y)"
       d="m 394.984,13.254 -42.513,42.514 c -1.429,1.432 -3.374,1.657 -3.374,1.657 -2.932,-1.908 -0.588,-5.983 -0.588,-5.983 0,0 49.584,-49.69 49.947,-50.07 1.047,-1.033 1.377,-0.66 1.377,-0.66 z"
       id="path9516"
       style="fill:url(#y)" /><path
       fill="url(#z)"
       d="M 502.958,45.453 473.589,74.82 470.401,71.098 491.8,49.7 502.935,44.299 c 0,0 0.414,0.294 0.023,1.154 z"
       id="path9523"
       style="fill:url(#z)" /><path
       fill="url(#A)"
       d="m 513.634,89.96 -28.848,28.651 -3.258,-4.465 20.049,-20.049 12.289,-5.38 c 10e-4,0.003 0.397,0.435 -0.232,1.243 z"
       id="path9530"
       style="fill:url(#A)" /><path
       fill="url(#B)"
       d="M 481.083,6.777 404.171,83.69 c -1.43,1.432 -3.395,1.644 -3.395,1.644 -2.449,-3.092 -0.686,-5.979 -0.686,-5.979 l 77.289,-77.44 z"
       id="path9537"
       style="fill:url(#B)" /><path
       fill="url(#C)"
       d="M 492.697,31.304 480.021,44.09 c -2.771,2.282 -1.801,5.608 -1.801,5.608 -2.25,-0.21 -3.125,-2.065 -3.412,-3.695 -0.285,-1.63 0.303,-3.422 1.348,-4.467 l 14.469,-14.44 z"
       id="path9544"
       style="fill:url(#C)" /><path
       fill="url(#D)"
       d="m 142.17,153.316 77.913,-77.943 c 0,0 1.437,-1.873 4.267,-1.771 l -0.456,5.223 c 0,0 -78.666,78.506 -79.113,78.948 z"
       id="path9551"
       style="fill:url(#D)" /><path
       fill="url(#E)"
       d="m 274.33,115.004 47.643,-47.659 c 0,0 1.437,-1.871 4.267,-1.771 l -0.857,5.621 -48.325,48.29 z"
       id="path9558"
       style="fill:url(#E)" /><path
       fill="url(#F)"
       d="m 330.125,110.25 36.779,-36.789 c 0.842,-0.843 1.779,-1.771 3.396,-1.771 l -0.107,5.501 -43.081,43.043 c -0.569,0.563 -1.019,0.399 -1.019,0.399 z"
       id="path9565"
       style="fill:url(#F)" /><path
       fill="url(#G)"
       d="m 361.984,118.057 7.25,-7.281 5.557,2.326 -0.734,1.047 -3.813,4.437 -0.272,0.3 h -7.72 c -0.34,0.014 -0.521,-0.271 -0.521,-0.271 0,0 -0.155,-0.147 0.253,-0.558 z"
       id="path9572"
       style="fill:url(#G)" /><path
       fill="url(#H)"
       d="m 223.983,117.338 -0.09,-38.515 c 0,0 -1.738,-2.016 0.457,-5.223 0.673,-0.01 4.202,0.478 4.928,4.707 l -0.001,36.694 -4.561,4.115 c 0,0.003 -0.73,-0.475 -0.733,-1.778 z"
       id="path9579"
       style="fill:url(#H)" /><path
       fill="url(#I)"
       d="m 325.449,119.945 -0.08,-48.75 c 0,0 -1.472,-2.681 0.871,-5.621 0.596,-0.009 3.243,0.472 3.885,4.702 v 39.975 l -4.028,10.39 c -0.004,-0.002 -0.605,-0.143 -0.648,-0.696 z"
       id="path9586"
       style="fill:url(#I)" /><path
       fill="url(#J)"
       d="M 369.234,110.775 V 78.146 c 0,0 -2.113,-3.379 1.064,-6.456 0.693,-0.008 4.132,0.24 4.492,4.323 v 37.088 z"
       id="path9593"
       style="fill:url(#J)" /><path
       fill="url(#K)"
       d="m 448.91,74.82 -13.451,13.479 -3.844,4.809 c -3.896,-2.458 -1.953,-6.874 -0.912,-7.925 l 14.088,-14.079 z"
       id="path9600"
       style="fill:url(#K)" /><path
       fill="url(#L)"
       d="m 501.58,94.098 h -66.391 c -2.502,-0.196 -3.574,-0.992 -3.574,-0.992 -0.012,-3.571 3.844,-4.809 3.844,-4.809 l 77.746,0.001 c 0.543,-0.001 0.662,0.422 0.662,0.422 z"
       id="path9607"
       style="display:inline;fill:url(#L)" /></g><g
     aria-label="2003"
     transform="skewX(-43.539926)"
     id="text11035"
     style="font-size:53.3333px;font-family:'OCR A Extended';-inkscape-font-specification:'OCR A Extended, Normal';fill:url(#linearGradient15968);stroke:url(#linearGradient12443);stroke-width:3;stroke-linecap:round;stroke-linejoin:round;stroke-miterlimit:0;paint-order:markers stroke fill"><path
       d="m 277.51938,115.37184 h -19.89582 v -15.10415 q 0,-1.822919 1.27604,-3.125002 1.30208,-1.302082 3.09895,-1.302082 H 275.2798 V 85.18957 h -15.62499 q -0.9375,0 -1.5625,-0.624999 -0.625,-0.651042 -0.625,-1.562499 0,-0.911458 0.625,-1.536458 0.625,-0.651041 1.5625,-0.651041 h 15.62499 q 1.82291,0 3.125,1.302082 1.30208,1.276041 1.30208,3.072915 v 10.651036 q 0,1.848957 -1.30208,3.151039 -1.30209,1.276045 -3.125,1.276045 h -13.28125 v 10.72916 h 15.52083 q 0.88542,0 1.53646,0.65104 0.65104,0.625 0.65104,1.53646 0,0.91145 -0.65104,1.56249 -0.65104,0.625 -1.53646,0.625 z"
       id="path7338" /><path
       d="M 289.785,111.1531 V 84.981237 q 0,-1.718749 1.25,-2.968748 1.25,-1.249999 2.96875,-1.249999 h 13.64582 q 1.69271,0 2.91667,1.249999 1.24999,1.249999 1.24999,2.968748 V 111.1531 q 0,1.74479 -1.24999,2.99479 -1.22396,1.22395 -2.96875,1.22395 h -13.59374 q -1.77084,0 -2.99479,-1.22395 -1.22396,-1.25 -1.22396,-2.99479 z m 17.70832,-0.15625 V 85.18957 H 294.16 v 25.80728 z"
       id="path7340" /><path
       d="M 321.99852,111.1531 V 84.981237 q 0,-1.718749 1.25,-2.968748 1.25,-1.249999 2.96875,-1.249999 h 13.64582 q 1.69271,0 2.91667,1.249999 1.25,1.249999 1.25,2.968748 V 111.1531 q 0,1.74479 -1.25,2.99479 -1.22396,1.22395 -2.96875,1.22395 h -13.59374 q -1.77083,0 -2.99479,-1.22395 -1.22396,-1.25 -1.22396,-2.99479 z m 17.70832,-0.15625 V 85.18957 h -13.33332 v 25.80728 z"
       id="path7342" /><path
       d="m 376.34745,85.18957 v 8.20312 q 0,2.864582 -1.77083,4.635414 1.82291,2.031246 1.82291,4.427086 v 8.54166 q 0,1.79687 -1.30208,3.09895 -1.30208,1.27604 -3.125,1.27604 h -15.46874 q -0.91146,0 -1.5625,-0.625 -0.625,-0.65104 -0.625,-1.56249 0,-0.91146 0.625,-1.53646 0.65104,-0.65104 1.5625,-0.65104 h 15.41666 v -8.54166 q 0,-0.91146 -0.65104,-1.5625 -0.625,-0.67709 -1.53646,-0.67709 h -8.80208 q -0.91146,0 -1.5625,-0.624997 -0.625,-0.624999 -0.625,-1.562499 0,-0.911457 0.625,-1.536457 0.65104,-0.651041 1.5625,-0.651041 h 8.85416 q 0.88542,0 1.53646,-0.625 0.65104,-0.651041 0.65104,-1.562499 V 85.18957 h -15.62499 q -0.91146,0 -1.5625,-0.624999 -0.625,-0.651042 -0.625,-1.562499 0,-0.911458 0.625,-1.536458 0.65104,-0.651041 1.5625,-0.651041 h 15.62499 q 1.82292,0 3.09896,1.302082 1.27604,1.276041 1.27604,3.072915 z"
       id="path7344" /></g></g></svg>
