<?xml version="1.0" encoding="UTF-8" standalone="no"?>
<svg
   version="1.1"
   id="Layer_1"
   x="0px"
   y="0px"
   width="451.64841"
   height="100"
   viewBox="0.000244 0 451.64841 100"
   enable-background="new 0.000244 0 444 123"
   xml:space="preserve"
   sodipodi:docname="amiga.svg"
   inkscape:version="1.2.1 (9c6d41e410, 2022-07-14)"
   xmlns:inkscape="http://www.inkscape.org/namespaces/inkscape"
   xmlns:sodipodi="http://sodipodi.sourceforge.net/DTD/sodipodi-0.dtd"
   xmlns="http://www.w3.org/2000/svg"
   xmlns:svg="http://www.w3.org/2000/svg"><sodipodi:namedview
   id="namedview7654"
   pagecolor="#505050"
   bordercolor="#ffffff"
   borderopacity="1"
   inkscape:showpageshadow="0"
   inkscape:pageopacity="0"
   inkscape:pagecheckerboard="1"
   inkscape:deskcolor="#505050"
   showgrid="false"
   inkscape:zoom="1.2353604"
   inkscape:cx="253.36736"
   inkscape:cy="-23.474931"
   inkscape:window-width="1920"
   inkscape:window-height="1017"
   inkscape:window-x="-8"
   inkscape:window-y="-8"
   inkscape:window-maximized="1"
   inkscape:current-layer="Layer_1" />
<defs
   id="defs921"><linearGradient
     id="SVGID_101_"
     gradientUnits="userSpaceOnUse"
     x1="24.787842"
     y1="-11.448242"
     x2="24.78784"
     y2="39.551758"
     gradientTransform="matrix(1,0,0,-1,8.399902,97.009766)">
			<stop
   offset="0.0604"
   style="stop-color:#53B848"
   id="stop873" />
			<stop
   offset="0.5549"
   style="stop-color:#65CCEC"
   id="stop875" />
			<stop
   offset="0.5832"
   style="stop-color:#61C3E7"
   id="stop877" />
			<stop
   offset="0.6882"
   style="stop-color:#55A7D8"
   id="stop879" />
			<stop
   offset="0.7933"
   style="stop-color:#4D92CD"
   id="stop881" />
			<stop
   offset="0.8976"
   style="stop-color:#4886C6"
   id="stop883" />
			<stop
   offset="1"
   style="stop-color:#4682C4"
   id="stop885" />
		</linearGradient><linearGradient
     id="SVGID_102_"
     gradientUnits="userSpaceOnUse"
     x1="33.918701"
     y1="-11.400391"
     x2="114.87601"
     y2="85.080841"
     gradientTransform="matrix(1,0,0,-1,8.399902,97.009766)">
			<stop
   offset="0"
   style="stop-color:#6EBE44"
   id="stop890" />
			<stop
   offset="0.0011"
   style="stop-color:#6EBE44"
   id="stop892" />
			<stop
   offset="0.2454"
   style="stop-color:#BCDA20"
   id="stop894" />
			<stop
   offset="0.4194"
   style="stop-color:#ECEB09"
   id="stop896" />
			<stop
   offset="0.5055"
   style="stop-color:#FFF200"
   id="stop898" />
			<stop
   offset="0.5783"
   style="stop-color:#FBCA08"
   id="stop900" />
			<stop
   offset="0.6794"
   style="stop-color:#F79A11"
   id="stop902" />
			<stop
   offset="0.7753"
   style="stop-color:#F47419"
   id="stop904" />
			<stop
   offset="0.8635"
   style="stop-color:#F1581F"
   id="stop906" />
			<stop
   offset="0.9411"
   style="stop-color:#F04822"
   id="stop908" />
			<stop
   offset="1"
   style="stop-color:#EF4223"
   id="stop910" />
		</linearGradient><linearGradient
     id="SVGID_99_"
     gradientUnits="userSpaceOnUse"
     x1="46.454346"
     y1="-11.449219"
     x2="46.454342"
     y2="39.551758"
     gradientTransform="matrix(1,0,0,-1,8.399902,97.009766)">
			<stop
   offset="0.0604"
   style="stop-color:#53B848"
   id="stop829" />
			<stop
   offset="0.5549"
   style="stop-color:#65CCEC"
   id="stop831" />
			<stop
   offset="0.5832"
   style="stop-color:#61C3E7"
   id="stop833" />
			<stop
   offset="0.6882"
   style="stop-color:#55A7D8"
   id="stop835" />
			<stop
   offset="0.7933"
   style="stop-color:#4D92CD"
   id="stop837" />
			<stop
   offset="0.8976"
   style="stop-color:#4886C6"
   id="stop839" />
			<stop
   offset="1"
   style="stop-color:#4682C4"
   id="stop841" />
		</linearGradient><linearGradient
     id="SVGID_100_"
     gradientUnits="userSpaceOnUse"
     x1="55.585205"
     y1="-11.400879"
     x2="136.54318"
     y2="85.08107"
     gradientTransform="matrix(1,0,0,-1,8.399902,97.009766)">
			<stop
   offset="0"
   style="stop-color:#6EBE44"
   id="stop846" />
			<stop
   offset="0.0011"
   style="stop-color:#6EBE44"
   id="stop848" />
			<stop
   offset="0.2454"
   style="stop-color:#BCDA20"
   id="stop850" />
			<stop
   offset="0.4194"
   style="stop-color:#ECEB09"
   id="stop852" />
			<stop
   offset="0.5055"
   style="stop-color:#FFF200"
   id="stop854" />
			<stop
   offset="0.5783"
   style="stop-color:#FBCA08"
   id="stop856" />
			<stop
   offset="0.6794"
   style="stop-color:#F79A11"
   id="stop858" />
			<stop
   offset="0.7753"
   style="stop-color:#F47419"
   id="stop860" />
			<stop
   offset="0.8635"
   style="stop-color:#F1581F"
   id="stop862" />
			<stop
   offset="0.9411"
   style="stop-color:#F04822"
   id="stop864" />
			<stop
   offset="1"
   style="stop-color:#EF4223"
   id="stop866" />
		</linearGradient></defs>

<path
   id="path804"
   style="fill:#000000;fill-opacity:1;stroke-width:1.03715"
   d="m 155.27664,25.659361 c 0.29373,0.441599 0.46971,0.994105 0.48008,1.669165 l 1.37748,58.351904 c 0.15091,1.652959 0.62391,2.981809 1.34505,4.063524 l 2.78329,4.181014 c -0.71912,-1.081718 -1.19312,-2.41259 -1.34505,-4.063523 l -1.37748,-58.353929 c -0.0104,-0.674048 -0.18535,-1.227566 -0.48008,-1.669165 z m 269.30279,0.101288 c 0.29474,0.442105 0.47174,0.995625 0.48211,1.671191 l 1.37747,58.341776 c 0.14888,1.654984 0.62189,2.986873 1.34101,4.069602 l 2.78328,4.178983 c -0.72013,-1.081718 -1.19313,-2.41259 -1.341,-4.06757 v -0.0021 l -1.37544,-58.341775 c -0.0104,-0.67506 -0.1894,-1.229592 -0.48414,-1.671191 z m -46.0641,0.109387 c 0.23905,0.35804 0.31399,0.771787 0.14788,1.251874 l -4.65706,11.876595 c -0.36969,1.209334 -0.98246,1.942632 -1.60231,1.942633 -0.32918,0 -0.66138,-0.205101 -0.96018,-0.654296 l 2.78329,4.178989 c 0.29878,0.449195 0.631,0.654297 0.95815,0.654297 0.62189,0 1.23466,-0.732286 1.60232,-1.942633 v -0.0021 L 381.4465,31.30285 c 0.16611,-0.480594 0.0891,-0.895352 -0.14788,-1.251873 z m -12.61394,1.106024 c -4.22861,0 -8.42787,0.698356 -12.1683,1.889966 -14.25172,4.548678 -23.28729,12.323258 -29.24483,25.596564 -5.43593,11.916097 -3.2958,24.731597 0.35652,30.21918 l 2.78532,4.17899 c -3.65434,-5.485556 -5.79448,-18.301058 -0.35855,-30.217155 5.95652,-13.274318 14.99312,-21.049406 29.24483,-25.59859 3.74144,-1.191608 7.93867,-1.887939 12.1683,-1.887939 0.66746,0 1.33797,0.01671 2.00543,0.05267 0.53073,0.03039 0.94194,0.330188 1.262,0.810275 l -2.78329,-4.178989 c -0.31905,-0.480088 -0.73229,-0.78242 -1.26201,-0.812301 -0.66847,-0.03545 -1.33695,-0.05267 -2.00542,-0.05267 z m -150.87715,0.269417 2.74886,43.18762 2.78126,4.17899 -2.7448,-43.18762 z m 57.50721,0.08913 c 0.17218,0.258275 -0.20663,0.617328 -1.96695,1.077665 -3.21881,0.838127 -5.85828,0.521615 -6.91164,4.715797 l 2.78532,4.178989 c 1.05335,-4.194688 3.69181,-3.877669 6.91164,-4.715796 1.76235,-0.460338 2.13709,-0.819391 1.96491,-1.077665 z m -8.87859,5.793462 -12.68485,50.931816 v 0.0021 c -0.47604,2.056071 -0.0142,3.984525 1.05741,5.592918 l 2.7833,4.181006 c -1.07263,-1.610405 -1.53547,-3.538863 -1.05944,-5.594935 L 266.43615,37.30711 Z m 51.82717,-5.781308 c 0.52567,0.789005 0.24107,2.130515 -1.83527,2.313334 -3.1712,0.279038 -6.48625,2.535651 -7.26613,5.238423 L 291.59314,86.00859 c -0.35246,1.33594 -0.0527,3.112467 0.95005,4.618564 l 2.78329,4.178988 c -1.00369,-1.506099 -1.3015,-3.280592 -0.94801,-4.616536 l 14.78345,-51.112103 c 0.77888,-2.702771 4.09594,-4.958371 7.26816,-5.238423 2.07634,-0.182311 2.36093,-1.523823 1.83527,-2.313333 z m -33.09768,0.909533 2.7833,4.17899 c 0.0912,0.136733 0.21877,0.231437 0.38893,0.257262 2.48451,0.579852 4.77859,1.533951 5.82992,3.113479 l -2.78127,-4.17899 c -1.05133,-1.580035 -3.34846,-2.534132 -5.83195,-3.113479 -0.17015,-0.02735 -0.2988,-0.121542 -0.38893,-0.257262 z m -95.31662,0.182312 2.78532,4.181016 c 0.1104,0.167626 0.30081,0.295242 0.55706,0.316006 l 4.77454,0.968278 c 0.76773,0.183831 1.38963,0.66949 1.81501,1.308594 l -2.78126,-4.17899 c -0.4254,-0.638598 -1.04931,-1.125269 -1.81704,-1.308594 l -4.77657,-0.968278 c -0.25625,-0.01975 -0.44565,-0.148888 -0.55706,-0.318032 z m 57.41807,12.857027 c -0.27652,0 -0.57327,0.185857 -0.76369,0.567192 l -34.73849,50.411223 c -0.96321,1.550666 -2.4754,2.57869 -3.81639,2.57869 -0.77078,0 -1.48483,-0.341316 -2.0034,-1.120196 l 2.78532,4.181015 c 0.51756,0.777864 1.23161,1.118174 2.0034,1.118174 1.33999,0 2.85217,-1.028035 3.81436,-2.5787 l 34.74052,-50.411216 c 0.18941,-0.381841 0.48313,-0.567192 0.75963,-0.567192 0.20764,0 0.40513,0.104323 0.54086,0.307904 l -2.78329,-4.181015 c -0.13572,-0.203075 -0.33222,-0.306892 -0.53883,-0.305879 z m -46.77106,1.172872 c -0.3778,0 -0.75356,0.232447 -0.96423,0.810274 L 184.83342,80.56558 c -0.97536,2.834947 -1.04424,5.602033 0.11749,7.606451 0.0831,0.147874 0.17323,0.299801 0.27549,0.451727 l 2.78532,4.178991 c -0.10133,-0.152938 -0.19444,-0.303854 -0.27752,-0.451731 -1.16275,-2.005423 -1.09184,-4.772514 -0.11749,-7.606448 L 199.5318,47.459798 v -0.0021 c 0.20966,-0.577319 0.58745,-0.810274 0.96423,-0.810274 0.35652,0 0.71404,0.207633 0.92978,0.532756 l -2.78329,-4.17899 c -0.21675,-0.324616 -0.57326,-0.533768 -0.92978,-0.532756 z m -56.90963,0.182312 c -0.13471,10e-4 -0.28056,0.112932 -0.42944,0.346392 -5.17259,7.345138 -12.29693,16.351337 -17.40267,23.639753 -0.13981,0.245108 -0.16306,0.422354 -0.081,0.544909 l 2.41867,3.630029 -4.2114,-0.02633 -9.18649,13.021107 c -1.12425,1.760321 -0.90446,3.553053 0.1418,5.122959 l 2.78329,4.17899 c -1.04494,-1.569438 -1.26593,-3.361114 -0.1418,-5.120933 v -0.002 l 9.18446,-13.021109 20.9699,0.129644 -2.78126,-4.178989 -16.31082,-0.101288 C 130.863,63.525919 137.98593,54.52316 143.15699,47.17825 l -0.002,-0.0021 c 0.1499,-0.23346 0.29778,-0.346393 0.43148,-0.346393 0.10029,0 0.19246,0.06077 0.27346,0.182313 l -2.78532,-4.17899 c -0.081,-0.121034 -0.17219,-0.181299 -0.27144,-0.182313 z m 269.30279,0.09318 c -0.1347,0 -0.28157,0.112932 -0.42742,0.346393 -5.18069,7.355768 -12.2959,16.359435 -17.41279,23.639749 -0.1368,0.246121 -0.15596,0.42337 -0.075,0.54491 l 2.42272,3.638131 -4.22152,-0.02431 -9.18446,13.021107 c -1.12021,1.754245 -0.89941,3.543937 0.14382,5.110806 l 2.7833,4.176966 c -1.04276,-1.565133 -1.2623,-3.353284 -0.14384,-5.106756 l 0.002,-0.0021 9.18243,-13.023133 20.97193,0.123567 -2.7833,-4.181016 -16.3169,-0.09318 c 10e-4,-0.0023 7.6e-4,-0.0037 0.002,-0.0061 5.11688,-7.280314 12.23311,-16.2855 17.41482,-23.639751 0.14484,-0.233461 0.2907,-0.346393 0.4254,-0.346393 0.1003,0 0.19547,0.0628 0.27751,0.186363 l -2.78329,-4.17899 c -0.082,-0.124578 -0.17619,-0.186363 -0.27752,-0.186363 z m -33.3752,20.82405 c 0.16104,0.240043 -0.0395,0.471984 -0.56111,0.729246 -4.71175,0.707977 -6.58754,1.611433 -7.03926,3.354536 -1.82009,6.190496 -3.45886,12.966415 -6.40927,19.314914 -1.04931,2.274844 -5.99704,4.437263 -7.61051,4.894055 -5.01256,1.78362 -13.34117,3.206654 -21.27375,3.206654 -6.36674,1e-5 -12.47923,-0.91763 -16.41413,-3.299842 -4.10708,-2.511838 -7.27829,-5.649629 -9.58555,-9.113552 l 2.78532,4.181015 c 2.30726,3.463922 5.47644,6.600691 9.58352,9.11153 3.93489,2.384234 10.04842,3.299842 16.41616,3.299842 7.93067,0 16.25898,-1.422318 21.27173,-3.206664 4.9e-4,-1.35e-4 0.001,1.45e-4 0.002,0 0.66785,-0.188844 1.90663,-0.679375 3.20261,-1.338972 l 2.76911,4.156704 c 0.11446,0.170155 0.31905,0.295785 0.61581,0.31601 l 10.28238,-1.444316 -2.78329,-4.181016 -10.28442,1.446339 c -0.28411,-0.02033 -0.47667,-0.139642 -0.59352,-0.297777 1.83608,-0.935178 3.78734,-2.21886 4.40182,-3.551018 2.95113,-6.346857 4.58535,-13.123903 6.40724,-19.312891 v -0.0021 c 0.45056,-1.740869 2.3282,-2.645798 7.03926,-3.354535 0.52157,-0.257263 0.72115,-0.489204 0.56112,-0.729247 z m -33.51092,0.672528 2.78329,4.17899 c 0.21269,0.320058 0.88421,0.611756 1.80084,0.708989 2.05304,0.380828 3.50544,0.657336 4.31066,1.867683 l -2.78532,-4.181015 c -0.80724,-1.210348 -2.25662,-1.484829 -4.31066,-1.865658 -0.91562,-0.09925 -1.58713,-0.389944 -1.79881,-0.708989 z M 105.79116,93.284859 c -0.98348,0 -2.02872,0.04864 -3.11348,0.170155 L 92.405427,94.89933 c -0.301827,-0.02126 -0.50946,-0.145855 -0.62391,-0.31601 l 2.785318,4.178983 c 0.114168,0.171773 0.31925,0.296324 0.61986,0.318042 7.43e-4,5.2e-5 0.0012,-5.2e-5 0.0021,0 l 10.272255,-1.444316 v -0.0021 c 1.08476,-0.121565 2.12799,-0.168133 3.11145,-0.168133 2.85723,0 5.20096,0.397042 6.50651,0.522631 4.86415,0.457384 7.00617,1.349603 7.12232,1.397727 1e-4,4.2e-5 0.002,-4.1e-5 0.002,0 0.0994,0.03205 0.19098,0.04864 0.27347,0.04864 0.67455,0 0.81837,-1.029051 0.47603,-1.541549 l -2.78329,-4.178983 c 0.34234,0.512498 0.19749,1.542555 -0.47807,1.541549 -0.0831,0 -0.17421,-0.01525 -0.27346,-0.04864 v 0.0021 c -0.11344,-0.04761 -2.25459,-0.941941 -7.12434,-1.39975 -1.30353,-0.124572 -3.64421,-0.524642 -6.50245,-0.524642 z m 269.30481,0.09314 c -0.98348,0 -2.02771,0.04864 -3.11145,0.170155 l 2.7833,4.178993 c 1.08374,-0.121565 2.12999,-0.168133 3.11347,-0.168133 2.85621,0 5.19791,0.398059 6.50245,0.522631 4.85963,0.467942 7.00179,1.353171 7.11422,1.399739 v -0.0021 c 0.10029,0.03443 0.19137,0.04864 0.27548,0.04864 0.6786,0 0.8275,-1.027028 0.48415,-1.543581 l -2.78532,-4.178983 c 0.34335,0.51452 0.19447,1.545594 -0.48211,1.545594 -0.0841,0 -0.17417,-0.01618 -0.2755,-0.05061 v 0.0021 c -0.11141,-0.04761 -2.2556,-0.93384 -7.11421,-1.399749 -1.30353,-0.124583 -3.64725,-0.524654 -6.50448,-0.524654 z m -225.52569,0.399054 c -1.17793,0 -2.54022,0.08909 -4.44841,0.291699 -2.3893,0.252194 -1.25795,0.289676 -10.93262,0.719119 -0.25423,0.01214 -0.50541,-0.02831 -0.66038,-0.26131 l 2.78329,4.17696 c 0.15599,0.234012 0.40615,0.275478 0.66038,0.263343 9.67366,-0.429443 8.54435,-0.465909 10.93263,-0.717097 1.9082,-0.203541 3.27147,-0.295743 4.4484,-0.295743 1.36227,0 2.4764,0.123566 3.90147,0.33221 6.09023,0.905484 11.18483,0.984391 11.45323,0.988539 0.32813,-0.107365 0.5601,-0.667479 0.28765,-1.077672 l -2.78329,-4.181016 c 0.27245,0.410204 0.0405,0.970307 -0.28765,1.079695 -0.26841,-0.0041 -5.36503,-0.08505 -11.45526,-0.988539 -1.42506,-0.20966 -2.53818,-0.330188 -3.89944,-0.330188 z m 269.26025,0.09718 c -1.16679,0 -2.51792,0.08816 -4.40384,0.287654 -2.39841,0.252204 -1.25998,0.289676 -10.94478,0.719119 -0.24917,0.01317 -0.49528,-0.02831 -0.64822,-0.259288 l 2.78532,4.178983 c 0.15193,0.230974 0.39805,0.271422 0.6462,0.259288 9.68582,-0.429453 8.54534,-0.465899 10.94477,-0.717086 1.8849,-0.200586 3.23908,-0.289677 4.40587,-0.289677 1.37848,0 2.49767,0.125589 3.94401,0.338288 6.09022,0.894314 11.18583,0.971198 11.45323,0.976384 0.31908,-0.108372 0.55605,-0.667469 0.28765,-1.071584 l -2.7833,-4.178993 c 0.26841,0.403109 0.0324,0.962196 -0.28764,1.071584 -0.2684,-0.0041 -5.36401,-0.08411 -11.45323,-0.978407 -1.44634,-0.212688 -2.56755,-0.336265 -3.94604,-0.336265 z m -120.40069,0.09521 c 0.29777,0.445653 0.14484,1.146539 -0.42742,1.146539 l -18.63631,-0.717096 -17.90302,0.538831 c -0.26536,0 -0.43656,-0.09521 -0.53073,-0.237 l 2.7833,4.178993 c 0.0949,0.141364 0.26669,0.23644 0.53073,0.237 7.8e-4,0 10e-4,0 0.002,0 l 17.90301,-0.538832 18.63631,0.717097 c 0.57124,0 0.72215,-0.697847 0.42539,-1.144517 z m -105.02372,0.01618 c 0.3393,0.510465 0.0325,1.168787 -0.85686,1.213384 l -12.48228,-0.520608 -10.48495,0.390964 c -0.39804,-0.02022 -0.65328,-0.164077 -0.77988,-0.352476 l 2.78329,4.178993 c 0.1256,0.189405 0.38183,0.330167 0.77988,0.352476 L 182.8523,98.857392 195.33255,99.378 c 0.8883,-0.0446 1.19819,-0.702919 0.85889,-1.213394 z m 65.30002,0.204589 c 0.27246,0.41122 0.0415,0.945965 -0.79812,0.990562 l 2.78329,4.178993 c 0.83965,-0.04564 1.07159,-0.579353 0.79812,-0.990562 z m -16.24803,0.423365 -18.76798,0.632143 c -0.46489,0 -0.77786,-0.164077 -0.92979,-0.390954 l 2.78329,4.178983 c 0.15092,0.227893 0.46389,0.390964 0.92776,0.390964 l 18.77204,-0.632019 15.44585,0.56922 -2.78329,-4.181016 z" /><path
   id="path812"
   d="m 434.29766,93.90269 c 0.57834,0.381837 0.31398,1.154639 -0.0678,1.286306 -0.2684,-0.0041 -5.36401,-0.08411 -11.45323,-0.978407 -1.44634,-0.212689 -2.56755,-0.336265 -3.94604,-0.336265 -1.16679,0 -2.51792,0.08909 -4.40383,0.28866 -2.39842,0.252204 -1.25998,0.288659 -10.94478,0.718113 -0.36159,0.01825 -0.71304,-0.07696 -0.79104,-0.698864 0.0851,-0.718103 1.16781,-1.054368 1.50408,-1.156662 3.87209,-1.062478 5.77826,-3.010174 6.62804,-7.764458 0.9146,-5.220193 0.66139,-9.666573 0.53985,-14.252726 l -20.97092,-0.121542 -9.18345,13.023134 c -2.7134,4.250902 2.43691,8.696272 8.1149,9.7314 0.52162,0.41121 0.42641,1.709671 -0.33322,1.709671 -0.0841,0 -0.17522,-0.01618 -0.27651,-0.05061 -0.11141,-0.04657 -2.25459,-0.931818 -7.11319,-1.398743 -1.30454,-0.124572 -3.64827,-0.523637 -6.50448,-0.523637 -0.98348,0 -2.02873,0.04761 -3.11247,0.168133 l -10.28339,1.446338 c -0.96018,-0.06482 -0.95815,-1.221494 0.003,-1.482804 4.97305,-0.643159 10.91236,-4.315723 14.41174,-9.28473 l 41.78687,-58.277459 c 0.68974,-1.005246 2.16444,-1.588137 3.59862,-1.588137 1.79881,0 3.53077,0.917129 3.56319,3.068913 l 1.37645,58.344308 c 0.43754,4.904185 3.72726,6.964313 7.85763,8.130091 z M 405.41948,67.479643 c 2.13406,0 4.14456,0.01114 5.64153,0.04254 l -0.54187,-24.301139 c -0.10735,-0.314994 -0.25219,-0.477049 -0.41324,-0.477049 -0.1347,0 -0.28055,0.112933 -0.4264,0.346392 -5.1807,7.354759 -12.29592,16.359439 -17.41381,23.63874 -0.31803,0.578333 -0.001,0.773812 0.7728,0.773812 0.15192,0.01316 0.74545,0.01722 1.63878,0.01722 1.08678,0 2.62023,-0.0071 4.35016,-0.01722 1.9953,-0.01216 4.25597,-0.02329 6.39205,-0.02329 M 365.45777,23.329822 c 3.23906,0 6.41534,0.268403 9.46906,0.837621 1.9396,0.390957 4.31674,1.277194 3.73638,2.954969 l -4.65806,11.875582 c -0.36868,1.210347 -0.98145,1.942633 -1.60232,1.942633 -0.86193,0 -1.74107,-1.413929 -2.01252,-4.925455 -0.15294,-1.920856 0.15699,-8.83756 -2.48248,-8.985942 -0.66848,-0.03647 -1.33695,-0.05317 -2.00543,-0.05317 -4.22862,0 -8.42888,0.698356 -12.16931,1.889965 -14.25171,4.548678 -23.28729,12.322246 -29.24483,25.596566 -5.82586,12.770936 -2.9504,26.575984 1.16477,31.283678 2.80356,3.207673 9.35868,5.421749 14.39453,5.421749 2.95952,0 5.39338,-0.764698 6.23506,-2.541224 2.72657,-6.553093 4.04834,-14.588988 3.79411,-18.261557 0.008,-4.455495 -1.73703,-4.800875 -5.05713,-5.415671 -2.32853,-0.248147 -3.07499,-1.756269 1.27416,-1.756269 0.23092,0 0.47603,0.004 0.73634,0.01418 1.39469,-0.0081 2.75493,-0.01216 4.09188,-0.01216 3.06183,0 5.99503,0.01823 8.91201,0.03039 2.73873,0.01418 5.46023,0.02835 8.25973,0.02835 2.56047,0 5.18576,-0.01215 7.94475,-0.04659 0.77279,0.382855 0.70696,0.707977 -0.0678,1.090832 -4.71277,0.707977 -6.58855,1.611433 -7.03926,3.355548 -1.8211,6.189483 -3.45684,12.966415 -6.40724,19.314914 -1.04931,2.273833 -5.99807,4.437264 -7.61152,4.894057 -5.01256,1.78362 -13.34218,3.205647 -21.27477,3.205647 -6.36774,0 -12.47923,-0.916623 -16.41413,-3.298825 C 302.66457,82.746221 300.0089,65.64133 306.03632,54.362312 314.97365,37.57596 341.90109,23.329819 365.4578,23.329819 Z M 164.99285,93.799379 c 0.57732,0.390954 0.32411,1.164773 -0.0678,1.296439 -0.26841,-0.0041 -5.36402,-0.08505 -11.45425,-0.98854 -1.42507,-0.20965 -2.53919,-0.331193 -3.90045,-0.331193 -1.17794,0 -2.54022,0.09117 -4.44841,0.293721 -2.38929,0.252194 -1.25998,0.28866 -10.93364,0.718103 -0.36767,0.01825 -0.72519,-0.07696 -0.80217,-0.69987 0.0861,-0.718103 1.1678,-1.062468 1.51318,-1.155656 3.86501,-1.071585 5.77118,-3.010168 6.61894,-7.764452 0.91459,-5.229308 0.67049,-9.675689 0.54794,-14.253738 l -20.9699,-0.129644 -9.18446,13.022121 c -2.72252,4.260017 2.42779,8.707409 8.10781,9.741521 0.5206,0.40311 0.43248,1.707649 -0.32715,1.707649 -0.0831,0 -0.1732,-0.01514 -0.27245,-0.04864 -0.11345,-0.04761 -2.25561,-0.941941 -7.12536,-1.398733 -1.30353,-0.124583 -3.64622,-0.523648 -6.50346,-0.523648 -0.98347,0 -2.02772,0.04761 -3.11247,0.168133 L 92.405487,94.89929 c -0.971316,-0.06482 -0.96929,-1.221484 0.0021,-1.482794 4.963948,-0.643158 10.912383,-4.324843 14.401623,-9.283722 L 148.59608,25.84468 c 0.68974,-1.000689 2.16544,-1.583579 3.60065,-1.583579 1.79778,0 3.52874,0.913583 3.56217,3.065875 l 1.37645,58.353423 c 0.44667,4.894058 3.72625,6.963295 7.85764,8.118951 z M 136.14505,67.37532 c 2.12698,0 4.12835,0.01114 5.62027,0.04355 l -0.55301,-24.289995 c -0.10535,-0.315501 -0.24713,-0.478063 -0.40919,-0.478063 -0.1337,0 -0.28158,0.113945 -0.43046,0.347405 -5.17259,7.345137 -12.29693,16.350322 -17.40369,23.63874 -0.32714,0.577321 -0.001,0.773812 0.77281,0.773812 0.12356,0.01016 0.54288,0.01418 1.18097,0.01418 1.09893,0 2.84508,-0.01114 4.84443,-0.02228 1.99834,-0.01418 4.2509,-0.02735 6.37787,-0.02735 m 146.73056,-40.866689 31.55918,0.261313 c 1.48381,0 2.17964,2.627821 -0.78901,2.889641 -3.17121,0.280052 -6.48726,2.535652 -7.26714,5.238423 l -14.78549,51.109571 c -0.71405,2.713406 1.25492,7.242837 6.34749,7.625691 0.83863,0.195482 0.83661,1.481788 0.0638,1.481788 l -18.63833,-0.71608 -17.90302,0.539847 c -0.97132,0 -0.70697,-1.285299 0.12357,-1.415949 2.45412,-0.447676 9.58655,-3.215779 10.94681,-7.597337 L 289.0195,34.900034 c 1.03209,-3.672569 -2.37815,-5.480999 -6.24822,-6.385468 -0.83863,-0.13167 -0.66847,-1.940608 0.10432,-2.005936 z m -35.46065,0.177247 23.50911,0.149394 c 0.44767,0 3.67459,0.522627 -0.35856,1.576491 -3.21982,0.838127 -5.85827,0.521614 -6.91163,4.715796 l -12.68687,50.933335 c -1.05336,4.548677 2.48551,8.473442 7.06255,9.70202 1.03513,0.25321 1.09894,1.352144 -0.12356,1.417982 l -15.44788,-0.569219 -18.769,0.634041 c -1.36329,0 -1.41596,-1.415949 0.0668,-1.676254 4.38662,-0.448692 8.26378,-4.064539 9.1085,-7.030143 l 12.33844,-44.229835 c 0.001,-0.66797 -0.34334,-1.015375 -0.72114,-1.015375 -0.2765,0 -0.57124,0.185856 -0.76166,0.567192 l -34.73949,50.411723 c -0.96221,1.550665 -2.47641,2.579705 -3.8164,2.579705 -1.44735,0 -2.69113,-1.200212 -2.82178,-4.238743 l -3.49634,-46.99996 c -0.0385,-0.651258 -0.58643,-1.146031 -1.13438,-1.146031 -0.37678,0 -0.75355,0.234473 -0.96423,0.811287 l -11.91508,37.286292 c -0.97537,2.833934 -1.04525,5.602033 0.11648,7.606449 1.15362,2.060123 4.12429,4.577032 7.60341,5.285012 1.35214,0.326132 1.28428,1.677271 -0.003,1.743109 l -12.48126,-0.521614 -10.48494,0.39197 c -1.23162,-0.06586 -1.09894,-1.286316 0.003,-1.483821 3.61078,-0.772792 7.75026,-4.445365 9.62606,-9.674673 l 15.43674,-49.609043 c 0.6472,-1.874266 -0.37577,-4.130374 -2.24953,-4.578051 l -4.77555,-0.968784 c -0.83863,-0.06533 -0.95816,-1.287323 0.002,-1.287323 l 27.39841,-0.222826 2.74684,43.187114 2.00948,-2.442977 26.14451,-38.785805 c 0.32006,-0.523135 1.09692,-1.744623 1.48989,-2.518435 z"
   style="stroke-width:1.03715;fill:#ffffff;fill-opacity:1" /><path
   id="path3613"
   style="font-size:6px;font-family:ArialMT;opacity:0.6084;fill:#231f20;stroke-width:1.03715"
   d="m 447.49804,94.166022 h 0.91461 l 1.15767,3.087153 1.16376,-3.087153 h 0.91459 v 4.53653 h -0.59858 v -3.98351 l -1.16983,3.111453 h -0.61683 l -1.16983,-3.111453 v 3.98351 h -0.59556 z m -4.43017,0 h 3.83766 v 0.516553 h -1.61042 v 4.019977 h -0.61682 v -4.019977 h -1.61042 z" /><polygon
   fill="url(#SVGID_99_)"
   stroke="#000000"
   stroke-width="0.25"
   points="28.687744,57.458008 46.85376,57.458008 81.020752,108.45898 63.020752,108.45898 "
   id="polygon844"
   style="fill:url(#SVGID_99_)"
   transform="matrix(1.0371512,0,0,1.0371511,-7.0377737,-12.617997)" /><polygon
   fill="url(#SVGID_100_)"
   stroke="#000000"
   stroke-width="0.25"
   points="127.37524,12.291992 145.37524,12.291992 81.208252,108.45898 64.042236,108.45898 "
   id="polygon869"
   style="fill:url(#SVGID_100_)"
   transform="matrix(1.0371512,0,0,1.0371511,-7.0377737,-12.617997)" /><polygon
   fill="url(#SVGID_101_)"
   stroke="#000000"
   stroke-width="0.25"
   points="7.020752,57.458008 25.187744,57.458008 59.354736,108.45801 41.354736,108.45801 "
   id="polygon888"
   style="fill:url(#SVGID_101_)"
   transform="matrix(1.0371512,0,0,1.0371511,-7.0377737,-12.617997)" /><polygon
   fill="url(#SVGID_102_)"
   stroke="#000000"
   stroke-width="0.25"
   points="105.70825,12.291016 123.70825,12.291016 59.542236,108.45801 42.375244,108.45801 "
   id="polygon913"
   style="fill:url(#SVGID_102_)"
   transform="matrix(1.0371512,0,0,1.0371511,-7.0377737,-12.617997)" />
</svg>
