<?xml version="1.0" encoding="UTF-8" standalone="no"?>
<!-- Generator: Adobe Illustrator 13.0.0, SVG Export Plug-In . SVG Version: 6.00 Build 14948)  -->

<svg
   version="1.2"
   id="Ebene_1"
   x="0px"
   y="0px"
   width="237.76083"
   height="100"
   viewBox="0 0 237.76084 99.999994"
   xml:space="preserve"
   sodipodi:docname="snes-hacks.svg"
   inkscape:version="1.2.1 (9c6d41e410, 2022-07-14)"
   xmlns:inkscape="http://www.inkscape.org/namespaces/inkscape"
   xmlns:sodipodi="http://sodipodi.sourceforge.net/DTD/sodipodi-0.dtd"
   xmlns="http://www.w3.org/2000/svg"
   xmlns:svg="http://www.w3.org/2000/svg"><defs
     id="defs17400" /><sodipodi:namedview
     pagecolor="#ffffff"
     bordercolor="#666666"
     borderopacity="1"
     objecttolerance="10"
     gridtolerance="10"
     guidetolerance="10"
     inkscape:pageopacity="0"
     inkscape:pageshadow="2"
     inkscape:window-width="1920"
     inkscape:window-height="1017"
     id="namedview17398"
     showgrid="false"
     inkscape:pagecheckerboard="true"
     inkscape:zoom="2.010747"
     inkscape:cx="157.40419"
     inkscape:cy="-31.828967"
     inkscape:window-x="-8"
     inkscape:window-y="-8"
     inkscape:window-maximized="1"
     inkscape:current-layer="Ebene_1"
     inkscape:showpageshadow="0"
     inkscape:deskcolor="#d1d1d1" /><g
     id="g49408"
     transform="translate(-74.937999,-2)"><g
       id="g4825"
       inkscape:label="BG"
       transform="matrix(0.43320847,0,0,0.43320847,118.73602,29.479476)"><rect
         style="fill:#00b507;fill-opacity:1;stroke:none;stroke-width:0.619218;stroke-linecap:round;stroke-linejoin:round;stroke-miterlimit:0;stroke-dasharray:none;stroke-opacity:1;paint-order:markers stroke fill"
         id="rect31175-6"
         width="332.43527"
         height="115.81901"
         x="11.675081"
         y="51.584282"
         ry="23.259359"
         rx="21.236807"
         inkscape:label="HACKS BG" /></g><g
       inkscape:label="HACKS"
       id="layer1-2"
       transform="matrix(1.3840238,0,0,1.3840238,135.39426,63.86923)"><path
         id="path23448-2"
         style="color:#000000;-inkscape-font-specification:'UniDreamLED, Normal';opacity:1;fill:#02f402;fill-opacity:1;stroke-width:0.5;stroke-linecap:round;stroke-linejoin:round;stroke-miterlimit:0;paint-order:markers stroke fill"
         inkscape:label="blu"
         d="m 2.8817938,1.9223233 h 1.577681 L 2.8817938,0.34464333 Z m 12.7744142,0 h 1.591634 V 0.34464333 Z m -12.2452472,0 v 2.15129 h 3.729488 l -2.151807,-2.15129 z m 12.7744142,0 -2.169893,2.15129 h 3.761527 v -2.15129 z m -13.3035812,2.80603 h 3.962032 v -0.4222 l -0.232544,-0.23254 h -3.729488 z m 10.6045212,-0.65474 -0.234611,0.23254 v 0.4222 h 3.996138 v -0.65474 z m -11.1336872,1.02939 h 3.962032 v -0.37465 h -3.962032 z m 14.3660482,0 v -0.37465 h -3.996138 v 0.37465 z m 1.058333,2.80603 v -2.80603 h -3.996138 v 2.80603 z m -10.4040162,0 v -2.80603 h -3.962032 v 2.80603 z m 9.8748492,0 h -3.996138 v 2.08153 l 3.907255,2.4086397 h 0.08888 z m -10.4040162,0 h -3.962032 v 4.4901697 h 0.08785 l 3.874182,-2.4086397 z m 8.9116012,4.4901697 -2.986381,-1.92598 H 7.3605898 l -3.016353,1.92598 z m -12.7857832,0 h -0.08785 v 0.0548 z m -0.08785,1.12241 h 1.145666 l -1.145666,-0.56792 z m 2.652034,0 h 9.0438932 l 1.636592,-0.82631 -0.458886,-0.2961 H 4.3442368 l -0.463538,0.2961 z m 10.5585292,0 h 1.155485 v -0.56792 z m 1.155485,-1.12241 h -0.08888 l 0.08888,0.0548 z m -14.8952142,1.12241 v 0.2806 h 1.71204 l -0.566374,-0.2806 z m 2.652034,0 0.561206,0.2806 h 7.9266482 l 0.556039,-0.2806 z m 10.5585292,0 -0.571025,0.2806 h 1.72651 v -0.2806 z m -13.7397302,0.84181 h 2.844271 l -1.132231,-0.56121 h -1.71204 z m 3.21324,-0.56121 1.122929,0.56121 h 5.6921592 l 1.11156,-0.56121 z m 9.4262982,0 -1.142049,0.56121 h 2.868559 v -0.56121 z m -11.5812052,1.5906 h 3.962032 v -0.47542 l -1.117761,-0.55397 h -2.844271 z m 10.3699102,0 h 3.996138 v -1.02939 h -2.868559 l -1.127579,0.55397 z m -0.341582,-1.02939 H 7.2179628 l 0.142627,0.0713 h 5.4084562 z m -10.5574942,2.15181 h 3.962032 v -1.12242 h -3.962032 z m 14.3660482,0 v -1.12242 h -3.996138 v 1.12242 z m 0,2.24482 v -2.24482 h -3.996138 v 2.24482 z m -10.4040162,0 v -2.24482 h -3.962032 v 2.24482 z m 10.9331822,0 h -3.996138 v 2.34094 l 3.996138,3.94498 z m -10.4040162,0 h -3.962032 v 6.28592 l 3.962032,-3.94498 z M 20.26988,1.9223233 h 1.083138 L 20.26988,0.84383333 Z m 2.08411,0 H 32.53063 L 34.101593,0.34464333 H 20.769591 Z m 11.189498,0 h 1.09244 V 0.84383333 Z m -12.744441,0 v 2.15129 h 3.243212 l -2.160074,-2.15129 z m 2.08411,0 2.160592,2.15129 h 5.87406 l 2.141988,-2.15129 z m 11.189498,0 -2.179712,2.15129 h 3.272152 v -2.15129 z m -9.028906,2.15129 0.233577,0.23254 h 5.408972 l 0.231511,-0.23254 z m -4.773869,0 v 0.65474 h 3.901053 l -0.657841,-0.65474 z m 11.093896,0 -0.663009,0.65474 h 3.935161 v -0.65474 z m 2.742986,1.02939 v -0.37465 h -3.935161 l -0.0615,0.0605 v 0.31419 z m -10.404533,0 v -0.31419 l -0.06046,-0.0605 h -3.901053 v 0.37465 z m 11.462866,2.80603 v -2.80603 h -3.996656 v 2.80603 z m -10.404533,0 v -2.80603 h -3.961515 v 2.80603 z m 9.875366,0 h -3.996656 v 2.08153 l 3.907772,2.4086397 h 0.08888 z m -10.404533,0 H 20.26988 v 4.4901697 h 0.08785 l 3.873666,-2.4086397 z m 8.912117,4.4901697 -2.986381,-1.92598 h -5.408972 l -3.015836,1.92598 z m -12.873632,1.12241 h 1.145666 l -1.145666,-0.56792 z m 2.651517,0 h 9.044409 l 1.636593,-0.82631 -0.458887,-0.2961 H 21.732323 l -0.463538,0.2961 z m 10.558529,0 h 1.156002 v -0.56792 z m 1.156002,-1.12241 h -0.08888 l 0.08888,0.0548 z m -14.278199,0 h -0.08785 v 0.0548 z m -0.617015,1.12241 v 0.2806 h 1.71204 l -0.566374,-0.2806 z m 2.651517,0 0.561723,0.2806 h 7.926648 l 0.556038,-0.2806 z m 10.558529,0 -0.571025,0.2806 h 1.727027 v -0.2806 z m -13.739213,0.2806 v 0.56121 h 2.843754 l -1.131714,-0.56121 z m 3.21324,0 1.122412,0.56121 h 5.692676 l 1.11156,-0.56121 z m 9.425781,0 -1.142049,0.56121 h 2.869076 v -0.56121 z m -11.580688,0.56121 v 1.02939 h 3.961515 v -0.47542 l -1.117761,-0.55397 z m 4.335652,0 0.142627,0.0713 h 5.408972 l 0.141077,-0.0713 z m 7.16132,0 -1.12758,0.55397 v 0.47542 h 3.996656 v -1.02939 z m 2.33991,2.15181 v -1.12242 h -3.996656 v 1.12242 z m -10.404533,0 v -1.12242 h -3.961515 v 1.12242 z m 10.404533,2.24482 v -2.24482 h -3.996656 v 2.24482 z m -10.404533,0 v -2.24482 h -3.961515 v 2.24482 z m 10.933699,0 h -3.996656 v 2.34094 l 3.996656,3.94498 z m -10.404533,0 H 20.26988 v 6.28592 l 3.961515,-3.94498 z M 40.0418,1.9223233 h 9.876916 L 51.48968,0.34464333 h -9.870199 z m 0.529167,0 -0.161747,0.16174 2.020031,1.98955 h 5.876644 l 2.141988,-2.15129 z m -2.15129,2.15129 h 3.01377 l -1.506885,-1.50689 z m 4.009574,0 0.236162,0.23254 h 5.408972 l 0.23151,-0.23254 z m -4.538741,0 -0.232544,0.23254 v 0.4222 h 3.901054 l -0.65474,-0.65474 z m 3.199805,1.02939 v -0.31419 l -0.06046,-0.0605 h -3.901054 v 0.37465 z m 1.058333,2.80603 v -2.80603 h -3.961515 v 2.80603 z m -0.529167,0 h -3.961515 v 4.4901697 h 0.109554 l 3.851961,-1.92598 z m -3.961515,5.6125797 h 0.913639 l -0.913639,-0.56792 z m 0.109554,-1.12241 h -0.109554 v 0.0548 z m -0.63872,1.12241 v 0.2806 h 1.364775 l -0.451136,-0.2806 z m -0.529167,0.2806 v 0.56121 h 2.267562 l -0.902787,-0.56121 z m 1.058333,0.56121 v 1.02939 h 3.923275 l -1.655713,-1.02939 z m 3.432349,2.15181 v -1.09865 l -0.03824,-0.0238 H 37.1288 v 1.12242 z m 0,2.24482 v -2.24482 H 37.1288 v 2.24482 z m 0.529166,0 h -3.961515 v 2.34094 l 1.739429,1.72289 2.222086,-2.22208 z m 0.516765,2.34094 -2.256193,2.22209 1.739428,1.72289 h 9.870199 l -3.944462,-3.94498 z M 53.529865,1.9223233 h 1.577682 L 53.529865,0.34464333 Z m 10.54561,0 h 3.820438 V 0.34464333 h -2.859257 z m -10.016443,0 v 2.15129 h 3.729488 l -2.151806,-2.15129 z m 10.54561,0 -1.310515,2.15129 h 4.501018 l 0.629935,-1.0418 v -1.10949 z m 2.661336,2.15129 H 62.76496 l -0.398942,0.65474 h 4.504118 z m -13.736113,0 v 0.65474 h 3.962032 v -0.4222 l -0.232544,-0.23254 z m 12.811105,0.65474 h -4.504118 l -0.228409,0.37465 h 4.506184 z m -9.378239,0 h -3.962032 v 0.37465 h 3.962032 z m 10.210229,0.37465 h -4.506184 l -1.709457,2.80603 h 4.518587 z m -9.151896,2.80603 v -2.80603 h -3.962032 v 2.80603 z m 6.925675,0 h -4.518587 l -1.110526,1.82315 4.547526,-0.0341 z m -7.454842,0 h -3.962032 v 4.4901697 h 0.08785 l 3.874182,-2.4086397 z m 8.911601,4.4901697 -2.985864,-1.92598 h -5.408972 l -3.015837,1.92598 z m -12.873633,1.12241 h 1.145667 l -1.145667,-0.56792 z m 2.652035,0 h 9.043892 l 1.636593,-0.82631 -0.458887,-0.2961 H 54.992825 l -0.463538,0.2961 z m 10.558528,0 h 1.155485 v -0.56792 z m -13.122713,-1.12241 h -0.08785 v 0.0548 z m -0.617016,1.12241 v 0.2806 h 1.71204 l -0.566373,-0.2806 z m 2.652035,0 0.561723,0.2806 h 7.926647 l 0.555522,-0.2806 z m 10.558528,0 -0.571024,0.2806 h 1.726509 v -0.2806 z m -13.73973,0.2806 v 0.56121 h 2.844271 l -1.132231,-0.56121 z m 3.213758,0 1.122412,0.56121 h 5.692675 l 1.11156,-0.56121 z m 9.425781,0 -1.142049,0.56121 h 2.868558 v -0.56121 z m 2.784842,0.56121 h -2.868558 l -1.12758,0.55397 v 0.47542 h 3.996138 z m -14.366048,0 v 1.02939 h 3.962032 v -0.47542 l -1.117761,-0.55397 z m 4.33617,0 0.142627,0.0713 h 5.408972 l 0.141076,-0.0713 z m 9.500712,1.02939 h -3.996138 v 1.12242 h 3.996138 z m -10.404016,1.12242 v -1.12242 h -3.962032 v 1.12242 z m 10.404016,2.24482 v -2.24482 h -3.996138 v 2.24482 z m -10.404016,0 v -2.24482 h -3.962032 v 2.24482 z m 10.933182,0 h -3.996138 v 2.34094 l 3.996138,3.94498 z m -10.404016,0 h -3.962032 v 6.28592 l 3.962032,-3.94498 z m 13.513904,-6.36085 h -0.08785 v 0.0548 z M 81.597919,4.0736133 h -5.908166 l 0.236161,0.23254 h 5.408972 z m -8.296134,-2.15129 H 83.50065 L 85.283997,0.34464333 H 74.879983 Z m 0.529167,0 -0.161748,0.16174 2.020549,1.98955 h 5.908166 l 2.431888,-2.15129 z m 0.862996,2.15129 -1.506885,-1.50689 -1.507401,1.50689 z m -0.529167,0 h -3.014286 l -0.232544,0.23254 v 0.4222 h 3.90157 z m -3.775996,1.02939 h 3.962032 v -0.31419 l -0.06046,-0.0605 h -3.90157 z m 1.058333,2.80603 h 3.962032 v -2.80603 h -3.962032 z m 12.344459,4.4901697 -2.985858,-1.92598 h -5.408972 l -3.015836,1.92598 z m -12.785776,0 3.874182,-2.4086397 v -2.08153 h -3.962032 v 4.4901697 z m 2.564184,1.12241 h 9.043895 l 1.636587,-0.82631 -0.45889,-0.2961 H 72.380911 l -0.463538,0.2961 z m 10.558522,0 h 1.15549 v -0.56792 z m -11.087688,0 0.561723,0.2806 h 7.926648 l 0.55552,-0.2806 z m 10.558531,0 -0.57103,0.2806 h 1.726507 v -0.2806 z m 0.626317,0.2806 H 82.49916 l -1.142053,0.56121 h 2.86856 z m -11.152292,0 1.122412,0.56121 h 5.692676 l 1.11156,-0.56121 z m 12.210622,0.56121 H 82.41544 l -1.12758,0.55397 v 0.47542 h 3.996137 z m -4.337201,0 H 75.25412 l 0.142627,0.0713 h 5.408972 z m 3.808031,1.02939 h -3.996133 v 1.12242 h 3.996133 z m 0,1.12242 h -3.996133 v 2.24482 h 3.996133 z m 0.52917,2.24482 H 81.28786 v 1.84175 l 2.22209,2.22208 1.774047,-1.72289 z m -9.88725,2.34094 -4.478796,3.94498 H 81.28786 l 1.73995,-1.72289 -2.222091,-2.22209 z" /><path
         id="path22684-2"
         style="color:#000000;-inkscape-font-specification:'UniDreamLED, Normal';opacity:1;fill:#8aff75;fill-opacity:1;stroke-width:0.5;stroke-linecap:round;stroke-linejoin:round;stroke-miterlimit:0;paint-order:markers stroke fill"
         inkscape:label="rosso"
         d="M 0.27762687,1.8755512 H 1.8553079 L 0.27762687,0.29787117 Z m 12.77441413,0 h 1.591634 V 0.29787117 Z m -12.24524713,0 v 2.15129 H 4.5362819 l -2.151807,-2.15129 z m 12.77441413,0 -2.169893,2.15129 h 3.761527 v -2.15129 z M 0.27762687,4.6815812 H 4.2396589 v -0.4222 l -0.232544,-0.23254 H 0.27762687 Z m 10.60452113,-0.65474 -0.234611,0.23254 v 0.4222 h 3.996138 v -0.65474 z m -11.13368713,1.02939 H 3.7104929 v -0.37465 h -3.96203203 z m 14.36604813,0 v -0.37465 h -3.996138 v 0.37465 z m 1.058333,2.80603 v -2.80603 h -3.996138 v 2.80603 z m -10.4040161,0 v -2.80603 H 0.80679387 v 2.80603 z m 9.8748491,0 h -3.996138 v 2.08153 l 3.907255,2.4086398 h 0.08888 z m -10.4040161,0 H 0.27762687 v 4.4901698 h 0.08785 L 4.2396589,9.9437912 Z M 13.15126,12.352431 10.164879,10.426451 H 4.7564229 l -3.016353,1.92598 z m -12.78578313,0 h -0.08785 v 0.0548 z m -0.08785,1.12241 H 1.4232929 l -1.14566603,-0.56792 z m 2.65203403,0 h 9.0438931 l 1.636592,-0.82631 -0.458886,-0.2961 H 1.7400699 l -0.463538,0.2961 z m 10.5585291,0 h 1.155485 v -0.56792 z m 1.155485,-1.12241 h -0.08888 l 0.08888,0.0548 z m -14.89521413,1.12241 v 0.2806 H 1.4605009 l -0.56637401,-0.2806 z m 2.65203403,0 0.561206,0.2806 h 7.9266481 l 0.556039,-0.2806 z m 10.5585291,0 -0.571025,0.2806 h 1.72651 v -0.2806 z m -13.73973013,0.84181 H 2.0635649 l -1.13223101,-0.56121 h -1.71204002 z m 3.21324003,-0.56121 1.122929,0.56121 h 5.692159 l 1.1115601,-0.56121 z m 9.4262981,0 -1.142049,0.56121 h 2.868559 v -0.56121 z m -11.58120513,1.5906 H 4.2396589 v -0.47542 l -1.117761,-0.55397 H 0.27762687 Z m 10.36991013,0 h 3.996138 v -1.02939 h -2.868559 l -1.127579,0.55397 z m -0.341582,-1.02939 H 4.6137959 l 0.142627,0.0713 h 5.4084561 z m -10.55749413,2.15181 H 3.7104929 v -1.12242 h -3.96203203 z m 14.36604813,0 v -1.12242 h -3.996138 v 1.12242 z m 0,2.24482 v -2.24482 h -3.996138 v 2.24482 z m -10.4040161,0 v -2.24482 h -3.96203203 v 2.24482 z m 10.9331821,0 h -3.996138 v 2.34094 l 3.996138,3.94498 z m -10.4040161,0 H 0.27762687 v 6.28592 L 4.2396589,21.054221 Z M 17.665713,1.8755512 h 1.083138 L 17.665713,0.79706117 Z m 2.08411,0 h 10.17664 L 31.497426,0.29787117 H 18.165424 Z m 11.189498,0 h 1.09244 V 0.79706117 Z m -12.744441,0 v 2.15129 h 3.243212 l -2.160074,-2.15129 z m 2.08411,0 2.160592,2.15129 h 5.87406 l 2.141988,-2.15129 z m 11.189498,0 -2.179712,2.15129 h 3.272152 v -2.15129 z m -9.028906,2.15129 0.233577,0.23254 h 5.408972 l 0.231511,-0.23254 z m -4.773869,0 v 0.65474 h 3.901053 l -0.657841,-0.65474 z m 11.093896,0 -0.663009,0.65474 h 3.935161 v -0.65474 z m 2.742986,1.02939 v -0.37465 h -3.935161 l -0.0615,0.0605 v 0.31419 z m -10.404533,0 v -0.31419 l -0.06046,-0.0605 h -3.901053 v 0.37465 z m 11.462866,2.80603 v -2.80603 h -3.996656 v 2.80603 z m -10.404533,0 v -2.80603 H 18.19488 v 2.80603 z m 9.875366,0 h -3.996656 v 2.08153 l 3.907772,2.4086398 h 0.08888 z m -10.404533,0 h -3.961515 v 4.4901698 h 0.08785 l 3.873666,-2.4086398 z m 8.912117,4.4901698 -2.986381,-1.92598 h -5.408972 l -3.015836,1.92598 z m -12.873632,1.12241 h 1.145666 l -1.145666,-0.56792 z m 2.651517,0 h 9.044409 l 1.636593,-0.82631 -0.458887,-0.2961 H 19.128156 l -0.463538,0.2961 z m 10.558529,0 h 1.156002 v -0.56792 z m 1.156002,-1.12241 h -0.08888 l 0.08888,0.0548 z m -14.278199,0 h -0.08785 v 0.0548 z m -0.617015,1.12241 v 0.2806 h 1.71204 l -0.566374,-0.2806 z m 2.651517,0 0.561723,0.2806 h 7.926648 l 0.556038,-0.2806 z m 10.558529,0 -0.571025,0.2806 h 1.727027 v -0.2806 z m -13.739213,0.2806 v 0.56121 h 2.843754 l -1.131714,-0.56121 z m 3.21324,0 1.122412,0.56121 h 5.692676 l 1.11156,-0.56121 z m 9.425781,0 -1.142049,0.56121 h 2.869076 v -0.56121 z m -11.580688,0.56121 v 1.02939 h 3.961515 v -0.47542 l -1.117761,-0.55397 z m 4.335652,0 0.142627,0.0713 h 5.408972 l 0.141077,-0.0713 z m 7.16132,0 -1.12758,0.55397 v 0.47542 h 3.996656 v -1.02939 z m 2.33991,2.15181 v -1.12242 h -3.996656 v 1.12242 z m -10.404533,0 v -1.12242 h -3.961515 v 1.12242 z m 10.404533,2.24482 v -2.24482 h -3.996656 v 2.24482 z m -10.404533,0 v -2.24482 h -3.961515 v 2.24482 z m 10.933699,0 h -3.996656 v 2.34094 l 3.996656,3.94498 z m -10.404533,0 h -3.961515 v 6.28592 l 3.961515,-3.94498 z M 37.437633,1.8755512 h 9.876916 l 1.570964,-1.57768003 h -9.870199 z m 0.529167,0 -0.161747,0.16174 2.020031,1.98955 h 5.876644 l 2.141988,-2.15129 z m -2.15129,2.15129 h 3.01377 l -1.506885,-1.50689 z m 4.009574,0 0.236162,0.23254 h 5.408972 l 0.23151,-0.23254 z m -4.538741,0 -0.232544,0.23254 v 0.4222 h 3.901054 l -0.65474,-0.65474 z m 3.199805,1.02939 v -0.31419 l -0.06046,-0.0605 h -3.901054 v 0.37465 z m 1.058333,2.80603 v -2.80603 h -3.961515 v 2.80603 z m -0.529167,0 h -3.961515 v 4.4901698 h 0.109554 l 3.851961,-1.92598 z m -3.961515,5.6125798 h 0.913639 l -0.913639,-0.56792 z m 0.109554,-1.12241 h -0.109554 v 0.0548 z m -0.63872,1.12241 v 0.2806 h 1.364775 l -0.451136,-0.2806 z m -0.529167,0.2806 v 0.56121 h 2.267562 l -0.902787,-0.56121 z m 1.058333,0.56121 v 1.02939 h 3.923275 l -1.655713,-1.02939 z m 3.432349,2.15181 v -1.09865 l -0.03824,-0.0238 h -3.923275 v 1.12242 z m 0,2.24482 v -2.24482 h -3.961515 v 2.24482 z m 0.529166,0 h -3.961515 v 2.34094 l 1.739429,1.72289 2.222086,-2.22208 z m 0.516765,2.34094 -2.256193,2.22209 1.739428,1.72289 h 9.870199 l -3.944462,-3.94498 z M 50.925698,1.8755512 H 52.50338 L 50.925698,0.29787117 Z m 10.54561,0 h 3.820438 V 0.29787117 h -2.859257 z m -10.016443,0 v 2.15129 h 3.729488 l -2.151806,-2.15129 z m 10.54561,0 -1.310515,2.15129 h 4.501018 l 0.629935,-1.0418 v -1.10949 z m 2.661336,2.15129 h -4.501018 l -0.398942,0.65474 h 4.504118 z m -13.736113,0 v 0.65474 h 3.962032 v -0.4222 l -0.232544,-0.23254 z m 12.811105,0.65474 h -4.504118 l -0.228409,0.37465 h 4.506184 z m -9.378239,0 h -3.962032 v 0.37465 h 3.962032 z m 10.210229,0.37465 h -4.506184 l -1.709457,2.80603 h 4.518587 z m -9.151896,2.80603 v -2.80603 h -3.962032 v 2.80603 z m 6.925675,0 h -4.518587 l -1.110526,1.82315 4.547526,-0.0341 z m -7.454842,0 h -3.962032 v 4.4901698 h 0.08785 L 54.88773,9.9437912 Z m 8.911601,4.4901698 -2.985864,-1.92598 h -5.408972 l -3.015837,1.92598 z m -12.873633,1.12241 h 1.145667 l -1.145667,-0.56792 z m 2.652035,0 h 9.043892 l 1.636593,-0.82631 -0.458887,-0.2961 H 52.388658 l -0.463538,0.2961 z m 10.558528,0 h 1.155485 v -0.56792 z m -13.122713,-1.12241 h -0.08785 v 0.0548 z m -0.617016,1.12241 v 0.2806 h 1.71204 l -0.566373,-0.2806 z m 2.652035,0 0.561723,0.2806 h 7.926647 l 0.555522,-0.2806 z m 10.558528,0 -0.571024,0.2806 h 1.726509 v -0.2806 z m -13.73973,0.2806 v 0.56121 h 2.844271 l -1.132231,-0.56121 z m 3.213758,0 1.122412,0.56121 h 5.692675 l 1.11156,-0.56121 z m 9.425781,0 -1.142049,0.56121 h 2.868558 v -0.56121 z m 2.784842,0.56121 h -2.868558 l -1.12758,0.55397 v 0.47542 h 3.996138 z m -14.366048,0 v 1.02939 h 3.962032 v -0.47542 l -1.117761,-0.55397 z m 4.33617,0 0.142627,0.0713 h 5.408972 l 0.141076,-0.0713 z m 9.500712,1.02939 h -3.996138 v 1.12242 h 3.996138 z m -10.404016,1.12242 v -1.12242 h -3.962032 v 1.12242 z m 10.404016,2.24482 v -2.24482 h -3.996138 v 2.24482 z m -10.404016,0 v -2.24482 h -3.962032 v 2.24482 z m 10.933182,0 h -3.996138 v 2.34094 l 3.996138,3.94498 z m -10.404016,0 h -3.962032 v 6.28592 l 3.962032,-3.94498 z m 13.513904,-6.36085 h -0.08785 v 0.0548 z M 78.993752,4.0268412 h -5.908166 l 0.236161,0.23254 h 5.408972 z m -8.296134,-2.15129 H 80.896483 L 82.67983,0.29787117 H 72.275816 Z m 0.529167,0 -0.161748,0.16174 2.020549,1.98955 h 5.908166 l 2.431888,-2.15129 z m 0.862996,2.15129 -1.506885,-1.50689 -1.507401,1.50689 z m -0.529167,0 h -3.014286 l -0.232544,0.23254 v 0.4222 h 3.90157 z m -3.775996,1.02939 h 3.962032 v -0.31419 l -0.06046,-0.0605 h -3.90157 z m 1.058333,2.80603 h 3.962032 v -2.80603 H 68.842951 Z M 81.18741,12.352431 78.201552,10.426451 H 72.79258 l -3.015836,1.92598 z m -12.785776,0 3.874182,-2.4086398 v -2.08153 h -3.962032 v 4.4901698 z m 2.564184,1.12241 h 9.043895 l 1.636587,-0.82631 -0.45889,-0.2961 H 69.776744 l -0.463538,0.2961 z m 10.558522,0 h 1.15549 v -0.56792 z m -11.087688,0 0.561723,0.2806 h 7.926648 l 0.55552,-0.2806 z m 10.558531,0 -0.57103,0.2806 h 1.726507 v -0.2806 z m 0.626317,0.2806 h -1.726507 l -1.142053,0.56121 h 2.86856 z m -11.152292,0 1.122412,0.56121 h 5.692676 l 1.11156,-0.56121 z m 12.210622,0.56121 h -2.868557 l -1.12758,0.55397 v 0.47542 h 3.996137 z m -4.337201,0 h -5.692676 l 0.142627,0.0713 h 5.408972 z m 3.808031,1.02939 h -3.996133 v 1.12242 h 3.996133 z m 0,1.12242 h -3.996133 v 2.24482 h 3.996133 z m 0.52917,2.24482 h -3.996137 v 1.84175 l 2.22209,2.22208 1.774047,-1.72289 z m -9.88725,2.34094 -4.478796,3.94498 h 10.369909 l 1.73995,-1.72289 -2.222091,-2.22209 z" /><path
         id="path8521-0"
         style="color:#000000;-inkscape-font-specification:'UniDreamLED, Normal';fill:#083106;fill-opacity:1;stroke-width:0.5;stroke-linecap:round;stroke-linejoin:round;stroke-miterlimit:0;paint-order:markers stroke fill"
         inkscape:label="verde"
         d="M 1.308964,1.8278 H 2.886645 L 1.308964,0.25012 Z m 12.774414,0 h 1.591634 V 0.25012 Z m -12.245247,0 V 3.97909 H 5.567619 L 3.415812,1.8278 Z m 12.774414,0 -2.169893,2.15129 h 3.761527 V 1.8278 Z M 1.308964,4.63383 H 5.270996 V 4.21163 L 5.038452,3.97909 H 1.308964 Z M 11.913485,3.97909 11.678874,4.21163 v 0.4222 h 3.996138 V 3.97909 Z M 0.779798,5.00848 H 4.74183 V 4.63383 H 0.779798 Z m 14.366048,0 V 4.63383 h -3.996138 v 0.37465 z m 1.058333,2.80603 V 5.00848 h -3.996138 v 2.80603 z m -10.404016,0 V 5.00848 H 1.838131 v 2.80603 z m 9.874849,0 h -3.996138 v 2.08153 l 3.907255,2.40864 h 0.08888 z m -10.404016,0 H 1.308964 v 4.49017 h 0.08785 L 5.270996,9.89604 Z m 8.911601,4.49017 -2.986381,-1.92598 H 5.78776 l -3.016353,1.92598 z m -12.785783,0 h -0.08785 v 0.0548 z m -0.08785,1.12241 H 2.45463 L 1.308964,12.85917 Z m 2.652034,0 h 9.043893 l 1.636592,-0.82631 -0.458886,-0.2961 H 2.771407 l -0.463538,0.2961 z m 10.558529,0 h 1.155485 v -0.56792 z m 1.155485,-1.12241 h -0.08888 l 0.08888,0.0548 z M 0.779798,13.42709 v 0.2806 h 1.71204 l -0.566374,-0.2806 z m 2.652034,0 0.561206,0.2806 h 7.926648 l 0.556039,-0.2806 z m 10.558529,0 -0.571025,0.2806 h 1.72651 v -0.2806 z M 0.250631,14.2689 H 3.094902 L 1.962671,13.70769 H 0.250631 Z M 3.463871,13.70769 4.5868,14.2689 h 5.692159 l 1.11156,-0.56121 z m 9.426298,0 -1.142049,0.56121 h 2.868559 V 13.70769 Z M 1.308964,15.29829 H 5.270996 V 14.82287 L 4.153235,14.2689 H 1.308964 Z m 10.36991,0 h 3.996138 V 14.2689 h -2.868559 l -1.127579,0.55397 z M 11.337292,14.2689 H 5.645133 l 0.142627,0.0713 h 5.408456 z M 0.779798,16.42071 H 4.74183 V 15.29829 H 0.779798 Z m 14.366048,0 v -1.12242 h -3.996138 v 1.12242 z m 0,2.24482 v -2.24482 h -3.996138 v 2.24482 z m -10.404016,0 V 16.42071 H 0.779798 v 2.24482 z m 10.933182,0 h -3.996138 v 2.34094 l 3.996138,3.94498 z m -10.404016,0 H 1.308964 v 6.28592 L 5.270996,21.00647 Z M 18.69705,1.8278 h 1.083138 L 18.69705,0.74931 Z m 2.08411,0 H 30.9578 L 32.528763,0.25012 H 19.196761 Z m 11.189498,0 h 1.09244 V 0.74931 Z m -12.744441,0 v 2.15129 h 3.243212 L 20.309355,1.8278 Z m 2.08411,0 2.160592,2.15129 h 5.87406 L 31.486967,1.8278 Z m 11.189498,0 -2.179712,2.15129 h 3.272152 V 1.8278 Z m -9.028906,2.15129 0.233577,0.23254 h 5.408972 l 0.231511,-0.23254 z m -4.773869,0 v 0.65474 h 3.901053 L 21.940262,3.97909 Z m 11.093896,0 -0.663009,0.65474 h 3.935161 V 3.97909 Z m 2.742986,1.02939 V 4.63383 h -3.935161 l -0.0615,0.0605 v 0.31419 z m -10.404533,0 V 4.69429 l -0.06046,-0.0605 H 18.167886 V 5.00844 Z M 33.592265,7.81451 V 5.00848 h -3.996656 v 2.80603 z m -10.404533,0 V 5.00848 h -3.961515 v 2.80603 z m 9.875366,0 h -3.996656 v 2.08153 l 3.907772,2.40864 h 0.08888 z m -10.404533,0 H 18.69705 v 4.49017 h 0.08785 l 3.873666,-2.40864 z m 8.912117,4.49017 -2.986381,-1.92598 h -5.408972 l -3.015836,1.92598 z M 18.69705,13.42709 h 1.145666 L 18.69705,12.85917 Z m 2.651517,0 h 9.044409 l 1.636593,-0.82631 -0.458887,-0.2961 H 20.159493 l -0.463538,0.2961 z m 10.558529,0 h 1.156002 v -0.56792 z m 1.156002,-1.12241 h -0.08888 l 0.08888,0.0548 z m -14.278199,0 h -0.08785 v 0.0548 z m -0.617015,1.12241 v 0.2806 h 1.71204 l -0.566374,-0.2806 z m 2.651517,0 0.561723,0.2806 h 7.926648 l 0.556038,-0.2806 z m 10.558529,0 -0.571025,0.2806 h 1.727027 v -0.2806 z m -13.739213,0.2806 v 0.56121 h 2.843754 l -1.131714,-0.56121 z m 3.21324,0 1.122412,0.56121 h 5.692676 l 1.11156,-0.56121 z m 9.425781,0 -1.142049,0.56121 h 2.869076 V 13.70769 Z M 18.69705,14.2689 v 1.02939 h 3.961515 V 14.82287 L 21.540804,14.2689 Z m 4.335652,0 0.142627,0.0713 h 5.408972 l 0.141077,-0.0713 z m 7.16132,0 -1.12758,0.55397 v 0.47542 h 3.996656 V 14.2689 Z m 2.33991,2.15181 v -1.12242 h -3.996656 v 1.12242 z m -10.404533,0 v -1.12242 h -3.961515 v 1.12242 z m 10.404533,2.24482 v -2.24482 h -3.996656 v 2.24482 z m -10.404533,0 v -2.24482 h -3.961515 v 2.24482 z m 10.933699,0 h -3.996656 v 2.34094 l 3.996656,3.94498 z m -10.404533,0 H 18.69705 v 6.28592 l 3.961515,-3.94498 z M 38.46897,1.8278 h 9.876916 L 49.91685,0.25012 h -9.870199 z m 0.529167,0 -0.161747,0.16174 2.020031,1.98955 h 5.876644 L 48.875053,1.8278 Z m -2.15129,2.15129 h 3.01377 L 38.353732,2.4722 Z m 4.009574,0 0.236162,0.23254 h 5.408972 l 0.23151,-0.23254 z m -4.538741,0 -0.232544,0.23254 v 0.4222 H 39.98619 L 39.33145,3.97909 Z m 3.199805,1.02939 V 4.69429 l -0.06046,-0.0605 h -3.901054 v 0.37465 z m 1.058333,2.80603 V 5.00848 h -3.961515 v 2.80603 z m -0.529167,0 h -3.961515 v 4.49017 h 0.109554 l 3.851961,-1.92598 z m -3.961515,5.61258 h 0.913639 l -0.913639,-0.56792 z m 0.109554,-1.12241 h -0.109554 v 0.0548 z m -0.63872,1.12241 v 0.2806 h 1.364775 l -0.451136,-0.2806 z m -0.529167,0.2806 v 0.56121 h 2.267562 l -0.902787,-0.56121 z m 1.058333,0.56121 v 1.02939 h 3.923275 L 38.352698,14.2689 Z m 3.432349,2.15181 v -1.09865 l -0.03824,-0.0238 H 35.55597 v 1.12242 z m 0,2.24482 V 16.42071 H 35.55597 v 2.24482 z m 0.529166,0 h -3.961515 v 2.34094 l 1.739429,1.72289 2.222086,-2.22208 z m 0.516765,2.34094 -2.256193,2.22209 1.739428,1.72289 H 49.91685 L 45.972388,21.00647 Z M 51.957035,1.8278 h 1.577682 L 51.957035,0.25012 Z m 10.54561,0 h 3.820438 V 0.25012 h -2.859257 z m -10.016443,0 V 3.97909 H 56.21569 L 54.063884,1.8278 Z m 10.54561,0 -1.310515,2.15129 h 4.501018 L 66.85225,2.93729 V 1.8278 Z m 2.661336,2.15129 H 61.19213 l -0.398942,0.65474 h 4.504118 z m -13.736113,0 v 0.65474 h 3.962032 V 4.21163 L 55.686523,3.97909 Z M 64.76814,4.63383 h -4.504118 l -0.228409,0.37465 h 4.506184 z m -9.378239,0 h -3.962032 v 0.37465 h 3.962032 z M 65.60013,5.00848 h -4.506184 l -1.709457,2.80603 h 4.518587 z M 56.448234,7.81451 V 5.00848 h -3.962032 v 2.80603 z m 6.925675,0 h -4.518587 l -1.110526,1.82315 4.547526,-0.0341 z m -7.454842,0 h -3.962032 v 4.49017 h 0.08785 l 3.874182,-2.40864 z m 8.911601,4.49017 -2.985864,-1.92598 h -5.408972 l -3.015837,1.92598 z m -12.873633,1.12241 h 1.145667 l -1.145667,-0.56792 z m 2.652035,0 h 9.043892 l 1.636593,-0.82631 -0.458887,-0.2961 H 53.419995 l -0.463538,0.2961 z m 10.558528,0 h 1.155485 V 12.85917 Z M 52.044885,12.30468 h -0.08785 v 0.0548 z m -0.617016,1.12241 v 0.2806 h 1.71204 l -0.566373,-0.2806 z m 2.652035,0 0.561723,0.2806 h 7.926647 l 0.555522,-0.2806 z m 10.558528,0 -0.571024,0.2806 h 1.726509 v -0.2806 z m -13.73973,0.2806 v 0.56121 h 2.844271 l -1.132231,-0.56121 z m 3.213758,0 1.122412,0.56121 h 5.692675 l 1.11156,-0.56121 z m 9.425781,0 -1.142049,0.56121 h 2.868558 v -0.56121 z m 2.784842,0.56121 h -2.868558 l -1.12758,0.55397 v 0.47542 h 3.996138 z m -14.366048,0 v 1.02939 h 3.962032 V 14.82287 L 54.801306,14.2689 Z m 4.33617,0 0.142627,0.0713 h 5.408972 l 0.141076,-0.0713 z m 9.500712,1.02939 h -3.996138 v 1.12242 h 3.996138 z m -10.404016,1.12242 v -1.12242 h -3.962032 v 1.12242 z m 10.404016,2.24482 v -2.24482 h -3.996138 v 2.24482 z m -10.404016,0 v -2.24482 h -3.962032 v 2.24482 z m 10.933182,0 h -3.996138 v 2.34094 l 3.996138,3.94498 z m -10.404016,0 h -3.962032 v 6.28592 l 3.962032,-3.94498 z m 13.513904,-6.36085 h -0.08785 v 0.0548 z M 80.025089,3.97909 h -5.908166 l 0.236161,0.23254 h 5.408972 z M 71.728955,1.8278 H 81.92782 L 83.711167,0.25012 H 73.307153 Z m 0.529167,0 -0.161748,0.16174 2.020549,1.98955 h 5.908166 L 82.456977,1.8278 Z M 73.121118,3.97909 71.614233,2.4722 70.106832,3.97909 Z m -0.529167,0 h -3.014286 l -0.232544,0.23254 v 0.4222 h 3.90157 z m -3.775996,1.02939 h 3.962032 V 4.69429 l -0.06046,-0.0605 h -3.90157 z m 1.058333,2.80603 H 73.83632 V 5.00848 h -3.962032 z m 12.344459,4.49017 -2.985858,-1.92598 h -5.408972 l -3.015836,1.92598 z m -12.785776,0 3.874182,-2.40864 V 7.81451 h -3.962032 v 4.49017 z m 2.564184,1.12241 h 9.043895 l 1.636587,-0.82631 -0.45889,-0.2961 H 70.808081 l -0.463538,0.2961 z m 10.558522,0 h 1.15549 v -0.56792 z m -11.087688,0 0.561723,0.2806 h 7.926648 l 0.55552,-0.2806 z m 10.558531,0 -0.57103,0.2806 h 1.726507 v -0.2806 z m 0.626317,0.2806 H 80.92633 l -1.142053,0.56121 h 2.86856 z m -11.152292,0 1.122412,0.56121 h 5.692676 l 1.11156,-0.56121 z M 83.711167,14.2689 H 80.84261 l -1.12758,0.55397 v 0.47542 h 3.996137 z m -4.337201,0 H 73.68129 l 0.142627,0.0713 h 5.408972 z m 3.808031,1.02939 h -3.996133 v 1.12242 h 3.996133 z m 0,1.12242 h -3.996133 v 2.24482 h 3.996133 z m 0.52917,2.24482 H 79.71503 v 1.84175 l 2.22209,2.22208 1.774047,-1.72289 z m -9.88725,2.34094 -4.478796,3.94498 H 79.71503 l 1.73995,-1.72289 -2.222091,-2.22209 z" /></g><g
       id="g25281"
       inkscape:label="SNES"
       transform="matrix(0.59516169,0,0,0.59516169,27.957126,-0.97578756)"><g
         id="g24242"
         style="fill:none;fill-opacity:1"><path
           style="display:inline;fill:#00b507;fill-opacity:1"
           d="M 78.938,80.625965 V 103.43796 H 469.943 V 80.625965 Z"
           id="path23571" /><g
           id="g24225"
           style="fill:#00b507;fill-opacity:1"><path
             id="path23561"
             style="fill:#00b507;fill-opacity:1"
             d="m 457.88722,5 c -3.76,0 -7.34363,3.0899725 -8.01563,6.917969 l -9.79687,56.240234 c -0.635,3.587997 1.73971,6.439453 5.3457,6.439453 h 14.45313 c 3.62299,0 7.13654,-2.852456 7.81054,-6.439453 L 478.29933,11.917969 C 479.02833,8.0899725 476.57276,5 472.82277,5 Z m 5.13867,8.015625 h 0.27344 c 2.584,0 4.28098,2.071253 3.83398,4.65625 l -8.21679,45.554687 c -0.449,2.576998 -2.83012,4.726563 -5.41211,4.726563 -2.588,0 -3.66566,-2.141565 -3.22266,-4.726563 l 8.15234,-45.554687 0.0664,-0.205078 0.0703,-0.207031 0.0645,-0.273438 0.0684,-0.205078 0.0703,-0.273438 0.0664,-0.207031 0.0703,-0.205078 0.13476,-0.205078 0.0684,-0.205078 0.13867,-0.207031 0.0684,-0.205078 0.13672,-0.205079 0.13867,-0.136718 0.13477,-0.205079 0.13867,-0.207031 0.20508,-0.136719 0.13672,-0.138671 0.13867,-0.136719 0.20312,-0.138672 0.20704,-0.136719 0.14062,-0.136719 0.20117,-0.138671 0.20703,-0.06836 0.20508,-0.136719 0.14063,-0.06836 0.26953,-0.06836 0.20508,-0.06836 h 0.20507 l 0.20508,-0.06836 h 0.27539 z" /><path
             id="path23559"
             style="fill:#00b507;fill-opacity:1"
             d="m 420.2837,5 -13.22656,69.597656 h 20.00391 c 3.63299,0 7.1385,-2.850503 7.8125,-6.4375 L 445.48878,11.919922 C 446.20878,8.0839256 443.76631,5 440.00831,5 Z m 7.46485,8.015625 h 4.04297 c 2.58399,0 4.34834,2.071253 3.90234,4.65625 l -8.63281,45.554687 c -0.451,2.584998 -2.96283,4.726563 -5.54883,4.726563 h -3.97266 z" /><path
             id="path23545"
             style="fill:#00b507;fill-opacity:1"
             d="m 209.98097,5 -13.15039,69.597656 h 8.76758 l 5.96093,-31.511718 h 6.23438 c 0.818,0.763999 0.91639,2.170953 1.02539,2.876953 0.162,1.024999 0.33403,2.333423 0.20703,3.357421 -0.113,1.016999 -4.79883,25.275391 -4.79883,25.275391 h 8.77149 c 0,0 4.93164,-26.429516 4.93164,-26.853515 0.016,-0.431 4.3e-4,-1.784204 -0.47657,-2.533204 -0.32199,-0.478999 -0.87276,-1.582375 -1.50976,-1.984375 -1.223,-0.784999 -2.60547,-1.304687 -2.60547,-1.304687 h -0.61914 c 2.512,-0.987999 7.24014,-2.61744 7.74414,-5.273438 l 4.79297,-24.730468 C 235.98536,8.0820194 233.53779,5 229.7798,5 Z m 8.14844,8.289062 h 0.0703 0.0684 0.0684 0.0684 3.97461 c 0.934,0 2.92228,2.135033 2.73828,3.082032 l -3.63282,17.125 c -0.15799,0.896999 -2.38915,3.015625 -3.28515,3.015625 h -3.76953 c -0.777,0 -1.31314,-0.51147 -1.36914,-1.230469 0,-0.114 -0.017,-0.27811 0,-0.412109 l 4.04101,-21.029297 0.0664,-0.06836 0.0703,-0.06836 0.13477,-0.06836 h 0.0684 l 0.0684,-0.06836 0.0684,-0.06836 h 0.0664 l 0.0684,-0.06836 h 0.0703 l 0.13477,-0.06836 h 0.0684 0.0664 0.0684 v -0.06836 h 0.008 z" /><path
             id="path23541"
             style="fill:#00b507;fill-opacity:1"
             d="m 155.11183,5 -13.22266,69.597656 h 8.76953 l 6.02735,-31.511718 h 11.16601 c 3.632,0 7.07524,-2.870504 7.74024,-6.4375 l 4.79492,-24.730469 C 181.11122,8.0829725 178.66765,5 174.91066,5 h -11.03125 z m 8.42383,8.289062 h 4.24804 c 0.933,0 2.91219,2.135033 2.74219,3.082032 l -3.63281,17.195312 c -0.169,0.889999 -1.36982,2.94336 -2.25781,2.94336 h -5.14063 -0.0684 -0.0664 l -0.0703,-0.06641 h -0.0664 -0.0684 -0.0703 -0.0684 v -0.07031 h -0.0684 -0.0684 l -0.0703,-0.06641 h -0.0684 l -0.0684,-0.06836 -0.0664,-0.06836 h -0.0684 v -0.07031 l -0.0703,-0.06836 -0.0684,-0.06836 v -0.06836 l -0.0684,-0.06836 -0.0703,-0.06836 v -0.06641 -0.07227 l -0.0664,-0.06641 v -0.06836 -0.06836 l -0.0703,-0.06836 v -0.06836 c 0,-0.114 -0.012,-0.28511 0,-0.412109 l 4.11132,-21.029297 c 0.377,-0.311 0.83579,-0.548828 1.30079,-0.548829 z" /><path
             style="fill:#00b507;fill-opacity:1"
             d="M 385.414,4.9999649 372.193,74.597965 h 10.137 l 8.154,-40.347 3.219,40.347 h 8.768 L 415.693,4.9999649 H 405.554 L 398.771,41.374965 394.25,4.9999649 Z"
             id="path23557" /><path
             style="fill:#00b507;fill-opacity:1"
             d="M 363.15,4.9999649 349.451,74.597965 h 19.727 l 1.371,-8.632 h -9.727 l 4.043,-23.495 h 9.725 l 1.371,-7.262 h -9.727 l 4.244,-21.578 h 9.729 l 1.371,-8.6310001 z"
             id="path23555" /><path
             style="fill:#00b507;fill-opacity:1"
             d="m 339.039,4.9999649 -1.646,8.6320001 h 5.48 l -10.824,60.966 h 10.004 l 11.027,-60.966 h 5.273 l 1.371,-8.6320001 z"
             id="path23553" /><path
             style="fill:#00b507;fill-opacity:1"
             d="M 305.058,4.9999649 291.839,74.597965 h 10.139 l 8.152,-40.347 3.219,40.347 h 8.77 L 335.339,4.9999649 H 325.2 L 318.419,41.374965 313.898,4.9999649 Z"
             id="path23551" /><path
             style="fill:#00b507;fill-opacity:1"
             d="M 291.703,4.9999649 278.484,74.597965 h 8.768 L 300.47,4.9999649 Z"
             id="path23549" /><path
             style="fill:#00b507;fill-opacity:1"
             d="M 256.906,4.9999649 243.683,74.597965 h 10.07 l 8.15,-40.347 3.221,40.347 h 8.77 L 287.115,4.9999649 h -10.07 l -6.85,36.3750001 -4.522,-36.3750001 z"
             id="path23547" /><path
             style="fill:#00b507;fill-opacity:1"
             d="M 186.417,4.9999649 172.718,74.597965 h 19.727 l 1.37,-8.632 h -9.727 l 3.974,-23.495 h 9.727 l 1.369,-7.262 h -9.725 l 4.315,-21.578 h 9.728 l 1.367,-8.6310001 z"
             id="path23543" /><path
             style="fill:#00b507;fill-opacity:1"
             d="M 123.6,4.9999649 112.641,68.159965 c -0.628,3.588 1.802,6.438 5.412,6.438 h 13.084 c 3.624,0 7.138,-2.851 7.809,-6.438 L 150.658,4.9999649 h -8.219 L 131.272,66.376965 c -0.163,0.893 -1.028,1.646 -1.917,1.646 h -6.509 c -0.911,0 -1.519,-0.747 -1.371,-1.646 L 132.369,4.9999649 Z"
             id="path23539" /><path
             style="fill:#00b507;fill-opacity:1"
             d="m 98.393,4.9999649 c -3.758,0 -7.412,3.09 -8.083,6.9180001 v 0.069 0.068 0.068 l -0.068,0.068 v 0.139 0.068 l -0.069,0.137 v 0.138 l -0.069,0.137 v 0.206 l -0.068,0.137 v 0.206 l -0.069,0.205 -0.069,0.206 -0.068,0.41 -0.137,0.479 -0.067,0.479 -0.138,0.479 -0.069,0.547 -0.138,0.548 -0.136,0.616 -0.138,0.548 -0.205,1.165 -0.138,0.617 -0.137,0.547 -0.067,0.548 -0.138,0.547 -0.136,0.549 -0.069,0.548 -0.069,0.479 -0.138,0.411 -0.069,0.479 v 0.206 l -0.067,0.137 v 0.206 0.137 l -0.068,0.206 v 0.137 0.138 l -0.069,0.137 v 0.069 0.067 c -0.07,1.675 0.163,3.96 0.685,4.385 0.665,3.688 12.958,20.759 12.604,23.358 -0.332,2.606 -1.781,10.276 -1.781,10.276 -0.446,2.585 -2.21,4.656 -4.794,4.656 -2.586,0 -4.351,-2.064 -3.905,-4.656 l 2.329,-12.741 h -9.179 l -3.083,17.674 c -0.628,3.588 1.801,6.438 5.411,6.438 h 13.085 c 3.624,0 7.076,-2.851 7.739,-6.438 0,0 3.372,-16.508 3.356,-17.674 -0.013,-1.174 -0.341,-1.302 -0.341,-1.302 0,-1.343 -10.939,-19.4 -12.056,-20.072 -0.481,-0.281 -0.877,-2.069 -0.892,-3.15 -0.021,-1.074 1.439,-8.289 1.439,-8.289 0.444,-2.585 2.894,-4.657 5.48,-4.657 2.585,0 3.664,2.072 3.219,4.657 l -1.986,11.439 h 9.247 l 3.22,-17.194 c 0.729,-3.8260001 -1.721,-6.9160001 -5.479,-6.9160001 z"
             id="polyline2177" /></g></g><path
         id="path23597"
         style="fill:#8aff75;fill-opacity:1"
         d="m 208.54152,83.572266 -5.6836,15.480468 h 2.32617 l 1.30469,-3.564453 h 1.57227 l -0.3418,3.564453 h 2.60547 l 0.82031,-15.480468 z m 0,6.505859 -0.3418,3.904297 h -1.0957 z" /><path
         style="fill:#8aff75;fill-opacity:1"
         d="m 185.731,83.572965 h 4.589 l -0.273,1.916 h -1.163 l -2.467,13.564 h -2.192 l 2.397,-13.564 h -1.232 z"
         id="path23595" /><path
         id="path23593"
         style="fill:#8aff75;fill-opacity:1"
         d="m 166.14112,83.572266 -2.94531,15.478515 h 1.98633 l 1.30078,-6.988281 h 1.3711 c 0.182,0.168 0.18907,0.453141 0.20507,0.619141 0.042,0.223999 0.0904,0.511953 0.0684,0.751953 -0.036,0.222 -1.0957,5.617187 -1.0957,5.617187 h 1.98437 c 10e-6,0 1.09766,-6.005656 1.09766,-6.097656 0,-0.094 -0.0447,-0.588906 -0.13672,-0.753906 h -0.0664 v -0.06836 h -0.0703 -0.0684 V 92.0625 h -0.0703 -0.0684 -0.0664 l -0.0684,-0.06641 h -0.0703 -0.0664 -0.0703 -0.0684 v -0.06641 h -0.0684 -0.0684 -0.13867 c 0.557,-0.225 1.60084,-0.710689 1.71484,-1.304688 l 1.02734,-5.478516 c 0.162,-0.854999 -0.35301,-1.574218 -1.16601,-1.574218 z m 2.73829,1.845703 c 0.205,0 0.58287,0.4665 0.54687,0.6875 l -0.75195,3.835937 c -0.038,0.206 -0.54991,0.617188 -0.75391,0.617188 h -0.82226 c -0.17,0 -0.27344,-0.124438 -0.27344,-0.273438 v -0.07031 l 0.89062,-4.65625 c 0.078,-0.075 0.16739,-0.138672 0.27539,-0.138672 z" /><path
         style="fill:#8aff75;fill-opacity:1"
         d="m 146.823,83.572965 h 4.11 l -0.343,1.916 h -2.124 l -0.959,4.797 h 2.124 l -0.274,1.645 h -2.123 l -0.89,5.207 h 2.123 l -0.273,1.917 h -4.384 z"
         id="path23591" /><path
         style="fill:#8aff75;fill-opacity:1"
         d="m 126.889,83.572965 h 4.521 l -0.273,1.916 h -1.165 l -2.466,13.564 h -2.19 l 2.396,-13.564 h -1.233 z"
         id="path23589" /><path
         style="fill:#8aff75;fill-opacity:1"
         d="m 106.338,83.572965 h 1.918 l 1.027,8.083 1.506,-8.083 h 2.262 l -2.947,15.479 h -1.917 l -0.754,-8.976 -1.78,8.976 h -2.262 z"
         id="path23587" /><path
         style="fill:#8aff75;fill-opacity:1"
         d="m 87.432,83.572965 h 4.042 l -0.275,1.916 h -2.191 l -0.89,4.797 h 2.124 l -0.275,1.645 h -2.192 l -0.821,5.207 h 2.123 l -0.343,1.917 H 84.35 Z"
         id="path23585" /><path
         style="fill:#8aff75;fill-opacity:1"
         d="m 455.353,83.022965 h 2.535 l 0.408,8.906 3.906,-8.837 2.465,-0.069 -2.6,15.413 h -1.918 l 1.23,-8.15 -3.426,8.15 h -1.371 l -0.408,-8.358 -1.508,8.358 h -2.262 z"
         id="path23583" /><path
         style="fill:#8aff75;fill-opacity:1"
         d="m 438.433,83.022965 h 4.109 l -0.344,1.851 h -2.123 l -0.957,4.864 h 2.191 l -0.344,1.574 h -2.125 l -0.889,5.206 h 2.121 l -0.271,1.918 h -4.385 z"
         id="path23581" /><path
         style="fill:#8aff75;fill-opacity:1"
         d="m 420.486,83.022965 h 4.592 l -0.344,1.851 h -1.166 l -2.396,13.563 h -2.26 l 2.396,-13.563 h -1.164 z"
         id="path23579" /><path
         style="fill:#8aff75;fill-opacity:1"
         d="m 404.527,83.022965 h 0.066 0.07 0.066 0.07 0.066 3.014 c 0.813,0 1.381,0.65 1.232,1.507 l -0.754,3.838 h -1.85 l 0.412,-2.535 c 0.092,-0.573 -0.242,-1.028 -0.822,-1.028 -0.572,0 -1.143,0.453 -1.232,1.028 l -0.342,1.851 c -0.072,0.109 0.092,0.629 0.203,0.686 0.242,0.146 2.672,4.153 2.672,4.451 0.072,0.148 0.07,0.22 0.07,0.275 -0.094,0.501 -0.686,3.902 -0.686,3.902 -0.148,0.781 -0.916,1.438 -1.715,1.438 h -2.943 c -0.799,0 -1.314,-0.657 -1.168,-1.438 l 0.686,-3.902 h 1.988 l -0.479,2.809 c -0.094,0.571 0.264,1.095 0.822,1.095 0.57,0 1.119,-0.52 1.232,-1.095 l 0.41,-2.261 c -0.375,-0.945 -2.787,-4.389 -2.945,-5.207 -0.105,-0.093 -0.148,-0.587 -0.137,-0.959 0.021,-0.407 0.549,-2.946 0.549,-2.946 l 0.066,-0.068 v -0.066 -0.068 l 0.068,-0.138 v -0.067 l 0.068,-0.07 v -0.067 l 0.068,-0.067 v -0.071 l 0.068,-0.067 0.068,-0.07 v -0.066 h 0.07 l 0.064,-0.068 0.068,-0.07 0.068,-0.066 0.068,-0.07 0.068,-0.066 0.068,-0.068 h 0.068 l 0.07,-0.067 h 0.066 l 0.068,-0.067 h 0.066 0.137 z"
         id="path23577" /><path
         style="fill:#8aff75;fill-opacity:1"
         d="m 382.125,83.022965 h 2.467 l 0.342,5.824 3.15,-5.824 h 2.469 l -5.07,8.906 -1.232,6.507 h -2.191 l 1.098,-6.988 z"
         id="path23575" /><path
         style="fill:#8aff75;fill-opacity:1"
         d="m 366.373,83.022965 h 0.066 0.066 0.07 0.066 0.068 3.016 c 0.813,0 1.396,0.65 1.232,1.507 l -0.754,3.838 h -1.848 l 0.408,-2.535 c 0.094,-0.573 -0.244,-1.028 -0.822,-1.028 -0.572,0 -1.137,0.453 -1.232,1.028 l -0.34,1.851 c -0.059,0.109 0.113,0.629 0.203,0.686 0.254,0.146 2.672,4.153 2.672,4.451 0.057,0.148 0.09,0.22 0.066,0.275 -0.068,0.501 -0.754,3.902 -0.754,3.902 -0.146,0.781 -0.906,1.438 -1.711,1.438 h -2.877 c -0.799,0 -1.313,-0.657 -1.166,-1.438 l 0.688,-3.902 h 1.986 l -0.476,2.808 c -0.092,0.571 0.24,1.095 0.818,1.095 0.555,0 1.145,-0.52 1.236,-1.095 l 0.41,-2.261 c -0.367,-0.945 -2.791,-4.389 -2.947,-5.207 -0.105,-0.093 -0.15,-0.587 -0.135,-0.959 0.021,-0.407 0.547,-2.946 0.547,-2.946 H 365 v -0.068 -0.066 -0.068 l 0.066,-0.138 v -0.067 l 0.066,-0.07 v -0.067 l 0.068,-0.067 v -0.07 l 0.068,-0.067 0.07,-0.07 v -0.066 h 0.066 l 0.07,-0.068 0.066,-0.07 0.068,-0.066 v -0.07 h 0.068 l 0.066,-0.066 0.066,-0.068 h 0.07 l 0.068,-0.067 h 0.068 l 0.068,-0.067 h 0.068 0.137 z"
         id="path23573" /><path
         style="fill:#8aff75;fill-opacity:1"
         d="m 332.187,83.572965 h 4.59 l -0.342,1.916 h -1.164 l -2.398,13.564 h -2.193 l 2.4,-13.564 h -1.232 z"
         id="path23609" /><path
         style="fill:#8aff75;fill-opacity:1"
         d="m 311.841,83.572965 h 1.918 l 1.029,8.083 1.506,-8.083 h 2.191 l -2.875,15.479 h -1.918 l -0.754,-8.976 -1.783,8.976 h -2.26 z"
         id="path23607" /><path
         style="fill:#8aff75;fill-opacity:1"
         d="m 291.978,83.572965 h 4.041 l -0.275,1.916 h -2.191 l -0.889,4.797 h 2.123 l -0.275,1.645 h -2.189 l -0.891,5.207 h 2.189 l -0.342,1.917 h -4.314 z"
         id="path23605" /><path
         style="fill:#8aff75;fill-opacity:1"
         d="m 267.113,83.572965 h 2.535 l 0.408,8.974 3.908,-8.904 h 2.463 l -2.602,15.412 h -1.918 l 1.232,-8.152 -3.428,8.152 h -1.369 l -0.41,-8.356 -1.506,8.356 h -2.193 z"
         id="path23603" /><path
         style="fill:#8aff75;fill-opacity:1"
         d="m 244.437,83.572965 h 1.92 l 1.025,8.083 1.51,-8.083 h 2.191 l -2.877,15.479 h -1.986 l -0.686,-8.976 -1.783,8.976 h -2.258 z"
         id="path23601" /><path
         style="fill:#8aff75;fill-opacity:1"
         d="m 226.765,83.572965 h 1.986 l -2.947,15.479 h -1.918 z"
         id="path23599" /></g></g></svg>
