<?xml version="1.0" encoding="UTF-8" standalone="no"?>
<!-- Generator: Adobe Illustrator 25.0.0, SVG Export Plug-In . SVG Version: 6.00 Build 0)  -->

<svg
   version="1.1"
   id="Layer_1"
   x="0px"
   y="0px"
   viewBox="0 0 668.69568 99.999996"
   xml:space="preserve"
   sodipodi:docname="atari800.svg"
   inkscape:version="1.2.1 (9c6d41e410, 2022-07-14)"
   width="668.69568"
   height="100"
   xmlns:inkscape="http://www.inkscape.org/namespaces/inkscape"
   xmlns:sodipodi="http://sodipodi.sourceforge.net/DTD/sodipodi-0.dtd"
   xmlns="http://www.w3.org/2000/svg"
   xmlns:svg="http://www.w3.org/2000/svg"><defs
   id="defs30052">
		
		
		
		
		
	
		
		
	
		
		
		
	
			
			
		
			
			
		
			
			
			
		
			
			
			
		</defs><sodipodi:namedview
   id="namedview30050"
   pagecolor="#505050"
   bordercolor="#ffffff"
   borderopacity="1"
   inkscape:showpageshadow="0"
   inkscape:pageopacity="0"
   inkscape:pagecheckerboard="1"
   inkscape:deskcolor="#505050"
   showgrid="false"
   inkscape:zoom="1.6160336"
   inkscape:cx="471.52486"
   inkscape:cy="55.073113"
   inkscape:window-width="1920"
   inkscape:window-height="1017"
   inkscape:window-x="-8"
   inkscape:window-y="-8"
   inkscape:window-maximized="1"
   inkscape:current-layer="Layer_1" />
<style
   type="text/css"
   id="style29999">
	.st0{fill:#FFC20B;}
	.st1{fill:#353535;}
	.st2{fill:#FFFFFF;}
	.st3{fill:#9F3A35;}
</style>
<path
   id="path30001"
   style="stroke:#000000;stroke-width:1;stroke-dasharray:none;stroke-opacity:1;paint-order:markers stroke fill;fill:#ffffff;fill-opacity:1"
   class="st1"
   d="M 10.833984 3.0078125 C 5.1122515 3.0078125 0.43554687 7.6864702 0.43554688 13.408203 L 0.43554688 86.574219 C 0.43554688 92.295952 5.1122515 96.974609 10.833984 96.974609 L 84 96.974609 C 89.721733 96.974609 94.400391 92.295952 94.400391 86.574219 L 94.400391 13.408203 C 94.383001 7.6864702 89.721733 3.0078125 84 3.0078125 L 10.833984 3.0078125 z M 36.642578 20.783203 L 41.287109 20.783203 L 41.287109 31.6875 C 41.304499 34.730975 41.217438 37.757119 41.095703 40.783203 C 40.887008 45.165807 40.609528 49.548476 39.896484 53.878906 C 39.392138 56.870207 38.365081 59.738318 37.078125 62.46875 C 34.991171 66.868746 31.70453 70.592224 28.017578 73.722656 C 24.713233 76.627 20.78347 78.747744 16.626953 80.173828 C 14.279129 80.973827 11.877766 81.59944 9.4082031 81.947266 L 9.4082031 72.800781 C 12.364722 72.348608 15.200275 71.303412 17.84375 69.912109 C 20.974182 68.259937 23.791222 66.034287 26.173828 63.408203 C 28.625999 60.695163 30.574661 57.565689 32.070312 54.226562 C 33.809441 50.400479 34.747147 46.260033 35.390625 42.103516 C 36.190624 36.833956 36.520838 31.512953 36.642578 26.173828 C 36.642578 24.399917 36.625188 22.591897 36.642578 20.783203 z M 43.148438 20.783203 C 46.000609 20.765813 48.83533 20.783203 51.6875 20.783203 L 51.6875 81.964844 C 48.852721 81.964844 46.000795 81.947642 43.166016 81.982422 C 43.131236 75.47808 43.165827 68.973091 43.148438 62.46875 L 43.148438 20.783203 z M 53.582031 20.783203 L 58.191406 20.783203 C 58.139236 26.991893 58.347878 33.234296 59.095703 39.408203 C 59.704399 44.208198 60.555709 49.044111 62.46875 53.513672 C 64.277444 57.844103 66.886229 61.860923 70.294922 65.095703 C 73.547093 68.191352 77.477603 70.573354 81.755859 71.947266 C 82.955858 72.329873 84.173421 72.627056 85.408203 72.818359 L 85.408203 81.964844 C 82.973423 81.634409 80.574572 81.008984 78.244141 80.208984 C 75.478925 79.252463 72.799642 78.000389 70.330078 76.400391 C 68.538776 75.252566 66.904872 73.861445 65.322266 72.417969 C 62.730964 70.035362 60.416863 67.322399 58.677734 64.244141 C 57.321214 61.861534 56.329483 59.270428 55.546875 56.626953 C 54.833833 53.983478 54.539979 51.234526 54.261719 48.521484 C 53.722589 42.643229 53.529671 36.731396 53.564453 30.818359 C 53.581843 27.461841 53.582031 24.122331 53.582031 20.783203 z " /><path
   id="path30021"
   style="stroke:#000000;stroke-width:1;stroke-dasharray:none;stroke-opacity:1;paint-order:markers stroke fill;fill:#ffffff;fill-opacity:1"
   class="st1"
   d="m 360.66086,3.1130434 c 4.95652,0 9.89565,0 14.85218,0 0,31.3217386 0.0174,62.6434766 -0.0174,93.9652156 -4.93913,-0.01739 -9.89565,0 -14.85217,0 0.0174,-31.33913 0.0174,-62.660868 0.0174,-93.9652156 z m -58.60869,0.5739131 c 1.33913,-0.4695652 2.78261,-0.626087 4.20869,-0.5913044 5.58261,0.017391 11.18261,0 16.76522,0 9.4087,0.1739131 18.38261,6.0173912 22.45217,14.4695649 2.8174,5.495652 3.11305,11.895652 2.4,17.930434 -0.48695,6.313044 -3.14782,12.626087 -8,16.817391 -2.55652,2.278261 -5.75652,3.669566 -8.50434,5.704348 -1.51305,1.147826 -1.58261,3.373913 -0.8,4.973913 7.40869,11.443478 15.13043,22.713043 22.69565,34.069565 -5.53044,0.01739 -11.07826,-0.01739 -16.6087,0.01739 -7.25217,-10.886956 -14.41739,-21.826087 -21.63478,-32.730434 -2.12174,-3.095652 -2.69565,-7.217391 -1.42609,-10.747826 0.99131,-2.713043 3.37392,-4.695652 6.01739,-5.721739 5.04348,-1.930435 10.0174,-4.956522 12.8174,-9.721739 2.12174,-3.582609 2.01739,-8 1.06087,-11.913043 -1.11305,-5.078261 -6.06957,-9.078261 -11.30435,-8.904348 -3.61739,0.01739 -7.23478,-0.01739 -10.85218,0.01739 -1.63478,-0.03478 -3.1826,1.391305 -3.14782,3.043479 -0.0174,25.565216 0,51.113042 0,76.678259 -4.71305,-0.01739 -9.4087,0 -14.12174,0 -0.0174,-27.513043 0.0174,-55.026086 -0.0174,-82.55652 0,-4.8347827 3.42608,-9.373913 8,-10.8347825 z M 171.93043,3.1130434 c 17.72174,0 35.44348,0 53.14783,0 0,4.7826086 0,9.5478256 0,14.3304346 -6.52174,0 -13.04348,0 -19.56522,0 0,26.53913 0,53.07826 0,79.61739 -4.67826,0 -9.33913,0 -14.01739,0 0,-26.53913 0,-53.07826 0,-79.61739 -6.52174,-0.01739 -13.04348,0 -19.56522,0 0,-4.782609 -0.0174,-9.547826 0,-14.3304346 z m 69.73913,4.4869565 c 2.55652,-3.7043478 7.47826,-5.4956521 11.82609,-4.347826 3.98261,0.9217391 7.02608,4.347826 8.06956,8.2086951 8.29565,28.53913 16.6087,57.060869 24.90435,85.599999 -4.90435,0.03478 -9.8087,0 -14.71304,0.01739 -2.27826,-7.878261 -4.53913,-15.773913 -6.83479,-23.652174 -9.46087,0 -18.90434,-0.01739 -28.36521,0 -2.26087,7.878261 -4.59131,15.756522 -6.85218,23.634783 -4.86956,0 -9.72174,0 -14.5913,0 7.87826,-27.391304 15.86087,-54.765217 23.7913,-82.139129 0.83479,-2.452174 1.16522,-5.1826087 2.76522,-7.3217391 m -1.2,52.4173901 c 6.85217,0.01739 13.70435,0 20.55652,0 C 257.61739,48.139128 254.15652,36.29565 250.74782,24.434781 247.33913,36.29565 243.87826,48.15652 240.46956,60.017389 Z M 138.48695,6.9913042 c 3.65218,-4.6782608 11.21739,-5.4782607 15.70435,-1.547826 1.82609,1.547826 3.11304,3.6695651 3.77391,5.9652168 8.29566,28.556522 16.64348,57.095651 24.92174,85.652173 -4.90434,0 -9.7913,-0.01739 -14.69565,0 -2.31304,-7.878261 -4.57391,-15.756522 -6.85217,-23.634783 -9.47826,-0.01739 -18.93913,0 -28.4,-0.01739 -2.31305,7.878261 -4.6087,15.756522 -6.88696,23.652174 -4.86956,-0.01739 -9.73913,0 -14.60869,-0.01739 7.87826,-27.21739 15.77391,-54.452172 23.70434,-81.686955 0.93913,-2.852173 1.28696,-6.034782 3.33913,-8.3652168 m 8.66087,17.4956518 c -3.47826,11.826087 -6.86956,23.686956 -10.33043,35.513043 6.88695,0.03478 13.75652,0.01739 20.64348,0.01739 -3.44348,-11.843478 -6.86957,-23.686956 -10.31305,-35.530433 z" /><path
   id="path4579"
   style="stroke:none;stroke-width:0.869565;stroke-dasharray:none;stroke-opacity:1;paint-order:markers stroke fill;fill:#9f3a35;fill-opacity:1"
   d="M 431.53125 16.660156 C 426.48778 16.660156 422.38281 20.74773 422.38281 25.808594 C 422.38281 30.869459 426.47039 34.957031 431.53125 34.957031 C 436.57471 34.957031 440.67773 30.869459 440.67773 25.808594 C 440.67773 20.74773 436.59211 16.660156 431.53125 16.660156 z M 431.53125 22.712891 C 433.23559 22.712891 434.62695 24.104247 434.62695 25.808594 C 434.62695 27.51294 433.23559 28.904297 431.53125 28.904297 C 429.8269 28.904297 428.43555 27.51294 428.43555 25.808594 C 428.43555 24.104247 429.80951 22.712891 431.53125 22.712891 z " /><path
   id="path4575"
   style="stroke:none;stroke-width:0.869565;stroke-dasharray:none;stroke-opacity:1;paint-order:markers stroke fill;fill:#9f3a35;fill-opacity:1"
   d="M 431.53125 0.43554688 C 417.32256 0.43554688 405.73828 12.000491 405.73828 26.226562 C 405.73828 29.809168 406.47022 33.286518 407.87891 36.503906 C 400.07022 43.286508 395.54688 53.042912 395.54688 63.582031 C 395.54688 83.408098 411.68761 99.546875 431.51367 99.546875 C 451.33974 99.546875 467.47852 83.408098 467.47852 63.582031 C 467.49592 53.042912 462.9747 43.269116 455.16602 36.503906 C 456.5747 33.286518 457.30469 29.809168 457.30469 26.226562 C 457.30469 12.000491 445.73993 0.43554687 431.53125 0.43554688 z M 431.53125 6.453125 C 442.43558 6.453125 451.26953 15.287069 451.26953 26.191406 C 451.26953 30.678358 449.75611 34.799358 447.23438 38.121094 C 455.75611 43.390653 461.46094 52.799247 461.46094 63.564453 C 461.44354 80.103567 448.05296 93.496094 431.53125 93.496094 C 415.00953 93.496094 401.59961 80.103567 401.59961 63.564453 C 401.59961 52.799247 407.30444 43.408045 415.82617 38.121094 C 413.30443 34.799358 411.79102 30.678358 411.79102 26.191406 C 411.79102 15.287069 420.62691 6.453125 431.53125 6.453125 z " /><path
   id="path4571"
   style="stroke:none;stroke-width:0.869565;stroke-dasharray:none;stroke-opacity:1;paint-order:markers stroke fill;fill:#9f3a35;fill-opacity:1"
   d="M 431.53125 46.208984 C 421.653 46.208984 413.65234 54.209641 413.65234 64.087891 C 413.65234 73.966142 421.653 81.964844 431.53125 81.964844 C 441.4095 81.964844 449.4082 73.966142 449.4082 64.087891 C 449.4082 54.209641 441.39211 46.208984 431.53125 46.208984 z M 431.53125 52.244141 C 438.05298 52.244141 443.35742 57.54858 443.35742 64.070312 C 443.35742 70.592045 438.05298 75.896484 431.53125 75.896484 C 425.00952 75.896484 419.70508 70.592045 419.70508 64.070312 C 419.70508 57.54858 425.00952 52.244141 431.53125 52.244141 z " /><path
   id="path4567"
   style="stroke:none;stroke-width:0.869565;stroke-dasharray:none;stroke-opacity:1;paint-order:markers stroke fill;fill:#9f3a35;fill-opacity:1"
   d="M 517.80859 0.43554688 C 490.48688 0.43554688 468.24414 22.660897 468.24414 50 C 468.24414 77.321712 490.46949 99.564453 517.80859 99.564453 C 545.1303 99.564453 567.35742 77.339103 567.35742 50 C 567.37482 22.660897 545.1303 0.43554687 517.80859 0.43554688 z M 517.80859 6.4863281 C 541.79117 6.4863281 561.32227 26.000024 561.32227 50 C 561.32227 73.982584 541.80856 93.513672 517.80859 93.513672 C 493.80862 93.513672 474.29492 73.982584 474.29492 50 C 474.29492 26.000024 493.82601 6.4863281 517.80859 6.4863281 z " /><path
   id="path4563"
   style="stroke:none;stroke-width:0.869565;stroke-dasharray:none;stroke-opacity:1;paint-order:markers stroke fill;fill:#9f3a35;fill-opacity:1"
   d="M 517.80859 18 C 500.17382 18 485.80859 32.347844 485.80859 50 C 485.80859 67.634764 500.15643 82 517.80859 82 C 535.44336 82 549.80859 67.652156 549.80859 50 C 549.80859 32.347844 535.44336 18 517.80859 18 z M 517.80859 24.052734 C 532.12162 24.052734 543.75586 35.704362 543.75586 50 C 543.75586 64.313029 532.12162 75.947266 517.80859 75.947266 C 503.49556 75.947266 491.84375 64.295638 491.84375 50 C 491.84375 35.686971 503.49556 24.052734 517.80859 24.052734 z " /><path
   id="path4559"
   style="stroke:none;stroke-width:0.869565;stroke-dasharray:none;stroke-opacity:1;paint-order:markers stroke fill;fill:#9f3a35;fill-opacity:1"
   d="M 618.71289 0.43554688 C 591.39118 0.43554688 569.14844 22.660897 569.14844 50 C 569.14844 77.321712 591.37379 99.564453 618.71289 99.564453 C 646.0346 99.564453 668.26172 77.339103 668.26172 50 C 668.26172 22.660897 646.0346 0.43554687 618.71289 0.43554688 z M 618.71289 6.4863281 C 642.69548 6.4863281 662.22656 26.000024 662.22656 50 C 662.22656 73.982584 642.69548 93.513672 618.71289 93.513672 C 594.71291 93.513672 575.19922 73.982584 575.19922 50 C 575.19922 26.000024 594.7303 6.4863281 618.71289 6.4863281 z " /><path
   id="path30041"
   style="stroke:none;stroke-width:0.869565;stroke-dasharray:none;stroke-opacity:1;paint-order:markers stroke fill;fill:#9f3a35;fill-opacity:1"
   d="M 618.71289 18 C 601.07813 18 586.71289 32.347844 586.71289 50 C 586.71289 67.634764 601.06074 82 618.71289 82 C 636.34765 82 650.71289 67.652156 650.71289 50 C 650.6955 32.347844 636.34765 18 618.71289 18 z M 618.71289 24.052734 C 633.02592 24.052734 644.66016 35.704362 644.66016 50 C 644.66016 64.313029 633.00853 75.947266 618.71289 75.947266 C 604.39986 75.947266 592.74805 64.295638 592.74805 50 C 592.74805 35.686971 604.39986 24.052734 618.71289 24.052734 z " />
</svg>
