<?xml version="1.0" encoding="UTF-8" standalone="no"?>
<svg
   width="550.86523"
   height="100"
   xml:space="preserve"
   version="1.1"
   id="svg772"
   sodipodi:docname="astrocade.svg"
   inkscape:version="1.2.1 (9c6d41e410, 2022-07-14)"
   xmlns:inkscape="http://www.inkscape.org/namespaces/inkscape"
   xmlns:sodipodi="http://sodipodi.sourceforge.net/DTD/sodipodi-0.dtd"
   xmlns="http://www.w3.org/2000/svg"
   xmlns:svg="http://www.w3.org/2000/svg"><defs
   id="defs776" /><sodipodi:namedview
   id="namedview774"
   pagecolor="#505050"
   bordercolor="#ffffff"
   borderopacity="1"
   inkscape:showpageshadow="0"
   inkscape:pageopacity="0"
   inkscape:pagecheckerboard="1"
   inkscape:deskcolor="#505050"
   showgrid="false"
   inkscape:zoom="0.80786776"
   inkscape:cx="141.1122"
   inkscape:cy="-79.220887"
   inkscape:window-width="1920"
   inkscape:window-height="1017"
   inkscape:window-x="-8"
   inkscape:window-y="-8"
   inkscape:window-maximized="1"
   inkscape:current-layer="svg772" />
    
    
    
    
    
    
    
    
    
    
    
    
    
    
    
    
    
    <g
   id="g856"
   transform="matrix(0.97601921,0,0,0.97601921,-2.388319,-6.2348107)"><path
     fill="#ffffff"
     d="m 358.58,26.897 v -2.481 h 17.185 v 21.973 h -12.201 v 4.326 h -4.197 v 4.851 h -4.837 v 21.108 h 4.18 v 4.457 h 4.592 v 4.72 h 12.463 v 22.244 H 358.71 v -2.737 h -5.248 v -2.565 h -4.197 v -3.59 H 345.46 V 94.442 H 341 v -4.689 h -4.196 v -5.64 h -4.07 V 48.142 h 4.07 v -5.424 h 4.065 v -4.905 h 4.724 v -4.689 h 3.672 V 29.74 h 3.805 v -2.843 z"
     id="path736" /><path
     d="M 376.515,108.845 H 357.96 v -2.737 h -5.248 v -2.564 h -4.197 v -3.59 h -3.805 v -4.762 h -4.461 v -4.688 h -4.195 v -5.641 h -4.07 V 47.392 h 4.07 v -5.424 h 4.064 v -4.905 h 4.725 v -4.688 h 3.672 V 28.99 h 3.805 v -2.844 h 5.51 v -2.48 h 18.686 v 23.473 h -12.201 v 4.326 h -4.197 v 4.851 h -4.837 v 19.608 h 4.181 v 4.457 h 4.592 v 4.72 h 12.463 v 23.744 z m -17.055,-1.5 h 15.555 V 86.601 h -12.463 v -4.72 h -4.592 v -4.457 h -4.181 V 54.816 h 4.837 v -4.851 h 4.197 v -4.326 h 12.201 V 25.166 H 359.33 v 2.48 h -5.51 v 2.844 h -3.805 v 3.384 h -3.672 v 4.688 h -4.725 v 4.905 h -4.064 v 5.424 h -4.07 v 34.471 h 4.07 v 5.641 h 4.195 v 4.688 h 4.461 v 4.762 h 3.805 v 3.59 h 4.197 v 2.564 h 5.248 z"
     id="path738" /><path
     fill="#ffffff"
     d="m 405.199,26.488 v -2.177 h 18.365 v 2.177 h 5.248 v 2.754 h 3.938 v 3.937 h 4.197 v 4.199 h 4.33 v 4.852 h 4.461 v 65.811 h -20.27 V 51.019 h -4.394 v -4.064 h -10.625 v 3.802 h -4.723 v 4.593 h -4.857 v 21.253 h 4.591 v 4.721 h 4.2 v 3.804 h 11.281 v 22.913 h -15.742 v -1.79 h -5.51 v -2.755 h -3.543 v -3.804 h -4.197 v -4.46 h -4.069 v -5.117 h -4.066 v -5.641 h -4.461 V 48.265 h 3.805 v -5.547 h 4.593 v -4.817 h 4.198 v -4.854 h 3.935 v -3.543 h 4.067 v -3.023 z"
     id="path740" /><path
     d="m 446.488,108.791 h -21.77 V 51.769 h -4.395 v -4.063 h -9.125 v 3.802 h -4.723 V 56.1 h -4.857 v 19.753 h 4.592 v 4.722 h 4.199 v 3.804 h 11.281 v 24.413 h -17.242 v -1.79 h -5.51 v -2.755 h -3.543 v -3.805 h -4.197 v -4.46 h -4.068 v -5.116 h -4.066 v -5.642 h -4.461 V 47.515 h 3.805 v -5.547 h 4.594 v -4.817 h 4.197 v -4.854 h 3.936 v -3.543 h 4.066 V 25.73 l 5.248,0.007 v -2.176 h 19.865 v 2.177 h 5.248 v 2.755 h 3.938 v 3.937 h 4.197 v 4.199 h 4.33 v 4.852 h 4.461 z m -20.27,-1.5 h 18.77 V 42.98 h -4.461 v -4.852 h -4.33 V 33.929 H 432 v -3.937 h -3.938 v -2.755 h -5.248 V 25.06 h -16.865 v 2.178 l -5.248,-0.007 v 3.022 h -4.066 v 3.543 h -3.936 v 4.854 h -4.197 v 4.817 h -4.594 v 5.547 h -3.805 v 34.709 h 4.461 v 5.642 h 4.066 v 5.116 h 4.068 v 4.46 h 4.197 v 3.805 h 3.543 v 2.755 h 5.51 v 1.79 H 420.19 V 85.878 h -11.28 v -3.804 h -4.199 v -4.722 h -4.592 V 54.6 h 4.857 v -4.593 h 4.723 v -3.802 h 12.125 v 4.063 h 4.395 v 57.023 z"
     id="path742" /><path
     fill="#f2b101"
     d="m 29.042,26.488 v -2.177 h 18.366 v 2.177 h 5.248 v 2.754 h 3.937 v 3.937 h 4.198 v 4.199 h 4.33 v 4.853 h 4.461 v 65.81 H 49.312 V 51.02 H 44.917 V 46.955 H 34.292 v 3.802 H 29.57 v 4.594 h -4.858 v 21.251 h 4.592 v 4.722 h 4.199 v 3.805 h 11.282 v 22.912 H 29.042 v -1.789 h -5.509 v -2.756 H 19.99 V 99.692 H 15.792 V 95.233 H 11.725 V 90.115 H 7.658 v -5.64 H 3.197 v -36.21 h 3.804 v -5.547 h 4.595 v -4.817 h 4.196 v -4.854 h 3.936 v -3.543 h 4.066 v -3.023 z"
     id="path744" /><path
     d="M 70.332,108.791 H 48.562 V 51.77 h -4.395 v -4.064 h -9.125 v 3.802 H 30.32 v 4.594 h -4.858 v 19.751 h 4.592 v 4.723 h 4.199 v 3.805 h 11.282 v 24.412 H 28.292 v -1.789 h -5.509 v -2.756 H 19.24 v -3.805 H 15.042 V 95.984 H 10.975 V 90.867 H 6.908 V 85.226 H 2.447 v -37.71 h 3.804 v -5.547 h 4.595 v -4.817 h 4.196 v -4.854 h 3.936 v -3.543 h 4.066 V 25.73 l 5.248,0.007 v -2.176 h 19.866 v 2.177 h 5.248 v 2.755 h 3.937 v 3.937 h 4.198 v 4.199 h 4.33 v 4.853 h 4.461 z m -20.27,-1.5 h 18.77 v -64.31 h -4.461 v -4.853 h -4.33 V 33.929 H 55.843 V 29.992 H 51.906 V 27.237 H 46.658 V 25.06 H 29.792 v 2.178 l -5.248,-0.007 v 3.022 h -4.066 v 3.543 h -3.936 v 4.854 h -4.196 v 4.817 H 7.751 v 5.547 H 3.947 v 34.71 h 4.461 v 5.641 h 4.067 v 5.117 h 4.067 v 4.459 h 4.198 v 3.805 h 3.543 v 2.756 h 5.509 v 1.789 H 44.035 V 85.879 H 32.753 v -3.805 h -4.199 v -4.723 h -4.592 v -22.75 h 4.858 v -4.594 h 4.722 v -3.802 h 12.125 v 4.064 h 4.395 z"
     id="path746" /><path
     fill="#ffffff"
     d="M 491.369,46.077 V 24.31 h -15.946 v 2.285 l -5.035,0.013 v 2.685 h -4.361 v 3.693 h -4.365 v 4.699 h -3.86 v 4.7 h -4.197 v 5.874 h -4.363 v 35.918 h 4.531 v 5.707 h 4.029 v 5.202 H 462 v 4.868 h 4.195 v 3.693 h 4.193 v 2.516 h 5.709 v 1.879 h 19.131 v -1.71 h 5.205 v -3.022 h 3.525 v -4.195 h 3.862 v -4.868 h 4.697 v -4.7 h 4.197 V 7.138 H 495.06 v 74.185 h -3.691 v 3.862 h -11.414 v -3.862 h -3.858 v -5.035 h -4.533 V 55.31 h 4.867 v -4.365 h 4.197 v -4.868 z"
     id="path748" /><path
     d="m 495.978,108.792 h -20.631 v -1.879 h -5.709 v -2.517 h -4.193 v -3.692 h -4.195 v -4.868 h -4.197 v -5.202 h -4.029 v -5.707 h -4.531 V 47.509 h 4.363 v -5.874 h 4.197 v -4.7 h 3.859 v -4.699 h 4.365 v -3.692 h 4.361 V 25.86 l 5.035,-0.013 V 23.56 h 17.445 v 23.268 h -10.74 v 4.867 h -4.197 v 4.365 h -4.867 v 19.479 h 4.533 v 5.035 h 3.857 v 3.861 h 9.914 v -3.861 h 3.691 V 6.388 h 23.154 v 83.909 h -4.197 v 4.7 h -4.697 v 4.868 h -3.861 v 4.194 h -3.525 v 3.022 h -5.205 z m -19.131,-1.5 h 17.631 v -1.71 h 5.205 v -3.022 h 3.525 v -4.194 h 3.861 v -4.868 h 4.697 v -4.7 h 4.197 V 7.888 H 495.81 v 74.186 h -3.691 v 3.861 h -12.914 v -3.861 h -3.857 v -5.035 h -4.533 V 54.56 h 4.867 v -4.365 h 4.197 v -4.867 h 10.74 V 25.06 h -14.445 v 2.283 l -5.035,0.013 v 2.688 h -4.361 v 3.692 h -4.365 v 4.699 h -3.859 v 4.7 h -4.197 v 5.874 h -4.363 v 34.418 h 4.531 v 5.707 h 4.029 v 5.202 h 4.197 v 4.868 h 4.195 v 3.692 h 4.193 v 2.517 h 5.709 v 1.879 z"
     id="path750" /><path
     fill="#ffffff"
     d="m 525.328,47.705 v -5.282 h 3.656 v -4.604 h 4.334 v -4.742 h 3.795 v -3.793 h 4.334 V 26.17 h 4.875 v -1.86 h 19.773 v 22.176 h -13.814 v 3.386 h -4.469 v 2.574 h -4.066 v 2.98 h 22.349 v 20.722 h -22.213 v 3.251 h 4.201 v 2.572 h 3.926 v 3.252 h 14.086 v 22.819 h -19.773 v -1.828 h -4.608 v -2.842 h -4.199 v -3.793 h -3.924 v -4.2 h -4.607 v -5.416 h -3.656 v -5.96 h -4.877 V 47.69 Z"
     id="path752" /><path
     d="m 566.845,108.792 h -21.273 v -1.828 h -4.607 v -2.842 h -4.199 v -3.793 h -3.924 v -4.2 h -4.607 v -5.416 h -3.656 v -5.96 h -4.877 V 46.937 l 4.877,0.016 v -5.28 h 3.656 v -4.604 h 4.334 v -4.741 h 3.795 v -3.793 h 4.334 V 25.42 h 4.875 v -1.86 h 21.273 v 23.676 h -13.814 v 3.387 h -4.469 v 2.573 h -4.066 v 1.48 h 22.35 v 22.222 h -22.213 v 1.751 h 4.201 v 2.572 h 3.926 v 3.252 h 14.086 v 24.319 z m -19.773,-1.5 h 18.273 V 85.973 h -14.086 v -3.252 h -3.926 v -2.572 h -4.201 v -4.751 h 22.213 V 56.176 h -22.35 v -4.48 h 4.066 v -2.573 h 4.469 v -3.387 h 13.814 V 25.06 h -18.273 v 1.86 h -4.875 v 3.114 h -4.334 v 3.793 h -3.795 v 4.741 h -4.334 v 4.604 h -3.656 v 5.285 L 521.2,48.441 v 34.811 h 4.877 v 5.96 h 3.656 v 5.416 h 4.607 v 4.2 h 3.924 v 3.793 h 4.199 v 2.842 h 4.607 v 1.829 z"
     id="path754" /><path
     fill="#f2b101"
     d="M 136.836,55.95 V 42.491 h -4.154 v -4.982 h -4.275 v -4.58 h -3.86 v -3.548 h -4.067 v -2.797 h -5.02 V 24.311 H 94.691 v 2.273 h -5.539 v 2.797 h -3.721 v 3.548 h -3.894 v 4.58 h -4.5 v 4.72 h -3.723 v 21.937 h 4.154 v 4.283 h 4.241 v 3.933 h 29.165 v 4.37 h 4.327 v 4.283 H 110.7 v 4.457 H 99.537 V 80.861 H 95.556 V 76.49 H 73.314 v 13.372 h 4.154 v 4.545 h 4.327 v 4.546 h 4.329 v 3.583 h 3.806 v 2.796 h 5.193 v 2.71 h 20.597 v -2.71 h 4.674 v -2.796 h 4.153 v -3.583 h 4.154 v -4.458 h 4.068 V 89.95 h 4.067 V 68.974 h -5.019 v -4.109 h -4.241 V 59.971 H 99.45 v -4.37 h -4.24 v -4.283 h 4.24 v -4.632 h 11.164 v 4.982 h 4.154 v 4.282 z"
     id="path756" /><path
     d="M 116.47,108.792 H 94.373 v -2.71 H 89.18 v -2.796 H 85.374 V 99.703 H 81.045 V 95.157 H 76.718 V 90.611 H 72.564 V 75.74 h 23.742 v 4.37 h 3.981 v 4.632 h 9.663 v -4.457 h 4.501 v -2.783 h -4.327 v -4.37 H 80.959 V 69.199 H 76.718 V 64.916 H 72.564 V 41.479 h 3.723 v -4.72 h 4.5 v -4.58 h 3.894 v -3.548 h 3.721 v -2.797 h 5.539 v -2.273 h 22.269 v 2.273 h 5.02 v 2.797 h 4.067 v 3.548 h 3.86 v 4.58 h 4.275 v 4.982 h 4.154 V 56.7 h -23.568 v -4.282 h -4.154 V 47.436 H 100.2 v 4.632 h -4.24 v 2.783 h 4.24 v 4.37 h 28.126 v 4.895 h 4.241 v 4.108 h 5.019 V 90.7 h -4.067 v 4.545 h -4.068 v 4.458 h -4.154 v 3.583 h -4.153 v 2.796 h -4.674 z m -20.597,-1.5 h 19.097 v -2.71 h 4.674 v -2.796 h 4.153 v -3.583 h 4.154 v -4.458 h 4.068 V 89.2 h 4.067 V 69.724 h -5.019 v -4.108 h -4.241 V 60.721 H 98.7 v -4.37 h -4.24 v -5.783 h 4.24 v -4.632 h 12.664 v 4.982 h 4.154 V 55.2 h 20.568 V 43.241 h -4.154 v -4.982 h -4.275 v -4.58 h -3.86 v -3.548 h -4.067 v -2.797 h -5.02 V 25.061 H 95.441 v 2.273 h -5.539 v 2.797 h -3.721 v 3.548 h -3.894 v 4.58 h -4.5 v 4.72 h -3.723 v 20.438 h 4.154 V 67.7 h 4.241 v 3.933 h 29.165 v 4.37 h 4.327 v 5.783 h -4.501 v 4.457 H 98.787 v -4.632 h -3.981 v -4.37 H 74.064 v 11.871 h 4.154 v 4.546 h 4.327 v 4.546 h 4.329 v 3.583 h 3.806 v 2.796 h 5.193 z"
     id="path758" /><path
     fill="#f2b101"
     d="m 183.471,86.1 v -4.625 h -4.232 v -4.36 h -3.886 V 46.836 h 12.868 v -7.765 h -5.009 v -4.799 h -4.665 v -3.664 h -3.194 V 16.909 h -22.112 v 13.699 h -2.851 v 3.664 h -4.318 v 4.799 h -5.441 v 7.765 h 12.61 v 37.257 h 4.319 v 5.234 h 3.627 v 5.062 h 4.232 v 5.147 h 3.715 v 3.839 h 3.713 v 2.793 h 5.614 V 108 h 15.634 V 86.1 Z"
     id="path760" /><path
     d="m 194.845,108.75 h -17.134 v -1.832 h -5.614 v -2.793 h -3.713 v -3.839 h -3.715 v -5.147 h -4.232 v -5.062 h -3.627 v -5.234 h -4.319 V 47.586 h -12.61 V 38.32 h 5.441 v -4.799 h 4.318 v -3.664 h 2.851 V 16.159 h 23.612 v 13.698 h 3.194 v 3.664 h 4.665 v 4.799 h 5.009 v 9.266 h -12.868 v 28.779 h 3.886 v 4.359 h 4.232 v 4.625 h 10.624 z m -15.634,-1.5 h 14.134 v -20.4 h -10.624 v -4.625 h -4.232 v -4.359 h -3.886 v -31.78 h 12.868 V 39.82 h -5.009 v -4.799 h -4.665 v -3.664 h -3.194 V 17.659 h -20.612 v 13.698 h -2.851 v 3.664 h -4.318 v 4.799 h -5.441 v 6.266 h 12.61 v 37.257 h 4.319 v 5.234 h 3.627 v 5.062 h 4.232 v 5.147 h 3.715 v 3.839 h 3.713 v 2.793 h 5.614 z"
     id="path762" /><path
     fill="#f2b101"
     d="m 243.015,72.016 h 4.711 v -4.718 h 3.933 v -5.33 h 2.36 V 42.309 h -2.885 V 37.94 h -3.67 v -4.631 h -4.283 v -3.67 h -4.72 v -2.795 h -4.544 V 24.31 h -14.071 v 2.534 h -3.932 v 2.795 h -4.37 v 3.67 h -4.719 v 4.631 h -4.195 v 4.281 h -4.719 v 65.794 H 219.41 V 46.677 h 14.507 v 11.709 h -4.457 v 3.145 h -6.73 v 15.64 l 13.109,30.844 h 22.199 z"
     id="path764" /><path
     d="M 259.164,108.765 H 235.343 L 221.98,77.323 V 60.781 h 6.73 v -3.146 h 4.457 V 47.427 H 220.16 v 61.338 H 197.161 V 41.471 h 4.719 V 37.19 h 4.195 v -4.631 h 4.719 v -3.67 h 4.37 v -2.795 h 3.932 V 23.56 h 15.571 v 2.534 h 4.544 v 2.795 h 4.72 v 3.67 h 4.283 v 4.631 h 3.67 v 4.369 h 2.885 v 21.159 h -2.36 v 5.33 h -3.933 v 4.718 h -4.335 z m -22.829,-1.5 h 20.578 L 241.89,71.266 h 5.086 v -4.718 h 3.933 v -5.33 h 2.36 V 43.059 h -2.885 V 38.69 h -3.67 v -4.631 h -4.283 v -3.67 h -4.72 v -2.795 h -4.544 V 25.06 h -12.571 v 2.534 h -3.932 v 2.795 h -4.37 v 3.67 h -4.719 v 4.631 h -4.195 v 4.281 h -4.719 v 64.294 H 218.66 V 45.927 h 16.007 v 13.209 h -4.457 v 3.146 h -6.73 v 14.737 z"
     id="path766" /><path
     fill="#f2b101"
     d="m 325.389,48.171 v -5.594 h -4.326 v -4.724 h -4.409 v -4.719 h -3.893 V 29.74 h -3.977 v -2.81 h -5.02 v -2.62 h -20.84 v 2.622 H 278 v 2.622 h -4.324 v 3.583 h -3.544 v 4.719 h -4.584 v 4.724 h -3.977 v 5.594 h -4.238 v 36.009 h 4.238 v 5.592 h 3.977 v 4.726 h 4.584 v 4.719 h 3.544 v 3.583 H 278 v 2.623 h 4.929 v 2.621 h 20.84 v -2.621 h 5.016 v -2.623 h 3.977 V 99.22 h 3.896 v -4.719 h 4.409 v -4.726 h 4.326 v -5.658 h 3.89 V 48.171 Z m -22.223,28.231 v 4.724 h -4.324 v 4.37 h -11.063 v -4.37 H 283.8 v -4.724 h -4.669 V 55.949 h 4.669 v -4.726 h 3.979 V 46.86 h 11.063 v 4.369 h 4.324 v 4.726 h 4.324 v 20.447 z"
     id="path768" /><path
     d="m 304.519,108.795 h -22.254 l -0.086,-0.75 v -1.871 h -4.929 v -2.623 h -4.324 v -3.583 h -3.544 v -4.719 h -4.584 v -4.726 h -3.977 v -5.592 h -4.238 v -37.42 l 0.75,-0.088 h 3.488 v -5.594 h 3.977 v -4.724 h 4.584 v -4.719 h 3.544 v -3.583 h 4.324 v -2.622 h 4.925 V 23.56 h 22.34 v 2.62 h 5.02 v 2.811 h 3.977 v 3.395 h 3.893 v 4.719 h 4.409 v 4.724 h 4.326 v 5.594 h 3.894 v 37.352 l -0.75,0.093 h -3.14 v 5.658 h -4.326 v 4.726 h -4.409 v 4.719 h -3.896 v 3.583 h -3.977 v 2.623 h -5.016 v 2.618 z m -20.84,-1.5 h 19.34 v -2.621 h 5.016 v -2.623 h 3.977 v -3.583 h 3.896 v -4.719 h 4.409 v -4.726 h 4.326 v -5.658 h 3.89 V 48.921 h -3.894 v -5.594 h -4.326 v -4.724 h -4.409 v -4.719 h -3.893 V 30.49 h -3.977 v -2.81 h -5.02 v -2.62 h -19.34 v 2.622 h -4.925 v 2.622 h -4.324 v 3.583 h -3.544 v 4.719 h -4.584 v 4.724 h -3.977 v 5.594 h -4.238 v 34.509 h 4.238 v 5.592 h 3.977 v 4.726 h 4.584 v 4.719 h 3.544 v 3.583 h 4.324 v 2.623 h 4.929 v 2.619 z m 15.912,-21.05 h -12.563 v -4.37 h -3.979 V 77.151 H 278.38 V 55.199 h 4.669 v -4.726 h 3.979 V 46.11 h 12.563 v 4.369 h 4.324 v 4.726 h 4.324 v 21.947 h -4.324 v 4.724 h -4.324 z m -11.063,-1.5 h 9.563 v -4.37 h 4.324 v -4.724 h 4.324 V 56.704 h -4.324 v -4.726 h -4.324 V 47.61 h -9.563 v 4.364 h -3.979 V 56.7 h -4.669 v 18.952 h 4.669 v 4.724 h 3.979 z"
     id="path770" /></g>
</svg>
