<?xml version="1.0" encoding="UTF-8" standalone="no"?>
<!-- Generator: Adobe Illustrator 13.0.0, SVG Export Plug-In . SVG Version: 6.00 Build 14948)  -->

<svg
   id="Layer_1"
   xml:space="preserve"
   height="100"
   viewBox="0.001 -1 818.22657 100"
   width="818.22656"
   version="1.2"
   y="0px"
   x="0px"
   sodipodi:docname="gamegear.svg"
   inkscape:version="1.2.1 (9c6d41e410, 2022-07-14)"
   xmlns:inkscape="http://www.inkscape.org/namespaces/inkscape"
   xmlns:sodipodi="http://sodipodi.sourceforge.net/DTD/sodipodi-0.dtd"
   xmlns="http://www.w3.org/2000/svg"
   xmlns:svg="http://www.w3.org/2000/svg"><defs
     id="defs4383" /><sodipodi:namedview
     pagecolor="#ffffff"
     bordercolor="#666666"
     borderopacity="1"
     objecttolerance="10"
     gridtolerance="10"
     guidetolerance="10"
     inkscape:pageopacity="0"
     inkscape:pageshadow="2"
     inkscape:window-width="1920"
     inkscape:window-height="1017"
     id="namedview4381"
     showgrid="false"
     inkscape:zoom="1.4143879"
     inkscape:cx="441.88726"
     inkscape:cy="21.210589"
     inkscape:window-x="-8"
     inkscape:window-y="-8"
     inkscape:window-maximized="1"
     inkscape:current-layer="Layer_1"
     inkscape:showpageshadow="0"
     inkscape:pagecheckerboard="1"
     inkscape:deskcolor="#d1d1d1" /><path
     id="path19"
     style="fill:#e3e3e3;stroke:#575757;stroke-width:2.881;fill-opacity:1;stroke-dasharray:none;stroke-opacity:1"
     d="m 774.36934,43.425875 4.05273,-22.790664 h 9.72482 c 3.57874,0 6.24694,0.639677 8.03631,1.924795 1.78937,1.316813 2.6682,3.915862 2.6682,7.834606 0,4.389857 -1.45224,7.631465 -4.32214,9.793978 -2.90736,2.161072 -6.58407,3.240167 -11.04164,3.240167 l -9.11972,-0.0029 z M 763.4055,2.7372137 748.07486,95.32906 h 17.72511 l 5.94583,-35.285982 h 8.20487 l 13.70984,35.285982 h 20.32704 l -15.1981,-39.067858 c 5.30471,-2.70134 9.86313,-7.193488 13.03703,-11.885896 3.30932,-4.830716 4.96038,-10.469673 4.96038,-16.918311 0,-8.745138 -1.95505,-15.028094 -5.90981,-18.9093793 -3.91731,-3.8812851 -9.49143,-5.8075205 -16.64746,-5.8075205 L 763.3983,2.7372152 Z M 715.74666,2.7069587 678.46817,95.333382 h 18.20343 l 6.61864,-18.066561 h 23.80493 l 1.55021,18.066561 h 17.56087 L 735.66886,2.7069587 h -19.92508 z m -6.6561,58.7192053 13.47788,-36.841954 3.1739,36.841954 H 709.092 Z M 679.9305,56.565193 h -27.25832 l -3.54416,19.685924 H 679.9305 L 676.89059,95.32906 H 628.39613 L 643.72534,2.7372137 h 47.91817 l -2.93906,19.1787923 h -30.15416 l -3.03991,16.749748 h 27.2151 z m -60.02017,24.987754 c -6.88806,9.353119 -13.7012,12.006915 -16.68348,13.443308 -2.9794,1.436392 -7.49316,2.563031 -11.44071,2.563031 -11.07622,0 -19.72051,-3.614753 -25.93287,-10.80536 -6.21524,-7.228065 -9.32286,-17.354848 -9.32286,-30.491283 0,-15.533785 3.92018,-28.703357 11.78793,-39.579312 7.86774,-10.8370552 18.30139,-16.23973491 31.3024,-16.23973491 9.86025,0 17.9297,2.76905351 24.24435,8.34029681 6.31753,5.5395481 9.45541,14.2529891 9.45541,26.1028671 h -19.07506 c 0,-5.673534 -1.24622,-9.65711 -3.75162,-11.95505 -2.49532,-2.25904 -6.07838,-3.40873 -10.77223,-3.40873 -7.6646,0 -13.57441,3.747298 -17.7957,11.208759 -4.1896,7.497479 -6.31466,16.004899 -6.31466,25.562599 0,6.516352 1.38453,11.855641 4.08299,15.970322 2.73447,4.156461 6.82034,6.213802 12.26048,6.213802 5.67353,0 10.06195,-1.620804 13.23729,-4.830716 3.14075,-3.173895 5.47039,-7.294338 6.95865,-12.326754 h -17.76401 l 2.8699,-17.288576 h 34.64486 l -2.93761,16.748308 c 0,0.0043 -2.2043,11.419103 -9.0621,20.772223 z M 344.44569,2.6695001 307.17441,95.297364 h 18.16597 l 6.65178,-18.068002 h 23.77179 l 1.55309,18.068002 H 374.9096 L 364.37366,2.6709409 344.43417,2.6695001 Z m -6.68491,58.7581039 13.50958,-36.840513 3.13788,36.840513 h -16.65466 z m 176.32906,-4.862411 h -27.24391 l -3.51535,19.685924 h 30.75926 l -3.03991,19.046247 H 462.56988 L 477.89909,2.7372137 h 47.90376 L 522.8782,21.917447 h -30.15416 l -3.03991,16.715171 h 27.24392 z M 416.26532,2.8409452 421.58155,67.945397 448.17715,2.6695001 472.02097,2.8409452 456.51888,95.297364 H 439.83541 L 452.97473,23.641983 424.00195,95.297364 H 410.32957 L 404.01924,23.675119 394.0495,95.297364 H 377.16432 L 392.59438,2.8409452 Z M 307.30407,81.552947 c -6.88517,9.353119 -13.70119,12.006915 -16.68347,13.441867 -2.9794,1.437833 -7.49316,2.563031 -11.44072,2.563031 -11.07765,0 -19.7205,-3.613312 -25.93286,-10.805359 -6.21524,-7.228066 -9.31998,-17.35773 -9.31998,-30.492725 0,-15.533785 3.9173,-28.704798 11.78792,-39.579311 7.86631,-10.8370556 18.29708,-16.23973534 31.29232,-16.23973534 9.86314,0 17.9297,2.76905344 24.24435,8.34029684 6.31465,5.5381065 9.45685,14.2501085 9.45685,26.1014265 h -19.08082 c 0,-5.673534 -1.2491,-9.65711 -3.75162,-11.95505 -2.49532,-2.260481 -6.07838,-3.408731 -10.77223,-3.408731 -7.6646,0 -13.57441,3.747299 -17.7957,11.20876 -4.18672,7.497479 -6.31754,16.004898 -6.31754,25.561158 0,6.517793 1.38741,11.855641 4.08875,15.971762 2.73448,4.156462 6.81746,6.213803 12.2576,6.213803 5.67353,0 10.06195,-1.620804 13.23729,-4.832157 3.14075,-3.172454 5.47039,-7.294338 6.95577,-12.326754 h -17.76401 l 2.87566,-17.288576 h 34.64198 L 316.346,60.774961 c 0,0.01009 -2.18989,11.424866 -9.04769,20.777986 z" /><path
     id="path21"
     d="M 14.80155,38.304132 C 30.443389,12.068721 51.976309,-4.3064399 62.896926,1.6725256 73.794491,7.6774244 69.953546,33.813425 54.282893,60.030108 38.638173,86.266962 17.108134,102.63924 6.2134504,96.657396 -4.7100482,90.656819 -0.8460516,64.519375 14.80155,38.304132 Z"
     inkscape:connector-curvature="0"
     style="fill:#d61808;stroke-width:1.44071" /><path
     id="path21_2_"
     d="M 84.77994,38.304132 C 100.42322,12.068721 121.9547,-4.3064399 132.87243,1.6725256 143.77,7.6774244 139.92905,33.813425 124.2584,60.030108 108.61656,86.266962 87.085083,102.63924 76.188958,96.657396 65.268342,90.656819 69.132338,64.519375 84.77994,38.304132 Z"
     inkscape:connector-curvature="0"
     style="fill:#008400;stroke-width:1.44071" /><path
     id="path21_3_"
     d="M 154.76121,38.304132 C 170.39296,12.06728 191.93165,-4.3064399 202.85226,1.6710849 213.74983,7.6759837 209.90888,33.811984 194.23823,60.028668 178.59351,86.265521 157.06635,102.6378 146.16879,96.657396 135.23953,90.656819 139.10497,64.519375 154.75545,38.304132 Z"
     inkscape:connector-curvature="0"
     style="fill:#0000ff;stroke-width:1.44071" /></svg>
