<?xml version="1.0" encoding="UTF-8" standalone="no"?>
<svg
   viewBox="0 0 377.13987 100"
   version="1.1"
   id="svg110312"
   sodipodi:docname="uzebox.svg"
   width="377.13986"
   height="100"
   inkscape:version="1.2.1 (9c6d41e410, 2022-07-14)"
   xmlns:inkscape="http://www.inkscape.org/namespaces/inkscape"
   xmlns:sodipodi="http://sodipodi.sourceforge.net/DTD/sodipodi-0.dtd"
   xmlns:xlink="http://www.w3.org/1999/xlink"
   xmlns="http://www.w3.org/2000/svg"
   xmlns:svg="http://www.w3.org/2000/svg">
  <sodipodi:namedview
     id="namedview110314"
     pagecolor="#505050"
     bordercolor="#ffffff"
     borderopacity="1"
     inkscape:showpageshadow="0"
     inkscape:pageopacity="0"
     inkscape:pagecheckerboard="1"
     inkscape:deskcolor="#505050"
     showgrid="false"
     inkscape:zoom="3.193731"
     inkscape:cx="338.00592"
     inkscape:cy="61.057115"
     inkscape:window-width="1920"
     inkscape:window-height="1017"
     inkscape:window-x="-8"
     inkscape:window-y="-8"
     inkscape:window-maximized="1"
     inkscape:current-layer="svg110312" />
  <defs
     id="defs110275">
    <linearGradient
       y2="25.554001"
       x2="299.87201"
       y1="70.387001"
       x1="299.87201"
       gradientUnits="userSpaceOnUse"
       id="d">
      <stop
         style="stop-color:#a6a6a6;stop-opacity:1"
         stop-color="#d9d9d9"
         offset="0"
         id="stop110235" />
      <stop
         stop-color="#d9d9d9"
         offset="1"
         style="stop-color:#efefef;stop-opacity:1"
         id="stop110237" />
    </linearGradient>
    <linearGradient
       y2="25.554001"
       x2="299.87201"
       y1="70.387001"
       x1="299.87201"
       gradientUnits="userSpaceOnUse"
       id="e">
      <stop
         style="stop-color:#a6a6a6;stop-opacity:1"
         stop-color="#d9d9d9"
         offset="0"
         id="stop110240" />
      <stop
         stop-color="#d9d9d9"
         offset="1"
         style="stop-color:#f2f2f2;stop-opacity:1"
         id="stop110242" />
    </linearGradient>
    <linearGradient
       y2="25.554001"
       x2="299.87201"
       y1="70.387001"
       x1="299.87201"
       gradientUnits="userSpaceOnUse"
       id="a">
      <stop
         style="stop-color:#a6a6a6;stop-opacity:1"
         stop-color="#d9d9d9"
         offset="0"
         id="stop110245" />
      <stop
         stop-color="#d9d9d9"
         offset="1"
         style="stop-color:#efefef;stop-opacity:1"
         id="stop110247" />
    </linearGradient>
    <linearGradient
       id="c"
       gradientUnits="userSpaceOnUse"
       x1="299.87201"
       y1="70.387001"
       x2="299.87201"
       y2="25.554001">
      <stop
         offset="0"
         stop-color="#d9d9d9"
         id="stop110250" />
      <stop
         offset="1"
         stop-color="#d9d9d9"
         style="stop-color:#e5e5e5;stop-opacity:1"
         id="stop110252" />
    </linearGradient>
    <linearGradient
       xlink:href="#a"
       id="i"
       x1="62.452"
       y1="99.211998"
       x2="129.927"
       y2="6.1939998"
       gradientUnits="userSpaceOnUse"
       gradientTransform="matrix(0.87831,0,0,0.77314,22.356,10.63)" />
    <linearGradient
       xlink:href="#c"
       id="g"
       x1="227.409"
       y1="69.675003"
       x2="262.64401"
       y2="27.277"
       gradientUnits="userSpaceOnUse"
       gradientTransform="matrix(0.87831,0,0,0.77314,22.356,10.63)" />
    <linearGradient
       xlink:href="#d"
       id="k"
       x1="277.51401"
       y1="72.777"
       x2="321.88699"
       y2="26.268"
       gradientUnits="userSpaceOnUse"
       gradientTransform="matrix(0.87831,0,0,0.77314,22.356,10.63)" />
    <linearGradient
       xlink:href="#e"
       id="h"
       gradientUnits="userSpaceOnUse"
       x1="166.36099"
       y1="92.068001"
       x2="212.349"
       y2="23.511"
       gradientTransform="matrix(0.87831,0,0,0.77314,22.356,10.63)" />
  </defs>
  <linearGradient
     id="f"
     gradientUnits="userSpaceOnUse"
     x1="195.213"
     y1="70.387001"
     x2="195.213"
     y2="25.554001">
    <stop
       offset="0"
       stop-color="#d9d9d9"
       id="stop110281" />
    <stop
       offset=".1"
       stop-color="#bfbfbf"
       id="stop110283" />
    <stop
       offset=".2"
       stop-color="#d9d9d9"
       id="stop110285" />
    <stop
       offset=".3"
       stop-color="#bfbfbf"
       id="stop110287" />
    <stop
       offset=".4"
       stop-color="#d9d9d9"
       id="stop110289" />
    <stop
       offset=".5"
       stop-color="#bfbfbf"
       id="stop110291" />
    <stop
       offset=".6"
       stop-color="#d9d9d9"
       id="stop110293" />
    <stop
       offset=".7"
       stop-color="#bfbfbf"
       id="stop110295" />
    <stop
       offset=".8"
       stop-color="#d9d9d9"
       id="stop110297" />
    <stop
       offset=".9"
       stop-color="#bfbfbf"
       id="stop110299" />
    <stop
       offset="1"
       stop-color="#d9d9d9"
       id="stop110301" />
  </linearGradient>
  <g
     id="g111417"
     transform="matrix(1.2335267,0,0,1.2335267,-27.324682,-12.861424)">
    <path
       d="m 267.108,33.4801 h -39.48794 a 0.24944004,0.21957176 0 0 0 -0.24329,0.173956 l -8.23855,34.224588 a 0.24856173,0.21879862 0 0 0 0.24329,0.264414 h 39.48794 a 0.24944004,0.21957176 0 0 0 0.2433,-0.173956 l 8.23854,-34.224589 A 0.24856173,0.21879862 0 0 0 267.108,33.4801 Z m -17.70849,26.373351 a 0.2459268,0.2164792 0 0 1 -0.23977,0.171637 h -16.16091 a 0.24504849,0.21570606 0 0 1 -0.23978,-0.260548 l 4.33183,-17.99406 a 0.2459268,0.2164792 0 0 1 0.23978,-0.171637 h 16.1609 c 0.15634,0 0.27228,0.126795 0.23978,0.260548 z m -29.1836,-22.499147 -4.46796,-3.81158 a 0.2547099,0.2242106 0 0 0 -0.17654,-0.06262 h -34.0029 a 0.25295328,0.22266432 0 0 0 -0.24768,0.177049 l -8.23679,34.216857 a 0.25295328,0.22266432 0 0 0 0.24768,0.269052 h 33.91682 c 0.0527,0 0.10364,-0.01469 0.14668,-0.04175 l 6.44504,-4.044296 a 0.25207497,0.22189118 0 0 0 0.101,-0.135299 l 2.26956,-9.426896 a 0.25295328,0.22266432 0 0 0 -0.0712,-0.206428 l -4.64626,-3.963889 a 0.2547099,0.2242106 0 0 1 0.029,-0.341728 l 6.7217,-4.217479 a 0.25207497,0.22189118 0 0 0 0.10101,-0.135299 l 1.94282,-8.070036 a 0.25207497,0.22189118 0 0 0 -0.072,-0.205655 z m -17.0559,22.492962 a 0.25383159,0.22343746 0 0 1 -0.24769,0.177049 h -16.45426 a 0.25295328,0.22266432 0 0 1 -0.24768,-0.269826 l 1.14707,-4.747079 a 0.25295328,0.22266432 0 0 1 0.24769,-0.176276 h 16.44723 c 0.16073,0 0.28106,0.13066 0.24768,0.269053 z m 3.18563,-13.233064 a 0.25383159,0.22343746 0 0 1 -0.24769,0.177049 h -16.45426 a 0.25383159,0.22343746 0 0 1 -0.24768,-0.269826 l 1.14707,-4.74708 a 0.25295328,0.22266432 0 0 1 0.24769,-0.176275 H 207.238 c 0.16073,0 0.28106,0.13066 0.24768,0.269052 z M 69.15625,52.650879 65.468226,67.970648 a 0.2459268,0.2164792 0 0 1 -0.240657,0.171637 H 25.476137 A 0.2459268,0.2164792 0 0 1 25.23548,67.880191 L 33.474906,33.651737 A 0.2459268,0.2164792 0 0 1 33.715563,33.4801 h 11.280136 a 0.2459268,0.2164792 0 0 1 0.240657,0.262094 l -6.262351,26.016934 a 0.2459268,0.2164792 0 0 0 0.240657,0.262095 h 16.18374 a 0.2459268,0.2164792 0 0 0 0.240657,-0.171637 l 6.306266,-26.196303 a 0.2459268,0.2164792 0 0 1 0.240657,-0.171637 h 11.280135 a 0.2459268,0.2164792 0 0 1 0.240657,0.262094 l -2.362654,9.814239 a 0.2459268,0.2164792 0 0 0 0.344298,0.241993 L 145.98466,13.745701 c 0.23363,-0.09432 0.45497,0.149989 0.29863,0.329358 l -42.77546,49.055733 c -0.15634,0.179368 0.065,0.42368 0.29863,0.329357 l 26.67691,-10.790715 a 0.24417018,0.21493292 0 0 0 0.13789,-0.152308 l 4.54086,-18.864616 a 0.2459268,0.2164792 0 0 1 0.24066,-0.171637 h 39.18229 a 0.2459268,0.2164792 0 0 1 0.24066,0.262094 l -1.84972,7.684239 a 0.2459268,0.2164792 0 0 1 -0.24066,0.171637 h -27.62812 a 0.2459268,0.2164792 0 0 0 -0.24066,0.171637 l -1.14531,4.75945 a 0.2459268,0.2164792 0 0 0 0.24065,0.262094 h 17.83584 a 0.2459268,0.2164792 0 0 1 0.24066,0.262095 l -1.83128,7.606924 a 0.2459268,0.2164792 0 0 1 -0.24065,0.171637 H 141.9216 a 0.2459268,0.2164792 0 0 0 -0.24066,0.171637 l -1.14531,4.75945 a 0.2459268,0.2164792 0 0 0 0.24065,0.262094 h 27.41908 a 0.2459268,0.2164792 0 0 1 0.24066,0.262095 l -1.84972,7.684238 a 0.2459268,0.2164792 0 0 1 -0.24066,0.171637 h -39.18228 a 0.2459268,0.2164792 0 0 1 -0.24066,-0.262094 l 1.50806,-6.264753 a 0.2459268,0.2164792 0 0 0 -0.3443,-0.241993 L 53.668131,91.474104 c -0.230995,0.09355 -0.450573,-0.148443 -0.295112,-0.325492 l 42.78248,-49.064237 c 0.15634,-0.179369 -0.06499,-0.423681 -0.298625,-0.329358 L 69.295023,52.49857 a 0.24768342,0.21802548 0 0 0 -0.138773,0.152309 z m 195.20001,15.222353 1.06714,-4.432411 a 0.25295328,0.22266432 0 0 1 0.0729,-0.115198 l 14.78899,-12.388022 a 0.2547099,0.2242106 0 0 0 0.0404,-0.279877 l -8.76817,-12.398846 a 0.25207497,0.22189118 0 0 1 -0.0325,-0.163906 l 1.06803,-4.436277 a 0.2547099,0.2242106 0 0 1 0.24856,-0.177049 h 11.45667 a 0.2547099,0.2242106 0 0 1 0.21519,0.104374 l 5.9971,8.418721 a 0.25383159,0.22343746 0 0 0 0.38997,0.0433 l 10.15326,-8.50454 a 0.2547099,0.2242106 0 0 1 0.17479,-0.06185 h 11.38817 a 0.2547099,0.2242106 0 0 1 0.24856,0.269826 l -1.05046,4.364375 a 0.25295328,0.22266432 0 0 1 -0.0729,0.115198 l -14.80831,12.454512 a 0.25295328,0.22266432 0 0 0 -0.0395,0.279877 l 8.78398,12.330037 a 0.2547099,0.2242106 0 0 1 0.0334,0.164678 l -1.08471,4.504314 a 0.2547099,0.2242106 0 0 1 -0.24856,0.177049 h -11.45668 a 0.2547099,0.2242106 0 0 1 -0.21518,-0.104374 l -5.9971,-8.418721 a 0.25383159,0.22343746 0 0 0 -0.38997,-0.0433 l -10.15327,8.50454 a 0.2547099,0.2242106 0 0 1 -0.17478,0.06185 h -11.38817 a 0.25207497,0.22189118 0 0 1 -0.2468,-0.26828 z"
       style="fill:#040006;stroke-width:0.824049"
       id="path110277" />
    <path
       d="m 264.236,30.387 h -39.488 a 0.25,0.22 0 0 0 -0.243,0.174 l -8.239,34.224 a 0.249,0.219 0 0 0 0.243,0.265 h 39.488 a 0.25,0.22 0 0 0 0.244,-0.174 l 8.238,-34.225 a 0.249,0.219 0 0 0 -0.243,-0.264 z M 246.527,56.76 a 0.246,0.216 0 0 1 -0.24,0.172 h -16.16 a 0.245,0.216 0 0 1 -0.24,-0.26 l 4.332,-17.995 a 0.246,0.216 0 0 1 0.24,-0.171 h 16.16 c 0.157,0 0.273,0.126 0.24,0.26 z"
       style="fill:url(#g);fill-opacity:1;stroke:#000000;stroke-width:0.412024;stroke-miterlimit:4;stroke-dasharray:none;stroke-opacity:1"
       id="path110279" />
    <path
       d="m 217.344,34.261 -4.468,-3.811 a 0.255,0.224 0 0 0 -0.177,-0.063 h -34.003 a 0.253,0.223 0 0 0 -0.247,0.177 l -8.237,34.217 a 0.253,0.223 0 0 0 0.247,0.269 h 33.917 a 0.276,0.276 0 0 0 0.147,-0.042 l 6.445,-4.044 a 0.252,0.222 0 0 0 0.101,-0.136 l 2.27,-9.426 a 0.253,0.223 0 0 0 -0.071,-0.207 l -4.647,-3.964 a 0.255,0.224 0 0 1 0.03,-0.341 l 6.721,-4.218 a 0.252,0.222 0 0 0 0.101,-0.135 l 1.943,-8.07 a 0.252,0.222 0 0 0 -0.072,-0.206 z m -17.056,22.493 a 0.254,0.223 0 0 1 -0.248,0.177 h -16.454 a 0.253,0.223 0 0 1 -0.248,-0.27 l 1.147,-4.747 a 0.253,0.223 0 0 1 0.248,-0.176 h 16.447 c 0.16,0 0.281,0.13 0.248,0.269 z m 3.185,-13.233 a 0.254,0.223 0 0 1 -0.247,0.177 H 186.77 a 0.254,0.223 0 0 1 -0.247,-0.27 l 1.147,-4.747 a 0.253,0.223 0 0 1 0.247,-0.176 h 16.448 c 0.16,0 0.28,0.13 0.247,0.269 z"
       style="fill:url(#h);fill-opacity:1;stroke:#000000;stroke-width:0.412024;stroke-miterlimit:4;stroke-dasharray:none;stroke-opacity:1"
       id="path110304" />
    <path
       d="m 66.284,49.558 -3.688,15.32 a 0.246,0.216 0 0 1 -0.24,0.17 H 22.603 a 0.246,0.216 0 0 1 -0.24,-0.261 l 8.239,-34.228 a 0.246,0.216 0 0 1 0.24,-0.172 h 11.28 a 0.246,0.216 0 0 1 0.242,0.262 L 36.1,56.666 a 0.246,0.216 0 0 0 0.24,0.262 h 16.185 a 0.246,0.216 0 0 0 0.241,-0.172 L 59.072,30.56 a 0.246,0.216 0 0 1 0.241,-0.172 h 11.28 a 0.246,0.216 0 0 1 0.24,0.263 l -2.362,9.814 a 0.246,0.216 0 0 0 0.345,0.242 l 74.296,-30.054 c 0.234,-0.095 0.455,0.15 0.299,0.329 l -42.777,49.055 c -0.156,0.18 0.065,0.424 0.299,0.33 l 26.677,-10.79 a 0.244,0.215 0 0 0 0.138,-0.153 l 4.54,-18.865 a 0.246,0.216 0 0 1 0.241,-0.171 h 39.183 a 0.246,0.216 0 0 1 0.24,0.262 l -1.85,7.684 a 0.246,0.216 0 0 1 -0.24,0.172 h -27.628 a 0.246,0.216 0 0 0 -0.24,0.171 l -1.146,4.76 a 0.246,0.216 0 0 0 0.24,0.262 h 17.836 a 0.246,0.216 0 0 1 0.241,0.262 l -1.831,7.607 a 0.246,0.216 0 0 1 -0.24,0.171 h -18.046 a 0.246,0.216 0 0 0 -0.24,0.172 l -1.146,4.76 a 0.246,0.216 0 0 0 0.24,0.262 h 27.42 a 0.246,0.216 0 0 1 0.24,0.262 l -1.85,7.684 a 0.246,0.216 0 0 1 -0.24,0.171 H 124.29 a 0.246,0.216 0 0 1 -0.24,-0.262 l 1.507,-6.264 a 0.246,0.216 0 0 0 -0.344,-0.242 l -74.398,30.09 c -0.237,0.096 -0.46,-0.151 -0.302,-0.333 L 93.283,38.99 c 0.156,-0.18 -0.065,-0.424 -0.299,-0.33 L 66.422,49.406 a 0.244,0.215 0 0 0 -0.138,0.153 z"
       style="fill:url(#i);fill-opacity:1;stroke:#000000;stroke-width:0.412024;stroke-miterlimit:4;stroke-dasharray:none;stroke-opacity:1"
       id="path110306" />
    <path
       d="m 261.484,64.78 1.067,-4.433 a 0.217,0.217 0 0 1 0.073,-0.115 l 14.79,-12.388 c -2.37,-4.182 -5.817,-8.562 -8.728,-12.678 a 0.2,0.2 0 0 1 -0.033,-0.164 l 1.068,-4.436 c 0.025,-0.104 0.129,-0.177 0.249,-0.178 h 11.456 c 0.088,0 0.169,0.04 0.216,0.105 l 5.997,8.419 c 0.085,0.12 0.273,0.14 0.39,0.043 l 10.153,-8.505 a 0.274,0.274 0 0 1 0.175,-0.062 h 11.388 c 0.161,10e-4 0.281,0.131 0.249,0.27 l -1.05,4.365 a 0.217,0.217 0 0 1 -0.074,0.115 l -14.806,12.456 c 2.373,4.16 5.83,8.517 8.745,12.61 a 0.202,0.202 0 0 1 0.033,0.164 l -1.084,4.505 c -0.026,0.103 -0.13,0.177 -0.249,0.177 h -11.457 a 0.264,0.264 0 0 1 -0.215,-0.105 l -5.997,-8.418 c -0.085,-0.12 -0.274,-0.141 -0.39,-0.044 l -10.153,8.505 a 0.274,0.274 0 0 1 -0.175,0.062 h -11.388 c -0.162,0 -0.283,-0.13 -0.25,-0.27 z"
       style="fill:url(#k);fill-opacity:1;stroke:#000000;stroke-width:0.412024;stroke-miterlimit:4;stroke-dasharray:none;stroke-opacity:1"
       id="path110308" />
    <path
       d="m 316.18583,31.413549 h -2.40482 l 0.32937,-1.217695 h 6.23688 l -0.32937,1.217695 h -2.40481 l -1.00742,4.291701 h -1.42725 z m 9.81511,0.60305 -1.97268,1.446545 h -0.23275 l -1.35699,-1.446545 -0.74569,3.694063 h -1.52738 l 1.10316,-5.508623 h 1.36138 l 1.62838,1.424897 2.28537,-1.424897 h 1.34908 l -1.10316,5.508623 h -1.55636 z"
       style="fill:#696969;stroke-width:0.824049"
       id="path110310" />
  </g>
</svg>
