<?xml version="1.0" encoding="UTF-8" standalone="no"?>
<!-- Generator: Adobe Illustrator 25.4.1, SVG Export Plug-In . SVG Version: 6.00 Build 0)  -->

<svg
   version="1.1"
   id="Layer_1"
   x="0px"
   y="0px"
   viewBox="0 0 282.22741 99.999996"
   xml:space="preserve"
   sodipodi:docname="atarijaguar.svg"
   width="282.22742"
   height="100"
   inkscape:version="1.2.1 (9c6d41e410, 2022-07-14)"
   xmlns:inkscape="http://www.inkscape.org/namespaces/inkscape"
   xmlns:sodipodi="http://sodipodi.sourceforge.net/DTD/sodipodi-0.dtd"
   xmlns="http://www.w3.org/2000/svg"
   xmlns:svg="http://www.w3.org/2000/svg"><defs
   id="defs12663">
	
	
	
	
	
	
	
	
	
	
	
	
	

		
		
		
		
		
		
	
			
			
		
			
			
		
			
			
		
			
			
		
			
			
		
			
			
		</defs><sodipodi:namedview
   id="namedview12661"
   pagecolor="#505050"
   bordercolor="#ffffff"
   borderopacity="1"
   inkscape:showpageshadow="0"
   inkscape:pageopacity="0"
   inkscape:pagecheckerboard="1"
   inkscape:deskcolor="#505050"
   showgrid="false"
   inkscape:zoom="3.2741677"
   inkscape:cx="154.23767"
   inkscape:cy="57.113751"
   inkscape:window-width="1920"
   inkscape:window-height="1017"
   inkscape:window-x="-8"
   inkscape:window-y="-8"
   inkscape:window-maximized="1"
   inkscape:current-layer="Layer_1" />
<style
   type="text/css"
   id="style12594">
	.st0{fill:#FFFFFF;}
	.st1{fill:#ED1C24;}
	.st2{fill-rule:evenodd;clip-rule:evenodd;fill:#FFD100;}
	.st3{fill:#231F20;}
	.st4{fill:url(#SVGID_1_);}
	.st5{opacity:0.72;fill:#18180E;enable-background:new    ;}
	.st6{fill:url(#SVGID_00000139999503050181526640000006316411528211525298_);}
	.st7{fill:url(#SVGID_00000038408531296680146030000013604426619573518227_);}
	.st8{fill:url(#SVGID_00000061460465423493487310000006258432085564047290_);}
	.st9{fill:url(#SVGID_00000051382471013327605410000003676598470649826493_);}
	.st10{fill:url(#SVGID_00000025411673964887378570000018313426949668215709_);}
	.st11{fill:url(#SVGID_00000013906915283660399170000002069194824521229451_);}
	.st12{fill:url(#SVGID_00000054229099294272549960000017094820318510564493_);}
	.st13{fill:url(#SVGID_00000025428450626697938410000017137614231495451806_);}
	.st14{fill:url(#SVGID_00000167354479581973252690000012010931207106406578_);}
</style>
<path
   id="path12618"
   style="stroke-width:0.0735165;fill:#ed1c24;fill-opacity:1"
   d="m 197.48488,61.844922 c -0.27201,2.242254 -1.25714,4.263958 -2.51427,6.123926 -0.54402,-0.110275 -0.49256,-0.985121 -1.20567,-1.146858 0.0588,-0.272011 0.38229,-0.433747 0.54402,-0.654297 0.27201,0 0.49256,-0.05881 0.6543,-0.272011 0.82339,-1.477682 -0.16174,-3.991947 1.85997,-4.594782 0.22055,0.102923 0.4411,0.323472 0.66165,0.544022 m 16.62208,-13.122699 c 1.0954,0.926308 2.02171,1.970243 1.97024,3.389112 1.91143,3.33765 5.13881,5.682827 7.87362,8.14563 0.87485,1.587957 1.91143,3.1171 3.05829,4.594783 2.29372,-0.985122 3.66112,1.639418 5.08734,3.006825 -0.27201,1.698232 1.91143,2.021705 2.89656,3.006826 0.82338,-0.330824 1.31594,0.492561 1.41886,1.198319 1.85997,0.764572 2.67601,3.168562 4.75652,3.389112 0.82339,1.639418 3.16856,0.93366 3.27884,2.896551 1.74969,1.367407 3.71994,2.40399 5.35935,3.661122 -0.16173,1.095396 1.58796,0.492561 1.47769,1.698232 0.82338,0.602835 1.63941,1.749693 2.84509,1.580605 0.22055,1.587957 1.97024,1.587957 2.89655,2.352529 4.97706,4.212496 10.60843,7.983894 15.36495,12.358127 -0.71311,0 -1.31595,-0.441099 -1.97024,-0.654297 -12.96097,-10.167335 -26.67915,-19.13635 -39.47837,-29.906521 -0.71312,-0.382286 -0.76458,-1.198319 -1.0954,-1.859968 -4.4257,-0.602835 -6.77822,-5.410815 -10.49816,-7.873619 -1.36741,-3.719936 -6.50621,-4.535969 -6.93996,-8.638191 -1.36741,-1.257132 -3.7714,-0.764572 -4.42569,-2.896551 -0.38229,-0.161736 -0.38229,-0.71311 -0.54403,-1.036583 -0.76457,-0.764572 -3.00682,-0.544022 -2.35253,-2.131979 2.02171,-1.036583 3.66113,1.257133 5.63137,1.587957 0.92631,0.926308 2.29372,1.418869 3.38911,2.131979 m -2.08052,-7.109047 c 0.60284,0.382285 1.20568,0.874846 1.97025,0.926308 2.4628,3.771397 6.77822,6.285662 9.18956,10.226148 1.20567,1.095396 3.33765,1.418868 3.66112,3.278836 2.46281,2.021705 5.5211,4.043409 6.94732,6.837037 1.69823,0.874846 3.22737,1.970243 5.02853,2.462803 4.97706,3.933134 8.74846,8.145631 13.34324,12.46105 2.95537,3.389112 6.93996,4.153684 10.11588,6.837037 2.18344,2.080517 5.08734,4.153683 6.72676,6.565025 -0.11028,0.22055 -0.60284,0.22055 -0.82339,0 -6.83703,-5.903377 -14.32101,-10.446698 -21.10659,-16.51181 -0.98512,0.110274 -1.85997,-0.654297 -2.62454,-1.308594 -4.48451,-2.293716 -7.3296,-8.094169 -12.35813,-9.351302 -1.52914,-2.734814 -4.32277,-4.374233 -6.94731,-5.903376 -2.08051,-0.816034 -2.29371,-3.499387 -4.32277,-4.043409 -0.60283,-0.764572 -1.69823,-0.823385 -1.97024,-1.859968 -1.97024,-2.190792 -3.93313,-4.646244 -6.45475,-6.013651 -0.76457,-0.764572 -1.14686,-1.639419 -1.69823,-2.514265 -0.87485,-0.161737 -2.40399,0.49256 -3.00683,-0.764572 -0.87485,0 -1.85997,0.161736 -2.35253,-0.654297 0.11028,-0.926308 0.98512,-1.418869 0,-2.242254 1.03659,-2.734815 3.33765,0.22055 5.08735,0 0.72046,0.316121 1.26448,0.860143 1.5953,1.573254 m 13.1227,-33.1853576 c 2.84509,-0.051462 5.35936,2.3451766 7.87362,3.9404856 3.00683,2.565726 4.48451,5.793102 4.32277,9.674774 -0.33082,7.381059 -7.92508,13.063886 -13.88727,16.01925 0.49256,0.816033 1.52915,1.529143 2.35253,2.131979 2.62454,2.573078 4.4257,6.123926 7.49134,8.527916 0.87484,1.859968 3.16856,1.970243 4.59478,3.499386 2.13198,3.771398 6.28566,4.866794 8.63819,8.307367 2.84509,2.462804 5.69018,5.469629 8.79993,7.601608 1.3674,2.514265 4.21249,1.970243 5.35935,4.705058 0.76457,0.272011 1.30859,1.095396 1.58796,1.698231 -1.7497,1.580605 -3.00683,-1.698231 -4.59478,-2.352528 -1.20568,-0.764572 -2.13198,-1.859968 -3.38912,-2.734815 -5.74164,-4.484508 -10.71871,-9.07929 -16.67354,-13.012424 -1.85997,-0.93366 -3.1171,-3.065639 -4.48451,-4.705057 -3.27884,-0.926308 -4.26396,-4.484508 -6.93996,-6.285663 -0.43375,-0.823385 -1.14686,-1.639418 -1.80851,-2.242254 -0.0515,0.93366 -1.09539,0.602836 -1.47768,0.110275 -0.98512,-1.257132 -2.676,-1.749693 -3.7714,-2.734814 0.4411,-1.367408 -1.14685,-0.492561 -1.5806,-0.926309 -0.6543,-0.816033 -1.47768,-1.749693 -2.35253,-2.242253 -0.6543,0.330824 0,0.71311 0.11027,1.043934 2.08052,1.477682 2.67601,4.594783 5.24908,5.138805 2.46281,2.734814 5.19762,4.866794 7.87362,7.109047 -0.22055,0.272012 -0.82338,0.161737 -1.20567,0.382286 5.19762,2.514265 9.18222,7.925081 14.2181,10.880445 1.91143,1.801155 3.88167,3.499387 5.46963,5.24908 0.11027,0.161736 -0.22055,0.220549 -0.11028,0.382286 6.72676,4.535969 12.08612,11.806753 19.29809,15.636964 0.22055,0.544022 -0.38229,0.602835 -0.6543,0.382285 -7.76334,-4.918255 -14.43129,-11.70383 -22.30491,-16.401535 -6.56503,-4.866794 -10.93191,-11.865567 -18.2615,-15.475228 -0.22055,-1.257132 -1.52915,-1.198319 -2.35253,-1.698231 -0.82339,-1.205671 -2.57308,-2.242254 -2.62454,-3.830211 -1.14686,-1.257132 -3.27884,-1.801155 -3.83021,-3.661123 -1.03659,-0.544022 -1.97025,-1.587956 -3.27884,-1.205671 -0.92631,-0.602835 -1.36741,-2.080517 -2.62454,-2.242253 -0.22055,-0.492561 -0.93366,-0.4411 -0.87485,-1.036583 1.14686,-0.161737 0.76458,-1.639419 1.97025,-1.808507 0.98512,0.544022 2.08051,0.492561 3.1171,0.110275 0.87484,-1.698232 -1.58796,-2.131979 -2.24226,-3.389112 -0.49256,-0.71311 0.43375,-1.418868 0.54402,-1.749693 1.80116,-0.05146 2.84509,3.550848 4.8668,2.131979 0.49256,0 0.70576,0.602836 1.30859,0.382286 1.3086,-2.18344 3.05829,-4.212496 4.69771,-6.285662 0.54402,-1.315946 1.69823,-2.565727 1.03658,-4.212497 -2.35253,-3.006825 -6.55767,-3.558199 -10.32907,-2.896551 -0.98512,0.874847 -2.95536,0.323473 -3.16856,1.970243 -0.16909,1.418869 -1.0954,2.462803 -1.69823,3.661123 -0.33083,-0.05146 -0.38229,-0.323473 -0.38229,-0.654297 0.27201,-0.161737 -0.22055,-0.433748 -0.38229,-0.492561 -1.69823,2.080518 -1.91142,5.02853 -3.05828,7.491333 -0.38229,0 -0.22055,-0.544022 -0.6543,-0.544022 -2.95536,8.910202 -4.64624,18.261504 -6.6753,27.553992 -0.22055,0.654297 -0.6543,0.926308 -1.19832,1.308594 -0.82338,-0.602836 0.6543,-2.080518 -0.76457,-2.514265 -1.74969,3.991947 -3.33765,8.035356 -5.13881,11.975841 -0.54402,-0.823385 0.0588,-1.587957 -0.49256,-2.352529 -0.76457,-0.161736 -1.14685,0.161737 -1.30859,0.764572 -0.76457,1.698232 -0.54402,4.043409 -1.97024,5.24908 0.0588,-0.382286 0.4411,-1.529144 0,-2.080518 -0.71311,0.492561 -0.6543,2.183441 -1.58796,1.698232 0,-1.146858 -1.19832,-2.462804 0,-3.447925 -1.58061,-2.190792 1.03658,-4.866794 1.85997,-7.219322 0.49256,-0.382286 1.52914,-0.654297 0.6543,-1.418869 0.54402,-0.602836 -0.33083,-2.352529 0.87484,-2.242254 0.70576,-0.492561 0.0515,-0.823385 -0.38228,-1.036583 0.93366,-2.021704 1.30859,-4.263958 2.24225,-6.285662 0.92631,-0.330825 1.63942,-1.095396 1.69823,-2.131979 -0.71311,-0.110275 -0.54402,-0.985122 -0.38228,-1.418869 1.74969,-4.866794 2.73481,-10.064412 4.97706,-14.710656 0.27201,-1.036583 0.43375,-2.455452 1.3086,-3.389111 0.33082,-1.808507 1.36741,-3.227376 1.69823,-4.977069 -2.29372,0.433748 -4.53597,3.447925 -7.21197,1.970243 0.0515,-2.734815 -3.49939,0.433747 -3.38911,-2.242254 -0.22055,-1.639418 -2.1908,-0.161736 -2.62454,-1.698232 0,-1.095396 0.60283,-1.639418 0.38228,-2.624539 0.98512,0.49256 1.58061,-0.713111 2.51427,-0.654297 1.03658,-0.816034 0.54402,-2.293716 1.41887,-3.168562 2.24225,-0.544023 4.15368,-2.183441 6.28566,-2.514265 0.27201,-0.382286 0.49256,-0.93366 1.0954,-0.874847 1.09539,0.05881 2.18344,-0.654297 3.27883,-0.926308 0,0.05146 0.0588,0.05146 0.11028,0.110275 1.09539,-0.705759 2.62454,-0.654297 3.55085,-1.580605 2.24225,-0.22055 4.37423,-1.5291441 6.55767,-1.1468582 1.47768,-0.2720111 3.5582,0.1102748 4.70506,-1.3085941 1.14685,-0.8160333 2.51426,0.5440223 3.66112,-0.654297 1.24243,0.8013301 3.21267,-0.5660772 4.4698,0.6395937 M 79.351562,8.9394531 c -0.650663,-0.017374 -1.339926,0.2619988 -1.808593,0.546875 -0.816032,1.2571319 -2.346166,0.486108 -3.66211,0.5449219 -1.639418,0 -1.307167,1.910991 -1.689453,2.734375 -1.20567,0.272011 -0.71447,-1.09533 -1.207031,-1.587891 -0.661648,0.161737 -0.985056,-0.161363 -1.587891,0.16211 -0.330823,1.418866 -0.822419,2.785838 -1.697265,4.042968 -2.345175,1.859967 -2.625001,4.814763 -3.933594,7.21875 -1.15421,0.05146 -0.109683,1.088044 -1.205078,1.308594 -0.771923,1.036581 -0.985737,2.675936 -2.191406,3.550782 -0.272011,1.91878 -2.78711,3.61021 -2.78711,5.742187 0,0.926307 -0.82242,1.801461 -1.697265,2.404297 0.544021,1.639416 -1.155198,2.784938 -1.699219,4.152344 -0.492561,0.220549 -1.256013,0.05146 -1.476563,0.654296 -1.036582,0 -2.352617,0.442461 -3.117187,1.207032 0.213197,0.161737 0.926307,0.160684 0.654297,0.542968 -0.22055,1.308594 1.478143,0.654824 1.970703,1.03711 -0.169088,0.602835 -0.713044,1.094431 -0.933594,1.697266 0.602836,1.043933 -1.147756,1.09691 -0.544922,2.082031 -1.367405,1.690877 -2.29275,3.659565 -3.005859,5.519531 -0.926308,0.595483 -0.655351,1.691407 -1.419922,2.345703 -0.874846,1.911428 -2.191188,3.823781 -2.904297,5.904297 0.933659,0.661647 -0.822482,1.146265 -0.763672,1.859375 -0.98512,0 -0.221383,0.985583 -0.824219,1.316406 0.110275,1.367407 -1.417968,1.962826 -1.417968,3.550781 -0.110275,1.308593 0.543122,1.962453 0.109375,3.388672 1.749691,-0.874846 1.97123,-3.057255 3.007812,-4.59375 h 0.279297 c 0.433747,0.654297 -0.168715,1.587892 -0.492187,2.242188 -0.272011,0.323473 -0.163162,1.196893 0.380859,1.035156 1.198318,-2.573075 2.132068,-5.30785 3.771484,-7.601562 0.22055,1.198317 -0.220549,2.455386 -0.654296,3.550781 1.205669,0.98512 -0.544022,2.354044 0,3.390625 0.654296,-0.595483 0.874847,-1.633647 1.308593,-2.457031 -0.382284,-1.918779 2.023065,-2.30041 1.861328,-4.101563 3.168559,-6.667941 5.791632,-13.556294 9.291016,-20.0625 0.933658,0.05881 1.529078,-0.713638 2.242187,-1.037109 3.278834,-0.985121 6.838354,-2.191188 10.117188,-3.558594 l 0.271484,0.273437 c 0.110274,3.389109 0.272538,7.6015 0.382813,11.152344 -0.764571,1.808505 1.30754,3.006322 0.542969,4.976563 -1.088044,0.874845 0.330978,2.190354 0.220703,3.388672 0.441099,0.551373 0.551835,1.536956 1.316406,1.316406 0.654296,-0.713109 -0.110274,-2.300628 0.654297,-2.734375 -0.713109,1.970241 1.962363,2.844059 0.925781,4.59375 0.110275,0.933659 0.170449,1.97123 1.207031,2.353516 0.492561,-1.477681 -6.5e-5,-3.499936 0.933594,-5.087891 0.764571,0.161737 0.815133,1.367869 1.417969,1.970703 1.257131,0.713109 0.765099,-1.043868 1.037109,-1.587891 C 80.366068,45.715797 80.63808,32.319951 81.84375,19.851562 81.792285,17.550498 82.879279,15.146702 81.732422,13.125 79.497522,13.286736 81.026663,10.500372 80.423828,9.3535156 80.117816,9.0668015 79.741961,8.9498775 79.351562,8.9394531 Z M 71.896484,21.279297 c 0.161736,3.71258 -0.272844,7.158974 -0.169922,10.878906 -1.690878,0.764571 -3.711245,1.257068 -4.80664,2.896485 -0.98512,-0.382286 -1.86043,0.111175 -2.625,0.544921 -0.4411,0.661649 -0.279298,1.697792 -1.587891,1.425782 -0.161737,-0.330825 -0.161737,-0.712145 0,-1.042969 2.301065,-4.594778 4.595266,-9.131631 7.330078,-13.50586 0.49256,1.315945 1.145738,-0.160683 1.476563,-0.542968 0,-0.272011 0.272537,-0.433747 0.382812,-0.654297 z M 80.806808,0.93648504 C 80.586258,1.3702325 79.990775,1.3702325 79.601137,1.7010569 76.050289,2.2450791 72.330353,2.4656287 68.882428,3.2890137 c -0.544022,1.4188688 0.985122,1.3674073 1.801155,1.308594 0.272011,0.3822859 0.764572,-0.1102747 0.823385,0 0,1.6394184 -2.62454,0.9851214 -2.131979,2.8965509 -1.367407,1.2571325 -3.447925,0.7645718 -4.866794,1.9702428 0.110275,0.1102747 0.22055,0.1617363 0.272012,0.2720111 -2.352529,0.9336595 -4.807981,2.0805175 -7.329598,2.3525285 0.382286,0.926308 -1.036582,1.698232 -1.477682,2.242254 -1.580605,-0.110275 -2.734814,0.71311 -4.043408,1.308594 -1.573254,9.843862 -4.962365,18.974614 -7.748641,28.325915 -2.948013,5.579904 -4.53597,11.70383 -9.292488,16.570624 C 30.021596,66.932265 23.081636,74.372137 14.164083,71.688784 8.915003,69.497992 2.1882414,67.586562 0.00480076,61.403823 -0.05401245,60.8598 0.43854823,60.639251 0.87964735,60.528976 1.2619333,60.36724 1.1516585,60.749526 1.3133948,60.911262 c 0.654297,0.382286 1.4188689,0.654297 1.5291436,1.587957 3.33765,1.970243 6.1753877,5.087343 10.4981586,4.587431 8.145631,-0.867495 13.343249,-9.233675 17.224921,-15.526689 5.300541,-10.659896 8.145631,-22.415187 10.77017,-34.229292 -0.110274,-0.110275 -0.220549,-0.161736 -0.272011,-0.272011 -6.778223,0.602835 -13.343248,2.073166 -20.062658,2.242254 -0.382286,-0.544023 -0.492561,-1.146858 -0.823385,-1.698232 -0.71311,-0.272011 -1.698232,0.602836 -1.970243,-0.272011 0.382286,-0.110275 -0.05881,-0.272011 -0.110275,-0.382286 0.823385,0.05881 1.418869,-0.544022 1.808507,-1.205671 0.220549,-0.823385 -0.764572,-0.93366 -1.146858,-1.418869 -0.544022,-0.110274 -1.036583,-0.220549 -1.205671,-0.823385 0,-0.544022 0,-1.095396 0.544022,-1.418869 0.764572,-0.49256 2.896551,0.544023 2.455452,-0.933659 -0.492561,-0.05146 -1.749693,0.272011 -1.801155,-0.764572 0.05881,-0.8233852 0.161737,-1.587957 1.146858,-1.4776822 6.998773,0.6028355 13.063886,-1.4188688 19.952384,-1.8011547 9.895323,-1.3674073 19.298086,-4.2124966 29.031673,-5.5210907 3.286189,-0.5366706 6.565026,-1.02923126 9.851214,-1.58060516 0.816033,0 1.91143,-0.10292313 2.073166,0.9336598 M 136.19336,6.5664062 c -0.82399,-0.1254374 -1.10091,1.2692595 -1.96289,1.03125 -0.48521,-0.4410987 -0.92632,0.2130445 -1.30859,0.4335938 -2.40399,1.5291421 -3.38755,4.366378 -4.21094,6.939453 -1.69088,2.080515 -2.40551,4.594739 -3.39063,6.947266 -1.63942,4.102218 -4.04275,7.872918 -4.75586,12.357422 -1.53649,1.911427 -1.04349,4.757968 -2.08007,6.941406 -1.85261,3.881669 -2.02223,8.366006 -1.03711,12.740234 0.65429,0.661649 0.60298,1.645431 1.52929,2.189453 2.4628,1.367406 5.13966,0.928107 7.49219,-0.21875 3.17591,-2.793625 6.29185,-5.912419 9.07813,-8.970703 0.60282,0.98512 -0.76457,1.420229 -0.6543,2.515625 -0.93366,2.080515 -0.43999,3.719958 -0.82227,6.013672 0.71309,0.433747 1.03659,1.366288 0.6543,2.13086 1.91143,3.661119 6.11548,0.874473 8.79883,0.492187 -1.25713,1.095395 -1.20471,2.736636 -2.35156,3.832031 0,0.823384 -0.98618,0.98363 -0.76563,1.96875 -1.14686,0.602836 -0.82384,2.302581 -1.9707,2.736328 -0.27201,1.257131 -1.58737,2.181949 -1.85938,3.277344 0.38229,0.705758 0.87531,-0.271638 1.31641,0.16211 -0.11028,0.713109 -0.38176,1.477243 -0.27149,2.080078 2.07317,0 2.45449,-2.350971 3.66016,-3.556641 0.49256,0.49256 -0.43291,1.911362 0.82422,1.587891 0.6543,-0.926308 1.25706,-1.912944 2.24219,-2.736328 0,0.441098 -0.38261,0.985055 -0.44141,1.58789 0.16173,0.110275 0.32242,0.330978 0.54297,0.220703 2.0217,-1.97024 3.33857,-4.704487 4.5957,-7.21875 0.11028,-0.330823 0.71252,-1.417968 1.20508,-0.763672 0.0515,0.22055 0.54508,0.381386 0.76562,0.109375 0.38229,-1.418867 1.4762,-2.566187 1.96876,-3.933593 3.06563,-4.756515 5.52194,-9.726742 8.14648,-14.652344 0.32347,-0.485209 0.76562,-1.197266 1.41992,-1.197266 -0.43375,-1.20567 0.984,-0.66211 1.47656,-1.316406 0.16177,0.05146 0.11133,0.272538 0.11133,0.382813 0.38964,-0.161737 0.87426,-0.161364 1.20508,-0.492188 2.02171,-0.161736 2.89718,-2.353363 4.80859,-2.787109 0.66165,-0.323473 1.63792,-0.272539 1.96875,-1.03711 1.3674,-0.05146 2.40477,-1.255705 3.72071,-1.035156 0.22055,2.352527 -0.49204,5.086247 -0.27149,7.490234 -0.55137,1.367407 0.43375,2.566715 0.6543,3.66211 -1.36741,2.021702 -0.22055,4.593685 0,6.835937 0.43375,-0.330824 0.10937,-1.528551 0.76367,-1.859375 0.60284,0.602835 0,1.425782 0,2.080078 1.03658,0.874847 0.16121,2.734684 0.92578,3.830079 -0.22055,0.602834 0.1108,1.258492 0.38282,1.861328 0.49255,0.323471 0.76509,-0.71311 1.0371,0 0.43375,0.874845 -0.65445,0.81566 -0.875,1.146484 0.38229,0.492561 0.21373,1.417753 1.03711,1.476562 0.11028,0.874846 0.43291,2.242715 -0.82421,2.625 0.43374,0.272011 0.272,0.765099 0.65429,1.03711 0.27201,0 0.54403,-0.05093 0.6543,-0.271484 0.66165,0.654296 0.44141,1.858475 0.44141,2.623046 0.16173,0.220549 0.49308,0.434801 0.38281,0.765625 0.43375,0.272011 0.38138,-0.382286 0.76367,-0.654297 -0.27201,-2.021702 0.60231,-4.425716 0.27148,-6.667968 2.35253,-15.908959 1.53007,-33.62747 5.25,-48.933594 -0.27201,-0.22055 5.3e-4,-0.601717 -0.27148,-0.822266 -1.74969,-0.874846 -3.06709,-0.382439 -4.97852,-0.875 -0.70576,0.05146 -0.48417,-0.7713307 -0.54296,-1.2050778 -0.66165,-0.3308239 -1.5366,-0.765625 -2.4629,-0.765625 -0.9263,0.4925603 -0.97831,1.6983198 -1.0371,2.4628908 0.22054,2.896548 -2.8959,4.044331 -4.75586,5.904297 0.0515,0.27201 -0.44058,0.330825 -0.27149,0.654297 -1.42622,0.933659 -2.35345,2.299509 -3.28711,3.55664 -1.25713,0.823384 -1.03704,2.515253 -2.625,3.007813 0.38229,2.352526 -3.17547,2.300563 -2.73437,4.322265 -0.16174,0.272011 -0.43375,0.331198 -0.6543,0.16211 -0.65429,1.426219 -2.46237,2.352552 -2.73437,4.050781 -1.80116,1.639417 -1.58874,4.645211 -4.375,5.248047 -0.49257,1.587955 -2.18391,1.478669 -3.2793,2.353516 -0.54402,1.205669 -2.13049,1.478516 -3.27735,2.132812 -0.7131,0.661647 0.65415,0.549883 0.4336,1.314453 -0.0588,0.977769 -1.25743,1.470858 -1.09571,2.345703 1.20567,-0.323471 2.46321,-0.875372 3.5586,-1.037109 -1.5806,3.220021 -4.53637,5.573409 -6.17578,8.800781 -0.27202,0.330824 -0.54508,-0.05094 -0.76563,-0.271484 -0.76457,-0.110275 -1.41744,-0.933595 -1.68945,-1.587891 -0.38228,-0.98512 0.0506,-2.022691 0.10937,-3.007812 3.60966,-10.667237 7.87345,-20.995992 13.39454,-30.839844 v -0.824219 c 0.0515,-1.043933 -0.98416,-1.31498 -1.69727,-1.697266 -0.11028,-0.492559 0.33045,-0.764198 0.49219,-1.146484 0.33082,-0.764571 -0.27201,-1.478516 -0.6543,-2.132812 -1.0954,-0.602836 -2.02179,-0.544023 -3.11719,0 -0.4411,-1.146857 -1.69921,-0.434275 -2.35351,-1.03711 -1.63942,1.257131 -2.18195,3.175936 -3.27735,4.705078 0.0515,0.823385 -1.25796,1.206132 -0.82422,1.970704 -1.26447,0.661647 -1.53659,2.515033 -2.46289,3.720703 -1.47768,0.926307 1.14739,1.637926 -0.27148,2.623047 -0.38228,0.169087 -0.82279,0.71469 -1.20508,0.49414 0.16174,0.433748 -0.27307,0.652871 -0.11133,1.035156 -0.87485,0.874847 -0.60231,2.022012 -0.27148,3.058594 -1.31595,0.544023 -1.31641,2.352617 -1.31641,3.771484 -1.47768,0.926308 -0.38222,2.897012 -1.58789,3.933594 -0.27202,3.822855 -4.37478,6.447355 -7.05078,8.910156 -0.54402,1.308593 -2.07204,1.640253 -2.78516,2.78711 -1.85995,0.977769 -3.55086,3.874254 -6.01367,3.550781 -0.87484,-0.433747 -0.9263,-1.588265 -0.65429,-2.404297 1.58794,-5.638711 3.33761,-11.212236 6.94726,-15.96875 0.76457,-3.168559 2.57295,-5.954642 4.48438,-8.689453 1.09539,-1.47768 0.27893,-3.770893 2.08008,-4.976562 1.08804,-2.624537 2.99993,-4.925564 3.93359,-7.601563 -0.55138,-1.20567 -1.47868,-0.87568 -2.35352,-1.478516 1.52914,-1.3674052 -1.2557,-2.0791789 -0.38086,-3.4980464 -0.11027,-0.2720108 -0.32391,-0.4930215 -0.53711,-0.6621094 -0.14335,-0.089139 -0.27291,-0.1383303 -0.39062,-0.15625 z m 38.81836,14.1601558 c -0.0515,0.433748 0.10885,0.714076 0.38086,0.919922 0.38964,0.05146 0.76542,-0.433748 0.82422,-0.654296 0.0515,1.47768 -0.98595,2.682694 -0.82422,4.101562 -0.70577,0.220549 -0.87394,1.096384 -0.76367,1.699219 0.92631,0.764571 -0.65536,1.09533 -0.11133,2.242187 -1.63942,-1.043934 -2.84353,0.601409 -4.21094,1.035156 -0.27201,1.426219 -2.13244,0.934648 -2.625,1.699219 h -0.38281 c 1.7497,-4.043405 4.8678,-7.492124 7.71289,-11.042969 z m -64.79095,-7.873049 c 1.47768,0.382286 1.30859,2.734814 3.1171,1.970243 0.49256,-0.110275 1.09539,0.49256 0.6543,1.095396 -0.27202,0.161736 -0.60284,0.330824 -0.93366,0.492561 0.27201,0.544022 0.87484,1.257132 0.27201,1.859967 -1.63942,0.874847 -3.55085,0.93366 -5.35936,1.418869 -6.50621,2.462804 -13.556444,7.439872 -16.291259,14.321018 -1.367407,4.594783 -1.587957,10.498159 1.205671,14.541568 2.293716,2.352529 4.977069,4.866794 8.255908,5.410816 2.89655,0.654297 5.41081,-0.433748 7.49133,-2.242254 0,-0.654297 -1.30859,-0.985121 -0.54402,-1.587957 -1.52915,-1.859968 0.16173,-3.881672 -0.27201,-5.903376 0.54402,-2.131979 0.76457,-3.881673 1.58795,-5.903377 -1.20567,-0.110275 -2.35252,0.71311 -3.66112,0.764572 0.54402,-0.272011 0,-0.985121 -0.38228,-0.492561 -2.46281,1.146858 -5.08735,1.859968 -7.381063,3.389112 -0.330824,-0.05146 -0.93366,-0.323473 -0.492561,-0.764572 2.411342,-0.705759 1.477682,-3.933134 4.212494,-4.102222 0.38229,-1.639418 2.35253,-1.859968 3.7714,-2.18344 -0.38229,-1.639419 1.47768,-0.602836 2.13198,-1.095397 1.91143,-0.985121 4.10222,-1.477682 5.74164,-3.278836 0.76457,-0.382286 1.47768,-0.22055 1.69823,0.654297 0.0588,0.323472 -0.0588,0.654297 0.27201,0.823385 0.87485,-0.110275 1.52915,-1.477682 2.35253,-0.823385 -0.0588,8.476454 -5.02853,16.019249 -3.00682,24.708902 -0.11028,0.816033 0.16173,1.801155 0.27201,2.734815 -0.16909,0.272011 -0.4411,0.272011 -0.6543,0.382285 -0.27201,-0.220549 0,-0.654297 -0.27201,-0.933659 -1.85997,0.985121 -0.93366,-1.970243 -2.46281,-1.698232 -0.76457,-0.764572 -1.14685,-1.911429 -2.40399,-1.801155 -1.52914,1.639419 -2.57307,4.043409 -4.97706,4.425695 -3.22738,0.874846 -6.998776,0.330824 -9.954141,-1.418869 -4.322771,-1.698232 -7.381058,-5.682827 -9.189565,-9.733587 -1.859967,-7.491334 -1.477682,-16.291261 2.734815,-22.576924 0.764572,-2.514265 3.227375,-3.991947 4.31542,-6.395937 2.18344,-1.205671 3.1171,-4.153683 5.410816,-5.410816 0.382286,0.05881 0.933659,0 0.933659,-0.49256 2.786276,-1.587957 5.903376,-2.293716 9.182216,-2.786276 0.66165,1.757044 3.44792,0.338176 2.62454,2.631891 m 162.55237,80.868172 c -0.87484,0.382286 -1.85996,-0.544022 -2.62453,-1.205671 0.71311,-1.367407 1.63941,0.874847 2.62453,0.926308 v 0.279363 m 2.34518,-4.874145 c -0.33082,0.544022 -0.92631,0.110274 -1.30859,0 -2.02171,-0.926308 -3.88167,-2.293716 -5.74164,-3.661123 -0.38229,-0.382286 0.0588,-0.874847 0.49256,-0.654297 2.35253,1.095396 4.42569,3.006826 6.55767,4.31542 m -0.6543,-6.013652 c 2.57308,1.698232 5.41082,2.786276 7.76335,4.705058 -3.16856,-0.382286 -5.90338,-2.676002 -8.79993,-4.212497 -0.81603,-0.22055 -1.63942,-0.602835 -2.08052,-1.418869 0.0588,-0.382286 -0.22055,-0.874846 0.27202,-1.036583 1.1542,0.161737 1.8085,1.529144 2.84508,1.962891 m -9.84386,-6.829684 c 0.6543,0.272011 1.14686,0.985121 1.97025,0.933659 1.63941,0.823385 2.40399,2.786277 4.10222,3.499387 -1.0954,1.315945 -2.24226,-0.93366 -3.55085,-1.036583 -1.20567,-1.749693 -3.71994,-2.021704 -4.2125,-4.043409 0.6543,-0.610187 1.3086,-0.06616 1.69088,0.646946" /><path
   id="path12650"
   style="stroke-width:0.0735165;fill:#ffd100;fill-opacity:1"
   d="m 211.26922,86.509714 c 0,5.3373 -4.33012,9.667423 -9.66742,9.667423 -5.3373,0 -9.67477,-4.330123 -9.67477,-9.667423 0,-5.337299 4.33012,-9.674774 9.67477,-9.674774 5.34465,0 9.66742,4.337475 9.66742,9.674774 m -28.78906,0 c 0,5.3373 -4.33013,9.667423 -9.67478,9.667423 -5.3373,0 -9.67477,-4.330123 -9.67477,-9.667423 0,-5.337299 4.33012,-9.674774 9.67477,-9.674774 5.3373,0.0074 9.67478,4.337475 9.67478,9.674774 m -28.79643,0 c 0,5.3373 -4.33012,9.667423 -9.67477,9.667423 -5.3373,0 -9.67477,-4.330123 -9.67477,-9.667423 0,-5.337299 4.33012,-9.674774 9.67477,-9.674774 5.34465,0.0074 9.67477,4.337475 9.67477,9.674774 m -28.78907,0 c 0,5.3373 -4.33012,9.667423 -9.66742,9.667423 -5.3373,0 -9.67477,-4.330123 -9.67477,-9.667423 0,-5.337299 4.33012,-9.674774 9.67477,-9.674774 5.3373,0.0074 9.66742,4.337475 9.66742,9.674774 m -28.789064,0 c 0,5.3373 -4.330123,9.667423 -9.674774,9.667423 -5.3373,0 -9.667423,-4.330123 -9.667423,-9.667423 0,-5.337299 4.330123,-9.674774 9.667423,-9.674774 5.344651,0.0074 9.674774,4.337475 9.674774,9.674774 m -28.796421,0 c 0,5.3373 -4.330123,9.667423 -9.674774,9.667423 -5.3373,0 -9.674774,-4.330123 -9.674774,-9.667423 0,-5.337299 4.330123,-9.674774 9.674774,-9.674774 5.344651,0.0074 9.674774,4.337475 9.674774,9.674774" /><path
   id="polygon12652"
   style="fill:#231f20"
   class="st3"
   transform="matrix(0.07351652,0,0,0.07351652,-0.00255089,0.00282524)"
   d="m 2721.3,1255.4 h 41.9 V 1129.1 H 2802 V 1098 h -119.5 v 31.1 h 38.8 z M 2329.6001,1098 H 2371.6 v 157.5 h -41.9999 z M 1937.1,1127.8 h 12.2 c 14,0 27.5001,1.4 27.5001,15.8 0,13.3 -14.2001,16.7 -28.0001,16.7 h -11.7 z m 0,60.9 h 12.9 c 14.4,0 30.9,1.6 30.9,18.7 0,16 -16,18.3 -31.4001,18.3 H 1937.1 Z m -41.9999,66.7 H 1961.4 c 28.2,0 61.4001,-7.9 61.4001,-45.6 0,-19.2 -10.8001,-30.5 -31.8001,-34.7 v -0.5 c 17.6,-5.9 27.7,-16.9 27.7,-36.8 0,-27.1 -21.8999,-39.9 -51.2,-39.9 h -72.3999 z M 1536.8,1161.8001 h 61.1 V 1191.6 h -61.1 z M 1175.7,1197 h -43.3 l 42.9,-66.5 h 0.5 v 66.5 z m -2.7,58.4 h 39.3 v -30 h 22.3 V 1197 h -22.3 v -99 h -46.5 l -63.2,94.1 v 33.4 h 70.4 z m -412.49999,-48.5 c 0,-12.2 6.79999,-23.2 20.49999,-23.2 14.7,0 20.1,12 20.1,25 0,12.2 -7,22.3 -20.1,22.3 -13.59999,0.1007 -20.49999,-11.2 -20.49999,-24.1 z M 831.1,1102.5 c -12,-4.7 -24.8,-7.2 -40.8,-7.2 -52.1,0 -69.5,39.9 -69.5,88.2 0,39.5 15.59999,74.7 60.5,74.7 34.69999,0 59.10001,-24.1 59.10001,-53.2 0,-28.2 -18.30001,-49.6 -47.10002,-49.6 -15.8,0 -26.59999,5.4 -34.09999,16 h -0.50002 c 0.19995,-27.7 8.79999,-46.2 36.8,-46.2 15.3,0 26.39999,3.8 33.19999,8.3 z" />
</svg>
