<?xml version="1.0" encoding="UTF-8" standalone="no"?>
<svg
   id="engine"
   viewBox="0 0 398.25595 100.00011"
   version="1.1"
   sodipodi:docname="solarus.svg"
   width="398.25595"
   height="100.00011"
   inkscape:version="1.2.1 (9c6d41e410, 2022-07-14)"
   xmlns:inkscape="http://www.inkscape.org/namespaces/inkscape"
   xmlns:sodipodi="http://sodipodi.sourceforge.net/DTD/sodipodi-0.dtd"
   xmlns="http://www.w3.org/2000/svg"
   xmlns:svg="http://www.w3.org/2000/svg">
  <defs
     id="defs100494" />
  <sodipodi:namedview
     id="namedview100492"
     pagecolor="#505050"
     bordercolor="#ffffff"
     borderopacity="1"
     inkscape:showpageshadow="0"
     inkscape:pageopacity="0"
     inkscape:pagecheckerboard="1"
     inkscape:deskcolor="#505050"
     showgrid="false"
     inkscape:zoom="1.4142136"
     inkscape:cx="200.46477"
     inkscape:cy="55.861436"
     inkscape:window-width="1920"
     inkscape:window-height="1017"
     inkscape:window-x="-8"
     inkscape:window-y="-8"
     inkscape:window-maximized="1"
     inkscape:current-layer="engine" />
  <g
     id="engine_logo"
     transform="matrix(0.833125,0,0,0.833125,-0.60961003,9.0484331e-5)">
    <g
       id="solarus_letters"
       style="fill:#ffffff;fill-opacity:1;stroke:#000000;stroke-width:4.53657;stroke-dasharray:none;stroke-opacity:1;paint-order:markers stroke fill">
      <path
         id="solarus_letter_s2"
         d="M 36,37.14 Q 26.22,33.83 23.7,31.78 a 6.18,6.18 0 0 1 -2.51,-4.94 6.93,6.93 0 0 1 3.32,-6.28 c 2.21,-1.39 5.22,-2.09 9,-2.09 A 38.42,38.42 0 0 1 50.07,22 L 51.35,8 A 53.32,53.32 0 0 0 43.14,6 58.67,58.67 0 0 0 33,5.16 q -14,0 -22,5.9 -8,5.9 -8,16.75 0,9.23 5.21,14.06 5.21,4.83 15.89,8.26 8,2.68 10.72,5.21 A 7.49,7.49 0 0 1 37.51,60.87 6.91,6.91 0 0 1 33.92,67 17.23,17.23 0 0 1 24.63,69.26 37.42,37.42 0 0 1 13,67.36 33.07,33.07 0 0 1 5.37,64.19 L 4,79.22 q 3.65,1.08 9.44,2.2 a 62.85,62.85 0 0 0 12.16,1.13 q 13.73,0 21.84,-6 8.11,-6 8.11,-16.85 0,-8.91 -4.36,-14 Q 46.83,40.61 36,37.14 Z"
         style="fill:#ffffff;fill-opacity:1;stroke:#000000;stroke-width:4.53657;stroke-dasharray:none;stroke-opacity:1;paint-order:markers stroke fill" />
      <path
         id="solarus_letter_la"
         d="M 245.78,6.45 221.91,68.06 H 192.18 V 6.45 h -17.61 v 74.92 l 60.25,-0.1 6.12,-16.43 h 29.74 l 6,16.43 H 296 L 266.49,6.45 Z m -0.22,45.4 10.51,-30.38 10.1,30.38 z"
         style="fill:#ffffff;fill-opacity:1;stroke:#000000;stroke-width:4.53657;stroke-dasharray:none;stroke-opacity:1;paint-order:markers stroke fill" />
      <path
         id="solarus_letter_r"
         d="m 347.43,59.36 q -1.6,-4.39 -3.81,-9.12 a 10.42,10.42 0 0 0 -6.92,-6 q 7.85,-1.6 11.48,-6.65 a 18.67,18.67 0 0 0 3.65,-11.17 q 0,-10.2 -7,-15.08 -7,-4.88 -20.15,-4.89 H 296 v 74.82 h 17.61 V 50.88 H 319 a 8.46,8.46 0 0 1 6.76,2.74 20.08,20.08 0 0 1 3.75,6.93 L 337,81.27 h 18.9 l -8,-20.94 z m -17,-23.67 C 328.18,37.24 325,38 321,38 h -7.41 V 19.33 h 6.87 c 4.44,0 7.77,0.73 10,2.19 2.23,1.46 3.39,3.85 3.39,7.15 a 7.9,7.9 0 0 1 -3.38,7.02 z"
         style="fill:#ffffff;fill-opacity:1;stroke:#000000;stroke-width:4.53657;stroke-dasharray:none;stroke-opacity:1;paint-order:markers stroke fill" />
      <path
         id="solarus_letter_u"
         d="m 402.27,49.6 q 0,9.56 -3.47,14.54 -3.47,4.98 -10.91,5 c -4.87,0 -8.47,-1.61 -10.85,-4.83 -2.38,-3.22 -3.53,-7.9 -3.53,-14.06 V 6.45 H 355.9 v 47.12 q 0,14.28 8.27,21.63 8.27,7.35 23.83,7.35 15.88,0 23.88,-7.62 8,-7.62 8,-23 V 6.45 h -17.61 z"
         style="fill:#ffffff;fill-opacity:1;stroke:#000000;stroke-width:4.53657;stroke-dasharray:none;stroke-opacity:1;paint-order:markers stroke fill" />
      <path
         id="solarus_letter_s"
         d="m 472.17,45.73 q -4.35,-5 -15.18,-8.59 c -6.51,-2.21 -10.62,-4 -12.3,-5.36 a 6.15,6.15 0 0 1 -2.51,-4.94 6.93,6.93 0 0 1 3.32,-6.28 c 2.21,-1.39 5.22,-2.09 9,-2.09 A 38.33,38.33 0 0 1 471,22 L 472.29,8 A 53.61,53.61 0 0 0 464.08,6 58.67,58.67 0 0 0 454,5.16 q -14,0 -22,5.9 -8,5.9 -8,16.75 c 0,6.15 1.75,10.84 5.21,14.06 3.46,3.22 8.75,6 15.85,8.26 q 8,2.68 10.72,5.21 a 7.49,7.49 0 0 1 2.69,5.53 6.9,6.9 0 0 1 -3.6,6.11 17.23,17.23 0 0 1 -9.29,2.26 A 37.41,37.41 0 0 1 434,67.36 c -3.86,-1.25 -6.42,-2.31 -7.64,-3.17 l -1.38,15 c 2.43,0.72 5.57,1.45 9.44,2.2 a 62.77,62.77 0 0 0 12.14,1.13 q 13.73,0 21.84,-6 8.11,-6 8.09,-16.85 0.02,-8.89 -4.32,-13.94 z"
         style="fill:#ffffff;fill-opacity:1;stroke:#000000;stroke-width:4.53657;stroke-dasharray:none;stroke-opacity:1;paint-order:markers stroke fill" />
    </g>
    <path
       id="logo"
       d="M 114.1,0 A 53.48,53.48 0 0 0 68.34,81.29 h 3.07 l 40.64,-40.64 c 3.72,3.71 8.82,-1.3 10.3,-2.93 l -2.55,-2.55 c -3.54,-3.52 -6.57,1.87 -6.57,1.87 l -7.74,-7.75 c 0,0 12.08,-5.51 18.65,1.06 2.35,2.36 3.89,3.9 4.92,4.92 l 9,-9 a 6.68,6.68 0 1 1 4,4 l -9,9 4.89,4.9 c 6.58,6.57 1.05,18.65 1.05,18.65 l -7.74,-7.75 c 0,0 5.39,-3 1.87,-6.57 L 130.58,46 c -1.63,1.49 -6.64,6.59 -2.92,10.3 l -25,25 H 159.9 A 53.49,53.49 0 0 0 114.1,0 Z"
       style="fill:#ffbc00" />
    <g
       id="catchphrase_letters"
       style="display:inline">
      <path
         id="catchphrase_letter_a"
         d="M 32.44,119.53 H 25.26 L 23,113.41 H 12 l -2.28,6.12 H 3 L 13.77,91.71 h 7.7 z M 21.34,108.59 17.6,97.31 13.69,108.59 Z"
         style="fill:#1c1c1c" />
      <path
         id="catchphrase_letter_n"
         d="M 53.91,111.54 V 91.71 H 60 v 27.82 H 52.11 L 51.88,119.09 41.74,99.86 v 19.67 H 35.59 V 91.71 h 8.14 z"
         style="fill:#1c1c1c" />
      <path
         id="catchphrase_letter_a2"
         d="m 104.26,119.53 h -7.18 l -2.23,-6.12 H 83.79 l -2.27,6.12 h -6.7 L 85.59,91.71 h 7.7 z M 93.17,108.59 89.41,97.31 85.5,108.59 Z"
         style="fill:#1c1c1c" />
      <path
         id="catchphrase_letter_r"
         d="m 113.64,108.22 v 11.31 h -6.55 V 91.71 h 10.65 c 3.27,0 5.78,0.62 7.51,1.82 a 6.37,6.37 0 0 1 2.58,5.61 6.94,6.94 0 0 1 -1.34,4.14 6.68,6.68 0 0 1 -4.28,2.48 3.87,3.87 0 0 1 2.57,2.24 c 0.55,1.17 1,2.3 1.42,3.39 l 0.17,0.36 3,7.78 h -7 l -2.8,-7.71 a 7.38,7.38 0 0 0 -1.41,-2.56 3.09,3.09 0 0 0 -2.51,-1 z m 0,-4.78 h 2.74 a 6.16,6.16 0 0 0 3.51,-0.86 2.89,2.89 0 0 0 1.29,-2.6 3,3 0 0 0 -1.25,-2.66 7,7 0 0 0 -3.75,-0.82 h -2.54 z"
         style="fill:#1c1c1c" />
      <path
         id="catchphrase_letter_p"
         d="m 139.21,109.34 v 10.19 h -6.55 V 91.71 h 8.55 c 3.74,0 6.6,0.72 8.56,2.14 1.96,1.42 3,3.6 3,6.53 a 8.19,8.19 0 0 1 -2.8,6.64 q -2.79,2.33 -7.78,2.32 z m 0,-4.85 2.23,0.07 a 5.11,5.11 0 0 0 3.45,-1.07 3.75,3.75 0 0 0 1.26,-3 3.56,3.56 0 0 0 -1.28,-2.92 5.33,5.33 0 0 0 -3.43,-1 h -2.23 z"
         style="fill:#1c1c1c" />
      <path
         id="catchphrase_letter_g"
         d="m 162.06,105.67 a 9.09,9.09 0 0 0 2.61,6.8 9.29,9.29 0 0 0 6.82,2.55 9.54,9.54 0 0 0 1.93,-0.16 8.85,8.85 0 0 0 1.34,-0.36 v -6.15 h -5 v -4.83 h 11.34 v 15 a 38.42,38.42 0 0 1 -4.21,1 29.62,29.62 0 0 1 -5.5,0.51 q -7.53,0 -11.79,-3.77 c -2.83,-2.5 -4.25,-6 -4.25,-10.59 0,-4.59 1.46,-8.12 4.37,-10.62 2.91,-2.5 6.94,-3.78 12.07,-3.78 a 32.33,32.33 0 0 1 4.89,0.33 18,18 0 0 1 3.66,1 v 0.28 l -0.44,5.1 a 13.54,13.54 0 0 0 -3.44,-1.26 17.36,17.36 0 0 0 -3.83,-0.42 11.17,11.17 0 0 0 -7.7,2.54 8.85,8.85 0 0 0 -2.87,6.83 z"
         style="fill:#1c1c1c" />
      <path
         id="catchphrase_letter_g2"
         d="m 203.76,105.67 a 9.13,9.13 0 0 0 2.6,6.8 9.3,9.3 0 0 0 6.83,2.55 9.67,9.67 0 0 0 1.93,-0.16 8.39,8.39 0 0 0 1.33,-0.36 v -6.15 h -5 v -4.83 h 11.32 v 15 a 36.83,36.83 0 0 1 -4.21,1 29.36,29.36 0 0 1 -5.49,0.51 q -7.53,0 -11.79,-3.77 c -2.83,-2.5 -4.24,-6 -4.24,-10.59 0,-4.59 1.46,-8.12 4.37,-10.62 2.91,-2.5 6.93,-3.78 12.07,-3.78 a 32.19,32.19 0 0 1 4.88,0.33 17.5,17.5 0 0 1 3.65,1 v 0.28 l -0.44,5.1 a 13.2,13.2 0 0 0 -3.43,-1.26 17.4,17.4 0 0 0 -3.82,-0.42 11.21,11.21 0 0 0 -7.71,2.54 8.81,8.81 0 0 0 -2.85,6.83 z"
         style="fill:#1c1c1c" />
      <path
         id="catchphrase_letter_a3"
         d="M 255.15,119.53 H 248 l -2.24,-6.12 h -11 l -2.28,6.12 h -6.7 l 10.77,-27.82 h 7.71 z m -11.1,-10.94 -3.74,-11.28 -3.91,11.28 z"
         style="fill:#1c1c1c" />
      <path
         id="catchphrase_letter_m"
         d="m 281.48,91.71 h 9.85 v 27.82 H 285 l 0.07,-22.07 -7.46,21.63 h -5.82 l -7.32,-21.66 0.09,22.1 h -6.34 V 91.71 h 10.13 l 6.46,19.4 z"
         style="fill:#1c1c1c" />
      <path
         id="catchphrase_letter_e"
         d="M 315.35,119.53 H 296.92 V 91.71 h 18.21 v 4.79 h -11.66 v 6.34 h 10.8 v 4.79 h -10.8 v 7.06 h 11.88 z"
         style="fill:#1c1c1c" />
      <path
         id="catchphrase_letter_e2"
         d="M 350.38,119.53 H 332 V 91.71 h 18.19 V 96.5 H 338.5 v 6.34 h 10.82 v 4.79 H 338.5 v 7.06 h 11.88 z"
         style="fill:#1c1c1c" />
      <path
         id="catchphrase_letter_n2"
         d="M 373.72,111.54 V 91.71 h 6.15 v 27.82 h -7.93 l -0.26,-0.44 -10.13,-19.23 v 19.67 h -6.14 V 91.71 h 8.15 z"
         style="fill:#1c1c1c" />
      <path
         id="catchphrase_letter_g3"
         d="m 391.16,105.67 a 9.13,9.13 0 0 0 2.6,6.8 9.29,9.29 0 0 0 6.82,2.55 9.71,9.71 0 0 0 1.94,-0.16 7.7,7.7 0 0 0 1.32,-0.36 v -6.15 h -5 v -4.83 h 11.34 v 15 a 36.83,36.83 0 0 1 -4.21,1 29.33,29.33 0 0 1 -5.48,0.51 q -7.53,0 -11.8,-3.77 c -2.83,-2.5 -4.24,-6 -4.24,-10.59 0,-4.59 1.45,-8.12 4.36,-10.62 2.91,-2.5 6.94,-3.78 12.08,-3.78 a 32.43,32.43 0 0 1 4.89,0.33 17.29,17.29 0 0 1 3.63,1 v 0.28 L 409,97.9 a 13.41,13.41 0 0 0 -3.44,-1.26 17.27,17.27 0 0 0 -3.82,-0.42 11.2,11.2 0 0 0 -7.74,2.54 8.81,8.81 0 0 0 -2.84,6.91 z"
         style="fill:#1c1c1c" />
      <path
         id="catchphrase_letter_i"
         d="m 422.24,119.53 h -6.55 V 91.71 h 6.55 z"
         style="fill:#1c1c1c" />
      <path
         id="catchphrase_letter_n-2"
         data-name="catchphrase_letter_n"
         d="M 446.25,111.54 V 91.71 h 6.15 v 27.82 h -7.94 l -0.24,-0.44 -10.13,-19.23 v 19.67 H 428 V 91.71 h 8.13 z"
         style="fill:#1c1c1c" />
      <path
         id="catchphrase_letter_e-2"
         data-name="catchphrase_letter_e"
         d="M 476.51,119.53 H 458.08 V 91.71 h 18.2 v 4.79 h -11.65 v 6.34 h 10.79 v 4.79 h -10.79 v 7.06 h 11.88 z"
         style="fill:#1c1c1c" />
    </g>
  </g>
</svg>
