<?xml version="1.0" encoding="UTF-8" standalone="no"?>
<!-- Generator: Adobe Illustrator 13.0.0, SVG Export Plug-In . SVG Version: 6.00 Build 14948)  -->

<svg
   version="1.1"
   id="Layer_2"
   x="0px"
   y="0px"
   width="341.86234"
   height="100.99953"
   viewBox="0 0 341.86233 100.99954"
   enable-background="new 0 0 1897.3 456.5"
   xml:space="preserve"
   sodipodi:docname="ti99.svg"
   inkscape:version="1.2.1 (9c6d41e410, 2022-07-14)"
   xmlns:inkscape="http://www.inkscape.org/namespaces/inkscape"
   xmlns:sodipodi="http://sodipodi.sourceforge.net/DTD/sodipodi-0.dtd"
   xmlns="http://www.w3.org/2000/svg"
   xmlns:svg="http://www.w3.org/2000/svg"><defs
     id="defs8589" /><sodipodi:namedview
     pagecolor="#ffffff"
     bordercolor="#666666"
     borderopacity="1"
     objecttolerance="10"
     gridtolerance="10"
     guidetolerance="10"
     inkscape:pageopacity="0"
     inkscape:pageshadow="2"
     inkscape:window-width="1920"
     inkscape:window-height="1017"
     id="namedview8587"
     showgrid="false"
     inkscape:zoom="3.3870163"
     inkscape:cx="194.86177"
     inkscape:cy="43.991521"
     inkscape:window-x="-8"
     inkscape:window-y="-8"
     inkscape:window-maximized="1"
     inkscape:current-layer="Layer_2"
     inkscape:showpageshadow="0"
     inkscape:pagecheckerboard="1"
     inkscape:deskcolor="#d1d1d1" /><polygon
     fill="#919191"
     points="290.225,85.766 222.537,85.766 223.087,24.132 429.453,24.132 429.453,85.766 359.013,85.766 359.013,266.818 290.225,266.818 "
     id="polygon8542"
     style="fill:#ffffff;fill-opacity:1;stroke:#000000;stroke-width:4.23955;stroke-dasharray:none;stroke-opacity:1"
     transform="matrix(0.2358741,0,0,0.2358741,-51.986233,-3.3360205)" /><polygon
     fill="#919191"
     points="516.402,267.368 447.613,267.368 448.714,24.132 516.402,24.132 "
     id="polygon8544"
     style="fill:#ffffff;fill-opacity:1;stroke:#000000;stroke-width:4.23955;stroke-dasharray:none;stroke-opacity:1"
     transform="matrix(0.2358741,0,0,0.2358741,-51.986233,-3.3360205)" /><rect
     x="74.751984"
     y="23.384268"
     fill="#919191"
     width="14.408134"
     height="11.292944"
     id="rect8546"
     style="fill:#ffffff;fill-opacity:1;stroke:#000000;stroke-width:1;stroke-dasharray:none;stroke-opacity:1" /><path
     fill="#919191"
     d="m 92.845654,47.089616 16.825136,-1.979219 c 0.44273,2.19929 1.19045,3.751577 2.2434,4.656862 1.05223,0.905757 2.3401,1.358163 3.86338,1.358163 2.71396,0 4.83282,-1.280796 6.3561,-3.841917 1.10743,-1.888172 1.93817,-5.885295 2.49271,-11.991132 -2.02214,1.940301 -4.09925,3.363329 -6.23155,4.26885 -2.13301,0.905756 -4.59766,1.358163 -7.39466,1.358163 -5.45647,0 -10.0605,-1.81057 -13.813254,-5.432888 -3.753228,-3.621611 -5.629135,-8.200871 -5.629135,-13.737544 0,-3.776816 0.955526,-7.217983 2.866578,-10.322558 1.911052,-3.104575 4.541756,-5.4524658 7.893291,-7.0434366 3.35059,-1.5912067 7.56094,-2.3865741 12.62917,-2.3865741 6.09263,0 10.98112,0.9767546 14.66476,2.9297922 3.68294,1.9537451 6.62618,5.0580842 8.82806,9.3134885 2.20165,4.255877 3.30248,9.876285 3.30248,16.86146 0,10.270902 -2.31275,17.792927 -6.93777,22.566075 -4.62573,4.772913 -11.03702,7.159723 -19.23459,7.159723 -4.84697,0 -8.66884,-0.524112 -11.46584,-1.571629 -2.7977,-1.047753 -5.124125,-2.580699 -6.979274,-4.598602 -1.855858,-2.017667 -3.281717,-4.540104 -4.278992,-7.567077 z M 124.0032,21.710271 c 0,-3.078393 -0.83074,-5.491149 -2.49248,-7.237561 -1.66173,-1.746176 -3.68388,-2.619382 -6.06526,-2.619382 -2.2434,0 -4.10634,0.789471 -5.58762,2.367233 -1.482,1.578233 -2.22241,3.945466 -2.22241,7.101461 0,3.182178 0.76848,5.614275 2.30567,7.295586 1.53695,1.682018 3.45461,2.522438 5.75391,2.522438 2.38162,0 4.36202,-0.814945 5.94073,-2.444835 1.57823,-1.629655 2.36746,-3.957968 2.36746,-6.98494 z"
     id="path8548"
     style="fill:#ffffff;fill-opacity:1;stroke:#000000;stroke-width:1;stroke-dasharray:none;stroke-opacity:1" /><path
     fill="#919191"
     d="m 145.3399,47.089616 16.8249,-1.979219 c 0.4425,2.19929 1.19046,3.751577 2.2434,4.656862 1.052,0.905757 2.34011,1.358163 3.86338,1.358163 2.71397,0 4.83283,-1.280796 6.35634,-3.841917 1.10743,-1.888172 1.93841,-5.885295 2.49248,-11.991132 -2.02191,1.940301 -4.09902,3.363329 -6.23132,4.26885 -2.13301,0.905756 -4.59789,1.358163 -7.39489,1.358163 -5.45624,0 -10.0605,-1.81057 -13.81302,-5.432888 -3.75323,-3.621611 -5.62914,-8.200871 -5.62914,-13.737544 0,-3.776816 0.95553,-7.217983 2.86634,-10.322558 1.91106,-3.104575 4.542,-5.4524658 7.89329,-7.0434366 3.3506,-1.5912067 7.56071,-2.3865741 12.62918,-2.3865741 6.09239,0 10.98111,0.9767546 14.66476,2.9297922 3.68317,1.9537451 6.62618,5.0580842 8.82806,9.3134885 2.20188,4.255877 3.30271,9.876285 3.30271,16.86146 0,10.270902 -2.31298,17.792927 -6.93753,22.566075 -4.62573,4.772913 -11.03726,7.159723 -19.23482,7.159723 -4.84675,0 -8.66885,-0.524112 -11.46584,-1.571629 -2.79771,-1.047753 -5.12413,-2.580699 -6.97928,-4.598602 -1.85586,-2.017667 -3.28196,-4.540104 -4.279,-7.567077 z m 31.15732,-25.379345 c 0,-3.078393 -0.83075,-5.491149 -2.49224,-7.237561 -1.66197,-1.746176 -3.68389,-2.619382 -6.06527,-2.619382 -2.2434,0 -4.10633,0.789471 -5.58762,2.367233 -1.482,1.578233 -2.22264,3.945466 -2.22264,7.101461 0,3.182178 0.76847,5.614275 2.30567,7.295586 1.53719,1.682018 3.45461,2.522438 5.75367,2.522438 2.38162,0 4.36202,-0.814945 5.94073,-2.444835 1.57847,-1.629655 2.3677,-3.957968 2.3677,-6.98494 z"
     id="path8550"
     style="fill:#ffffff;fill-opacity:1;stroke:#000000;stroke-width:1;stroke-dasharray:none;stroke-opacity:1" /><polygon
     fill="#919191"
     points="1055.8,273.972 1025.989,273.972 1132.198,23.581 1165.862,23.581 "
     id="polygon8554"
     style="fill:#ffffff;fill-opacity:1;stroke:#000000;stroke-width:4.23955;stroke-dasharray:none;stroke-opacity:1"
     transform="matrix(0.2358741,0,0,0.2358741,-51.986233,-3.3360205)" /><path
     id="path8556"
     style="fill:#ffffff;fill-opacity:1;stroke:#000000;stroke-width:1;stroke-dasharray:none;stroke-opacity:1"
     d="m 245.13143,0.5 -31.90429,35.427734 v 15.69336 h 30.82422 v 10.632812 h 18.64257 V 51.621094 h 7.64453 v -16.15625 h -7.64453 V 0.5 Z m 1.73438,3.8945312 H 258.7994 V 39.359375 h 7.64453 v 8.367187 l -7.64453,0.002 V 58.361328 H 247.94589 V 47.728516 H 217.12167 V 37.421875 Z" /><path
     id="path10072"
     style="fill:#ffffff;fill-opacity:1;stroke:#000000;stroke-width:1;stroke-dasharray:none;stroke-opacity:1"
     d="m 247.94589,14.474609 -22.63868,24.884766 h 22.64063 z m -3.89453,10.066407 v 10.923828 h -9.9375 z" /><path
     fill="#919191"
     d="m 317.11758,62.254906 -3.04655,-9.391563 h -18.52414 l -2.968,9.391563 h -23.5242 L 293.51177,1.4699143 h 23.15882 l 24.45166,60.7849917 z m -0.2163,-13.285373 3.04726,9.390855 h 15.40918 L 314.03942,5.3641957 H 296.14271 L 274.81945,58.360388 h 14.9063 l 2.96871,-9.390855 c 7.82113,0.164446 24.20682,0 24.20682,0 z M 300.88849,36.667755 h 8.00486 l -4.0233,-12.239507 z m 3.96104,-24.769611 -9.32245,28.663893 v 0 h 18.74468 z"
     id="path8558"
     style="fill:#ffffff;fill-opacity:1;stroke:#000000;stroke-width:1;stroke-dasharray:none;stroke-opacity:1"
     sodipodi:nodetypes="ccccccccccccccccccccccccccc" /><path
     fill="#919191"
     d="m 35.031496,86.625418 4.004435,0.40075 c -0.437546,2.126405 -1.557477,3.790968 -3.359555,4.993926 -1.802314,1.202722 -4.01552,1.80373 -6.639856,1.80373 -3.288085,0 -5.93129,-0.827919 -7.929379,-2.483755 -1.998562,-1.656072 -2.997488,-4.029201 -2.997488,-7.120331 0,-1.998561 0.429762,-3.747568 1.289523,-5.246312 0.859761,-1.49898 2.167919,-2.623392 3.925181,-3.373 1.756791,-0.749607 3.668314,-1.124411 5.734807,-1.124411 2.60924,0 4.743193,0.508308 6.402331,1.525397 1.658903,1.016854 2.722223,2.460639 3.189725,4.331121 l -3.959146,0.470804 c -0.377163,-1.243292 -1.044451,-2.179005 -2.0021,-2.806194 -0.957884,-0.627661 -2.115083,-0.941137 -3.472538,-0.941137 -2.051397,0 -3.718084,0.566333 -4.999588,1.699472 -1.282211,1.132904 -1.923081,2.925311 -1.923081,5.376986 0,2.487057 0.618226,4.293852 1.85515,5.420859 1.236452,1.127242 2.850538,1.690745 4.841316,1.690745 1.598282,0 2.933094,-0.377634 4.004198,-1.132903 1.070633,-0.754797 1.749243,-1.917184 2.036065,-3.485747 z"
     id="path8564"
     style="fill:#ffffff;fill-opacity:1;stroke:#000000;stroke-width:1;stroke-dasharray:none;stroke-opacity:1" /><path
     fill="#919191"
     d="m 41.004065,84.150155 c 0,-3.427722 1.236452,-5.966907 3.710063,-7.616846 2.066022,-1.371137 4.584685,-2.057059 7.556227,-2.057059 3.302945,0 6.002288,0.834051 8.098737,2.501209 2.096213,1.667394 3.144674,3.971413 3.144674,6.911112 0,2.382328 -0.463729,4.256112 -1.391186,5.621351 -0.927457,1.365475 -2.2776,2.425729 -4.049486,3.180998 -1.772358,0.755269 -3.706526,1.132904 -5.802739,1.132904 -3.363565,0 -6.082014,-0.830513 -8.155819,-2.492482 -2.073805,-1.661497 -3.110471,-4.054912 -3.110471,-7.181187 z m 4.185114,0 c 0,2.370535 0.670826,4.145723 2.013421,5.324858 1.342124,1.179606 3.031454,1.769291 5.067519,1.769291 2.020734,0 3.70228,-0.592751 5.044875,-1.778019 1.342124,-1.185031 2.013422,-2.992063 2.013422,-5.420622 0,-2.289158 -0.675072,-4.023305 -2.024744,-5.203147 -1.349907,-1.179135 -3.027915,-1.769056 -5.033553,-1.769056 -2.036065,0 -3.725395,0.586855 -5.067519,1.760564 -1.342595,1.173946 -2.013421,2.945832 -2.013421,5.316131 z"
     id="path8566"
     style="fill:#ffffff;fill-opacity:1;stroke:#000000;stroke-width:1;stroke-dasharray:none;stroke-opacity:1" /><path
     fill="#919191"
     d="M 68.28715,93.405855 V 74.894927 h 3.642368 v 2.59721 c 0.753853,-0.906464 1.75679,-1.635551 3.00881,-2.187497 1.251784,-0.551945 2.676935,-0.828154 4.27569,-0.828154 1.779434,0 3.238551,0.284936 4.377823,0.8541 1.138564,0.569401 1.94148,1.365476 2.409218,2.38799 1.900202,-2.161315 4.373578,-3.24209 7.420127,-3.24209 2.383036,0 4.215306,0.508309 5.497282,1.525398 1.281742,1.016853 1.923082,2.582586 1.923082,4.697197 V 93.405855 H 96.792063 V 81.744711 c 0,-1.25485 -0.132325,-2.158248 -0.396032,-2.710194 -0.263944,-0.551945 -0.743004,-0.996332 -1.436474,-1.333396 -0.693941,-0.337064 -1.508415,-0.505478 -2.443184,-0.505478 -1.68933,0 -3.091837,0.433065 -4.207758,1.298487 -1.116156,0.865894 -1.673998,2.251654 -1.673998,4.157281 V 93.405855 H 82.562486 V 81.37887 c 0,-1.394252 -0.331874,-2.440117 -0.995388,-3.137125 -0.66375,-0.69748 -1.749714,-1.046102 -3.257658,-1.046102 -1.146348,0 -2.205894,0.232336 -3.178639,0.697008 -0.972745,0.465144 -1.678008,1.144933 -2.115319,2.039367 -0.437546,0.895143 -0.656202,2.184902 -0.656202,3.869515 v 9.604086 h -4.07213 z"
     id="path8568"
     style="fill:#ffffff;fill-opacity:1;stroke:#000000;stroke-width:1;stroke-dasharray:none;stroke-opacity:1" /><path
     fill="#919191"
     d="M 106.88181,100.5 V 74.894927 h 3.7103 v 2.405208 c 0.87439,-0.941137 1.86246,-1.647109 2.96352,-2.117913 1.10059,-0.470569 2.4354,-0.705972 4.0042,-0.705972 2.05093,0 3.86079,0.407119 5.42959,1.220177 1.56833,0.81353 2.75218,1.960822 3.55179,3.442583 0.79914,1.481525 1.19895,3.105754 1.19895,4.871743 0,1.894069 -0.44109,3.599439 -1.32326,5.115638 -0.8824,1.516434 -2.16438,2.678586 -3.84592,3.485983 -1.68178,0.807633 -3.4499,1.21145 -5.30505,1.21145 -1.35745,0 -2.57551,-0.221015 -3.65369,-0.662571 -1.07841,-0.44132 -1.96459,-0.998927 -2.6583,-1.673291 v 9.011568 h -4.07213 z m 3.68766,-16.245117 c 0,2.382328 0.62577,4.142657 1.87779,5.281457 1.25155,1.139036 2.76728,1.7082 4.54718,1.7082 1.80986,0 3.35956,-0.589685 4.64908,-1.769291 1.28952,-1.179135 1.93417,-3.006452 1.93417,-5.481714 0,-2.358741 -0.62979,-4.124731 -1.88912,-5.298912 -1.25933,-1.173474 -2.76373,-1.760329 -4.51321,-1.760329 -1.73462,0 -3.26898,0.624595 -4.60379,1.873548 -1.33458,1.249426 -2.0021,3.065184 -2.0021,5.447041 z"
     id="path8570"
     style="fill:#ffffff;fill-opacity:1;stroke:#000000;stroke-width:1;stroke-dasharray:none;stroke-opacity:1" /><path
     fill="#919191"
     d="m 148.39495,93.405855 v -2.718921 c -1.87025,2.091496 -4.41156,3.137361 -7.62369,3.137361 -1.41784,0 -2.74133,-0.20922 -3.97047,-0.627425 -1.22938,-0.418205 -2.14174,-0.943968 -2.73732,-1.577526 -0.59582,-0.633322 -1.01449,-1.409112 -1.25556,-2.326898 -0.16629,-0.615631 -0.24884,-1.591914 -0.24884,-2.928377 V 74.895163 h 4.07213 v 10.266184 c 0,1.638382 0.0828,2.742508 0.24884,3.311908 0.25616,0.825088 0.79938,1.472798 1.62895,1.943131 0.82933,0.470805 1.85515,0.705971 3.07674,0.705971 1.22159,0 2.36771,-0.240827 3.43857,-0.72319 1.07087,-0.482126 1.8285,-1.138564 2.2736,-1.969784 0.44462,-0.830513 0.66752,-2.036301 0.66752,-3.616658 v -9.917798 h 4.07213 v 18.510928 z"
     id="path8572"
     style="fill:#ffffff;fill-opacity:1;stroke:#000000;stroke-width:1;stroke-dasharray:none;stroke-opacity:1" /><path
     fill="#919191"
     d="m 167.3078,90.599425 0.58827,2.77152 c -1.14635,0.185633 -2.17169,0.279039 -3.0765,0.279039 -1.47846,0 -2.62434,-0.180679 -3.43881,-0.540387 -0.81447,-0.359944 -1.38765,-0.833815 -1.71929,-1.42067 -0.33187,-0.586383 -0.49746,-1.82142 -0.49746,-3.703695 V 77.33528 h -2.98663 v -2.440117 h 2.9864 v -4.584449 l 4.04925,-1.882275 v 6.466724 h 4.09477 v 2.440117 h -4.09477 v 10.824499 c 0,0.894906 0.0715,1.469967 0.21488,1.725419 0.14294,0.255687 0.37669,0.459011 0.70149,0.60997 0.32409,0.151196 0.78782,0.226675 1.39118,0.226675 0.45241,-2.36e-4 1.04823,-0.04081 1.78722,-0.122418 z"
     id="path8574"
     style="fill:#ffffff;fill-opacity:1;stroke:#000000;stroke-width:1;stroke-dasharray:none;stroke-opacity:1" /><path
     fill="#919191"
     d="m 187.73615,87.444608 4.20823,0.400751 c -0.66398,1.894304 -1.89312,3.364272 -3.68765,4.409902 -1.79501,1.046101 -4.08723,1.568563 -6.87739,1.568563 -3.51428,0 -6.30043,-0.83358 -8.35914,-2.501209 -2.05847,-1.666923 -3.08806,-4.00585 -3.08806,-7.015368 0,-3.11401 1.04067,-5.531248 3.12203,-7.251006 2.08111,-1.719522 4.78117,-2.579991 8.09921,-2.579991 3.21237,0 5.83647,0.842779 7.87277,2.527391 2.03606,1.685085 3.05409,4.05562 3.05409,7.111605 0,0.186104 -0.008,0.464907 -0.0229,0.836645 h -17.91746 c 0.15096,2.033706 0.89726,3.590711 2.23986,4.671487 1.34188,1.080775 3.01612,1.620926 5.02223,1.620926 1.49332,0 2.76751,-0.301918 3.82328,-0.906464 1.0553,-0.603837 1.89242,-1.568563 2.51088,-2.893232 z M 174.3661,82.372372 h 13.41557 c -0.18138,-1.557005 -0.69417,-2.724818 -1.5386,-3.503674 -1.29731,-1.208383 -2.97862,-1.812692 -5.04488,-1.812692 -1.87024,0 -3.44258,0.482126 -4.71677,1.446615 -1.27467,0.964961 -1.97946,2.254957 -2.11532,3.869751 z"
     id="path8576"
     style="fill:#ffffff;fill-opacity:1;stroke:#000000;stroke-width:1;stroke-dasharray:none;stroke-opacity:1" /><path
     fill="#919191"
     d="M 197.01166,93.405855 V 74.894927 h 3.66502 v 2.805958 c 0.935,-1.312875 1.79854,-2.178769 2.59013,-2.596974 0.79159,-0.41844 1.66291,-0.627661 2.61301,-0.627661 1.37208,0 2.76728,0.3373 4.18512,1.011193 l -1.40251,2.910686 c -0.99539,-0.453114 -1.99078,-0.679789 -2.98617,-0.679789 -0.89019,0 -1.68933,0.20639 -2.39813,0.618698 -0.70927,0.412779 -1.21404,0.98501 -1.51573,1.716927 -0.4524,1.115449 -0.67884,2.335626 -0.67884,3.66053 v 9.691124 h -4.0719 z"
     id="path8578"
     style="fill:#ffffff;fill-opacity:1;stroke:#000000;stroke-width:1;stroke-dasharray:none;stroke-opacity:1" /></svg>
