<?xml version="1.0" encoding="UTF-8" standalone="no"?>
<!-- Generator: Adobe Illustrator 13.0.0, SVG Export Plug-In . SVG Version: 6.00 Build 14948)  -->

<svg
   version="1.2"
   id="Ebene_1"
   x="0px"
   y="0px"
   width="491.03146"
   height="100"
   viewBox="0 0 491.03148 99.999997"
   xml:space="preserve"
   sodipodi:docname="pspminis.svg"
   inkscape:version="1.2.1 (9c6d41e410, 2022-07-14)"
   xmlns:inkscape="http://www.inkscape.org/namespaces/inkscape"
   xmlns:sodipodi="http://sodipodi.sourceforge.net/DTD/sodipodi-0.dtd"
   xmlns="http://www.w3.org/2000/svg"
   xmlns:svg="http://www.w3.org/2000/svg"><defs
     id="defs16050" /><sodipodi:namedview
     id="namedview16048"
     pagecolor="#505050"
     bordercolor="#ffffff"
     borderopacity="1"
     inkscape:showpageshadow="0"
     inkscape:pageopacity="0"
     inkscape:pagecheckerboard="1"
     inkscape:deskcolor="#505050"
     showgrid="false"
     inkscape:zoom="0.84309467"
     inkscape:cx="344.56391"
     inkscape:cy="53.374789"
     inkscape:window-width="1920"
     inkscape:window-height="1017"
     inkscape:window-x="-8"
     inkscape:window-y="-8"
     inkscape:window-maximized="1"
     inkscape:current-layer="Ebene_1" /><g
     id="g31028"><path
       style="fill:#ffffff;stroke:#000000;stroke-width:2.29885;stroke-dasharray:none;stroke-opacity:1"
       d="m 338.92418,38.314174 c -1.37084,-1.370839 -0.84591,-18.234552 0.61302,-19.693483 2.18209,-2.182093 20.98751,-1.836794 23.25123,0.426931 2.2217,2.221689 2.54921,16.531253 0.42693,18.653529 -1.47041,1.470414 -22.89316,2.011046 -24.29118,0.613023 z"
       id="path31008" /><path
       style="fill:#ffffff;stroke:#000000;stroke-width:2.29885;stroke-dasharray:none;stroke-opacity:1"
       d="m 189.00087,37.739542 c -1.86679,-1.866793 -1.89769,-17.259553 -0.0384,-19.118851 1.57663,-1.576633 20.14651,-1.907449 22.52081,-0.401184 1.06985,0.678712 1.39192,3.652931 1.14942,10.614575 l -0.3369,9.671667 -10.93862,0.325747 c -7.52608,0.224115 -11.38091,-0.11654 -12.35632,-1.091954 z"
       id="path31006" /><path
       style="fill:#ffffff;stroke:#000000;stroke-width:2.29885;stroke-dasharray:none;stroke-opacity:1"
       d="m 374.9395,90.370625 c 0,-5.40238 0.52144,-8.898633 1.43678,-9.63361 0.79023,-0.634517 7.12644,-1.384735 14.08046,-1.667138 23.6915,-0.962126 28.53588,-6.411046 29.69276,-33.398151 0.74101,-17.285564 4.23484,-27.4503 12.04392,-35.039863 9.31896,-9.0569782 10.92539,-9.482438 35.80374,-9.482438 h 21.88487 v 9.195403 9.195403 l -6.03448,0.02276 c -9.47841,0.03575 -21.68647,2.136242 -26.79829,4.610828 -7.84148,3.795989 -9.92138,9.00284 -10.97681,27.479427 -1.223,21.410173 -3.92163,29.229806 -13.33671,38.644875 -7.50279,7.502794 -12.0115,8.552444 -36.73663,8.552444 H 374.9395 Z"
       id="path31004" /><path
       style="fill:#ffffff;stroke:#000000;stroke-width:2.29885;stroke-dasharray:none;stroke-opacity:1"
       d="m 338.42444,71.551727 0.30816,-27.298851 11.32462,-0.330403 c 7.36276,-0.214804 11.88661,0.136023 12.93104,1.002816 1.28994,1.070552 1.60641,6.513667 1.60641,27.629243 v 26.296043 h -13.23919 -13.2392 z"
       id="path31002" /><path
       style="fill:#ffffff;stroke:#000000;stroke-width:2.29885;stroke-dasharray:none;stroke-opacity:1"
       d="m 226.90685,73.275865 c 0.39103,-23.021139 0.67631,-26.103265 2.85706,-30.868265 3.11207,-6.799943 13.16732,-16.938472 20.21316,-20.380565 11.74375,-5.737149 37.55199,-6.172827 49.61593,-0.837574 7.45028,3.294862 15.78614,10.705816 19.85888,17.655403 4.81763,8.220678 6.02468,16.014598 6.04438,39.028703 l 0.0179,20.977008 H 312.9618 300.4094 l -0.37864,-20.977008 c -0.35516,-19.676265 -0.55683,-21.33338 -3.25221,-26.724139 -2.37715,-4.754299 -3.96566,-6.286805 -9.1954,-8.87115 -10.27118,-5.075656 -20.09329,-3.971644 -28.63892,3.219034 -6.38332,5.371208 -7.30244,9.149288 -7.87639,32.376255 l -0.51836,20.977008 h -12.03853 -12.03854 z"
       id="path31000" /><path
       style="fill:#ffffff;stroke:#000000;stroke-width:2.29885;stroke-dasharray:none;stroke-opacity:1"
       d="m 187.84972,71.551727 0.30816,-27.298851 h 12.06897 12.06896 l 0.30817,27.298851 0.30816,27.298848 h -12.68529 -12.68529 z"
       id="path30998" /><path
       style="fill:#ffffff;stroke:#000000;stroke-width:2.29885;stroke-dasharray:none;stroke-opacity:1"
       d="M 1.7080249,75.000003 C 2.000979,61.882187 2.8558411,48.730451 3.6077262,45.773922 5.6100251,37.900485 16.417015,26.472116 26.461625,21.605978 c 7.559311,-3.662138 7.920771,-3.717655 24.339933,-3.738322 16.270574,-0.02046 16.844218,0.06345 24.13793,3.532184 4.109196,1.954242 8.738518,4.596242 10.287392,5.871127 l 2.816126,2.317954 6.379276,-4.303897 c 9.707808,-6.549563 13.478838,-7.425897 31.666628,-7.358966 14.79777,0.05448 16.61686,0.298621 22.61861,3.035794 7.37256,3.362356 15.9984,10.794253 20.15426,17.364621 4.47047,7.067747 6.03556,17.433679 6.05776,40.121806 l 0.02,20.402296 H 162.29586 149.65218 V 80.39405 c 0,-27.018565 -2.19675,-33.483025 -13.10402,-38.56183 -12.70982,-5.918115 -27.0152,-1.590299 -32.90506,9.954782 -2.01481,3.949345 -2.26678,6.81207 -2.26678,25.753415 V 98.850575 H 88.157926 74.939534 L 74.889075,78.448279 C 74.821948,51.285887 73.382328,47.2796 61.721133,41.802335 50.491385,36.527737 36.852373,39.9046 30.473281,49.538956 27.249166,54.408347 27.237062,54.49875 26.845246,76.637613 L 26.452108,98.850575 H 13.813727 1.1753812 Z"
       id="path23693" /></g></svg>
