<?xml version="1.0" encoding="UTF-8" standalone="no"?>
<!-- Generator: Adobe Illustrator 16.0.0, SVG Export Plug-In . SVG Version: 6.00 Build 0)  -->

<svg
   version="1.1"
   id="Ebene_1"
   x="0px"
   y="0px"
   width="292.7179"
   height="100"
   viewBox="0 1 292.7179 100"
   enable-background="new 0 0 566.93 202.382"
   xml:space="preserve"
   sodipodi:docname="sg-1000.svg"
   inkscape:version="1.2.1 (9c6d41e410, 2022-07-14)"
   xmlns:inkscape="http://www.inkscape.org/namespaces/inkscape"
   xmlns:sodipodi="http://sodipodi.sourceforge.net/DTD/sodipodi-0.dtd"
   xmlns="http://www.w3.org/2000/svg"
   xmlns:svg="http://www.w3.org/2000/svg"><defs
     id="defs46564" /><sodipodi:namedview
     id="namedview46562"
     pagecolor="#505050"
     bordercolor="#ffffff"
     borderopacity="1"
     inkscape:showpageshadow="0"
     inkscape:pageopacity="0"
     inkscape:pagecheckerboard="1"
     inkscape:deskcolor="#505050"
     showgrid="false"
     inkscape:zoom="2.1766356"
     inkscape:cx="202.37655"
     inkscape:cy="-16.539287"
     inkscape:window-width="1920"
     inkscape:window-height="1017"
     inkscape:window-x="-8"
     inkscape:window-y="-8"
     inkscape:window-maximized="1"
     inkscape:current-layer="Ebene_1" /><g
     id="g46559"
     transform="matrix(0.54194372,0,0,0.54194372,-7.2625878,1.0010839)">
	<path
   fill="#17569b"
   d="m 126.595,99.044 h 39.796 c 16.265,0 29.501,-13.238 29.501,-29.5 0,-16.261 -13.236,-29.42 -29.501,-29.42 h -10.376 c -0.817,0 -1.475,-0.652 -1.475,-1.471 0,-0.898 0.654,-1.551 1.475,-1.551 h 39.716 l 0.082,-12.423 h -39.798 c -7.684,0 -13.895,6.212 -13.895,13.894 0,7.764 6.209,14.056 13.895,14.056 h 10.376 c 9.315,0 16.918,7.602 16.918,16.917 0,9.317 -7.603,16.834 -16.918,16.834 h -39.796 z"
   id="path46521" />
	<path
   fill="#17569b"
   d="m 126.595,83.518 h 39.796 c 7.765,0 13.977,-6.292 13.977,-13.974 0,-7.682 -6.211,-13.974 -13.977,-13.974 h -10.376 c -9.315,0 -16.835,-7.682 -16.835,-16.998 0,-9.317 7.521,-16.834 16.835,-16.834 h 39.796 L 195.729,9.153 h -39.718 c -16.262,0 -29.419,13.156 -29.419,29.5 0,16.262 13.156,29.42 29.419,29.42 h 10.297 c 0.815,0 1.472,0.654 1.472,1.471 0,0.817 -0.655,1.471 -1.472,1.471 h -39.717 z"
   id="path46523" />
	<path
   fill="#17569b"
   d="m 226.701,86.459 c -6.862,0 -12.5,-5.475 -12.5,-12.503 V 33.994 c 0,-6.7 5.639,-12.339 12.5,-12.339 h 42.495 V 9.153 h -42.495 c -13.809,0 -25.005,11.196 -25.005,25.007 v 39.796 c 0,13.812 11.194,25.008 25.005,25.008 h 42.333 V 86.461 Z"
   id="path46525" />
	<path
   fill="#17569b"
   d="m 217.222,34.158 c 0,-5.23 4.249,-9.562 9.479,-9.562 h 42.495 V 37.1 h -36.609 c -2.943,0 -2.943,2.94 -2.943,2.94 h 30.562 V 52.544 H 217.223 V 34.158 Z"
   id="path46527" />
	<path
   fill="#17569b"
   d="m 226.701,83.438 c -5.229,0 -9.479,-4.25 -9.479,-9.48 v -18.39 h 42.982 V 68.07 h -30.562 c 0,2.942 2.94,2.942 2.94,2.942 h 36.447 v 12.423 z"
   id="path46529" />
	<path
   fill="#17569b"
   d="m 299.024,86.459 c -6.946,0 -12.586,-5.64 -12.586,-12.503 V 34.16 c 0,-6.866 5.642,-12.505 12.506,-12.505 h 41.188 V 9.153 h -41.271 c -13.812,0 -25.005,11.196 -25.005,25.007 v 39.796 c 0,13.812 11.273,25.008 25.088,25.008 h 41.188 v -58.92 h -35.388 v 12.502 h 22.884 V 86.46 Z"
   id="path46531" />
	<path
   fill="#17569b"
   d="m 289.378,73.956 c 0,5.23 4.334,9.563 9.563,9.563 h 25.741 V 55.488 h -19.938 v 12.585 h 7.438 v 2.942 h -7.354 c -1.637,0 -2.942,-1.387 -2.942,-2.942 V 40.042 c 0,0 0,-2.943 2.942,-2.943 H 340.13 V 24.595 h -41.188 c -5.229,0 -9.563,4.332 -9.563,9.563 z"
   id="path46533" />
	<path
   fill="#17569b"
   d="m 378.783,24.436 c 0.57,-1.634 2.043,-2.778 3.843,-2.778 1.797,0 3.271,1.146 3.844,2.778 l 19.938,59.166 H 377.237 V 69.708 h 9.809 l -4.414,-13.159 -14.386,42.414 h -14.709 z"
   id="path46535" />
	<path
   fill="#17569b"
   d="m 410.492,86.459 h -33.261 v 12.503 h 50.585 L 401.504,20.92 c -2.291,-7.6 -9.892,-13.239 -18.882,-13.239 -8.985,0 -16.586,5.558 -18.877,13.239 l -26.562,78.042 h 13.241 l 25.737,-75.917 c 1.063,-2.534 3.515,-4.25 6.455,-4.25 2.862,0 5.316,1.716 6.377,4.25 z"
   id="path46537" />
	<path
   fill="#17569b"
   d="m 420.461,19.531 c 2.612,0 5.065,-0.982 6.862,-2.862 1.879,-1.878 2.855,-4.33 2.855,-6.945 0,-2.616 -0.979,-5.065 -2.855,-6.866 -1.797,-1.878 -4.25,-2.86 -6.862,-2.86 -5.395,0 -9.811,4.332 -9.811,9.726 0,2.615 1.063,5.065 2.856,6.945 1.887,1.882 4.338,2.862 6.955,2.862 z m -8.42,-9.806 c 0,-2.207 0.903,-4.332 2.455,-5.967 1.55,-1.552 3.677,-2.452 5.966,-2.452 2.207,0 4.332,0.898 5.969,2.452 1.553,1.635 2.451,3.759 2.451,5.967 0,4.656 -3.761,8.417 -8.416,8.417 -2.289,0 -4.418,-0.818 -5.968,-2.452 -1.554,-1.554 -2.457,-3.677 -2.457,-5.965 z"
   id="path46539" />
	<path
   fill="#17569b"
   d="m 417.926,10.541 v 4.656 h -1.392 V 4.329 h 4.011 c 1.467,0 2.362,0 3.268,0.653 0.734,0.572 1.145,1.472 1.145,2.535 0,2.533 -2.043,2.86 -2.612,2.943 l 3.021,4.738 h -1.717 l -2.941,-4.656 z m 0,-1.144 h 2.858 c 0.49,0 0.896,0 1.31,-0.164 1.062,-0.245 1.391,-0.98 1.391,-1.716 0,-0.247 -0.082,-1.063 -0.654,-1.554 -0.569,-0.489 -1.307,-0.409 -2.125,-0.409 h -2.778 z"
   id="path46541" />
	<g
   id="g46557">
		<path
   fill="#ff0000"
   d="m 13.401,144.643 v -10.875 c 0,-9.667 4.833,-14.5 14.5,-14.5 h 65.25 v 14.5 h -65.25 v 10.875 h 50.75 c 9.667,0 14.5,4.833 14.5,14.501 v 10.875 c 0,9.667 -4.833,14.5 -14.5,14.5 h -65.25 v -14.5 h 65.25 v -10.875 h -50.75 c -9.667,0 -14.5,-4.833 -14.5,-14.501 z"
   id="path46543" />
		<path
   fill="#ff0000"
   d="m 100.401,170.019 v -36.251 c 0,-9.667 4.833,-14.5 14.5,-14.5 h 65.25 v 14.5 h -65.25 v 36.251 h 50.75 v -10.875 h -29 v -14.501 h 43.5 v 39.876 h -65.25 c -9.667,0 -14.5,-4.833 -14.5,-14.5 z"
   id="path46545" />
		<path
   fill="#ff0000"
   d="m 187.402,159.144 v -14.501 h 25.375 v 14.501 z"
   id="path46547" />
		<path
   fill="#ff0000"
   d="m 220.027,184.519 v -14.5 h 21.75 v -36.251 h -21.75 v -14.5 h 39.875 v 50.751 h 21.751 v 14.5 z"
   id="path46549" />
		<path
   fill="#ff0000"
   d="m 372.277,170.019 c 0,9.667 -4.834,14.5 -14.5,14.5 h -54.375 c -9.669,0 -14.5,-4.833 -14.5,-14.5 v -36.251 c 0,-9.667 4.831,-14.5 14.5,-14.5 h 54.375 c 9.666,0 14.5,4.833 14.5,14.5 z m -14.5,0 v -36.251 h -54.375 v 36.251 z"
   id="path46551" />
		<path
   fill="#ff0000"
   d="m 462.902,170.019 c 0,9.667 -4.834,14.5 -14.5,14.5 h -54.375 c -9.667,0 -14.5,-4.833 -14.5,-14.5 v -36.251 c 0,-9.667 4.833,-14.5 14.5,-14.5 h 54.375 c 9.666,0 14.5,4.833 14.5,14.5 z m -14.5,0 v -36.251 h -54.375 v 36.251 z"
   id="path46553" />
		<path
   fill="#ff0000"
   d="m 553.527,170.019 c 0,9.667 -4.833,14.5 -14.5,14.5 h -54.375 c -9.667,0 -14.5,-4.833 -14.5,-14.5 v -36.251 c 0,-9.667 4.833,-14.5 14.5,-14.5 h 54.375 c 9.667,0 14.5,4.833 14.5,14.5 z m -14.5,0 v -36.251 h -54.375 v 36.251 z"
   id="path46555" />
	</g>
</g></svg>
