<?xml version="1.0" encoding="UTF-8" standalone="no"?>
<svg
   width="422.31757"
   height="100"
   version="1.1"
   id="svg2030"
   sodipodi:docname="sufami.svg"
   inkscape:version="1.2.1 (9c6d41e410, 2022-07-14)"
   xmlns:inkscape="http://www.inkscape.org/namespaces/inkscape"
   xmlns:sodipodi="http://sodipodi.sourceforge.net/DTD/sodipodi-0.dtd"
   xmlns="http://www.w3.org/2000/svg"
   xmlns:svg="http://www.w3.org/2000/svg">
  <defs
     id="defs2034" />
  <sodipodi:namedview
     id="namedview2032"
     pagecolor="#505050"
     bordercolor="#ffffff"
     borderopacity="1"
     inkscape:showpageshadow="0"
     inkscape:pageopacity="0"
     inkscape:pagecheckerboard="1"
     inkscape:deskcolor="#505050"
     showgrid="false"
     inkscape:zoom="2.099107"
     inkscape:cx="251.29733"
     inkscape:cy="50.974056"
     inkscape:window-width="1920"
     inkscape:window-height="1017"
     inkscape:window-x="-8"
     inkscape:window-y="-8"
     inkscape:window-maximized="1"
     inkscape:current-layer="svg2030" />
  <g
     id="g5489"
     transform="matrix(0.75701926,0,0,0.75701926,-11.355078,-11.355289)">
    <g
       style="fill:#2930b4"
       id="g2018">
      <path
         d="M 100.841,53.151 V 47.67 h 10.038 c 8.331,0 10.185,-0.075 10.887,-0.441 l 1.33,-0.447 c 0.26,0 1.352,-0.462 2.42,-1.017 2.436,-1.266 7.62,-6.333 7.62,-7.44 l 0.606,-2.25 c 0.405,-1.017 0.582,-2.043 0.522,-3.045 l -0.09,-1.509 -15.405,-0.075 c -14.06,-0.069 -15.438,-0.12 -15.774,-0.576 -0.26,-0.351 -0.372,-1.899 -0.372,-5.166 0,-3.843 0.081,-4.743 0.465,-5.124 0.411,-0.417 2.631,-0.465 19.962,-0.465 16.587,0 19.548,0.06 19.848,0.426 0.261,0.312 0.327,2.634 0.255,8.826 -0.08,7.404 -0.156,8.496 -0.612,9.192 l -0.525,1.317 -0.74,2.013 -0.733,2.025 c 0,0.297 1.098,1.719 2.445,3.162 4.458,4.785 6.441,7.098 6.441,7.533 l 0.372,0.672 1.086,1.047 0.375,1.557 -0.342,0.741 h -10.008 l -2.124,-2.235 c -1.167,-1.233 -2.268,-2.556 -2.445,-2.94 -0.426,-0.936 -1.266,-1.113 -2.058,-0.42 l -0.95,0.561 -0.78,0.432 -4.86,2.529 -1.513,0.591 -2.145,0.771 -1.143,0.45 c -0.09,0.144 -5.064,0.261 -11.106,0.261 h -10.947 z"
         id="path2012" />
      <path
         d="m 149.057,43.908 c -1.077,-0.171 -1.146,-0.561 -1.047,-5.865 l 0.084,-4.443 17.592,-0.081 c 12.75,-0.054 17.71,0.021 18,0.261 0.312,0.255 0.405,1.404 0.405,4.854 0,3.843 -0.075,4.578 -0.492,4.923 -0.402,0.336 -3.498,0.417 -17.112,0.441 -9.135,0.021 -16.98,-0.021 -17.43,-0.09 z m 245.172,0 -0.987,-0.927 0.13,-9.162 c 0.188,-0.291 4.088,-0.372 17.837,-0.372 17.097,0 17.61,0.015 17.91,0.576 l -0.114,9.369 c -0.405,0.555 -0.957,0.576 -17.259,0.612 -9.255,0.018 -17.142,-0.021 -17.517,-0.096 z M 189.76,58.164 c -0.358,-0.927 -0.202,-10.656 0.173,-11.031 0.267,-0.261 3.33,-0.357 11.973,-0.357 9.468,0 11.778,-0.075 12.46,-0.42 0.461,-0.231 1.838,-0.732 3.06,-1.113 2.798,-0.867 4.622,-2.1 5.855,-3.963 l 0.966,-1.464 -0.075,-4.593 -0.08,-4.593 -18.6,-0.075 -18.6,-0.075 -0.286,-0.756 c -0.159,-0.417 -0.29,-2.484 -0.29,-4.59 0,-3.441 0.06,-3.897 0.596,-4.428 0.582,-0.582 0.987,-0.591 22.938,-0.591 19.917,0 22.398,0.051 22.812,0.465 0.402,0.405 0.462,1.773 0.462,10.536 0,9.492 -0.036,10.185 -0.636,12.054 a 38.718,38.718 0 0 1 -2.274,5.625 c -0.627,1.248 -5.445,5.982 -6.087,5.982 l -0.48,0.276 c 0,0.612 -3.057,2.055 -5.775,2.724 l -1.467,0.576 c -0.165,0.165 -5.577,0.276 -13.374,0.276 -11.67,0.003 -13.113,-0.048 -13.272,-0.465 z m 49.616,0.057 c -0.23,-0.276 -0.315,-1.779 -0.26,-4.653 l 0.083,-4.242 0.741,-0.204 c 0.405,-0.111 3.06,-0.216 5.895,-0.234 l 5.16,-0.03 0.987,-1.107 c 0.912,-1.023 0.993,-1.272 0.993,-3.057 0,-3.051 -0.36,-2.91 7.746,-3.012 6.528,-0.075 7.053,-0.126 7.665,-0.675 l 1.023,-2.556 c -0.17,-0.531 -0.807,-0.555 -15.834,-0.555 -8.61,0 -15.87,-0.081 -16.125,-0.18 V 29.19 c 0.255,-0.099 9.228,-0.18 19.938,-0.18 14.748,0 19.557,0.084 19.827,0.357 0.495,0.495 0.465,12.039 -0.039,13.866 -0.846,3.06 -2.19,4.71 -5.1,6.267 l -1.764,0.948 -5.556,0.126 -5.556,0.12 v 1.509 c 0,2.559 -1.314,4.629 -3.723,5.85 -1.047,0.537 -1.764,0.585 -8.45,0.585 -5.872,-0.006 -7.375,-0.087 -7.65,-0.417 z m 89.241,-24.633 -45.546,-3.987 -1.422,-1.557 V 21.36 l 1.422,-1.311 45.546,3.981 1.428,1.563 v 6.684 z m 0,12.561 -45.546,-3.99 -1.422,-1.557 v -6.687 l 1.422,-1.308 45.546,3.981 1.428,1.563 v 6.684 z m 0,12.558 -45.547,-3.987 -1.422,-1.56 v -6.687 l 1.422,-1.311 45.546,3.987 1.428,1.563 v 6.681 z M 377.922,21.81 h -34.398 c 0.045,0.822 -0.606,3.318 -2.382,5.817 a 10.485,10.485 0 0 1 -3.963,3.321 v 10.947 c 0.837,-0.018 7.146,-0.255 11.148,-5.535 2.8,-3.696 2.83,-7.695 2.787,-8.967 H 377.6 c -0.006,0.921 -0.012,1.974 -0.012,3.168 0,1.173 0,2.112 -0.006,2.886 -0.012,2.127 -26.469,1.653 -26.469,1.653 l -0.039,6.948 c 0,0 24.294,-0.297 24.873,0.693 0.303,0.519 -0.47,1.974 -1.068,2.622 -2.27,2.466 -3.276,2.244 -5.223,2.802 -2.3,0.657 -5,0.552 -15.54,0.615 -11.463,0.075 -13.335,0.144 -13.563,0.531 l 0.075,10.179 c 0.192,0.09 7,0.129 15.13,0.09 16.517,-0.069 14.942,0.114 19.847,-2.343 1.878,-0.942 2.748,-1.623 4.725,-3.723 2.28,-2.424 3.177,-4.488 4.098,-6.657 0.606,-1.869 0.495,-1.647 0.576,-12.729 0.075,-9.873 0.024,-12.204 -0.276,-12.408 z m 87.687,12.678 h 18.936 c 0.561,0 1.02,-0.459 1.02,-1.02 V 26.28 a 1.023,1.023 0 0 0 -1.02,-1.02 h -18.936 v -5.145 a 1.083,1.083 0 0 0 -1.08,-1.08 h -10.824 a 1.083,1.083 0 0 0 -1.08,1.08 v 5.145 h -18.402 a 1.023,1.023 0 0 0 -1.02,1.02 v 7.188 c 0,0.561 0.46,1.02 1.02,1.02 h 18.402 v 25.209 c 0,0.594 0.486,1.08 1.08,1.08 h 10.824 c 0.594,0 1.08,-0.486 1.08,-1.08 z"
         id="path2014" />
      <path
         d="m 438.806,37.524 c 0,0 8.49,0.159 8.484,0 l -0.162,11.877 c 0,5.898 -6.516,11.229 -15.672,11.229 0,0 -1.704,-6.57 -1.05,-10.905 0,0 4.527,0.45 6.516,-1.32 2.586,-2.301 1.884,-10.881 1.884,-10.881 z m 41.127,0 c 0,0 -8.49,0.159 -8.484,0 l 0.162,11.877 c 0,5.898 6.516,11.229 15.672,11.229 0,0 1.704,-6.57 1.05,-10.905 0,0 -4.527,0.45 -6.516,-1.32 -2.586,-2.301 -1.884,-10.881 -1.884,-10.881 z m -6.495,-14.088 h -2.36 a 3.012,3.012 0 0 1 -3.004,-3.003 3.012,3.012 0 0 1 3.003,-3.003 h 2.361 a 3.012,3.012 0 0 1 3.003,3.003 3.01,3.01 0 0 1 -3.003,3.003 z m 10.098,0 h -2.36 a 3.012,3.012 0 0 1 -3.004,-3.003 3.012,3.012 0 0 1 3.003,-3.003 h 2.361 a 3.012,3.012 0 0 1 3.003,3.003 3.01,3.01 0 0 1 -3.003,3.003 z"
         id="path2016" />
    </g>
    <g
       style="fill:#cb4414"
       id="g2026">
      <path
         d="M 99.386,50.721 V 45.24 h 10.038 c 8.331,0 10.185,-0.075 10.887,-0.441 l 1.33,-0.447 c 0.26,0 1.352,-0.462 2.42,-1.017 2.436,-1.266 7.62,-6.333 7.62,-7.44 l 0.606,-2.25 c 0.405,-1.017 0.582,-2.043 0.522,-3.045 l -0.09,-1.509 -15.405,-0.075 c -14.06,-0.069 -15.438,-0.12 -15.774,-0.576 -0.26,-0.351 -0.372,-1.899 -0.372,-5.166 0,-3.843 0.081,-4.743 0.465,-5.124 0.411,-0.417 2.631,-0.465 19.962,-0.465 16.587,0 19.548,0.06 19.848,0.426 0.261,0.312 0.327,2.634 0.255,8.826 -0.08,7.404 -0.156,8.496 -0.612,9.192 l -0.525,1.317 -0.74,2.013 -0.733,2.025 c 0,0.297 1.098,1.719 2.445,3.162 4.458,4.785 6.441,7.098 6.441,7.533 l 0.372,0.672 1.086,1.047 0.375,1.557 -0.342,0.741 h -10.008 l -2.124,-2.235 c -1.167,-1.233 -2.268,-2.556 -2.445,-2.94 -0.426,-0.936 -1.266,-1.113 -2.058,-0.42 l -0.95,0.561 -0.78,0.432 -4.86,2.529 -1.513,0.591 -2.145,0.771 -1.143,0.45 c -0.09,0.144 -5.064,0.261 -11.106,0.261 H 99.386 Z"
         id="path2020" />
      <path
         d="m 147.602,41.481 c -1.077,-0.171 -1.146,-0.561 -1.047,-5.865 l 0.084,-4.443 17.595,-0.081 c 12.75,-0.054 17.71,0.021 18,0.261 0.312,0.255 0.405,1.404 0.405,4.854 0,3.843 -0.075,4.578 -0.492,4.923 -0.402,0.336 -3.498,0.417 -17.112,0.441 -9.135,0.018 -16.98,-0.021 -17.433,-0.09 z m 245.175,0 -0.987,-0.927 0.13,-9.162 c 0.188,-0.291 4.088,-0.372 17.837,-0.372 17.097,0 17.61,0.015 17.91,0.576 l -0.114,9.369 c -0.405,0.555 -0.957,0.576 -17.259,0.612 -9.258,0.018 -17.142,-0.021 -17.517,-0.096 z M 188.303,55.737 c -0.357,-0.927 -0.2,-10.656 0.174,-11.031 0.267,-0.261 3.33,-0.357 11.973,-0.357 9.468,0 11.778,-0.075 12.46,-0.42 0.461,-0.231 1.838,-0.732 3.06,-1.113 2.798,-0.867 4.622,-2.1 5.855,-3.963 l 0.966,-1.464 -0.075,-4.593 -0.08,-4.593 -18.6,-0.075 -18.6,-0.075 -0.286,-0.756 c -0.159,-0.417 -0.29,-2.484 -0.29,-4.59 0,-3.441 0.06,-3.897 0.596,-4.428 0.582,-0.582 0.987,-0.591 22.938,-0.591 19.917,0 22.398,0.051 22.812,0.465 0.402,0.405 0.462,1.773 0.462,10.536 0,9.492 -0.036,10.185 -0.636,12.054 a 38.718,38.718 0 0 1 -2.274,5.625 c -0.627,1.248 -5.445,5.982 -6.087,5.982 l -0.48,0.276 c 0,0.612 -3.057,2.055 -5.775,2.724 l -1.467,0.576 c -0.165,0.165 -5.577,0.276 -13.374,0.276 -11.67,0 -13.11,-0.048 -13.272,-0.465 z m 49.62,0.054 c -0.23,-0.276 -0.315,-1.779 -0.26,-4.653 l 0.083,-4.242 0.741,-0.204 c 0.405,-0.111 3.06,-0.216 5.895,-0.234 l 5.16,-0.03 0.987,-1.107 c 0.912,-1.023 0.993,-1.272 0.993,-3.057 0,-3.051 -0.36,-2.91 7.746,-3.012 6.528,-0.075 7.053,-0.126 7.665,-0.675 l 1.023,-2.556 c -0.17,-0.531 -0.807,-0.555 -15.834,-0.555 -8.61,0 -15.87,-0.081 -16.125,-0.18 V 26.76 c 0.255,-0.099 9.228,-0.18 19.938,-0.18 14.748,0 19.557,0.084 19.827,0.357 0.495,0.495 0.465,12.039 -0.039,13.866 -0.846,3.06 -2.19,4.71 -5.1,6.267 l -1.764,0.948 -5.556,0.126 -5.556,0.12 v 1.509 c 0,2.559 -1.314,4.629 -3.723,5.85 -1.047,0.537 -1.764,0.585 -8.45,0.585 -5.872,-0.006 -7.375,-0.087 -7.65,-0.417 z m 89.241,-24.63 -45.549,-3.99 -1.422,-1.557 v -6.681 l 1.422,-1.314 45.55,3.984 1.424,1.563 v 6.681 z m 0,12.558 -45.549,-3.987 -1.422,-1.56 v -6.687 l 1.422,-1.308 45.55,3.984 1.424,1.563 v 6.681 z m 0,12.558 -45.549,-3.987 -1.422,-1.557 v -6.69 l 1.422,-1.311 45.55,3.987 1.424,1.563 v 6.684 z m 49.302,-36.894 h -34.398 c 0.045,0.822 -0.606,3.318 -2.382,5.817 a 10.485,10.485 0 0 1 -3.963,3.321 v 10.947 c 0.837,-0.018 7.146,-0.255 11.148,-5.535 2.8,-3.696 2.83,-7.695 2.787,-8.967 h 26.487 c -0.006,0.921 -0.012,1.974 -0.012,3.168 0,1.173 0,2.112 -0.006,2.886 -0.012,2.127 -26.469,1.653 -26.469,1.653 l -0.039,6.948 c 0,0 24.294,-0.297 24.873,0.693 0.303,0.519 -0.47,1.974 -1.068,2.622 -2.27,2.466 -3.276,2.244 -5.223,2.802 -2.3,0.657 -5,0.552 -15.54,0.615 -11.463,0.075 -13.335,0.144 -13.563,0.531 l 0.075,10.179 c 0.192,0.09 7,0.129 15.13,0.09 16.517,-0.069 14.942,0.114 19.847,-2.343 1.878,-0.942 2.748,-1.623 4.725,-3.723 2.28,-2.424 3.177,-4.488 4.098,-6.657 0.606,-1.869 0.495,-1.647 0.576,-12.729 0.075,-9.873 0.024,-12.204 -0.276,-12.408 z m 87.687,12.675 h 18.936 c 0.561,0 1.02,-0.459 1.02,-1.02 V 23.85 a 1.023,1.023 0 0 0 -1.02,-1.02 h -18.936 v -5.145 a 1.083,1.083 0 0 0 -1.08,-1.08 H 452.25 a 1.083,1.083 0 0 0 -1.08,1.08 v 5.145 h -18.402 a 1.023,1.023 0 0 0 -1.02,1.02 v 7.188 c 0,0.561 0.46,1.02 1.02,1.02 h 18.402 v 25.209 c 0,0.594 0.486,1.08 1.08,1.08 h 10.824 c 0.594,0 1.08,-0.486 1.08,-1.08 z"
         id="path2022" />
      <path
         d="m 437.354,35.094 c 0,0 8.49,0.159 8.484,0 l -0.162,11.877 c 0,5.898 -6.516,11.229 -15.672,11.229 0,0 -1.704,-6.57 -1.05,-10.905 0,0 4.527,0.45 6.516,-1.32 2.586,-2.298 1.884,-10.881 1.884,-10.881 z m 41.124,0 c 0,0 -8.49,0.159 -8.484,0 l 0.162,11.877 c 0,5.898 6.516,11.229 15.672,11.229 0,0 1.704,-6.57 1.05,-10.905 0,0 -4.527,0.45 -6.516,-1.32 -2.586,-2.298 -1.884,-10.881 -1.884,-10.881 z m -6.492,-14.088 h -2.36 A 3.012,3.012 0 0 1 466.622,18.003 3.012,3.012 0 0 1 469.625,15 h 2.361 a 3.012,3.012 0 0 1 3.003,3.003 3.01,3.01 0 0 1 -3.003,3.003 z m 10.098,0 h -2.36 A 3.012,3.012 0 0 1 476.72,18.003 3.012,3.012 0 0 1 479.723,15 h 2.361 a 3.012,3.012 0 0 1 3.003,3.003 3.01,3.01 0 0 1 -3.003,3.003 z"
         id="path2024" />
    </g>
    <path
       d="m 98.43,40.561 c -1.61,6.729 -4.768,10.094 -9.476,10.094 -4.51,0 -5.992,-3.237 -4.444,-9.709 L 88.016,26.29 h 2.939 l -3.31,13.837 c -1.125,4.701 -0.338,7.052 2.362,7.052 2.6,0 4.443,-2.267 5.528,-6.801 l 3.37,-14.087 h 2.938 z m 16.322,-10.895 h -6.617 l -1.723,7.202 h 6.098 l -0.803,3.358 h -6.098 l -2.399,10.027 h -2.939 l 5.733,-23.963 h 9.556 z m 11.756,20.587 h -3.223 l -0.133,-6.099 h -6.963 l -2.99,6.099 h -3.21 L 122.351,26.29 h 3.31 z m -3.359,-9.342 -0.169,-9.558 c 0,-0.311 0.042,-0.813 0.125,-1.503 h -0.05 a 15.595,15.595 0 0 1 -0.606,1.503 l -4.719,9.558 z m 24.803,9.342 h -2.913 l 3.71,-15.508 a 86.02,86.02 0 0 1 1.287,-4.662 h -0.049 c -0.432,1.047 -0.771,1.799 -1.022,2.256 l -9.569,17.914 h -2.025 l -1.043,-17.78 c -0.023,-0.524 0.011,-1.32 0.102,-2.389 h -0.049 c -0.163,0.958 -0.505,2.523 -1.024,4.696 l -3.702,15.474 h -2.717 l 5.733,-23.963 h 4.136 l 0.838,15.959 c 0.061,1.225 0.073,2.139 0.035,2.74 h 0.062 a 66.386,66.386 0 0 1 1.412,-2.807 l 8.543,-15.892 h 3.988 z m 7.372,0 h -3.026 l 5.733,-23.963 h 3.026 z m 29.48,-20.587 h -5.092 l -4.931,20.587 h -2.942 l 4.931,-20.587 h -5.081 l 0.809,-3.376 h 13.114 z m 13.62,10.895 c -1.612,6.729 -4.774,10.094 -9.488,10.094 -4.517,0 -5.998,-3.237 -4.448,-9.709 l 3.51,-14.656 h 2.942 l -3.314,13.837 c -1.126,4.701 -0.337,7.052 2.364,7.052 2.605,0 4.45,-2.267 5.536,-6.801 L 198.9,26.291 h 2.942 z m 15.542,9.692 h -3.437 l -1.294,-6.417 a 11.3,11.3 0 0 0 -0.386,-1.513 4.08,4.08 0 0 0 -0.496,-1.027 1.676,1.676 0 0 0 -0.681,-0.584 c -0.267,-0.123 -0.587,-0.184 -0.959,-0.184 h -1.187 l -2.329,9.725 h -2.929 l 5.74,-23.963 h 5.835 c 0.832,0 1.566,0.134 2.202,0.401 a 3.564,3.564 0 0 1 1.54,1.211 c 0.389,0.541 0.635,1.214 0.734,2.022 0.099,0.808 0.019,1.753 -0.24,2.832 a 10.904,10.904 0 0 1 -0.836,2.332 9.163,9.163 0 0 1 -1.244,1.888 7.997,7.997 0 0 1 -1.575,1.412 7.245,7.245 0 0 1 -1.842,0.903 l -0.016,0.067 c 0.263,0.245 0.478,0.515 0.648,0.81 0.167,0.295 0.32,0.599 0.461,0.911 0.141,0.311 0.267,0.665 0.383,1.061 0.114,0.396 0.238,0.855 0.368,1.379 z m -5.801,-20.738 -1.865,7.787 h 2.449 c 0.453,0 0.894,-0.095 1.322,-0.285 a 4.04,4.04 0 0 0 1.193,-0.818 c 0.365,-0.357 0.687,-0.791 0.966,-1.304 a 6.99,6.99 0 0 0 0.648,-1.721 c 0.275,-1.147 0.22,-2.044 -0.16,-2.691 -0.38,-0.646 -1.074,-0.969 -2.079,-0.969 h -2.474 z m 7.863,20.738 5.74,-23.963 h 5.624 c 1.715,0 2.95,0.508 3.71,1.521 0.758,1.014 0.943,2.334 0.554,3.96 -0.326,1.36 -0.895,2.54 -1.703,3.543 -0.808,1.003 -1.767,1.716 -2.873,2.139 l -0.016,0.067 c 1.175,0.19 2.002,0.8 2.487,1.83 0.482,1.031 0.525,2.37 0.13,4.019 -0.491,2.05 -1.486,3.709 -2.985,4.98 -1.499,1.27 -3.16,1.905 -4.98,1.905 h -5.688 z m 7.904,-20.771 -1.633,6.818 h 1.905 c 1.022,0 1.9,-0.326 2.637,-0.977 0.737,-0.652 1.248,-1.573 1.534,-2.765 0.491,-2.05 -0.277,-3.075 -2.303,-3.075 h -2.14 z m -2.397,10.009 -1.817,7.587 h 2.509 c 1.097,0 2.025,-0.342 2.787,-1.027 0.762,-0.685 1.287,-1.63 1.575,-2.832 0.595,-2.484 -0.38,-3.727 -2.927,-3.727 h -2.127 z m 16.995,11.163 c -2.555,0 -4.332,-1.12 -5.334,-3.359 -0.999,-2.239 -1.07,-5.153 -0.211,-8.739 0.923,-3.854 2.443,-6.93 4.558,-9.225 2.115,-2.295 4.516,-3.442 7.203,-3.442 2.488,0 4.227,1.114 5.212,3.342 0.987,2.228 1.05,5.141 0.188,8.739 -0.937,3.911 -2.456,7.002 -4.557,9.275 -2.103,2.273 -4.456,3.409 -7.059,3.409 z m 5.231,-21.273 c -1.623,0 -3.14,0.819 -4.55,2.456 -1.41,1.638 -2.436,3.794 -3.076,6.468 -0.638,2.662 -0.656,4.807 -0.057,6.433 0.598,1.627 1.699,2.44 3.297,2.44 1.697,0 3.221,-0.774 4.574,-2.323 1.351,-1.548 2.361,-3.715 3.028,-6.5 0.686,-2.863 0.739,-5.074 0.16,-6.635 -0.577,-1.559 -1.703,-2.339 -3.376,-2.339 z M 84.911,28.43 c -0.018,0.097 -0.045,0.21 -0.079,0.338 a 4.274,4.274 0 0 1 -0.137,0.403 c -0.056,0.14 -0.117,0.287 -0.186,0.439 a 2.823,2.823 0 0 1 -0.227,0.402 1.386,1.386 0 0 1 -0.259,0.284 0.446,0.446 0 0 1 -0.28,0.11 c -0.134,0 -0.301,-0.079 -0.507,-0.237 a 5.832,5.832 0 0 0 -0.809,-0.504 8.097,8.097 0 0 0 -1.215,-0.503 c -0.475,-0.158 -1.043,-0.238 -1.703,-0.238 -0.734,0 -1.396,0.113 -1.988,0.338 a 5.109,5.109 0 0 0 -1.554,0.915 4.942,4.942 0 0 0 -1.629,2.826 c -0.097,0.537 -0.065,1.006 0.096,1.409 0.162,0.403 0.4,0.768 0.719,1.097 0.319,0.328 0.694,0.64 1.127,0.933 0.434,0.292 0.876,0.592 1.325,0.896 0.448,0.306 0.888,0.632 1.318,0.979 0.427,0.348 0.791,0.75 1.086,1.208 0.296,0.457 0.505,0.982 0.632,1.573 0.127,0.592 0.122,1.278 -0.02,2.058 a 7.983,7.983 0 0 1 -1.159,2.918 9.238,9.238 0 0 1 -2.225,2.378 c -0.896,0.677 -1.928,1.213 -3.091,1.609 -1.164,0.397 -2.42,0.595 -3.764,0.595 a 9.744,9.744 0 0 1 -3.626,-0.667 7.06,7.06 0 0 1 -1.173,-0.585 c -0.311,-0.202 -0.531,-0.381 -0.657,-0.54 -0.129,-0.159 -0.164,-0.391 -0.108,-0.696 0.013,-0.073 0.041,-0.176 0.082,-0.31 0.042,-0.135 0.097,-0.281 0.161,-0.44 0.066,-0.158 0.131,-0.314 0.203,-0.466 0.069,-0.153 0.15,-0.292 0.239,-0.42 0.089,-0.128 0.18,-0.232 0.27,-0.311 a 0.46,0.46 0 0 1 0.302,-0.119 c 0.193,0 0.414,0.097 0.667,0.292 0.252,0.195 0.573,0.406 0.957,0.632 a 8.31,8.31 0 0 0 1.408,0.631 c 0.553,0.195 1.225,0.293 2.018,0.293 a 7.18,7.18 0 0 0 2.316,-0.357 6.198,6.198 0 0 0 1.843,-0.969 5.45,5.45 0 0 0 1.295,-1.436 5.05,5.05 0 0 0 0.678,-1.757 c 0.1,-0.549 0.072,-1.027 -0.081,-1.436 a 3.24,3.24 0 0 0 -0.7,-1.107 6.168,6.168 0 0 0 -1.121,-0.915 c -0.436,-0.28 -0.876,-0.572 -1.319,-0.878 -0.441,-0.304 -0.873,-0.63 -1.29,-0.978 a 5.136,5.136 0 0 1 -1.06,-1.208 4.797,4.797 0 0 1 -0.623,-1.573 c -0.128,-0.591 -0.12,-1.284 0.023,-2.076 a 7.637,7.637 0 0 1 1.05,-2.707 8.68,8.68 0 0 1 1.986,-2.214 9.49,9.49 0 0 1 2.757,-1.5 c 1.039,-0.365 2.158,-0.548 3.36,-0.548 0.576,0 1.117,0.049 1.62,0.147 0.506,0.097 0.955,0.216 1.35,0.356 0.395,0.14 0.727,0.293 0.996,0.457 0.27,0.165 0.451,0.302 0.539,0.412 0.088,0.11 0.146,0.222 0.173,0.339 0.027,0.114 0.025,0.257 -0.006,0.428 z"
       style="fill:#1e2881"
       transform="matrix(3,0,0,3,-179.377,-4.872)"
       id="path2028" />
  </g>
</svg>
