<?xml version="1.0" encoding="UTF-8" standalone="no"?>
<!-- Generator: Adobe Illustrator 25.1.0, SVG Export Plug-In . SVG Version: 6.00 Build 0)  -->

<svg
   width="437.85687"
   height="100"
   version="1.1"
   viewBox="0 0 437.85686 100"
   xml:space="preserve"
   id="svg10371"
   sodipodi:docname="atari7800.svg"
   inkscape:version="1.2.1 (9c6d41e410, 2022-07-14)"
   xmlns:inkscape="http://www.inkscape.org/namespaces/inkscape"
   xmlns:sodipodi="http://sodipodi.sourceforge.net/DTD/sodipodi-0.dtd"
   xmlns="http://www.w3.org/2000/svg"
   xmlns:svg="http://www.w3.org/2000/svg"><defs
   id="defs10375" /><sodipodi:namedview
   id="namedview10373"
   pagecolor="#505050"
   bordercolor="#ffffff"
   borderopacity="1"
   inkscape:showpageshadow="0"
   inkscape:pageopacity="0"
   inkscape:pagecheckerboard="1"
   inkscape:deskcolor="#505050"
   showgrid="false"
   inkscape:zoom="1.8400179"
   inkscape:cx="239.12811"
   inkscape:cy="68.477595"
   inkscape:window-width="1920"
   inkscape:window-height="1017"
   inkscape:window-x="-8"
   inkscape:window-y="-8"
   inkscape:window-maximized="1"
   inkscape:current-layer="svg10371" />
<style
   type="text/css"
   id="style10349">
	.st0{fill:#AD0E0E;}
	.st1{fill:#FFFFFF;}
	.st2{fill:url(#SVGID_1_);}
	.st3{fill:#606060;}
	.st4{fill:url(#SVGID_2_);}
	.st5{fill:url(#SVGID_3_);}
	.st6{fill:url(#SVGID_4_);}
</style>
<path
   id="path10351"
   style="stroke:#000000;stroke-width:0.639599;stroke-dasharray:none;stroke-opacity:1;paint-order:markers fill stroke;fill:#ad0e0e;fill-opacity:1"
   d="M 311.5332 0.3203125 C 298.0703 0.3203125 286.96172 5.8865389 279.39844 16.431641 C 273.03808 25.300276 269.53125 37.216423 269.53125 49.988281 C 269.53125 54.685786 270.15862 59.3375 271.11719 63.878906 C 267.88219 56.851968 260.56407 50.999142 250.9375 47.542969 C 262.85193 43.153442 270.87695 35.014018 270.87695 25.671875 C 270.87695 11.67146 252.90846 0.33398437 230.73047 0.33398438 C 215.43164 0.33398438 202.29548 5.7959142 195.51953 13.738281 L 200.57812 2.1113281 L 115.85938 2.1113281 L 115.85938 32.634766 L 155.16016 32.634766 L 123.7168 97.619141 L 159.02539 97.619141 L 190.73242 24.740234 C 190.71392 25.05616 190.58398 25.353107 190.58398 25.671875 C 190.58398 35.014018 198.60708 43.153442 210.52148 47.542969 C 197.40411 52.252432 188.49805 61.40237 188.49805 71.921875 C 188.49805 87.253226 207.4135 99.679688 230.73047 99.679688 C 254.06024 99.679688 272.96094 87.253226 272.96094 71.921875 C 272.96094 71.343436 272.83421 70.786319 272.78125 70.216797 C 278.19428 86.677905 290.65521 99.666016 311.5332 99.666016 C 340.54502 99.666016 353.53516 74.712964 353.53516 49.988281 C 353.53516 37.216423 350.03915 25.300276 343.66602 16.431641 C 336.10271 5.8993363 324.98332 0.3203125 311.5332 0.3203125 z M 230.73047 20.833984 C 235.26077 20.833984 238.91992 24.507885 238.91992 29.025391 C 238.91992 33.542897 235.24797 37.214844 230.73047 37.214844 C 226.20016 37.214844 222.53906 33.542897 222.53906 29.025391 C 222.53906 24.507885 226.20016 20.833984 230.73047 20.833984 z M 311.5332 29.742188 C 321.64319 29.742188 322.75586 43.31967 322.75586 49.884766 C 322.74306 56.513846 321.64319 70.257812 311.5332 70.257812 C 301.41041 70.257812 300.31055 56.513846 300.31055 49.884766 C 300.31055 43.31967 301.4232 29.742187 311.5332 29.742188 z M 230.73047 57.433594 C 236.1438 57.433594 240.53125 61.824948 240.53125 67.238281 C 240.53125 72.651616 236.1438 77.041016 230.73047 77.041016 C 225.31713 77.041016 220.92773 72.651616 220.92773 67.238281 C 220.92773 61.824948 225.31713 57.433594 230.73047 57.433594 z " /><path
   id="path5364"
   style="stroke:#000000;stroke-width:0.639599;stroke-dasharray:none;stroke-opacity:1;paint-order:markers fill stroke;fill:#ad0e0e;fill-opacity:1"
   d="M 395.53516 0.3203125 C 382.0722 0.3203125 370.96567 5.8865185 363.40234 16.431641 C 357.042 25.300294 353.53516 37.216397 353.53516 49.988281 C 353.53516 74.713012 366.52327 99.666016 395.53516 99.666016 C 424.54704 99.666016 437.53711 74.713012 437.53711 49.988281 C 437.54991 37.216397 434.05586 25.300294 427.66992 16.431641 C 420.1066 5.8993159 408.9981 0.3203125 395.53516 0.3203125 z M 395.53516 29.742188 C 405.64516 29.742188 406.75977 43.319658 406.75977 49.884766 C 406.75977 56.51386 405.64516 70.257812 395.53516 70.257812 C 385.41235 70.257812 384.3125 56.51386 384.3125 49.884766 C 384.3125 43.319658 385.42515 29.742187 395.53516 29.742188 z " /><path
   id="path10367"
   style="fill:#ffffff;fill-opacity:1;stroke:#000000;stroke-width:0.639875;stroke-dasharray:none;stroke-opacity:1"
   d="m 102.35775,59.188198 h 6.07881 v 38.430907 c -2.022,-0.0128 -4.04401,0 -6.07881,0 z m -23.982524,0.230355 c 0.550292,-0.191963 1.138978,-0.25595 1.714865,-0.243153 2.290754,0.0128 4.56871,0 6.859463,0 3.852049,0.07678 7.524933,2.457121 9.188609,5.925245 1.151775,2.252361 1.266953,4.863052 0.985407,7.33297 -0.20476,2.585096 -1.27975,5.170192 -3.263363,6.872261 -1.049396,0.934217 -2.354741,1.497308 -3.480922,2.329145 -0.61428,0.473508 -0.652672,1.382131 -0.332735,2.034804 3.033009,4.683887 6.181195,9.290988 9.278191,13.936483 h -6.795475 c -2.969021,-4.453532 -5.89965,-8.932659 -8.855873,-13.386191 -0.870231,-1.266953 -1.100586,-2.956223 -0.588685,-4.402341 0.40952,-1.113383 1.38213,-1.919626 2.45712,-2.341944 2.060399,-0.793445 4.095202,-2.022005 5.246978,-3.967226 0.87023,-1.458916 0.81904,-3.276162 0.435115,-4.87585 -0.46071,-2.073195 -2.482716,-3.711276 -4.6199,-3.647289 -1.48451,0.0128 -2.956223,-0.0128 -4.440734,0.0128 -0.66547,-0.0128 -1.305345,0.56309 -1.292548,1.241358 -0.0128,10.455562 0,20.911123 0,31.366685 H 75.099064 V 63.846489 c 0,-1.970815 1.407726,-3.826453 3.276162,-4.427936 z M 25.1632,59.188198 h 21.742961 v 5.861257 H 38.90772 v 32.56965 h -5.733282 v -32.56965 h -7.998441 c -0.0128,-1.958018 -0.02559,-3.903239 -0.0128,-5.861257 z m 28.525639,1.84284 c 1.049395,-1.510105 3.058603,-2.25236 4.837456,-1.778853 1.625284,0.371128 2.866642,1.778853 3.301757,3.352947 3.391339,11.671324 6.795475,23.342649 10.186814,35.013973 -2.009209,0.0128 -4.005619,0 -6.014828,0.0128 -0.934218,-3.224972 -1.855638,-6.449943 -2.789856,-9.674914 -3.864846,0 -7.729693,-0.0128 -11.594539,0 -0.921421,3.224971 -1.881234,6.437145 -2.802654,9.674914 h -5.963637 c 3.224971,-11.197817 6.488335,-22.395634 9.738901,-33.593451 0.30714,-1.0238 0.435115,-2.137183 1.100586,-3.007414 m -0.499103,21.435821 h 8.407961 C 60.202769,77.616605 58.782246,72.76635 57.400115,67.916096 56.005187,72.76635 54.584664,77.603807 53.189736,82.466859 Z M 11.482667,60.775088 c 1.497308,-1.906828 4.581507,-2.239563 6.424348,-0.639875 0.755052,0.627078 1.27975,1.497308 1.548498,2.444324 3.391338,11.684122 6.808272,23.355446 10.199611,35.039568 h -6.014827 c -0.947016,-3.224971 -1.868436,-6.449942 -2.802654,-9.674914 -3.877644,-0.0128 -7.74249,0 -11.6201343,0 -0.9470154,3.224972 -1.8812333,6.449943 -2.8154511,9.674914 -1.9964108,-0.0128 -3.9800241,0 -5.97643488,0 C 3.650594,86.472478 6.8755652,75.338649 10.113334,64.20482 c 0.383925,-1.177371 0.537495,-2.482716 1.369333,-3.429732 m 3.532111,7.153806 c -1.420523,4.837456 -2.815451,9.687711 -4.223176,14.525168 2.815451,0.0128 5.630902,0 8.446353,0 -1.407725,-4.837457 -2.802654,-9.674914 -4.223177,-14.525168 z" />
</svg>
