<?xml version="1.0" encoding="UTF-8" standalone="no"?>
<!-- Generator: Adobe Illustrator 24.1.0, SVG Export Plug-In . SVG Version: 6.00 Build 0)  -->

<svg
   version="1.1"
   id="Layer_1"
   x="0px"
   y="0px"
   viewBox="0 0 298.75904 100"
   enable-background="new 0 0 279.0966492 102"
   xml:space="preserve"
   sodipodi:docname="atari2600.svg"
   inkscape:version="1.2.1 (9c6d41e410, 2022-07-14)"
   width="298.75903"
   height="100"
   xmlns:inkscape="http://www.inkscape.org/namespaces/inkscape"
   xmlns:sodipodi="http://sodipodi.sourceforge.net/DTD/sodipodi-0.dtd"
   xmlns="http://www.w3.org/2000/svg"
   xmlns:svg="http://www.w3.org/2000/svg"><defs
   id="defs1133" /><sodipodi:namedview
   id="namedview1131"
   pagecolor="#505050"
   bordercolor="#ffffff"
   borderopacity="1"
   inkscape:showpageshadow="0"
   inkscape:pageopacity="0"
   inkscape:pagecheckerboard="1"
   inkscape:deskcolor="#505050"
   showgrid="false"
   inkscape:zoom="2.8147799"
   inkscape:cx="130.20556"
   inkscape:cy="63.948162"
   inkscape:window-width="1920"
   inkscape:window-height="1017"
   inkscape:window-x="-8"
   inkscape:window-y="-8"
   inkscape:window-maximized="1"
   inkscape:current-layer="Layer_1" />
<g
   id="g1128"
   style="fill:#ffffff;fill-opacity:1;stroke:#000000;stroke-opacity:1"
   transform="matrix(1.1191525,0,0,1.1191525,-7.0561423,-5.9325954)">
	<g
   id="g1106"
   style="fill:#ffffff;fill-opacity:1;stroke:#000000;stroke-opacity:1">
		<g
   id="g1104"
   style="fill:#ffffff;fill-opacity:1;stroke:#000000;stroke-opacity:1">
			<rect
   id="rect3_2_"
   x="224.42085"
   y="8.050293"
   fill="#ED1C24"
   width="13.698242"
   height="86.104004"
   style="fill:#ffffff;fill-opacity:1;stroke:#000000;stroke-opacity:1" />
			<path
   id="path5_2_"
   fill="#ED1C24"
   d="m 40.806152,5.8691406 c -4.315918,0 -7.996093,2.6738281 -9.420898,6.4946294 v 0.07129 L 6.9760742,94.154297 H 21.607422 L 27.245605,71.958008 H 54.4375 l 5.923828,22.196289 H 75.349121 L 50.29834,12.36377 H 50.22705 C 48.788086,8.5610352 45.124023,5.8691406 40.806152,5.8691406 Z M 40.663086,24.63916 50.083984,60.467773 H 31.456543 Z"
   style="fill:#ffffff;fill-opacity:1;stroke:#000000;stroke-opacity:1" />
			<path
   id="path7_2_"
   fill="#ED1C24"
   d="M 58.288933,7.7246094 V 19.286621 H 79.557487 V 94.154297 H 93.260612 V 19.286621 H 114.59997 V 7.7246094 Z"
   style="fill:#ffffff;fill-opacity:1;stroke:#000000;stroke-opacity:1" />
			<path
   id="path9_2_"
   fill="#ED1C24"
   d="m 203.44043,62.889648 c -0.39941,-0.682617 -0.64063,-1.502929 -0.64063,-2.413086 0,-0.825195 0.20997,-1.572265 0.53321,-2.21289 0.50683,-0.802735 1.41601,-1.25586 2.02344,-1.641602 7.12988,-4.335937 12.19531,-13.450683 12.19531,-24.006836 0,-14.15625 -8.90821,-25.755859 -19.95899,-26.6503902 -1.37695,-0.1806641 -4.48535,-0.1625977 -4.48535,-0.1625977 h -15.58984 0.009 c -5.40625,0 -9.80469,5.8564449 -9.80469,13.0693359 l 0.0176,0.02246 v 75.249512 h 13.31543 V 24.264648 h -0.007 c 0,-2.189941 1.33399,-3.976562 2.97266,-3.976562 h 8.98437 c 0.81348,0 3.25391,0.0625 3.73731,0.153808 v 0.0044 c 3.9707,0.437012 7.20019,4.208496 8.13672,9.200195 0.0488,0.205078 0.085,0.408203 0.11328,0.613282 0,0.01807 0,0.04004 0,0.04443 0.0518,0.305664 0.0781,0.598145 0.10547,0.894532 0.0488,0.461914 0.0557,0.93457 0.0557,1.416503 0,4.59668 -1.89844,8.617676 -4.71289,10.703125 -0.56641,0.452637 -1.16016,0.845215 -1.7793,1.184571 -0.44238,0.265136 -0.95508,0.512695 -1.49023,0.753418 -3.5957,1.690918 -5.13379,2.689941 -6.63281,4.612304 -1.68164,2.346192 -2.7461,5.518067 -2.77442,9.021973 -0.0273,3.291992 0.83399,6.300781 2.29688,8.633789 l 16.91504,26.629883 h 15.83984 l -19.37316,-31.26465"
   style="fill:#ffffff;fill-opacity:1;stroke:#000000;stroke-opacity:1" />
			<path
   id="path2852_2_"
   fill="#ED1C24"
   d="m 130.45703,5.8691406 c -4.31348,0 -7.9956,2.6738281 -9.4209,6.4946294 v 0.07129 L 96.627441,94.154297 H 111.2583 l 5.63818,-22.196289 h 27.19239 l 5.92383,22.196289 H 165 L 139.94922,12.36377 h -0.0713 c -1.44043,-3.8027348 -5.10352,-6.4946294 -9.4209,-6.4946294 z m -0.14307,18.7700194 9.42139,35.828613 h -18.62793 z"
   style="fill:#ffffff;fill-opacity:1;stroke:#000000;stroke-opacity:1" />
		</g>
	</g>
	<g
   id="g1118"
   style="fill:#ffffff;fill-opacity:1;stroke:#000000;stroke-opacity:1">
		<g
   id="g1116"
   style="fill:#ffffff;fill-opacity:1;stroke:#000000;stroke-opacity:1">
			<path
   fill="#ED1C24"
   d="m 270.11151,94.027344 c -0.49219,0 -1.63379,-0.290039 -3.72558,-2.226563 -1.78321,-1.65039 -3.55958,-3.313476 -5.33301,-4.986328 -2.00098,-1.891601 -3.54688,-2.772461 -4.86621,-2.772461 -0.80175,0 -1.54491,0.319336 -2.20995,0.952149 -0.66797,0.637695 -1.01953,1.471679 -1.01953,2.416015 0,0.993164 0.34863,1.847657 1.03906,2.536133 0.46289,0.463867 1.00586,0.773438 1.6211,0.926758 v 3.09082 c -1.38965,-0.195312 -2.5918,-0.831054 -3.65625,-1.928711 -1.30664,-1.349609 -1.94336,-2.884765 -1.94336,-4.694336 0,-1.796875 0.63281,-3.273437 1.93457,-4.513671 1.31347,-1.253907 2.80175,-1.862305 4.5449,-1.862305 1.83399,0 3.69239,0.894531 5.52637,2.65918 2.02539,1.947265 3.95801,3.827148 5.79883,5.636718 l 1.59765,1.571289 0.0791,-9.867187 h 2.84179 v 11.765625 c 0,0.203125 -0.23535,0.474609 -0.64355,0.745117 -0.55469,0.366211 -1.08692,0.551758 -1.58594,0.551758"
   id="path1108"
   style="fill:#ffffff;fill-opacity:1;stroke:#000000;stroke-opacity:1" />
			<path
   fill="#ED1C24"
   d="m 264.99725,76.025391 c -0.41699,0 -1.57812,-0.203125 -4.67968,-1.5625 -2.46094,-1.076172 -4.90429,-2.22461 -7.26171,-3.416016 -1.75586,-0.884766 -2.61523,-1.333008 -3.03711,-1.558594 V 65.93457 l 8.77538,4.181641 v -1.503906 c 0,-2.147461 0.61426,-3.865235 1.87695,-5.251954 1.24024,-1.361328 2.78027,-2.02246 4.70606,-2.02246 2.11425,0 3.83007,0.74707 5.24511,2.285156 1.43653,1.560547 2.13379,3.374023 2.13379,5.541992 0,1.958008 -0.75488,3.545898 -2.30664,4.854492 -1.59863,1.34961 -3.38281,2.00586 -5.45215,2.00586 m 0.55371,-11.506836 c -1.17187,0 -2.18945,0.409179 -3.02539,1.216797 -0.84765,0.817382 -1.27636,1.808593 -1.27636,2.946289 0,1.135742 0.46972,2.120117 1.39843,2.927734 0.88672,0.773438 1.84082,1.166016 2.83399,1.166016 1.25586,0 2.26465,-0.389649 3.00098,-1.15625 0.72363,-0.754883 1.09179,-1.754883 1.09179,-2.972657 0,-1.260742 -0.41015,-2.279297 -1.21875,-3.02832 -0.78906,-0.730469 -1.7334,-1.099609 -2.80469,-1.099609"
   id="path1110"
   style="fill:#ffffff;fill-opacity:1;stroke:#000000;stroke-opacity:1" />
			<path
   fill="#ED1C24"
   d="m 261.54218,57.539062 c -3.29102,0 -6.0039,-1.123046 -8.29296,-3.432617 -2.29101,-2.313476 -3.4043,-4.949219 -3.4043,-8.056152 0,-3.039063 1.11329,-5.640137 3.4043,-7.954102 2.29004,-2.310058 4.8662,-3.434082 7.87792,-3.434082 2.99023,0 5.58789,1.014161 7.9414,3.097168 2.31934,2.053711 3.44629,4.652832 3.44629,7.944825 0,3.228027 -0.99902,5.958984 -3.05469,8.346679 -2.0166,2.347656 -4.60546,3.488281 -7.91796,3.488281 m -0.41504,-19.694824 c -2.0918,0 -3.9834,0.817871 -5.62401,2.431641 -1.64453,1.618164 -2.47754,3.51416 -2.47754,5.635254 0,2.404785 0.87305,4.444824 2.5957,6.064941 1.70799,1.604004 3.70018,2.417481 5.92089,2.417481 2.34472,0 4.29687,-0.850586 5.80371,-2.526367 1.47851,-1.646973 2.22851,-3.639161 2.22851,-5.920899 0,-2.208008 -0.78906,-4.129394 -2.34472,-5.710937 -1.5625,-1.587403 -3.61524,-2.391114 -6.10254,-2.391114"
   id="path1112"
   style="fill:#ffffff;fill-opacity:1;stroke:#000000;stroke-opacity:1" />
			<path
   fill="#ED1C24"
   d="m 261.54218,30.69043 c -3.292,0 -6.00487,-1.123047 -8.29296,-3.433106 -2.29101,-2.312988 -3.4043,-4.94873 -3.4043,-8.055664 0,-3.039062 1.11329,-5.640137 3.4043,-7.954102 2.29004,-2.3100581 4.86717,-3.433105 7.87792,-3.433105 2.99023,0 5.58886,1.0131836 7.9414,3.096191 2.31934,2.053711 3.44629,4.652832 3.44629,7.944825 0,3.228027 -0.99902,5.958984 -3.05469,8.348144 -2.0166,2.34668 -4.60546,3.486817 -7.91796,3.486817 m -0.41504,-19.694824 c -2.0918,0 -3.98243,0.817871 -5.62401,2.432128 -1.64453,1.617676 -2.47754,3.513672 -2.47754,5.634766 0,2.404785 0.87305,4.444824 2.5957,6.064941 1.70799,1.604004 3.70018,2.416993 5.92089,2.416993 2.34472,0 4.29687,-0.850098 5.80371,-2.525879 1.47851,-1.646973 2.22851,-3.63916 2.22851,-5.920899 0,-2.208007 -0.78906,-4.128906 -2.34472,-5.710937 -1.5625,-1.587403 -3.61524,-2.391113 -6.10254,-2.391113"
   id="path1114"
   style="fill:#ffffff;fill-opacity:1;stroke:#000000;stroke-opacity:1" />
		</g>
	</g>
	
	
</g>
</svg>
