<?xml version="1.0" encoding="UTF-8" standalone="no"?>
<!-- Created with Inkscape (http://www.inkscape.org/) -->

<svg
   version="1.0"
   width="693.08398"
   height="100"
   id="svg101576"
   sodipodi:docname="nds.svg"
   inkscape:version="1.2.1 (9c6d41e410, 2022-07-14)"
   xmlns:inkscape="http://www.inkscape.org/namespaces/inkscape"
   xmlns:sodipodi="http://sodipodi.sourceforge.net/DTD/sodipodi-0.dtd"
   xmlns="http://www.w3.org/2000/svg"
   xmlns:svg="http://www.w3.org/2000/svg">
  <sodipodi:namedview
     id="namedview66509"
     pagecolor="#505050"
     bordercolor="#ffffff"
     borderopacity="1"
     inkscape:showpageshadow="0"
     inkscape:pageopacity="0"
     inkscape:pagecheckerboard="1"
     inkscape:deskcolor="#505050"
     showgrid="false"
     inkscape:zoom="1.0467027"
     inkscape:cx="303.8112"
     inkscape:cy="11.464573"
     inkscape:window-width="1920"
     inkscape:window-height="1017"
     inkscape:window-x="-8"
     inkscape:window-y="-8"
     inkscape:window-maximized="1"
     inkscape:current-layer="svg101576" />
  <defs
     id="defs101578" />
  <path
     d="m 440.59569,89.526317 c 0,1.051204 -0.86201,1.997274 -1.92376,1.997274 H 401.8578 c -1.07226,0 -1.93427,-0.94607 -1.93427,-1.997274 V 62.930114 c 0,-1.051204 0.86201,-1.892209 1.93427,-1.892209 h 36.81413 c 1.06175,0 1.92376,0.841005 1.92376,1.892209 z M 438.99781,53.048583 H 401.5214 c -5.42435,0 -9.85004,4.415163 -9.85004,9.881531 v 26.701259 c 0,5.361312 4.42569,9.881619 9.85004,9.881619 h 37.47641 c 5.43487,0 9.85005,-4.520307 9.85005,-9.881619 V 62.930114 c 0,-5.466368 -4.41518,-9.881531 -9.85005,-9.881531"
     style="fill:#221e1f;fill-opacity:1;fill-rule:nonzero;stroke:#f4f4f4;stroke-width:0.974005;stroke-opacity:1"
     id="path100608" />
  <path
     id="path100660"
     style="fill:#f4d7df;fill-opacity:1;fill-rule:nonzero;stroke:#221e1f;stroke-width:0.974005;stroke-linecap:butt;stroke-linejoin:miter;stroke-miterlimit:4;stroke-dasharray:none;stroke-opacity:1;paint-order:markers stroke fill"
     d="M 510.48158,14.047816 H 491.55941 V 85.74189 h 18.92217 c 29.04552,0 47.3685,-12.509698 47.3685,-35.741942 0,-23.232156 -18.32298,-35.952132 -47.3685,-35.952132 z m 50.785,78.31678 c -9.35596,4.204973 -27.0587,6.938118 -42.53283,6.938118 H 459.59144 V 0.69719168 h 59.14231 c 15.47413,0 33.17687,2.73322292 42.55386,6.93810852 22.78019,10.3020778 30.20189,26.8064808 30.20189,42.3646478 0,15.558255 -7.35862,32.062571 -30.22292,42.364648 m 33.83915,-12.509611 c 8.91444,3.57415 27.74199,6.412507 42.43821,6.412507 16.08384,0 22.73818,-5.466446 22.73818,-12.404564 0,-6.307372 -6.1813,-9.881609 -23.93658,-16.399182 -23.74733,-8.72527 -41.16622,-15.663389 -41.16622,-31.326778 0,-16.083769 20.96158,-25.64996655 52.9085,-25.64996655 17.15609,0 23.04301,1.05119465 33.93376,3.04854715 l 0.0842,15.3479774 c -10.7016,-1.997343 -20.18369,-5.466446 -34.91145,-5.466446 -15.78947,0 -22.51739,5.0459 -22.51739,10.196943 0,7.463799 10.36516,11.037948 28.54098,17.555598 25.30311,9.040605 39.3791,15.978713 39.3791,31.221556 0,15.768533 -17.62911,27.121815 -57.3867,27.121815 -16.32567,0 -27.58433,-1.051204 -40.1045,-3.153691 V 79.854985 M 440.59569,37.595472 c 0,0.94606 -0.86201,1.892208 -1.92376,1.892208 H 401.8578 c -1.07226,0 -1.93427,-0.946148 -1.93427,-1.892208 V 10.894125 c 0,-1.0511944 0.86201,-1.8922085 1.93427,-1.8922085 h 36.81413 c 1.06175,0 1.92376,0.8410141 1.92376,1.8922085 z M 438.99781,1.0125939 H 401.5214 c -5.42435,0 -9.85004,4.4151732 -9.85004,9.8815311 v 26.701347 c 0,5.466368 4.42569,9.881531 9.85004,9.881531 h 37.47641 c 5.43487,0 9.85005,-4.415163 9.85005,-9.881531 V 10.894125 c 0,-5.4663579 -4.41518,-9.8815311 -9.85005,-9.8815311 M 363.84525,39.48768 H 337.43831 V 9.0019165 h 26.40694 c 8.26268,0 11.19562,8.1995905 11.19562,15.2428425 0,6.938197 -2.93294,15.242921 -11.19562,15.242921 z M 377.95279,7.845578 c -3.36394,-4.5203073 -8.33627,-6.8329841 -14.34931,-6.8329841 0,0 -33.95479,0 -34.45938,0 0,0.5256022 0,45.9388071 0,46.4644091 0.50459,0 34.45938,0 34.45938,0 6.01304,0 10.98537,-2.417821 14.34931,-6.832984 3.15369,-4.099839 4.82515,-9.776475 4.82515,-16.39926 0,-6.622706 -1.67146,-12.299342 -4.82515,-16.399181 M 251.00605,1.0125939 c 0,0 1.24044,0 1.60837,0 0,0.4204681 0,7.5688545 0,7.9893226 -0.49407,0 -36.85618,0 -36.85618,0 V 19.409128 c 0,0 28.02583,0 28.50941,0 0,0.525602 0,7.46372 0,7.9894 -0.48358,0 -28.50941,0 -28.50941,0 V 39.48768 c 0,0 36.36211,0 36.85618,0 0,0.420469 0,7.463721 0,7.989323 -0.49407,0 -44.87707,0 -45.37116,0 0,-0.525602 0,-45.9388069 0,-46.4644091 0.49409,0 43.76279,0 43.76279,0 m -55.08456,0 c 0,0 1.19841,0 1.57685,0 0,0.4204681 0,7.5688545 0,7.9893226 -0.50459,0 -20.73028,0 -20.73028,0 0,0 0,37.9494845 0,38.4750865 -0.46255,0 -8.47294,0 -8.93548,0 0,-0.525602 0,-38.4750865 0,-38.4750865 0,0 -20.2257,0 -20.73029,0 0,-0.4204681 0,-7.5688545 0,-7.9893226 0.5151,0 48.8192,0 48.8192,0 m -124.297644,0 c 0,0 1.219435,0 1.587365,0 0,0.5256022 0,45.9388071 0,46.4644091 -0.452035,0 -8.136533,0 -8.599079,0 0,-0.525602 0,-45.9388069 0,-46.4644091 0.473055,0 7.011714,0 7.011714,0 M 273.97545,13.101756 c 0,0 0,33.849645 0,34.375247 -0.47305,0 -8.12602,0 -8.59907,0 0,-0.525602 0,-45.9388069 0,-46.4644091 0.48357,0 7.12734,0 7.33759,0 l 34.82731,33.8496551 c 0,0 0,-33.3240529 0,-33.8496551 0.47306,0 6.89608,0 6.89608,0 0,0 1.22995,0 1.59788,0 0,0.5256022 0,45.9388071 0,46.4644091 -0.47307,0 -6.4861,0 -6.70686,0 L 273.97545,13.101756 m -178.677853,0 c 0,0 0,33.849645 0,34.375247 -0.462546,0 -8.126034,0 -8.599079,0 0,-0.525602 0,-45.9388069 0,-46.4644091 0.483564,0 7.116838,0 7.337587,0 L 128.86342,34.862249 c 0,0 0,-33.3240529 0,-33.8496551 0.47306,0 6.89608,0 6.89608,0 0,0 1.22994,0 1.59788,0 0,0.5256022 0,45.9388071 0,46.4644091 -0.47306,0 -6.4861,0 -6.71738,0 L 95.297597,13.101756 m -86.2115181,0 c 0,0 0,33.849645 0,34.375247 -0.4520297,0 -8.13653263,0 -8.59907677,0 0,-0.525602 0,-45.9388069 0,-46.4644091 0.48356218,0 7.12735277,0 7.34810697,0 L 42.66242,34.862249 c 0,0 0,-33.3240529 0,-33.8496551 0.473049,0 6.885563,0 6.885563,0 0,0 1.21943,0 1.597873,0 0,0.5256022 0,45.9388071 0,46.4644091 -0.462536,0 -6.486094,0 -6.71737,0 L 9.0860789,13.101756" />
</svg>
