<?xml version="1.0" encoding="UTF-8" standalone="no"?>
<!-- Created with Inkscape (http://www.inkscape.org/) -->

<svg
   version="1.1"
   id="svg954"
   width="529.64667"
   height="100"
   viewBox="0 0 529.64667 100"
   sodipodi:docname="famicom.svg"
   inkscape:version="1.2.1 (9c6d41e410, 2022-07-14)"
   xmlns:inkscape="http://www.inkscape.org/namespaces/inkscape"
   xmlns:sodipodi="http://sodipodi.sourceforge.net/DTD/sodipodi-0.dtd"
   xmlns="http://www.w3.org/2000/svg"
   xmlns:svg="http://www.w3.org/2000/svg">
  <defs
     id="defs958" />
  <sodipodi:namedview
     pagecolor="#ffffff"
     bordercolor="#666666"
     borderopacity="1"
     objecttolerance="10"
     gridtolerance="10"
     guidetolerance="10"
     inkscape:pageopacity="0"
     inkscape:pageshadow="2"
     inkscape:window-width="1920"
     inkscape:window-height="1017"
     id="namedview956"
     showgrid="false"
     inkscape:pagecheckerboard="true"
     inkscape:zoom="0.82"
     inkscape:cx="437.19512"
     inkscape:cy="62.195122"
     inkscape:window-x="-8"
     inkscape:window-y="-8"
     inkscape:window-maximized="1"
     inkscape:current-layer="layer1"
     inkscape:showpageshadow="0"
     inkscape:deskcolor="#d1d1d1" />
  <g
     inkscape:groupmode="layer"
     id="layer1"
     inkscape:label="Original">
    <path
       style="fill:#ff0000;stroke-width:0.768226"
       d="M 3.9868122,97.054522 4.2252426,94.173675 13.197685,93.789562 C 23.544138,93.346626 25.750624,92.323671 27.591677,87.116321 29.561668,81.544279 29.451532,81.497947 14.23629,81.497947 H 0.76822593 V 78.425043 75.352137 H 16.90097 33.033715 l -0.0043,5.953753 c -0.0051,7.205975 -0.947134,10.902286 -3.573763,14.023857 -3.403664,4.045048 -5.353532,4.605622 -16.01992,4.605622 H 3.748381 Z m 30.5833548,0.23901 c 0,-3.000444 0.589857,-3.314864 6.914033,-3.685487 3.126399,-0.183222 3.479951,-0.40139 3.696819,-2.281208 0.230938,-2.001774 0.429705,-2.086963 5.377581,-2.304678 2.825779,-0.124337 5.13778,-0.571767 5.13778,-0.994292 0,-0.464538 -4.175677,-0.852715 -10.563107,-0.981962 L 34.570167,86.83217 v -3.051225 -3.051224 h 13.059841 13.05984 v 5.321824 c 0,4.834238 -0.185453,5.467702 -2.024167,6.914033 -1.364081,1.072989 -3.180351,1.601859 -5.569638,1.621802 -3.143078,0.0262 -3.721309,0.309602 -5.09478,2.496734 -1.501153,2.390458 -1.733966,2.474118 -7.490203,2.69151 L 34.570167,100 Z m 51.087024,2.156925 C 84.389618,99.310379 79.895497,98.820681 75.670254,98.36225 62.175325,96.89808 62.994526,97.178322 62.994526,94.025991 v -2.76685 l 7.10609,0.479864 c 3.90835,0.263924 7.797493,0.620904 8.642542,0.793278 0.845048,0.172382 4.734192,0.566897 8.642542,0.876707 l 7.106089,0.563287 v 2.981546 2.981546 l -3.26496,-0.115103 c -1.795728,-0.0633 -4.302065,-0.229723 -5.569638,-0.369809 z m 15.748629,-2.520019 v -3.004939 l 8.43763,-0.260021 c 8.27739,-0.25509 8.48313,-0.305577 10.83403,-2.658354 2.21973,-2.221502 2.4269,-2.887008 2.80994,-9.026654 0.39526,-6.335593 0.49357,-6.628333 2.22581,-6.628333 1.78748,0 1.81227,0.108766 1.81227,7.95111 0,7.603724 -0.10003,8.089196 -2.28952,11.11172 -3.46812,4.787584 -5.50466,5.520402 -15.34152,5.520402 h -8.48864 z m 71.59069,0.124084 0.23844,-2.880847 13.25189,-0.210195 13.2519,-0.210202 V 87.643754 81.53423 l -13.2519,-0.210202 -13.25189,-0.210194 V 78.425043 75.73625 l 15.94069,-0.207644 15.94068,-0.207644 V 87.628167 99.935369 H 188.9372 172.75809 Z M 207.421,96.862465 v -3.072903 h 10.74304 10.74305 l 2.50885,-2.241123 c 2.43329,-2.173626 2.51695,-2.45127 2.77735,-9.218711 l 0.2685,-6.977591 h 2.22823 2.22824 v 6.898487 c 0,8.611467 -1.37027,12.388872 -5.60758,15.458365 -3.06245,2.218429 -3.11417,2.22638 -14.48155,2.22638 H 207.421 Z m 36.48127,1.801352 c -2.20297,-2.202965 -2.67933,-4.717445 -2.67933,-14.142978 v -9.168702 h 2.30468 c 2.17664,0 2.30468,0.170715 2.30468,3.072906 v 3.072904 h 8.47459 c 6.8243,0 8.56071,0.224399 8.91679,1.152339 0.24321,0.633786 0.92376,1.152339 1.51235,1.152339 1.23765,0 1.42997,-1.223392 0.30192,-1.920565 -1.30474,-0.806369 -0.84915,-3.913881 0.79148,-5.398633 3.29605,-2.982876 8.66587,1.99573 6.27748,5.820128 -0.75532,1.209471 -0.73523,1.49907 0.10404,1.49907 0.64983,0 0.99809,0.792847 0.92798,2.112621 l -0.11222,2.112621 -13.59721,0.20978 -13.5972,0.209787 v 1.808772 c 0,0.994822 0.45687,2.187946 1.01528,2.651379 0.62032,0.514826 5.91442,0.924974 13.60937,1.054344 l 12.59411,0.211746 0.0792,2.880847 0.0792,2.880847 h -14.01785 c -12.02012,0 -14.19908,-0.181217 -15.28941,-1.271552 z m 25.29809,-16.86395 c 1.54689,-0.5936 1.58375,-3.281607 0.0531,-3.868993 -1.86138,-0.714273 -3.56382,1.145556 -2.63584,2.879518 0.87224,1.629792 0.89322,1.637827 2.58279,0.989475 z m 5.9702,15.254655 0.23844,-2.880847 8.06637,-0.384113 8.06637,-0.384113 0.23324,-2.396366 c 0.28466,-2.924536 -0.81949,-3.339701 -8.92216,-3.354842 l -5.61601,-0.01045 0.23843,-2.880848 0.23843,-2.880847 h 8.8346 8.8346 l 0.22437,5.953751 0.22437,5.953751 h 2.27236 c 2.13894,0 2.27237,0.180426 2.27237,3.072904 v 3.072904 h -12.72211 -12.7221 z m 57.47127,0.729815 c 0,-3.575216 1.09877,-3.994775 10.46186,-3.994775 8.66172,0 11.04846,-0.349666 11.04846,-1.618645 0,-0.377314 -3.45701,-0.686033 -7.68226,-0.686033 h -7.68225 v -3.04852 -3.048528 l 9.01737,-0.216433 c 7.87614,-0.189045 9.04999,-0.386586 9.27504,-1.560835 0.23392,-1.220496 -0.5989,-1.344395 -9.03639,-1.344395 h -9.29405 l -0.80039,2.112621 c -1.16504,3.075147 -3.77409,5.569638 -5.82541,5.569638 -1.53908,0 -1.78666,-0.383099 -1.78666,-2.764684 0,-2.0813 0.56968,-3.296841 2.30468,-4.917575 1.60885,-1.502888 2.30468,-2.876983 2.30468,-4.551186 v -2.398304 l 13.63601,0.209788 13.63601,0.209779 0.22588,6.03779 c 0.29367,7.849701 -1.26105,12.71029 -5.06971,15.849714 l -2.80439,2.311615 H 343.60607 332.64183 Z M 86.425417,91.46786 c -2.95767,-0.307959 -9.439576,-0.999301 -14.404236,-1.536321 l -9.026655,-0.9764 v -3.038341 -3.038334 l 5.569638,0.492802 c 3.063301,0.271045 7.816699,0.807974 10.563107,1.19317 2.746407,0.385204 7.326955,0.917446 10.178993,1.182761 l 5.185525,0.482399 v 3.011753 c 0,2.399108 -0.273473,2.988845 -1.344395,2.899101 -0.739417,-0.062 -3.764307,-0.364631 -6.721977,-0.67259 z M 298.07166,88.41198 v -3.072904 h 15.36452 15.36452 v 3.072904 3.072904 H 313.43618 298.07166 Z M 96.796467,83.034399 v -7.682262 h 2.304678 2.304675 v 7.682262 7.682259 h -2.304675 -2.304678 z m 33.801943,4.609355 v -3.072903 h 14.9804 14.98041 v 3.072903 3.072904 h -14.98041 -14.9804 z M 83.736626,83.348657 c -5.281553,-0.563663 -12.022735,-1.29708 -14.980405,-1.62983 l -5.377582,-0.604993 -0.235802,-3.256256 -0.235803,-3.256267 3.69282,0.434348 c 2.03105,0.238887 5.421327,0.731612 7.533948,1.094944 2.112622,0.363325 6.261042,0.866078 9.218711,1.117211 11.209508,0.951809 11.139276,0.92459 11.139276,4.31766 0,1.652953 -0.259276,2.960965 -0.576169,2.90669 -0.316893,-0.05431 -4.89744,-0.559852 -10.178994,-1.123507 z M 207.421,78.40066 v -3.097282 l 9.02666,0.216432 9.02665,0.21644 0.23843,2.88085 0.23843,2.880847 H 216.68609 207.421 Z M 0,64.596974 V 61.52407 h 261.24216 c 171.68316,0 261.08149,0.259956 260.77351,0.758288 -0.25777,0.417058 -1.98253,1.799865 -3.83284,3.072903 l -3.36417,2.314617 H 257.40932 0 Z M 214.71915,53.535423 c -7.48472,-2.367105 -13.47152,-7.612645 -17.08709,-14.971445 -1.88394,-3.83439 -2.11103,-5.120186 -2.0506,-11.610074 0.0833,-8.946805 2.05514,-13.894582 7.71542,-19.3596726 C 208.8321,2.2498788 214.40169,-0.0352643 221.80529,4.1096128e-4 230.07731,0.04027036 234.8879,1.7320607 240.36678,6.5281328 c 2.13,1.8645427 6.23374,7.2952342 6.23374,8.2494192 0,0.359129 -3.00261,0.652963 -6.67246,0.652963 -5.4268,0 -6.96854,-0.266968 -8.25843,-1.430035 -7.42281,-6.6930035 -21.04834,-2.210913 -24.55375,8.076904 -1.60447,4.70885 -1.53351,6.824337 0.36968,11.022327 3.02679,6.676402 7.92219,9.998177 14.69318,9.970065 3.98505,-0.01655 9.87085,-2.033125 10.92839,-3.744265 0.55482,-0.897719 12.0961,-1.221213 12.95421,-0.363097 0.74707,0.747067 -0.86443,3.279812 -4.68703,7.366491 -3.36077,3.592931 -4.79078,4.497615 -11.1924,7.080797 -3.53364,1.425887 -11.15572,1.48786 -15.46276,0.125721 z m 48.78234,-0.609597 c -11.87803,-4.50961 -18.1135,-13.649237 -17.98127,-26.356035 0.0858,-8.241282 2.86692,-14.501345 8.87381,-19.9738745 5.28745,-4.8170985 9.92854,-6.53873986 17.61315,-6.53372012 14.37825,0.0093923 23.89374,7.68939452 27.20215,21.95501862 1.05558,4.551542 1.04625,5.496242 -0.10029,10.162867 -1.49048,6.066475 -2.37163,7.955803 -5.60063,12.008621 -7.06805,8.871304 -19.85039,12.593143 -30.00692,8.737123 z m 16.20398,-11.611477 c 2.07795,-1.087709 4.3502,-3.198456 5.88252,-5.464402 2.20775,-3.264758 2.49673,-4.294436 2.49673,-8.896043 0,-4.603601 -0.28803,-5.62875 -2.49673,-8.886326 -2.96502,-4.373056 -6.95061,-6.627444 -12.53565,-7.090598 -7.37807,-0.611848 -14.45602,4.675483 -16.52006,12.340712 -2.5566,9.494516 5.65705,19.768956 15.80381,19.768956 2.66973,0 5.10028,-0.584535 7.36938,-1.772299 z m 42.87728,9.68357 c -0.87212,-2.027316 -3.14654,-7.488747 -5.05425,-12.136514 -1.90772,-4.647766 -3.78177,-8.778901 -4.16456,-9.180299 -0.41722,-0.437502 -0.69599,4.254886 -0.69599,11.715445 v 12.44526 h -5.37758 -5.37758 V 27.338016 0.83422199 h 6.01599 c 7.03119,0 5.63216,-1.68641586 12.42757,14.98040601 5.76886,14.14902 8.56875,20.357987 9.18032,20.357987 0.44763,0 7.43065,-15.87267 10.78792,-24.521336 0.88887,-2.2898422 2.29814,-5.6604334 3.1317,-7.4902031 l 1.51556,-3.32685391 h 5.74248 5.7425 V 27.758787 54.683353 l -4.80141,-0.228715 -4.80141,-0.228714 -0.21063,-12.867784 c -0.11585,-7.077282 -0.51557,-12.867785 -0.88827,-12.867785 -0.37269,0 -2.2864,3.889144 -4.25267,8.642542 -1.96628,4.753398 -4.50502,10.543901 -5.64166,12.867784 l -2.06661,4.225243 -4.81288,0.229012 -4.81286,0.229011 z M 358.76151,27.75723 V 0.83422199 h 11.16988 c 12.26537,0 14.71533,0.66158851 18.94223,5.11516861 4.51538,4.7575264 5.80854,13.1320124 2.94687,19.0839484 -1.98259,4.123573 -2.8961,5.140622 -6.85921,7.636633 -2.69207,1.695494 -4.59601,2.210385 -9.38799,2.538835 l -6.01106,0.412008 -0.21484,9.302554 -0.21483,9.302555 -5.18553,0.227157 -5.18552,0.227156 z m 21.64785,-6.200243 c 1.88102,-1.881019 2.22443,-2.723026 1.80162,-4.417299 -0.98251,-3.936994 -2.5291,-4.870664 -7.65753,-4.622818 l -4.65266,0.224854 -0.22572,5.569638 -0.22571,5.569638 h 4.31799 c 3.78145,0 4.60677,-0.288776 6.64201,-2.324013 z m 25.21393,31.454439 c -4.8254,-2.184287 -7.42531,-4.923718 -9.2165,-9.71109 -1.38847,-3.711049 -1.53866,-5.98425 -1.53866,-23.289284 V 0.83422199 h 5.37758 5.37758 V 18.925681 c 0,14.633859 0.22175,18.520281 1.16029,20.335214 2.16995,4.196214 6.51221,5.050808 9.86681,1.94187 l 2.03274,-1.883883 V 20.076552 0.83422199 h 5.37758 5.37758 V 21.333775 c 0,19.188158 -0.10215,20.710581 -1.59691,23.798337 -1.62088,3.348291 -5.48596,6.869514 -9.38645,8.551387 -3.22024,1.388552 -8.9414,1.088899 -12.83164,-0.672073 z m 34.34555,1.117924 c -0.29898,-0.298988 -0.54361,-9.819942 -0.54361,-21.157677 V 12.357611 h -3.84113 -3.84113 V 6.5959165 0.83422199 h 13.82807 13.82807 V 6.5959165 12.357611 h -4.2129 -4.2129 l -0.2044,20.934156 -0.2044,20.934157 -5.02603,0.223521 c -2.76431,0.122936 -5.27064,-0.0211 -5.56964,-0.320095 z M 460.93556,27.722129 V 0.83422199 h 14.24583 14.24584 l -0.22571,5.56963801 -0.22572,5.569638 -8.25842,0.218047 -8.25843,0.218046 v 4.967479 4.967478 h 8.48414 8.48414 l -0.22571,5.569638 -0.22572,5.569638 -8.25842,0.218047 -8.25843,0.218046 v 4.583366 4.583365 h 8.45048 8.45049 v 5.761695 5.761694 h -14.21218 -14.21218 z m 29.96081,0 V 0.83422199 h 11.62631 c 6.48971,0 12.91939,0.38741171 14.55308,0.87687691 3.69192,1.1061286 7.8996,4.5482731 10.55409,8.6339341 1.78017,2.739932 2.05057,3.938598 2.01374,8.926611 -0.032,4.336695 -0.4505,6.545294 -1.692,8.930019 -1.59627,3.066165 -5.70447,7.202726 -7.15336,7.202726 -1.3815,0 -0.67684,2.429192 1.85097,6.380784 3.5307,5.519382 6.65847,11.195698 6.65847,12.083897 0,0.413596 -2.63047,0.733111 -5.95376,0.723186 l -5.95375,-0.01778 -3.0729,-5.513421 c -1.6901,-3.032379 -4.19643,-7.164463 -5.56964,-9.182408 -1.3732,-2.017944 -2.49673,-3.855022 -2.49673,-4.082395 0,-0.802366 -3.46479,-5.75055 -4.03319,-5.759931 -0.31689,-0.0052 -0.57617,5.521717 -0.57617,12.282105 v 12.291615 h -5.37758 -5.37758 z m 22.85247,-2.718587 c 1.55609,-0.650175 3.09535,-1.600855 3.42058,-2.112622 1.13399,-1.784395 0.63454,-5.904269 -0.90205,-7.440865 -1.9858,-1.985799 -4.09452,-2.460922 -9.65438,-2.175275 l -4.57734,0.23517 -0.22823,5.694004 c -0.16177,4.036102 0.0619,5.87805 0.76823,6.3261 1.64486,1.043416 8.14941,0.736903 11.17319,-0.526512 z M 0,26.953904 V 0.0659961 h 14.980406 14.980405 v 5.3532018 5.3532011 l -9.026654,0.216437 -9.026655,0.216436 -0.227157,5.185525 -0.227157,5.185525 h 8.836044 8.836042 l 0.225712,5.569638 0.225712,5.569638 4.609356,-6.307849 c 2.535145,-3.469318 5.819311,-8.06374 7.298146,-10.209827 2.492458,-3.61706 3.880683,-5.55365 9.498901,-13.2510787 2.022152,-2.7705169 2.277712,-2.8808472 6.67294,-2.8808472 H 62.2263 V 26.953904 53.841811 h -5.377581 -5.377582 v -4.225243 -4.225242 h -8.742299 -8.742299 l -3.19009,4.225242 -3.190089,4.225243 h -6.120921 c -3.366506,0 -6.12092,-0.215375 -6.12092,-0.478612 0,-0.4316 2.256159,-3.691021 9.772208,-14.117681 4.817312,-6.682829 5.232518,-6.145807 -4.751711,-6.145807 h -8.861627 v 10.37105 10.37105 H 5.7616945 0 Z m 51.471137,1.536451 c 0,-6.233774 -0.721577,-7.567404 -2.398797,-4.433491 -0.504022,0.941774 -2.244694,3.392729 -3.868159,5.446566 -1.623465,2.053838 -2.951755,4.048909 -2.951755,4.433492 0,0.384582 2.07421,0.699241 4.609356,0.699241 h 4.609355 z M 63.762752,26.953904 V 0.0659961 h 6.177875 6.177872 l 2.582276,5.569638 c 1.42025,3.0633008 3.625934,7.9895499 4.901519,10.9472189 4.572719,10.602636 7.653321,17.377886 8.108356,17.832924 0.254583,0.25458 1.531197,-1.925174 2.83692,-4.843896 1.305731,-2.918723 3.382998,-7.408298 4.616155,-9.976834 1.233155,-2.568536 2.242095,-4.893365 2.242095,-5.166287 0,-0.272921 1.0757,-2.838365 2.39045,-5.7009844 1.31475,-2.8626195 2.689,-5.9825916 3.05389,-6.9332712 0.60667,-1.58060868 1.15807,-1.7285083 6.44415,-1.7285083 h 5.78071 V 26.953904 53.841811 h -4.99347 -4.99347 V 41.120745 c 0,-8.30736 -0.26724,-12.555899 -0.77024,-12.245027 -0.42364,0.261822 -1.50318,2.097159 -2.39898,4.078525 -0.89581,1.981367 -2.90728,6.368098 -4.46996,9.748292 -1.562674,3.380194 -3.333135,7.269338 -3.934364,8.642542 -1.072697,2.450054 -1.186856,2.496734 -6.105898,2.496734 H 86.395879 L 81.429221,42.252506 C 78.697564,35.878389 76.197872,30.49961 75.874356,30.299666 75.550833,30.099721 75.286141,35.314909 75.286141,41.888971 v 11.95284 h -5.761694 -5.761695 z m 57.616948,0 V 0.0659961 h 5.37758 5.37758 V 26.953904 53.841811 h -5.37758 -5.37758 z m 12.80376,26.375756 c -0.63996,-0.639957 -0.68377,-50.3860755 -0.0459,-52.0484934 0.36266,-0.94507686 1.6406,-1.2151705 5.74954,-1.2151705 h 5.28324 l 0.20421,21.3182699 0.20421,21.318269 6.52992,0.384113 6.52992,0.384113 0.22716,5.185525 0.22715,5.185525 h -12.19867 c -6.70928,0 -12.42915,-0.230468 -12.71083,-0.512151 z m 28.68044,-9.795096 c 0,-10.214322 -0.0232,-10.351108 -2.57601,-15.172462 C 152.08521,12.869991 146.6737,1.5487013 147.12341,0.82104538 c 0.305,-0.49349754 2.67347,-0.76912049 5.81973,-0.67725181 l 5.30543,0.15491507 3.94926,7.75795936 c 2.17209,4.266877 4.33407,8.533091 4.80439,9.480474 0.47033,0.947383 1.20085,1.71633 1.62337,1.70877 0.42253,-0.0075 3.03497,-4.239708 5.80544,-9.4047742 l 5.03722,-9.39102873 4.86881,-0.23159938 c 7.69605,-0.36608531 7.6576,-0.50891588 2.49171,9.25598691 -2.51534,4.7546444 -6.34367,12.0106094 -8.50741,16.1243654 l -3.93407,7.479556 v 10.381697 10.381696 h -5.7617 -5.76169 z"
       id="path5924"
       inkscape:connector-curvature="0" />
  </g>
</svg>
