<?xml version="1.0" encoding="UTF-8" standalone="no"?>
<svg
   width="501.24802"
   height="100"
   xml:space="preserve"
   version="1.1"
   id="svg83744"
   sodipodi:docname="psx.svg"
   inkscape:version="1.2.1 (9c6d41e410, 2022-07-14)"
   xmlns:inkscape="http://www.inkscape.org/namespaces/inkscape"
   xmlns:sodipodi="http://sodipodi.sourceforge.net/DTD/sodipodi-0.dtd"
   xmlns="http://www.w3.org/2000/svg"
   xmlns:svg="http://www.w3.org/2000/svg"><defs
     id="defs83748" /><sodipodi:namedview
     id="namedview83746"
     pagecolor="#505050"
     bordercolor="#ffffff"
     borderopacity="1"
     inkscape:showpageshadow="0"
     inkscape:pageopacity="0"
     inkscape:pagecheckerboard="1"
     inkscape:deskcolor="#505050"
     showgrid="false"
     inkscape:zoom="1.9579542"
     inkscape:cx="262.26354"
     inkscape:cy="47.498557"
     inkscape:window-width="1920"
     inkscape:window-height="1017"
     inkscape:window-x="-8"
     inkscape:window-y="-8"
     inkscape:window-maximized="1"
     inkscape:current-layer="svg83744" /><g
     id="g32132"
     transform="translate(-0.24964813)"><path
       d="m 146.78722,25.583906 v 50.905938 h 8.91606 V 31.04873 h 5.47279 c 3.94667,0 5.72847,0.106164 6.39907,0.386616 1.32352,0.552941 2.68597,2.237419 3.24422,3.999752 0.29283,0.926287 0.53436,2.931029 0.62017,5.158716 0.17695,4.559771 -0.35211,7.392597 -1.74375,9.23013 -1.4518,1.918041 -2.34004,2.22061 -6.44419,2.22061 h -3.5229 v 5.525869 l 5.5356,-0.10705 5.53649,-0.107049 1.95873,-0.926286 c 3.57864,-1.688018 6.17702,-5.141022 7.22539,-9.590205 0.58568,-2.484252 0.57683,-8.038431 -0.0186,-10.704048 -0.57152,-2.562107 -1.76144,-5.142792 -3.1,-6.705181 -0.56002,-0.652913 -1.6429,-1.589815 -2.39932,-2.076403 -2.59484,-1.665016 -3.59368,-1.770295 -16.23965,-1.770295 z m 39.40035,0 v 50.905938 h 8.91518 V 25.583906 h -4.45803 z m 111.80197,0 c -3.99356,8.84e-4 -8.10213,0.141552 -9.13016,0.306108 -2.32058,0.369806 -5.02689,1.596892 -6.56097,2.983226 -1.54647,1.396949 -2.86291,3.4937 -3.57687,5.697501 -0.44412,1.369524 -0.5839,2.617843 -0.6016,5.248956 -0.0256,3.629946 0.27957,5.17641 1.52789,7.620851 0.81039,1.5907 2.97349,3.88651 4.45803,4.744674 1.72429,0.999717 3.92898,1.528771 7.72082,1.833109 2.88414,0.233563 3.55652,0.376885 4.4943,0.998833 0.73785,0.487472 1.38368,1.285476 1.9322,2.398435 0.76881,1.566813 0.81216,1.895039 0.80862,5.266651 -0.004,3.362764 -0.0504,3.694529 -0.79269,5.105633 -0.50075,0.959021 -1.22532,1.797721 -1.98351,2.302003 l -1.19789,0.791812 -7.57574,0.09112 -7.56688,0.08139 v 5.436514 h 8.60818 c 5.23746,0 9.21155,-0.129167 10.13784,-0.324687 3.52467,-0.741383 6.45746,-3.025692 7.88095,-6.138085 1.19878,-2.621382 1.62255,-5.315309 1.46508,-9.356642 -0.16633,-4.260741 -0.79624,-6.582207 -2.49841,-9.130158 -2.11533,-3.162821 -4.48015,-4.24747 -10.48818,-4.797757 -2.22238,-0.203482 -4.49961,-0.561788 -5.05963,-0.799773 -1.23682,-0.523746 -2.39313,-1.841956 -2.90272,-3.307028 -0.50251,-1.444724 -0.49632,-5.62761 0.0186,-7.395251 0.50428,-1.745524 2.03925,-3.353033 3.65826,-3.837852 0.78119,-0.235331 3.40788,-0.350343 7.82787,-0.350343 h 6.65917 v -5.467478 h -7.26254 z m 102.45417,0 v 7.478413 h 8.91606 v -7.478413 h -4.45803 z m -85.7297,5.752353 0.092,18.333746 c 0.0796,18.046217 0.0929,18.361172 0.71041,19.997877 0.34592,0.9139 1.08554,2.282539 1.6429,3.04604 1.14393,1.557081 2.63023,2.648807 4.512,3.307028 0.90505,0.317609 2.44355,0.440583 5.36485,0.4512 l 4.09884,0.01769 V 71.0259 h -2.678 c -2.54884,0 -2.71605,-0.0345 -3.44239,-0.791811 -0.44943,-0.468009 -0.89001,-1.382794 -1.06784,-2.229457 -0.19552,-0.9139 -0.27691,-5.667421 -0.22648,-13.085675 l 0.0814,-11.647144 4.81722,-0.08139 4.81722,-0.08139 v -5.446245 h -9.77776 v -6.326527 h -4.46688 z m 61.57194,0 V 49.44529 c 0,17.514509 0.0204,18.171845 0.59452,19.916484 0.68211,2.077288 2.06844,4.133343 3.57687,5.284344 0.57505,0.440583 1.71544,1.031567 2.53291,1.311133 1.14038,0.393694 2.41524,0.514899 5.44624,0.521976 l 3.95375,0.0088 v -5.46394 h -2.55237 c -2.13214,0 -2.67181,-0.09201 -3.2973,-0.585675 -0.41316,-0.322917 -0.88117,-1.06607 -1.04395,-1.651744 -0.18137,-0.654682 -0.29726,-5.8249 -0.29726,-13.364357 V 43.12761 h 9.79722 l -0.0832,-2.660309 -0.0814,-2.661193 -4.81722,-0.07962 -4.81368,-0.08228 V 31.33626 h -4.45803 z m -7.86414,6.253981 -9.51766,0.153939 c -10.23427,0.157477 -11.29415,0.283105 -14.29861,1.806568 -3.36099,1.703057 -5.70369,5.010086 -6.76622,9.5442 -0.44413,1.8915 -0.52198,3.520242 -0.52198,10.712895 0,8.165829 0.0239,8.547137 0.65645,10.110412 1.27486,3.150435 3.17255,5.095902 5.90452,6.038997 1.20409,0.416697 2.46037,0.513129 6.59725,0.520207 l 5.10563,0.01062 v -5.465709 h -3.57686 c -3.38665,0 -3.61667,-0.04158 -4.42176,-0.719266 -0.53259,-0.447661 -0.96609,-1.194352 -1.16781,-1.995895 -0.40077,-1.586276 -0.42023,-14.099547 -0.0274,-17.128777 0.55825,-4.304091 1.52788,-6.322104 3.5512,-7.405868 0.69627,-0.371576 1.89858,-0.504282 5.28612,-0.592752 l 4.38548,-0.116781 v 33.425048 h 9.20271 v -10.74121 c 0,-5.904522 -0.092,-14.656026 -0.19906,-19.44759 z m -135.06972,0.0097 -9.56189,0.143322 c -10.39175,0.160132 -11.88425,0.350343 -14.7215,1.869382 -8.38346,5.083516 -10.25639,27.554144 -4.07141,34.070883 1.03687,1.054569 2.75762,2.094982 4.19616,2.533796 0.39546,0.122089 3.07965,0.229138 5.96733,0.24064 l 5.24807,0.02743 v -5.461285 h -3.67506 c -4.14573,0 -4.69159,-0.19552 -5.47279,-1.976431 -0.34946,-0.793581 -0.4857,-2.355086 -0.57506,-6.560974 -0.12916,-5.977069 0.28665,-12.461958 0.93425,-14.615331 0.58125,-1.93308 1.66413,-3.417616 2.93811,-4.043102 0.93071,-0.456508 1.78622,-0.542325 5.41882,-0.548518 l 4.31294,-0.0097 0.0725,16.608571 0.0726,16.606801 h 8.91606 V 57.0396 Z m 9.59905,0.06281 c -2.59041,0 -4.70574,0.03273 -4.70044,0.07255 0.004,0.03981 2.96023,8.720539 6.56982,19.296305 l 6.56098,19.231722 -3.69453,9.528276 c -2.0304,5.243647 -3.69364,9.570741 -3.69364,9.615861 0,0.04424 1.76321,0.04424 3.91835,0 l 3.91925,-0.08139 11.45782,-28.759998 c 6.30529,-15.817644 11.46843,-28.790077 11.46843,-28.830773 0.002,-0.03981 -1.85965,-0.07255 -4.14396,-0.07255 -3.01154,0 -4.2165,0.09997 -4.37664,0.36096 -0.1212,0.197289 -2.32412,5.788626 -4.88799,12.429223 -2.56299,6.638828 -4.77476,12.109845 -4.92339,12.159389 -0.1504,0.05043 -2.18699,-5.543563 -4.51907,-12.429224 l -4.24305,-12.520348 z m 157.49257,0 v 38.82444 h 8.91606 V 37.662786 h -4.45803 z m 53.92367,0.143322 -0.0832,19.340541 h 0.0106 l -0.0814,19.340541 h 9.21155 V 43.063911 l 4.38549,0.117666 c 4.65531,0.121205 5.43297,0.314955 6.74056,1.715444 1.02449,1.097034 1.75703,3.095583 2.08349,5.696616 0.16897,1.361562 0.30787,7.611119 0.30787,14.164131 v 11.730307 h 8.91252 l -0.009,-11.432161 c -0.002,-12.124885 -0.2141,-15.001947 -1.3828,-18.289511 -1.58981,-4.470416 -4.51553,-7.120993 -9.27348,-8.411778 -1.57389,-0.427312 -3.25571,-0.501627 -11.33396,-0.521976 z m -22.54052,0.08139 c -2.51433,0 -5.01982,0.31584 -6.82019,0.935133 -2.39667,0.824546 -3.90155,1.789759 -5.41174,3.46893 -1.63848,1.822492 -2.82487,4.289935 -3.52113,7.30678 -0.42466,1.849034 -0.52729,3.401692 -0.50074,7.907495 0.0221,4.741136 0.11766,5.953182 0.62902,7.828757 0.86613,3.1814 1.99943,5.323271 3.72019,7.064371 1.69509,1.714559 4.20058,3.027461 7.02102,3.667988 1.26866,0.286644 3.02746,0.377769 5.71608,0.305223 4.63408,-0.123859 6.83877,-0.72015 9.54331,-2.569184 2.2675,-1.550003 3.98118,-3.996213 4.95258,-7.074103 1.38899,-4.394331 1.63317,-11.639182 0.5671,-16.985455 -0.51844,-2.597495 -1.77826,-5.413512 -3.18317,-7.127186 -1.31998,-1.611048 -3.4822,-3.023922 -5.7957,-3.792731 -1.87116,-0.620178 -4.4023,-0.936018 -6.91663,-0.936018 z m 0.10882,5.356005 c 1.30494,0 2.61253,0.252141 3.63879,0.772348 1.33944,0.679454 2.1808,1.86142 2.91157,4.097955 0.47862,1.462417 0.59806,2.793899 0.71041,7.630582 0.14687,6.31768 -0.14332,9.294713 -1.12357,11.53921 -0.69096,1.586277 -1.80922,2.818671 -3.03808,3.343301 -0.52551,0.224716 -1.90742,0.394579 -3.18936,0.394579 -1.81807,0 -2.5161,-0.129167 -3.53174,-0.663529 -0.79801,-0.422889 -1.56859,-1.145693 -2.06668,-1.950775 -1.29963,-2.096751 -1.72783,-4.8473 -1.74552,-11.043775 -0.0142,-5.899215 0.29018,-8.270225 1.37749,-10.669545 0.36803,-0.813929 1.11119,-1.807453 1.66236,-2.229457 1.04749,-0.798889 2.71604,-1.220894 4.39433,-1.220894 z"
       style="fill:#ffffff;fill-opacity:1;stroke:#000000;stroke-width:2;stroke-dasharray:none;stroke-opacity:1;paint-order:markers stroke fill"
       id="path83730" /><path
       style="fill:#000000;stroke:none;stroke-width:0.884705"
       d="m 495.39293,66.029974 c -3.06108,0.301685 -5.50287,3.651179 -4.59781,6.684833 0.73607,3.297296 4.85614,5.128636 7.79425,3.460967 3.13893,-1.492498 3.91571,-6.111544 1.44738,-8.547138 -1.16781,-1.276629 -2.82398,-1.852572 -4.53677,-1.607509 -0.10705,0.0088 0.0752,-0.02212 -0.10705,0.0088 z m 0.13271,1.200545 c 1.46861,0.06901 3.09204,0.542324 3.90685,1.905655 1.60044,2.229457 0.14421,5.71785 -2.56033,6.161972 -2.61342,0.639642 -5.29673,-1.900347 -4.7836,-4.544731 0.2194,-1.706596 1.35359,-3.22475 3.05754,-3.453889 0.33795,-0.06901 0.16544,-0.03539 0.38042,-0.06901 z"
       id="path83732" /><path
       fill="#de0029"
       d="M 71.266132,20.795881 71.178546,99.999116 49.958007,93.09753 V 0 L 77.045911,7.1625735 C 94.386134,11.822316 104.99552,20.881697 104.82389,36.755963 104.65137,55.222415 96.110424,62.639784 79.462041,57.808408 V 21.39925 c -0.0018,-4.402293 -8.195909,-4.659743 -8.195909,-0.603369 z"
       id="path83734"
       style="stroke-width:0.884705" /><path
       fill="#f3c202"
       d="M 40.208555,77.739048 30.202539,81.105351 C 23.730921,83.349848 18.21036,78.086737 24.162657,75.926287 l 4.83049,-1.722521 -18.20281,-5.783318 C 5.1830757,70.320794 -0.08092032,74.374514 0.26588413,80.070246 0.61091916,85.850025 13.810721,87.232819 23.989255,88.870409 c 9.489348,1.551773 18.116108,0.689185 25.966983,-2.07198 V 80.844363 Z M 71.350179,100 89.898024,93.530151 71.177662,87.57697 v 11.994833 z"
       id="path83736"
       style="stroke-width:0.884705" /><path
       fill="#326db3"
       d="m 120.69727,82.658893 0.34503,-0.08759 c 8.10921,-2.846982 11.55956,-6.818424 10.69697,-10.526223 -1.38014,-6.21151 -11.30034,-9.577814 -26.57035,-10.69962 -10.956189,-0.775887 -21.738976,1.640243 -32.263429,5.261342 l -1.725175,0.606908 18.89288,5.868249 11.041124,-3.713107 c 11.56044,-2.155142 16.2193,1.640243 5.09148,5.179064 l -5.52233,1.898577 z M 49.958007,55.22153 41.58958,58.067627 49.958892,60.656275 V 55.22153 Z"
       id="path83738"
       style="stroke-width:0.884705" /><path
       fill="#00aa9e"
       d="M 89.898909,93.528382 120.69727,82.658893 100.6817,76.446493 71.178546,86.54098 v 1.035105 z m -39.940902,-19.067167 -9.748567,3.277833 9.749452,3.107084 v -6.384917 z m 21.219655,5.091478 V 67.215479 l 18.89288,5.86648 z M 28.994032,74.203766 49.958007,66.697042 V 60.658044 L 41.58958,58.068512 11.222958,68.335516 c -0.08582,0 -0.258334,0.08493 -0.430851,0.08493 z"
       id="path83740"
       style="stroke-width:0.884705" /><path
       d="m 498.26203,73.874655 c -0.0672,0 -0.13359,-0.153938 -0.13359,-0.230023 0,-0.07697 -0.0672,-0.230908 -0.0672,-0.461816 v -0.768809 c 0,-0.383962 -0.0663,-0.61487 -0.19994,-0.768809 -0.0664,-0.153054 -0.19995,-0.230023 -0.33265,-0.306993 0.1327,-0.153938 0.26629,-0.230023 0.39989,-0.461816 0.1327,-0.230023 0.19994,-0.5379 0.19994,-0.921863 0,-0.691839 -0.26718,-1.22974 -0.73431,-1.460648 -0.26541,-0.153939 -0.59894,-0.230023 -0.99971,-0.230023 h -2.39932 v 5.995647 h 0.86701 v -2.45948 h 1.3996 c 0.2663,0 0.46624,0 0.53348,0.07608 0.19994,0.07697 0.26629,0.307878 0.26629,0.61487 l 0.0672,0.922748 c 0,0.230023 0,0.383962 0.0663,0.460931 0,0.07697 0.0664,0.153939 0.0664,0.230024 l 0.0672,0.07785 h 0.99972 z m -1.06696,-3.843159 c 0,0.306993 -0.0663,0.537901 -0.19994,0.691839 -0.1327,0.153054 -0.39989,0.230024 -0.66707,0.230024 h -1.46595 v -1.689787 h 1.53319 c 0.19994,0 0.39989,0 0.46624,0.07697 0.26718,0.07697 0.33353,0.306993 0.33353,0.69184"
       style="fill:#000000;stroke-width:0.823872"
       id="path83742" /></g></svg>
