<?xml version="1.0" encoding="UTF-8" standalone="no"?>
<svg
   height="100"
   viewBox="0 0 541.42139 100"
   width="541.42139"
   version="1.1"
   id="svg2986"
   sodipodi:docname="atomiswave.svg"
   inkscape:version="1.2.1 (9c6d41e410, 2022-07-14)"
   xmlns:inkscape="http://www.inkscape.org/namespaces/inkscape"
   xmlns:sodipodi="http://sodipodi.sourceforge.net/DTD/sodipodi-0.dtd"
   xmlns:xlink="http://www.w3.org/1999/xlink"
   xmlns="http://www.w3.org/2000/svg"
   xmlns:svg="http://www.w3.org/2000/svg">
  <defs
     id="defs2990" />
  <sodipodi:namedview
     id="namedview2988"
     pagecolor="#505050"
     bordercolor="#ffffff"
     borderopacity="1"
     inkscape:showpageshadow="0"
     inkscape:pageopacity="0"
     inkscape:pagecheckerboard="1"
     inkscape:deskcolor="#505050"
     showgrid="false"
     inkscape:zoom="1.4119923"
     inkscape:cx="311.97054"
     inkscape:cy="89.235614"
     inkscape:window-width="1920"
     inkscape:window-height="1017"
     inkscape:window-x="-8"
     inkscape:window-y="-8"
     inkscape:window-maximized="1"
     inkscape:current-layer="svg2986" />
  <linearGradient
     id="a">
    <stop
       offset="0"
       stop-color="#f36917"
       id="stop2951" />
    <stop
       offset=".5"
       stop-color="#c24a13"
       id="stop2953" />
    <stop
       offset="1"
       stop-color="#682c19"
       id="stop2955" />
  </linearGradient>
  <linearGradient
     id="c"
     gradientTransform="matrix(0,-99.999807,99.999807,0,18.432815,99.999983)"
     gradientUnits="userSpaceOnUse"
     spreadMethod="pad"
     x1="0"
     x2="1"
     xlink:href="#a"
     y1="0"
     y2="0" />
  <linearGradient
     id="b">
    <stop
       offset="0"
       stop-color="#f0f9e8"
       id="stop2959" />
    <stop
       offset=".511"
       stop-color="#599b77"
       id="stop2961" />
    <stop
       offset="1"
       stop-color="#458055"
       id="stop2963" />
  </linearGradient>
  <linearGradient
     id="d"
     gradientTransform="matrix(-0.08369818,59.944367,-59.944367,-0.08369818,46.997725,11.262636)"
     gradientUnits="userSpaceOnUse"
     spreadMethod="pad"
     x1="0"
     x2="1"
     xlink:href="#b"
     y1="0"
     y2="0" />
  <linearGradient
     id="e"
     gradientTransform="matrix(0,-51.483229,51.483229,0,66.67682,72.543463)"
     gradientUnits="userSpaceOnUse"
     spreadMethod="pad"
     x1="0"
     x2="1"
     xlink:href="#a"
     y1="0"
     y2="0" />
  <linearGradient
     id="f"
     gradientTransform="matrix(0,59.115486,-59.115486,0,83.933704,11.433112)"
     gradientUnits="userSpaceOnUse"
     spreadMethod="pad"
     x1="0"
     x2="1"
     xlink:href="#b"
     y1="0"
     y2="0" />
  <linearGradient
     id="g"
     gradientTransform="matrix(0,-43.927989,43.927989,0,104.95254,64.934364)"
     gradientUnits="userSpaceOnUse"
     spreadMethod="pad"
     x1="0"
     x2="1"
     xlink:href="#a"
     y1="0"
     y2="0" />
  <path
     d="M 4.58132e-6,99.811519 24.169123,-4.48352e-6 36.865062,51.096918 24.827619,99.999983 Z"
     fill="url(#c)"
     id="path2970"
     style="fill:url(#c);stroke-width:0.385392" />
  <path
     d="M 24.169123,-4.48352e-6 H 48.714605 L 69.780836,82.884729 H 44.953221 Z"
     fill="url(#d)"
     id="path2972"
     style="fill:url(#d);stroke-width:0.385392" />
  <path
     d="M 63.572804,9.8435803 75.987739,58.057679 69.780836,82.885293 57.366464,33.794328 Z"
     fill="url(#e)"
     id="path2974"
     style="fill:url(#e);stroke-width:0.385392" />
  <path
     d="M 63.572804,9.8435803 79.786929,72.85268 H 104.29461 L 87.80117,9.8435803 Z"
     fill="url(#f)"
     id="path2976"
     style="fill:url(#f);stroke-width:0.385392" />
  <path
     d="M 118.11907,19.686601 104.29461,72.85268 91.78713,25.141341 l 1.880692,-5.45474 z"
     fill="url(#g)"
     id="path2978"
     style="fill:url(#g);stroke-width:0.385392" />
  <path
     d="m 179.0481,64.686988 c -1.50761,-2.167472 -1.713,-3.303648 6.08619,-30.158898 -13.1272,0.108156 -14.32018,0 -14.32018,0 l 2.60337,-7.065043 h 38.1886 l -2.16966,7.065043 h -11.71681 c 0,0 0.0109,0.05135 -8.67972,31.48735 -7.60363,-0.02731 -8.76384,0.434805 -9.99179,-1.328452 z M 227.22849,34.09547 220.2858,59.69765 h 6.94269 l 6.94378,-25.603273 z m 19.73667,-4.994801 c 1.29568,1.956625 0.65003,3.038176 -8.88729,36.914771 -29.51871,0.188998 -28.86868,-0.02731 -30.38723,-1.763257 -1.72065,-1.966457 -0.65111,-3.264319 8.68956,-36.789136 29.99721,0.0044 29.29256,-0.312448 30.58496,1.637622 z m -0.64128,36.914771 c -0.75053,-0.620527 0.97667,-2.66892 10.41567,-38.552393 47.89852,-0.158409 45.29406,-0.638006 46.92185,1.802586 0.93079,1.396184 0.80406,2.221004 -8.29954,36.749807 -15.62241,-0.133283 -13.3446,0 -13.3446,0 l 7.81121,-33.222202 H 285.381 l -8.67973,33.222202 h -13.45275 l 9.11344,-33.222202 h -4.34041 l -9.11234,33.222202 z m 55.70973,-1.435514 c -0.48724,-1.790569 0,-1.473751 9.38546,-37.116879 13.56091,-0.321188 13.01795,0 13.01795,0 0,0 -0.44354,2.288738 -10.84829,38.552393 -9.27621,-0.133283 -11.09409,0.255639 -11.55512,-1.435514 z m 18.93261,1.435514 2.06151,-7.254042 h 20.66746 c 0,0 0.27094,-1.449716 2.87431,-11.214269 -18.6595,-0.05462 -19.15876,0.870704 -20.61284,-1.518542 -0.66095,-1.089198 0.20757,-1.965364 4.55562,-18.56554 29.06642,0.109248 34.28409,0 34.28409,0 l -1.73595,6.196525 -19.52801,0.163871 c 0,0 -0.22833,-0.382366 -2.60446,7.214713 19.5291,-0.05462 18.70865,0.1016 19.69188,1.083737 1.46392,1.463918 0.97668,2.278905 -4.93799,23.892454 -36.67006,0.193368 -34.71562,0 -34.71562,0 z M 371.8483,27.464139 c -10.74013,36.50837 -10.47903,36.05827 -9.27512,37.603031 1.13836,1.466103 2.92784,0.846669 48.6578,0.979951 9.11343,-35.284796 10.19717,-38.584074 10.19717,-38.584074 h -13.45166 l -9.33193,33.754237 h -4.77412 l 9.32975,-33.754237 h -13.01795 l -9.32975,33.536834 h -4.77412 l 9.33084,-33.536834 h -13.562 z m 87.55323,0 c 4.99152,36.130373 5.1543,36.519295 6.29266,37.657655 0.97668,0.977766 1.03021,0.923142 26.09161,0.923142 9.27513,-36.616524 0.48834,-1.962087 9.70993,-38.581889 h -13.45384 l -7.97508,33.157745 h -2.87321 l -3.9067,-33.156653 c 0,0 -3.30911,-0.159501 -13.88646,0 z m 82.01874,0 c 0,0 -1.46391,0.0033 -32.98076,0 -9.49362,37.107047 -9.49362,36.923511 -8.67972,37.929682 0.81389,1.00617 1.95334,0.651115 32.98185,0.621619 0.70465,-4.527222 0.86743,-6.806127 0.86743,-6.806127 h -20.01635 l 2.65799,-11.228471 17.52114,-0.163871 1.57316,-6.778815 h -17.35944 l 1.95334,-7.378584 h 20.18132 l 1.30114,-6.196525 z m -102.85008,6.31779 -3.85644,14.606407 h 8.99982 l -1.17222,-14.606407 z m 20.39654,32.265192 h -13.45276 l -1.19407,-9.603958 h -10.52492 l -2.81859,9.603958 h -13.23753 c 0,0 0.001,-1.15147 10.63307,-38.584074 21.75339,-0.160594 22.56728,-0.149669 23.70673,1.802586 0.97558,1.463918 1.14601,3.6445 6.88807,36.781488 z M 151.28501,33.781929 147.42747,48.388336 h 8.99982 l -1.17223,-14.606407 z m 20.39543,32.265192 h -13.45275 l -1.19407,-9.603958 h -10.52383 l -2.81859,9.603958 h -13.23862 c 0,0 0.002,-1.15147 10.63307,-38.584074 21.75338,-0.160594 22.56728,-0.149669 23.70673,1.802586 0.97558,1.463918 1.1471,3.6445 6.88806,36.781488 z"
     id="path2982"
     style="fill:#ffe2e9;stroke-width:0.323373;fill-opacity:1" />
</svg>
