<?xml version="1.0" encoding="UTF-8" standalone="no"?>
<!-- Generator: Adobe Illustrator 13.0.0, SVG Export Plug-In . SVG Version: 6.00 Build 14948)  -->

<svg
   version="1.2"
   id="Ebene_1"
   x="0px"
   y="0px"
   width="665.36475"
   height="100"
   viewBox="0 0 665.36477 99.999997"
   xml:space="preserve"
   sodipodi:docname="snesmsu1.svg"
   inkscape:version="1.2.1 (9c6d41e410, 2022-07-14)"
   xmlns:inkscape="http://www.inkscape.org/namespaces/inkscape"
   xmlns:sodipodi="http://sodipodi.sourceforge.net/DTD/sodipodi-0.dtd"
   xmlns="http://www.w3.org/2000/svg"
   xmlns:svg="http://www.w3.org/2000/svg"><defs
     id="defs16050" /><sodipodi:namedview
     id="namedview16048"
     pagecolor="#505050"
     bordercolor="#ffffff"
     borderopacity="1"
     inkscape:showpageshadow="0"
     inkscape:pageopacity="0"
     inkscape:pagecheckerboard="1"
     inkscape:deskcolor="#505050"
     showgrid="false"
     inkscape:zoom="1.1923159"
     inkscape:cx="289.7722"
     inkscape:cy="-93.934837"
     inkscape:window-width="1920"
     inkscape:window-height="1017"
     inkscape:window-x="-8"
     inkscape:window-y="-8"
     inkscape:window-maximized="1"
     inkscape:current-layer="Ebene_1"
     showguides="true" /><g
     id="g56670"><g
       id="g11681"
       transform="matrix(0.52294557,0,0,0.52294557,319.31212,-15.789473)"><rect
         style="fill:#000000;fill-opacity:1;stroke:none;stroke-width:3;stroke-linecap:round;stroke-linejoin:round;stroke-miterlimit:0;stroke-dasharray:none;stroke-opacity:1;paint-order:markers stroke fill"
         id="rect11563"
         width="464.64194"
         height="191.22449"
         x="197.09541"
         y="30.19334" /><path
         style="fill:#ffffff;fill-opacity:1;stroke:none;stroke-width:3;stroke-linecap:round;stroke-linejoin:round;stroke-miterlimit:0;stroke-dasharray:none;stroke-opacity:1;paint-order:markers stroke fill"
         d="M 213.8695,145.20061 314.82848,44.24163 h 10.58863 v 70.24145 l 70.24145,-70.24145 h 11.53218 V 145.20061 H 389.99731 V 73.386591 L 318.18329,145.20061 H 306.12692 V 74.644646 l -70.55596,70.555964 z"
         id="path10535" /><path
         style="fill:#ffffff;fill-opacity:1;stroke:none;stroke-width:3;stroke-linecap:round;stroke-linejoin:round;stroke-miterlimit:0;stroke-dasharray:none;stroke-opacity:1;paint-order:markers stroke fill"
         d="M 648.80021,145.20061 H 631.30514 V 82.879186 H 609.6587 V 72.204228 L 637.6213,44.24163 h 10.73412 z"
         id="path10537" /><path
         style="fill:#ffffff;fill-opacity:1;stroke:none;stroke-width:3;stroke-linecap:round;stroke-linejoin:round;stroke-miterlimit:0;stroke-dasharray:none;stroke-opacity:1;paint-order:markers stroke fill"
         d="m 531.3757,44.24163 h -19.12599 v 79.85475 c 0,13.93675 10.33184,21.10423 21.10423,21.10423 h 48.57952 c 9.3406,0 18.53292,-9.98448 18.53292,-21.10423 0,-11.11974 0.14826,-79.85475 0.14826,-79.85475 h -19.42249 v 70.95896 c 0,5.18921 -5.33748,12.75064 -11.56454,12.75064 -6.22706,0 -20.89717,0 -27.42871,0 -5.58098,0 -10.8232,-5.78223 -10.8232,-10.8232 z"
         id="path10543"
         sodipodi:nodetypes="ccssssccssssc" /><path
         style="fill:#ffffff;fill-opacity:1;stroke:none;stroke-width:3;stroke-linecap:round;stroke-linejoin:round;stroke-miterlimit:0;stroke-dasharray:none;stroke-opacity:1;paint-order:markers stroke fill"
         d="m 418.25078,145.20061 -0.14827,-19.47333 h 56.78485 c 5.63401,0 10.67496,-3.26179 10.67496,-10.0819 0,-6.82012 -3.70658,-10.3043 -12.67651,-10.3043 h -37.13996 c -10.08191,0 -17.64334,-12.824779 -17.64334,-21.127524 V 66.125433 c 0,-9.488851 9.63712,-21.883803 16.75376,-21.883803 h 68.05285 v 19.659853 h -57.22964 c -4.89268,0 -9.93363,1.77916 -9.93363,9.933642 0,5.782268 2.07568,11.119747 8.59927,11.119747 h 40.32762 c 11.11974,0 19.02997,12.383118 19.02997,30.284338 0,17.90123 -8.17624,29.9614 -19.01472,29.9614 z"
         id="path10604"
         sodipodi:nodetypes="ccsssssssccssssssc" /><path
         d="m 244.12864,175.21071 v 33.7665 h -9.53826 v -22.79603 l -3.81012,22.79603 h -6.7649 l -4.01748,-22.27462 v 22.27462 h -9.53826 v -33.7665 h 14.12596 q 0.62206,3.04504 1.32188,7.1746 l 1.50331,8.59284 2.48824,-15.76744 z"
         id="path11587"
         style="font-size:47.6168px;font-family:Impact;-inkscape-font-specification:'Impact, Normal';fill:#ffffff;stroke-width:2.67845;stroke-linecap:round;stroke-linejoin:round;stroke-miterlimit:0;paint-order:markers stroke fill" /><path
         d="m 248.50899,175.21071 h 18.19526 v 6.75747 h -7.28329 v 6.40292 h 6.81674 v 6.42376 h -6.81674 v 7.42488 h 8.00903 v 6.75747 h -18.921 z"
         id="path11589"
         style="font-size:47.6168px;font-family:Impact;-inkscape-font-specification:'Impact, Normal';fill:#ffffff;stroke-width:2.67845;stroke-linecap:round;stroke-linejoin:round;stroke-miterlimit:0;paint-order:markers stroke fill" /><path
         d="m 270.56621,175.21071 h 8.16454 q 7.90535,0 10.6787,0.58399 2.79927,0.58398 4.25076,1.91878 1.45147,1.33481 1.81433,2.98247 0.36287,1.6268 0.36287,6.42377 v 11.82557 q 0,4.54669 -0.5443,6.09006 -0.51839,1.52252 -1.84027,2.39849 -1.32187,0.85511 -3.26581,1.20967 -1.94393,0.3337 -5.85773,0.3337 h -13.76309 z m 10.91197,5.77722 v 22.21206 q 2.35865,0 2.90296,-0.75083 0.5443,-0.77169 0.5443,-4.15042 v -13.11867 q 0,-2.2942 -0.18144,-2.94075 -0.18143,-0.64655 -0.82941,-0.93854 -0.64798,-0.31285 -2.43641,-0.31285 z"
         id="path11591"
         style="font-size:47.6168px;font-family:Impact;-inkscape-font-specification:'Impact, Normal';fill:#ffffff;stroke-width:2.67845;stroke-linecap:round;stroke-linejoin:round;stroke-miterlimit:0;paint-order:markers stroke fill" /><path
         d="m 310.8187,175.21071 v 33.7665 h -10.91199 v -33.7665 z"
         id="path11593"
         style="font-size:47.6168px;font-family:Impact;-inkscape-font-specification:'Impact, Normal';fill:#ffffff;stroke-width:2.67845;stroke-linecap:round;stroke-linejoin:round;stroke-miterlimit:0;paint-order:markers stroke fill" /><path
         d="m 334.04229,175.21071 6.24653,33.7665 h -11.17117 l -0.54431,-6.06921 h -3.9138 l -0.64798,6.06921 H 312.7108 l 5.54671,-33.7665 z m -5.77997,21.71151 q -0.82943,-5.73551 -1.65884,-14.16149 -1.65882,9.67737 -2.07353,14.16149 z"
         id="path11595"
         style="font-size:47.6168px;font-family:Impact;-inkscape-font-specification:'Impact, Normal';fill:#ffffff;stroke-width:2.67845;stroke-linecap:round;stroke-linejoin:round;stroke-miterlimit:0;paint-order:markers stroke fill" /><path
         d="m 351.51181,175.21071 h 18.19526 v 6.75747 h -7.28328 v 6.40292 h 6.81675 v 6.42376 h -6.81675 v 7.42488 h 8.00903 v 6.75747 h -18.92101 z"
         id="path11597"
         style="font-size:47.6168px;font-family:Impact;-inkscape-font-specification:'Impact, Normal';fill:#ffffff;stroke-width:2.67845;stroke-linecap:round;stroke-linejoin:round;stroke-miterlimit:0;paint-order:markers stroke fill" /><path
         d="m 397.93307,175.21071 v 33.7665 h -9.56418 l -5.6763,-15.3503 v 15.3503 h -9.12355 v -33.7665 h 9.12355 l 6.11693,15.20431 v -15.20431 z"
         id="path11599"
         style="font-size:47.6168px;font-family:Impact;-inkscape-font-specification:'Impact, Normal';fill:#ffffff;stroke-width:2.67845;stroke-linecap:round;stroke-linejoin:round;stroke-miterlimit:0;paint-order:markers stroke fill" /><path
         d="m 427.40318,175.21071 v 33.7665 h -10.91197 v -14.18235 h -3.26582 v 14.18235 h -10.91198 v -33.7665 h 10.91198 v 12.07585 h 3.26582 v -12.07585 z"
         id="path11601"
         style="font-size:47.6168px;font-family:Impact;-inkscape-font-specification:'Impact, Normal';fill:#ffffff;stroke-width:2.67845;stroke-linecap:round;stroke-linejoin:round;stroke-miterlimit:0;paint-order:markers stroke fill" /><path
         d="m 450.62678,175.21071 6.24652,33.7665 h -11.17117 l -0.54431,-6.06921 h -3.91378 l -0.64798,6.06921 h -11.30077 l 5.5467,-33.7665 z m -5.77998,21.71151 q -0.82941,-5.73551 -1.65883,-14.16149 -1.65883,9.67737 -2.07354,14.16149 z"
         id="path11603"
         style="font-size:47.6168px;font-family:Impact;-inkscape-font-specification:'Impact, Normal';fill:#ffffff;stroke-width:2.67845;stroke-linecap:round;stroke-linejoin:round;stroke-miterlimit:0;paint-order:markers stroke fill" /><path
         d="m 483.10351,175.21071 v 33.7665 h -9.56418 l -5.67629,-15.3503 v 15.3503 h -9.12356 v -33.7665 h 9.12356 l 6.11692,15.20431 v -15.20431 z"
         id="path11605"
         style="font-size:47.6168px;font-family:Impact;-inkscape-font-specification:'Impact, Normal';fill:#ffffff;stroke-width:2.67845;stroke-linecap:round;stroke-linejoin:round;stroke-miterlimit:0;paint-order:markers stroke fill" /><path
         d="m 512.96241,189.93533 h -10.91197 v -5.88151 q 0,-2.56533 -0.36288,-3.19102 -0.33694,-0.64655 -1.52923,-0.64655 -1.34779,0 -1.71066,0.77168 -0.36287,0.77169 -0.36287,3.33702 v 15.68401 q 0,2.46105 0.36287,3.21189 0.36287,0.75082 1.63291,0.75082 1.2182,0 1.58106,-0.75082 0.3888,-0.75084 0.3888,-3.52474 v -4.23384 h 10.91197 v 1.31395 q 0,5.23496 -0.93309,7.42488 -0.90717,2.18992 -4.06931,3.83757 -3.13622,1.64766 -7.74984,1.64766 -4.79504,0 -7.90535,-1.39738 -3.11029,-1.39738 -4.12115,-3.85843 -1.01084,-2.48192 -1.01084,-7.44574 v -9.86506 q 0,-3.64987 0.31102,-5.46439 0.31104,-1.83535 1.84027,-3.52472 1.55515,-1.68937 4.27666,-2.64876 2.74743,-0.98025 6.29837,-0.98025 4.82096,0 7.95719,1.50166 3.13621,1.50166 4.12114,3.75415 0.98493,2.23163 0.98493,6.96603 z"
         id="path11607"
         style="font-size:47.6168px;font-family:Impact;-inkscape-font-specification:'Impact, Normal';fill:#ffffff;stroke-width:2.67845;stroke-linecap:round;stroke-linejoin:round;stroke-miterlimit:0;paint-order:markers stroke fill" /><path
         d="m 516.87622,175.21071 h 18.19527 v 6.75747 h -7.28329 v 6.40292 h 6.81674 v 6.42376 h -6.81674 v 7.42488 h 8.00903 v 6.75747 h -18.92101 z"
         id="path11609"
         style="font-size:47.6168px;font-family:Impact;-inkscape-font-specification:'Impact, Normal';fill:#ffffff;stroke-width:2.67845;stroke-linecap:round;stroke-linejoin:round;stroke-miterlimit:0;paint-order:markers stroke fill" /><path
         d="m 572.60245,175.21071 v 33.7665 h -9.53825 v -22.79603 l -3.81013,22.79603 h -6.7649 l -4.01747,-22.27462 v 22.27462 h -9.53827 v -33.7665 h 14.12596 q 0.62206,3.04504 1.32188,7.1746 l 1.50331,8.59284 2.48825,-15.76744 z"
         id="path11611"
         style="font-size:47.6168px;font-family:Impact;-inkscape-font-specification:'Impact, Normal';fill:#ffffff;stroke-width:2.67845;stroke-linecap:round;stroke-linejoin:round;stroke-miterlimit:0;paint-order:markers stroke fill" /><path
         d="m 576.98279,175.21071 h 18.19526 v 6.75747 h -7.28329 v 6.40292 h 6.81674 v 6.42376 h -6.81674 v 7.42488 h 8.00903 v 6.75747 h -18.921 z"
         id="path11613"
         style="font-size:47.6168px;font-family:Impact;-inkscape-font-specification:'Impact, Normal';fill:#ffffff;stroke-width:2.67845;stroke-linecap:round;stroke-linejoin:round;stroke-miterlimit:0;paint-order:markers stroke fill" /><path
         d="m 623.40406,175.21071 v 33.7665 h -9.56418 l -5.67629,-15.3503 v 15.3503 h -9.12356 v -33.7665 h 9.12356 l 6.11692,15.20431 v -15.20431 z"
         id="path11615"
         style="font-size:47.6168px;font-family:Impact;-inkscape-font-specification:'Impact, Normal';fill:#ffffff;stroke-width:2.67845;stroke-linecap:round;stroke-linejoin:round;stroke-miterlimit:0;paint-order:markers stroke fill" /><path
         d="m 649.76386,175.21071 v 6.75747 h -6.4798 v 27.00903 h -10.91198 v -27.00903 h -6.45387 v -6.75747 z"
         id="path11617"
         style="font-size:47.6168px;font-family:Impact;-inkscape-font-specification:'Impact, Normal';fill:#ffffff;stroke-width:2.67845;stroke-linecap:round;stroke-linejoin:round;stroke-miterlimit:0;paint-order:markers stroke fill" /><rect
         style="fill:#ff0000;fill-opacity:1;stroke:none;stroke-width:8.24821;stroke-linecap:round;stroke-linejoin:round;stroke-miterlimit:0;stroke-dasharray:none;stroke-opacity:1;paint-order:markers stroke fill"
         id="rect10326"
         width="441.39032"
         height="13.343698"
         x="208.30994"
         y="153.74905"
         sodipodi:insensitive="true" /></g><path
       id="polyline2177"
       d="m 19.76371,0 c -3.817631,0 -7.529613,3.1390316 -8.21126,7.0277738 v 0.070095 0.069079 0.069079 l -0.06909,0.069079 v 0.1412055 0.069079 l -0.0701,0.139174 V 7.794754 l -0.0701,0.1391739 v 0.2092688 l -0.06907,0.1391739 v 0.2092688 l -0.0701,0.2082529 -0.0701,0.2092688 -0.06907,0.4165057 -0.139174,0.4866007 -0.06806,0.4866005 -0.14019,0.486601 -0.07009,0.55568 -0.140189,0.556695 -0.138158,0.625774 -0.14019,0.556697 -0.208253,1.183485 -0.14019,0.626791 -0.1391738,0.55568 -0.068063,0.556695 -0.1401898,0.55568 -0.138158,0.557712 -0.070095,0.556695 -0.070095,0.486601 -0.1401897,0.417521 -0.070095,0.486601 v 0.209268 l -0.068063,0.139175 v 0.209269 0.139174 l -0.069079,0.209268 v 0.139174 0.140189 l -0.070095,0.139174 v 0.0701 0.06806 c -0.07111,1.701579 0.1655864,4.022837 0.6958695,4.454581 0.6755518,3.74652 13.1636158,21.088401 12.8039988,23.728641 -0.337269,2.647352 -1.809261,10.439058 -1.809261,10.439058 -0.453077,2.626018 -2.245068,4.729881 -4.87007,4.729881 -2.627035,0 -4.420041,-2.096752 -3.966964,-4.729881 L 14.056564,46.205734 H 4.7319128 L 1.599992,64.160181 c -0.637965,3.644935 1.829578,6.540158 5.4968612,6.540158 H 20.389484 c 3.681505,0 7.188281,-2.89624 7.861801,-6.540158 0,0 3.425507,-16.769945 3.409253,-17.954447 -0.01321,-1.192629 -0.346411,-1.322661 -0.346411,-1.322661 0,-1.36431 -11.112579,-19.707836 -12.247303,-20.390499 -0.488632,-0.285459 -0.890916,-2.10183 -0.906155,-3.199984 -0.02134,-1.091042 1.461834,-8.420528 1.461834,-8.420528 0.451046,-2.626019 2.939922,-4.730897 5.566957,-4.730897 2.626018,0 3.722139,2.104878 3.270078,4.730897 l -2.017513,11.620512 h 9.39373 L 39.10685,7.0257421 C 39.847417,3.1390316 37.358541,0 33.540909,0 Z M 45.370691,0 34.237795,64.162214 c -0.637965,3.644933 1.830594,6.540157 5.497876,6.540157 h 13.291616 c 3.681505,0 7.251264,-2.896239 7.932912,-6.540157 L 72.858043,0 H 64.508625 L 53.164428,62.350922 c -0.165586,0.90717 -1.044311,1.672118 -1.947418,1.672118 h -6.612284 c -0.925455,0 -1.543103,-0.758854 -1.392755,-1.672118 L 54.278835,0 Z M 77.381702,0 63.950914,70.701355 h 8.907129 L 78.98271,38.690343 h 11.34318 c 3.689633,0 7.186249,-2.916557 7.861802,-6.540158 L 103.05878,7.0277738 C 103.79427,3.1319206 101.31149,0 97.49487,0 H 86.289848 Z M 109.18447,0 95.268087,70.702371 h 20.040033 l 1.39174,-8.768972 h -9.88135 l 4.03706,-23.867815 h 9.88135 l 1.39072,-7.377232 h -9.87932 l 4.38347,-21.9203966 h 9.88237 L 127.90285,0 Z m 23.9379,0 -13.35967,70.701355 h 8.90814 l 6.05457,-32.011012 h 6.33293 c 0.83098,0.776123 0.93053,2.205449 1.04126,2.922652 0.16457,1.041264 0.3393,2.37002 0.21028,3.410268 -0.11479,1.033138 -4.87312,25.677076 -4.87312,25.677076 h 8.90917 c 0,0 5.01025,-26.848371 5.01025,-27.2791 0.0162,-0.437838 0,-1.813324 -0.48456,-2.574209 -0.32711,-0.4866 -0.88685,-1.608119 -1.53396,-2.016497 -1.2424,-0.797457 -2.64532,-1.324692 -2.64532,-1.324692 h -0.62882 c 2.55185,-1.003677 7.35488,-2.658526 7.86688,-5.356671 L 158.79945,7.0267579 C 159.54002,3.1319206 157.05215,0 153.23452,0 Z m 47.6696,0 -13.43282,70.702371 h 10.2298 l 8.27931,-40.987221 3.27212,40.987221 h 8.90916 L 211.48033,0 H 201.25054 L 194.29184,36.952193 189.69809,0 Z m 35.34915,0 -13.42875,70.702371 h 8.90713 L 225.04724,0 Z m 13.56692,0 -13.42876,70.702371 h 10.29989 l 8.28135,-40.987221 3.27008,40.987221 h 8.90916 L 260.46954,0 H 250.16965 L 243.28105,36.952193 238.68832,0 Z m 34.52021,0 -1.67211,8.7689713 h 5.56695 L 257.12733,70.702371 h 10.16274 L 278.49205,8.7689713 h 5.35667 L 285.24148,0 Z m 24.49359,0 -13.91638,70.702371 h 20.04003 l 1.39276,-8.768972 h -9.88135 l 4.10715,-23.867815 h 9.87932 l 1.39275,-7.377232 h -9.88134 l 4.31134,-21.9203966 h 9.88337 L 307.44225,0 Z m 22.61728,0 -13.43079,70.702371 h 10.29786 l 8.28338,-40.987221 3.27008,40.987221 h 8.90712 L 342.09858,0 H 331.79869 L 324.90806,36.952193 320.31533,0 Z m 35.4223,0 -13.43486,70.702371 h 20.32142 c 3.69066,0 7.25025,-2.896239 7.93494,-6.540157 L 372.36637,7.0287896 C 373.09779,3.1319206 370.61806,0 366.80043,0 Z m 38.20171,0 c -3.81966,0 -7.46054,3.1390316 -8.1432,7.0277738 l -9.95246,57.1334242 c -0.64507,3.644934 1.76761,6.540157 5.43083,6.540157 h 14.68234 c 3.68049,0 7.25025,-2.896239 7.93494,-6.540157 L 405.69902,7.0277738 C 406.43959,3.1390316 403.9436,0 400.1341,0 Z m -30.61826,8.1421809 h 4.10716 c 2.62499,0 4.41698,2.1048781 3.96391,4.7308961 l -8.76796,46.27786 c -0.45815,2.626019 -3.01001,4.802008 -5.63705,4.802008 h -4.03604 z m 35.83677,0 h 0.27936 c 2.62501,0 4.34893,2.1048781 3.89484,4.7308961 l -8.34738,46.27786 c -0.45613,2.617892 -2.87491,4.802008 -5.49788,4.802008 -2.62907,0 -3.72417,-2.175989 -3.27415,-4.802008 l 8.28136,-46.27786 0.067,-0.209268 0.0711,-0.20927 0.067,-0.277331 0.069,-0.209269 0.0711,-0.278348 0.067,-0.209268 0.0711,-0.209269 0.13714,-0.207237 0.069,-0.209269 0.14121,-0.209269 0.0691,-0.208253 0.13917,-0.209268 0.1412,-0.139174 0.13715,-0.2082533 0.1412,-0.2092687 0.20826,-0.1401898 0.13917,-0.1401897 0.1412,-0.139174 0.20623,-0.1401897 0.21029,-0.1391739 0.1412,-0.139174 0.20622,-0.1401897 0.21028,-0.069079 0.20826,-0.1391739 0.1412,-0.070095 0.2753,-0.070095 0.20826,-0.068063 h 0.20825 l 0.20825,-0.070095 h 0.27936 z M 85.940389,8.4205286 h 4.315406 c 0.947805,0 2.957192,2.1698934 2.784495,3.1319214 l -3.689632,17.466831 c -0.171682,0.904122 -1.39174,2.990715 -2.293831,2.990715 h -5.22156 -0.06907 -0.06907 l -0.0701,-0.06806 h -0.06806 -0.0701 -0.0701 -0.0701 v -0.0701 h -0.0701 -0.06907 l -0.07111,-0.06806 h -0.06907 l -0.06907,-0.0701 -0.06907,-0.06908 h -0.06907 v -0.07111 l -0.0701,-0.06908 -0.0701,-0.0701 v -0.06907 l -0.06907,-0.06907 -0.07111,-0.0701 v -0.06806 -0.07213 l -0.06908,-0.06908 v -0.06907 -0.06907 l -0.07111,-0.06909 v -0.06908 c 0,-0.115808 -0.01219,-0.289522 0,-0.418537 L 84.61777,8.978253 c 0.382982,-0.3159349 0.850281,-0.5577115 1.32266,-0.5577115 z m 55.460301,0 h 0.0711 0.0691 0.069 0.069 4.03807 c 0.94883,0 2.96837,2.1698934 2.78145,3.1319214 l -3.69064,17.396736 c -0.16051,0.911234 -2.42692,3.061826 -3.33714,3.061826 h -3.8288 c -0.78932,0 -1.33383,-0.519109 -1.39072,-1.249518 0,-0.115809 -0.0173,-0.282411 0,-0.418537 l 4.10614,-21.363701 0.0671,-0.069079 0.0711,-0.069079 0.13714,-0.070095 h 0.0681 l 0.0701,-0.069079 0.069,-0.069079 h 0.069 l 0.0691,-0.070095 h 0.0711 l 0.13714,-0.068063 h 0.069 0.0681 0.0681 V 8.424592 h 0.01 z M 0,76.826023 V 100 H 397.20941 V 76.826023 Z m 291.99598,2.435035 h 0.067 0.067 0.0711 0.0671 0.069 3.06386 c 0.82591,0 1.41815,0.660313 1.25155,1.530912 l -0.76596,3.898901 h -1.87733 l 0.41448,-2.575225 c 0.0955,-0.582092 -0.24788,-1.044312 -0.83505,-1.044312 -0.58107,0 -1.15504,0.460188 -1.25155,1.044312 l -0.34539,1.880372 c -0.0599,0.110729 0.11479,0.63898 0.20622,0.696885 0.25803,0.148317 2.7144,4.218899 2.7144,4.521628 0.0579,0.150348 0.0914,0.223491 0.0671,0.279363 -0.0691,0.50895 -0.76598,3.963917 -0.76598,3.963917 -0.14831,0.793393 -0.92037,1.460817 -1.73814,1.460817 h -2.92265 c -0.81168,0 -1.33383,-0.667424 -1.18451,-1.460817 l 0.69892,-3.963917 h 2.01752 l -0.48356,2.852558 c -0.0934,0.58006 0.24381,1.112375 0.83099,1.112375 0.5638,0 1.16315,-0.528251 1.25561,-1.112375 l 0.4165,-2.296878 c -0.37283,-0.959995 -2.83528,-4.458644 -2.99376,-5.289624 -0.10668,-0.09448 -0.15239,-0.596314 -0.13715,-0.974217 0.0213,-0.413458 0.55569,-2.992746 0.55569,-2.992746 h 0.0722 v -0.06907 -0.06704 -0.06909 l 0.067,-0.14019 v -0.06806 l 0.0671,-0.07111 v -0.06806 l 0.069,-0.06806 v -0.07111 l 0.0691,-0.06806 0.0711,-0.07111 v -0.06704 h 0.067 l 0.0711,-0.06907 0.067,-0.07111 0.069,-0.06704 v -0.07111 h 0.069 l 0.067,-0.06704 0.067,-0.06909 h 0.0711 l 0.0691,-0.06806 h 0.069 l 0.069,-0.06806 h 0.069 0.13917 z m 16.00195,0 h 2.50615 l 0.34743,5.916414 3.19998,-5.916414 h 2.50817 l -5.15045,9.047318 -1.25155,6.610252 h -2.22576 l 1.11542,-7.098883 z m 22.75747,0 h 0.0671 0.0711 0.067 0.0711 0.067 3.06182 c 0.82591,0 1.40292,0.660313 1.25155,1.530912 l -0.76596,3.898901 h -1.87935 l 0.41853,-2.575225 c 0.0935,-0.582092 -0.24584,-1.044312 -0.83504,-1.044312 -0.58108,0 -1.16114,0.460188 -1.25155,1.044312 l -0.34743,1.880372 c -0.0731,0.110729 0.0935,0.63898 0.20622,0.696885 0.24585,0.148317 2.7144,4.218899 2.7144,4.521628 0.0731,0.150348 0.0711,0.223491 0.0711,0.279363 -0.0955,0.50895 -0.69689,3.963917 -0.69689,3.963917 -0.15036,0.793393 -0.93053,1.460817 -1.74222,1.460817 h -2.9897 c -0.81167,0 -1.33485,-0.667424 -1.18652,-1.460817 l 0.69687,-3.963917 h 2.01955 l -0.4866,2.853573 c -0.0955,0.580061 0.26819,1.112375 0.83504,1.112375 0.57904,0 1.13676,-0.528251 1.25155,-1.112375 l 0.41651,-2.296877 c -0.38096,-0.959995 -2.83123,-4.458644 -2.99173,-5.289624 -0.10669,-0.09448 -0.15035,-0.596314 -0.13918,-0.974218 0.0213,-0.413458 0.55772,-2.992746 0.55772,-2.992746 l 0.067,-0.06908 v -0.06705 -0.06907 l 0.069,-0.140189 v -0.06806 l 0.069,-0.07111 v -0.06806 l 0.0691,-0.06806 v -0.07213 l 0.069,-0.06806 0.069,-0.07111 v -0.06704 h 0.0711 l 0.0651,-0.06907 0.069,-0.07111 0.069,-0.06704 0.0691,-0.07111 0.069,-0.06704 0.069,-0.06909 h 0.069 l 0.0711,-0.06806 h 0.067 l 0.069,-0.06806 h 0.067 0.13917 z m 16.21224,0 h 4.66486 l -0.34946,1.880371 h -1.1845 l -2.43401,13.778215 h -2.29587 l 2.43403,-13.778215 h -1.18248 z m 18.23178,0 h 4.1742 l -0.34946,1.880371 h -2.15669 l -0.97219,4.941181 h 2.22577 l -0.34946,1.598976 h -2.15871 l -0.90311,5.288608 h 2.15466 l -0.2753,1.948434 h -4.45459 z m 17.18849,0 h 2.57522 l 0.41447,9.047318 3.96798,-8.977224 2.50412,-0.0701 -2.64126,15.65757 H 387.26 l 1.24952,-8.279322 -3.48036,8.279322 h -1.39276 l -0.41447,-8.490623 -1.53193,8.490623 h -2.2979 z M 8.628782,79.819784 h 4.106138 l -0.279364,1.946404 H 10.22979 L 9.3256672,86.639306 H 11.48337 l -0.279363,1.671103 H 8.9772246 L 8.1431971,93.600032 H 10.299885 L 9.9514419,95.547451 H 5.4978772 Z m 19.205997,0 h 1.948435 l 1.043297,8.21126 1.529896,-8.21126 h 2.297894 l -2.993763,15.724619 h -1.947419 l -0.765964,-9.11843 -1.808245,9.11843 h -2.297893 z m 20.877101,0 h 4.592739 l -0.277332,1.946404 H 51.8438 L 49.33867,95.54542 h -2.224751 l 2.43402,-13.779232 h -1.252565 z m 20.250309,0 h 4.175217 l -0.348442,1.946404 h -2.157703 l -0.974218,4.873118 h 2.157703 l -0.278348,1.671103 h -2.156687 l -0.904122,5.289623 h 2.156687 l -0.277332,1.947419 H 65.90138 Z m 19.624536,0 h 4.452549 c 0.8259,0 1.348057,0.73041 1.183485,1.598977 l -1.043296,5.56594 c -0.115808,0.603425 -1.175359,1.095105 -1.741197,1.323675 h 0.14019 0.06907 0.07111 v 0.06806 h 0.06907 0.07111 0.06704 0.07111 l 0.06907,0.06806 h 0.06907 0.06907 0.07111 v 0.06806 h 0.06907 0.07111 v 0.07111 h 0.06907 c 0.09347,0.167618 0.138158,0.669457 0.138158,0.764949 0,0.09346 -1.114407,6.193747 -1.114407,6.193747 h -2.017514 c 0,0 1.077836,-5.479591 1.114407,-5.705115 0.02235,-0.243807 -0.02641,-0.537393 -0.06907,-0.764948 -0.01625,-0.168634 -0.02438,-0.457141 -0.209268,-0.627807 h -1.392755 l -1.321644,7.09787 h -2.01848 z m 19.900855,0 h 4.66182 l -0.27734,1.946404 h -1.18145 l -2.50614,13.779232 h -2.22679 l 2.43503,-13.779232 h -1.25155 z m 23.17297,0 h 2.64532 l -0.83505,15.724619 h -2.64532 l 0.34743,-3.619537 h -1.59898 l -1.32368,3.619537 h -2.36392 z m 18.51215,0 h 2.01752 l -2.99377,15.724619 h -1.94844 z m 17.95242,0 h 1.95046 l 1.04127,8.21126 1.53396,-8.21126 h 2.22576 l -2.92265,15.724619 h -2.01751 l -0.69688,-9.11843 -1.8113,9.11843 h -2.29383 z m 23.03582,0 h 2.57523 l 0.41446,9.116399 3.97001,-9.045287 h 2.50209 l -2.64329,15.656555 h -1.94843 l 1.25154,-8.281355 -3.48239,8.281355 h -1.39073 l -0.4165,-8.488592 -1.5299,8.488592 h -2.2278 z m 25.25955,0 h 4.10512 l -0.27936,1.946404 h -2.22577 l -0.90311,4.873118 h 2.1567 l -0.27937,1.671103 h -2.22373 l -0.90514,5.289623 h 2.22373 l -0.34743,1.947419 h -4.38244 z m 20.17819,0 h 1.94842 l 1.04534,8.21126 1.52989,-8.21126 h 2.22578 l -2.92062,15.724619 h -1.94844 l -0.76597,-9.11843 -1.81129,9.11843 h -2.29586 z m 20.66884,0 h 4.66284 l -0.34743,1.946404 h -1.18247 l -2.43605,13.779232 h -2.2278 l 2.43808,-13.779232 h -1.25155 z M 90.466081,81.696093 c -0.109714,0 -0.201142,0.06502 -0.28038,0.141205 l -0.904122,4.729881 c 0,0.03861 0,0.03251 0,0.07111 0,0.151365 0.10565,0.277332 0.278347,0.277332 h 0.834028 c 0.207237,0 0.728377,-0.417521 0.76698,-0.62679 l 0.762917,-3.896869 c 0.03657,-0.224507 -0.347427,-0.697901 -0.55568,-0.697901 z m 41.194469,4.731912 -1.46083,3.966964 h 1.1134 z"
       inkscape:connector-curvature="0"
       style="fill:#c40000;stroke-width:1.01587" /></g></svg>
