<?xml version="1.0" encoding="UTF-8" standalone="no"?>
<!-- Generator: Adobe Illustrator 13.0.0, SVG Export Plug-In . SVG Version: 6.00 Build 14948)  -->

<svg
   version="1.1"
   id="Layer_1"
   x="0px"
   y="0px"
   width="473.63583"
   height="100"
   viewBox="0 0 473.63584 100"
   enable-background="new -7.371 -3.275 580 130"
   xml:space="preserve"
   sodipodi:docname="turbografxcd.svg"
   inkscape:version="1.2.1 (9c6d41e410, 2022-07-14)"
   xmlns:inkscape="http://www.inkscape.org/namespaces/inkscape"
   xmlns:sodipodi="http://sodipodi.sourceforge.net/DTD/sodipodi-0.dtd"
   xmlns="http://www.w3.org/2000/svg"
   xmlns:svg="http://www.w3.org/2000/svg"><defs
     id="defs12146" /><sodipodi:namedview
     id="namedview12144"
     pagecolor="#505050"
     bordercolor="#ffffff"
     borderopacity="1"
     inkscape:showpageshadow="0"
     inkscape:pageopacity="0"
     inkscape:pagecheckerboard="1"
     inkscape:deskcolor="#505050"
     showgrid="false"
     inkscape:zoom="2.1275862"
     inkscape:cx="269.55429"
     inkscape:cy="75.202593"
     inkscape:window-width="1920"
     inkscape:window-height="1017"
     inkscape:window-x="-8"
     inkscape:window-y="-8"
     inkscape:window-maximized="1"
     inkscape:current-layer="Layer_1" /><g
     id="g12141"
     transform="matrix(0.8369041,0,0,0.8369041,-5.8583287,-3.3476164)">
	<g
   id="Layer_2">
		<g
   opacity="0.5"
   id="g12103">
			<polygon
   points="7,6.352 33.421,6.352 33.421,14.128 25.688,14.128 25.688,119.657 16.342,119.657 16.342,14.128 7,14.128 "
   id="polygon12083" />
			<path
   d="M 57.354,111.934 H 67.667 V 37.997 h 9.02 v 73.937 c 0,4.784 -4.349,8.175 -8.806,8.175 H 57.354 c -4.71,0 -8.914,-3.833 -8.914,-8.271 v -73.84 h 8.914 z"
   id="path12085" />
			<path
   d="m 251.322,56.057 h 13.776 v 64.123 h -19.412 c -4.151,0 -9.264,-3.177 -9.264,-7.997 V 15.25 c 0,-4.072 4.267,-8.409 9.06,-8.409 h 10.594 c 4.698,0 8.961,4.296 8.961,8.313 v 22.963 h -9.285 V 15.474 h -10.55 v 96.781 h 10.794 V 63.902 h -4.675 v -7.845 z"
   id="path12087" />
			<path
   d="m 384.532,80.826 v 38.868 h -8.697 V 45.253 c 0,-3.362 3.343,-7.026 7.571,-7.026 h 14.339 v 7.175 h -13.213 v 27.502 h 10.877 v 7.957 z"
   id="path12089" />
			<path
   d="m 415.385,38.247 h 9.129 v 29.65 l 5.154,5.183 5.047,-5.039 V 38.247 h 9.019 v 28.208 c 0,3.445 -8.91,12.52 -8.91,12.52 0,0 9.021,9.071 9.021,12.746 v 28.137 h -8.484 V 90.564 l -5.478,-5.538 -5.478,5.465 v 29.369 h -9.02 V 91.79 c 0,-3.452 9.554,-12.885 9.554,-12.885 0,0 -9.554,-8.975 -9.554,-12.591 z"
   id="path12091" />
			<path
   d="m 115.781,81.011 c 3.061,0 7.13,-3.659 7.13,-8.556 V 45.699 c 0,-3.85 -4.392,-7.434 -9.386,-7.434 H 94.999 v 81.757 h 8.54 v -38.41 h 3.222 l 9.504,38.265 h 8.377 z m -1.69,-7.993 H 103.86 V 46.186 h 10.231 z"
   id="path12093" />
			<path
   d="m 304.748,80.797 c 3.061,0 7.133,-3.666 7.133,-8.56 V 45.483 c 0,-3.848 -4.394,-7.437 -9.387,-7.437 h -18.525 v 81.762 h 8.532 V 81.392 h 3.227 l 9.506,38.265 h 8.376 z m -1.814,-8.088 H 292.71 V 45.884 h 10.224 z"
   id="path12095" />
			<path
   d="m 168.56,82.937 c -0.039,-3.663 -3.864,-5.98 -3.864,-5.98 0,0 3.864,-2.501 3.864,-5.979 V 46.02 c 0,-4.712 -4.147,-7.777 -8.375,-7.777 h -19.494 v 81.615 h 19.494 c 3.947,0 8.375,-2.466 8.375,-7.773 0,0.001 0.044,-25.487 0,-29.148 z m -8.779,28.925 h -10.228 v -30.42 h 10.228 z m 0,-38.866 H 149.553 V 46.167 h 10.228 z"
   id="path12097" />
			<path
   d="m 205.894,37.642 h -5.155 -4.994 c -5.115,0 -8.84,4.372 -8.84,7.7 v 66.281 c 0,4.285 4.772,8.169 8.801,8.169 h 11.035 c 4.309,0 8.618,-4.45 8.618,-7.998 V 45.116 c 0,-2.99 -4.069,-7.474 -9.465,-7.474 z m 0.322,73.725 h -9.881 V 45.715 h 9.881 z"
   id="path12099" />
			<path
   d="m 349.189,38.226 h -11.271 c -5.076,0 -8.056,4.184 -8.056,7.473 v 73.996 h 8.537 V 80.826 h 10.792 v 38.868 h 8.538 V 46.146 c 0,-4.882 -3.378,-7.92 -8.54,-7.92 z m -0.243,34.53 H 338.72 V 46.449 h 10.226 z"
   id="path12101" />
		</g>
	</g>
	<g
   id="Ebene_1">
		<g
   id="g12126">
			<polygon
   fill="#f79226"
   points="9.822,4 36.243,4 36.243,11.774 28.51,11.774 28.51,117.306 19.165,117.306 19.165,11.774 9.822,11.774 "
   id="polygon12106" />
			<path
   fill="#f79226"
   d="M 60.177,109.581 H 70.49 V 35.646 h 9.021 v 73.936 c 0,4.785 -4.349,8.175 -8.807,8.175 H 60.177 c -4.711,0 -8.914,-3.833 -8.914,-8.27 V 35.646 h 8.914 z"
   id="path12108" />
			<path
   fill="#e3e800"
   d="m 254.144,53.704 h 13.777 v 64.124 h -19.412 c -4.151,0 -9.264,-3.178 -9.264,-7.998 V 12.897 c 0,-4.071 4.267,-8.409 9.06,-8.409 h 10.593 c 4.698,0 8.962,4.298 8.962,8.314 v 22.965 h -9.285 V 13.122 h -10.55 v 96.78 h 10.794 V 61.551 h -4.675 z"
   id="path12110" />
			<path
   fill="#e3e800"
   d="m 387.354,78.475 v 38.868 h -8.697 V 42.9 c 0,-3.362 3.343,-7.026 7.571,-7.026 h 14.339 v 7.175 h -13.213 v 27.503 h 10.877 v 7.957 z"
   id="path12112" />
			<path
   fill="#e3e800"
   d="m 418.206,35.894 h 9.13 v 29.65 l 5.155,5.183 5.046,-5.038 V 35.894 h 9.02 v 28.21 c 0,3.445 -8.91,12.521 -8.91,12.521 0,0 9.019,9.07 9.019,12.746 v 28.137 h -8.483 V 88.213 l -5.478,-5.539 -5.478,5.467 v 29.368 h -9.021 V 89.438 c 0,-3.452 9.556,-12.885 9.556,-12.885 0,0 -9.556,-8.975 -9.556,-12.59 z"
   id="path12114" />
			<path
   fill="#f79226"
   d="m 118.604,78.658 c 3.061,0 7.129,-3.659 7.129,-8.555 V 43.347 c 0,-3.849 -4.39,-7.435 -9.385,-7.435 H 97.821 v 81.758 h 8.54 V 79.26 h 3.223 l 9.504,38.266 h 8.377 z m -1.691,-7.993 H 106.682 V 43.834 h 10.231 z"
   id="path12116" />
			<path
   fill="#e3e800"
   d="m 307.57,78.445 c 3.062,0 7.133,-3.666 7.133,-8.561 V 43.131 c 0,-3.85 -4.393,-7.437 -9.385,-7.437 h -18.526 v 81.761 h 8.533 V 79.039 h 3.226 l 9.506,38.266 h 8.376 z m -1.813,-8.088 H 295.532 V 43.529 h 10.225 z"
   id="path12118" />
			<path
   fill="#f79226"
   d="m 171.383,80.584 c -0.04,-3.663 -3.864,-5.98 -3.864,-5.98 0,0 3.864,-2.501 3.864,-5.979 V 43.667 c 0,-4.712 -4.146,-7.775 -8.375,-7.775 h -19.494 v 81.616 h 19.494 c 3.947,0 8.375,-2.467 8.375,-7.775 0,0 0.043,-25.488 0,-29.149 z m -8.779,28.927 H 152.375 V 79.09 h 10.229 z m 0,-38.866 H 152.375 V 43.816 h 10.229 z"
   id="path12120" />
			<path
   fill="#f79226"
   d="m 208.717,35.288 h -5.155 -4.995 c -5.116,0 -8.84,4.374 -8.84,7.7 v 66.282 c 0,4.285 4.772,8.171 8.801,8.171 h 11.035 c 4.309,0 8.619,-4.45 8.619,-7.997 v -66.68 c 0,-2.988 -4.07,-7.476 -9.465,-7.476 z m 0.322,73.728 h -9.881 V 43.363 h 9.881 z"
   id="path12122" />
			<path
   fill="#e3e800"
   d="m 352.013,35.874 h -11.271 c -5.078,0 -8.058,4.184 -8.058,7.474 v 73.996 h 8.537 V 78.475 h 10.793 v 38.868 h 8.538 V 43.794 c 0,-4.881 -3.378,-7.92 -8.539,-7.92 z m -0.245,34.53 H 341.545 V 44.097 h 10.223 z"
   id="path12124" />
		</g>
	</g>
	<g
   opacity="0.5"
   id="g12133">
		<g
   id="g12131">
			<path
   d="m 528.855,92.37 h 20.746 V 53.472 H 528.855 Z M 518.482,19.764 c -28.642,0 -51.862,23.218 -51.862,51.861 0,28.643 23.221,51.863 51.862,51.863 28.644,0 51.863,-23.221 51.863,-51.863 10e-4,-28.643 -23.219,-51.861 -51.863,-51.861 z m -2.591,38.896 h -5.188 V 56.067 L 508.11,53.472 H 487.365 V 92.37 h 20.745 l 2.593,-2.594 v -2.592 h 5.188 v 5.186 l -5.188,5.186 h -25.932 l -2.592,-2.592 V 50.88 l 2.592,-2.594 h 25.932 l 5.188,5.186 z m 38.896,33.71 -5.186,5.186 H 521.076 V 92.37 h 2.592 V 53.472 h -2.592 v -5.186 h 28.525 l 5.186,5.186 z"
   id="path12129" />
		</g>
	</g>
	<g
   id="g12139">
		<g
   id="g12137">
			<path
   fill="#f79226"
   d="m 521.076,17.169 c -28.644,0 -51.863,23.22 -51.863,51.863 0,28.644 23.22,51.863 51.863,51.863 28.643,0 51.862,-23.22 51.862,-51.863 0,-28.642 -23.219,-51.863 -51.862,-51.863 z m -2.594,38.898 h -5.187 v -2.595 l -2.593,-2.592 h -20.746 v 38.896 h 20.746 l 2.593,-2.592 V 84.59 h 5.187 v 5.186 l -5.187,5.188 H 487.364 L 484.77,92.37 V 48.287 l 2.594,-2.594 h 25.931 l 5.187,5.188 z m 38.897,33.709 -5.185,5.188 h -28.526 v -5.188 h 2.595 V 50.88 h -2.595 v -5.188 h 28.526 l 5.185,5.188 z m -25.931,0 h 20.746 V 50.88 h -20.746 z"
   id="path12135" />
		</g>
	</g>
</g></svg>
