<?xml version="1.0" encoding="UTF-8" standalone="no"?>
<svg
   viewBox="0 0 585.35763 99.999997"
   version="1.1"
   id="svg19636"
   sodipodi:docname="pc98.svg"
   xml:space="preserve"
   width="585.3576"
   height="100"
   inkscape:version="1.2.1 (9c6d41e410, 2022-07-14)"
   xmlns:inkscape="http://www.inkscape.org/namespaces/inkscape"
   xmlns:sodipodi="http://sodipodi.sourceforge.net/DTD/sodipodi-0.dtd"
   xmlns="http://www.w3.org/2000/svg"
   xmlns:svg="http://www.w3.org/2000/svg"><defs
     id="defs19640" /><sodipodi:namedview
     id="namedview19638"
     pagecolor="#505050"
     bordercolor="#ffffff"
     borderopacity="1"
     inkscape:showpageshadow="0"
     inkscape:pageopacity="0"
     inkscape:pagecheckerboard="1"
     inkscape:deskcolor="#505050"
     showgrid="false"
     inkscape:zoom="1.9391218"
     inkscape:cx="347.32217"
     inkscape:cy="62.39938"
     inkscape:window-width="1920"
     inkscape:window-height="1017"
     inkscape:window-x="-8"
     inkscape:window-y="-8"
     inkscape:window-maximized="1"
     inkscape:current-layer="svg19636" /><g
     id="g20752"
     transform="matrix(1.0020618,0,0,1.0020619,230.88573,94.773961)"><path
       d="m -177.35615,-92.008625 c -0.17139,0.628433 -0.80137,3.474138 -1.4684,6.650271 -0.29801,1.415904 -0.64542,3.037168 -0.77358,3.602294 -0.12815,0.566671 -0.47557,2.187935 -0.77357,3.603839 -0.54175,2.59636 -1.09452,5.190406 -1.65832,7.782068 -1.28929,5.902945 -2.16632,10.059557 -2.23889,10.616963 -0.14205,1.096283 -1.02835,0.802912 -2.42726,-0.804456 -3.15367,-3.559721 -6.31849,-7.109534 -9.49444,-10.649388 -3.52528,-3.934973 -7.04215,-7.877487 -10.55056,-11.827508 -2.39112,-2.71137 -4.80249,-5.404803 -7.23393,-8.080071 -0.95577,-1.040697 -1.18429,-0.965039 -2.75152,0.904819 -0.59446,0.710268 -2.81791,3.293482 -4.94099,5.740819 -8.27462,9.539209 -7.82376,8.717769 -5.40113,9.871183 4.33573,2.062865 5.19731,4.712474 3.73817,11.500166 -0.4416,2.052057 -1.19355,5.583325 -1.67221,7.848462 -0.47712,2.265137 -1.0546,4.985773 -1.28157,6.048087 -0.22544,1.06077 -0.75196,3.55134 -1.16577,5.532371 l -1.54406,7.334289 c -1.9625,9.279807 -2.00419,8.788795 0.6238,7.507225 0.92026,-0.449322 1.73398,-0.818352 1.80655,-0.818352 0.0726,0 1.20437,-0.498732 2.51528,-1.108636 1.30936,-0.611448 3.82927,-1.733981 5.59876,-2.493659 4.85453,-2.084482 4.83291,-1.644425 0.26249,-5.404213 -4.19676,-3.450977 -3.94507,-2.712915 -2.83644,-8.316313 2.51528,-12.716886 3.34598,-16.947613 3.34598,-17.047977 0,-0.458586 0.97122,0.0772 1.77722,0.982022 0.53733,0.602184 4.31101,4.857616 8.38579,9.457374 4.07323,4.601302 7.77126,8.768722 8.21595,9.264366 0.44469,0.4941 1.73089,1.945517 2.8596,3.227088 7.85155,8.904599 11.29789,12.729238 11.47083,12.729238 0.39528,0 0.62071,-0.696371 1.28929,-3.989853 0.37366,-1.838977 1.34797,-6.586964 2.16477,-10.550569 0.56962,-2.742746 1.12909,-5.487591 1.6784,-8.234477 0.10654,-0.566671 0.59909,-2.998567 1.09783,-5.404214 1.92853,-9.318408 3.30583,-16.042794 3.6903,-18.014559 0.58829,-3.026361 0.50954,-2.946069 6.13301,-6.264256 2.81174,-1.659866 5.15562,-3.145253 5.20658,-3.301203 0.0957,-0.284107 -1.00982,-1.012904 -8.52631,-5.621926 -4.56116,-2.796294 -4.93173,-2.961509 -5.12165,-2.271314 m 105.076436,0.514173 c -19.418108,1.855961 -33.875146,12.551671 -37.821766,27.981474 -5.78251,22.608141 11.61751,40.696815 33.663613,34.996142 3.546705,-0.917172 3.603836,-0.963494 4.917831,-3.869417 l 2.018088,-4.462336 c 0.910718,-2.018488 1.826871,-4.034523 2.748429,-6.048087 3.858608,-8.441381 4.280137,-9.638029 3.162237,-8.977171 -0.179111,0.104996 -0.787471,0.478659 -1.354142,0.833793 -7.283336,4.53954 -15.968676,6.624022 -21.074885,5.058344 -9.231941,-2.833352 -14.134331,-14.982024 -9.645749,-23.895888 3.835447,-7.615309 11.807434,-14.409178 17.596119,-14.992833 1.942429,-0.194551 1.329436,-0.849233 7.913309,8.455279 2.038161,2.879674 1.899195,2.834896 4.845264,1.598103 3.637807,-1.52862 4.355796,-1.899195 4.355796,-2.254329 0,-1.198192 -4.215287,-12.3494 -5.297673,-14.012354 -0.378295,-0.583655 -2.62336,-0.736517 -6.026471,-0.41072 m -89.679056,1.883754 c -0.3258,0.524981 0.46167,1.324804 2.40719,2.447337 2.90438,1.675306 2.98621,1.797287 2.65733,3.920371 -0.32117,2.069041 -3.26569,18.389767 -3.67024,20.344548 -0.33969,1.645969 -0.75659,1.953237 -3.18231,2.362413 -3.49266,0.586743 -3.83544,2.069042 -0.47865,2.069042 2.60791,0 2.7793,0.609904 1.73398,6.176244 -0.34978,1.86487 -0.69205,3.731141 -1.0268,5.598765 -2.33926,13.232603 -2.17868,12.584097 -3.25025,13.122975 -0.32889,0.166758 -1.55642,0.662402 -2.72682,1.104003 -1.17039,0.441602 -2.47358,1.094739 -2.89511,1.449873 -1.72008,1.446786 -2.98621,1.380391 24.75284,1.30782 l 25.52024,-0.06485 0.18529,-0.643874 c 0.10345,-0.355134 0.44006,-2.322268 0.75196,-4.374325 0.48638,-3.216279 1.51781,-9.604059 1.98566,-12.287637 0.17448,-0.997464 -0.35977,-1.158046 -0.95886,-0.287196 -5.85199,9.837213 -14.04941,13.331423 -21.82376,13.346864 -6.12375,0 -5.68523,0.382927 -4.83137,-4.216831 0.34433,-1.855961 0.87394,-4.764972 1.17658,-6.463439 0.30263,-1.698467 0.66086,-3.667145 0.79673,-4.374325 0.13588,-0.70718 0.48021,-2.618727 0.76431,-4.246168 0.71799,-4.099482 0.70873,-4.0686 1.29547,-4.385133 2.44116,-1.304732 8.44447,2.845704 10.62932,7.352818 0.54659,1.127165 1.08084,2.223448 1.18584,2.436529 0.36131,0.728797 0.90018,0.41072 1.08856,-0.643874 0.21308,-1.188927 1.70773,-9.236573 2.79784,-15.054594 0.41072,-2.192567 0.93261,-4.832911 1.15959,-5.8628 0.65159,-2.955333 0.46167,-2.93526 -2.77468,0.293372 -4.328,4.320282 -7.67862,6.336826 -10.87173,6.542186 -2.36705,0.151318 -2.66814,-0.126613 -2.24507,-2.075218 0.32271,-1.488475 2.78549,-15.846698 3.15761,-18.411384 0.41998,-2.898202 -0.27639,-2.671225 7.90713,-2.57395 8.08779,0.09728 7.76972,0.02007 10.11978,2.450425 2.15396,2.22808 4.49322,6.72593 4.97187,9.557738 0.34742,2.052057 1.23371,1.559502 1.51627,-0.838425 0.0896,-0.765854 0.64851,-4.09485 1.24143,-7.397596 0.59292,-3.301203 1.08547,-6.407854 1.09319,-6.903497 l 0.017,-0.900188 -25.0107,-0.06639 c -16.20184,-0.04169 -25.06629,0.02316 -25.16665,0.188375"
       style="fill:#ff0000;fill-rule:evenodd;stroke:none;stroke-width:1.54406"
       id="path17800"
       sodipodi:nodetypes="cccccccccccccccccccsccccsccccsccccccccccccccccccccccscccccccscccscccccccccsscccccccccccccccccccc" /><path
       id="path19634"
       style="fill:#ffffff;stroke:#000000;stroke-width:2.217;stroke-dasharray:none;stroke-opacity:1"
       d="m 147.79572,1.8849833 -25.91314,-0.197287 c 8.28379,-8.487715 14.43511,-14.9294183 18.45175,-19.3273353 3.87752,-4.217823 7.39722,-8.751094 10.52264,-13.55286 l -0.25049,-0.261561 c -1.91522,0.831258 -4.22501,1.247993 -6.93159,1.247993 -5.32894,0 -10.00171,-1.334448 -14.01837,-4.003344 -4.01886,-2.668895 -7.11778,-6.288761 -9.30345,-10.861792 -2.18566,-4.570817 -3.27849,-9.591618 -3.27849,-15.062413 0,-6.563633 1.32115,-12.380232 3.96567,-17.456454 2.64229,-5.074011 6.39072,-8.990898 11.23862,-11.746252 4.85014,-2.755343 10.35418,-4.134131 16.51658,-4.134131 6.36855,0 12.08319,1.412036 17.13947,4.233888 5.05847,2.82184 8.98203,6.825187 11.77062,12.01003 2.7886,5.184843 4.18289,11.234193 4.18289,18.145839 0,10.762037 -3.03908,20.956611 -9.11724,30.581488 -6.07817,9.624867 -14.40185,19.7529333 -24.97547,30.3841913 z m 13.55064,-62.2801783 c 0.0208,-2.195347 -0.53901,-4.357191 -1.62262,-6.266583 -1.04788,-1.865841 -2.55188,-3.435426 -4.37132,-4.561953 -1.81548,-1.132812 -3.91616,-1.724877 -6.056,-1.706852 -3.24746,0 -5.99394,1.225832 -8.24166,3.675272 -2.24774,2.451662 -3.37159,5.404297 -3.37159,8.860116 0,2.232211 0.49876,4.353582 1.49848,6.366335 0.99973,2.012762 2.39403,3.588831 4.1829,4.726002 1.78888,1.137161 3.76616,1.706849 5.93187,1.706849 3.37158,0 6.22225,-1.248003 8.55422,-3.741784 2.32974,-2.493771 3.49572,-5.512915 3.49572,-9.057402 z M -46.013692,-92.64941 c -0.762766,0.284107 -0.753502,-0.376751 -0.705636,48.980704 l 0.04632,47.6080323 h 19.300763 l 0.06485,-38.5752763 c 0.04787,-27.993826 0.143598,-38.671007 0.35359,-38.925777 0.656226,-0.79056 8.240654,-0.123525 12.190362,1.074666 4.8298225,1.46377 6.8201171,4.101026 6.8201171,9.032757 0,5.970884 -3.9728691,9.324584 -11.8661091,10.016324 -1.077754,0.09573 -2.086026,0.251681 -2.240432,0.347413 -0.453954,0.277931 -0.461674,18.034633 -0.0077,18.351165 0.708724,0.489468 8.833573,-0.271754 12.9762882,-1.21672 C 6.6712135,-39.549152 14.419312,-50.386916 13.17171,-67.08748 11.95499,-83.377324 2.3972526,-90.753303 -19.651938,-92.422433 c -4.227639,-0.321165 -25.612884,-0.503364 -26.361754,-0.226977 m 109.611346,-0.123525 c -25.784274,1.287747 -42.813723,20.813943 -42.822987,49.104229 -0.01081,31.273411 21.636926,51.4002461 50.801151,47.2328255 3.742803,-0.5342451 6.951362,-1.2105438 7.281791,-1.5332526 0.114261,-0.1096283 0.19764,-4.2369034 0.188376,-9.1717223 -0.02007,-9.4311246 -0.03551,-9.5546496 -1.165766,-9.2427496 -20.946732,5.780965 -38.536675,-9.111504 -36.438296,-30.850338 1.894563,-19.62656 18.175142,-30.89975 36.717771,-25.422965 1.689202,0.498732 1.650601,0.70718 1.650601,-8.933937 0,-6.588508 -0.0772,-8.794972 -0.324253,-9.131577 -0.747325,-1.020624 -10.715783,-2.306827 -15.888388,-2.048969 m 270.196776,0.134333 c -0.70718,0.260947 -0.79828,96.2783805 -0.0926,96.5501353 0.82607,0.3165325 18.25698,0.1729348 18.58432,-0.1544061 0.50027,-0.4987317 0.44314,-96.1579432 -0.0571,-96.3509512 -0.55741,-0.21308 -17.86479,-0.25477 -18.43455,-0.04632 m -45.66406,0.104997 c -20.24727,2.002647 -30.73762,14.827617 -32.70939,39.986548 -0.8307,10.603067 0.28566,21.780524 3.07269,30.753063 1.2476,4.014558 2.82563,7.531929 5.13554,11.450756 6.74755,11.4414921 19.35944,16.4782191 33.7995,13.4950932 11.85375,-2.44733668 18.88695,-8.7548259 23.52377,-21.0856972 7.89015,-20.991509 3.67332,-54.514617 -8.3472,-66.357566 -5.69758,-5.614206 -15.99029,-9.080623 -24.47491,-8.242197 m -74.37278,0.355134 c -12.44205,1.104003 -22.14493,8.711592 -25.10489,19.686778 -2.14007,7.931841 -1.00827,13.844051 4.43917,23.184076 0.91563,1.57031 1.74016,3.051064 1.8328,3.291938 0.14823,0.384471 -0.99591,1.937796 -2.29601,3.117459 -11.84913,10.752841 -9.31687,31.109741 5.04599,40.5624824 20.30903,13.3669356 48.07434,3.59303 51.60406,-18.1658774 1.57185,-9.692071 -0.25631,-14.9882 -7.92567,-22.96482 -1.33715,-1.389654 -1.96404,-2.226535 -1.83588,-2.444248 0.10808,-0.182199 0.56667,-0.795191 1.01908,-1.360318 2.7932,-3.498842 5.26061,-7.80986 5.88905,-10.294254 3.8478,-15.193561 -4.52874,-29.24606 -20.00331,-33.561711 -3.96361,-1.105548 -8.14493,-1.452961 -12.66439,-1.051505 m 7.40531,18.908571 c 6.38315,3.07577 6.69196,12.582553 0.50646,15.625897 -6.19323,3.051065 -12.9238,-0.997463 -12.9238,-7.769715 0,-6.78306 6.33065,-10.788354 12.41734,-7.856182 m 72.51683,0.731885 c 13.65722,6.505129 13.88265,50.208232 0.29337,56.819901 -9.34003,4.544171 -17.28731,-8.635933 -17.29348,-28.677845 -0.006,-20.261169 7.49024,-32.672331 17.00011,-28.142056 M 83.330754,-51.348866 c -0.09573,0.09573 -0.174479,3.279586 -0.174479,7.074888 v 6.900408 l 0.579023,0.138966 c 0.318077,0.0772 5.384141,0.108084 11.259293,0.07103 l 10.678729,-0.07103 v -14.155952 l -11.083273,-0.06639 c -6.097497,-0.03706 -11.163561,0.01081 -11.259293,0.10654 m 136.986006,16.702108 c 10.56446,2.49057 9.97772,18.189038 -0.74578,19.960076 -6.79542,1.122533 -12.11316,-3.088122 -12.33551,-9.764641 -0.2455,-7.430022 5.57252,-11.966473 13.08129,-10.195435" /></g></svg>
