<?xml version="1.0" encoding="UTF-8" standalone="no"?>
<!-- Created with Inkscape (http://www.inkscape.org/) -->

<svg
   width="385.54074"
   height="100"
   viewBox="0 0 385.54074 100"
   version="1.1"
   id="svg48725"
   xml:space="preserve"
   inkscape:version="1.2.1 (9c6d41e410, 2022-07-14)"
   sodipodi:docname="disegno.svg"
   xmlns:inkscape="http://www.inkscape.org/namespaces/inkscape"
   xmlns:sodipodi="http://sodipodi.sourceforge.net/DTD/sodipodi-0.dtd"
   xmlns="http://www.w3.org/2000/svg"
   xmlns:svg="http://www.w3.org/2000/svg"><sodipodi:namedview
     id="namedview48727"
     pagecolor="#505050"
     bordercolor="#ffffff"
     borderopacity="1"
     inkscape:showpageshadow="0"
     inkscape:pageopacity="0"
     inkscape:pagecheckerboard="1"
     inkscape:deskcolor="#505050"
     inkscape:document-units="px"
     showgrid="false"
     inkscape:zoom="1.4503086"
     inkscape:cx="185.13301"
     inkscape:cy="97.910194"
     inkscape:window-width="1920"
     inkscape:window-height="1017"
     inkscape:window-x="-8"
     inkscape:window-y="-8"
     inkscape:window-maximized="1"
     inkscape:current-layer="layer1" /><defs
     id="defs48722" /><g
     inkscape:label="Livello 1"
     inkscape:groupmode="layer"
     id="layer1"
     transform="translate(225.03115,-19.484542)"><g
       id="g58012"
       transform="matrix(0.50503282,0,0,0.50503282,-110.79749,9.5778899)"
       style="stroke:none;stroke-width:1.00062;stroke-dasharray:none;stroke-opacity:1"><path
         id="path57314"
         style="display:inline;opacity:1;fill:#595959;fill-opacity:1;stroke:none;stroke-width:1.00062;stroke-linecap:round;stroke-linejoin:round;stroke-miterlimit:0;stroke-dasharray:none;stroke-opacity:1;paint-order:markers stroke fill"
         d="m 232.26752,36.549199 c -14.56567,2.040513 -28.88836,6.721573 -42.04859,13.538708 l -3.88865,25.540044 -28.79411,-1.596285 c -5.15935,5.229371 -30.22967,17.10363 -30.22967,17.10363 l 7.16131,17.101554 17.09715,17.37831 -24.05848,16.77003 c 0,0 -5.12601,-9.31306 -5.67351,-5.66441 0.0611,12.77413 8.88652,30.36105 14.69207,40.8176 l 0.0114,-10e-4 27.47687,-0.64492 -13.37474,7.40594 7.30069,17.19462 c 10.15202,7.35609 22.52758,12.66562 36.6572,15.28176 l 21.85499,-17.69453 c 0,0 9.08117,11.6403 14.56501,18.54254 15.48182,-1.93283 30.05243,-6.60409 43.13793,-13.33976 1.6139,-9.61858 3.89434,-24.68169 3.89434,-24.68169 l 27.80399,1.62109 c 10.19078,-10.19365 18.25931,-21.89222 23.59907,-34.33693 l -7.78652,-16.84456 -8.77371,-1.45923 23.87865,-15.97941 c 0.003,-12.900849 -10.14342,-41.041625 -15.92465,-51.444208 l -20.60904,16.662816 6.01152,-24.627954 -7.57764,-16.398868 -51.45237,18.839219 z m 6.41563,56.511796 c 18.46986,0.182872 32.62921,12.574325 32.21147,29.318705 -0.47087,18.87359 -18.97419,37.10437 -42.25272,38.48654 -24.43926,1.4511 -39.85144,-16.25624 -34.0651,-36.88251 5.08372,-18.12142 24.90539,-31.112845 44.10635,-30.922735 z"
         sodipodi:nodetypes="ccccccccccccccccccccccccccccccssscs" /><path
         id="path50610"
         style="display:inline;opacity:1;fill:#d8d8d8;fill-opacity:1;stroke:none;stroke-width:1.00062;stroke-linecap:round;stroke-linejoin:round;stroke-miterlimit:0;stroke-dasharray:none;stroke-opacity:1;paint-order:markers stroke fill"
         d="m 224.85914,19.615857 c -14.56567,2.040513 -28.88836,6.721573 -42.04859,13.538708 l -3.88865,25.540044 -28.79411,-1.596285 c -9.84138,9.974937 -17.80358,21.521132 -23.06836,34.205147 l 17.09715,17.378269 -24.05848,16.77003 c 0,0 -0.0179,-0.009 -0.0181,-0.009 0.0611,12.77413 3.23111,24.70564 9.03666,35.16219 l 0.0114,-0.001 27.47687,-0.64492 -6.07405,24.60056 c 10.15202,7.35609 22.52758,12.66562 36.6572,15.28176 l 21.85499,-17.69453 c 0,0 9.08117,11.6403 14.56501,18.54254 15.48182,-1.93283 30.05243,-6.60409 43.13793,-13.33976 1.6139,-9.61858 3.89434,-24.68169 3.89434,-24.68169 l 27.80399,1.62109 c 10.19078,-10.19365 18.25931,-21.89222 23.59907,-34.33693 l -16.56023,-18.30379 23.87865,-15.979384 c 0.003,-12.900797 -3.21099,-24.805087 -8.99222,-35.20767 l -27.54147,0.42633 6.01152,-24.627954 C 288.66867,28.780371 276.41789,23.372629 262.80256,20.590474 l -22.99291,18.109489 z m 6.41563,56.511796 c 18.46986,0.182872 32.62921,12.574299 32.21147,29.318627 -0.47087,18.87359 -18.97419,37.10437 -42.25272,38.48654 -24.43926,1.4511 -39.85144,-16.25624 -34.0651,-36.88251 5.08372,-18.121375 24.90539,-31.112767 44.10635,-30.922657 z" /><path
         style="display:inline;fill:#ff9301;fill-opacity:1;stroke:#000000;stroke-width:4.9634;stroke-dasharray:none;stroke-opacity:1"
         d="m -193.15611,167.91142 c -13.37907,-1.30112 -22.16627,-6.62511 -26.99251,-16.35423 -1.30075,-2.62216 -2.46823,-6.34763 -3.07896,-9.82507 -0.44824,-2.55223 -0.48791,-4.58527 -0.48791,-25.00312 0,-19.854514 0.0482,-22.478982 0.452,-24.606251 2.2229,-11.710868 7.93604,-19.315382 17.4792,-23.265783 4.35202,-1.801527 8.45621,-2.658091 14.66218,-3.060083 5.1148,-0.331309 46.14556,-0.329322 51.26911,0.0024 5.28619,0.342339 8.36981,0.88592 12.18126,2.147321 9.39659,3.109796 15.43701,9.090374 18.52941,18.345832 2.00573,6.003097 2.34274,11.382822 2.16354,34.537524 -0.14515,18.75572 -0.26537,20.60802 -1.69155,26.06146 -2.99072,11.436 -9.69795,17.94235 -21.18583,20.55133 -2.56869,0.58336 -2.68439,0.58568 -31.81453,0.6364 -16.08005,0.028 -30.24849,-0.0475 -31.48541,-0.16781 z m 53.66443,-27.90994 c 0.83957,-0.24933 1.72773,-0.76249 2.28612,-1.32088 1.74058,-1.74058 1.72861,-1.59007 1.72861,-21.75017 0,-12.80268 -0.0893,-18.445841 -0.3056,-19.304726 -0.20051,-0.796309 -0.67818,-1.60065 -1.38906,-2.339033 -1.98201,-2.058686 -0.76582,-1.973297 -28.10596,-1.973297 -16.18135,0 -24.58466,0.09358 -25.47087,0.283633 -1.80657,0.38744 -3.3805,1.585183 -4.08429,3.108106 -0.56694,1.226791 -0.57303,1.411647 -0.64551,19.601287 -0.0633,15.87597 -0.0181,18.55204 0.33301,19.76001 0.61702,2.12251 1.93215,3.43492 4.10407,4.09559 0.36475,0.11095 11.80367,0.21196 25.41984,0.22447 21.57369,0.0198 24.93319,-0.0297 26.12964,-0.38499 z m 37.53094,28.0149 c -0.0983,-0.0983 -0.17871,-23.13565 -0.17871,-51.19414 V 65.806789 l 0.60076,-0.150781 c 0.33042,-0.08293 19.648312,-0.106469 42.92865,-0.05231 46.392166,0.107924 44.778417,0.05429 51.059136,1.696821 12.6254457,3.301785 19.993705,11.639406 21.841262,24.714683 0.405071,2.866729 0.404185,9.823608 -0.0016,12.542968 -1.941875,13.01343 -9.1866243,21.22833 -21.5750775,24.46421 -5.6718835,1.4815 -4.5267245,1.43192 -36.6447915,1.58638 l -29.765639,0.14316 -0.132291,18.65312 -0.132292,18.65312 -13.910358,0.0685 c -7.650697,0.0376 -13.990769,-0.012 -14.089059,-0.11025 z m 88.059836,-69.808214 v -4.7625 h -29.897917 -29.897917 l -0.0728,4.488201 c -0.04004,2.468513 -0.01381,4.641913 0.05828,4.829783 0.106222,0.27681 5.789242,0.32882 29.970714,0.2743 l 29.83964,-0.0673 z m 77.779219,69.653904 c -0.06916,-0.18319 -0.155125,-17.00182 -0.191029,-37.37474 L 63.622013,93.445666 41.661596,93.313374 19.701179,93.181082 19.632605,79.572157 c -0.05398,-10.711781 0.0024,-13.65395 0.264583,-13.820428 0.183237,-0.116324 26.310056,-0.213326 58.05958,-0.215554 52.768472,-0.0037 57.763062,0.03262 58.153322,0.422868 0.38622,0.386202 0.41008,1.679514 0.25038,13.559896 -0.0991,7.370463 -0.28358,13.248721 -0.42048,13.396764 -0.15703,0.16986 -7.89397,0.2926 -21.72885,0.344704 -11.81671,0.04451 -21.633365,0.130268 -21.814763,0.19058 -0.26088,0.08673 -0.343853,7.897583 -0.396875,37.358423 l -0.06707,37.24875 -13.96418,0.0685 c -11.031061,0.0541 -13.990584,-0.002 -14.089935,-0.26458 z m 84.286565,0.1252 c -3.5606,-0.039 -6.56923,-0.16631 -6.68586,-0.28293 -0.25046,-0.25045 -0.32208,-101.610976 -0.072,-101.861076 0.19021,-0.190206 27.66812,-0.06489 27.98215,0.127611 0.10914,0.0669 0.19844,22.978356 0.19844,50.914335 0,40.39758 -0.0677,50.81578 -0.33073,50.90553 -0.46895,0.16001 -13.41319,0.28062 -21.09203,0.19653 z m 80.82172,-0.0818 c -27.93627,-0.16455 -26.99536,-0.11819 -32.41146,-1.59676 -2.28836,-0.62471 -7.23834,-2.91752 -9.40848,-4.35799 -1.97403,-1.31028 -5.33186,-4.66432 -6.72838,-6.72078 -1.20478,-1.77414 -3.39953,-6.22385 -4.07337,-8.25848 -0.77927,-2.35311 -1.48187,-6.50036 -1.7699,-10.44727 -0.18576,-2.54598 -0.24828,-10.54941 -0.17542,-22.45872 0.0969,-15.835959 0.17836,-18.896778 0.56515,-21.234166 1.26958,-7.671993 3.93097,-13.34934 8.34824,-17.808649 5.69487,-5.749017 12.93035,-8.531695 24.03086,-9.241935 4.8686,-0.311507 50.98008,-0.210193 54.16651,0.119012 8.47746,0.87585 17.28644,4.728681 21.18566,9.266081 0.51136,0.595083 1.14464,1.320091 1.40729,1.611133 1.24058,1.374801 3.51661,5.275104 4.40037,7.540625 1.16917,2.997269 2.14577,6.707555 2.41705,9.182663 0.2409,2.198283 0.25114,44.776526 0.0114,47.159566 -0.43196,4.2924 -1.90545,9.43831 -3.67842,12.84631 -4.09972,7.88048 -9.98233,12.08449 -19.65785,14.04846 -2.49751,0.50695 -6.28841,0.54139 -38.62917,0.3509 z m 29.7099,-27.92086 c 1.72649,-0.48108 3.21763,-1.88681 3.76624,-3.55047 0.32806,-0.99482 0.395,-4.12612 0.41849,-19.57282 0.0271,-17.82917 0.0116,-18.432808 -0.50644,-19.843749 -0.63656,-1.733296 -1.59197,-2.69743 -3.29398,-3.324035 -1.15144,-0.423918 -3.20225,-0.46968 -24.93484,-0.556403 -15.44386,-0.06163 -24.30899,5.3e-4 -25.48805,0.17898 -3.30848,0.50047 -4.84241,1.759742 -5.57647,4.577959 -0.33887,1.301067 -0.37488,4.071278 -0.25262,19.436558 0.15669,19.68914 0.15393,19.65594 1.76369,21.26568 1.72175,1.72177 1.18843,1.66739 17.77949,1.81293 22.4264,0.19672 34.6056,0.0543 36.32449,-0.42463 z m 48.20989,27.94591 -10.45104,-0.13691 -0.0668,-50.78609 c -0.037,-28.134504 0.0348,-50.887676 0.16095,-51.01385 0.12525,-0.12527 19.20534,-0.25059 42.40017,-0.278493 43.87096,-0.05277 43.8064,-0.05414 49.18384,1.038927 11.81415,2.401437 19.97311,9.665406 23.14313,20.604482 1.66487,5.745104 1.59541,3.827166 1.59541,44.054814 v 36.64479 H 398.8491 384.82618 l -0.13229,-35.05729 -0.13229,-35.057288 -0.57235,-1.238469 c -0.71816,-1.553999 -2.31018,-2.743883 -4.14335,-3.096734 -0.83605,-0.160922 -11.8845,-0.295523 -28.35722,-0.345469 l -26.9875,-0.08183 v 37.17396 c 0,20.44568 -0.0963,37.32279 -0.21405,37.50469 -0.15634,0.24156 -1.11934,0.31414 -3.57187,0.2692 -1.84682,-0.0338 -8.0608,-0.12314 -13.80887,-0.19844 z m 111.18689,-0.0486 c -0.40582,-0.40581 -0.4707,-26.3057 -0.0675,-26.94356 0.2208,-0.3493 5.52397,-0.41273 44.24751,-0.52916 l 43.99664,-0.1323 v -4.76249 -4.7625 l -29.89792,-0.15117 c -29.31877,-0.14824 -29.95628,-0.16237 -32.91162,-0.72912 -14.88657,-2.85484 -23.17756,-11.14815 -25.1741,-25.18117 -0.37365,-2.62621 -0.36904,-9.669293 0.008,-12.423852 1.81864,-13.28266 9.34945,-21.778782 22.201,-25.046847 6.14387,-1.562343 4.50879,-1.510823 51.28861,-1.616096 l 42.92865,-0.0966 v 13.90238 13.902383 l -44.11928,0.06692 -44.11927,0.06692 v 4.7625 4.762502 l 29.36875,0.14606 c 26.06419,0.12963 29.66646,0.19698 32.01459,0.59855 14.93332,2.55386 23.13908,9.80852 26.09212,23.06789 0.77896,3.49756 0.97623,11.17239 0.38947,15.15129 -1.96863,13.34895 -9.21017,21.39237 -22.20873,24.6679 -5.78686,1.45825 -4.22172,1.41146 -50.57921,1.51226 -33.95413,0.0738 -43.20079,0.0243 -43.45781,-0.23269 z"
         id="path50556" /></g></g></svg>
