<?xml version="1.0" encoding="UTF-8" standalone="no"?>
<!-- Generator: Adobe Illustrator 16.0.3, SVG Export Plug-In . SVG Version: 6.00 Build 0)  -->

<svg
   version="1.1"
   x="0px"
   y="0px"
   width="542.46387"
   height="100"
   viewBox="0 0 542.46385 99.999998"
   enable-background="new 0 0 566.929 104.51"
   xml:space="preserve"
   id="svg42053"
   sodipodi:docname="atarilynx.svg"
   inkscape:version="1.2.1 (9c6d41e410, 2022-07-14)"
   xmlns:inkscape="http://www.inkscape.org/namespaces/inkscape"
   xmlns:sodipodi="http://sodipodi.sourceforge.net/DTD/sodipodi-0.dtd"
   xmlns="http://www.w3.org/2000/svg"
   xmlns:svg="http://www.w3.org/2000/svg"><defs
   id="defs42057" /><sodipodi:namedview
   id="namedview42055"
   pagecolor="#505050"
   bordercolor="#ffffff"
   borderopacity="1"
   inkscape:showpageshadow="0"
   inkscape:pageopacity="0"
   inkscape:pagecheckerboard="1"
   inkscape:deskcolor="#505050"
   showgrid="false"
   inkscape:zoom="1.9349865"
   inkscape:cx="283.20611"
   inkscape:cy="52.196747"
   inkscape:window-width="1920"
   inkscape:window-height="1017"
   inkscape:window-x="-8"
   inkscape:window-y="-8"
   inkscape:window-maximized="1"
   inkscape:current-layer="svg42053" />

<g
   id="g43189"
   transform="scale(0.95684621)"><path
     d="m 566.929,84.51 c 0,11 -9,20 -20,20 H 20 c -11,0 -20,-9 -20,-20 V 20 C 0,9 9,0 20,0 h 526.929 c 11,0 20,9 20,20 z"
     id="path42025" /><polygon
     fill="#ff0000"
     points="432.612,68.958 384.13,86.539 432.921,86.539 451.475,76.296 "
     id="polygon42030" /><polygon
     fill="#ff0000"
     points="521.617,57.097 491.545,57.097 470.401,47.377 457.365,52.681 387.336,18.221 444.932,18.221 "
     id="polygon42032" /><polygon
     fill="#ffcc00"
     points="494.603,36.031 543.091,18.458 494.302,18.458 475.749,28.693 "
     id="polygon42034" /><polygon
     fill="#ffcc00"
     points="405.605,47.892 435.676,47.892 456.822,57.613 469.857,52.308 539.886,86.768 482.291,86.768 "
     id="polygon42036" /><rect
     x="23.837"
     y="17.749001"
     fill="#ffcc00"
     width="38.174999"
     height="46.650002"
     id="rect42038" /><rect
     x="23.837"
     y="70.110001"
     fill="#ffcc00"
     width="97.823997"
     height="14.281"
     id="rect42040" /><polygon
     fill="#ffcc00"
     points="85.87,17.749 131.21,17.749 162.227,43.926 139.807,60.375 "
     id="polygon42042" /><polygon
     fill="#ffcc00"
     points="143.136,84.392 178.927,84.392 178.927,62.967 248.125,17.749 214.718,17.749 145.526,62.967 143.136,62.967 "
     id="polygon42044" /><polygon
     fill="#ffcc00"
     points="252.899,24.885 291.074,48.686 291.074,84.392 252.899,84.392 "
     id="polygon42046" /><polygon
     fill="#ffcc00"
     points="355.498,84.392 376.972,84.392 376.972,17.742 358.361,17.742 358.361,64.613 288.69,17.749 257.667,17.749 "
     id="polygon42048" /></g>
</svg>
