<?xml version="1.0" encoding="UTF-8" standalone="no"?>
<svg
   height="100"
   viewBox="0 0 789.6333 100"
   width="789.6333"
   version="1.1"
   id="svg104273"
   sodipodi:docname="supervision.svg"
   inkscape:version="1.2.1 (9c6d41e410, 2022-07-14)"
   xmlns:inkscape="http://www.inkscape.org/namespaces/inkscape"
   xmlns:sodipodi="http://sodipodi.sourceforge.net/DTD/sodipodi-0.dtd"
   xmlns:xlink="http://www.w3.org/1999/xlink"
   xmlns="http://www.w3.org/2000/svg"
   xmlns:svg="http://www.w3.org/2000/svg">
  <defs
     id="defs104277">
    <linearGradient
       inkscape:collect="always"
       xlink:href="#a"
       id="linearGradient105011"
       gradientUnits="userSpaceOnUse"
       x1="321.90399"
       y1="108.316"
       x2="321.90399"
       y2="16.729" />
    <linearGradient
       inkscape:collect="always"
       xlink:href="#a"
       id="linearGradient105013"
       gradientUnits="userSpaceOnUse"
       x1="321.90399"
       y1="108.316"
       x2="321.90399"
       y2="16.729" />
  </defs>
  <sodipodi:namedview
     id="namedview104275"
     pagecolor="#505050"
     bordercolor="#ffffff"
     borderopacity="1"
     inkscape:showpageshadow="0"
     inkscape:pageopacity="0"
     inkscape:pagecheckerboard="1"
     inkscape:deskcolor="#505050"
     showgrid="false"
     inkscape:zoom="0.80655702"
     inkscape:cx="425.88433"
     inkscape:cy="55.792708"
     inkscape:window-width="1920"
     inkscape:window-height="1017"
     inkscape:window-x="-8"
     inkscape:window-y="-8"
     inkscape:window-maximized="1"
     inkscape:current-layer="svg104273" />
  <linearGradient
     id="a">
    <stop
       offset="0"
       stop-color="#d03f64"
       id="stop104244" />
    <stop
       offset=".265"
       stop-color="#d03f64"
       id="stop104246" />
    <stop
       offset=".6"
       stop-color="#2b5070"
       id="stop104248" />
    <stop
       offset="1"
       stop-color="#2a5070"
       id="stop104250" />
  </linearGradient>
  <linearGradient
     id="b"
     gradientUnits="userSpaceOnUse"
     x1="321.90399"
     x2="321.90399"
     xlink:href="#a"
     y1="108.316"
     y2="16.729" />
  <linearGradient
     id="c"
     gradientTransform="matrix(16.42172,0,0,14.95713,-1129.99,-1893.698)"
     gradientUnits="userSpaceOnUse"
     x1="136.468"
     x2="136.468"
     xlink:href="#a"
     y1="137.76601"
     y2="126.873" />
  <g
     id="g105387"
     transform="matrix(1.1522197,0,0,1.1522197,-1.6686108e-4,-1.1948519)">
    <text
       fill="#ef00eb"
       font-family="TrasksHand"
       font-size="2px"
       stroke="#0105ff"
       stroke-width="2.5"
       x="488.82199"
       y="2.7019997"
       id="text104257"><tspan
         fill="#fafafa"
         fill-opacity="0.4"
         stroke="none"
         x="488.82199"
         y="2.7019997"
         id="tspan104255">John Loreth 2022</tspan></text>
    <g
       fill="url(#b)"
       stroke="#ffffff"
       transform="translate(-24.707,-18.323)"
       id="g104265"
       style="fill:url(#b)">
      <path
         d="M 78.08,28.725 70.085,39.49 q -5.33,-6.543 -13.093,-6.543 -4.17,0 -7.415,2.638 -3.244,2.533 -3.244,6.332 0,2.638 1.854,4.749 1.97,2.005 4.982,3.377 3.128,1.266 6.836,2.638 3.708,1.372 7.3,3.271 3.707,1.794 6.72,4.327 3.128,2.427 4.982,6.649 1.97,4.115 1.97,9.497 0,12.136 -7.764,19.735 -7.762,7.492 -20.971,7.492 -16.684,0 -26.88,-15.513 l 11.007,-9.814 q 1.853,4.854 6.14,8.231 4.403,3.377 9.617,3.377 5.098,0 8.11,-3.377 3.129,-3.377 3.129,-8.126 0,-6.754 -8.458,-10.447 -1.39,-0.634 -6.72,-2.533 -9.617,-3.588 -14.6,-8.337 -4.865,-4.854 -4.865,-13.402 0,-10.026 7.299,-16.885 7.3,-6.965 18.19,-6.965 6.026,0 12.978,2.533 7.067,2.427 10.89,6.331 z M 88.169,69.566 V 21.97 H 105.2 v 44.534 q 0,3.588 0.116,6.332 0.231,2.638 1.158,6.227 0.927,3.482 2.433,5.698 1.507,2.216 4.519,3.8 3.012,1.582 7.184,1.582 4.17,0 7.183,-1.583 3.013,-1.583 4.519,-3.799 1.506,-2.216 2.433,-5.698 0.927,-3.589 1.043,-6.227 0.232,-2.744 0.232,-6.332 V 21.971 h 17.032 v 47.595 q 0,15.618 -7.88,24.905 -7.878,9.181 -24.562,9.181 -16.685,0 -24.564,-9.181 -7.878,-9.287 -7.878,-24.905 z m 94.037,2.216 v 29.76 h -17.032 v -79.57 h 23.173 q 30.24,0 30.24,24.694 0,12.558 -7.183,18.89 -7.183,6.226 -20.74,6.226 z m 0,-36.936 v 24.061 h 3.476 q 8.227,0 11.818,-2.533 3.708,-2.532 3.708,-9.814 0,-7.07 -3.94,-9.392 -3.939,-2.322 -12.05,-2.322 z m 89.406,0.634 h -28.155 v 17.517 h 27.112 v 13.508 h -27.112 v 21.529 h 28.155 v 13.508 h -45.187 v -79.57 h 45.187 z m 46.478,32.392 25.13,33.67 h -21 L 300.63,69.354 h -0.236 v 32.188 H 283.051 V 21.709 h 23.478 q 13.922,0 21.826,5.929 7.905,5.823 7.905,18.105 0,8.047 -4.837,14.506 -4.837,6.352 -13.332,7.623 z M 300.394,34.414 V 58.45 h 2.242 q 7.904,0 12.033,-2.647 4.248,-2.753 4.248,-9.635 0,-6.882 -4.248,-9.318 -4.129,-2.435 -11.915,-2.435 z m 57.231,-12.443 20.971,53.61 h 0.232 l 19.465,-53.61 H 416.6 l -33.948,81.681 h -9.965 l -33.369,-81.68 z m 80.179,0 v 79.57 h -17.032 v -79.57 z m 62.785,7.241 -7.995,10.706 q -5.33,-6.507 -13.092,-6.507 -4.171,0 -7.416,2.624 -3.244,2.519 -3.244,6.298 0,2.624 1.854,4.723 1.97,1.994 4.982,3.359 3.129,1.26 6.836,2.624 3.708,1.364 7.3,3.254 3.707,1.784 6.72,4.303 3.128,2.414 4.982,6.613 1.97,4.093 1.97,9.446 0,12.071 -7.763,19.628 -7.763,7.453 -20.972,7.453 -16.684,0 -26.88,-15.43 l 11.007,-9.761 q 1.854,4.828 6.14,8.187 4.404,3.359 9.617,3.359 5.098,0 8.11,-3.36 3.13,-3.358 3.13,-8.081 0,-6.718 -8.459,-10.392 -1.39,-0.63 -6.72,-2.519 -9.617,-3.569 -14.599,-8.292 -4.866,-4.828 -4.866,-13.33 0,-9.972 7.3,-16.794 7.299,-6.928 18.19,-6.928 6.025,0 12.977,2.52 7.067,2.414 10.891,6.297 z m 27.981,-7.241 v 79.57 h -17.033 v -79.57 z"
         id="path104259"
         style="fill:url(#linearGradient105011)" />
      <path
         d="m 1113.838,3.076 c -24.872,0 -45.498,8.23 -61.873,24.694 -16.376,16.462 -24.563,36.092 -24.563,58.886 0,22.005 7.286,40.975 21.858,56.912 l 20.455,-32.714 c -4.725,-8.26 -7.09,-16.749 -7.09,-25.465 0,-13.368 4.867,-25.326 14.6,-35.88 9.887,-10.552 22.091,-15.83 36.613,-15.83 14.522,0 26.648,5.278 36.38,15.83 9.888,10.554 14.83,22.512 14.83,35.88 0,8.425 -2.206,16.637 -6.62,24.636 l 20.187,33.098 c 14.438,-15.845 21.656,-34.667 21.656,-56.467 0,-22.794 -8.187,-42.424 -24.562,-58.886 C 1159.334,11.307 1138.71,3.076 1113.838,3.076 Z"
         fill="url(#c)"
         stroke-width="2"
         transform="matrix(0.5,0,0,0.5,24.707,18.323)"
         id="path104261"
         style="fill:url(#c)" />
      <path
         d="M 632.4,101.542 V 19.86 h 12.538 l 46.96,55.614 h 0.236 V 21.971 h 17.388 v 81.154 H 696.984 L 650.024,47.51 h -0.236 v 54.032 z"
         id="path104263"
         style="fill:url(#linearGradient105013)" />
    </g>
    <path
       d="m 557.37,28.183 36.074,59.143 h -73.05 z"
       fill="#3aa932"
       stroke="#ffffff"
       id="path104267" />
    <g
       fill="none"
       stroke="#bcc1d5"
       id="g104271">
      <path
         d="m 28.744,48.97 c 3.808,-5.297 9.141,-8.537 15.448,-10.964 m 19.371,-1.784 16.605,3.3 m 30.836,-2.235 c 5.41,3.37 10.89,8.457 17.247,3.923 m 12.296,-1.306 c 4.961,-1.114 7.508,-1.76 16.157,1.675 3.685,4.21 25.886,4.313 35.724,-3.432 m 9.078,7.156 c 9.934,-7.79 28.838,-11.875 44.261,-1.08 m 12.686,-7.818 c 5.325,4.23 11.097,5.656 17.536,2.88 m 13.426,-1.407 c 8.764,3.267 14.17,-0.193 21.267,-5.034 m 19.665,10.072 c 2.623,-0.597 5.714,0.24 8.234,-1.514 2.592,-1.805 6.017,-1.645 8.824,-0.272 m 10.639,5.672 c 5.004,4.004 9.802,3.773 16.389,-1.482 m 21.689,-0.036 c 6.828,-6.414 11.63,-7.419 16.804,-2.452 m 20.189,-2.35 c 1.784,-3.407 8.146,0.677 16.165,4.766 3.883,1.98 8.068,3.089 11.283,3.283 4.99,-0.296 8.406,-3.777 10.35,-6.664 m 15.833,4.735 c 5.545,-4.857 10.814,-6.353 17.048,-3.194 M 515.437,32.14 c 5.394,8.84 10.236,7.578 16.93,2.532 M 579.93,31.94 c 6.206,0.134 11.434,-0.983 19.038,0.938 m 8.826,4.523 c 4.13,3.139 7.011,8.018 17.384,6.589 m 18.73,7.42 c 2.234,-4.335 4.018,-8.341 10.48,-9.457 m 13.324,-0.582 c 6.583,4.154 12.043,5.172 16.978,0.094"
         opacity="0.878"
         id="path104269" />
    </g>
  </g>
</svg>
