<?xml version="1.0" encoding="UTF-8" standalone="no"?>
<!-- Generator: Adobe Illustrator 25.0.0, SVG Export Plug-In . SVG Version: 6.00 Build 0)  -->

<svg
   version="1.1"
   id="Layer_1"
   x="0px"
   y="0px"
   viewBox="0 0 600.12603 100"
   xml:space="preserve"
   sodipodi:docname="atarist.svg"
   inkscape:version="1.2.1 (9c6d41e410, 2022-07-14)"
   width="600.12604"
   height="100"
   xmlns:inkscape="http://www.inkscape.org/namespaces/inkscape"
   xmlns:sodipodi="http://sodipodi.sourceforge.net/DTD/sodipodi-0.dtd"
   xmlns="http://www.w3.org/2000/svg"
   xmlns:svg="http://www.w3.org/2000/svg"><defs
   id="defs14929">
	
	

		
	
		
	
			
			
		
			
			
			
			
			
			
		
				
				
				
			</defs><sodipodi:namedview
   id="namedview14927"
   pagecolor="#505050"
   bordercolor="#ffffff"
   borderopacity="1"
   inkscape:showpageshadow="0"
   inkscape:pageopacity="0"
   inkscape:pagecheckerboard="1"
   inkscape:deskcolor="#505050"
   showgrid="false"
   inkscape:zoom="1.1572917"
   inkscape:cx="308.47884"
   inkscape:cy="109.73897"
   inkscape:window-width="1920"
   inkscape:window-height="1017"
   inkscape:window-x="-8"
   inkscape:window-y="-8"
   inkscape:window-maximized="1"
   inkscape:current-layer="Layer_1" />
<style
   type="text/css"
   id="style14892">
	.st0{fill:#9B9B9B;}
	.st1{fill:#4FA1D5;}
	.st2{fill:url(#SVGID_1_);}
	.st3{fill:url(#SVGID_2_);}
	.st4{fill:url(#SVGID_3_);}
	.st5{fill:url(#SVGID_4_);}
	.st6{fill:url(#SVGID_5_);}
	.st7{fill:#FFFFFF;}
</style>
<path
   style="stroke:#000000;stroke-width:1.09199;stroke-dasharray:none;stroke-opacity:1;fill:#9b9b9b;fill-opacity:1"
   d="m 457.46545,63.743568 1.77839,1.388386 c 6.20874,4.804752 13.68106,8.735913 21.66818,8.735913 3.41637,0 8.86071,-1.388386 8.86071,-5.709543 0,-4.305557 -4.55515,-4.679954 -7.72192,-5.319547 l -6.97313,-1.263588 c -13.55627,-2.402376 -24.94415,-10.389496 -24.94415,-25.334148 0,-22.666575 20.65419,-35.33364881 41.41759,-35.33364881 10.88869,0 20.90379,2.65197361 30.2793,8.36151691 l -9.37551,24.4449569 c -5.95914,-4.055959 -12.66708,-7.222728 -20.1394,-7.222728 -3.04197,0 -7.47233,1.138789 -7.47233,5.06995 0,3.541164 4.30556,4.055959 6.95753,4.679953 l 7.86233,1.778382 c 14.69505,3.291568 25.33414,11.15389 25.33414,27.362129 0,22.806973 -20.77899,34.070061 -41.41758,34.070061 -12.04309,0 -25.97375,-3.291567 -36.73764,-8.735913 z"
   id="path7710" /><path
   style="stroke:#000000;stroke-width:1.09199;stroke-dasharray:none;stroke-opacity:1;fill:#9b9b9b;fill-opacity:1"
   d="m 526.61957,2.4205772 h 72.96047 V 29.221111 l -19.12541,0.0468 V 97.938428 H 545.74498 V 29.26791 l -19.12541,-0.0468 z"
   id="path14896" /><path
   style="stroke:#000000;stroke-width:1.09199;stroke-dasharray:none;stroke-opacity:1;fill:#9b9b9b;fill-opacity:1"
   d="m 44.428359,0.76699359 c 2.495975,-0.0155998 4.99195,0 7.472325,0 0.0156,5.86554171 0,11.71548341 0,17.58102541 0.0312,4.898351 -0.109199,9.781103 -0.311997,14.663854 -0.327596,7.05113 -0.779992,14.13346 -1.94998,21.10659 -0.795592,4.804753 -2.464776,9.453507 -4.523955,13.852663 -3.369567,7.097929 -8.657914,13.10387 -14.601455,18.158219 -5.319547,4.679954 -11.668684,8.09632 -18.345418,10.405097 -3.7751624,1.279187 -7.6595238,2.293177 -11.62188443,2.839172 0,-4.913951 0,-9.827903 0,-14.741854 4.77355253,-0.717593 9.34430713,-2.402376 13.60306443,-4.648753 5.05435,-2.667574 9.593905,-6.255538 13.415867,-10.498696 3.946761,-4.367957 7.09793,-9.437906 9.484706,-14.804253 2.807972,-6.177539 4.321157,-12.854272 5.350747,-19.531006 1.279187,-8.486316 1.825182,-17.08183 2.01238,-25.6617451 0.0312,-2.9015711 0.0156,-5.8187421 0.0156,-8.72031331 z"
   id="path7732" /><path
   style="stroke:#000000;stroke-width:1.09199;stroke-dasharray:none;stroke-opacity:1;fill:#9b9b9b;fill-opacity:1"
   d="m 54.927054,0.76699359 c 4.586355,-0.0311997 9.172709,0 13.759064,-0.0155998 0,32.86887321 0,65.73774721 0,98.62222021 -4.570755,0.0156 -9.157109,-0.0156 -13.727864,0.0156 -0.0624,-10.483096 -0.0156,-20.966192 -0.0312,-31.449288 0,-22.385777 0.0156,-44.771555 0,-67.17293241 z"
   id="path7730" /><path
   style="stroke:#000000;stroke-width:1.09199;stroke-dasharray:none;stroke-opacity:1;fill:#9b9b9b;fill-opacity:1"
   d="m 71.743687,0.76699359 c 2.480376,0 4.960751,0 7.441126,0 -0.078,10.01510041 0.265198,20.06140041 1.450786,30.02970141 0.98279,7.737523 2.355576,15.521846 5.444346,22.728974 2.917171,6.973131 7.129129,13.447067 12.620274,18.673015 5.241551,4.99195 11.590681,8.829512 18.485821,11.04469 1.91878,0.608394 3.89996,1.091989 5.89674,1.388386 0,4.913951 0,9.827903 0,14.741854 -3.93116,-0.530395 -7.78433,-1.544385 -11.54389,-2.823572 -4.46155,-1.559985 -8.78271,-3.572365 -12.760671,-6.146339 -2.901572,-1.871981 -5.537945,-4.087159 -8.06512,-6.427136 C 86.54794,80.123405 82.803977,75.755449 79.996005,70.810298 77.812027,66.957136 76.205243,62.791977 74.957255,58.53322 73.802867,54.258862 73.319271,49.844106 72.866876,45.46055 72.008885,35.975844 71.681288,26.444338 71.743687,16.912833 c 0,-5.381946 0,-10.7638929 0,-16.14583941 z"
   id="path14906" /><path
   id="path7722"
   style="stroke:#000000;stroke-width:1.09199;stroke-dasharray:none;stroke-opacity:1;fill:#4fa1d5;fill-opacity:1"
   d="M 177.37305 0.56835938 C 173.92307 0.59766618 170.46527 2.0737959 168.30664 4.8378906 C 166.15386 7.2714641 165.77966 10.625902 164.79688 13.605469 C 156.48217 42.199956 148.18195 70.794184 139.89844 99.388672 C 145.01518 99.404272 150.13326 99.388697 155.25 99.404297 C 157.63677 91.120787 160.03908 82.838222 162.47266 74.570312 C 172.40975 74.585912 182.36174 74.570338 192.29883 74.585938 C 194.70121 82.853847 197.07226 91.136387 199.49023 99.404297 C 204.63818 99.388697 209.77199 99.404297 214.91992 99.404297 C 206.23082 69.421424 197.47812 39.455528 188.75781 9.4726562 C 188.07142 7.0546827 186.7137 4.8235542 184.79492 3.2011719 C 182.7338 1.3993916 180.05636 0.54556519 177.37305 0.56835938 z M 177.38672 23.199219 C 181.00588 35.632282 184.60933 48.080582 188.21289 60.498047 C 180.99017 60.498047 173.76763 60.513622 166.54492 60.482422 C 170.16408 48.064958 173.73635 35.616682 177.38672 23.199219 z " /><path
   id="path7718"
   style="stroke:#000000;stroke-width:1.09199;stroke-dasharray:none;stroke-opacity:1;fill:#4fa1d5;fill-opacity:1"
   d="M 286.44141 0.55078125 C 282.63934 0.48473334 278.81289 2.3224751 276.63281 5.4785156 C 274.94803 7.7248911 274.61968 10.578397 273.74609 13.167969 C 265.40018 41.902855 257.02377 70.638186 248.75586 99.388672 L 264.07422 99.388672 C 266.44539 91.105162 268.89446 82.853822 271.26562 74.570312 C 281.20273 74.539113 291.12343 74.554688 301.04492 74.554688 C 303.46289 82.838197 305.82028 91.120762 308.22266 99.388672 C 313.3706 99.373072 318.51808 99.419847 323.66602 99.373047 C 314.96131 69.421374 306.22424 39.469251 297.51953 9.5175781 C 296.41194 5.4616225 293.22958 1.8753926 289.04883 0.90820312 C 288.19474 0.68298059 287.31881 0.56602307 286.44141 0.55078125 z M 286.17969 23.152344 C 289.75204 35.601007 293.38664 48.049408 296.97461 60.513672 C 289.76749 60.513672 282.57629 60.529272 275.38477 60.513672 C 278.95713 48.049408 282.59172 35.601007 286.17969 23.152344 z " /><path
   style="stroke:#000000;stroke-width:1.09199;stroke-dasharray:none;stroke-opacity:1;fill:#4fa1d5;fill-opacity:1"
   d="m 203.40638,0.75139374 c 18.61061,0 37.20563,0 55.80064,0 0,5.02315006 0,10.03070026 0,15.05385026 -6.84833,0 -13.69666,-0.0156 -20.54499,0 0,27.861323 0,55.722647 0,83.58397 -4.89835,0 -9.8123,0 -14.71066,0 0,-27.861323 0,-55.722647 0,-83.58397 -6.84833,-0.0156 -13.69666,0 -20.54499,0 0,-5.02315 0,-10.0307002 0,-15.05385026 z"
   id="path7716" /><path
   style="stroke:#000000;stroke-width:1.09199;stroke-dasharray:none;stroke-opacity:1;fill:#4fa1d5;fill-opacity:1"
   d="m 340.02982,1.3753875 c 1.41959,-0.48359515 2.91717,-0.65519345 4.41476,-0.62399376 5.86554,0.0155998 11.73108,0 17.59662,0.0155998 9.8747,0.18719814 19.29701,6.31793716 23.57137,15.19424946 2.96397,5.771942 3.26037,12.479876 2.51157,18.813413 -0.51479,6.629934 -3.29156,13.259868 -8.39271,17.659024 -2.68318,2.402376 -6.03714,3.853162 -8.92311,5.990341 -1.57559,1.201188 -1.66919,3.541165 -0.8424,5.225948 7.78433,12.01188 15.88065,23.852163 23.82097,35.754845 -5.81874,0.0156 -11.62189,-0.0156 -17.44063,0.0156 -7.61272,-11.434686 -15.13185,-22.916172 -22.71337,-34.366458 -2.23078,-3.260368 -2.83918,-7.565925 -1.49759,-11.294288 1.04519,-2.854772 3.54117,-4.929551 6.30234,-6.02154 5.30395,-2.02798 10.52989,-5.194749 13.46266,-10.202299 2.23078,-3.759562 2.12158,-8.392716 1.10759,-12.511075 -1.16998,-5.335147 -6.38033,-9.531506 -11.87148,-9.359907 -3.80636,0.0312 -7.59712,-0.0156 -11.38789,0.0156 -1.71598,-0.0468 -3.33836,1.450786 -3.30716,3.197969 -0.0156,26.831733 0.0156,53.663466 -0.0156,80.5108 -4.94515,-0.0156 -9.8747,0 -14.81985,0 -0.0156,-28.890913 0.0156,-57.781826 -0.0156,-86.672739 0.0312,-5.0387501 3.63476,-9.8123026 8.43951,-11.3410875 z"
   id="path7714" /><path
   style="stroke:#000000;stroke-width:1.09199;stroke-dasharray:none;stroke-opacity:1;fill:#4fa1d5;fill-opacity:1"
   d="m 401.55561,0.75139374 c 5.19475,0 10.3895,0 15.59985,0 0,32.88447326 0.0156,65.76894626 -0.0156,98.63782026 -5.19475,-0.0156 -10.3895,0 -15.58425,0 0,-32.868874 0,-65.753347 0,-98.63782026 z"
   id="path14918" />
</svg>
