<?xml version="1.0" encoding="UTF-8" standalone="no"?>
<!-- Generator: Adobe Illustrator 13.0.0, SVG Export Plug-In . SVG Version: 6.00 Build 14948)  -->

<svg
   version="1.2"
   id="Ebene_1"
   x="0px"
   y="0px"
   width="614.53015"
   height="100"
   viewBox="0 0 614.53017 99.999997"
   xml:space="preserve"
   inkscape:version="1.2.1 (9c6d41e410, 2022-07-14)"
   sodipodi:docname="retroarch.svg"
   xmlns:inkscape="http://www.inkscape.org/namespaces/inkscape"
   xmlns:sodipodi="http://sodipodi.sourceforge.net/DTD/sodipodi-0.dtd"
   xmlns="http://www.w3.org/2000/svg"
   xmlns:svg="http://www.w3.org/2000/svg"><defs
     id="defs16050" /><sodipodi:namedview
     id="namedview16048"
     pagecolor="#505050"
     bordercolor="#ffffff"
     borderopacity="1"
     inkscape:showpageshadow="0"
     inkscape:pageopacity="0"
     inkscape:pagecheckerboard="1"
     inkscape:deskcolor="#505050"
     showgrid="false"
     inkscape:zoom="1.1923159"
     inkscape:cx="228.54681"
     inkscape:cy="28.515933"
     inkscape:window-width="1920"
     inkscape:window-height="1017"
     inkscape:window-x="-8"
     inkscape:window-y="-8"
     inkscape:window-maximized="1"
     inkscape:current-layer="Ebene_1" /><g
     id="g38268"
     transform="matrix(1.0085606,0,0,1.0085605,1.0077873,-0.40484741)"><path
       style="display:inline;fill:#000000;stroke:#ffffff;stroke-width:2;stroke-dasharray:none;stroke-opacity:1"
       d="m 26.284309,87.805999 c 0,-0.09265 3.174483,-3.791276 7.054408,-8.219167 3.879923,-4.427896 7.054407,-8.175903 7.054407,-8.328906 0,-0.153004 -4.673118,-0.278187 -10.38471,-0.278187 H 19.623706 l 1.398409,-5.531298 c 0.769122,-3.042213 1.401989,-5.56737 1.40637,-5.61146 0.0044,-0.04409 -5.04235,-0.08016 -11.214958,-0.08016 C 5.040921,59.756821 -0.00516503,59.6486 3.9676395e-6,59.516329 0.00520397,59.384057 1.709432,52.493984 3.787247,44.205054 l 3.77784,-15.070781 4.093513,-0.08993 c 3.798475,-0.08345 4.081139,-0.04879 3.92184,0.480983 -0.271739,0.903701 -4.046257,16.083959 -4.046257,16.273133 0,0.0936 3.228664,0.170195 7.174813,0.170195 h 7.174812 l 1.818815,-7.2949 c 1.000348,-4.012195 1.961248,-7.833984 2.135331,-8.492866 l 0.316515,-1.197966 10.06848,-0.08465 10.068481,-0.08465 -4.483403,-5.531297 -4.483407,-5.531297 h 4.022504 4.0225 l 4.890909,5.610557 4.890904,5.61056 9.298992,-0.01995 9.298993,-0.01995 4.809824,-5.577738 4.809823,-5.577734 3.928023,-0.01286 c 2.160412,-0.007 3.928022,0.06505 3.928022,0.160289 0,0.09523 -1.967157,2.584318 -4.37146,5.531296 l -4.371459,5.358122 10.070287,0.08456 10.070278,0.08457 2.09329,8.412786 2.09329,8.412786 7.30221,0.08624 c 6.85707,0.08098 7.29181,0.05166 7.1317,-0.480983 -0.2712,-0.902239 -4.04509,-16.080907 -4.04509,-16.269449 0,-0.09361 1.79813,-0.170194 3.99583,-0.170194 h 3.99583 l 0.31762,1.202456 c 0.1747,0.66135 1.84541,7.334981 3.71271,14.830289 1.86731,7.495308 3.4712,13.88035 3.56421,14.18898 0.15881,0.526971 -0.51569,0.561146 -11.07542,0.561146 -7.60538,0 -11.24454,0.108446 -11.24454,0.335085 0,0.184296 0.57719,2.630812 1.28262,5.436703 0.70545,2.805891 1.28263,5.178289 1.28263,5.271997 0,0.0937 -4.71942,0.208419 -10.48761,0.254921 l -10.487597,0.08454 6.880237,7.858245 c 3.78413,4.322034 7.07827,8.109769 7.32031,8.417191 0.41534,0.527522 0.0908,0.557959 -5.77179,0.541362 l -6.211865,-0.01757 -6.855858,-8.482685 -6.855861,-8.482685 -16.222926,0.08308 -16.222926,0.08308 -6.842831,8.417192 -6.84283,8.41719 h -6.0719 c -3.339539,-1.2e-5 -6.071894,-0.07581 -6.071894,-0.168461 z M 52.257356,44.525709 V 37.310972 H 45.04262 37.827885 v 7.000965 c 0,3.850533 0.0962,7.097164 0.213771,7.214736 0.117571,0.117574 3.364202,0.213771 7.214736,0.213771 h 7.000964 z m 46.494962,0 V 37.310972 H 91.69791 84.643502 v 7.214737 7.214735 h 7.054408 7.054408 z"
       id="path37065"
       sodipodi:nodetypes="sssscscscscsssscssccccccccccccccsscccccsssscsssssssscsssccccccccssccccsssccccccccccc" /><g
       id="g38255"
       style="fill:#ffffff;fill-opacity:1;stroke:#000000;stroke-width:2;stroke-dasharray:none;stroke-opacity:1"><path
         id="path37903"
         style="fill:#ffffff;fill-opacity:1;stroke:#000000;stroke-width:2;stroke-dasharray:none;stroke-opacity:1"
         d="m 276.39514,69.730038 -1.12229,-0.193247 V 40.357194 11.177598 l 2.19951,-0.09562 c 4.63636,-0.201544 8.22896,1.275267 12.10059,4.974208 6.66893,6.371464 10.91562,16.380267 10.92926,25.758658 0.0131,9.034445 -2.88536,16.133251 -8.86898,21.721294 -4.3635,4.075037 -11.26102,6.878697 -15.23809,6.193896 z m -1.28262,18.885721 v -9.619647 h 1.5369 1.5369 l 8.42718,9.619647 8.4272,9.619647 h 4.94636 c 3.17978,0 4.94637,-0.117953 4.94637,-0.330268 0,-0.181645 -4.18454,-5.080877 -9.299,-10.887177 -5.11445,-5.806301 -9.29423,-10.671921 -9.2884,-10.81249 0.005,-0.140568 1.2919,-0.865602 2.85794,-1.611185 7.43487,-3.539675 13.61171,-11.185001 16.71906,-20.693843 2.48617,-7.607932 2.51826,-14.523642 0.1107,-23.84154 -1.25602,-4.861092 -4.34009,-11.528676 -7.01789,-15.172239 C 296.7515,11.805657 291.9823,7.7419438 288.74035,6.1311915 284.6151,4.0815653 281.19518,3.4059936 273.47805,3.1162786 L 267.73746,2.9007633 V 50.568085 98.235406 h 3.68753 3.68753 z" /><path
         id="path37895"
         style="fill:#ffffff;fill-opacity:1;stroke:#000000;stroke-width:2;stroke-dasharray:none;stroke-opacity:1"
         d="m 154.86692,69.730038 -1.12228,-0.193247 V 40.357194 11.177598 l 2.19949,-0.09562 c 4.63638,-0.201544 8.22897,1.275267 12.10061,4.974208 6.66893,6.371464 10.91562,16.380267 10.92926,25.758658 0.0131,9.034445 -2.88536,16.133251 -8.86898,21.721294 -4.3635,4.075037 -11.26102,6.878697 -15.2381,6.193896 z m -1.28261,18.725393 v -9.459319 h 1.53858 1.53858 l 8.28171,9.459319 8.28171,9.45932 h 5.09017 c 2.79959,0 5.09016,-0.07647 5.09016,-0.16994 0,-0.09347 -4.18456,-4.92055 -9.299,-10.72685 -5.11445,-5.806301 -9.29423,-10.671921 -9.2884,-10.81249 0.005,-0.140568 1.2919,-0.865602 2.85794,-1.611185 7.43487,-3.539675 13.61171,-11.185001 16.71906,-20.693843 2.48616,-7.607932 2.51826,-14.523642 0.11069,-23.84154 -1.25601,-4.861092 -4.34008,-11.528676 -7.01788,-15.172239 -2.26434,-3.081007 -7.03356,-7.1447202 -10.27549,-8.7554725 -4.12525,-2.0496262 -7.54517,-2.7251979 -15.2623,-3.0149129 L 146.20925,2.9007633 V 50.407757 97.914751 h 3.68753 3.68753 z" /><path
         id="path37891"
         style="fill:#ffffff;fill-opacity:1;stroke:#000000;stroke-width:2;stroke-dasharray:none;stroke-opacity:1"
         d="m 354.18111,89.86419 c -7.52143,-1.097005 -14.4498,-4.82037 -20.17768,-10.843709 -11.83179,-12.442055 -14.53481,-32.09109 -6.56859,-47.748671 5.07825,-9.981311 13.58246,-16.983796 23.85471,-19.642352 2.40276,-0.621852 3.63959,-0.737798 7.67423,-0.719399 4.08322,0.01864 5.2758,0.145078 7.8944,0.837131 7.55949,1.99785 14.36966,6.676215 19.32009,13.272275 3.80586,5.070991 6.60117,11.532778 7.74469,17.902968 0.75472,4.204466 0.70104,11.613519 -0.11403,15.736487 -4.0223,20.345981 -21.22167,33.889799 -39.62782,31.20527 z m 12.34262,8.045556 c 17.21709,-3.508619 30.86314,-17.931241 34.99189,-36.983257 0.60758,-2.803528 0.70608,-4.252577 0.71169,-10.468665 0.005,-6.329363 -0.0831,-7.627909 -0.72501,-10.581612 C 397.29067,20.49236 383.86693,6.219564 366.52373,2.6852447 362.58901,1.8834054 355.70714,1.8106873 351.59651,2.527521 338.84567,4.75108 327.3279,13.672979 320.85914,26.337287 c -2.08984,4.09139 -3.79896,8.866541 -4.77151,13.331217 -0.61486,2.82262 -0.7097,4.231498 -0.7156,10.628993 -0.006,6.507621 0.0796,7.771068 0.72734,10.741939 1.91719,8.793067 5.74912,16.568586 11.37773,23.087153 6.10549,7.070852 15.14139,12.345712 23.84076,13.91745 3.92556,0.709244 11.39005,0.643321 15.20587,-0.134293 z" /><path
         id="path37907"
         style="fill:#ffffff;fill-opacity:1;stroke:#000000;stroke-width:2;stroke-dasharray:none;stroke-opacity:1"
         d="m 435.76064,19.915444 c 0,-4.929594 0.0888,-6.028572 0.56113,-6.972526 1.62374,-3.245425 8.71019,-3.8354492 11.47182,-0.955157 l 0.95305,0.994008 0.0988,6.392814 0.0988,6.392813 H 442.35213 435.76 v -5.851952 z m 0,46.254471 V 34.425078 h 6.57342 6.57343 v 31.744837 31.744836 h 3.85234 3.85231 l -0.0847,-43.84956 -0.0846,-43.849558 -0.92731,-2.007877 c -2.00615,-4.3439603 -6.72381,-6.8141125 -12.99923,-6.806327 -6.62293,0.00821 -10.9409,2.3833894 -13.26959,7.2991832 l -1.02152,2.1563308 -0.11017,7.455227 -0.11014,7.455226 h -3.01624 c -2.28277,0 -3.01622,0.102806 -3.01622,0.422783 0,0.40255 0.17358,1.044928 1.64012,6.070479 l 0.63163,2.16442 h 1.91033 1.91037 v 31.744837 31.744836 h 3.84786 3.84786 z" /><path
         id="path37911"
         style="fill:#ffffff;fill-opacity:1;stroke:#000000;stroke-width:2;stroke-dasharray:none;stroke-opacity:1"
         d="m 473.59791,69.730038 -1.12229,-0.193247 V 40.357194 11.177598 l 2.1995,-0.09562 c 4.63638,-0.201544 8.22897,1.275267 12.10062,4.974208 6.66892,6.371464 10.91561,16.380267 10.92923,25.758658 0.0131,9.034445 -2.88535,16.133251 -8.86896,21.721294 -4.3635,4.075037 -11.26101,6.878697 -15.2381,6.193896 z m -1.28262,18.725393 v -9.459319 h 1.53857 1.53859 l 8.28172,9.459319 8.28171,9.45932 h 5.09015 c 2.7996,0 5.09017,-0.07647 5.09017,-0.16994 0,-0.09347 -4.18455,-4.92055 -9.29899,-10.72685 -5.11445,-5.806301 -9.29422,-10.671921 -9.28841,-10.81249 0.005,-0.140568 1.29188,-0.865602 2.85793,-1.611185 7.43489,-3.539675 13.61174,-11.185001 16.71907,-20.693843 2.48616,-7.607932 2.51826,-14.523642 0.11069,-23.84154 -1.256,-4.861092 -4.3401,-11.528676 -7.01788,-15.172239 -2.26434,-3.081007 -7.03353,-7.1447202 -10.27548,-8.7554725 -4.12526,-2.0496262 -7.54518,-2.7251979 -15.26231,-3.0149129 L 464.94023,2.9007633 V 50.407757 97.914751 h 3.68752 3.68754 z" /><path
         style="fill:#ffffff;fill-opacity:1;stroke:#000000;stroke-width:2;stroke-dasharray:none;stroke-opacity:1"
         d="M 584.22386,66.169915 V 34.425078 h 7.69571 7.69572 v 31.744837 31.744836 h 3.84891 3.84893 l -0.0812,-47.376763 -0.0812,-47.3767632 -3.76769,-0.090341 -3.7677,-0.090338 V 14.373969 25.767396 h -7.69572 -7.69571 V 14.384146 3.0008974 h -3.68754 -3.68753 v 11.3832486 11.38325 h -3.20655 c -2.44031,0 -3.20654,0.101025 -3.20654,0.422783 0,0.40255 0.17356,1.044928 1.64011,6.070479 l 0.63162,2.16442 h 2.07067 2.07069 v 31.744837 31.744836 h 3.68753 3.68754 z"
         id="path38193" /><path
         style="fill:#ffffff;fill-opacity:1;stroke:#000000;stroke-width:2;stroke-dasharray:none;stroke-opacity:1"
         d="m 556.00623,93.79017 v -4.12458 l -3.01952,-0.221647 c -8.57402,-0.629376 -15.5821,-3.870821 -21.51059,-9.949278 -4.46192,-4.574793 -7.22262,-9.521302 -9.26837,-16.606734 -3.5473,-12.286014 -1.57098,-26.418643 5.13958,-36.753154 2.04184,-3.144483 6.39929,-7.616651 9.25433,-9.497966 4.71392,-3.106225 9.63988,-4.803993 15.63687,-5.389365 l 3.7677,-0.367769 V 6.7799598 2.6802424 l -2.48508,0.00128 c -3.1783,0.0016 -7.63573,0.7258248 -11.03746,1.7931952 -13.95208,4.3777894 -23.91902,15.5529824 -27.9991,31.3932994 -1.46979,5.706285 -1.8766,9.684599 -1.68476,16.475984 0.30611,10.83616 3.17109,20.159628 8.68251,28.255376 2.3882,3.508016 8.14613,9.09211 11.52302,11.17508 6.31885,3.897715 13.36079,6.027334 20.19514,6.107412 l 2.80573,0.03288 z"
         id="path38189" /><path
         style="fill:#ffffff;fill-opacity:1;stroke:#000000;stroke-width:2;stroke-dasharray:none;stroke-opacity:1"
         d="m 249.38112,54.866829 0.0813,-43.208249 h 4.81796 4.81798 l -0.0894,-4.2486776 -0.0894,-4.2486776 -13.22702,-0.083723 -13.22701,-0.08372 V 7.3261794 11.65858 h 4.6495 4.64949 v 43.298591 43.298587 l 3.7677,-0.09034 3.76769,-0.09034 z"
         id="path38181" /><path
         style="fill:#ffffff;fill-opacity:1;stroke:#000000;stroke-width:2;stroke-dasharray:none;stroke-opacity:1"
         d="m 222.52511,93.746238 v -4.168514 h -7.37506 -7.37507 V 62.001401 34.425078 h 8.65769 c 4.76173,0 8.6513,-0.108221 8.64349,-0.240491 -0.007,-0.132269 -0.63783,-2.044175 -1.40005,-4.248677 l -1.38585,-4.008186 -7.25764,-0.08619 -7.25764,-0.08618 v -7.208716 -7.208714 h 7.37507 7.37506 V 7.1652555 2.992586 l -11.14275,0.08432 -11.14277,0.084319 -0.0842,11.303086 -0.0842,11.303085 h -3.04216 c -2.30421,0 -3.04212,0.10255 -3.04212,0.422783 0,0.40255 0.17356,1.044928 1.64012,6.070479 l 0.63163,2.16442 h 1.91034 1.91036 v 31.744837 31.744836 h 11.22292 11.22291 z"
         id="path38185" /></g></g></svg>
