<?xml version="1.0" encoding="UTF-8" standalone="no"?>
<svg
   width="606.16376"
   height="100"
   viewBox="0 0 606.16376 100"
   version="1.1"
   id="svg873"
   inkscape:version="1.2.1 (9c6d41e410, 2022-07-14)"
   sodipodi:docname="sfc.svg"
   xmlns:inkscape="http://www.inkscape.org/namespaces/inkscape"
   xmlns:sodipodi="http://sodipodi.sourceforge.net/DTD/sodipodi-0.dtd"
   xmlns="http://www.w3.org/2000/svg"
   xmlns:svg="http://www.w3.org/2000/svg">
  <defs
     id="defs867" />
  <sodipodi:namedview
     fit-margin-bottom="0"
     fit-margin-right="0"
     fit-margin-left="0"
     fit-margin-top="0"
     id="base"
     pagecolor="#ffffff"
     bordercolor="#666666"
     borderopacity="1.0"
     inkscape:pageopacity="0.0"
     inkscape:pageshadow="2"
     inkscape:zoom="0.98994949"
     inkscape:cx="373.25137"
     inkscape:cy="73.741136"
     inkscape:document-units="px"
     inkscape:current-layer="svg873"
     inkscape:document-rotation="0"
     showgrid="false"
     inkscape:window-width="1920"
     inkscape:window-height="1017"
     inkscape:window-x="-8"
     inkscape:window-y="-8"
     inkscape:window-maximized="1"
     inkscape:showpageshadow="0"
     inkscape:pagecheckerboard="1"
     inkscape:deskcolor="#d1d1d1" />
  <g
     id="g48601">
    <rect
       style="fill:#000000;fill-opacity:1;stroke:none;stroke-width:0.367068;stroke-linecap:round;stroke-miterlimit:4;stroke-dasharray:none"
       id="rect1755"
       width="127.22514"
       height="100"
       x="7.7990723e-07"
       y="-1.4102783e-06" />
    <g
       id="g97060"
       style="fill:#ffffff;fill-opacity:1;stroke:#000000;stroke-opacity:1"
       transform="matrix(1.3851672,0,0,1.3851672,229.84294,414.6597)">
      <path
         d="m -68.754017,-262.21143 v -4.65321 h 14.805677 q 2.475446,0 2.475446,-2.1621 0,-2.11509 -2.475446,-2.11509 h -7.410672 q -3.901179,0 -5.969273,-1.73908 -2.052427,-1.75475 -2.052427,-5.02923 0,-3.27449 2.021092,-5.01357 2.03676,-1.75474 5.781264,-1.75474 h 16.654428 v 4.70021 h -14.743007 q -2.538116,0 -2.538116,2.0681 0,2.11509 2.538116,2.11509 h 7.567346 q 3.807174,0 5.796931,1.75475 2.005425,1.73908 2.005425,5.01356 0,3.32149 -2.005425,5.07623 -1.989757,1.73908 -5.796931,1.73908 z"
         style="font-style:normal;font-variant:normal;font-weight:normal;font-stretch:normal;font-size:32.0868px;line-height:1.25;font-family:'Super FamiFont';-inkscape-font-specification:'Super FamiFont';fill:#ffffff;fill-opacity:1;stroke:#000000;stroke-width:0.802169;stroke-opacity:1"
         id="path865" />
      <path
         d="m -32.151335,-262.21143 q -4.574876,0 -7.175661,-2.2091 -2.600786,-2.2091 -2.600786,-7.09732 v -13.1606 h 7.175661 v 13.2076 q 0,2.35011 1.206389,3.38416 1.206388,1.03404 3.149144,1.03404 h 6.047609 v -17.6258 h 7.175662 v 22.46702 z"
         style="font-style:normal;font-variant:normal;font-weight:normal;font-stretch:normal;font-size:32.0868px;line-height:1.25;font-family:'Super FamiFont';-inkscape-font-specification:'Super FamiFont';fill:#ffffff;fill-opacity:1;stroke:#000000;stroke-width:0.802169;stroke-opacity:1"
         id="path867" />
      <path
         d="m -13.272138,-262.21143 v -22.46702 H 1.5335383 q 5.0292298,0 7.3793372,2.00542 2.3657745,1.98976 2.3657745,5.45225 0,3.41549 -2.3344398,5.42092 -2.33444,1.98975 -7.4106719,1.98975 h -7.6300154 v 7.59868 z m 16.9991098,-14.99368 q 0,-2.82013 -3.46249153,-2.82013 H -6.0964771 v 5.60892 h 6.36095737 q 3.46249153,0 3.46249153,-2.78879 z"
         style="font-style:normal;font-variant:normal;font-weight:normal;font-stretch:normal;font-size:32.0868px;line-height:1.25;font-family:'Super FamiFont';-inkscape-font-specification:'Super FamiFont';fill:#ffffff;fill-opacity:1;stroke:#000000;stroke-width:0.802169;stroke-opacity:1"
         id="path869" />
      <path
         d="m 37.331657,-280.02524 h -9.259423 q -3.368487,0 -4.872556,1.03405 -1.488401,1.03404 -1.754747,3.10214 h 15.886726 v 4.60621 H 21.444931 q 0.109672,2.02109 1.598073,3.19615 1.504069,1.17505 5.02923,1.17505 h 9.259423 v 4.70021 H 27.163526 q -6.470629,0 -9.76078,-2.82012 -3.274483,-2.8358 -3.274483,-8.41339 0,-5.57759 3.274483,-8.39772 3.290151,-2.83579 9.76078,-2.83579 h 10.168131 z"
         style="font-style:normal;font-variant:normal;font-weight:normal;font-stretch:normal;font-size:32.0868px;line-height:1.25;font-family:'Super FamiFont';-inkscape-font-specification:'Super FamiFont';fill:#ffffff;fill-opacity:1;stroke:#000000;stroke-width:0.802169;stroke-opacity:1"
         id="path871" />
      <path
         sodipodi:nodetypes="ssccsscccccscsccccc"
         d="m 58.417184,-277.93096 c 0,-2.05764 -1.154164,-2.09428 -3.462491,-2.09428 h -7.301001 v 5.24343 h 7.301001 c 2.308327,0 3.462491,-1.04971 3.462491,-3.14915 z m -4.271563,7.75536 h -6.491929 v 7.96417 h -7.175661 v -22.46702 h 16.215741 c 3.143921,0 5.473139,0.7207 6.987653,2.1621 1.524959,1.43095 2.287438,2.29274 2.287438,4.56973 0,2.30833 -0.752035,4.17797 -2.256104,5.60892 -0.762479,0.73115 -1.733856,1.27429 -2.914133,1.62941 l 6.182513,8.49686 h -7.468444 z"
         style="font-style:normal;font-variant:normal;font-weight:normal;font-stretch:normal;font-size:32.0868px;line-height:1.25;font-family:'Super FamiFont';-inkscape-font-specification:'Super FamiFont';fill:#ffffff;fill-opacity:1;stroke:#000000;stroke-width:0.802169;stroke-opacity:1"
         id="path873" />
      <path
         d="m 80.596693,-273.44494 q 0,-5.57759 3.274483,-8.39772 3.29015,-2.83579 9.760779,-2.83579 h 10.168135 v 4.65321 h -9.259427 q -3.368487,0 -4.872556,1.03405 -1.488401,1.03404 -1.754747,3.10214 h 15.88673 v 4.60621 H 87.772354 v 9.07141 h -7.175661 z"
         style="font-style:normal;font-variant:normal;font-weight:normal;font-stretch:normal;font-size:32.0868px;line-height:1.25;font-family:'Super FamiFont';-inkscape-font-specification:'Super FamiFont';fill:#ffffff;fill-opacity:1;stroke:#000000;stroke-width:0.802169;stroke-opacity:1"
         id="path875" />
      <path
         d="m 113.99402,-262.21143 q -3.96385,0 -6.11028,-1.83308 -2.14643,-1.84875 -2.14643,-5.10757 0,-3.24314 2.14643,-5.07623 2.14643,-1.84875 6.11028,-1.84875 h 9.96445 v -0.8147 q 0,-1.70775 -0.8147,-2.39711 -0.79904,-0.68937 -2.77313,-0.68937 h -12.92559 v -4.70021 h 13.19194 q 5.56192,0 8.0217,2.11509 2.47544,2.1151 2.47544,6.90932 v 13.44261 z m 9.96445,-9.25942 h -8.03737 q -2.89846,0 -2.89846,2.31877 0,2.33444 2.89846,2.33444 h 8.03737 z"
         style="font-style:normal;font-variant:normal;font-weight:normal;font-stretch:normal;font-size:32.0868px;line-height:1.25;font-family:'Super FamiFont';-inkscape-font-specification:'Super FamiFont';fill:#ffffff;fill-opacity:1;stroke:#000000;stroke-width:0.802169;stroke-opacity:1"
         id="path877" />
      <path
         d="m 161.7012,-262.21143 v -13.44261 q 0,-2.2561 -1.12805,-3.21181 -1.12805,-0.97138 -3.74451,-0.97138 h -1.4884 v 17.6258 h -7.17566 v -17.6258 h -6.04761 v 17.6258 h -7.17566 v -22.46702 h 23.10939 q 5.67159,0 8.24104,2.2091 2.56945,2.2091 2.56945,7.09732 v 13.1606 z"
         style="font-style:normal;font-variant:normal;font-weight:normal;font-stretch:normal;font-size:32.0868px;line-height:1.25;font-family:'Super FamiFont';-inkscape-font-specification:'Super FamiFont';fill:#ffffff;fill-opacity:1;stroke:#000000;stroke-width:0.802169;stroke-opacity:1"
         id="path879" />
      <path
         d="m 178.15353,-284.67845 v 22.46702 h -7.17566 v -22.46702 z"
         style="font-style:normal;font-variant:normal;font-weight:normal;font-stretch:normal;font-size:32.0868px;line-height:1.25;font-family:'Super FamiFont';-inkscape-font-specification:'Super FamiFont';fill:#ffffff;fill-opacity:1;stroke:#000000;stroke-width:0.802169;stroke-opacity:1"
         id="path881" />
      <path
         d="m 204.67773,-279.93124 h -8.60139 q -3.91684,0 -5.67159,1.51974 -1.75475,1.51974 -1.75475,4.96656 0,3.44683 1.72341,4.96656 1.72342,1.51974 5.65593,1.51974 h 8.64839 v 4.74721 h -10.43447 q -6.32962,0 -9.54144,-2.82012 -3.21181,-2.8358 -3.21181,-8.41339 0,-5.56192 3.21181,-8.39772 3.21182,-2.83579 9.54144,-2.83579 h 10.43447 z"
         style="font-style:normal;font-variant:normal;font-weight:normal;font-stretch:normal;font-size:32.0868px;line-height:1.25;font-family:'Super FamiFont';-inkscape-font-specification:'Super FamiFont';fill:#ffffff;fill-opacity:1;stroke:#000000;stroke-width:0.802169;stroke-opacity:1"
         id="path883" />
      <path
         d="m 234.31301,-273.11085 q 0,2.91413 -0.97138,5.0449 -0.97137,2.11509 -2.80446,3.49382 -1.81741,1.36307 -4.43387,2.03676 -2.60078,0.65803 -5.92227,0.65803 -3.32148,0 -5.93794,-0.65803 -2.60078,-0.67369 -4.4182,-2.03676 -1.81741,-1.37873 -2.80446,-3.49382 -0.97138,-2.13077 -0.97138,-5.0449 0,-2.91413 0.97138,-5.02923 0.98705,-2.13076 2.80446,-3.49383 1.81742,-1.37872 4.4182,-2.03676 2.61646,-0.67369 5.93794,-0.67369 3.32149,0 5.92227,0.67369 2.61646,0.65804 4.43387,2.03676 1.83309,1.36307 2.80446,3.49383 0.97138,2.1151 0.97138,5.02923 z m -14.13198,6.4863 q 6.95632,0 6.95632,-6.4863 0,-6.4863 -6.95632,-6.4863 -6.95632,0 -6.95632,6.4863 0,6.4863 6.95632,6.4863 z"
         style="font-style:normal;font-variant:normal;font-weight:normal;font-stretch:normal;font-size:32.0868px;line-height:1.25;font-family:'Super FamiFont';-inkscape-font-specification:'Super FamiFont';fill:#ffffff;fill-opacity:1;stroke:#000000;stroke-width:0.802169;stroke-opacity:1"
         id="path885" />
      <path
         d="m 264.1179,-262.21143 v -13.44261 q 0,-2.2561 -1.12805,-3.21181 -1.12805,-0.97138 -3.7445,-0.97138 h -1.4884 v 17.6258 h -7.17567 v -17.6258 h -6.04761 v 17.6258 h -7.17566 v -22.46702 h 23.10939 q 5.6716,0 8.24105,2.2091 2.56945,2.2091 2.56945,7.09732 v 13.1606 z"
         style="font-style:normal;font-variant:normal;font-weight:normal;font-stretch:normal;font-size:32.0868px;line-height:1.25;font-family:'Super FamiFont';-inkscape-font-specification:'Super FamiFont';fill:#ffffff;fill-opacity:1;stroke:#000000;stroke-width:0.802169;stroke-opacity:1"
         id="path887" />
    </g>
    <path
       d="m 134.23573,61.384178 v 5.275478 l 18.18646,0.04585 v 1.89761 c 0,5.794889 -6.08611,8.515205 -11.10643,8.515205 h -7.21889 v 5.275492 h 7.95903 c 3.30852,0 7.00855,-1.593025 9.79078,-4.226117 l 2.84318,4.226117 h 6.75648 l -6.65054,-8.107924 c 0.86337,-1.675595 1.37506,-3.544061 1.37506,-5.54391 V 61.38422 Z"
       style="fill:#000000;stroke:none;stroke-width:0.367068;stroke-linecap:butt;stroke-linejoin:miter;stroke-miterlimit:4;stroke-dasharray:none;stroke-opacity:1"
       id="path902" />
    <rect
       y="69.389801"
       x="159.22481"
       height="4.6739388"
       width="19.297352"
       id="rect910"
       style="fill:#000000;stroke:none;stroke-width:0.367069;stroke-linecap:round;stroke-miterlimit:4;stroke-dasharray:none" />
    <rect
       style="fill:#000000;stroke:none;stroke-width:0.367068;stroke-linecap:round;stroke-miterlimit:4;stroke-dasharray:none"
       id="rect910-0"
       width="19.297352"
       height="4.6739388"
       x="208.83336"
       y="69.389801" />
    <path
       style="fill:#000000;stroke:none;stroke-width:0.366492px;stroke-linecap:butt;stroke-linejoin:miter;stroke-opacity:1"
       d="m 256.82251,66.70599 v 3.285645 c 0,5.794902 -4.51267,7.126602 -9.53299,7.126602 h -10.55107 v 5.275534 h 10.92883 c 6.33601,0 12.90363,-3.901795 12.90363,-11.720967 v -9.288626 h -25.54469 v 5.275548 z"
       id="path902-2"
       sodipodi:nodetypes="ccccccccccc" />
    <path
       sodipodi:nodetypes="ccccccsccccccccc"
       id="path1667"
       d="m 270.05409,82.393771 h -5.59594 v -4.794895 h 6.2473 c 1.13892,0 1.76587,-0.905332 1.76587,-1.85388 v -2.089082 h 7.54271 c 1.39678,0 1.9834,-0.958078 1.9834,-1.78066 v -1.195759 h -18.831 v -4.482692 h 22.1864 v 6.240843 c 0,2.863487 -2.9365,5.238176 -5.10304,5.238176 h -4.97401 c 0,2.135665 -1.24029,4.717949 -5.22169,4.717949 z"
       style="fill:#000000;fill-opacity:1;stroke:none;stroke-width:0.367068;stroke-linecap:butt;stroke-linejoin:miter;stroke-miterlimit:4;stroke-dasharray:none;stroke-opacity:1" />
    <path
       style="fill:#000000;stroke:none;stroke-width:0.366492px;stroke-linecap:butt;stroke-linejoin:miter;stroke-opacity:1"
       d="m 314.88875,63.776182 -26.73429,-2.912287 v 4.842933 l 26.73429,2.912286 z"
       id="path1567-3"
       sodipodi:nodetypes="ccccc" />
    <path
       sodipodi:nodetypes="ccccc"
       id="path1567-3-9"
       d="m 314.88875,70.811529 -26.73429,-2.912286 v 4.842932 l 26.73429,2.912286 z"
       style="fill:#000000;stroke:none;stroke-width:0.366492px;stroke-linecap:butt;stroke-linejoin:miter;stroke-opacity:1" />
    <path
       sodipodi:nodetypes="ccccc"
       id="path1567-3-5"
       d="m 314.88875,77.650529 -26.73429,-2.912287 v 4.842933 l 26.73429,2.912286 z"
       style="fill:#000000;stroke:none;stroke-width:0.366492px;stroke-linecap:butt;stroke-linejoin:miter;stroke-opacity:1" />
    <path
       sodipodi:nodetypes="ccccccccc"
       id="path1605"
       d="m 180.98823,82.393771 h -2.13351 v -5.299512 h 1.47906 c 4.86279,0 7.29712,-3.361177 7.29712,-7.133528 v -8.704182 h 4.02487 v 9.718582 c 0,7.245907 -4.2221,11.41864 -10.66754,11.41864 z"
       style="fill:#000000;stroke:none;stroke-width:0.366492px;stroke-linecap:butt;stroke-linejoin:miter;stroke-opacity:1" />
    <path
       style="fill:#000000;stroke:none;stroke-width:0.366492px;stroke-linecap:butt;stroke-linejoin:miter;stroke-opacity:1"
       d="m 205.74778,82.393771 h 2.1335 v -5.299512 h -1.47905 c -4.86279,0 -7.29712,-3.361177 -7.29712,-7.133528 v -8.704182 h -4.02487 v 9.718582 c 0,7.245907 4.22209,11.41864 10.66754,11.41864 z"
       id="path1605-2"
       sodipodi:nodetypes="ccccccccc" />
    <path
       id="path1806"
       d="m 204.34452,60.81547 c -2.1186,-1.4e-5 -3.85549,1.734146 -3.85549,3.852732 2e-5,2.118599 1.73691,3.855502 3.85549,3.855488 2.11858,0 3.85549,-1.736903 3.85549,-3.855488 1e-5,-2.118572 -1.73689,-3.852732 -3.85549,-3.852732 z m 0,1.760713 c 1.16684,0 2.09204,0.925195 2.09204,2.092019 0,1.166851 -0.9252,2.094788 -2.09204,2.094788 -1.16682,1.4e-5 -2.09476,-0.927937 -2.09478,-2.094788 0,-1.166838 0.92794,-2.092032 2.09478,-2.092019 z"
       style="color:#000000;font-style:normal;font-variant:normal;font-weight:normal;font-stretch:normal;font-size:medium;line-height:normal;font-family:sans-serif;font-variant-ligatures:normal;font-variant-position:normal;font-variant-caps:normal;font-variant-numeric:normal;font-variant-alternates:normal;font-variant-east-asian:normal;font-feature-settings:normal;font-variation-settings:normal;text-indent:0;text-align:start;text-decoration:none;text-decoration-line:none;text-decoration-style:solid;text-decoration-color:#000000;letter-spacing:normal;word-spacing:normal;text-transform:none;writing-mode:lr-tb;direction:ltr;text-orientation:mixed;dominant-baseline:auto;baseline-shift:baseline;text-anchor:start;white-space:normal;shape-padding:0;shape-margin:0;inline-size:0;clip-rule:nonzero;display:inline;overflow:visible;visibility:visible;isolation:auto;mix-blend-mode:normal;color-interpolation:sRGB;color-interpolation-filters:linearRGB;solid-color:#000000;solid-opacity:1;fill:#000000;fill-opacity:1;fill-rule:nonzero;stroke:none;stroke-width:0.527749;stroke-linecap:round;stroke-linejoin:miter;stroke-miterlimit:4;stroke-dasharray:none;stroke-dashoffset:0;stroke-opacity:1;color-rendering:auto;image-rendering:auto;shape-rendering:auto;text-rendering:auto;enable-background:accumulate;stop-color:#000000" />
    <path
       sodipodi:nodetypes="ccccccccccc"
       d="m 317.72254,61.173605 v 5.667896 h 22.22508 v 10.014413 h -22.22508 v 5.537857 h 22.64157 4.12017 V 77.179849 61.173605 Z"
       style="fill:#000000;fill-opacity:1;stroke:none;stroke-width:0.367068;stroke-linecap:round;stroke-linejoin:miter;stroke-miterlimit:4;stroke-dasharray:none"
       id="rect1712" />
    <path
       sodipodi:nodetypes="cssccssccccccc"
       d="m 369.92853,61.029284 v 9.424248 c 0,4.374192 -4.87861,6.726317 -7.61287,6.726317 h -15.14734 v 5.213922 h 16.31739 c 4.26259,0 10.33177,-3.575117 10.33177,-10.774302 V 61.029284 Z m -22.74664,0.109567 v 5.702706 h 16.38846 v -5.702706 z"
       style="fill:#000000;fill-opacity:1;stroke:none;stroke-width:0.366492px;stroke-linecap:butt;stroke-linejoin:miter;stroke-opacity:1"
       id="path1706-6" />
    <g
       id="g1761"
       transform="matrix(1.3851672,0,0,1.3851672,229.84294,414.6597)">
      <path
         transform="scale(0.26458333)"
         d="m -360.47461,-1050.0078 a 56.021401,56.081938 0 0 0 -22.04492,4.5039 56.021401,56.081938 0 0 0 -34.02344,51.81249 55.416915,51.215123 0 0 1 38.4668,14.70899 55.416915,51.215123 0 0 1 16.42773,39.88476 l 1.27344,1.25391 a 56.021401,56.081938 0 0 0 51.72266,-34.89844 56.021401,56.081938 0 0 0 -12.57813,-61.15821 56.021401,56.081938 0 0 0 -39.24414,-16.1074 z"
         style="fill:#ec1d23;fill-opacity:1;stroke:none;stroke-width:1.02404;stroke-linecap:round;stroke-miterlimit:4;stroke-dasharray:none"
         id="path1702" />
      <path
         id="path1702-9"
         style="fill:#43b9e9;fill-opacity:1;stroke:none;stroke-width:0.270944;stroke-linecap:round;stroke-miterlimit:4;stroke-dasharray:none"
         d="m -124.90859,-292.55644 a 14.822329,14.838346 0 0 0 -5.83272,1.19165 14.822329,14.838346 0 0 0 -9.00203,13.70872 14.662392,13.550668 0 0 1 10.17767,3.89176 14.662392,13.550668 0 0 1 4.3465,10.55284 l 0.33694,0.33176 a 14.822329,14.838346 0 0 0 13.68495,-9.23354 14.822329,14.838346 0 0 0 -3.32796,-16.18145 14.822329,14.838346 0 0 0 -10.38335,-4.26174 z" />
      <ellipse
         ry="8.5187521"
         rx="16.960384"
         cy="-258.6445"
         cx="-143.67691"
         id="path1724"
         style="fill:#7bc049;fill-opacity:1;stroke:none;stroke-width:0.265631;stroke-linecap:round;stroke-miterlimit:4;stroke-dasharray:none" />
      <ellipse
         style="fill:#eee816;fill-opacity:1;stroke:none;stroke-width:0.265631;stroke-linecap:round;stroke-miterlimit:4;stroke-dasharray:none"
         id="path1724-2"
         cx="-114.1488"
         cy="-243.79465"
         rx="16.960384"
         ry="8.5187521" />
    </g>
  </g>
</svg>
