<?xml version="1.0" encoding="UTF-8" standalone="no"?>
<svg
   version="1.1"
   width="591.45624"
   height="100"
   id="svg2"
   sodipodi:docname="pokemonmini.svg"
   inkscape:version="1.2.1 (9c6d41e410, 2022-07-14)"
   viewBox="0 0 591.45625 100"
   xmlns:inkscape="http://www.inkscape.org/namespaces/inkscape"
   xmlns:sodipodi="http://sodipodi.sourceforge.net/DTD/sodipodi-0.dtd"
   xmlns="http://www.w3.org/2000/svg"
   xmlns:svg="http://www.w3.org/2000/svg">
  <sodipodi:namedview
     pagecolor="#ffffff"
     bordercolor="#666666"
     borderopacity="1"
     objecttolerance="10"
     gridtolerance="10"
     guidetolerance="10"
     inkscape:pageopacity="0"
     inkscape:pageshadow="2"
     inkscape:window-width="1920"
     inkscape:window-height="1017"
     id="namedview4544"
     showgrid="false"
     inkscape:pagecheckerboard="true"
     fit-margin-top="0.5"
     fit-margin-left="5"
     fit-margin-right="5"
     fit-margin-bottom="0.5"
     inkscape:zoom="0.8613517"
     inkscape:cx="388.34311"
     inkscape:cy="126.54529"
     inkscape:window-x="-8"
     inkscape:window-y="-8"
     inkscape:window-maximized="1"
     inkscape:current-layer="svg2"
     inkscape:document-rotation="0"
     viewbox-width="205.23716"
     inkscape:showpageshadow="0"
     inkscape:deskcolor="#d1d1d1" />
  <defs
     id="defs4">
    <filter
       height="1.010464"
       y="-0.0052319904"
       width="1.011313"
       x="-0.0056564772"
       id="filter1185"
       style="color-interpolation-filters:sRGB"
       inkscape:collect="always">
      <feGaussianBlur
         id="feGaussianBlur1187"
         stdDeviation="0.056772903"
         inkscape:collect="always" />
    </filter>
    <filter
       height="1.0082175"
       y="-0.0041087282"
       width="1.0121531"
       x="-0.0060765282"
       id="filter1189"
       style="color-interpolation-filters:sRGB"
       inkscape:collect="always">
      <feGaussianBlur
         id="feGaussianBlur1191"
         stdDeviation="0.056772903"
         inkscape:collect="always" />
    </filter>
    <filter
       height="1.0180506"
       y="-0.00902532"
       width="1.0159889"
       x="-0.0079944573"
       id="filter1193"
       style="color-interpolation-filters:sRGB"
       inkscape:collect="always">
      <feGaussianBlur
         id="feGaussianBlur1195"
         stdDeviation="0.056772903"
         inkscape:collect="always" />
    </filter>
    <filter
       height="1.0104493"
       y="-0.0052246621"
       width="1.0088673"
       x="-0.0044336277"
       id="filter1197"
       style="color-interpolation-filters:sRGB"
       inkscape:collect="always">
      <feGaussianBlur
         id="feGaussianBlur1199"
         stdDeviation="0.056772903"
         inkscape:collect="always" />
    </filter>
    <filter
       height="1.0104655"
       y="-0.005232732"
       width="1.0113128"
       x="-0.0056564113"
       id="filter1201"
       style="color-interpolation-filters:sRGB"
       inkscape:collect="always">
      <feGaussianBlur
         id="feGaussianBlur1203"
         stdDeviation="0.056772903"
         inkscape:collect="always" />
    </filter>
    <filter
       height="1.0104478"
       y="-0.0052238939"
       width="1.0119356"
       x="-0.0059678046"
       id="filter1205"
       style="color-interpolation-filters:sRGB"
       inkscape:collect="always">
      <feGaussianBlur
         id="feGaussianBlur1207"
         stdDeviation="0.056772903"
         inkscape:collect="always" />
    </filter>
    <filter
       height="1.0104398"
       y="-0.005219892"
       width="1.0082424"
       x="-0.0041211832"
       id="filter1209"
       style="color-interpolation-filters:sRGB"
       inkscape:collect="always">
      <feGaussianBlur
         id="feGaussianBlur1211"
         stdDeviation="0.056772903"
         inkscape:collect="always" />
    </filter>
    <filter
       height="1.0159169"
       y="-0.007958452"
       width="1.0225642"
       x="-0.011282097"
       id="filter1213"
       style="color-interpolation-filters:sRGB"
       inkscape:collect="always">
      <feGaussianBlur
         id="feGaussianBlur1215"
         stdDeviation="0.056772903"
         inkscape:collect="always" />
    </filter>
    <filter
       height="1.0208324"
       y="-0.010416223"
       width="1.0225684"
       x="-0.011284195"
       id="filter1217"
       style="color-interpolation-filters:sRGB"
       inkscape:collect="always">
      <feGaussianBlur
         id="feGaussianBlur1219"
         stdDeviation="0.056772903"
         inkscape:collect="always" />
    </filter>
    <filter
       height="1.0108291"
       y="-0.0054145546"
       width="1.0123874"
       x="-0.0061937211"
       id="filter1221"
       style="color-interpolation-filters:sRGB"
       inkscape:collect="always">
      <feGaussianBlur
         id="feGaussianBlur1223"
         stdDeviation="0.056772903"
         inkscape:collect="always" />
    </filter>
    <filter
       height="1.0159151"
       y="-0.0079575657"
       width="1.022556"
       x="-0.011277977"
       id="filter1225"
       style="color-interpolation-filters:sRGB"
       inkscape:collect="always">
      <feGaussianBlur
         id="feGaussianBlur1227"
         stdDeviation="0.056772903"
         inkscape:collect="always" />
    </filter>
    <filter
       height="1.0208326"
       y="-0.010416315"
       width="1.0225663"
       x="-0.011283134"
       id="filter1229"
       style="color-interpolation-filters:sRGB"
       inkscape:collect="always">
      <feGaussianBlur
         id="feGaussianBlur1231"
         stdDeviation="0.056772903"
         inkscape:collect="always" />
    </filter>
    <filter
       height="1.0104632"
       y="-0.0052315901"
       width="1.0119821"
       x="-0.005991044"
       id="filter1233"
       style="color-interpolation-filters:sRGB"
       inkscape:collect="always">
      <feGaussianBlur
         id="feGaussianBlur1235"
         stdDeviation="0.056772903"
         inkscape:collect="always" />
    </filter>
    <filter
       height="1.0085815"
       y="-0.0042907279"
       width="1.0115025"
       x="-0.0057512563"
       id="filter1237"
       style="color-interpolation-filters:sRGB"
       inkscape:collect="always">
      <feGaussianBlur
         id="feGaussianBlur1239"
         stdDeviation="0.056772903"
         inkscape:collect="always" />
    </filter>
  </defs>
  <g
     id="g22764"
     transform="matrix(2.8238433,0,0,2.8238433,-14.204318,-1.5259004)">
    <g
       id="g22731">
      <path
         d="m 34.587176,9.7354829 c -4.420175,0.067816 -8.796391,2.8508431 -10.310492,7.0782001 -1.423491,3.678384 -1.354016,7.86647 -0.105524,11.581956 1.31787,3.585607 4.544927,6.37786 8.304575,7.102188 5.395483,1.1995 11.57732,-1.666941 13.681296,-6.878991 C 47.767016,24.71364 47.684374,20.123933 45.951726,16.275394 44.113228,12.44392 40.035828,9.941218 35.824662,9.7542053 35.413145,9.7198623 34.99959,9.7220183 34.587176,9.7354829 Z"
         style="fill:#000000;fill-opacity:1;stroke:none;stroke-width:5.91784;stroke-linecap:butt;stroke-linejoin:round;stroke-miterlimit:4;stroke-dasharray:none;stroke-opacity:1;paint-order:markers stroke fill;filter:url(#filter1185)"
         id="path901" />
      <path
         d="m 46.776629,2.6456391 c -1.046264,0.057274 -2.102719,0.454769 -2.915969,1.0862983 -0.648905,0.546115 -1.082919,1.2476973 -1.267488,2.076257 -0.407186,1.4444003 -0.09892,2.9591313 -0.191543,4.4370546 0.01665,7.207004 -0.03328,14.422445 0.02494,21.624183 0.325585,1.416118 0.953495,3.04344 2.490286,3.501512 1.664134,0.699807 3.492746,0.296896 5.239066,0.405214 1.140075,0.07258 2.263718,-0.142885 3.27891,-0.669581 1.413611,1.052608 3.234667,0.547997 4.857779,0.670771 1.400026,-0.01438 2.858117,0.126874 4.151149,-0.510046 1.16939,-0.337574 1.922327,-1.401809 2.143178,-2.557819 0.483175,-1.236918 0.08444,-2.572204 -0.624112,-3.629493 -1.284722,-2.383065 -2.569444,-4.76613 -3.854166,-7.149195 1.361804,-2.050813 2.843745,-4.040292 4.130012,-6.129667 0.501257,-1.316473 0.910822,-3.022297 -0.169074,-4.178927 C 63.365125,10.49037 62.134368,9.6530309 60.759913,9.7629522 59.006729,9.6844934 57.251427,9.7568919 55.497332,9.7315766 55.436091,8.1244726 55.712386,6.4175479 54.926863,4.9403698 54.538075,3.7674508 53.430698,3.0649925 52.271864,2.8208137 50.603138,2.4383432 48.877323,2.7842534 47.184832,2.6339204 c -0.136067,0.00391 -0.272135,0.00781 -0.408203,0.011719 z"
         style="fill:#000000;fill-opacity:1;stroke:none;stroke-width:5.91784;stroke-linecap:butt;stroke-linejoin:round;stroke-miterlimit:4;stroke-dasharray:none;stroke-opacity:1;paint-order:markers stroke fill;filter:url(#filter1189)"
         id="path903" />
      <path
         d="M 70.553973,0.69446725 C 68.751814,0.96927218 67.38416,2.2732908 65.853558,3.1556705 64.508371,4.0657027 63.055131,4.85386 61.778203,5.8408834 c -0.578436,0.7589288 -0.386416,0.391899 -0.703063,0.7626643 -0.849022,0.8009615 -1.168584,2.0197922 -0.872143,3.1388155 0.09828,1.0927798 0.671581,2.0371408 1.360742,2.8564018 0.311945,0.474095 0.795108,1.232019 1.29532,1.723054 1.088604,0.93575 2.588139,1.860874 4.064054,1.261321 1.690766,-0.446389 3.024858,-1.652476 4.553501,-2.445034 1.367792,-0.861355 2.860647,-1.572021 4.10676,-2.598047 C 76.539245,9.5941375 77.490087,8.267681 77.009797,6.8494691 76.832801,5.6899768 76.2638,4.6468082 75.433294,3.8290268 74.64288,2.7385397 73.77168,1.6410292 72.492645,1.1111272 71.904978,0.79112453 71.223737,0.61832409 70.553973,0.69446725 Z"
         style="fill:#000000;fill-opacity:1;stroke:none;stroke-width:5.91784;stroke-linecap:butt;stroke-linejoin:round;stroke-miterlimit:4;stroke-dasharray:none;stroke-opacity:1;paint-order:markers stroke fill;filter:url(#filter1193)"
         id="path905" />
      <path
         d="m 88.430926,9.7257173 c -1.202383,0.039921 -2.400141,0.2509267 -3.542969,0.6269527 -1.711482,-0.8537984 -3.6841,-0.6140747 -5.522204,-0.5814514 -0.827159,0.1409608 -1.645348,0.5043284 -2.328676,0.9664584 -0.593891,0.544396 -1.105172,1.151147 -1.279979,1.956791 -0.492001,1.496819 -0.150466,3.086715 -0.248047,4.628905 0.01666,4.847628 -0.0333,9.703699 0.02494,14.546059 0.325585,1.416118 0.953495,3.04344 2.490286,3.501512 1.580662,0.682564 3.319701,0.297145 4.981234,0.413137 1.192639,0.05693 2.345761,-0.322294 3.368773,-0.909927 1.348393,0.967291 3.087805,0.971895 4.678043,0.88687 1.319046,0.06763 2.701215,0.07202 3.883966,-0.603097 0.447959,-0.446022 0.785035,0.04154 1.252967,0.181227 1.698301,0.731574 3.567892,0.325138 5.35337,0.443424 1.34448,-0.0114 2.7726,-0.489385 3.68517,-1.504126 1.12226,-1.441339 1.00047,-3.348384 0.96636,-5.067367 -0.039,-4.056456 0.1027,-8.1205 -0.0924,-12.172005 -0.3894,-3.38162 -2.95308,-6.572605 -6.412165,-7.1071162 C 97.566685,9.5211464 95.307108,9.7179351 93.325457,10.60267 91.782396,9.9621998 90.100438,9.6657761 88.430926,9.7257173 Z"
         style="fill:#000000;fill-opacity:1;stroke:none;stroke-width:5.91784;stroke-linecap:butt;stroke-linejoin:round;stroke-miterlimit:4;stroke-dasharray:none;stroke-opacity:1;paint-order:markers stroke fill;filter:url(#filter1197)"
         id="path907" />
      <path
         d="m 112.54225,9.7452485 c -4.38932,0.057143 -8.74912,2.7817775 -10.30029,6.9632555 -1.4573,3.666221 -1.40976,7.856637 -0.19385,11.581666 1.26551,3.534172 4.36404,6.339149 8.04279,7.149283 5.43384,1.357339 11.76777,-1.458852 13.94544,-6.71947 1.6529,-3.903855 1.57278,-8.508749 -0.13471,-12.379032 -1.75799,-3.705268 -5.60378,-6.191502 -9.65821,-6.5429681 -0.56591,-0.055744 -1.13292,-0.067539 -1.70117,-0.052734 z"
         style="fill:#000000;fill-opacity:1;stroke:none;stroke-width:5.91784;stroke-linecap:butt;stroke-linejoin:round;stroke-miterlimit:4;stroke-dasharray:none;stroke-opacity:1;paint-order:markers stroke fill;filter:url(#filter1201)"
         id="path909" />
      <path
         d="m 125.84499,9.7315766 c -1.31691,-0.063179 -2.69665,-0.013895 -3.8415,0.7236804 -0.58546,0.294568 -1.04665,0.879034 -1.40812,1.407506 -0.57496,1.17267 -0.63807,2.482234 -0.55898,3.760611 0.0167,5.414295 -0.0333,10.83703 0.0249,16.246058 0.32559,1.416118 0.9535,3.04344 2.49029,3.501512 1.6344,0.691523 3.43097,0.303391 5.14727,0.405102 1.37721,0.08831 2.76268,-0.303058 3.88829,-1.099156 1.29693,1.14587 3.1596,1.181696 4.79882,1.080078 1.45856,0.03972 3.00125,0.152338 4.3177,-0.607281 1.81116,-0.805287 2.22924,-3.053387 2.1209,-4.838701 -0.0662,-4.289358 0.10071,-8.587967 -0.0986,-12.8736 -0.38211,-3.492647 -2.93475,-6.871341 -6.51243,-7.4904071 -1.9959,-0.4061933 -4.10411,-0.2417316 -6.01314,0.4681911 -1.32005,-0.7576563 -2.88437,-0.7208917 -4.35547,-0.6835934 z"
         style="fill:#000000;fill-opacity:1;stroke:none;stroke-width:5.91784;stroke-linecap:butt;stroke-linejoin:round;stroke-miterlimit:4;stroke-dasharray:none;stroke-opacity:1;paint-order:markers stroke fill;filter:url(#filter1205)"
         id="path911" />
      <path
         d="m 155.21022,9.7315766 c -2.05888,0.060341 -4.13217,-0.094731 -6.18164,0.1113281 -2.93404,0.5272313 -5.08727,3.4937963 -4.80679,6.4406243 0.0206,5.067944 -0.059,10.140028 0.0548,15.205318 0.2957,2.726416 3.1378,4.658587 5.7879,4.277627 1.84144,0.05089 3.93499,0.165444 5.39424,-1.179536 0.39399,-0.502649 0.81173,0.493552 1.29447,0.552842 1.30954,0.813394 2.86702,0.613601 4.32721,0.639946 1.6373,0.110677 3.4242,-0.232151 4.58295,-1.483696 1.25254,1.26382 3.10965,1.663635 4.83044,1.465128 1.84433,0.125284 3.94698,0.0225 5.29269,-1.42873 1.49408,-1.394326 1.53145,-3.565788 1.44671,-5.461003 -0.0254,-4.7106 0.0716,-9.425772 -0.0599,-14.133414 -0.32368,-3.019661 -3.35548,-5.2639631 -6.32597,-5.0065074 -5.21237,-7.517e-4 -10.42474,-0.00311 -15.63711,7.3e-5 z"
         style="fill:#000000;fill-opacity:1;stroke:none;stroke-width:5.91784;stroke-linecap:butt;stroke-linejoin:round;stroke-miterlimit:4;stroke-dasharray:none;stroke-opacity:1;paint-order:markers stroke fill;filter:url(#filter1209)"
         id="path913" />
      <path
         d="m 180.97194,18.698373 c -1.49693,0.05139 -3.13406,-0.17091 -4.44022,0.748389 -1.72006,1.047057 -2.62324,3.133843 -2.39045,5.110593 0.0557,2.45288 -0.13736,4.92377 0.13308,7.364179 0.51819,2.547895 3.24165,4.162869 5.74327,3.8562 1.84482,0.142142 3.92236,-0.29889 5.04612,-1.901626 1.34666,-1.649459 1.09896,-3.875689 1.09899,-5.855858 -0.0869,-2.014517 0.23023,-4.083947 -0.27673,-6.056252 -0.67681,-2.033133 -2.80484,-3.354275 -4.91406,-3.265625 z"
         style="fill:#000000;fill-opacity:1;stroke:none;stroke-width:5.91784;stroke-linecap:butt;stroke-linejoin:round;stroke-miterlimit:4;stroke-dasharray:none;stroke-opacity:1;paint-order:markers stroke fill;filter:url(#filter1213)"
         id="path915" />
      <path
         d="m 179.76296,10.657358 c -1.96401,-0.207928 -3.9879,0.768028 -4.94922,2.511719 -0.75778,1.184402 -0.71414,2.614333 -0.66602,3.958983 -0.17044,1.916784 0.1379,4.102533 1.73907,5.374405 1.6166,1.379874 3.88071,1.26 5.86549,1.141051 2.11385,-0.158006 3.98301,-1.821282 4.30398,-3.931822 0.24673,-1.461846 0.0374,-2.951484 0.11295,-4.423476 -0.14859,-2.475028 -2.33082,-4.655816 -4.84423,-4.623923 -0.52036,-0.02217 -1.04141,-0.02031 -1.56202,-0.0069 z"
         style="fill:#000000;fill-opacity:1;stroke:none;stroke-width:5.91784;stroke-linecap:butt;stroke-linejoin:round;stroke-miterlimit:4;stroke-dasharray:none;stroke-opacity:1;paint-order:markers stroke fill;filter:url(#filter1217)"
         id="path917" />
      <path
         d="m 188.91139,10.661264 c -3.10743,0.06311 -5.9301,2.876338 -5.74358,6.030468 0.023,4.936065 -0.008,9.875361 0.0522,14.809375 0.32842,2.622331 2.97769,4.609173 5.58472,4.265418 1.89235,0.05488 4.02947,0.163438 5.55194,-1.179839 0.41972,-0.573831 0.81233,0.42231 1.30954,0.522629 1.47988,0.911412 3.27809,0.681616 4.92865,0.622464 2.3699,-0.12852 4.39641,-2.173438 4.52944,-4.539264 0.0726,-3.170823 -3e-5,-6.34819 0.0328,-9.521875 -0.0382,-2.059015 0.0762,-4.132414 -0.12375,-6.181837 -0.4919,-2.833985 -3.25657,-5.063999 -6.145,-4.831445 -3.32563,0.0026 -6.65142,-0.0052 -9.97696,0.0039 z"
         style="fill:#000000;fill-opacity:1;stroke:none;stroke-width:5.91784;stroke-linecap:butt;stroke-linejoin:round;stroke-miterlimit:4;stroke-dasharray:none;stroke-opacity:1;paint-order:markers stroke fill;filter:url(#filter1221)"
         id="path919" />
      <path
         d="m 209.1321,18.698373 c -1.5149,0.04877 -3.17687,-0.168934 -4.48987,0.777502 -1.72821,1.08187 -2.58697,3.205198 -2.33881,5.196714 0.0596,2.435313 -0.147,4.891122 0.14337,7.312146 0.55587,2.516394 3.24758,4.090312 5.72899,3.797109 1.85551,0.136054 3.95882,-0.309078 5.07121,-1.938671 1.29979,-1.610754 1.08543,-3.774797 1.07525,-5.705238 -0.0885,-2.049907 0.23211,-4.152704 -0.27022,-6.162218 -0.6709,-2.040868 -2.80623,-3.366433 -4.91992,-3.277344 z"
         style="fill:#000000;fill-opacity:1;stroke:none;stroke-width:5.91784;stroke-linecap:butt;stroke-linejoin:round;stroke-miterlimit:4;stroke-dasharray:none;stroke-opacity:1;paint-order:markers stroke fill;filter:url(#filter1225)"
         id="path921" />
      <path
         d="m 207.92311,10.657358 c -1.96119,-0.207449 -3.98177,0.764726 -4.94531,2.503907 -0.74083,1.162031 -0.72801,2.564256 -0.66633,3.886244 -0.15999,1.887002 0.0773,4.030986 1.60416,5.34251 1.55665,1.447941 3.81727,1.370319 5.79428,1.277001 2.08075,-0.10023 4.0247,-1.605932 4.44541,-3.681146 0.35729,-1.541496 0.0815,-3.135136 0.17404,-4.697656 -0.14835,-2.476237 -2.32858,-4.658094 -4.84422,-4.623923 -0.52036,-0.02217 -1.04141,-0.02031 -1.56203,-0.0069 z"
         style="fill:#000000;fill-opacity:1;stroke:none;stroke-width:5.91784;stroke-linecap:butt;stroke-linejoin:round;stroke-miterlimit:4;stroke-dasharray:none;stroke-opacity:1;paint-order:markers stroke fill;filter:url(#filter1229)"
         id="path923" />
      <path
         d="m 68.446551,9.7432954 c -3.906248,0.039807 -7.832227,2.3112186 -9.374289,5.9791766 -1.504782,3.325983 -1.700034,7.173309 -0.901102,10.708323 1.022673,4.12539 4.124002,7.908199 8.356277,8.946439 2.693022,0.6618 5.532285,0.411486 8.222438,-0.130192 1.880675,-0.3844 3.769282,-1.645063 4.15556,-3.638095 0.321192,-1.302075 0.151703,-2.658149 0.152444,-3.978933 1.425452,-1.25307 1.459225,-3.323188 1.360088,-5.074503 0.24246,-4.33085 -1.565677,-9.030561 -5.419223,-11.303836 -1.960332,-1.168586 -4.289869,-1.6073699 -6.552193,-1.5083796 z"
         style="fill:#000000;fill-opacity:1;stroke:none;stroke-width:5.91784;stroke-linecap:butt;stroke-linejoin:round;stroke-miterlimit:4;stroke-dasharray:none;stroke-opacity:1;paint-order:markers stroke fill;filter:url(#filter1233)"
         id="path925" />
      <path
         d="M 17.778582,4.0362641 C 14.885819,4.1052996 11.98078,3.9999604 9.0946214,4.1244866 7.7863775,4.3734749 6.2245135,4.8217776 5.7785819,6.2511079 4.8358929,7.9307032 5.2911595,9.8974875 5.1887382,11.723765 c 0.01665,6.710259 -0.033285,13.428957 0.024941,20.133948 0.3255856,1.416118 0.953495,3.04344 2.4902863,3.501514 1.6855981,0.705525 3.5366145,0.292476 5.3046925,0.406153 1.235862,0.03619 2.497651,-0.0084 3.61015,-0.608336 1.537334,-0.552742 2.103902,-2.272351 2.202688,-3.759673 -0.0028,-1.336344 -0.02204,-2.677506 -0.0058,-4.011497 3.773454,-0.07234 7.728153,-2.027018 9.321643,-5.587573 1.001361,-2.170509 0.636815,-4.617319 0.70802,-6.93075 C 28.945489,12.467725 28.445924,9.996285 27.05158,8.0033912 25.470897,5.5592673 22.626894,4.1453668 19.750794,4.0603065 19.094132,4.0228233 18.436013,4.0239531 17.778582,4.0362641 Z M 17.405535,14.70814 c 0.419786,0.131193 1.475108,0.633879 0.967777,1.108668 -0.347713,0.489724 -0.890307,0.815009 -1.50098,0.778049 -0.400348,-0.475058 -1.102965,-0.958077 -0.284407,-1.401033 0.268854,-0.214892 0.404607,-0.654235 0.81761,-0.485684 z"
         style="fill:#000000;fill-opacity:1;stroke:none;stroke-width:5.91784;stroke-linecap:butt;stroke-linejoin:round;stroke-miterlimit:4;stroke-dasharray:none;stroke-opacity:1;paint-order:markers stroke fill;filter:url(#filter1237)"
         id="path927" />
      <rect
         ry="4.8441167"
         rx="4.1145678"
         y="10.479405"
         x="10.603882"
         height="11.433554"
         width="12.233106"
         id="rect1270"
         style="fill:#000000;fill-opacity:1;stroke:none;stroke-width:6.29598;stroke-linejoin:miter;stroke-miterlimit:4;stroke-dasharray:none;paint-order:markers stroke fill" />
    </g>
    <g
       id="g883"
       transform="translate(3.2278007,1.1827485)">
      <path
         d="m 31.787295,12.54639 c -1.55518,-0.003 -7.78125,0.49219 -7.78125,8.96875 0,9.68751 8.125,9.0625 8.125,9.0625 0,0 7.9375,-0.0827 7.9375,-9.0625 0,-8.97973 -7.84822,-8.96223 -7.9375,-8.96875 0,0 -0.12158,4.3e-4 -0.34375,0 z m 0.34375,4.59375 c 0,0 2.90625,-0.46873 2.90625,4.375 0,4.48661 -2.90625,4 -2.90625,4 0,0 -3.03125,0.0345 -3.03125,-4 0,-4.86048 3.03125,-4.31866 3.03125,-4.375 z"
         id="path3667"
         style="fill:#ffffff;fill-opacity:1;stroke:none;stroke-width:5.91784;stroke-linecap:butt;stroke-linejoin:round;stroke-miterlimit:4;stroke-dasharray:none;stroke-opacity:1;paint-order:markers stroke fill"
         inkscape:connector-curvature="0" />
      <path
         d="m 43.17397,5.4710705 h 5.08928 V 19.18982 l 3.9375,-6.64045 h 5.4375 l -5.4375,7.95295 5.4375,10.08775 h -5.4375 l -3.9375,-8.39689 v 8.39689 h -5.08928 z"
         id="path3678"
         style="fill:#ffffff;fill-opacity:1;stroke:none;stroke-width:5.91784;stroke-linecap:butt;stroke-linejoin:round;stroke-miterlimit:4;stroke-dasharray:none;stroke-opacity:1;paint-order:markers stroke fill"
         inkscape:connector-curvature="0" />
      <path
         d="m 60.75027,7.9153105 1.92245,2.7179405 7.31413,-4.3752305 -2.2539,-2.80633 -6.89429,4.41942 -0.0884,0.0442 z"
         id="path3711"
         style="fill:#ffffff;fill-opacity:1;stroke:none;stroke-width:5.91784;stroke-linecap:butt;stroke-linejoin:round;stroke-miterlimit:4;stroke-dasharray:none;stroke-opacity:1;paint-order:markers stroke fill"
         inkscape:connector-curvature="0" />
      <path
         d="m 76.281065,30.59007 h 4.5 v -10.369 c 0,0 0.1875,-2.72656 2.5,-2.72656 2.3125,0 2.3125,2.72656 2.3125,2.72656 v 10.369 h 4.25 v -10.369 c 0,0 0.0937,-2.72656 2.40625,-2.72656 2.3125,0 2.3125,2.72656 2.3125,2.72656 v 10.369 h 4.40625 V 17.49451 c 0,0 0.3125,-4.94514 -4.40625,-4.94514 -4.71875,0 -4.71875,2.94179 -4.71875,2.94179 0,0 0.5625,-2.94179 -4.25,-2.94179 -4.8125,0 -4.8125,2.94179 -4.8125,2.94179 0,0 0.6875,-2.94179 -1.90625,-2.94179 -2.59375,0 -2.59375,0 -2.59375,0 z"
         id="path3727"
         style="fill:#ffffff;fill-opacity:1;stroke:none;stroke-width:5.91784;stroke-linecap:butt;stroke-linejoin:round;stroke-miterlimit:4;stroke-dasharray:none;stroke-opacity:1;paint-order:markers stroke fill"
         inkscape:connector-curvature="0" />
      <path
         d="m 109.70751,12.55589 c -1.55518,-0.003 -7.78125,0.49219 -7.78125,8.96875 0,9.68751 8.125,9.0625 8.125,9.0625 0,0 7.9375,-0.0827 7.9375,-9.0625 0,-8.97973 -7.84822,-8.96223 -7.9375,-8.96875 0,0 -0.12158,4.3e-4 -0.34375,0 z m 0.34375,4.59375 c 0,0 2.90625,-0.46873 2.90625,4.375 0,4.48661 -2.90625,4 -2.90625,4 0,0 -3.03125,0.0345 -3.03125,-4 0,-4.86048 3.03125,-4.31866 3.03125,-4.375 z"
         id="path3667-1"
         style="fill:#ffffff;fill-opacity:1;stroke:none;stroke-width:5.91784;stroke-linecap:butt;stroke-linejoin:round;stroke-miterlimit:4;stroke-dasharray:none;stroke-opacity:1;paint-order:markers stroke fill"
         inkscape:connector-curvature="0" />
      <path
         d="m 120.80803,30.59007 h 4.90625 v -10.369 c 0,0 -0.125,-2.72656 2.59375,-2.72656 2.71875,0 2.71875,2.72656 2.71875,2.72656 v 10.369 h 4.5625 V 17.49451 c 0,0 0.0312,-4.94514 -4.5625,-4.94514 -4.59375,0 -5.3125,2.94179 -5.3125,2.94179 0,0 0.4375,-2.94179 -1.375,-2.94179 -1.8125,0 -3.53125,0 -3.53125,0 z"
         id="path3759"
         style="fill:#ffffff;fill-opacity:1;stroke:none;stroke-width:5.91784;stroke-linecap:butt;stroke-linejoin:round;stroke-miterlimit:4;stroke-dasharray:none;stroke-opacity:1;paint-order:markers stroke fill"
         inkscape:connector-curvature="0" />
      <path
         d="m 146.91606,12.54937 h 21.05853 c 0,0 2.03293,-0.0783 2.03293,1.9217 0,2 0,15.07728 0,15.07728 0,0 0.0442,1.04172 -0.97227,1.04172 -1.01647,0 -3.0494,0 -3.0494,0 0,0 -1.01647,-0.0253 -1.01647,-1.04172 0,-1.01646 0,-9.32728 0,-9.32728 0,0 -0.0884,-1.19093 -0.97227,-1.19093 -0.88388,0 -3.0494,0 -3.0494,0 0,0 -1.01646,-0.1171 -1.01646,1.19093 0,1.30803 0,9.32728 0,9.32728 0,0 -0.13258,1.04172 -1.01647,1.04172 -0.88388,0 -2.87262,0 -2.87262,0 0,0 -1.10485,0.0631 -1.10485,-1.04172 0,-1.10485 0,-9.32728 0,-9.32728 0,0 0.30935,-1.19093 -1.06066,-1.19093 -1.37002,0 -2.87262,0 -2.87262,0 0,0 -1.01647,-0.1171 -1.01647,1.19093 0,1.30803 0,9.32728 0,9.32728 0,0 0,1.04172 -1.01647,1.04172 -1.01646,0 -3.04939,0 -3.04939,0 0,0 -0.92808,-0.0694 -0.92808,-1.04172 0,-0.97227 0,-15.07728 0,-15.07728 0,0 0.0442,-1.77647 1.92244,-1.9217 z"
         id="path3775"
         style="fill:#f1d941;fill-opacity:1;stroke:none;stroke-width:5.91784;stroke-linecap:butt;stroke-linejoin:round;stroke-miterlimit:4;stroke-dasharray:none;stroke-opacity:1;paint-order:markers stroke fill"
         inkscape:connector-curvature="0" />
      <path
         d="m 177.95751,21.5291 c 0,0 0.97723,-0.0737 0.97723,0.96541 0,1.03906 0,7.05384 0,7.05384 0,0 -0.10223,1.04172 -0.94598,1.04172 -0.84375,0 -2.0625,0 -2.0625,0 0,0 -1.01319,-0.0269 -1.01319,-1.04172 0,-1.01478 0,-7.05384 0,-7.05384 0,0 0.0444,-0.96541 1.04444,-0.96541 1,0 1.9375,0.0357 2,0 z"
         id="path3787"
         style="fill:#f1d941;fill-opacity:1;stroke:none;stroke-width:5.91784;stroke-linecap:butt;stroke-linejoin:round;stroke-miterlimit:4;stroke-dasharray:none;stroke-opacity:1;paint-order:markers stroke fill"
         inkscape:connector-curvature="0" />
      <path
         d="m 175.95751,18.49981 c 0,0 -1.04444,0.0181 -1.04444,-1.0053 0,-1.02344 0,-3.02344 0,-3.02344 0,0 -0.002,-1 1.06006,-1 1.0625,0 2,0 2,0 0,0 0.96161,-0.0201 0.96161,1 0,1.02009 0,3.02344 0,3.02344 0,0 0.10089,1.0053 -0.94598,1.0053 -1.04688,0 -2,-0.0131 -2.03125,0 z"
         id="path3789"
         style="fill:#f1d941;fill-opacity:1;stroke:none;stroke-width:5.91784;stroke-linecap:butt;stroke-linejoin:round;stroke-miterlimit:4;stroke-dasharray:none;stroke-opacity:1;paint-order:markers stroke fill"
         inkscape:connector-curvature="0" />
      <path
         d="m 183.92626,29.54835 c 0,0 0.0312,1.04172 1.03125,1.04172 1,0 2.9375,0 2.9375,0 0,0 1.03125,-0.0582 1.03125,-1.04172 0,-0.98353 0,-9.32728 0,-9.32728 0,0 0.0312,-1.19093 1,-1.19093 0.96875,0 3,0 3,0 0,0 1.03125,-0.1171 1.03125,1.19093 0,1.30803 0,9.32728 0,9.32728 0,0 -0.0625,1.04172 1,1.04172 1.0625,0 2.03125,0 2.03125,0 0,0 0.9375,-0.0582 0.9375,-1.04172 0,-0.98353 0,-14.05719 0,-14.05719 0,0 -0.0312,-2.02009 -2,-2.02009 -1.96875,0 -9.96875,0 -9.96875,0 0,0 -2.03125,0.0167 -2.03125,2.02009 0,2.00335 0.0937,14.16741 0,14.05719 z"
         id="path3807"
         style="fill:#f1d941;fill-opacity:1;stroke:none;stroke-width:5.91784;stroke-linecap:butt;stroke-linejoin:round;stroke-miterlimit:4;stroke-dasharray:none;stroke-opacity:1;paint-order:markers stroke fill"
         inkscape:connector-curvature="0" />
      <path
         d="m 206.11815,21.5291 c 0,0 0.97723,-0.0737 0.97723,0.96541 0,1.03906 0,7.05384 0,7.05384 0,0 -0.10223,1.04172 -0.94598,1.04172 -0.84375,0 -2.0625,0 -2.0625,0 0,0 -1.01319,-0.0269 -1.01319,-1.04172 0,-1.01478 0,-7.05384 0,-7.05384 0,0 0.0444,-0.96541 1.04444,-0.96541 1,0 1.9375,0.0357 2,0 z"
         id="path3787-7"
         style="fill:#f1d941;fill-opacity:1;stroke:none;stroke-width:5.91784;stroke-linecap:butt;stroke-linejoin:round;stroke-miterlimit:4;stroke-dasharray:none;stroke-opacity:1;paint-order:markers stroke fill"
         inkscape:connector-curvature="0" />
      <path
         d="m 204.11815,18.49981 c 0,0 -1.04444,0.0181 -1.04444,-1.0053 0,-1.02344 0,-3.02344 0,-3.02344 0,0 -0.002,-1 1.06006,-1 1.0625,0 2,0 2,0 0,0 0.96161,-0.0201 0.96161,1 0,1.02009 0,3.02344 0,3.02344 0,0 0.10089,1.0053 -0.94598,1.0053 -1.04688,0 -2,-0.0131 -2.03125,0 z"
         id="path3789-4"
         style="fill:#f1d941;fill-opacity:1;stroke:none;stroke-width:5.91784;stroke-linecap:butt;stroke-linejoin:round;stroke-miterlimit:4;stroke-dasharray:none;stroke-opacity:1;paint-order:markers stroke fill"
         inkscape:connector-curvature="0" />
      <path
         d="m 65.857,12.54639 c -6.0023,0 -7.375,4.58206 -7.375,8.96875 0,4.38669 2.65472,9.0625 7.78125,9.0625 5.12652,0 5.59375,-1.03125 5.59375,-1.03125 v -3.03125 c -0.0361,-0.0112 -4.19654,0 -6.40625,0 -2.20971,0 -1.78125,-2.96875 -1.78125,-2.96875 h 9.53125 v -3.3125 c 0,0 0.002,-7.6875 -7.34375,-7.6875 z m 0.34375,3.9375 c 2.5357,0 2.5625,1 2.5625,1 v 2.75 H 63.6695 v -2.75 c 0,0 -0.004,-1 2.53125,-1 z"
         id="path3696"
         style="fill:#ffffff;fill-opacity:1;stroke:none;stroke-width:5.91784;stroke-linecap:butt;stroke-linejoin:round;stroke-miterlimit:4;stroke-dasharray:none;stroke-opacity:1;paint-order:markers stroke fill"
         inkscape:connector-curvature="0" />
      <path
         d="M 5.9603824,6.8588905 V 30.57764 h 5.6249996 v -8.375 h 4.375003 c 0,0 5.65625,-0.46946 5.65625,-5.0625 v -4.59375 c 0,0 -0.0356,-5.6874995 -5.65625,-5.6874995 -5.564873,0 -9.9757726,0.0794 -10.0000026,0 z m 5.6249996,4.5937505 c 0.008,0.002 2.107141,0 3.000002,0 1.540181,0.455749 1.375001,2.031249 1.375001,2.031249 v 2 c 0,1.66295 -1.375001,2 -1.375001,2 h -3.000002 z"
         id="path2870"
         style="fill:#ffffff;fill-opacity:1;stroke:none;stroke-width:5.91784;stroke-linecap:butt;stroke-linejoin:round;stroke-miterlimit:4;stroke-dasharray:none;stroke-opacity:1;paint-order:markers stroke fill"
         inkscape:connector-curvature="0" />
    </g>
  </g>
</svg>
