<?xml version="1.0" encoding="UTF-8" standalone="no"?>
<svg
   height="100"
   viewBox="0 0 707.49713 100"
   width="707.49713"
   version="1.1"
   id="svg91358"
   sodipodi:docname="saturn.svg"
   inkscape:version="1.2.1 (9c6d41e410, 2022-07-14)"
   xmlns:inkscape="http://www.inkscape.org/namespaces/inkscape"
   xmlns:sodipodi="http://sodipodi.sourceforge.net/DTD/sodipodi-0.dtd"
   xmlns:xlink="http://www.w3.org/1999/xlink"
   xmlns="http://www.w3.org/2000/svg"
   xmlns:svg="http://www.w3.org/2000/svg">
  <defs
     id="defs91362" />
  <sodipodi:namedview
     id="namedview91360"
     pagecolor="#505050"
     bordercolor="#ffffff"
     borderopacity="1"
     inkscape:showpageshadow="0"
     inkscape:pageopacity="0"
     inkscape:pagecheckerboard="1"
     inkscape:deskcolor="#505050"
     showgrid="false"
     inkscape:zoom="0.9703633"
     inkscape:cx="425.09852"
     inkscape:cy="15.458128"
     inkscape:window-width="1920"
     inkscape:window-height="1017"
     inkscape:window-x="-8"
     inkscape:window-y="-8"
     inkscape:window-maximized="1"
     inkscape:current-layer="svg91358" />
  <linearGradient
     id="a">
    <stop
       offset="0"
       stop-color="#999"
       id="stop91261" />
    <stop
       offset=".98"
       stop-color="#f3f3f3"
       id="stop91263" />
  </linearGradient>
  <linearGradient
     id="c"
     gradientTransform="matrix(1,0,0,-1,0.833,282.8)"
     gradientUnits="userSpaceOnUse"
     x1="194.84399"
     x2="250.60201"
     xlink:href="#a"
     y1="197.08"
     y2="252.838" />
  <linearGradient
     id="d"
     gradientTransform="matrix(1,0,0,-1,0.833,282.8)"
     gradientUnits="userSpaceOnUse"
     x1="446.32401"
     x2="503.134"
     xlink:href="#a"
     y1="199.214"
     y2="256.02499" />
  <linearGradient
     id="e"
     gradientTransform="matrix(1,0,0,-1,0.833,282.8)"
     gradientUnits="userSpaceOnUse"
     x1="254.11"
     x2="308.39801"
     xlink:href="#a"
     y1="201.771"
     y2="256.05899" />
  <linearGradient
     id="f"
     gradientTransform="matrix(1,0,0,-1,0.833,282.8)"
     gradientUnits="userSpaceOnUse"
     x1="305.78201"
     x2="365.539"
     xlink:href="#a"
     y1="195.97099"
     y2="255.728" />
  <linearGradient
     id="g"
     gradientTransform="matrix(1,0,0,-1,0.833,282.8)"
     gradientUnits="userSpaceOnUse"
     x1="374.564"
     x2="433.06"
     xlink:href="#a"
     y1="193.681"
     y2="252.177" />
  <linearGradient
     id="h"
     gradientTransform="matrix(1,0,0,-1,0.833,282.8)"
     gradientUnits="userSpaceOnUse"
     x1="511.67999"
     x2="573.12097"
     xlink:href="#a"
     y1="192.34599"
     y2="253.787" />
  <linearGradient
     id="i"
     gradientTransform="matrix(1,0,0,-1,0.833,282.8)"
     gradientUnits="userSpaceOnUse"
     x1="553.90302"
     x2="611.34497"
     xlink:href="#a"
     y1="206.09599"
     y2="263.539" />
  <linearGradient
     id="j"
     gradientTransform="matrix(1,0,0,-1,0.833,282.8)"
     gradientUnits="userSpaceOnUse"
     x1="614.177"
     x2="672.25"
     xlink:href="#a"
     y1="200.53"
     y2="258.603" />
  <linearGradient
     id="k"
     gradientTransform="matrix(1,0,0,-1,0.833,282.8)"
     gradientUnits="userSpaceOnUse"
     x1="680.01703"
     x2="738.50897"
     xlink:href="#a"
     y1="198.23801"
     y2="256.73099" />
  <linearGradient
     id="l"
     gradientTransform="matrix(1,0,0,-1,0.833,282.8)"
     gradientUnits="userSpaceOnUse"
     x1="743.90698"
     x2="800.72101"
     xlink:href="#a"
     y1="198.737"
     y2="255.55099" />
  <radialGradient
     id="m"
     cx="141.918"
     cy="231.59599"
     gradientTransform="matrix(1,0,0,-1,0,286.16)"
     gradientUnits="userSpaceOnUse"
     r="23.315001">
    <stop
       offset=".43"
       stop-color="#fff"
       id="stop91276" />
    <stop
       offset=".64"
       stop-color="#7a7a7a"
       id="stop91278" />
    <stop
       offset=".99"
       id="stop91280" />
  </radialGradient>
  <linearGradient
     id="b">
    <stop
       offset="0"
       stop-color="#fff"
       id="stop91283" />
    <stop
       offset="1"
       id="stop91285" />
  </linearGradient>
  <radialGradient
     id="n"
     cx="29.118"
     cy="197"
     gradientTransform="matrix(1,0,0,-1,0,286.16)"
     gradientUnits="userSpaceOnUse"
     r="24.065001"
     xlink:href="#b" />
  <radialGradient
     id="o"
     cx="41.026001"
     cy="247.634"
     gradientTransform="matrix(1,0,0,-1,0,286.16)"
     gradientUnits="userSpaceOnUse"
     r="55.138">
    <stop
       offset=".813"
       stop-color="#fff"
       id="stop91289" />
    <stop
       offset="1"
       stop-color="#575757"
       id="stop91291" />
  </radialGradient>
  <radialGradient
     id="p"
     cx="147.562"
     cy="286.11499"
     gradientTransform="matrix(1,0,0,-1,0,286.16)"
     gradientUnits="userSpaceOnUse"
     r="30.832001"
     xlink:href="#b" />
  <linearGradient
     id="q"
     gradientTransform="matrix(1,0,0,-1,0,286.16)"
     gradientUnits="userSpaceOnUse"
     x1="32.949001"
     x2="23.549999"
     y1="240.078"
     y2="247.22099">
    <stop
       offset="0"
       id="stop91295" />
    <stop
       offset="1"
       stop-color="#fff"
       id="stop91297" />
  </linearGradient>
  <radialGradient
     id="r"
     cx="95.703003"
     cy="249.8"
     gradientTransform="matrix(1,0,0,-1,0,286.16)"
     gradientUnits="userSpaceOnUse"
     r="50.008999">
    <stop
       offset=".04"
       stop-color="#fff"
       id="stop91300" />
    <stop
       offset=".23"
       stop-color="#6e93e1"
       id="stop91302" />
    <stop
       offset="1"
       stop-color="#363499"
       id="stop91304" />
  </radialGradient>
  <linearGradient
     id="s"
     gradientTransform="matrix(1,0,0,-1,0,286.16)"
     gradientUnits="userSpaceOnUse"
     x1="92.507004"
     x2="88.742996"
     y1="220.558"
     y2="232.854">
    <stop
       offset="0"
       id="stop91307" />
    <stop
       offset=".989"
       stop-color="#fff"
       id="stop91309" />
  </linearGradient>
  <g
     id="g92482"
     transform="matrix(0.88276839,0,0,0.88276839,-2.4147031e-4,7.2401124e-7)">
    <g
       stroke="#484848"
       stroke-linecap="round"
       stroke-linejoin="round"
       stroke-width="1.44"
       id="g91332">
      <path
         d="m 249.833,34.44 c -0.7,-1.2 -1.8,-2.1 -3.2,-2.5 -24,-6.9 -39.5,-5.8 -46.4,3 -2.5,2.8 -3.9,5.6 -4.4,8.6 -0.5,2.8 -0.2,5.6 1.1,8.3 h -0.1 c 1.1,1.9 2.5,3.9 4.4,5.5 h 0.2 c 1.6,1.2 3.2,2.3 5.1,3.2 1.2,0.7 4.4,1.1 9.3,1.2 1.1,0.2 2.8,0.2 5.6,0.2 2.5,0.2 4.4,0.2 5.8,0.2 4.4,0.2 8.8,0.5 10.2,0.9 1.4,0.5 3.9,3 4.1,4.2 0.2,1.2 0,0 0,0 0.4,0.7 0.5,0.9 0.4,2.6 -0.2,1.8 -0.9,1.4 -1.6,2.3 v -0.2 c -0.9,0.7 -2.1,1.2 -3.9,1.8 -2.6,0.5 -5.8,1.1 -9.5,1.1 -3.7,0.2 -7.4,0 -11.1,-0.4 -3.5,-0.5 -6.7,-1.1 -9.3,-1.8 -1.2,-0.4 -2.6,-0.4 -3.9,0.4 -1.2,0.5 -2.1,1.6 -2.6,3 -0.5,1.2 -0.4,2.6 0.4,4.1 0.7,1.2 1.8,2.1 3.2,2.5 3.2,1.1 6.9,1.8 11.3,2.3 4.2,0.4 8.5,0.5 12.7,0.5 4.6,-0.2 8.5,-0.7 11.8,-1.4 4.6,-1.1 7.8,-2.8 9.3,-5.1 h 0.2 c 1.4,-1.8 2.5,-3.4 3,-4.8 v -0.2 c 0.7,-1.8 1.1,-3.5 1.1,-5.3 v -0.2 c -0.2,-1.2 0,-3.2 -0.7,-5.1 -0.2,-0.9 -0.5,-1.4 -1.9,-4.6 -1.4,-3 -4.8,-4.9 -10.4,-6.2 -2.8,-0.5 -6.9,-0.9 -12,-1.1 -1.4,-0.2 -3.5,-0.2 -6.2,-0.2 h -5.5 c -2.8,0 -4.6,-0.2 -5.3,-0.4 -1.1,-0.5 -1.8,-0.9 -2.5,-1.6 -0.7,-0.7 -1.4,-1.4 -1.8,-2.1 v -0.2 c -0.4,-0.5 -0.5,-1.1 -0.4,-1.8 0.4,-1.1 0.9,-2.3 1.9,-3.5 5.3,-5.1 17.1,-5.1 35.4,0.2 1.4,0.4 2.8,0.2 3.9,-0.5 1.4,-0.7 2.3,-1.8 2.5,-3.2 0.7,-1.1 0.5,-2.5 -0.2,-3.7 z"
         fill="url(#c)"
         id="path91312"
         style="fill:url(#c)" />
      <path
         d="m 502.333,31.24 c -0.7,-1.2 -1.8,-2.1 -3.2,-2.5 -24,-6.7 -39.5,-5.8 -46.4,3 -2.5,2.8 -3.9,5.6 -4.4,8.6 -0.5,2.8 -0.2,5.6 1.1,8.3 h -0.2 c 1.1,1.9 2.5,3.9 4.4,5.5 h 0.2 c 1.6,1.2 3.2,2.3 5.1,3.2 1.2,0.7 4.4,1.1 9.3,1.2 h 5.6 c 2.5,0.2 4.4,0.2 5.8,0.2 h 0.2 c 4.4,0 8.8,0.5 10.2,0.9 1.4,0.5 3.9,3 4.1,4.2 0.2,1.2 0,0 0,0 0.2,0.7 0.5,0.9 0.4,2.6 -0.2,1.8 -0.9,1.4 -1.6,2.3 v -0.1 c -0.9,0.7 -2.1,1.2 -3.9,1.8 -2.6,0.5 -5.8,1.1 -9.5,1.1 -3.7,0.2 -7.4,0 -11.1,-0.4 -3.5,-0.5 -6.7,-1.1 -9.3,-1.8 -1.2,-0.4 -2.6,-0.4 -3.9,0.4 -1.2,0.5 -2.3,1.6 -2.6,3 -0.5,1.2 -0.2,2.6 0.4,4.1 0.7,1.2 1.8,2.1 3.2,2.5 3.2,1.1 6.9,1.8 11.3,2.3 4.2,0.4 8.5,0.5 12.7,0.5 4.6,-0.2 8.5,-0.7 11.8,-1.4 4.6,-1.1 7.8,-2.8 9.3,-5.1 h 0.2 c 1.4,-1.8 2.5,-3.4 3,-4.8 v -0.2 c 0.7,-1.8 1.1,-3.5 1.1,-5.3 v -0.2 c -0.2,-1.2 0,-3.2 -0.7,-5.1 -0.2,-0.9 -0.5,-1.4 -1.9,-4.6 -1.4,-3 -4.8,-4.9 -10.4,-6.2 h -0.2 c -2.8,-0.5 -6.9,-0.9 -12,-1.1 -1.4,0 -3.5,0 -6.2,-0.2 -2.6,0 -4.4,0 -5.5,-0.2 -2.8,0 -4.6,-0.2 -5.3,-0.4 -1.1,-0.5 -1.8,-0.9 -2.6,-1.6 -0.7,-0.7 -1.4,-1.4 -1.8,-2.1 -0.4,-0.5 -0.5,-1.1 -0.2,-1.8 0.2,-1.1 0.9,-2.3 1.9,-3.5 5.3,-5.1 17.1,-5.1 35.4,0.2 1.4,0.4 2.6,0.2 3.9,-0.5 1.4,-0.7 2.3,-1.8 2.6,-3.2 0.6,-1.1 0.5,-2.3 -0.3,-3.6 z"
         fill="url(#d)"
         id="path91314"
         style="fill:url(#d)" />
      <path
         d="m 301.733,30.04 c -1.1,-0.9 -2.3,-1.4 -3.7,-1.4 h -35.3 c -1.4,0 -2.6,0.5 -3.7,1.4 -1.1,1.1 -1.6,2.3 -1.6,3.7 v 43.7 c 0,1.4 0.5,2.6 1.6,3.7 1.1,1.1 2.3,1.6 3.7,1.6 h 35.3 c 1.4,0 2.6,-0.5 3.7,-1.6 0.9,-0.9 1.4,-2.3 1.4,-3.7 0,-1.4 -0.5,-2.6 -1.4,-3.7 -1.1,-0.9 -2.3,-1.4 -3.7,-1.4 h -30 v -11.4 h 22 c 1.4,0 2.6,-0.5 3.7,-1.6 0.9,-0.9 1.4,-2.3 1.4,-3.7 0,-1.4 -0.5,-2.6 -1.4,-3.7 -1.1,-0.9 -2.3,-1.4 -3.7,-1.4 h -22 v -11.5 h 30 c 1.4,0 2.6,-0.5 3.7,-1.6 0.9,-0.9 1.4,-2.1 1.4,-3.7 0.2,-1.4 -0.4,-2.6 -1.4,-3.7 z"
         fill="url(#e)"
         id="path91316"
         style="fill:url(#e)" />
      <path
         d="m 362.533,36.24 c -0.2,-1.6 -1.1,-2.8 -2.1,-3.5 -9.7,-6.9 -20.3,-8.3 -30.5,-6.5 -4.1,0.9 -5.3,0.9 -9.7,3 -4.4,2.1 -7.4,6.2 -7.4,6.2 -2.1,2.3 -3.2,5.1 -4.6,8.8 -1.4,3.7 -1.4,5.5 -1.6,10.1 -0.2,4.6 0.4,8.8 1.8,12.7 1.2,4.1 3.4,7.6 6,10.4 2.6,3 5.8,5.5 9.7,6.9 3.7,1.6 7.9,2.5 12.3,2.5 10.6,0 18.2,-2.5 22.9,-7.1 5.5,-4.9 7.8,-12.2 6.9,-22 -0.2,-1.6 -0.7,-2.6 -1.6,-3.7 -1.1,-0.9 -2.1,-1.4 -3.5,-1.4 h -22.9 c -1.4,0 -2.6,0.5 -3.7,1.6 -1.1,1.1 -1.6,2.5 -1.6,4.1 0,1.6 0.5,3 1.6,4.1 1.1,1.1 2.3,1.8 3.7,1.8 h 17.6 c -0.4,2.8 -1.4,5.3 -3.2,7.1 -3.4,3 -8.8,4.4 -16,4.4 -3,0 -6,-0.5 -8.5,-1.6 l -0.2,-0.2 c -2.3,-0.9 -4.2,-2.3 -5.8,-4.2 -1.6,-1.8 -2.8,-4.1 -3.7,-6.3 -0.9,-2.6 -1.2,-5.5 -1.1,-8.5 0,-3.2 0.5,-4.9 1.1,-7.2 0.5,-1.6 1.1,-3 2.1,-4.1 0,0 1.6,-2.5 4.2,-3.7 2.6,-1.4 4.6,-1.8 7.8,-2.6 h 0.2 c 7.8,-1.9 15.2,-0.4 22.2,4.9 1.2,0.9 2.5,1.1 3.9,0.9 1.4,-0.4 2.5,-1.1 3.4,-2.5 0.3,-1.4 0.7,-2.8 0.3,-4.4 z"
         fill="url(#f)"
         id="path91318"
         style="fill:url(#f)" />
      <path
         d="m 429.233,82.44 c 0.9,-1.2 1.2,-2.5 1.1,-3.9 -5.5,-36.5 -15.5,-54.5 -30,-53.6 -14.5,-0.9 -24.5,16.4 -29.8,51.8 -0.2,1.4 0.2,2.6 1.1,3.9 0.9,1.2 1.9,1.9 3.4,2.1 1.5,0.2 2.6,-0.2 3.9,-0.9 1.1,-0.9 1.8,-1.9 2.1,-3.4 0.7,-4.4 1.4,-8.5 2.1,-12.2 h 34.2 c 0.9,4.2 1.8,8.8 2.5,13.9 0.2,1.4 0.9,2.5 2.1,3.4 1.1,0.9 2.5,1.2 3.9,0.9 1.3,-0.3 2.5,-1 3.4,-2 z m -43.6,-26.8 c 3.9,-13 8.8,-19.8 14.6,-20.1 5.6,0.5 10.6,7.2 14.3,20.1 z"
         fill="url(#g)"
         id="path91320"
         style="fill:url(#g)" />
      <path
         d="m 516.633,82.44 c 1.2,-0.9 1.9,-1.9 2.1,-3.4 0.7,-4.4 1.4,-8.5 2.1,-12.2 h 34.2 c 0.9,4.2 1.8,8.8 2.5,13.9 0.2,1.4 0.9,2.5 2.1,3.4 1.1,0.9 2.5,1.2 3.9,0.9 1.4,-0.2 2.5,-0.9 3.4,-1.9 0.9,-1.2 1.2,-2.5 1.1,-3.9 -5.5,-36.5 -15.5,-54.5 -30,-53.6 -14.5,-0.9 -24.3,16.4 -29.8,51.8 -0.2,1.4 0.2,2.6 0.9,3.9 0.9,1.2 1.9,1.9 3.5,2.1 1.6,0.2 2.8,-0.2 4,-1 z m 6.9,-26.1 c 3.9,-13 8.8,-19.8 14.6,-20.1 5.8,0.5 10.6,7.2 14.5,20.1 z"
         fill="url(#h)"
         id="path91322"
         style="fill:url(#h)" />
      <path
         d="m 613.333,29.64 c -1.1,-0.9 -2.3,-1.4 -3.7,-1.4 h -45.8 c -1.4,0 -2.8,0.5 -3.7,1.4 -1.1,1.1 -1.6,2.3 -1.6,3.7 0,1.4 0.5,2.6 1.6,3.7 1.1,1.1 2.3,1.6 3.7,1.6 h 17.6 v 40.4 c 0,1.4 0.5,2.6 1.6,3.7 1.1,1.1 2.3,1.6 3.7,1.6 1.6,0 2.6,-0.5 3.7,-1.6 1.1,-0.9 1.6,-2.3 1.6,-3.7 v -40.4 h 17.6 c 1.4,0 2.6,-0.5 3.7,-1.6 1.1,-0.9 1.4,-2.3 1.4,-3.7 0.2,-1.4 -0.4,-2.6 -1.4,-3.7 z"
         fill="url(#i)"
         id="path91324"
         style="fill:url(#i)" />
      <path
         d="m 675.033,28.64 c -1.1,-1.1 -2.3,-1.6 -3.7,-1.6 -1.4,0 -2.6,0.5 -3.7,1.6 -1.1,0.9 -1.6,2.3 -1.6,3.7 v 26.1 c 0,1.9 -0.4,3.9 -1.1,5.6 -0.7,1.8 -1.8,3.4 -3.2,4.8 -1.4,1.2 -2.8,2.5 -4.8,3.2 -1.8,0.7 -3.7,1.1 -5.6,1.1 h -7.8 c -1.9,0 -3.9,-0.4 -5.6,-1.1 -1.8,-0.7 -3.4,-1.8 -4.8,-3.2 -1.4,-1.4 -2.5,-2.8 -3.2,-4.6 -0.7,-1.8 -1.1,-3.7 -1.1,-5.6 v -26.3 c 0,-1.4 -0.5,-2.6 -1.4,-3.7 -1.1,-1.1 -2.3,-1.6 -3.7,-1.6 -1.4,0 -2.8,0.5 -3.7,1.6 -1.1,0.9 -1.6,2.3 -1.6,3.7 v 26.1 c 0,3.4 0.7,6.7 1.9,9.9 1.2,3 3,5.6 5.3,8.1 2.3,2.3 4.9,4.1 8.1,5.5 3.2,1.2 6.3,1.9 9.9,1.9 h 7.8 c 3.5,0 6.7,-0.5 9.9,-1.9 h -0.2 c 3,-1.2 5.6,-3.2 8.1,-5.5 2.3,-2.3 4.1,-4.9 5.5,-8.1 v 0.2 c 1.2,-3.2 1.9,-6.3 1.9,-9.9 v -26.3 c 0,-1.4 -0.6,-2.8 -1.6,-3.7 z"
         fill="url(#j)"
         id="path91326"
         style="fill:url(#j)" />
      <path
         d="m 682.033,28.64 c -0.9,0.9 -1.4,2.1 -1.4,3.5 v 45.3 c 0,1.4 0.5,2.6 1.6,3.7 1.1,1.1 2.5,1.6 4.1,1.6 1.6,0 2.8,-0.5 3.9,-1.6 1.1,-0.9 1.8,-2.3 1.8,-3.7 v -40.4 c 12.2,-0.7 21.3,0 27.9,1.8 4.9,1.4 7.4,3.9 7.8,7.2 0.2,2.6 -1.1,4.6 -3.4,5.8 -3.7,1.6 -9.3,1.9 -16.6,1.2 -1.2,-0.2 -2.5,0.2 -3.5,0.7 -1.1,0.5 -1.9,1.4 -2.3,2.6 -0.5,1.1 -0.5,2.1 -0.2,3.4 0.4,1.1 1.1,1.9 2.1,2.6 l 28,19.2 c 1.2,0.9 2.6,1.2 4.1,0.9 1.6,-0.2 2.8,-0.9 3.7,-2.1 0.9,-1.1 1.2,-2.5 1.1,-3.9 -0.4,-1.4 -1.1,-2.6 -2.3,-3.5 l -14.8,-10.1 c 2.1,-0.5 4.1,-1.1 5.6,-1.9 6.3,-3 9.5,-7.9 9.7,-15 0.4,-8.3 -4.9,-14.1 -15.5,-17.3 -8.3,-2.6 -20.8,-3.2 -37.4,-1.9 -1.7,0.3 -2.9,0.8 -4,1.9 z"
         fill="url(#k)"
         id="path91328"
         style="fill:url(#k)" />
      <path
         d="m 747.133,29.54 c -0.7,0.9 -0.9,1.8 -0.9,3 v 45.5 c 0,1.4 0.5,2.6 1.6,3.7 0.9,1.1 2.3,1.6 3.7,1.6 1.4,0 2.6,-0.5 3.7,-1.6 0.9,-0.9 1.4,-2.3 1.4,-3.7 v -32.5 l 34.9,36.1 c 0.9,0.7 1.6,1.2 2.8,1.6 1.1,0.2 1.9,0 3,-0.2 1.1,-0.5 1.8,-1.1 2.5,-1.9 0.7,-0.8 0.9,-1.8 0.9,-2.8 v -45.8 c 0,-1.4 -0.5,-2.6 -1.6,-3.7 -1.1,-0.9 -2.3,-1.4 -3.7,-1.4 -1.4,0 -2.6,0.5 -3.7,1.4 -1.1,1.1 -1.6,2.3 -1.6,3.7 v 32.4 l -34.9,-36.1 c -0.9,-0.7 -1.6,-1.2 -2.8,-1.4 -1.1,-0.2 -2.1,0 -3,0.4 -0.9,0.3 -1.8,0.8 -2.3,1.7 z"
         fill="url(#l)"
         id="path91330"
         style="fill:url(#l)" />
    </g>
    <g
       transform="translate(0.833,-3.36)"
       id="g91356">
      <path
         d="m 151.9,47.7 c 1.6,-0.2 2.8,-0.2 3.7,0 v 0.2 c 2.3,1.6 3.7,3 3.7,4.8 -0.9,2.6 -3.5,5.8 -7.9,9.2 -5.1,3.9 -12.3,7.9 -21.2,12 -4.1,1.8 -8.1,3.5 -12.5,5.3 -5.1,1.9 -4.2,15.5 -0.5,14.1 6.7,-2.5 12.9,-4.9 18.5,-7.6 9.7,-4.6 17.6,-9 23.6,-13.6 7.6,-5.8 12,-11.3 12.7,-16.8 1.4,-5.1 0.2,-9.7 -3.7,-13.8 -1.6,-1.8 -17.1,6.2 -16.4,6.2 z"
         fill="url(#m)"
         id="path91334"
         style="fill:url(#m)" />
      <path
         d="m 64,94.2 c -3.9,0.7 -7.6,1.4 -11.1,1.9 l 0.2,-0.2 C 45.7,97 39.3,97.5 33.9,97.7 h -0.2 c -4.8,0 -8.5,-0.4 -10.8,-1.2 -1.6,-0.7 -3.2,-0.5 -4.9,0.2 -1.8,0.7 -2.8,1.9 -3.5,3.5 -0.7,1.8 -0.5,3.4 0.2,4.9 0.7,1.6 1.9,2.8 3.5,3.5 3.5,1.2 8.6,1.9 15.5,1.9 6,-0.2 12.9,-0.7 21,-1.8 h 0.2 C 59,108.2 63,107.5 67.2,106.6 71.3,106 68.1,93.3 64,94.2 Z"
         fill="url(#n)"
         id="path91336"
         style="fill:url(#n)" />
      <path
         d="m 63.2,24.4 c -3.7,1.2 -7.2,2.5 -10.8,3.7 -8.1,3.2 -15.3,6.3 -21.9,9.7 h 0.2 C 23.6,41.3 18,44.9 13.4,48.6 V 48.4 C 8,52.6 4.3,56.7 2.3,60.5 v 0.2 c -3,5.5 -3.2,10.6 -0.7,15.3 1.6,4.6 6.2,7.2 14.1,7.6 4.6,0.4 10.8,-0.4 18.5,-1.8 3.9,-0.9 8.5,-1.9 13.4,-3.4 3,-0.9 -0.5,-13.4 -3.5,-12.5 -4.6,1.2 -8.8,2.3 -12.5,3 -6.3,1.2 -11.3,1.8 -15.2,1.6 -1.6,0 -2.6,-0.2 -3,-0.2 L 13.2,70.1 C 12.8,69 13,67.8 13.7,66.4 v -0.2 c 1.4,-2.5 3.9,-5.1 7.6,-7.9 4.1,-3.2 9,-6.3 15,-9.3 6,-3.2 12.9,-6.2 20.5,-9.2 V 40 c 2.1,-0.9 4.4,-1.6 6.5,-2.3 5.9,-1.5 4.5,-14.9 -0.1,-13.3 z"
         fill="url(#o)"
         id="path91338"
         style="fill:url(#o)" />
      <path
         d="m 117.1,25.1 c 4.2,-0.5 8.3,-0.9 12.2,-1.1 7.8,-0.7 14.8,-0.5 21,0.2 1.8,0.2 3.4,-0.4 4.8,-1.4 1.4,-1.2 2.1,-2.6 2.5,-4.4 0.2,-1.8 -0.4,-3.5 -1.4,-4.8 -1.2,-1.4 -2.6,-2.3 -4.4,-2.3 -6.9,-0.7 -14.8,-0.7 -23.3,-0.2 -5.5,0.4 -11.1,1.1 -17.1,1.9 -2.7,0.3 2,12.6 5.7,12.1 z"
         fill="#cccccc"
         id="path91340" />
      <path
         d="m 117.1,25.1 c 4.2,-0.5 8.3,-0.9 12.2,-1.1 7.8,-0.7 14.8,-0.5 21,0.2 1.8,0.2 3.4,-0.4 4.8,-1.4 1.4,-1.2 2.1,-2.6 2.5,-4.4 0.2,-1.8 -0.4,-3.5 -1.4,-4.8 -1.2,-1.4 -2.6,-2.3 -4.4,-2.3 -6.9,-0.7 -14.8,-0.7 -23.3,-0.2 -5.5,0.4 -11.1,1.1 -17.1,1.9 -2.7,0.3 2,12.6 5.7,12.1 z"
         fill="url(#p)"
         id="path91342"
         style="fill:url(#p)" />
      <path
         d="m 9,64.3 c 0,7.1 4.4,6.5 4.4,6.5 L 13.2,70.6 C 12.8,69.5 13,68.3 13.7,66.9 v -0.2 c 1.4,-2.5 3.9,-5.1 7.6,-7.9 4.1,-3.2 9,-6.3 15,-9.3 6,-3.2 12.9,-6.2 20.5,-9.2 v 0.2 c 2.1,-0.9 4.4,-1.6 6.5,-2.3 2.5,-0.9 3.5,-3.9 3.5,-6.9 C 64,30.9 61,30.8 58,30.8 c -6.5,0 -12.5,0.9 -18.2,2.6 -3.4,1.6 -6.5,3 -9.7,4.6 h 0.2 c -2.1,1.1 -4.2,2.3 -6.2,3.4 C 16.8,47.1 9,55.3 9,64.3 Z"
         fill="url(#q)"
         id="path91344"
         style="fill:url(#q)" />
      <path
         d="m 157.5,18.4 c 0.2,-1.8 -0.4,-3.5 -1.4,-4.8 -1.2,-1.4 -2.6,-2.3 -4.4,-2.3 -6.9,-0.7 -14.8,-0.7 -23.3,-0.2 -7.9,0.5 -16.4,1.6 -25.4,3.2 -8.6,1.6 -17.3,3.5 -25.9,6 -8.6,2.5 -16.9,5.1 -24.7,7.9 -8.1,3.2 -15.3,6.3 -21.9,9.7 h 0.2 C 23.7,41.5 18,45 13.4,48.7 V 48.5 C 8,52.8 4.3,56.8 2.3,60.7 v 0.2 c -3,5.5 -3.2,10.6 -0.7,15.3 1.6,4.6 6.2,6.9 13.9,7.2 4.6,0.4 10.8,0 18.5,-1.6 6.3,-1.2 13.9,-3.4 23.1,-6 6.7,-2.1 15.3,-4.8 25.7,-8.3 L 108.5,59 c 9.3,-3.2 17.1,-5.5 23.1,-7.2 7.2,-2.1 13,-3.5 17.3,-4.1 3,-0.4 5.1,-0.5 6.2,-0.4 v 0.2 c 2.3,1.6 3.7,3 3.7,4.8 -0.9,2.6 -3.5,5.8 -7.9,9.2 -5.1,3.9 -12.3,7.9 -21.2,12 -8.6,3.9 -18.2,7.4 -28.6,10.9 h -0.2 c -8.1,2.6 -16.4,4.9 -25,6.9 -8.3,1.9 -16.2,3.4 -23.6,4.6 l 0.2,-0.2 c -7.4,1.1 -13.8,1.6 -19.2,1.8 h -0.2 c -4.8,0 -8.5,-0.4 -10.8,-1.2 -1.6,-0.7 -3.2,-0.5 -4.9,0.2 -1.8,0.7 -2.8,1.9 -3.5,3.5 -0.7,1.8 -0.5,3.4 0.2,4.9 0.7,1.5 1.9,2.8 3.5,3.5 3.5,1.2 8.6,1.9 15.5,1.9 6,-0.2 12.9,-0.7 21,-1.8 h 0.2 c 7.8,-1.1 16,-2.6 24.5,-4.6 H 79 c 8.8,-2.1 17.5,-4.6 25.9,-7.2 11.1,-3.5 21.2,-7.4 30.2,-11.5 9.7,-4.6 17.6,-9 23.6,-13.6 7.6,-5.8 12,-11.3 12.7,-16.8 1.9,-7.2 -1.2,-13.2 -9.5,-18.5 -2.6,-2.1 -7.4,-2.6 -14.8,-1.6 h -0.2 c -4.8,0.7 -11.1,2.1 -19,4.4 -6,1.8 -13.9,4.1 -23.6,7.4 L 78.6,55 c -10.2,3.4 -18.7,6 -25.2,7.9 -8.8,2.6 -16,4.6 -22,5.8 -6.3,1.2 -11.3,1.8 -15.2,1.6 -1.6,0 -2.6,-0.2 -3,-0.2 L 13,69.9 c -0.4,-1.1 -0.2,-2.3 0.5,-3.7 V 66 c 1.4,-2.5 3.9,-5.1 7.6,-7.9 4.1,-3.2 9,-6.3 15,-9.3 6,-3.2 12.9,-6.2 20.5,-9.2 v 0.2 C 64,37 71.9,34.3 80.2,32 c 8.3,-2.5 16.6,-4.4 24.9,-5.8 8.3,-1.6 16.4,-2.6 24,-3 7.8,-0.7 14.8,-0.5 21,0.2 1.8,0.2 3.4,-0.4 4.8,-1.4 1.7,-0.6 2.4,-2 2.6,-3.6 z"
         fill="none"
         stroke="#333333"
         stroke-linecap="round"
         stroke-linejoin="round"
         stroke-width="1.44"
         id="path91346" />
      <circle
         cx="86.599998"
         cy="60"
         fill="url(#r)"
         r="55.200001"
         stroke="#33317a"
         stroke-linecap="round"
         stroke-linejoin="round"
         stroke-width="2.88"
         id="circle91348"
         style="fill:url(#r)" />
      <path
         d="m 31.3,69.2 c -0.7,0.2 -17.3,3.7 -20.1,1.1 -0.9,-0.9 1.8,1.2 4.4,4.6 0.4,0.5 0,1.2 -0.4,2.1 -0.2,0.2 -0.2,0.4 -0.4,0.5 0,0.2 -0.2,0.5 -0.2,0.7 0,0.4 -0.2,0.5 -0.4,0.9 -0.2,0.9 -0.7,1.8 -0.9,2.3 0,0.2 0.4,0.4 0.4,0.7 0,0.2 -0.4,0.2 -0.4,0.4 0,0.2 -0.5,0.2 -0.4,0.4 v 0.2 c 0.4,0 1.1,0.2 1.2,0.2 0.2,0 1.6,0.2 3.7,0.2 2.1,0 4.8,0 7.1,-0.2 1.4,-0.2 2.8,-0.4 4.2,-0.5 1.8,-0.4 3.5,-0.5 4.6,-0.7 1.1,-0.2 1.6,0 1.8,0 6,-1.2 13.2,-3.2 21.7,-5.6 6.7,-2.1 15.3,-4.8 25.7,-8.3 l 25.7,-8.5 c 5.1,-1.8 9.9,-3.2 13.9,-4.6 3.4,-1.1 6.3,-1.9 9,-2.6 3.4,-1.1 6.2,-1.8 9,-2.5 3.2,-0.7 6,-1.4 8.5,-1.8 3,-0.4 5.1,-0.5 6.2,-0.4 V 48 c 0.9,0.5 4.9,0.2 6.9,3.2 3.2,4.9 4.8,13.8 6.2,12 1.9,-2.6 3,-5.1 3.4,-7.6 1.9,-7.2 -1.2,-12.9 -9.5,-18.2 -2.6,-2.1 -7.4,-2.6 -14.8,-1.6 h -0.2 c -2.8,0.5 -6.3,1.2 -10.4,2.1 -2.6,0.7 -5.5,1.1 -8.6,1.9 -3,0.9 -6.5,1.9 -10.4,3.2 -3.9,1.2 -8.3,2.6 -13.2,4.2 l -25.7,8.5 c -7.2,2.3 -13.6,4.4 -19,6.2 z"
         fill="url(#s)"
         id="path91350"
         style="fill:url(#s)" />
      <g
         fill="none"
         stroke="#333333"
         stroke-linecap="round"
         stroke-linejoin="round"
         id="g91354">
        <path
           d="m 137.9,36.9 c -2.6,0.7 -6.3,1.8 -9.3,2.6 -6,1.8 -13.9,4.1 -23.6,7.4 L 79.3,55.4 C 71.5,58 64.8,60 59.2,61.7 c -2.6,0.5 -4.4,0.9 -5.3,1.2 -8.6,2.5 -29.4,8.6 -37.7,7.8 m 18,11.2 c 6,-1.2 14.8,-3.5 23.3,-6 6.7,-2.1 15.3,-4.8 25.7,-8.3 l 25.7,-8.5 c 9.3,-3.2 17.1,-5.5 23.1,-7.2 3.4,-1.1 7.1,-1.9 9.7,-2.6"
           id="path91352" />
      </g>
    </g>
  </g>
</svg>
