<?xml version="1.0" encoding="UTF-8" standalone="no"?>
<svg
   width="575.28168"
   height="100"
   version="1.1"
   id="svg106513"
   sodipodi:docname="tic80.svg"
   inkscape:version="1.2.1 (9c6d41e410, 2022-07-14)"
   xmlns:inkscape="http://www.inkscape.org/namespaces/inkscape"
   xmlns:sodipodi="http://sodipodi.sourceforge.net/DTD/sodipodi-0.dtd"
   xmlns="http://www.w3.org/2000/svg"
   xmlns:svg="http://www.w3.org/2000/svg">
  <defs
     id="defs106517" />
  <sodipodi:namedview
     id="namedview106515"
     pagecolor="#505050"
     bordercolor="#ffffff"
     borderopacity="1"
     inkscape:showpageshadow="0"
     inkscape:pageopacity="0"
     inkscape:pagecheckerboard="1"
     inkscape:deskcolor="#505050"
     showgrid="false"
     inkscape:zoom="0.9352329"
     inkscape:cx="109.59837"
     inkscape:cy="59.878133"
     inkscape:window-width="1920"
     inkscape:window-height="1017"
     inkscape:window-x="-8"
     inkscape:window-y="-8"
     inkscape:window-maximized="1"
     inkscape:current-layer="svg106513" />
  <g
     style="fill:#657060;fill-opacity:1"
     id="g106511"
     transform="matrix(1.8260436,0,0,1.8260436,-91.548989,-62.894783)">
    <path
       d="M -18.9,99.722 V 47.1 H -30.416 V 33.939 h 46.052 v 13.16 H 4.12 v 52.623 z m 57.555,0 V 86.562 H 50.17 V 47.1 H 38.655 V 33.939 h 46.052 v 13.16 H 73.19 v 39.464 h 11.517 v 13.16 z m 69.07,0 v -13.16 h -11.5 V 47.1 h 11.5 V 33.939 h 34.536 v 13.16 h -23.019 v 39.464 h 23.019 v 13.16 z M 142.261,60.26 V 47.1 h 11.517 v 13.16 z m 0,26.303 V 73.4 h 11.517 V 86.562 Z M 176.796,73.4 V 60.26 h 34.536 V 73.4 Z m 69.071,26.321 v -13.16 h -11.5 v -13.16 h 11.5 V 60.26 h -11.5 V 47.1 h 11.5 V 33.939 h 34.536 v 13.16 h -23.02 v 13.16 h 23.02 v 13.142 h -23.02 v 13.162 h 23.02 v 13.16 z M 280.403,60.259 V 47.1 h 11.516 v 13.16 z m 0,26.303 V 73.4 h 11.516 v 13.162 z m 34.535,13.16 v -13.16 h -11.5 V 47.1 h 11.5 V 33.939 h 34.535 v 13.16 h -23.018 v 39.464 h 23.018 v 13.16 z m 34.535,-13.16 V 47.1 h 11.517 v 39.463 z"
       style="fill:#657060;fill-opacity:1;stroke-width:1.29533"
       transform="matrix(0.8049,0,0,0.83247,74.617,6.19)"
       id="path106509" />
  </g>
</svg>
