<?xml version="1.0" encoding="UTF-8" standalone="no"?>
<!-- Generator: Adobe Illustrator 13.0.0, SVG Export Plug-In . SVG Version: 6.00 Build 14948)  -->

<svg
   version="1.2"
   id="Ebene_1"
   x="0px"
   y="0px"
   width="857.14294"
   height="100"
   viewBox="0 0 857.14298 99.999997"
   xml:space="preserve"
   sodipodi:docname="lowresnx.svg"
   inkscape:version="1.2.1 (9c6d41e410, 2022-07-14)"
   xmlns:inkscape="http://www.inkscape.org/namespaces/inkscape"
   xmlns:sodipodi="http://sodipodi.sourceforge.net/DTD/sodipodi-0.dtd"
   xmlns="http://www.w3.org/2000/svg"
   xmlns:svg="http://www.w3.org/2000/svg"><defs
     id="defs16050" /><sodipodi:namedview
     id="namedview16048"
     pagecolor="#505050"
     bordercolor="#ffffff"
     borderopacity="1"
     inkscape:showpageshadow="0"
     inkscape:pageopacity="0"
     inkscape:pagecheckerboard="1"
     inkscape:deskcolor="#505050"
     showgrid="false"
     inkscape:zoom="1"
     inkscape:cx="448.49999"
     inkscape:cy="36.999999"
     inkscape:window-width="1920"
     inkscape:window-height="1017"
     inkscape:window-x="-8"
     inkscape:window-y="-8"
     inkscape:window-maximized="1"
     inkscape:current-layer="Ebene_1"
     showguides="true" /><g
     id="g7307"
     transform="scale(1.0198708)"><g
       id="g6719"
       style="display:inline"><path
         style="fill:#f3f3f3;fill-opacity:1;stroke:none;stroke-width:20;stroke-linecap:round;stroke-linejoin:round;stroke-miterlimit:0;stroke-dasharray:none;stroke-opacity:1;paint-order:markers stroke fill"
         d="M 0,98.051643 V 0 H 49 L 73.8125,25.25 V 60.625 H 99.25 v -43 L 116.875,0 179.5,3.4044557e-6 197.3125,17.812502 V 0 L 377.24147,3.4044557e-6 395.27269,18.031225 395.44946,3.4044557e-6 H 494.5 V 18 L 512.5,3.4044557e-6 H 593 V 80.125 L 575.07336,98.051643 H 265.375 L 247.22418,79.900822 229.07336,98.051643 Z"
         id="path6709"
         sodipodi:nodetypes="cccccccccccccccccccccccc" /><g
         id="g5806"
         style="display:inline"><path
           style="display:inline;fill:#000000;fill-opacity:1;stroke:none;stroke-width:20;stroke-dasharray:none;stroke-opacity:1;paint-order:markers stroke fill"
           d="m 506.01654,79.66696 v -6.128228 h 24.51291 24.51291 V 61.282277 49.025821 h -18.91667 -18.91668 l -9.78975,-11.959294 -0.0321,-13.342905 10.17704,-11.467167 h 31.87098 31.87097 v 6.128228 6.128228 h -24.51291 -24.51291 v 6.128227 6.128228 h 18.91667 18.91668 l 11.04781,12.902836 c 0.16262,8.148189 0.14181,16.296934 0.13666,24.446143 l -11.5399,11.676843 H 537.88727 506.0163 Z"
           id="path5796"
           inkscape:label="path5796"
           sodipodi:nodetypes="ccccccccccccccccccccccccccc" /><path
           style="fill:#000000;fill-opacity:1;stroke:none;stroke-width:20;stroke-dasharray:none;stroke-opacity:1;paint-order:markers stroke fill"
           d="M 407.96489,49.025821 V 12.256455 h 37.64483 37.64483 v 6.128228 6.128228 H 457.86617 432.4778 v 6.128227 6.128228 h 13.13192 13.13191 v 6.128228 6.128227 H 445.60972 432.4778 v 12.256456 12.256455 h 25.38837 25.38838 v 6.128228 6.128228 h -37.64483 -37.64483 z"
           id="path5794" /><path
           id="path5792"
           style="fill:#000000;fill-opacity:1;stroke:none;stroke-width:20;stroke-dasharray:none;stroke-opacity:1;paint-order:markers stroke fill"
           d="m 357.18814,30.641138 v -6.128227 h -11.38099 -11.381 v 6.128227 6.128228 h 11.381 11.38099 z M 308.16232,49.025821 V 12.256455 h 32.04858 32.0486 l 5.59623,5.773854 c 7.94068,8.192691 7.87493,17.594446 -0.17761,25.399273 -4.21113,4.081585 -7.39723,5.596239 -11.77177,5.596239 h -5.9979 l 11.77176,11.862666 c 10.29842,10.377946 11.77177,12.678957 11.77177,18.384684 v 6.522017 H 373.42075 363.38952 L 348.90784,71.388736 334.42615,56.982285 v 14.406451 14.406452 h -13.13191 -13.13192 z" /><path
           style="fill:#000000;fill-opacity:1;stroke:none;stroke-width:20;stroke-dasharray:none;stroke-opacity:1;paint-order:markers stroke fill"
           d="M 210.11067,49.025821 V 12.256455 h 13.13192 13.13192 v 16.961343 16.961343 l 5.26101,-5.040368 5.26101,-5.040369 6.11998,5.93172 6.11999,5.931722 V 30.10915 12.256455 h 13.13191 13.13192 v 36.769366 36.769367 l -15.16721,-0.05896 -23.35308,-23.484568 -23.13072,23.4694 -13.63865,0.07413 z"
           id="path5788"
           sodipodi:nodetypes="ccccccccccccccccccccc" /><path
           id="path5786"
           style="fill:#000000;fill-opacity:1;stroke:none;stroke-width:20;stroke-dasharray:none;stroke-opacity:1;paint-order:markers stroke fill"
           d="m 159.33393,49.025821 v -24.51291 h -11.381 -11.38099 v 24.51291 24.512911 h 11.38099 11.381 z M 115.90434,80.021334 110.3081,74.247481 V 48.848208 23.448935 l 5.77386,-5.59624 5.77385,-5.59624 h 26.27474 26.27473 l 5.59624,5.773854 5.59624,5.773853 v 25.399273 25.399273 l -5.77386,5.59624 -5.77385,5.59624 h -26.27473 -26.27474 z" /><path
           style="fill:#000000;fill-opacity:1;stroke:none;stroke-width:20;stroke-dasharray:none;stroke-opacity:1;paint-order:markers stroke fill"
           d="M 12.256456,49.025821 V 12.256455 H 25.388373 38.52029 v 30.641139 30.641138 h 24.512912 24.512912 v 6.128228 6.128228 H 49.901285 12.256456 Z"
           id="path5782" /></g></g><path
       style="display:inline;fill:#ff8300;fill-opacity:1;stroke:none;stroke-width:20;stroke-linecap:round;stroke-linejoin:round;stroke-miterlimit:0;stroke-dasharray:none;stroke-opacity:1;paint-order:markers stroke fill"
       d="M 642.75,98.051643 V 0 h 197.69269 v 30.5 l -12.34635,12.346343 12.34635,12.346344 v 42.858956 z"
       id="path6784" /><path
       style="fill:#000000;fill-opacity:1;stroke:none;stroke-width:20;stroke-linecap:round;stroke-linejoin:round;stroke-miterlimit:0;stroke-dasharray:none;stroke-opacity:1;paint-order:markers stroke fill"
       d="M 654.75,86.000001 V 11.750003 h 25.00003 l 24.25,24.25 v -24.25 h 24.75 v 74.249998 h -24.75 V 73.75 l -24.25,-24.25 v 36.500001 z"
       id="path6808" /><path
       style="fill:#000000;fill-opacity:1;stroke:none;stroke-width:20;stroke-linecap:round;stroke-linejoin:round;stroke-miterlimit:0;stroke-dasharray:none;stroke-opacity:1;paint-order:markers stroke fill"
       d="M 753.75003,86.000001 V 61.25 L 772.00002,43.000002 753.75003,24.750004 V 11.750003 h 24.75 l 12.24998,12.249986 12.75002,-12.750014 24.25,0.500028 V 24.25 l -18.75001,18.750002 18.75001,18.750002 v 24.249997 h -24.25 V 67.25 L 791.25001,54.999987 778.50003,67.749974 v 18.250027 z"
       id="path6810" /></g></svg>
