<?xml version="1.0" encoding="UTF-8" standalone="no"?>
<!-- Created with Inkscape (http://www.inkscape.org/) -->

<svg
   version="1.1"
   viewBox="0 0 577.32184 99.999992"
   id="svg68832"
   sodipodi:docname="neogeo.svg"
   inkscape:version="1.2.1 (9c6d41e410, 2022-07-14)"
   width="577.32184"
   height="99.999992"
   xmlns:inkscape="http://www.inkscape.org/namespaces/inkscape"
   xmlns:sodipodi="http://sodipodi.sourceforge.net/DTD/sodipodi-0.dtd"
   xmlns="http://www.w3.org/2000/svg"
   xmlns:svg="http://www.w3.org/2000/svg">
  <defs
     id="defs68836" />
  <sodipodi:namedview
     id="namedview68834"
     pagecolor="#505050"
     bordercolor="#ffffff"
     borderopacity="1"
     inkscape:showpageshadow="0"
     inkscape:pageopacity="0"
     inkscape:pagecheckerboard="1"
     inkscape:deskcolor="#505050"
     showgrid="false"
     inkscape:zoom="1.0688376"
     inkscape:cx="227.34979"
     inkscape:cy="58.942537"
     inkscape:window-width="1920"
     inkscape:window-height="1017"
     inkscape:window-x="-8"
     inkscape:window-y="-8"
     inkscape:window-maximized="1"
     inkscape:current-layer="svg68832" />
  <g
     transform="matrix(0.83825819,0,0,0.83825819,-592.15189,-301.23042)"
     id="g68830"
     style="fill:#d4aa00;stroke:#000000;stroke-width:2;stroke-dasharray:none;stroke-opacity:1">
    <g
       fill-rule="nonzero"
       fill="#000"
       transform="matrix(0.93403196,0,0,0.93403196,69.311262,27.640521)"
       id="g68828"
       style="fill:#d4aa00;stroke:#000000;stroke-width:2.14125;stroke-dasharray:none;stroke-opacity:1">
      <g
         transform="translate(1.5605469e-5)"
         id="g68818"
         style="fill:#d4aa00;stroke:#000000;stroke-width:2.14125;stroke-dasharray:none;stroke-opacity:1">
        <path
           d="m 1142,431.7 h 2.911 c 2.715,0 7.366,0.5594 9.28,1.683 1.916,1.114 3.177,2.364 3.786,3.747 0.6111,1.385 0.9201,4.436 0.9201,9.148 v 18.5 c 0,5.583 -5.899,8.427 -8.743,9.044 -2.851,0.6168 -5.624,0.9258 -8.329,0.9258 -7.789,0 -14.51,-2.026 -20.18,-6.081 -5.662,-4.058 -9.764,-10.4 -12.31,-19.05 -2.541,-8.637 -3.806,-18.68 -3.806,-30.15 0,-9.462 1.161,-18.69 3.485,-27.68 2.325,-8.994 6.283,-16 11.87,-21.03 5.587,-5.023 12.59,-7.537 21,-7.537 8.804,0 13.95,2.228 20.43,8.962 6.624,6.881 12.98,14.7 16.69,26.18 h 5.417 v -42.15 h -3.081 c -1.112,3.376 -2.326,5.667 -3.653,6.879 -1.331,1.215 -2.772,1.819 -4.318,1.819 -0.997,0 -4.227,-1.097 -9.675,-3.291 -5.451,-2.197 -9.396,-3.531 -11.83,-4.001 -4.483,-0.935 -7.966,-1.407 -13.55,-1.407 -18.04,0 -33.02,6.2 -44.92,18.6 -11.9,12.41 -17.85,27.6 -17.85,45.58 0,10.05 1.934,19.13 5.809,27.24 3.045,6.288 7.267,11.94 12.66,16.97 5.397,5.024 11.63,9.082 18.68,12.17 7.057,3.081 15.93,4.624 26.61,4.624 8.36,0 16.42,-0.8638 24.2,-2.59 7.78,-1.732 15.26,-4.296 22.47,-7.691 v -24.86 c 0,-4.358 0.2446,-7.098 0.7431,-8.214 0.8833,-2.122 2.139,-3.635 3.771,-4.551 1.629,-0.9166 6.074,-1.514 10.22,-1.813 v -4.07 h -58.73 v 4.07 z"
           id="path68812"
           style="fill:#d4aa00;stroke:#000000;stroke-width:2.14125;stroke-dasharray:none;stroke-opacity:1" />
        <path
           d="m 1277,463.9 c -6.694,5.127 -15.6,7.687 -26.71,7.687 h -6.334 c -3.393,0 -5.844,-0.4629 -7.367,-1.396 -1.517,-0.9338 -2.559,-2.127 -3.112,-3.585 -0.5548,-1.456 -0.8351,-5.447 -0.8351,-11.97 v -33.39 c 5.706,0 12.39,0.742 15.39,2.235 2.994,1.485 5.627,4.391 7.886,8.711 2.27,4.32 3.754,9.089 4.459,15.86 h 4.816 v -61.45 h -4.816 c -0.9407,9.233 -3.115,15.43 -6.529,20.16 -3.408,4.731 -8.909,7.096 -16.49,7.096 h -4.717 v -41.22 c -0.04,-7.164 6.347,-6.334 6.347,-6.334 h 7.462 c 9.025,0 15.17,0.5272 18.45,1.579 5.622,1.748 9.971,4.492 13.05,8.221 3.078,3.736 5.461,9.886 7.162,18.46 h 4.037 v -35.1 h -100.4 v 4.808 h 3.167 c 3.856,0 6.9,0.8155 9.117,2.444 1.58,1.108 2.664,2.687 3.246,4.725 0.2929,1.219 0.4411,4.514 0.4411,9.876 v 74.26 c 0,5.944 -0.3205,9.615 -0.966,11.02 -0.819,1.979 -1.989,3.379 -3.507,4.194 -2.108,1.227 -4.884,1.836 -8.331,1.836 h -3.167 v 5.586 h 102.1 l 6.135,-37.76 h -5.604 c -2.924,10.51 -7.735,18.33 -14.43,23.45"
           id="path68814"
           style="fill:#d4aa00;stroke:#000000;stroke-width:2.14125;stroke-dasharray:none;stroke-opacity:1" />
        <path
           d="m 1356,357.6 c -17.11,-0.7064 -31.53,4.871 -43.24,16.74 -11.73,11.86 -17.58,26.69 -17.58,44.47 0,15.84 4.503,29.53 13.52,41.07 11.4,14.6 27.54,21.91 48.42,21.91 20.81,0 36.93,-7.656 48.34,-22.97 8.61,-11.53 12.92,-24.9 12.92,-40.1 0,-17.78 -5.778,-32.59 -17.32,-44.43 -11.55,-11.84 -26.56,-17.4 -45.04,-16.69 m 27.29,95.04 c -2.792,8.27 -6.7,14.29 -11.72,18.05 -3.934,2.946 -8.841,4.415 -14.72,4.415 -8.728,0 -15.51,-3.415 -20.37,-10.24 -6.956,-9.769 -10.44,-24.86 -10.44,-45.29 0,-17.19 2.251,-30.37 6.758,-39.55 5.531,-11.18 13.6,-16.77 24.21,-16.77 5.76,0 10.85,1.621 15.27,4.858 4.42,3.236 8.055,8.785 10.91,16.64 2.851,7.861 4.278,19.7 4.278,35.54 0,13.3 -1.396,24.09 -4.194,32.36"
           id="path68816"
           style="fill:#d4aa00;stroke:#000000;stroke-width:2.14125;stroke-dasharray:none;stroke-opacity:1" />
      </g>
      <path
         d="m 976.9,481.1 c 20.81,0 36.93,-7.657 48.34,-22.97 8.61,-11.54 12.92,-24.9 12.92,-40.1 0,-17.78 -5.778,-32.59 -17.32,-44.43 -11.55,-11.84 -26.56,-17.4 -45.04,-16.69 -17.11,-0.7052 -31.53,4.871 -43.24,16.74 -11.73,11.86 -17.58,26.69 -17.58,44.47 0,15.84 4.503,29.53 13.52,41.07 11.4,14.6 27.54,21.91 48.42,21.91 m -24.5,-101.7 c 5.531,-11.18 13.6,-16.77 24.21,-16.77 5.76,0 10.85,1.618 15.27,4.856 4.42,3.237 8.055,8.786 10.91,16.64 2.851,7.861 4.278,19.7 4.278,35.53 0,13.3 -1.396,24.09 -4.194,32.36 -2.792,8.271 -6.7,14.29 -11.72,18.06 -3.934,2.944 -8.841,4.414 -14.72,4.414 -8.728,0 -15.51,-3.415 -20.37,-10.24 -6.956,-9.769 -10.44,-24.86 -10.44,-45.29 0,-17.19 2.251,-30.37 6.758,-39.55"
         id="path68820"
         style="fill:#d4aa00;stroke:#000000;stroke-width:2.14125;stroke-dasharray:none;stroke-opacity:1" />
      <path
         d="m 916.6,439.5 h -5.605 c -2.923,10.51 -7.736,18.33 -14.43,23.45 -6.694,5.126 -15.6,7.687 -26.7,7.687 h -6.334 c -3.392,0 -5.842,-0.4652 -7.367,-1.396 -1.518,-0.9338 -2.558,-2.128 -3.114,-3.586 -0.5536,-1.458 -0.8339,-5.447 -0.8339,-11.97 v -33.39 c 5.705,0 12.39,0.742 15.39,2.236 2.997,1.484 5.629,4.39 7.889,8.71 2.267,4.32 3.753,9.089 4.459,15.86 h 4.816 v -61.45 h -4.816 c -0.9442,9.229 -3.119,15.43 -6.531,20.16 -3.405,4.731 -8.908,7.095 -16.49,7.095 h -4.72 v -41.22 c -0.0391,-7.165 6.352,-6.334 6.352,-6.334 h 7.456 c 9.027,0 15.18,0.5261 18.46,1.578 5.626,1.747 9.975,4.491 13.05,8.221 3.077,3.735 5.463,9.889 7.163,18.46 h 4.036 v -35.13 h -100.4 v 4.839 h 3.164 c 3.858,0 6.899,0.8167 9.121,2.444 1.578,1.107 2.659,2.685 3.241,4.724 0.2952,1.22 0.4434,4.513 0.4434,9.875 v 74.26 c 0,5.942 -0.3205,9.615 -0.966,11.01 -0.8167,1.979 -1.991,3.382 -3.504,4.195 -2.108,1.227 -4.884,1.836 -8.336,1.836 h -3.164 v 5.587 h 102.1 l 6.138,-37.76 z"
         id="path68822"
         style="fill:#d4aa00;stroke:#000000;stroke-width:2.14125;stroke-dasharray:none;stroke-opacity:1" />
      <path
         d="m 723.9,471.6 h -2.71 c -3.888,0 -7.341,-1.193 -10.36,-3.58 -3.014,-2.388 -4.523,-6.986 -4.523,-13.8 V 382.5 l 77.69,96.85 5.037,0.006 v -98.78 c 0,-5.616 0.4664,-7.246 1.393,-9.557 0.9269,-2.311 2.223,-3.979 3.878,-5.003 1.656,-1.023 4.906,-1.856 9.738,-2.501 v -5.026 h -38.54 v 5.026 c 6.354,-0.116 10.89,1.521 13.58,4.915 1.97,2.515 2.954,5.008 2.954,12.15 v 51.73 l -60.48,-73.82 h -36.8 v 3.988 c 3.498,0.116 3.622,1.289 5.485,2.277 l 9.858,9.921 -0.0138,79.54 c 0,6.289 -1.242,10.74 -3.723,13.36 -2.483,2.621 -6.885,3.959 -13.2,4.018 v 4.808 h 40.72 v -4.808 z"
         id="path68824"
         style="fill:#d4aa00;stroke:#000000;stroke-width:2.14125;stroke-dasharray:none;stroke-opacity:1" />
      <path
         stroke-linejoin="miter"
         style="color:#000000;fill:#d4aa00;stroke:#000000;stroke-width:2.35443;stroke-dasharray:none;stroke-opacity:1;enable-background:accumulate"
         d="m 527.9,9.648 c 0,8.679 -7.036,15.71 -15.71,15.71 -8.679,0 -15.71,-7.036 -15.71,-15.71 0,-8.679 7.036,-15.71 15.71,-15.71 8.679,0 15.71,7.036 15.71,15.71 z"
         transform="matrix(0.90945731,0,0,0.90945731,591.21077,410.2244)"
         stroke-dashoffset="0"
         stroke="#000"
         stroke-linecap="butt"
         stroke-miterlimit="4"
         stroke-dasharray="none"
         stroke-width="0.133"
         id="path68826" />
    </g>
  </g>
</svg>
