<?xml version="1.0" encoding="UTF-8" standalone="no"?>
<svg
   width="476.83167"
   height="99.999756"
   viewBox="0 0 476.83166 99.999754"
   xml:space="preserve"
   version="1.1"
   id="svg121983"
   sodipodi:docname="wonderswancolor.svg"
   inkscape:version="1.2.1 (9c6d41e410, 2022-07-14)"
   xmlns:inkscape="http://www.inkscape.org/namespaces/inkscape"
   xmlns:sodipodi="http://sodipodi.sourceforge.net/DTD/sodipodi-0.dtd"
   xmlns="http://www.w3.org/2000/svg"
   xmlns:svg="http://www.w3.org/2000/svg"><defs
     id="defs121987" /><sodipodi:namedview
     id="namedview121985"
     pagecolor="#505050"
     bordercolor="#ffffff"
     borderopacity="1"
     inkscape:showpageshadow="0"
     inkscape:pageopacity="0"
     inkscape:pagecheckerboard="1"
     inkscape:deskcolor="#505050"
     showgrid="false"
     inkscape:zoom="1.4626042"
     inkscape:cx="294.67986"
     inkscape:cy="-38.971582"
     inkscape:window-width="1920"
     inkscape:window-height="1017"
     inkscape:window-x="-8"
     inkscape:window-y="-8"
     inkscape:window-maximized="1"
     inkscape:current-layer="svg121983" /><g
     id="g123093"
     transform="matrix(0.62773805,0,0,0.62773805,56.918892,-53.985472)"><path
       fill="#ff0000"
       d="m 34.216,126.241 a 51.57,51.57 0 0 1 3.706,-0.127 c 27.223,0 50.532,26.348 52.282,39.772 0.186,1.401 0.312,2.661 0.399,3.735 C 90.238,133.037 33.181,86 -12.63,86 c -35.406,0 -51.91,14.336 -57.354,30.431 -8.116,20.308 2.598,49.249 27.652,69.85 a 101.622,101.622 0 0 0 8.042,5.972 54.694,54.694 0 0 1 -3.701,0.126 c -27.222,0 -50.538,-26.353 -52.286,-39.776 a 73.737,73.737 0 0 1 -0.396,-3.735 c 0.362,36.583 57.423,83.619 103.23,83.619 35.406,0 51.909,-14.331 57.359,-30.43 8.11,-20.308 -2.597,-49.244 -27.656,-69.851 a 100.64,100.64 0 0 0 -8.044,-5.965 z m -51.026,60.777 c -20.162,-16.572 -26.949,-40.929 -15.523,-54.718 11.44,-13.808 37.154,-12.217 57.809,3.867 20.493,15.967 28.379,40.206 17.857,54.685 4.355,-8.711 -0.45,-21.778 -11.666,-30.597 -12.163,-9.561 -27.305,-10.508 -34.043,-2.3 -6.729,8.198 -2.729,22.671 9.145,32.525 9.146,7.588 20.327,10.274 28.283,7.491 -13.557,7.148 -34.796,3.08 -51.862,-10.953 z"
       id="path121965" /><path
       fill="#f0373f"
       d="m 400.795,159.762 c -4.492,-1.324 -9.556,5.023 -13.879,14.709 -3.852,16.146 -12.414,39.951 -12.965,56.377 -0.25,7.289 6.479,9.426 11.051,11.039 14.471,5.105 22.934,0.111 27.243,-5.104 3.1,-3.74 -0.179,-6.859 -4.021,-5.715 -5.556,1.643 -12.344,2.758 -13.746,-2.607 -1.545,-5.916 6.688,-30.225 12.373,-48.324 3.108,-9.879 5.736,-18.08 -6.056,-20.375 z"
       id="path121967" /><path
       fill="#f5a023"
       d="m 325.816,188.401 c -9.795,1.012 -29.26,6.195 -29.26,31.375 0,1.186 -3.551,28.43 31.586,25.271 35.148,-3.16 41.064,-25.271 41.064,-25.271 0,0 8.693,-29.221 -12.636,-28.428 -13.017,0.48 -18.952,6.316 -18.952,6.316 0,0 8.684,1.705 10.559,7.941 3.561,11.822 2.247,31.77 -16.876,29.963 -19.192,-1.813 -9.817,-27.166 -3.77,-40.021 2.088,-4.42 1.574,-7.488 -1.715,-7.146 z"
       id="path121969" /><path
       fill="#7487bf"
       d="m 442.691,188.401 c -9.797,1.012 -29.263,6.195 -29.263,31.375 0,1.186 -3.549,28.43 31.587,25.271 35.147,-3.16 41.065,-25.271 41.065,-25.271 0,0 8.692,-29.221 -12.636,-28.428 -13.017,0.48 -18.951,6.316 -18.951,6.316 0,0 8.682,1.705 10.557,7.941 3.562,11.822 2.247,31.77 -16.876,29.963 -19.192,-1.813 -9.817,-27.166 -3.771,-40.021 2.09,-4.42 1.577,-7.488 -1.712,-7.146 z"
       id="path121971" /><path
       fill="#019ee3"
       d="m 211.271,207.143 c -1.574,-31.197 41.515,-45.195 56.857,-46.379 15.354,-1.194 31.588,2.154 31.588,2.154 0,0 -2.367,30.797 -9.477,31.588 -7.1,0.793 -5.525,-23.295 -18.953,-22.109 -24.588,2.166 -34.455,28.969 -34.747,37.902 -0.129,4.322 1.194,23.686 18.953,22.111 17.769,-1.586 21.72,-11.061 25.27,-12.635 3.56,-1.586 10.368,-4.703 9.477,3.158 -1.966,17.367 -34.746,22.111 -34.746,22.111 0,0 -42.177,2.328 -44.222,-37.901 z"
       id="path121973" /><path
       fill="#da72a3"
       d="m 501.876,241.887 c -15.004,0.793 -6.711,-17.377 -3.159,-28.428 3.56,-11.063 2.907,-23.184 15.793,-22.111 14.249,1.176 3.158,18.953 3.158,18.953 0,0 21.641,-23.734 41.063,-22.109 4.743,0.389 -9.477,31.586 -9.477,31.586 0,0 -3.551,-11.451 -12.634,-9.477 -26.112,5.676 -19.735,30.795 -34.744,31.586 z"
       id="path121975" /><g
       fill="#686868"
       id="g121981">
        <path
   d="m 102,136.463 9.615,-40.314 9.684,-7.684 h 9.612 l -9.612,40.313 9.612,-5.753 7.717,-28.771 5.789,-5.789 h 13.544 l -9.648,40.313 9.648,-7.649 5.755,-24.98 7.754,-7.684 h 11.613 l -9.647,38.42 -11.581,9.578 z m 390.958,0 4.913,-23.015 8.734,-8.387 h 11.227 l -6.594,25.297 9.682,-5.754 2.456,-13.087 6.458,-6.456 h 13.472 l -6.598,25.297 9.125,-6.106 2.596,-10.804 8.419,-8.387 h 10.035 l -5.613,21.824 -13.157,9.578 z m -75.328,0 9.683,-9.578 h 41.543 c 0,0 3.575,1.053 5.615,-3.473 1.857,-4.213 -1.756,-4.213 -1.756,-4.213 H 453.42 c 0,0 -5.543,-1.265 -5.578,-8.07 -0.104,-16.733 13.648,-21.051 13.648,-21.051 h 40.556 l -8.067,8 h -21.264 c 0,0 -6.771,1.93 -6.913,7.58 -0.104,2.562 3.054,2.035 3.054,2.035 h 17.33 c 0,0 10.034,1.684 7.721,12.49 -3.021,14.21 -13.475,16.279 -13.475,16.279 H 417.63 Z"
   id="path121977" />
        <path
   d="m 384.648,136.463 h 17.33 l 5.266,-19.928 c 0.632,-2.316 6.736,-4.945 5.124,-4.668 -1.58,0.281 5.543,-1.054 5.543,-1.054 0,0 2.243,0.632 3.368,2.177 1.158,1.508 -1.125,3.754 -1.44,5.51 -0.313,1.752 1.931,1.928 1.931,1.928 h 9.684 c 0,0 5.196,-1.928 6.601,-3.857 1.369,-1.964 3.084,-4 3.084,-5.72 0,-1.72 -3.823,-3.858 -3.823,-3.858 l -3.896,-1.896 h -28.945 c 0,0 -13.854,7.933 -15.471,9.579 -0.566,0.491 -4.356,21.787 -4.356,21.787 z m -202.585,-22 c -1.332,1.543 -5.682,15.088 -4.735,17.297 0.981,2.143 6.35,4.701 6.35,4.701 h 28.208 c 0,0 13.157,-8.246 14.174,-9.404 0.983,-1.191 4.702,-14.35 4.702,-15.721 0,-1.369 -3.157,-6.278 -3.157,-6.278 h -32.98 c 0,0.003 -11.189,7.862 -12.562,9.405 z m 22,-3.121 h 8.668 c 0,0 -0.982,10.422 -3.157,13.365 -2.21,2.949 -7.087,5.51 -7.087,5.51 0,0 -5.473,0.563 -6.245,0 -0.808,-0.631 -0.211,-6.28 -0.211,-6.28 0,0 0.737,-6.104 1.754,-7.894 0.983,-1.753 6.278,-4.701 6.278,-4.701 z m 83.188,3.121 c -1.333,1.543 -5.683,15.088 -4.701,17.297 0.982,2.143 6.315,4.701 6.315,4.701 h 39.26 c 0,0 1.299,-6.246 2.914,-12.563 1.542,-5.931 3.368,-15.048 3.368,-15.72 0,-1.404 9.754,-13.717 9.754,-13.717 h -17.054 l -8.627,10.594 h -18.668 c 0.038,0.006 -11.155,7.865 -12.561,9.408 z m 21.999,-3.121 h 8.63 c 0,0 -0.948,10.422 -3.159,13.365 -2.142,2.949 -7.052,5.51 -7.052,5.51 0,0 -5.473,0.563 -6.281,0 -0.737,-0.631 -0.209,-6.28 -0.209,-6.28 0,0 0.737,-6.104 1.789,-7.894 0.983,-1.753 6.282,-4.701 6.282,-4.701 z m -82.695,25.121 8.911,-31.402 h 37.683 c 0,0 4.982,0.525 6.666,3.333 1.754,2.81 1.193,7.649 1.193,7.649 l -5.123,20.42 h -15.719 c 0,0 1.825,-9.998 3.579,-17.264 1.754,-7.264 -3.157,-7.857 -3.157,-7.857 h -9.402 l -5.403,18.84 c 0,0 -4.702,5.473 -6.666,6.281 z m 386.71,0 10.001,-31.402 h 37.684 c 0,0 4.945,0.525 6.701,3.333 1.756,2.81 1.193,7.649 1.193,7.649 l -5.3,20.42 h -17.226 c 0,0 2.875,-8.42 4.7,-15.721 1.755,-7.228 -2.563,-9.402 -2.563,-9.402 h -9.438 l -5.265,18.84 c 0,0 -4.348,5.474 -6.278,6.281 h -14.212 v 0.002 z m -274.194,-22 c -1.37,1.543 -5.647,15.088 -4.699,17.297 0.946,2.143 6.278,4.701 6.278,4.701 h 28.246 c 0,0 5.613,-3.51 9.791,-6.281 0,0 -24.002,0.176 -25.475,0 -0.665,-0.07 -0.42,-2.979 -0.35,-4.699 h 19.296 c 0,0 3.719,-0.809 9.262,-5.404 5.617,-4.595 6.315,-5.089 6.315,-8.736 0,-3.611 -3.158,-6.281 -3.158,-6.281 H 351.6 c 0.068,0.001 -11.159,7.86 -12.529,9.403 z m 22.036,-3.121 h 12.666 c 0,0 -1.403,4.809 -8.314,7.857 h -10.561 c -1.019,-2.734 1.474,-4.91 2.877,-6.105 1.473,-1.332 3.332,-1.752 3.332,-1.752 z m 231.739,25.121 c 0,0 5.333,-16.877 7.02,-22.28 0.842,-2.946 -1.123,-2.841 -4.844,-2.841 -3.722,0 -6.422,0.806 -11.578,9.4 -6.035,10.035 8.91,12.772 8.91,12.772 l -1.054,2.944 h -17.259 c 0,0 -9.439,0.388 -9.439,-10.979 0,-13.964 17.856,-20.423 17.856,-20.423 h 37.717 l -10.033,31.402 h -17.296 z"
   id="path121979" />
    </g></g></svg>
