<?xml version="1.0" encoding="UTF-8" standalone="no"?>
<!-- Generator: Adobe Illustrator 17.0.0, SVG Export Plug-In . SVG Version: 6.00 Build 0)  -->

<svg
   version="1.1"
   id="Ebene_1"
   x="0px"
   y="0px"
   width="397.65356"
   height="100"
   viewBox="0 0 397.65355 100"
   enable-background="new 0 0 566.929 98.437"
   xml:space="preserve"
   sodipodi:docname="virtualboy.svg"
   inkscape:version="1.2.1 (9c6d41e410, 2022-07-14)"
   xmlns:inkscape="http://www.inkscape.org/namespaces/inkscape"
   xmlns:sodipodi="http://sodipodi.sourceforge.net/DTD/sodipodi-0.dtd"
   xmlns="http://www.w3.org/2000/svg"
   xmlns:svg="http://www.w3.org/2000/svg"><defs
     id="defs37289" /><sodipodi:namedview
     id="namedview37287"
     pagecolor="#505050"
     bordercolor="#ffffff"
     borderopacity="1"
     inkscape:showpageshadow="0"
     inkscape:pageopacity="0"
     inkscape:pagecheckerboard="1"
     inkscape:deskcolor="#505050"
     showgrid="false"
     inkscape:zoom="1.9879032"
     inkscape:cx="176.81948"
     inkscape:cy="44.770792"
     inkscape:window-width="1920"
     inkscape:window-height="1017"
     inkscape:window-x="-8"
     inkscape:window-y="-8"
     inkscape:window-maximized="1"
     inkscape:current-layer="Ebene_1" /><g
     id="g37284"
     transform="matrix(1.1230867,0,0,1.1230867,-119.52787,-5.2762615)">
	<path
   id="path2952"
   fill="#fe0016"
   d="m 106.428,4.709 18.565,89.018 18.47,-89.018 h -9.997 L 124.993,54.74 116.424,4.709 Z" />
	<path
   id="path3726"
   fill="#fe0016"
   d="m 147.557,4.709 h 9.997 v 89.018 h -9.997 V 4.709 c 0,0 0,0 0,0 z" />
	<path
   id="path3728"
   fill="#fe0016"
   d="M 166.497,4.699 V 93.73 h 10 v -46 l 13.906,46 h 9.219 L 188.497,51.636 c 6.181,-3.708 8,-8.562 8,-8.562 V 14.793 C 192.403,5.701 185.341,4.699 185.341,4.699 Z m 10,9.063 h 10 v 30.937 h -10 z" />
	<path
   id="path3733"
   fill="#fe0016"
   d="m 199.635,4.709 h 29.895 v 9.045 h -9.997 v 79.974 h -9.997 V 13.754 h -9.901 V 4.709 c 0,0 0,0 0,0 z" />
	<path
   id="path3735"
   fill="#fe0016"
   d="m 284.841,4.699 -19.312,88.938 v 0.094 h 9.906 l 2.094,-12 h 13.969 l 2,12 h 10 z m 0,38.375 4.562,30.656 h -9.875 z" />
	<path
   id="path2882"
   fill="#fe0016"
   d="m 307.504,4.709 h 9.997 v 79.974 h 14.947 v 9.045 H 307.504 V 4.709 c 0,0 0,0 0,0 z" />
	<path
   id="path3660"
   fill="#fe0016"
   d="m 414.421,4.709 h 9.14 l 9.33,38.368 8.473,-38.368 h 10.092 l -13.995,52.364 v 36.655 h -9.997 V 57.073 Z" />
	<path
   id="path3662"
   fill="#fe0016"
   d="m 396.482,4.709 c -11.363,0 -15.016,10.084 -15.016,10.084 0.095,0.143 0,66.94 0,68.844 1.507,10.821 15.016,10.091 15.016,10.091 v 0 c 14.988,0 14.984,-10.091 14.984,-10.091 V 14.793 C 407.591,4.21 396.482,4.709 396.482,4.709 Z m -5.016,10.084 h 10 v 69.875 h -10 z" />
	<path
   id="path3667"
   fill="#fe0016"
   d="m 233.433,4.709 h 10.092 v 78.926 h 10.092 V 4.709 h 9.901 v 78.926 c 0,0 -3.237,10.092 -14.567,10.092 -11.33,0 -15.519,-10.092 -15.519,-10.092 V 4.709 c 0.001,0 0.001,0 0.001,0 z" />
	<path
   id="path3669"
   fill="#fe0016"
   d="M 343.497,4.699 V 93.73 h 20.094 c 9.327,-2.428 9.906,-9.062 9.906,-9.062 0,0 -0.015,-23.781 -0.015,-29.928 -0.7,-3.88 -3.892,-4.01 -3.892,-4.01 0,0 -0.012,-1.084 0,-1.938 3.526,-0.269 3.906,-4.094 3.906,-4.094 0,0 -0.015,-23.757 0,-29.906 C 371.972,7.529 363.59,4.698 363.59,4.698 h -20.093 z m 10.031,10.157 H 363.59 V 44.7 h -10.062 z m -0.031,38.875 h 10.094 v 30.938 h -10.094 z" />
	<path
   id="path3699"
   fill="#fe0016"
   d="m 443.507,84.683 h 6.95 v 1.033 h -2.951 v 8.011 h -1 v -8.011 h -2.999 z" />
	<path
   id="path3713"
   fill="#fe0016"
   d="m 451.456,93.727 v -9.045 h 1 l 3.57,8.068 3.427,-8.068 h 1.047 v 9.045 h -1.047 v -7.001 l -2.955,7.001 h -1.01 l -3.033,-7.001 v 7.001 z" />
</g></svg>
