<?xml version="1.0" encoding="UTF-8" standalone="no"?>
<svg
   height="100"
   viewBox="0 0 840.44838 100"
   width="840.44836"
   version="1.1"
   id="svg31757"
   sodipodi:docname="c128.svg"
   inkscape:version="1.2.1 (9c6d41e410, 2022-07-14)"
   xml:space="preserve"
   xmlns:inkscape="http://www.inkscape.org/namespaces/inkscape"
   xmlns:sodipodi="http://sodipodi.sourceforge.net/DTD/sodipodi-0.dtd"
   xmlns="http://www.w3.org/2000/svg"
   xmlns:svg="http://www.w3.org/2000/svg"><defs
     id="defs31761" /><sodipodi:namedview
     id="namedview31759"
     pagecolor="#505050"
     bordercolor="#ffffff"
     borderopacity="1"
     inkscape:showpageshadow="0"
     inkscape:pageopacity="0"
     inkscape:pagecheckerboard="1"
     inkscape:deskcolor="#505050"
     showgrid="false"
     inkscape:zoom="0.58956877"
     inkscape:cx="441.00029"
     inkscape:cy="-132.30009"
     inkscape:window-width="1920"
     inkscape:window-height="1017"
     inkscape:window-x="-8"
     inkscape:window-y="-8"
     inkscape:window-maximized="1"
     inkscape:current-layer="svg31757" /><g
     id="g37993"
     transform="matrix(4.9999999,0,0,4.9999999,0.002686,0)"><path
       d="M 7.9664269,0 H 160.12217 c 4.41373,0 7.96697,4.4599901 7.96697,10.000064 0,5.540074 -3.55324,10.000064 -7.96697,10.000064 H 7.9664269 c -4.4137288,0 -7.96696409992,-4.458709 -7.96696409992,-10.000064 C -5.3719992e-4,4.4587089 3.5526981,0 7.9664269,0 Z"
       fill="#5d594f"
       id="path31729"
       style="fill:#6f685f;fill-opacity:1;stroke-width:0.571801" /><g
       fill="#ffffff"
       stroke-linecap="round"
       stroke-width="0.265"
       id="g31733"
       transform="matrix(0.64061909,0,0,0.64061909,-5.3719992e-4,0)"><path
         d="m 34.288,15.75 c 0,3.594 2.235,3.99 4.354,3.99 h 3.269 c 1.835,0 3.736,-0.643 3.736,-2.901 v -0.742 h -3.102 v 0.198 c 0,0.774 -0.818,0.972 -1.718,0.972 h -1.635 c -1,0 -1.701,-0.33 -1.701,-1.417 v -1.121 c 0,-0.923 0.634,-1.286 1.968,-1.286 h 1.234 c 1.401,0 1.852,0.313 1.852,1.17 h 3.102 v -0.758 c 0,-1.928 -1.45,-2.785 -3.82,-2.785 h -3.602 c -2.335,0 -3.937,0.692 -3.937,3.873 z m 13.019,0.574 c 0,2.77 1.885,3.33 3.52,3.33 h 4.787 c 1.635,0 3.52,-0.56 3.52,-3.33 v -2.01 c 0,-2.77 -1.885,-3.33 -3.52,-3.33 h -4.787 c -1.635,0 -3.52,0.56 -3.52,3.33 z m 3.203,-1.4 c 0,-1.204 0.717,-1.567 2.185,-1.567 h 0.767 c 2.069,0 2.469,0.264 2.469,1.385 v 1.154 c 0,1.12 -0.4,1.384 -2.469,1.384 h -0.767 c -1.468,0 -2.185,-0.363 -2.185,-1.566 z m 10.25,4.461 h 3.203 v -4.433 c 0,-1.302 0.65,-1.632 2.018,-1.632 1.935,0 2.319,0.264 2.319,1.302 v 4.763 h 3.202 v -4.631 c 0,-1.104 0.634,-1.434 2.169,-1.434 1.868,0 2.168,0.395 2.168,1.55 v 4.515 h 3.202 v -4.73 c 0,-2.406 -1.05,-3.807 -3.97,-3.807 h -0.983 c -1.819,0 -2.502,0.445 -3.036,1.961 -0.6,-1.319 -1.635,-1.961 -3.153,-1.961 h -1.217 c -1.568,0 -2.67,0.576 -2.836,1.78 H 63.813 V 10.979 H 60.76 Z m 20.37,0 h 3.202 v -4.433 c 0,-1.302 0.65,-1.632 2.018,-1.632 1.935,0 2.319,0.264 2.319,1.302 v 4.763 h 3.202 v -4.631 c 0,-1.104 0.634,-1.434 2.169,-1.434 1.868,0 2.168,0.395 2.168,1.55 v 4.515 h 3.202 v -4.73 c 0,-2.406 -1.05,-3.807 -3.97,-3.807 h -0.983 c -1.818,0 -2.502,0.445 -3.036,1.961 -0.6,-1.319 -1.635,-1.961 -3.153,-1.961 h -1.217 c -1.568,0 -2.669,0.576 -2.836,1.78 h -0.033 v -1.649 h -3.053 z m 37.084,-4.697 c 0,-0.94 0.15,-1.467 1.685,-1.467 h 1.885 c 1.268,0 1.935,0.28 1.935,1.55 v 0.823 c 0,1.27 -0.667,1.55 -1.935,1.55 h -1.885 c -1.534,0 -1.685,-0.528 -1.685,-1.467 z m -3.102,1.253 c 0,2.142 0.5,3.576 4.554,3.576 h 0.934 c 1.934,0 2.735,-0.643 3.085,-1.681 h 0.034 v 1.55 h 3.002 V 7.451 h -3.202 v 5.077 h -0.034 c -0.2,-1.319 -1.551,-1.681 -2.869,-1.681 h -0.95 c -4.054,0 -4.554,1.434 -4.554,3.576 z m -13.869,0.383 c 0,2.77 1.885,3.33 3.52,3.33 h 4.786 c 1.635,0 3.52,-0.56 3.52,-3.33 v -2.01 c 0,-2.77 -1.885,-3.33 -3.52,-3.33 h -4.787 c -1.634,0 -3.52,0.56 -3.52,3.33 z m 3.202,-1.4 c 0,-1.204 0.717,-1.567 2.185,-1.567 h 0.768 c 2.068,0 2.468,0.264 2.468,1.385 v 1.154 c 0,1.12 -0.4,1.384 -2.468,1.384 h -0.768 c -1.468,0 -2.185,-0.363 -2.185,-1.566 z m 24.099,1.4 c 0,2.77 1.885,3.33 3.52,3.33 h 4.786 c 1.635,0 3.52,-0.56 3.52,-3.33 v -2.01 c 0,-2.77 -1.885,-3.33 -3.52,-3.33 h -4.787 c -1.634,0 -3.52,0.56 -3.52,3.33 z m 3.202,-1.4 c 0,-1.204 0.718,-1.567 2.185,-1.567 h 0.768 c 2.068,0 2.468,0.264 2.468,1.385 v 1.154 c 0,1.12 -0.4,1.384 -2.468,1.384 h -0.768 c -1.467,0 -2.185,-0.363 -2.185,-1.566 z m 10.376,4.598 h 3.203 v -4.648 c 0,-1.006 0.767,-1.418 1.868,-1.418 1.284,0 1.535,0.511 1.535,1.582 h 2.768 c 0.017,-0.296 0.034,-0.527 0.034,-0.741 0,-2.324 -0.918,-3.313 -3.253,-3.313 -1.45,0 -2.752,0.395 -3.119,1.73 h -0.033 v -1.598 h -3.003 z M 152.7,15.665 c 0,3.593 2.234,3.988 4.353,3.988 h 2.401 c 2.319,0 4.22,-0.461 4.22,-2.57 V 16.72 h -3.002 c 0,0.494 -0.083,0.956 -1.818,0.956 h -0.984 c -1.335,0 -1.968,-0.248 -1.968,-1.138 v -0.51 h 7.772 V 14.61 c 0,-2.917 -1.4,-3.626 -4.803,-3.626 h -2.235 c -2.336,0 -3.937,0.692 -3.937,3.873 z m 3.202,-1.517 c 0,-1.005 0.25,-1.186 2.335,-1.186 1.868,0 2.335,0.181 2.335,1.186 z"
         id="path31731" /></g><g
       fill="#ffffff"
       stroke-width="1.368"
       id="g31741"
       transform="matrix(0.64061909,0,0,0.64061909,-5.3719992e-4,0)"><path
         d="m 17.584,5.289 c -5.618,0 -10.176,4.557 -10.176,10.175 0,5.618 4.558,10.17 10.176,10.17 1.08,0 2.123,-0.172 3.1,-0.484 v -5.075 c -0.844,0.49 -1.83,0.773 -2.889,0.773 -3.09,0 -5.595,-2.41 -5.595,-5.384 0,-2.973 2.504,-5.384 5.595,-5.384 1.058,0 2.045,0.283 2.889,0.774 V 5.772 a 10.17,10.17 0 0 0 -3.1,-0.483 z"
         id="path31735" /><g
         stroke-width="1.194"
         id="g31739"><path
           d="m 20.795,10.951 h 8.683 l -3.883,4.045 h -4.8 z m 0,8.909 h 8.683 l -3.883,-4.045 h -4.8 z"
           id="path31737" /></g></g><path
       d="m 109.02015,15.025721 h 13.94151 V 16.5568 h -13.94098 z"
       fill="#009eda"
       id="path31743"
       style="stroke-width:0.583146"
       sodipodi:nodetypes="ccccc" /><path
       d="m 109.02015,12.073748 h 13.94151 v 1.53108 h -13.94098 z"
       fill="#4bb249"
       id="path31745"
       style="stroke-width:0.583146"
       sodipodi:nodetypes="ccccc" /><path
       d="m 109.02015,9.1941652 h 13.94151 v 1.5310798 h -13.94098 z"
       fill="#f1cb29"
       id="path31747"
       style="stroke-width:0.583146"
       sodipodi:nodetypes="ccccc" /><path
       d="m 109.02015,6.395941 h 13.94151 v 1.5310796 h -13.94098 z"
       fill="#da6241"
       id="path31749"
       style="stroke-width:0.583146"
       sodipodi:nodetypes="ccccc" /><path
       d="m 109.02015,3.4638274 h 13.94151 V 4.994907 h -13.94098 z"
       fill="#d12625"
       id="path31751"
       style="stroke-width:0.583146"
       sodipodi:nodetypes="ccccc" /><g
       fill="#ffffff"
       stroke-linecap="round"
       stroke-width="0.265"
       id="g31755"
       transform="matrix(0.64061909,0,0,0.64061909,-42.678865,0.37252011)"><path
         d="m 270.893,22.794 h 4.411 V 7.137 h -5.73 l -6.64,4.325 2.185,3.136 5.774,-3.698 z m 11.245,0 h 18.338 V 19.421 H 286.55 c 0,-1.406 0.303,-1.795 2.314,-1.904 l 4.953,-0.259 c 5.6,-0.303 6.444,-1.081 6.444,-5.687 0,-3.266 -1.168,-4.607 -5.666,-4.607 h -6.315 c -4.325,0 -6.141,1.038 -6.141,4.13 v 1.839 h 4.541 v -0.67 c 0,-1.622 0.627,-1.925 2.66,-1.925 h 3.179 c 3.07,0 3.2,0.281 3.2,1.557 0,1.535 -0.237,1.6 -3.74,1.816 l -5.493,0.346 c -3.093,0.217 -4.347,1.493 -4.347,3.417 z m 21.301,-3.611 c 0,2.508 1.47,3.784 4.844,3.784 h 9.04 c 2.919,0 4.584,-0.93 4.584,-3.546 v -1.255 c 0,-2.14 -1.125,-2.876 -2.747,-3.33 v -0.043 c 2.206,-0.281 2.617,-1.406 2.617,-3.093 v -1.016 c 0,-2.963 -1.816,-3.72 -5.817,-3.72 h -4.758 c -6.163,0 -7.677,0.238 -7.677,3.741 v 0.887 c 0,2.227 1.32,3.05 2.703,3.287 v 0.043 c -2.097,0.303 -2.79,1.211 -2.79,2.898 z m 6.4,0.41 c -1.621,0 -1.859,-0.475 -1.859,-1.578 0,-1.211 0.216,-1.557 2.12,-1.557 h 5.146 c 1.903,0 2.12,0.346 2.12,1.557 0,1.103 -0.238,1.579 -1.86,1.579 z m 0.066,-6.379 c -1.406,0 -1.838,-0.562 -1.838,-1.449 0,-1.081 0.648,-1.427 1.47,-1.427 h 6.228 c 0.822,0 1.47,0.346 1.47,1.427 0,0.887 -0.432,1.449 -1.837,1.449 z"
         id="path31753" /></g></g></svg>
