<?xml version="1.0" encoding="UTF-8" standalone="no"?>
<!-- Generator: Adobe Illustrator 13.0.0, SVG Export Plug-In . SVG Version: 6.00 Build 14948)  -->

<svg
   version="1.2"
   id="Layer_1"
   x="0px"
   y="0px"
   width="206.66193"
   height="100"
   viewBox="0 0 206.66193 100"
   xml:space="preserve"
   sodipodi:docname="pcengine.svg"
   inkscape:version="1.2.1 (9c6d41e410, 2022-07-14)"
   xmlns:inkscape="http://www.inkscape.org/namespaces/inkscape"
   xmlns:sodipodi="http://sodipodi.sourceforge.net/DTD/sodipodi-0.dtd"
   xmlns="http://www.w3.org/2000/svg"
   xmlns:svg="http://www.w3.org/2000/svg"><defs
     id="defs2024" /><sodipodi:namedview
     id="namedview2022"
     pagecolor="#505050"
     bordercolor="#ffffff"
     borderopacity="1"
     inkscape:showpageshadow="0"
     inkscape:pageopacity="0"
     inkscape:pagecheckerboard="1"
     inkscape:deskcolor="#505050"
     showgrid="false"
     inkscape:zoom="2.1766126"
     inkscape:cx="87.980745"
     inkscape:cy="90.048177"
     inkscape:window-width="1920"
     inkscape:window-height="1017"
     inkscape:window-x="-8"
     inkscape:window-y="-8"
     inkscape:window-maximized="1"
     inkscape:current-layer="Layer_1" /><g
     id="g2019"
     transform="matrix(0.36452261,0,0,0.36452261,8.7657783e-5,-2.0850847e-4)">
	<g
   id="g1997">
		<path
   fill="#c61717"
   d="m 57.9,201.665 c -0.39,0 -0.787,-0.088 -1.161,-0.271 C 18.76,182.96 -0.85,161.473 0.028,139.247 c 0.714,-18.296 15.645,-35.57 43.177,-49.959 26.123,-13.65 62.969,-24.482 106.557,-31.33 1.454,-0.227 2.815,0.766 3.043,2.218 0.229,1.452 -0.764,2.813 -2.217,3.043 C 62.295,77.085 6.644,106.298 5.35,139.458 c -0.777,19.661 18.299,39.957 53.715,57.146 1.323,0.645 1.875,2.231 1.233,3.561 -0.462,0.946 -1.41,1.5 -2.398,1.5 z"
   id="path1995" />
	</g>
	<g
   id="g2001">
		<path
   fill="#c61717"
   d="m 388.979,65.167 c -0.145,0 -0.289,-0.011 -0.436,-0.035 -28.057,-4.606 -57.67,-7.681 -88.022,-9.133 -1.472,-0.069 -2.604,-1.317 -2.533,-2.787 0.07,-1.468 1.341,-2.589 2.787,-2.531 30.558,1.463 60.379,4.557 88.636,9.196 1.447,0.238 2.434,1.607 2.193,3.06 -0.216,1.305 -1.343,2.23 -2.625,2.23 z"
   id="path1999" />
	</g>
	<g
   id="g2005">
		<path
   fill="#c61717"
   d="m 305.16,247.033 c -0.746,0 -1.486,0 -2.232,-0.003 -1.471,-0.003 -2.655,-1.198 -2.651,-2.671 0.005,-1.467 1.19,-2.652 2.658,-2.652 0.004,0 0.008,0 0.013,0 0.73,0.002 1.479,0.002 2.215,0.002 142.504,0.002 254.953,-37.04 256.436,-84.646 C 562.12,140.405 548.738,123.502 522.89,108.19 497.156,92.939 460.271,79.94 416.23,70.601 c -1.438,-0.306 -2.355,-1.72 -2.053,-3.157 0.303,-1.439 1.721,-2.354 3.158,-2.052 44.6,9.459 82.039,22.674 108.27,38.217 27.615,16.364 41.902,34.907 41.316,53.62 -0.787,25.316 -28.754,48.396 -78.748,64.975 -48.339,16.026 -113.257,24.829 -183.013,24.829 z"
   id="path2003" />
	</g>
	<polygon
   fill="#c61717"
   points="337.58,117.708 360.78,141.861 353.382,108.404 423.681,54.818 341.114,87.776 317.91,63.624 325.308,97.091 255.009,150.675 "
   id="polygon2007" />
	<g
   id="g2017">
		<path
   fill="#c61717"
   d="m 265.343,175.296 c 1.008,-4.961 2.846,-4.239 7.877,-5.039 l 4.683,-0.737 -1.458,7.809 -4.683,0.748 c -5.031,0.797 -7.246,2.143 -6.419,-2.781 z m -10.153,-7.148 -3.645,19.605 c -0.998,5.354 0.62,7.078 5.772,6.264 l 29.831,-4.732 6.395,-34.387 -29.833,4.726 c -5.155,0.817 -7.531,3.172 -8.52,8.524 z m 189.368,-30.95 -0.348,1.896 30.771,-4.885 c 2.429,-0.39 4.796,-2.845 5.291,-5.5 0.485,-2.653 -1.075,-4.492 -3.507,-4.104 l -7.902,1.248 -12.609,2.007 -3.195,0.5 c -3.696,0.591 -7.751,4.805 -8.501,8.838 z m -215.887,88.669 0.25,-1.367 c 1.058,0.08 2.476,0.489 3.714,0.305 l 31.98,-5.017 c -1.188,6.38 -9.615,7.979 -22.475,10.017 l -14.637,2.325 -7.848,42.202 19.229,-3.047 c 47.345,-4.674 65.357,-29.143 71.139,-58.313 l 57.688,-9.156 9.295,-50.021 4.692,-0.75 c 5.142,-0.815 4.384,-1.746 3.396,3.597 l -8.508,45.77 41.416,-6.572 0.567,-3.033 c 3.126,1.379 6.778,1.865 10.646,1.258 l 71.625,-11.36 6.68,-35.953 -4.643,-3.306 c 4.023,-4.764 7.158,-10.593 8.066,-15.485 l 1.129,-5.67 c 3.572,-21.207 -15.979,-26.838 -24.9,-25.42 l -41.104,6.521 c -7.279,1.156 -15.295,6.229 -21.127,12.949 -5.395,-5.342 -13.721,-7.418 -18.563,-6.649 l -45.76,7.259 5.123,11.322 41.27,-6.54 c 5.951,-0.948 9.928,1.428 11.019,6.14 -0.438,1.248 -11.019,57.579 -11.019,57.579 l -14.797,2.349 7.934,-42.646 c 0.982,-5.34 -0.633,-7.067 -5.771,-6.25 l -28.356,4.504 -9.304,50.021 -16.266,2.589 10.645,-57.271 -13.391,-15.796 -48.203,17.425 22.846,-3.625 0.369,-0.051 -14.527,78.155 c -3.691,19.854 -24.877,38.84 -43.668,41.823 l -19.229,3.048 2.916,-15.642 14.627,-2.313 c 12.859,-2.047 27.336,-14.916 29.833,-28.375 l 1.578,-8.468 -38.09,6.041 c -8.167,1.298 -12.6,-3.663 -10.993,-12.291 l 6.83,-36.741 c 1.208,-6.529 5.282,-11.951 10.733,-14.769 l 0.09,-0.979 19.109,-14.707 -11.163,1.877 c -5.939,0.938 -16.953,5.392 -23.951,14.317 -5.292,-6.313 -14.547,-8.786 -19.759,-7.959 l -41.055,6.521 6.69,-35.962 29.953,-4.752 c 15.944,-2.526 33.586,-20.458 36.721,-37.301 l 4.503,-24.232 C 257,27.138 245.149,13.888 229.204,16.416 l -65.457,10.384 -13.948,75.041 -60.275,9.565 c -5.102,0.81 -10.064,5.841 -11.062,11.231 L 55.935,243.79 c -0.999,5.394 2.326,9.112 7.429,8.31 l 115.008,-18.252 9.305,-50.021 4.682,-0.748 c 5.152,-0.81 4.393,-1.735 3.395,3.604 l -8.506,45.756 z m -85.343,-27.426 -38.459,6.101 1.448,-7.808 31.061,-4.938 7.558,-40.646 -31.061,4.936 1.447,-7.814 38.459,-6.104 z m -2.327,12.51 -3.195,17.191 -68.042,10.795 21.207,-114.121 56.211,-8.916 -2.906,15.635 -39.937,6.342 -6.1,32.828 32.539,-5.162 -2.905,15.627 -32.539,5.162 -6.11,32.836 z m 78.156,4.296 -16.274,2.571 7.927,-42.633 c 0.999,-5.344 -0.619,-7.078 -5.771,-6.262 l -28.355,4.504 -9.294,50.021 -16.275,2.586 12.201,-65.652 0.379,-0.063 53.984,-8.563 c 8.167,-1.299 12.6,3.652 10.993,12.289 z m 105.761,-80.506 15.905,-2.516 -12.211,65.652 -16.267,2.578 12.199,-65.646 z m 98.686,30.943 5.647,-30.372 c 1.791,-9.604 12.113,-19.04 20.908,-20.438 l 38.049,-6.029 c 6.412,-1.021 10.865,6.14 9.557,13.147 l -1.865,9.774 c -1.311,7.009 -8.469,14.458 -14.875,15.476 l -39.498,6.271 -0.568,3.545 c -0.75,4.03 1.926,7.18 5.621,6.59 l 44.147,-7.029 -2.976,16.02 -49.801,7.896 c -8.796,1.392 -16.124,-5.239 -14.346,-14.851 z M 188.206,80.568 193.728,50.865 214.435,47.58 c 2.716,-0.43 4.104,1.119 3.564,3.983 l -3.774,20.329 c -0.54,2.875 -2.596,4.961 -5.312,5.391 z"
   id="path2009" />
		<g
   id="g2015">
			<path
   fill="#c61717"
   d="m 320.565,94.466 -4.396,-17.412 -2.479,0.299 -0.797,4.293 c -0.552,2.977 -2.943,5.4 -5.753,5.852 l -17.015,2.695 c -2.808,0.449 -4.414,-1.348 -3.862,-4.323 l 8.575,-46.117 c 0.55,-2.965 2.943,-5.392 5.748,-5.841 l 17.02,-2.695 c 2.807,-0.448 4.412,1.349 3.857,4.313 l -1.098,5.87 34.396,-5.462 1.308,-7.029 C 359.365,11.168 347.302,-2.32 330.507,0.335 L 297.601,5.558 C 280.819,8.224 262.848,26.475 259.554,44.216 L 250.4,93.459 c -3.295,17.741 8.766,31.229 25.56,28.564 l 11,-1.737 z"
   id="path2011" />
			<path
   fill="#c61717"
   d="m 344.946,83.962 c 0.897,-2.416 1.519,-3.334 1.979,-5.812 l 1.168,-6.26 -13.688,2.176 z"
   id="path2013" />
		</g>
	</g>
</g></svg>
