<?xml version="1.0" encoding="UTF-8" standalone="no"?>
<svg
   width="327.86887"
   height="100"
   viewBox="3 136.91 327.86887 99.999999"
   version="1.1"
   id="svg757"
   sodipodi:docname="3do.svg"
   inkscape:version="1.2.1 (9c6d41e410, 2022-07-14)"
   xmlns:inkscape="http://www.inkscape.org/namespaces/inkscape"
   xmlns:sodipodi="http://sodipodi.sourceforge.net/DTD/sodipodi-0.dtd"
   xmlns="http://www.w3.org/2000/svg"
   xmlns:svg="http://www.w3.org/2000/svg">
  <defs
     id="defs761" />
  <sodipodi:namedview
     id="namedview759"
     pagecolor="#505050"
     bordercolor="#ffffff"
     borderopacity="1"
     inkscape:showpageshadow="0"
     inkscape:pageopacity="0"
     inkscape:pagecheckerboard="1"
     inkscape:deskcolor="#505050"
     showgrid="false"
     inkscape:zoom="1.6001565"
     inkscape:cx="79.679708"
     inkscape:cy="25.622494"
     inkscape:window-width="1920"
     inkscape:window-height="1017"
     inkscape:window-x="-8"
     inkscape:window-y="-8"
     inkscape:window-maximized="1"
     inkscape:current-layer="svg757" />
  <path
     d="m 3,136.91 h 327.86887 v 100 H 3 Z"
     id="path736"
     style="stroke-width:1.21433" />
  <path
     fill="#ffffff"
     d="m 7.250152,141.67017 h 89.459627 v 89.45962 H 7.250152 Z"
     id="path738"
     style="stroke-width:1.21433" />
  <path
     fill="#888888"
     d="m 38.5677,224.73028 c 0,-1.21433 5.634487,-2.21008 12.604737,-2.21008 6.958106,0 12.604736,0.98361 12.604736,2.21008 0,1.22647 -5.64663,2.21008 -12.604736,2.21008 -6.97025,0 -12.604737,-0.99575 -12.604737,-2.21008 z"
     id="path740"
     style="stroke-width:1.21433" />
  <path
     fill="#ffffff"
     d="m 128.56163,182.13162 v 0.17 c 7.31026,0.12143 12.70189,1.57863 16.18701,4.3473 3.47298,2.76867 5.22161,6.12022 5.22161,10.0425 0,4.37159 -1.97935,8.00243 -5.95021,10.84396 -3.95871,2.85367 -9.2289,4.28658 -15.79842,4.28658 -5.68306,0 -10.07893,-1.14147 -13.18761,-3.41226 -3.10869,-2.2708 -4.66303,-4.85732 -4.66303,-7.75957 a 5.8287798,5.8287796 0 0 1 2.10079,-4.66302 7.4802675,7.4802672 0 0 1 5.00304,-1.77292 c 1.82149,0 3.40012,0.52216 4.69945,1.5422 a 4.9666062,4.966606 0 0 1 1.94293,4.10443 c 0,2.25865 -1.50577,4.14086 -4.54159,5.67092 -0.58288,0.30358 -0.89861,0.64359 -0.89861,1.02003 0,0.69217 0.85003,1.29934 2.55009,1.8215 1.70007,0.5343 3.43656,0.78931 5.22162,0.78931 5.82878,0 8.75531,-4.28658 8.75531,-12.87189 0,-8.48816 -3.50941,-12.72617 -10.51609,-12.72617 l -5.81663,0.24287 c -1.16576,0 -1.76078,-0.43716 -1.76078,-1.31148 0,-0.9836 0.60716,-1.49362 1.84578,-1.49362 l 4.25015,0.17001 c 4.31087,0 7.21312,-0.97147 8.68245,-2.89011 1.46934,-1.91864 2.19794,-4.65088 2.19794,-8.20886 0,-3.64299 -0.54645,-6.3388 -1.66363,-8.051 -1.10504,-1.72435 -3.02368,-2.58653 -5.71949,-2.58653 -1.46934,0 -2.85367,0.24287 -4.14086,0.75289 -1.29934,0.48573 -1.94293,0.97146 -1.94293,1.45719 0,0.44931 0.42502,0.91075 1.2629,1.39648 2.23437,1.42077 3.35155,2.96296 3.35155,4.61445 0,1.6272 -0.61931,2.91439 -1.87007,3.88586 a 6.7395267,6.7395264 0 0 1 -4.21372,1.45719 7.6502735,7.6502732 0 0 1 -4.80874,-1.65149 5.0273226,5.0273224 0 0 1 -2.12508,-4.10443 c 0,-2.79296 1.57863,-5.19733 4.7116,-7.22526 3.14511,-2.04007 7.16454,-3.06011 12.09472,-3.06011 5.44019,0 10.03036,1.15362 13.75835,3.46084 3.74013,2.30723 5.6102,5.2459 5.6102,8.85246 0.0121,7.09168 -6.60595,11.39041 -19.81785,12.87189 z m 65.93807,-22.76868 v 48.81603 h 4.77232 c 7.31026,0 11.73042,-1.91864 13.23619,-5.74377 1.53005,-3.83728 2.28293,-10.39466 2.28293,-19.67213 0,-7.26169 -0.46144,-12.48331 -1.39647,-15.66485 -0.92289,-3.15725 -2.34366,-5.25804 -4.23801,-6.24165 a 15.470553,15.470553 0 0 0 -7.21312,-1.50577 h -7.45598 z m -14.77838,48.81603 v -48.81603 h -7.65027 v -2.64723 h 30.68609 c 8.86461,0 15.90771,2.51366 21.06861,7.54098 5.17304,5.03947 7.77171,11.39041 7.77171,19.05282 0,3.97086 -0.80146,7.72314 -2.38009,11.20826 -1.57862,3.49727 -4.00728,6.67881 -7.28597,9.54463 -3.27869,2.86581 -6.64238,4.69945 -10.07893,5.5252 a 55.628418,55.628415 0 0 1 -12.71403,1.23861 H 172.0589 v -2.64724 z m 110.95325,-24.38372 c 0,-8.29387 -0.15786,-13.74621 -0.49787,-16.3813 a 11.65756,11.657559 0 0 0 -2.65938,-6.37523 c -1.43291,-1.61506 -3.77657,-2.42866 -7.04311,-2.42866 -2.76867,0 -4.96661,0.65574 -6.60595,1.95507 -1.63935,1.31148 -2.65938,3.40012 -3.06011,6.27808 -0.40073,2.87796 -0.60717,8.50031 -0.60717,16.86703 0,8.28173 0.17001,13.75835 0.52216,16.44202 a 11.135398,11.135398 0 0 0 2.74439,6.38737 c 1.48148,1.59077 3.81299,2.38008 7.00668,2.38008 a 10.321798,10.321797 0 0 0 6.46023,-1.90649 c 1.66363,-1.28719 2.70795,-3.35155 3.12082,-6.22951 0.42502,-2.8901 0.63145,-8.54888 0.63145,-17.00061 z m -37.26776,-0.24287 c 0,-8.08743 2.67152,-14.70553 8.01457,-19.85428 a 26.727384,26.727383 0 0 1 19.22283,-7.72313 c 6.94597,0 13.15119,2.42865 18.62781,7.26168 5.47663,4.84518 8.20887,11.73042 8.20887,20.6436 0,8.37887 -2.57438,15.08197 -7.75957,20.12143 a 26.193079,26.193078 0 0 1 -18.97996,7.56527 c -8.07529,0 -14.65695,-2.67152 -19.72071,-8.02671 -5.07589,-5.35519 -7.61384,-12.02186 -7.61384,-19.97572 z"
     id="path742"
     style="stroke-width:1.21433" />
  <radialGradient
     id="a"
     cx="49.889999"
     cy="-77.32"
     r="10.65"
     gradientTransform="matrix(1.2143291,0,0,-1.2143291,-7.928962,107.87539)"
     gradientUnits="userSpaceOnUse">
    <stop
       offset=".52"
       stop-color="#ffe41b"
       id="stop744" />
    <stop
       offset=".89"
       stop-color="#716a13"
       id="stop746" />
    <stop
       offset="1"
       stop-color="#49482e"
       id="stop748" />
  </radialGradient>
  <path
     fill="url(#a)"
     d="m 40.44991,203.88025 a 10.722526,10.722526 0 1 1 21.43291,0 10.722526,10.722526 0 1 1 -21.43291,0 z"
     id="path751"
     style="fill:url(#a);stroke-width:1.21433" />
  <path
     fill="#0000a0"
     d="m 41.190651,175.87782 c -1.578628,1.04432 -2.003643,7.1524 -2.003643,7.1524 0,0 0.425015,6.10807 2.003643,7.16454 1.578628,1.04432 9.981786,1.67577 9.981786,1.67577 0,0 8.403157,-0.63145 9.969642,-1.68791 1.578628,-1.04433 2.003643,-7.16454 2.003643,-7.16454 0,0 -0.425015,-6.09594 -2.003643,-7.1524 -1.578628,-1.05647 -9.969642,-1.68792 -9.969642,-1.68792 0,0 -8.403158,0.63145 -9.981786,1.70006 z"
     id="path753"
     style="stroke-width:1.21433" />
  <path
     fill="#ff0000"
     d="m 51.172437,148.32469 12.54402,12.5926 -12.54402,12.58045 -12.556164,-12.58045 z"
     id="path755"
     style="stroke-width:1.21433" />
</svg>
