<?xml version="1.0" encoding="UTF-8" standalone="no"?>
<!-- Generator: Adobe Illustrator 13.0.0, SVG Export Plug-In . SVG Version: 6.00 Build 14948)  -->

<svg
   version="1.2"
   id="Ebene_1"
   x="0px"
   y="0px"
   width="1049.8435"
   height="100"
   viewBox="0 0 1049.8436 99.999999"
   xml:space="preserve"
   sodipodi:docname="x1.svg"
   inkscape:version="1.2.1 (9c6d41e410, 2022-07-14)"
   xmlns:inkscape="http://www.inkscape.org/namespaces/inkscape"
   xmlns:sodipodi="http://sodipodi.sourceforge.net/DTD/sodipodi-0.dtd"
   xmlns="http://www.w3.org/2000/svg"
   xmlns:svg="http://www.w3.org/2000/svg"><defs
     id="defs16050" /><sodipodi:namedview
     id="namedview16048"
     pagecolor="#505050"
     bordercolor="#ffffff"
     borderopacity="1"
     inkscape:showpageshadow="0"
     inkscape:pageopacity="0"
     inkscape:pagecheckerboard="1"
     inkscape:deskcolor="#505050"
     showgrid="false"
     inkscape:zoom="0.42154733"
     inkscape:cx="124.54118"
     inkscape:cy="-21.349916"
     inkscape:window-width="1920"
     inkscape:window-height="1017"
     inkscape:window-x="-8"
     inkscape:window-y="-8"
     inkscape:window-maximized="1"
     inkscape:current-layer="Ebene_1" /><g
     id="g7981"
     transform="scale(0.9996739)"><g
       transform="matrix(2.3559559,0,0,2.3559559,-739.32539,-1490.8074)"
       id="layer1"><g
         transform="matrix(0,1.5459704,1.5459704,0,415.67057,649.33146)"
         id="g9277"><path
           id="path9279"
           style="fill:#e6000d;fill-opacity:1;fill-rule:nonzero;stroke:none"
           d="m 0,0 v -16.982 h -9.878 v -8.776 h 25.835 v 8.776 H 5.577 V 0 h 10.38 V 8.775 H -9.878 V 0 H 0"
           inkscape:connector-curvature="0" /></g><g
         transform="matrix(0,1.5459704,1.5459704,0,451.89266,657.95179)"
         id="g9281"><path
           id="path9283"
           style="fill:#e6000d;fill-opacity:1;fill-rule:nonzero;stroke:none"
           d="M 0,0 -10.032,6.111 0,12.035 V 0 M -15.455,2.707 10.38,-13.032 v 6.709 l -5.286,3.219 v 18.145 l 5.286,3.123 V 28.877 L -15.455,13.142 V 2.707"
           inkscape:connector-curvature="0" /></g><g
         transform="matrix(0,1.5459704,1.5459704,0,550.35088,651.36905)"
         id="g9285"><path
           id="path9287"
           style="fill:#e6000d;fill-opacity:1;fill-rule:nonzero;stroke:none"
           d="m 0,0 c -2.738,2.09 -6.749,1.807 -9.046,-2.207 -2.147,-3.74 -2.937,-10.879 -2.937,-15.34 0,-7.136 0.485,-11.73 1.153,-15.638 h 25.469 v 8.773 H -6.965 c -0.626,3.16 -0.64,6.369 -0.584,7.568 0.154,3.483 0.696,5.444 1.807,7.01 1.155,1.619 3.708,2.059 5.48,-0.041 1.321,-1.574 2.359,-4.765 1.27,-11.902 l 1.655,-1.008 11.976,13.494 V 2.656 L 4.259,-9.347 C 3.885,-6.463 2.732,-2.09 0,0"
           inkscape:connector-curvature="0" /></g><g
         transform="matrix(0,1.5459704,1.5459704,0,346.11736,647.86124)"
         id="g9289"><path
           id="path9291"
           style="fill:#e6000d;fill-opacity:1;fill-rule:nonzero;stroke:none"
           d="m 0,0 c -0.985,-5.067 -1.597,-9.373 -3.241,-9.373 -1.82,0 -2.289,3.482 -1.766,8.416 0.494,4.666 1.715,9.066 3.461,13.17 L -6.659,15.33 C -7.922,12.013 -9.54,5.177 -9.724,-1.03 c -0.197,-6.8 0.413,-18.281 7.289,-18.777 6.294,-0.453 7.798,8.516 9.166,14.397 1.335,5.736 1.818,11.113 3.804,11.113 1.396,0 2.486,-1.895 2.11,-6.908 C 12.194,-7.239 10.545,-12.373 8,-17.494 l 5.588,-3.403 c 2.22,5.68 4.003,13.129 4.114,19.84 C 17.835,6.922 16.548,15.931 9.714,16.135 4.011,16.302 2.019,10.394 0,0"
           inkscape:connector-curvature="0" /></g><g
         transform="matrix(0,1.5459704,1.5459704,0,594.18532,651.0413)"
         id="g9293"><path
           id="path9295"
           style="fill:#e6000d;fill-opacity:1;fill-rule:nonzero;stroke:none"
           d="m 0,0 c 1.242,-1.516 1.682,-3.731 1.672,-7.227 -0.009,-2.578 -0.483,-5.246 -0.976,-7.42 h -7.449 c -0.626,3.158 -0.635,6.424 -0.585,7.623 0.148,3.502 0.741,5.545 1.808,7.063 C -4.421,1.619 -1.759,2.146 0,0 m -8.834,7.67 c -2.115,-3.573 -2.937,-10.262 -2.937,-15.397 0,-7.139 0.485,-11.787 1.152,-15.695 h 25.47 v 8.775 H 5.52 c 0.453,2.713 0.716,6.112 0.694,9.053 C 6.153,1.586 4.466,6.922 1.822,9.351 -1.94,12.812 -6.483,11.65 -8.834,7.67"
           inkscape:connector-curvature="0" /></g></g><g
       id="g20296"
       transform="matrix(0.49382716,0,0,0.49382716,734.06647,0)"
       style="stroke:#000000;stroke-opacity:1"><path
         d="M 153.81,202.5 H 0 l 97.271,-95.447 z m -122,-13 H 131 L 94.539,127.947 Z"
         id="path20283"
         style="fill:#e6000d;fill-opacity:1;stroke:none;stroke-opacity:1" /><path
         d="M 447.126,0 402.2,47 h 54.589 L 376.604,189.5 H 325.165 L 216.165,0 H 60.116 l 117.546,202.5 h 143.743 11.237 36.646 12.116 142.26 L 640.142,0 Z M 185.147,189.5 82.693,13 h 125.952 l 101.522,176.5 z m 330.998,0 H 391.521 L 479.021,34 H 432.61 l 20.073,-21 h 164.984 z"
         id="path20285"
         style="fill:#e6000d;fill-opacity:1;stroke:none;stroke-opacity:1" /><path
         d="M 292.463,91.218 241.307,0 H 382.448 Z M 263.502,13 295.346,69.783 351.362,13 Z"
         id="path20287"
         style="fill:#e6000d;fill-opacity:1;stroke:none;stroke-opacity:1" /></g><path
       style="fill:#ffffff;fill-opacity:1;stroke:none;stroke-width:0.493827;stroke-opacity:1"
       d="m 749.77511,93.580247 h 48.98272 L 780.7524,63.183697 Z"
       id="path20743" /><path
       style="fill:#ffffff;fill-opacity:1;stroke:none;stroke-width:0.493827;stroke-opacity:1"
       d="m 988.95289,93.58025 h -61.54272 l 43.20988,-76.79013 h -22.91901 l 9.91259,-10.3703701 h 81.47357 z"
       id="path20822" /><path
       style="fill:#ffffff;fill-opacity:1;stroke:none;stroke-width:0.493827;stroke-opacity:1"
       d="M 825.49709,93.58025 774.90252,6.41975 h 62.19852 l 50.13432,87.1605 z"
       id="path20820" /><path
       style="fill:#ffffff;fill-opacity:1;stroke:none;stroke-width:0.493827;stroke-opacity:1"
       d="M 864.19091,6.4197519 879.91635,34.460742 907.57857,6.4197519 Z"
       id="path20747" /></g></svg>
