<?xml version="1.0" encoding="UTF-8" standalone="no"?>
<svg
   version="1.2"
   width="666.0611"
   height="100"
   xml:space="preserve"
   id="svg119754"
   sodipodi:docname="wonderswan.svg"
   inkscape:version="1.2.1 (9c6d41e410, 2022-07-14)"
   xmlns:inkscape="http://www.inkscape.org/namespaces/inkscape"
   xmlns:sodipodi="http://sodipodi.sourceforge.net/DTD/sodipodi-0.dtd"
   xmlns="http://www.w3.org/2000/svg"
   xmlns:svg="http://www.w3.org/2000/svg"><defs
     id="defs119758" /><sodipodi:namedview
     id="namedview119756"
     pagecolor="#505050"
     bordercolor="#ffffff"
     borderopacity="1"
     inkscape:showpageshadow="0"
     inkscape:pageopacity="0"
     inkscape:pagecheckerboard="1"
     inkscape:deskcolor="#505050"
     showgrid="false"
     inkscape:zoom="0.97982846"
     inkscape:cx="108.6925"
     inkscape:cy="4.0823472"
     inkscape:window-width="1920"
     inkscape:window-height="1017"
     inkscape:window-x="-8"
     inkscape:window-y="-8"
     inkscape:window-maximized="1"
     inkscape:current-layer="svg119754" /><g
     id="g120859"
     transform="scale(1.1748496)"><g
       fill="#6b6b6b"
       id="g119750">
        <path
   d="m 110.912,61.863 7.734,-32.427 7.789,-6.181 h 7.732 l -7.732,32.427 7.732,-4.627 6.208,-23.143 4.656,-4.657 h 10.895 l -7.761,32.427 7.761,-6.153 4.629,-20.093 6.237,-6.181 h 9.341 l -7.761,30.903 -9.313,7.705 z m 314.478,0 3.951,-18.513 7.026,-6.746 h 9.031 l -5.304,20.349 7.789,-4.629 1.974,-10.527 5.195,-5.193 h 10.837 l -5.307,20.349 7.339,-4.911 2.088,-8.692 6.772,-6.746 h 8.073 l -4.516,17.554 -10.583,7.705 z m -60.593,0 7.789,-7.705 h 33.416 c 0,0 2.877,0.848 4.516,-2.793 1.495,-3.389 -1.41,-3.389 -1.41,-3.389 h -15.522 c 0,0 -4.459,-1.017 -4.486,-6.491 -0.085,-13.461 10.979,-16.934 10.979,-16.934 H 432.7 l -6.489,6.436 h -17.104 c 0,0 -5.447,1.553 -5.562,6.097 -0.084,2.06 2.455,1.637 2.455,1.637 h 13.941 c 0,0 8.07,1.354 6.209,10.047 -2.429,11.431 -10.839,13.095 -10.839,13.095 z"
   id="path119746" />
        <path
   d="m 338.269,61.863 h 13.94 l 4.233,-16.029 c 0.509,-1.863 5.419,-3.979 4.121,-3.754 -1.271,0.226 4.459,-0.848 4.459,-0.848 0,0 1.806,0.508 2.709,1.75 0.933,1.213 -0.903,3.021 -1.157,4.432 -0.254,1.41 1.553,1.552 1.553,1.552 h 7.789 c 0,0 4.178,-1.552 5.307,-3.104 1.103,-1.579 2.482,-3.216 2.482,-4.599 0,-1.383 -3.076,-3.104 -3.076,-3.104 l -3.133,-1.524 h -23.283 c 0,0 -11.146,6.379 -12.443,7.705 -0.455,0.392 -3.501,17.523 -3.501,17.523 z M 175.313,44.168 c -1.072,1.24 -4.571,12.135 -3.81,13.912 0.79,1.723 5.108,3.781 5.108,3.781 h 22.69 c 0,0 10.583,-6.633 11.401,-7.563 0.79,-0.959 3.782,-11.543 3.782,-12.645 0,-1.101 -2.54,-5.052 -2.54,-5.052 h -26.529 c 0.002,0.003 -8.999,6.325 -10.102,7.567 z m 17.696,-2.512 h 6.971 c 0,0 -0.79,8.383 -2.539,10.752 -1.778,2.371 -5.701,4.432 -5.701,4.432 0,0 -4.402,0.452 -5.023,0 -0.649,-0.508 -0.17,-5.053 -0.17,-5.053 0,0 0.593,-4.909 1.411,-6.35 0.791,-1.41 5.051,-3.781 5.051,-3.781 z m 66.915,2.512 c -1.073,1.24 -4.572,12.135 -3.782,13.912 0.79,1.723 5.08,3.781 5.08,3.781 h 31.58 c 0,0 1.045,-5.022 2.344,-10.104 1.24,-4.771 2.709,-12.105 2.709,-12.645 0,-1.129 7.846,-11.033 7.846,-11.033 h -13.717 l -6.94,8.521 h -15.015 c 0.028,0.004 -8.975,6.326 -10.105,7.568 z m 17.695,-2.512 h 6.942 c 0,0 -0.764,8.383 -2.541,10.752 -1.723,2.371 -5.673,4.432 -5.673,4.432 0,0 -4.402,0.452 -5.052,0 -0.593,-0.508 -0.169,-5.053 -0.169,-5.053 0,0 0.593,-4.909 1.439,-6.35 0.792,-1.41 5.054,-3.781 5.054,-3.781 z m -66.518,20.207 7.168,-25.26 h 30.311 c 0,0 4.008,0.424 5.362,2.682 1.411,2.259 0.96,6.152 0.96,6.152 l -4.121,16.426 h -12.644 c 0,0 1.468,-8.043 2.879,-13.887 1.411,-5.842 -2.54,-6.32 -2.54,-6.32 h -7.563 l -4.346,15.154 c 0,0 -3.782,4.402 -5.362,5.053 z m 311.061,0 8.044,-25.26 h 30.311 c 0,0 3.979,0.424 5.392,2.682 1.412,2.259 0.96,6.152 0.96,6.152 l -4.263,16.426 H 548.75 c 0,0 2.313,-6.772 3.782,-12.646 1.411,-5.813 -2.062,-7.563 -2.062,-7.563 h -7.592 l -4.233,15.154 c 0,0 -3.498,4.403 -5.051,5.053 H 522.162 Z M 301.606,44.168 c -1.102,1.24 -4.543,12.135 -3.78,13.912 0.762,1.723 5.051,3.781 5.051,3.781 h 22.72 c 0,0 4.517,-2.822 7.874,-5.053 0,0 -19.305,0.143 -20.488,0 -0.536,-0.056 -0.339,-2.396 -0.282,-3.779 h 15.521 c 0,0 2.991,-0.649 7.45,-4.348 4.516,-3.695 5.08,-4.093 5.08,-7.028 0,-2.905 -2.541,-5.052 -2.541,-5.052 h -26.527 c 0.055,0.003 -8.975,6.325 -10.078,7.567 z m 17.726,-2.512 h 10.188 c 0,0 -1.129,3.867 -6.688,6.32 h -8.494 c -0.819,-2.199 1.186,-3.949 2.313,-4.91 1.185,-1.072 2.681,-1.41 2.681,-1.41 z m 186.405,20.207 c 0,0 4.29,-13.574 5.646,-17.922 0.677,-2.37 -0.902,-2.285 -3.896,-2.285 -2.994,0 -5.165,0.648 -9.313,7.563 -4.854,8.072 7.168,10.273 7.168,10.273 l -0.848,2.369 H 490.61 c 0,0 -7.593,0.312 -7.593,-8.832 0,-11.232 14.365,-16.427 14.365,-16.427 h 30.338 l -8.07,25.259 h -13.913 z"
   id="path119748" />
    </g><path
       fill="#ff0000"
       d="m 72.559,23.369 c 0.705,-0.028 1.439,-0.058 2.173,-0.058 15.805,0 29.352,15.324 30.367,23.113 0.112,0.819 0.169,1.553 0.226,2.174 C 105.127,27.32 71.966,0 45.325,0 24.778,0 15.184,8.297 12.022,17.667 c -4.741,11.825 1.496,28.646 16.059,40.61 1.552,1.242 3.076,2.398 4.656,3.473 -0.678,0.057 -1.411,0.057 -2.145,0.057 C 14.787,61.807 1.24,46.483 0.225,38.694 0.141,37.875 0.057,37.141 0,36.52 0.197,57.799 33.358,85.118 60,85.118 80.545,85.118 90.141,76.794 93.302,67.452 98.043,55.654 91.806,38.836 77.243,26.841 75.69,25.598 74.167,24.441 72.559,23.369 Z M 42.896,58.703 c -11.74,-9.625 -15.635,-23.765 -9.06,-31.808 6.632,-8.043 21.59,-7.112 33.612,2.259 11.91,9.256 16.481,23.368 10.386,31.778 2.483,-5.053 -0.282,-12.646 -6.83,-17.81 -7.026,-5.531 -15.86,-6.096 -19.755,-1.326 -3.923,4.771 -1.58,13.181 5.306,18.908 5.334,4.432 11.797,5.981 16.425,4.375 -7.816,4.15 -20.149,1.78 -30.084,-6.376 z"
       id="path119752" /></g></svg>
