<?xml version="1.0" encoding="UTF-8" standalone="no"?>
<!-- Created with Inkscape (http://www.inkscape.org/) -->

<svg
   id="svg2"
   xml:space="preserve"
   height="100"
   viewBox="0 0 204.87465 100.00002"
   width="204.87465"
   version="1.1"
   sodipodi:docname="alg.svg"
   inkscape:version="1.2.1 (9c6d41e410, 2022-07-14)"
   xmlns:inkscape="http://www.inkscape.org/namespaces/inkscape"
   xmlns:sodipodi="http://sodipodi.sourceforge.net/DTD/sodipodi-0.dtd"
   xmlns="http://www.w3.org/2000/svg"
   xmlns:svg="http://www.w3.org/2000/svg"
   xmlns:rdf="http://www.w3.org/1999/02/22-rdf-syntax-ns#"
   xmlns:cc="http://creativecommons.org/ns#"
   xmlns:dc="http://purl.org/dc/elements/1.1/"><sodipodi:namedview
     id="namedview770"
     pagecolor="#505050"
     bordercolor="#ffffff"
     borderopacity="1"
     inkscape:showpageshadow="0"
     inkscape:pageopacity="0"
     inkscape:pagecheckerboard="1"
     inkscape:deskcolor="#505050"
     showgrid="false"
     inkscape:zoom="1.2762011"
     inkscape:cx="179.83059"
     inkscape:cy="-13.320785"
     inkscape:window-width="1920"
     inkscape:window-height="1017"
     inkscape:window-x="-8"
     inkscape:window-y="-8"
     inkscape:window-maximized="1"
     inkscape:current-layer="svg2" /><metadata
     id="metadata8"><rdf:RDF><cc:Work
         rdf:about=""><dc:format>image/svg+xml</dc:format><dc:type
           rdf:resource="http://purl.org/dc/dcmitype/StillImage" /></cc:Work></rdf:RDF></metadata><defs
     id="defs6"><linearGradient
       id="linearGradient34"
       gradientUnits="userSpaceOnUse"
       gradientTransform="matrix(161.3916,0,0,161.3916,756.9282,-163.3486)"><stop
         id="stop36"
         stop-color="#ed3339"
         offset="0" /><stop
         id="stop38"
         stop-color="#ed3339"
         offset=".52248" /><stop
         id="stop40"
         stop-color="#fff"
         offset=".88763" /><stop
         id="stop42"
         stop-color="#fff"
         offset="1" /></linearGradient><linearGradient
       id="linearGradient58"
       gradientUnits="userSpaceOnUse"
       gradientTransform="matrix(166.709,0,0,166.709,751.6108,-161.0889)"><stop
         id="stop60"
         stop-color="#ed3339"
         offset="0" /><stop
         id="stop62"
         stop-color="#ed3339"
         offset=".52248" /><stop
         id="stop64"
         stop-color="#fff"
         offset=".88763" /><stop
         id="stop66"
         stop-color="#fff"
         offset="1" /></linearGradient><linearGradient
       id="linearGradient82"
       gradientUnits="userSpaceOnUse"
       gradientTransform="matrix(172.0249,0,0,172.0249,746.2949,-158.8272)"><stop
         id="stop84"
         stop-color="#ed3339"
         offset="0" /><stop
         id="stop86"
         stop-color="#ed3339"
         offset=".52248" /><stop
         id="stop88"
         stop-color="#fff"
         offset=".88763" /><stop
         id="stop90"
         stop-color="#fff"
         offset="1" /></linearGradient><linearGradient
       id="linearGradient106"
       gradientUnits="userSpaceOnUse"
       gradientTransform="matrix(177.3423,0,0,177.3423,740.9775,-156.5674)"><stop
         id="stop108"
         stop-color="#ed3339"
         offset="0" /><stop
         id="stop110"
         stop-color="#ed3339"
         offset=".52248" /><stop
         id="stop112"
         stop-color="#fff"
         offset=".88763" /><stop
         id="stop114"
         stop-color="#fff"
         offset="1" /></linearGradient><linearGradient
       id="linearGradient130"
       gradientUnits="userSpaceOnUse"
       gradientTransform="matrix(179.5269,0,0,179.5269,738.793,-154.3115)"><stop
         id="stop132"
         stop-color="#ed3339"
         offset="0" /><stop
         id="stop134"
         stop-color="#ed3339"
         offset=".52248" /><stop
         id="stop136"
         stop-color="#fff"
         offset=".88763" /><stop
         id="stop138"
         stop-color="#fff"
         offset="1" /></linearGradient></defs><g
     id="g10"
     transform="matrix(0.8924324,0,0,-0.89243243,-615.93737,-70.759895)"
     inkscape:label="ALG"><g
       id="g716"
       style="display:inline;stroke:#000000;stroke-width:1.2;stroke-dasharray:none;stroke-opacity:1;paint-order:markers stroke fill"><path
         id="path18"
         d="m 725.4644,-168.1444 -11.29932,8.98437 h 15.92822 l 8.71289,15.65625 v -15.65625 h 24.77735 V -81.286 L 691.2935,-190.7421 h 21.10156 l 13.06934,22.59766 z"
         fill="#ffffff"
         style="display:inline;stroke:#000000;stroke-width:1.2;stroke-dasharray:none;stroke-opacity:1;paint-order:markers stroke fill" /><path
         id="path20"
         d="m 739.4468,-171.0038 4.80517,-14.29296 h 19.33155 v 14.29296 z"
         fill="#ffffff"
         style="display:inline;stroke:#000000;stroke-width:1.2;stroke-dasharray:none;stroke-opacity:1;paint-order:markers stroke fill" /></g><g
       id="g22"
       transform="matrix(1,0,0,-1,0,-323.8036)"><g
         id="g24"><g
           id="g30"><g
             id="g32"><path
               id="path44"
               d="m 918.3198,-163.0215 v -0.66407 l -157.9282,-0.40429 -3.46338,1.48144 161.3916,-0.41308 z"
               fill="url(#linearGradient34)"
               style="fill:url(#linearGradient34)" /></g></g></g></g><g
       id="g46"
       transform="matrix(1,0,0,-1,0,-323.8036)"><g
         id="g48"><g
           id="g54"><g
             id="g56"><path
               id="path68"
               d="m 918.3198,-160.7607 v -0.66406 l -163.1812,-0.41797 -3.52783,1.50879 166.709,-0.42676 z"
               fill="url(#linearGradient58)"
               style="fill:url(#linearGradient58)" /></g></g></g></g><g
       id="g70"
       transform="matrix(1,0,0,-1,0,-323.8036)"><g
         id="g72"><g
           id="g78"><g
             id="g80"><path
               id="path92"
               d="m 918.3198,-158.501 v -0.66406 l -168.435,-0.43066 -3.58985,1.53613 172.0249,-0.44141 z"
               fill="url(#linearGradient82)"
               style="fill:url(#linearGradient82)" /></g></g></g></g><g
       id="g94"
       transform="matrix(1,0,0,-1,0,-323.8036)"><g
         id="g96"><g
           id="g102"><g
             id="g104"><path
               id="path116"
               d="m 918.3198,-156.2402 v -0.66407 l -173.6894,-0.44433 -3.65283,1.5625 177.3423,-0.4541 z"
               fill="url(#linearGradient106)"
               style="fill:url(#linearGradient106)" /></g></g></g></g><g
       id="g118"
       transform="matrix(1,0,0,-1,0,-323.8036)"><g
         id="g120"><g
           id="g126"><g
             id="g128"><path
               id="path140"
               d="m 739.2373,-153.5205 179.0825,-0.45898 v -0.66406 c 0,0 -178.9424,-0.45801 -178.9424,-0.45801 l -0.58447,0.25 0.44433,1.33105 z"
               fill="url(#linearGradient130)"
               style="fill:url(#linearGradient130)" /></g></g></g></g><g
       fill="#ffffff"
       id="g766"
       style="display:inline;stroke:#000000;stroke-width:1.2;stroke-dasharray:none;stroke-opacity:1;paint-order:markers stroke fill"><path
         id="path204"
         d="m 776.1265,-136.4999 v -20.88281 h -7.0625 v 36.25 h 9.53907 l 3.02295,-16.69238 3.1665,16.69238 h 8.83398 v -36.25 h -7.125 v 20.88281 l -3.54199,-20.88281 h -3.16699 z"
         style="stroke:#000000;stroke-width:1.2;stroke-dasharray:none;stroke-opacity:1;paint-order:markers stroke fill" /><path
         id="path206"
         d="m 796.9927,-157.3827 v 36.25 h 12.5 v -5.3125 h -4.6875 v -8.625 h 4.354 v -5.375 h -4.354 v -11.72852 h 4.6875 v -5.20898 z"
         style="stroke:#000000;stroke-width:1.2;stroke-dasharray:none;stroke-opacity:1;paint-order:markers stroke fill" /><path
         id="path208"
         d="m 823.0972,-133.7391 v 5.34864 c 0,0.96972 -0.11621,1.56347 -0.34766,1.7832 -0.23242,0.21875 -0.7041,0.3291 -1.41504,0.3291 h -0.76855 v -9.99512 c 0.0986,0 0.23926,-0.009 0.42187,-0.0244 0.18164,-0.0156 0.3125,-0.0225 0.39649,-0.0225 0.66113,0 1.11328,0.10547 1.35254,0.31738 0.23925,0.21094 0.36035,0.61328 0.36035,1.20703 v 1.05664 z m -10.43262,-23.64355 v 36.25 h 8.95606 c 3.89062,0 6.37011,-0.43164 7.43945,-1.29395 1.06933,-0.8623 1.60449,-2.92382 1.60449,-6.18359 v -3.76758 c 0,-2.63281 -0.26465,-4.39258 -0.79199,-5.2793 -0.52832,-0.88671 -2.86328,-1.57031 -4.2461,-2.0498 1.3379,-0.37695 3.66211,-0.99707 4.2129,-1.86035 0.5498,-0.86328 0.82519,-2.20215 0.82519,-4.01465 v -11.80078 h -7.56738 v 12.45508 c 0,0.75586 -0.125,1.26562 -0.375,1.52734 -0.25,0.26172 -1.02832,0.39258 -1.71973,0.39258 h -0.46289 v -14.375 z"
         style="stroke:#000000;stroke-width:1.2;stroke-dasharray:none;stroke-opacity:1;paint-order:markers stroke fill" /><path
         id="path210"
         d="m 834.6265,-157.3827 v 36.25 h 7.8125 v -36.25 z"
         style="stroke:#000000;stroke-width:1.2;stroke-dasharray:none;stroke-opacity:1;paint-order:markers stroke fill" /><path
         id="path212"
         d="m 845.7925,-128.4569 c 0,3.37695 0.49805,5.47363 1.49609,6.28906 0.99707,0.81446 3.9834,1.72266 7.95899,1.72266 4.06445,0 6.08789,-0.9375 7.07031,-1.81055 0.98242,-0.87305 1.47461,-2.94043 1.47461,-6.20117 v -5.05078 h -7.875 v 4.83203 c 0,0.69922 -0.0889,1.17285 -0.26465,1.4209 -0.17676,0.24805 -0.88281,0.37207 -1.36816,0.37207 -0.36719,0 -0.625,-0.10938 -0.77149,-0.32813 -0.14746,-0.21875 -0.2207,-0.70703 -0.2207,-1.46484 v -21.12793 c 0,-0.66797 0.084,-1.14062 0.25391,-1.41602 0.16894,-0.27539 0.45898,-0.41308 0.87109,-0.41308 0.35254,0 1.00293,0.10449 1.20215,0.31543 0.19824,0.20996 0.29785,0.5039 0.29785,0.88183 v 0.63086 7.85938 h 7.875 v -8.07617 c 0,-3.33985 -0.50684,-5.44336 -1.51855,-6.31055 -1.0127,-0.86719 -2.99414,-1.81348 -6.96875,-1.81348 -4.01954,0 -7.03711,0.95703 -8.02735,1.84668 -0.99023,0.88867 -1.48535,2.98145 -1.48535,6.27735 z"
         style="stroke:#000000;stroke-width:1.2;stroke-dasharray:none;stroke-opacity:1;paint-order:markers stroke fill" /><path
         id="path214"
         d="m 874.3208,-144.3827 h 2.47168 c 0,0 -1.22461,13.99414 -1.22461,13.99414 0,0 -1.24707,-13.99414 -1.24707,-13.99414 z m -9.34375,-13 5.98242,36.25 h 9.5 l 4.2461,-36.25 h -6.7461 l -0.79785,6.39062 h -4.03516 c 0,0 -0.5957,-6.39062 -0.5957,-6.39062 z"
         style="stroke:#000000;stroke-width:1.2;stroke-dasharray:none;stroke-opacity:1;paint-order:markers stroke fill" /><path
         id="path216"
         d="m 886.4038,-157.3827 v 36.25 h 7.28515 l 3.90235,-14.85938 v 14.85938 h 6.8125 v -36.25 h -6.27735 l -4.97265,17.76562 v -17.76562 z"
         style="stroke:#000000;stroke-width:1.2;stroke-dasharray:none;stroke-opacity:1;paint-order:markers stroke fill" /><path
         id="path218"
         d="m 907.5825,-125.2362 v 3 h -1.24219 v 0.64844 h 3.34375 v -0.64844 h -1.23437 v -3 z"
         style="stroke:#000000;stroke-width:1.2;stroke-dasharray:none;stroke-opacity:1;paint-order:markers stroke fill" /><path
         id="path220"
         d="m 910.186,-125.2362 v 3.64844 h 1.27734 l 0.83301,-2.77637 0.82324,2.77637 h 1.28516 v -3.64844 h -0.8125 v 2.94239 l -0.85157,-2.94239 h -0.88281 l -0.85937,2.94239 v -2.94239 z"
         style="stroke:#000000;stroke-width:1.2;stroke-dasharray:none;stroke-opacity:1;paint-order:markers stroke fill" /><path
         id="path222"
         d="m 770.7983,-185.4589 v 10.65429 h -1.25781 l -4.9e-4,-11.91211 h 8.58203 v 1.25782 z"
         style="stroke:#000000;stroke-width:1.2;stroke-dasharray:none;stroke-opacity:1;paint-order:markers stroke fill" /><path
         id="path224"
         d="m 814.7436,-176.0624 v 1.25781 h -9.24804 v -11.91211 h 9.24804 v 1.25782 h -7.98974 v 4.12988 h 7.70507 v 1.25781 h -7.70507 v 4.00879 z"
         style="stroke:#000000;stroke-width:1.2;stroke-dasharray:none;stroke-opacity:1;paint-order:markers stroke fill" /><path
         id="path226"
         d="m 890.5327,-176.0624 v 1.25781 h -9.24804 v -11.91211 h 9.24804 v 1.25782 h -7.99023 v 4.12988 h 7.70508 v 1.25781 h -7.70508 v 4.00879 z"
         style="stroke:#000000;stroke-width:1.2;stroke-dasharray:none;stroke-opacity:1;paint-order:markers stroke fill" /><path
         id="path228"
         d="m 824.6235,-180.8319 c -0.0537,0 -4.42383,0.005 -6.625,0 v 4.7793 c 2.12988,0.0195 6.29394,0.0557 6.625,0.0557 0.81542,0 1.47558,-0.52637 1.47558,-1.17676 v -2.13281 c 0,-0.64941 -0.66016,-1.52539 -1.47558,-1.52539 z m 0.92773,-0.70898 c 1.05176,0.30371 1.80566,1.10253 1.80566,2.04589 v 2.51075 c 0,1.20312 -1.22363,2.17968 -2.73339,2.17968 h -7.88282 v -11.91211 h 1.25782 v 4.625 h 6.69824 c 0.81543,0 1.47558,-1.04687 1.47558,-1.69726 v -2.92774 h 1.25782 v 3.11622 c 0,0.96386 -0.79102,1.77246 -1.87891,2.05957 z"
         style="stroke:#000000;stroke-width:1.2;stroke-dasharray:none;stroke-opacity:1;paint-order:markers stroke fill" /><path
         id="path230"
         d="m 781.5923,-182.9842 3.20605,6.82812 c 0,0 3.20557,-6.82812 3.20557,-6.82812 z m 3.96044,8.17968 h -1.50927 l -5.59326,-11.91211 h 1.38964 l 1.16211,2.47461 h 7.59229 l 1.16211,-2.47461 h 1.38965 z"
         style="stroke:#000000;stroke-width:1.2;stroke-dasharray:none;stroke-opacity:1;paint-order:markers stroke fill" /><path
         id="path232"
         d="m 852.0405,-182.9842 3.20605,6.82812 c 0,0 3.20606,-6.82812 3.20606,-6.82812 z m 3.96093,8.17968 h -1.50976 l -5.59375,-11.91211 h 1.39062 l 1.16211,2.47461 h 7.5918 l 1.16211,-2.47461 h 1.38965 z"
         style="stroke:#000000;stroke-width:1.2;stroke-dasharray:none;stroke-opacity:1;paint-order:markers stroke fill" /><path
         id="path234"
         d="m 803.2451,-178.2313 v 1.24707 c 0,1.20312 -1.22364,2.17968 -2.7334,2.17968 h -0.40674 -4.88281 c -1.50977,0 -2.7334,-0.97656 -2.7334,-2.17968 v -2.30957 c 0,-1.20411 1.22363,-2.17969 2.7334,-2.17969 h 5.28955 c 0.81543,0 1.47558,-0.52637 1.47558,-1.17676 v -1.63086 c 0,-0.65039 -0.66015,-1.17773 -1.47558,-1.17773 h -5.28955 c -0.81543,0 -1.47559,0.52734 -1.47559,1.17773 v 1.29688 h -1.25781 v -1.55274 c 0,-1.20312 1.22363,-2.17969 2.7334,-2.17969 h 0.39306 4.89649 c 1.50976,0 2.7334,0.97657 2.7334,2.17969 v 2.1416 c 0,1.2041 -1.22364,2.17969 -2.7334,2.17969 h -5.28955 c -0.81543,0 -1.47559,0.52637 -1.47559,1.17676 v 1.79883 c 0,0.65039 0.66016,1.17773 1.47559,1.17773 h 5.28955 c 0.81543,0 1.47558,-0.52734 1.47558,-1.17773 v -0.99121 z"
         style="stroke:#000000;stroke-width:1.2;stroke-dasharray:none;stroke-opacity:1;paint-order:markers stroke fill" /><path
         id="path236"
         d="m 902.3003,-178.2313 v 1.24707 c 0,1.20312 -1.22363,2.17968 -2.7334,2.17968 h -0.40722 -4.88281 c -1.50977,0 -2.73243,-0.97656 -2.73243,-2.17968 v -2.30957 c 0,-1.20411 1.22266,-2.17969 2.73243,-2.17969 h 5.29003 c 0.81543,0 1.47559,-0.52637 1.47559,-1.17676 v -1.63086 c 0,-0.65039 -0.66016,-1.17773 -1.47559,-1.17773 h -5.29003 c -0.81446,0 -1.47461,0.52734 -1.47461,1.17773 v 1.29688 h -1.25782 v -1.55274 c 0,-1.20312 1.22266,-2.17969 2.73243,-2.17969 h 0.39355 4.89648 c 1.50977,0 2.7334,0.97657 2.7334,2.17969 v 2.1416 c 0,1.2041 -1.22363,2.17969 -2.7334,2.17969 h -5.29003 c -0.81446,0 -1.47461,0.52637 -1.47461,1.17676 v 1.79883 c 0,0.65039 0.66015,1.17773 1.47461,1.17773 h 5.29003 c 0.81543,0 1.47559,-0.52734 1.47559,-1.17773 v -0.99121 z"
         style="stroke:#000000;stroke-width:1.2;stroke-dasharray:none;stroke-opacity:1;paint-order:markers stroke fill" /><path
         id="path238"
         d="m 847.4692,-178.2313 v 1.24707 c 0,1.20312 -1.22363,2.17968 -2.7334,2.17968 h -6.14551 c -1.50976,0 -2.7334,-0.97656 -2.7334,-2.17968 v -7.55274 c 0,-1.20312 1.22364,-2.17969 2.7334,-2.17969 h 6.14551 c 1.50977,0 2.7334,0.97657 2.7334,2.17969 v 3.70508 h -6.1084 v -1.25781 h 4.85059 v -2.19141 c 0,-0.65039 -0.66016,-1.17773 -1.47559,-1.17773 h -6.14551 c -0.81543,0 -1.47558,0.52734 -1.47558,1.17773 v 7.04102 c 0,0.65039 0.66015,1.17773 1.47558,1.17773 h 6.14551 c 0.81543,0 1.47559,-0.52734 1.47559,-1.17773 v -0.99121 z"
         style="stroke:#000000;stroke-width:1.2;stroke-dasharray:none;stroke-opacity:1;paint-order:markers stroke fill" /><path
         id="path240"
         d="m 876.1314,-174.8046 -5.66211,-10.25195 -5.66211,10.25195 h -1.92285 v -11.8789 h 1.25781 v 10.48242 l 5.80664,-10.51563 h 1.04102 l 5.80664,10.51563 v -10.48242 h 1.25781 v 11.8789 z"
         style="stroke:#000000;stroke-width:1.2;stroke-dasharray:none;stroke-opacity:1;paint-order:markers stroke fill" /><path
         id="path242"
         d="m 918.5972,-185.4999 v -0.73242 c 0,-0.28516 -0.28809,-0.51465 -0.64453,-0.51465 h -1.66602 c -0.35644,0 -0.64453,0.22949 -0.64453,0.51465 v 3.07617 c 0,0.28418 0.28809,0.51465 0.64453,0.51465 h 1.66602 c 0.35644,0 0.64453,-0.23047 0.64453,-0.51465 v -0.43359 h 0.5498 v 0.54492 c 0,0.52637 -0.53515,0.95312 -1.19433,0.95312 h -1.66602 c -0.66016,0 -1.19433,-0.42675 -1.19433,-0.95312 v -3.29981 c 0,-0.52539 0.53417,-0.95214 1.19433,-0.95214 h 1.66602 c 0.65918,0 1.19433,0.42675 1.19433,0.95214 v 0.84473 z"
         style="stroke:#000000;stroke-width:1.2;stroke-dasharray:none;stroke-opacity:1;paint-order:markers stroke fill" /><path
         id="path244"
         d="m 908.6304,-187.2968 h -0.5498 v 5.20507 h 0.5498 z"
         style="stroke:#000000;stroke-width:1.2;stroke-dasharray:none;stroke-opacity:1;paint-order:markers stroke fill" /><path
         id="path246"
         d="m 913.6206,-182.0917 v -4.72949 l -2.95118,4.72949 h -0.9873 v -5.20507 h 0.5498 v 4.86718 c 0,0 3.03809,-4.86718 3.03809,-4.86718 h 0.90039 v 5.20507 z"
         style="stroke:#000000;stroke-width:1.2;stroke-dasharray:none;stroke-opacity:1;paint-order:markers stroke fill" /><path
         id="path248"
         d="m 904.6206,-185.3954 h -1.33887 v -1.60254 h 0.7959 c 0.0283,-0.0537 0.0449,-0.11328 0.0449,-0.17578 v -0.71289 c 0,-0.25683 -0.26074,-0.46484 -0.58399,-0.46484 h -0.33984 c 0,0 -0.34375,-0.49805 -0.34375,-0.49805 h 0.68359 c 0.59766,0 1.08204,0.38574 1.08204,0.86328 v 2.59082 z"
         style="stroke:#000000;stroke-width:1.2;stroke-dasharray:none;stroke-opacity:1;paint-order:markers stroke fill" /></g></g></svg>
