<?xml version="1.0" encoding="UTF-8" standalone="no"?>
<svg
   viewBox="0 0 561.182 100"
   version="1.1"
   id="svg36698"
   sodipodi:docname="fds.svg"
   width="561.18201"
   height="100"
   inkscape:version="1.2.1 (9c6d41e410, 2022-07-14)"
   xmlns:inkscape="http://www.inkscape.org/namespaces/inkscape"
   xmlns:sodipodi="http://sodipodi.sourceforge.net/DTD/sodipodi-0.dtd"
   xmlns="http://www.w3.org/2000/svg"
   xmlns:svg="http://www.w3.org/2000/svg">
  <defs
     id="defs36702" />
  <sodipodi:namedview
     id="namedview36700"
     pagecolor="#505050"
     bordercolor="#ffffff"
     borderopacity="1"
     inkscape:showpageshadow="0"
     inkscape:pageopacity="0"
     inkscape:pagecheckerboard="1"
     inkscape:deskcolor="#505050"
     showgrid="false"
     inkscape:zoom="1.9142631"
     inkscape:cx="290.19"
     inkscape:cy="51.71703"
     inkscape:window-width="1920"
     inkscape:window-height="1017"
     inkscape:window-x="-8"
     inkscape:window-y="-8"
     inkscape:window-maximized="1"
     inkscape:current-layer="svg36698" />
  <g
     id="g37804"
     transform="matrix(0.96684662,0,0,0.96684662,4.0615269e-4,0.0058222)">
    <path
       d="M 561.867,103.421 V 55.246 c 0,-0.243 0.005,-0.487 -10e-4,-0.73 -0.013,-0.495 -0.21,-1.077 -0.609,-1.16 -0.453,-0.094 -0.952,-0.651 -1.502,-0.076 -0.224,0.234 -0.748,0.128 -0.808,0.622 -0.624,0.351 -0.486,0.951 -0.486,1.502 l -10e-4,46.472 c 0,0.324 -0.012,0.649 0.004,0.973 0.013,0.268 -0.102,0.358 -0.354,0.332 -0.12,-0.013 -0.243,-0.002 -0.365,-0.002 -5.596,0 -11.192,0.001 -16.788,-0.001 -0.74,0 -0.746,-0.005 -0.746,-0.784 L 540.21,77.577 c 0,-7.624 10e-4,-15.247 -0.005,-22.871 0,-0.308 0.029,-0.703 -0.139,-0.904 a 3.842,3.842 0 0 0 -1.181,-0.938 c -0.223,-0.114 -0.608,-0.002 -0.885,0.101 -0.812,0.302 -1.218,0.908 -1.198,1.786 0.005,0.203 10e-4,0.406 10e-4,0.608 v 46.472 c 0,1.103 -10e-4,1.105 -1.034,1.105 h -15.693 c -0.203,0 -0.409,-0.023 -0.608,0.005 -0.421,0.058 -0.46,-0.176 -0.432,-0.5 0.018,-0.201 0.003,-0.405 0.003,-0.608 v -65.45 c 0,-0.162 -0.002,-0.324 0,-0.487 0.007,-0.595 0.008,-0.605 0.56,-0.605 8.029,-0.002 16.058,-0.011 24.087,0.013 0.832,0.002 1.629,0.322 2.407,0.635 1.22,0.491 2.396,1.04 3.288,2.061 0.142,0.162 0.389,0.228 0.578,0.353 0.235,0.155 0.536,0.506 0.673,0.448 0.245,-0.103 0.397,-0.435 0.566,-0.698 0.398,-0.622 1.072,-0.99 1.722,-1.36 1.396,-0.796 2.862,-1.232 4.488,-1.22 4.177,0.031 8.354,0.021 12.53,0.005 1.488,-0.006 2.895,0.397 4.284,0.828 1.556,0.483 2.855,1.662 4.084,3.044 0.93,1.046 1.222,2.34 1.771,3.536 0.092,0.201 0.011,0.476 0.04,0.714 0.052,0.418 -0.186,0.888 0.224,1.248 0.041,0.036 0.048,0.186 0.01,0.228 -0.477,0.525 -0.224,1.158 -0.225,1.729 -0.016,18.856 -0.013,37.712 -0.013,56.568 -6.079,-0.002 -12.162,-0.002 -18.246,-0.002 z m -38.933,-34.287 10e-4,29.679 c 0,0.706 0.006,0.712 0.695,0.713 3,0.003 6.001,0.003 9.001,-0.002 0.397,-0.001 0.941,0.11 1.15,-0.099 0.209,-0.208 0.1,-0.752 0.1,-1.149 0.003,-14.84 0.004,-29.68 10e-4,-44.519 0,-1.507 0.781,-2.564 1.949,-3.377 1.353,-0.942 2.919,-0.727 4.438,-0.735 1.239,0.566 2.316,1.379 2.826,2.643 0.352,0.871 0.54,1.829 0.539,2.825 -0.023,14.394 -0.016,28.788 -0.016,43.181 0,0.243 0.035,0.493 -0.007,0.728 -0.087,0.484 0.153,0.515 0.548,0.514 3.527,-0.014 7.055,-0.006 10.582,-0.009 0.549,-0.001 0.556,-0.01 0.556,-0.607 0.002,-5.19 10e-4,-10.38 10e-4,-15.569 0,-9.731 -10e-4,-19.462 0.003,-29.193 0,-0.354 -0.042,-0.747 0.092,-1.055 0.475,-1.096 1.246,-1.935 2.281,-2.574 0.837,-0.516 1.775,-0.503 2.661,-0.605 1.415,-0.162 2.714,0.247 3.637,1.457 0.098,0.128 0.239,0.222 0.339,0.348 0.093,0.118 0.193,0.249 0.228,0.39 0.22,0.895 0.507,1.762 0.506,2.716 -0.02,14.475 -0.013,28.95 -0.013,43.425 0,0.243 0.022,0.489 -0.005,0.729 -0.045,0.4 0.034,0.566 0.511,0.554 1.58,-0.04 3.162,-0.015 4.743,-0.015 2.068,0 4.136,-0.008 6.203,0.008 0.357,0.003 0.517,-0.078 0.476,-0.461 -0.03,-0.281 -0.006,-0.567 -0.006,-0.851 V 69.153 c 0,-8.109 -10e-4,-16.218 0.001,-24.328 0,-0.742 -0.182,-1.425 -0.465,-2.119 -0.47,-1.153 -1.151,-2.103 -2.246,-2.689 -0.762,-0.408 -1.532,-0.84 -2.45,-0.839 -5.23,0.006 -10.461,0.001 -15.691,0.009 -0.301,0.001 -0.594,0.079 -0.898,0.163 -1.807,0.5 -3.189,1.602 -4.348,2.982 -0.391,0.465 -0.912,0.956 -0.918,1.679 -10e-4,0.094 -0.097,0.186 -0.15,0.279 -0.11,-0.076 -0.269,-0.127 -0.323,-0.232 -0.698,-1.361 -1.464,-2.625 -2.713,-3.616 -1.501,-1.19 -3.089,-1.984 -5.023,-1.991 -1.784,-0.007 -3.572,0.07 -5.351,-0.021 -1.808,-0.093 -3.573,0.324 -5.374,0.278 -2.31,-0.059 -4.622,-0.014 -6.933,-0.014 -0.284,0 -0.571,-0.024 -0.85,0.013 -0.105,0.014 -0.262,0.162 -0.273,0.262 -0.035,0.321 -0.013,0.647 -0.013,0.972 -0.002,9.731 -0.002,19.462 -0.002,29.193 z M 57.372,0.005 c 11.802,0 23.603,-0.02 35.404,0.018 2.13,0.007 4.065,0.824 5.899,1.9 1.323,0.776 2.396,1.828 3.389,2.951 a 11.55,11.55 0 0 1 2.335,4.134 c 0.49,1.52 0.75,3.071 0.746,4.684 -0.023,9.206 -0.007,18.412 -0.019,27.618 -0.001,0.724 0.147,1.169 0.873,1.597 1.645,0.97 3.037,2.311 4.281,3.758 1.42,1.651 2.358,3.62 3.369,5.533 0.162,1.133 0.581,2.202 0.783,3.338 0.3,1.685 0.178,3.351 0.16,5.018 -0.013,1.248 -0.404,2.475 -0.802,3.67 -0.54,1.624 -1.253,3.139 -2.298,4.531 -1.236,1.645 -2.075,2.605 -3.608,3.841 -0.755,0.609 -1.436,1.287 -2.37,1.639 -0.24,0.09 -0.395,0.333 -0.391,0.676 0.022,2.068 0.018,4.137 0.003,6.205 -0.002,0.314 0.148,0.334 0.388,0.444 a 11.507,11.507 0 0 1 2.856,1.895 c 1.331,1.195 2.233,2.711 2.857,4.401 0.533,1.445 0.49,2.932 0.478,4.425 -0.003,0.446 0.038,0.897 -0.012,1.337 -0.046,0.411 -0.181,0.813 -0.287,1.216 -0.171,0.655 -0.64,1.204 -0.687,1.905 -0.63,0.494 -0.777,1.317 -1.358,1.882 -1.85,1.796 -1.935,2.157 -4.662,3.405 -0.485,0.222 -0.994,0.339 -1.525,0.441 -2.112,0.406 -4.235,0.169 -6.352,0.212 -2.108,0.043 -4.218,0.009 -6.326,0.009 H 68.11 c -0.284,0 -0.571,0.027 -0.851,-0.007 -0.341,-0.041 -0.57,-0.22 -0.572,-0.611 -0.006,-1.766 -0.603,-3.35 -1.45,-4.875 -0.92,-1.656 -2.26,-2.838 -3.881,-3.774 -0.454,-0.262 -1.027,-0.033 -1.391,-0.467 -2.064,-0.397 -4.101,-0.384 -6.118,0.303 -2.004,0.682 -4.03,2.68 -4.915,4.821 -0.51,1.232 -0.992,2.48 -0.985,3.852 0.003,0.585 -0.177,0.736 -0.79,0.756 -0.243,0.008 -0.487,10e-4 -0.73,10e-4 -10.99,0 -21.981,0.01 -32.971,-0.008 -2.554,-0.004 -4.75,-0.946 -6.728,-2.584 C 6.023,99.511 5.44,98.85 4.904,98.163 4.068,97.092 3.554,95.819 3.18,94.506 2.734,92.938 2.812,91.308 2.988,89.747 3.177,88.071 3.766,86.439 4.861,85.063 6.498,83.006 7.048,82.761 9.223,81.536 9.44,81.414 9.507,81.344 9.507,81.13 9.504,79.062 9.497,76.993 9.512,74.925 9.515,74.543 9.355,74.358 9.028,74.211 7.808,73.664 6.837,72.761 5.857,71.89 4.56,70.737 3.504,69.382 2.556,67.916 1.743,66.659 1.201,65.31 0.755,63.912 0.297,62.474 -0.064,61.009 0.009,59.473 0.043,58.745 -0.008,58.012 0.019,57.283 0.098,55.197 0.596,53.215 1.467,51.314 2.216,49.68 3.14,48.139 4.271,46.768 5.532,45.24 7.004,43.872 8.721,42.853 9.341,42.485 9.513,42.095 9.512,41.444 9.5,31.995 9.506,22.545 9.502,13.096 9.501,11.613 9.836,10.191 10.318,8.809 10.946,7.009 11.97,5.459 13.305,4.077 14.594,2.742 16.106,1.779 17.745,0.971 18.498,0.6 19.34,0.521 20.119,0.239 20.96,-0.066 21.83,0 22.696,0 34.255,0.005 45.813,0.005 57.372,0.005 Z M 57.319,4.629 C 45.64,4.629 33.961,4.631 22.282,4.625 21.143,4.624 20.083,4.942 19.08,5.415 18.038,5.907 17.225,6.721 16.434,7.55 c -1.47,1.541 -2.273,3.41 -2.283,5.494 -0.05,10.341 -0.023,20.683 -0.023,31.024 0,0.284 -0.013,0.569 0.004,0.851 0.015,0.257 -0.128,0.267 -0.33,0.363 -1.339,0.636 -2.664,1.332 -3.788,2.297 -1.943,1.668 -3.569,3.614 -4.562,6.009 a 10.58,10.58 0 0 0 -0.79,3.193 c -0.1,1.249 -0.025,2.513 -0.021,3.77 0.001,0.154 0.001,0.323 0.059,0.461 0.38,0.904 0.489,1.885 0.877,2.8 0.346,0.816 0.827,1.532 1.283,2.264 0.701,1.126 1.731,1.978 2.651,2.92 0.465,0.476 1.066,0.755 1.592,1.137 0.81,0.589 1.739,0.908 2.615,1.341 0.274,0.135 0.427,0.204 0.421,0.552 -0.025,1.338 -0.01,2.676 -0.01,4.015 0,2.798 -0.004,5.596 0.006,8.395 10e-4,0.33 -0.025,0.564 -0.438,0.491 -0.441,0.504 -1.094,0.166 -1.649,0.432 -0.789,0.379 -1.558,0.734 -2.282,1.253 -1.433,1.029 -2.027,2.46 -2.196,4.12 -0.069,0.684 0,1.379 -0.015,2.068 -0.017,0.753 0.408,1.378 0.614,2.062 0.136,0.451 0.565,0.835 0.921,1.191 0.356,0.356 0.766,0.666 1.184,0.95 1.038,0.703 2.136,1.094 3.451,1.088 9.692,-0.044 19.385,-0.024 29.077,-0.024 0.284,0 0.57,-0.024 0.851,0.006 0.319,0.034 0.357,-0.127 0.443,-0.389 0.185,-0.568 0.429,-1.121 0.696,-1.657 1.089,-2.182 2.47,-4.122 4.518,-5.534 2.198,-1.516 4.625,-2.323 7.28,-2.387 1.06,-0.025 2.114,-0.022 3.193,0.174 1.179,0.214 2.265,0.597 3.366,1.01 2.281,0.855 3.961,2.455 5.327,4.389 0.801,1.134 1.493,2.354 1.87,3.723 0.167,0.609 0.296,0.663 1.004,0.663 10.098,0.001 20.196,0.002 30.294,-0.005 0.302,0 0.602,-0.078 0.902,-0.149 0.786,-0.186 1.367,-0.66 1.99,-1.084 0.451,-0.306 0.979,-0.602 1.258,-1.039 0.941,-1.473 1.409,-2.27 1.294,-3.964 -0.055,-0.822 0.044,-1.642 -0.238,-2.458 -0.607,-1.752 -1.954,-3.042 -3.638,-3.75 -0.75,-0.315 -1.529,-0.412 -2.279,-0.659 -0.35,-0.116 -0.428,-0.193 -0.427,-0.523 0.01,-3.407 0.006,-6.813 0.006,-10.22 0,-0.73 0.023,-1.461 -0.01,-2.189 -0.016,-0.349 0.167,-0.401 0.415,-0.557 0.527,-0.33 1.176,-0.348 1.666,-0.68 1.597,-1.083 3.185,-2.189 4.434,-3.69 0.735,-0.883 1.424,-1.826 1.873,-2.873 0.664,-1.548 1.215,-3.151 1.118,-4.893 -0.038,-0.687 0.025,-1.38 -0.015,-2.067 -0.041,-0.699 -0.056,-1.422 -0.253,-2.084 -0.553,-1.86 -1.38,-3.632 -2.633,-5.101 -1.578,-1.851 -3.376,-3.517 -5.672,-4.477 -0.702,-0.293 -0.949,-0.622 -0.947,-1.416 0.036,-10.382 0.016,-20.764 0.039,-31.145 0.002,-0.722 -0.159,-1.399 -0.367,-2.047 C 99.701,9.562 99.076,8.195 97.861,7.202 97.674,7.049 97.519,6.856 97.342,6.689 95.944,5.364 94.267,4.641 92.358,4.637 80.678,4.617 68.998,4.629 57.319,4.629 Z m 340.3,60.229 c 0,9.486 0.013,18.973 -0.013,28.459 -0.005,1.576 -0.325,3.129 -1.109,4.52 -1.347,2.39 -3.344,4.021 -5.969,4.849 a 10.425,10.425 0 0 1 -3.202,0.505 c -8.554,-0.026 -17.108,-0.014 -25.662,-0.014 -0.203,0 -0.405,0.002 -0.608,0 -0.658,-0.008 -0.664,-0.008 -0.665,-0.621 -0.003,-1.986 -0.001,-3.973 -0.001,-5.959 0,-3.122 -10e-4,-6.243 0.001,-9.365 0,-0.589 0.007,-0.598 0.564,-0.599 3.851,-0.003 7.703,-0.002 11.554,-0.002 1.905,0 3.811,-0.005 5.716,0.005 0.295,0.002 0.432,-0.052 0.422,-0.392 -0.028,-0.889 -0.017,-1.779 -0.022,-2.669 -0.877,-0.036 -1.754,-0.098 -2.631,-0.102 -2.757,-0.013 -5.514,0.017 -8.27,-0.016 -1.062,-0.013 -2.153,-0.02 -3.176,-0.262 -1.592,-0.378 -3.082,-0.947 -4.349,-2.16 -1.408,-1.347 -2.037,-3.037 -2.694,-4.743 -0.23,-0.598 -0.266,-1.299 -0.267,-1.953 -0.015,-12.73 -0.011,-25.459 -0.011,-38.189 0,-0.162 0.019,-0.327 -0.004,-0.486 -0.052,-0.361 0.153,-0.398 0.43,-0.378 0.161,0.012 0.324,0.002 0.486,0.002 h 16.662 c 0.203,0 0.406,0.011 0.608,-0.003 0.285,-0.019 0.326,0.136 0.314,0.372 -0.015,0.283 -0.004,0.567 -0.004,0.851 v 28.824 c 0,0.243 0.01,0.487 -0.003,0.73 -0.013,0.231 0.022,0.382 0.31,0.376 1.007,-0.024 2.015,-0.033 3.022,-0.048 0.026,-0.922 0.073,-1.844 0.074,-2.765 0.006,-9.081 0.003,-18.162 0.003,-27.243 0,-0.243 0.013,-0.487 -0.004,-0.729 -0.016,-0.241 0.038,-0.386 0.319,-0.367 0.202,0.014 0.405,0.003 0.608,0.003 h 16.662 c 0.162,0 0.325,0.011 0.486,-0.002 0.285,-0.024 0.464,0.031 0.427,0.383 -0.029,0.281 -0.006,0.567 -0.006,0.851 0.002,9.445 0.002,18.891 0.002,28.337 z m -3.164,2.026 v -1.703 c 0,-8.514 0.001,-17.028 -10e-4,-25.542 0,-0.693 -0.007,-0.699 -0.708,-0.699 -3.527,-0.002 -7.055,-10e-4 -10.582,-10e-4 -0.122,0 -0.261,-0.037 -0.36,0.01 -0.11,0.053 -0.249,0.176 -0.26,0.281 -0.034,0.321 -0.012,0.647 -0.012,0.972 0,8.392 -0.005,16.785 0.008,25.177 10e-4,0.718 -0.156,1.34 -0.471,1.999 -0.795,1.659 -2.15,2.317 -3.869,2.465 -0.304,0.026 -0.637,-0.112 -0.894,0.212 -0.065,0.082 -0.378,0.095 -0.452,0.018 -0.336,-0.347 -0.748,-0.182 -1.127,-0.236 a 2.15,2.15 0 0 1 -0.539,-0.164 c -1.736,-0.754 -2.646,-2.025 -2.641,-3.974 0.021,-8.676 0.009,-17.353 0.008,-26.029 0,-0.722 -0.005,-0.728 -0.678,-0.729 -3.446,-0.003 -6.892,-0.001 -10.339,-0.001 -0.081,0 -0.163,0.007 -0.243,-10e-4 -0.287,-0.031 -0.461,0.034 -0.425,0.384 0.029,0.281 0.006,0.567 0.006,0.851 0,10.055 -0.01,20.11 0.012,30.164 0.003,1.263 -0.067,2.519 0.178,3.801 0.218,1.141 0.473,2.226 1.029,3.234 1.143,2.07 2.928,3.146 5.272,3.165 4.662,0.038 9.325,0.011 13.987,0.011 0.284,0 0.568,0.012 0.851,-0.003 0.271,-0.015 0.332,0.109 0.33,0.357 -0.009,1.581 -0.005,3.162 -0.005,4.743 0,0.122 0.039,0.26 -0.006,0.362 -0.384,0.871 -0.677,1.848 -1.463,2.419 -0.976,0.71 -2.015,1.374 -3.319,1.371 -4.257,-0.01 -8.514,-0.004 -12.771,-0.004 -0.284,0 -0.568,0.012 -0.851,-0.004 -0.271,-0.015 -0.331,0.108 -0.331,0.357 0.007,3 0.01,6 -0.004,9.001 -0.002,0.352 0.147,0.409 0.43,0.38 0.08,-0.008 0.162,-0.001 0.243,-0.001 8.19,0 16.379,0.001 24.569,-0.006 0.302,0 0.593,-0.069 0.9,-0.16 0.755,-0.222 1.375,-0.603 2.01,-1.039 1.483,-1.019 2.515,-2.819 2.515,-4.559 0.003,-8.959 0.003,-17.919 0.003,-26.879 z m -40.636,-9.865 v 11.314 c 0,0.284 0.025,0.571 -0.017,0.849 -0.01,0.069 -0.291,0.187 -0.356,0.144 -1.277,-0.844 -2.533,-1.718 -3.807,-2.566 -2.001,-1.333 -4.012,-2.649 -6.017,-3.976 -2.069,-1.369 -4.133,-2.746 -6.206,-4.109 A 27.487,27.487 0 0 0 335.76,57.68 c -0.309,-0.173 -0.451,-0.383 -0.442,-0.756 0.025,-1.054 0.014,-2.109 0.004,-3.163 -0.002,-0.23 -0.02,-0.475 -0.103,-0.686 -0.394,-1.001 -1.132,-1.276 -2.313,-0.888 -1.051,0.344 -1.222,0.564 -1.228,1.639 -0.007,1.338 0.02,2.677 -0.015,4.014 -0.01,0.378 0.105,0.66 0.398,0.798 1.462,0.688 2.661,1.788 4.046,2.576 1.951,1.11 3.713,2.503 5.689,3.577 1.338,0.727 2.538,1.707 3.814,2.551 0.919,0.608 1.872,1.165 2.792,1.772 1.179,0.778 2.26,1.639 3.081,2.843 0.496,0.727 1.099,1.383 1.429,2.214 0.293,0.737 0.519,1.489 0.703,2.271 0.281,1.194 0.189,2.374 0.196,3.558 0.023,4.298 0.051,8.598 -0.01,12.896 -0.028,1.967 -0.49,3.895 -1.71,5.479 -0.863,1.12 -1.905,2.108 -3.148,2.871 -1.397,0.858 -2.958,1.286 -4.455,1.882 -0.21,0.084 -0.471,0.049 -0.709,0.049 -6.61,0.002 -13.22,0.011 -19.83,-0.012 -0.729,-0.003 -1.49,-0.088 -2.178,-0.314 -0.921,-0.302 -1.928,-0.608 -2.644,-1.213 -1.762,-1.489 -3.324,-3.176 -4.012,-5.496 a 34.18,34.18 0 0 1 -0.77,-3.098 c -0.181,-0.918 -0.176,-1.808 -0.178,-2.708 -0.019,-6.164 -0.01,-12.328 -0.01,-18.492 0,-0.324 -0.01,-0.649 0.003,-0.973 0.013,-0.333 0.128,-0.394 0.457,-0.198 1.238,0.736 2.465,1.49 3.699,2.232 1.006,0.605 2.023,1.193 3.021,1.81 1.326,0.819 2.634,1.667 3.958,2.489 0.901,0.559 1.815,1.099 2.727,1.64 1.236,0.734 2.47,1.472 3.721,2.181 0.257,0.145 0.172,0.331 0.173,0.506 0.009,1.298 -0.003,2.595 0.007,3.893 0.008,1.155 0.554,1.7 1.723,1.683 0.338,-0.005 0.668,0.087 1.032,-0.154 0.588,-0.39 0.868,-0.893 0.704,-1.614 -0.061,-0.267 -0.051,-0.553 -0.052,-0.83 -0.005,-1.216 -0.009,-2.433 0.002,-3.65 0.004,-0.394 -0.123,-0.602 -0.504,-0.817 -1.65,-0.928 -3.266,-1.918 -4.883,-2.903 -1.783,-1.086 -3.547,-2.201 -5.332,-3.285 -0.904,-0.549 -1.849,-1.029 -2.748,-1.585 -1.347,-0.835 -2.73,-1.641 -3.819,-2.813 -1.417,-1.526 -2.671,-3.175 -3.449,-5.137 -0.442,-0.276 0.061,-0.902 -0.43,-1.16 -0.084,-0.736 -0.238,-1.471 -0.241,-2.207 -0.021,-5.11 0.008,-10.219 -0.033,-15.329 -0.006,-0.726 0.259,-1.381 0.274,-2.089 0.015,-0.69 0.253,-1.341 0.479,-1.988 0.317,-0.908 0.67,-1.797 1.425,-2.451 0.487,-0.421 0.831,-0.962 1.33,-1.398 1.072,-0.936 2.317,-1.462 3.607,-1.902 a 9.386,9.386 0 0 1 3.077,-0.515 c 5.799,0.019 11.598,0.036 17.397,-0.009 a 17.014,17.014 0 0 1 4.291,0.539 c 1.347,0.339 2.681,0.834 3.734,1.846 0.451,0.434 0.971,0.796 1.44,1.212 1.217,1.078 1.895,2.495 2.373,4.002 0.315,0.992 0.517,2.014 0.51,3.079 -0.026,3.689 -0.011,7.379 -0.011,11.07 z m -19.634,42.752 c 3.081,0 6.163,0.002 9.244,-0.002 0.664,-0.001 1.31,-0.081 1.974,-0.203 1.532,-0.283 2.621,-1.114 3.333,-1.927 1.242,-1.419 1.877,-3.166 1.899,-5.034 0.059,-5.027 0.021,-10.055 0.017,-15.082 0,-0.273 0.005,-0.564 -0.08,-0.817 A 8.267,8.267 0 0 0 348.7,73.584 c -1.2,-1.263 -2.573,-2.302 -4.021,-3.238 -0.739,-0.478 -1.43,-1.058 -2.197,-1.446 -1.775,-0.897 -3.303,-2.161 -5.01,-3.157 -2.072,-1.209 -4.03,-2.614 -6.04,-3.928 -0.636,-0.416 -1.269,-0.841 -1.933,-1.209 -0.494,-0.274 -0.767,-0.583 -0.756,-1.199 0.036,-2.067 0.015,-4.135 0.013,-6.203 a 3.829,3.829 0 0 1 0.537,-1.959 4.272,4.272 0 0 1 1.751,-1.572 c 0.824,-0.404 1.754,-0.446 2.606,-0.756 0.386,0.394 0.916,0.125 1.341,0.287 0.489,0.187 1.012,0.376 1.405,0.702 0.917,0.76 1.62,1.68 1.608,2.966 -0.006,0.608 0.027,1.218 -0.009,1.824 -0.037,0.631 0.185,1.024 0.783,1.292 0.651,0.292 1.262,0.682 1.873,1.057 1.521,0.932 3.034,1.879 4.548,2.822 0.771,0.481 1.604,0.844 2.358,1.369 0.863,0.601 1.827,1.057 2.752,1.565 0.574,0.316 0.557,0.306 0.596,-0.252 0.055,-0.795 -0.277,-1.529 -0.27,-2.332 0.043,-4.743 0.011,-9.487 0.027,-14.231 0.006,-1.834 -0.719,-3.361 -1.912,-4.679 -0.995,-1.1 -2.252,-1.848 -3.639,-2.361 -0.64,-0.237 -1.289,-0.488 -1.986,-0.489 -6.568,-0.005 -13.136,-10e-4 -19.704,-0.006 -0.746,-10e-4 -1.461,0.224 -2.09,0.532 a 6.965,6.965 0 0 0 -3.013,2.828 c -0.514,0.909 -0.986,1.903 -0.99,2.988 -0.019,5.514 -0.014,11.028 -0.002,16.542 10e-4,0.652 0.219,1.268 0.478,1.867 0.767,1.779 2.12,3.093 3.49,4.388 0.33,0.312 0.744,0.537 1.131,0.784 1.442,0.92 2.896,1.823 4.332,2.753 0.803,0.521 1.531,1.181 2.38,1.603 0.934,0.464 1.746,1.08 2.599,1.653 a 47.42,47.42 0 0 0 2.703,1.702 c 1.249,0.723 2.323,1.713 3.669,2.29 0.414,0.177 0.659,0.596 0.646,1.177 -0.049,2.188 -0.018,4.378 -0.022,6.568 0,0.309 -0.088,0.579 -0.209,0.885 -0.612,1.543 -1.883,2.318 -3.267,2.947 a 3.524,3.524 0 0 1 -1.687,0.294 c -0.704,-0.062 -1.451,-0.223 -2.071,-0.549 -1.772,-0.929 -2.739,-2.669 -2.74,-4.665 0,-0.608 -0.029,-1.218 0.011,-1.824 0.023,-0.341 -0.126,-0.573 -0.368,-0.697 -1.583,-0.812 -3.091,-1.751 -4.609,-2.674 a 297.402,297.402 0 0 0 -3.022,-1.806 200.851,200.851 0 0 0 -2.938,-1.717 c -0.458,-0.261 -0.496,-0.226 -0.511,0.318 -0.111,4.02 0.181,8.043 -0.207,12.066 a 18.479,18.479 0 0 0 0.168,4.89 c 0.193,1.128 0.539,2.192 1.202,3.027 1.653,2.085 3.835,3.209 6.581,3.162 3.038,-0.052 6.079,-0.012 9.12,-0.012 z M 440.932,57.068 v 11.311 c 0,0.203 0.009,0.406 -0.004,0.608 -0.007,0.111 -0.048,0.313 -0.081,0.314 -0.137,0.006 -0.3,-0.012 -0.411,-0.086 -2.006,-1.327 -4.003,-2.669 -6.009,-3.996 -2.067,-1.367 -4.143,-2.721 -6.214,-4.082 -1.753,-1.153 -3.48,-2.346 -5.271,-3.436 -0.442,-0.269 -0.509,-0.524 -0.506,-0.937 0.008,-0.973 0.008,-1.946 0.001,-2.919 -0.01,-1.372 -1.016,-2.102 -2.358,-1.72 -1.004,0.286 -1.284,0.655 -1.289,1.735 -0.006,1.338 0.011,2.676 -0.01,4.013 -0.006,0.364 0.121,0.594 0.42,0.776 1.855,1.131 3.65,2.357 5.479,3.527 1.638,1.048 3.224,2.178 4.882,3.185 1.403,0.853 2.758,1.766 4.116,2.683 0.529,0.357 1.145,0.554 1.681,0.939 2.155,1.549 2.82,2.188 4.115,4.224 0.625,0.983 0.959,2.314 1.251,3.501 0.274,1.115 0.194,2.21 0.2,3.313 0.023,4.135 0.014,8.27 0.006,12.405 -0.002,1.293 -0.383,3.25 -0.988,4.698 a 5.647,5.647 0 0 1 -1.055,1.624 c -1.04,1.12 -2.122,2.178 -3.542,2.876 -1.22,0.6 -2.511,0.99 -3.755,1.511 -0.207,0.087 -0.473,0.04 -0.712,0.04 -6.608,0.002 -13.216,0.03 -19.824,-0.026 -1.162,-0.01 -2.327,-0.289 -3.44,-0.772 -0.88,-0.382 -1.624,-0.884 -2.269,-1.57 -0.305,-0.325 -0.607,-0.658 -0.949,-0.942 -0.798,-0.665 -1.292,-1.549 -1.698,-2.463 -0.379,-0.853 -0.774,-1.698 -0.972,-2.643 -0.29,-1.388 -0.47,-2.764 -0.466,-4.183 0.019,-6.446 0.007,-12.892 0.01,-19.338 0,-0.796 0.074,-0.844 0.758,-0.421 1.616,0.999 3.212,2.03 4.83,3.024 1.289,0.793 2.606,1.541 3.899,2.328 1.2,0.731 2.378,1.498 3.578,2.229 0.936,0.57 1.892,1.107 2.837,1.664 0.1,0.059 0.169,0.173 0.271,0.229 1.345,0.733 1.346,0.731 1.346,2.079 0,0.649 -0.033,1.299 0.01,1.945 a 9.82,9.82 0 0 0 0.257,1.716 c 0.153,0.616 0.799,1.055 1.465,1.084 0.243,0.01 0.487,0.015 0.729,-10e-4 0.852,-0.055 1.184,-0.398 1.187,-1.234 0.005,-1.662 -0.005,-3.324 0.005,-4.986 0.003,-0.441 -0.164,-0.631 -0.584,-0.863 -1.361,-0.751 -2.647,-1.64 -3.975,-2.452 -0.935,-0.571 -1.902,-1.09 -2.838,-1.659 -1.524,-0.927 -3.028,-1.887 -4.553,-2.811 -0.709,-0.429 -1.464,-0.782 -2.171,-1.214 -1.605,-0.979 -3.052,-2.11 -4.203,-3.655 -0.851,-1.143 -1.656,-2.294 -2.282,-3.566 -0.3,-0.609 -0.434,-1.281 -0.606,-1.943 -0.289,-1.113 -0.19,-2.212 -0.195,-3.315 -0.021,-4.743 -0.04,-9.487 0.007,-14.229 0.018,-1.849 0.416,-3.666 1.47,-5.216 0.572,-0.841 1.033,-1.836 2.072,-2.301 0.31,-0.139 0.531,-0.467 0.816,-0.676 1.123,-0.827 2.474,-1.069 3.764,-1.484 0.744,-0.24 1.473,-0.219 2.217,-0.22 6.081,-0.004 12.162,-0.036 18.243,0.02 1.64,0.015 3.244,0.383 4.772,1.084 1.854,0.85 3.071,1.772 4.128,2.944 0.897,0.994 1.921,3.23 2.166,4.573 0.075,0.414 0.195,0.822 0.233,1.238 0.041,0.442 0.009,0.891 0.009,1.337 z m -19.633,42.703 c 3.203,0 6.406,-0.005 9.61,0.003 0.822,0.002 1.581,-0.201 2.368,-0.441 0.633,-0.193 1.135,-0.451 1.579,-0.903 0.135,-0.138 0.326,-0.223 0.452,-0.366 0.424,-0.48 0.869,-0.949 1.236,-1.472 0.837,-1.191 1.171,-2.602 1.193,-3.992 0.08,-5.027 0.031,-10.055 0.031,-15.083 0,-0.116 -0.419,-1.623 -0.487,-1.744 -0.453,-0.805 -0.926,-1.589 -1.562,-2.275 -1.394,-1.503 -3.098,-2.587 -4.816,-3.654 -1.875,-1.164 -3.672,-2.446 -5.569,-3.58 -1.83,-1.095 -3.603,-2.289 -5.367,-3.489 -1.134,-0.771 -2.315,-1.459 -3.472,-2.191 -0.403,-0.255 -0.654,-0.615 -0.643,-1.187 0.042,-2.148 0.023,-4.298 0.014,-6.447 a 2.967,2.967 0 0 1 0.611,-1.808 c 1.205,-1.565 2.856,-2.167 4.802,-2.009 a 3.526,3.526 0 0 1 1.619,0.515 c 0.711,0.437 1.367,0.862 1.773,1.707 0.4,0.832 0.502,1.641 0.432,2.494 -0.096,1.164 0.061,2.123 1.408,2.425 0.033,0.007 0.054,0.062 0.087,0.082 1.484,0.919 2.966,1.841 4.456,2.751 1.002,0.612 2.01,1.212 3.023,1.806 1.075,0.631 2.159,1.248 3.239,1.87 0.122,0.07 0.246,0.137 0.37,0.206 0.028,-0.151 0.08,-0.301 0.08,-0.452 0.004,-5.596 0.012,-11.191 -0.008,-16.787 -0.002,-0.613 -0.03,-1.285 -0.273,-1.827 -0.535,-1.195 -1.182,-2.383 -2.227,-3.199 -0.946,-0.739 -1.92,-1.48 -3.139,-1.805 -0.661,-0.176 -1.294,-0.466 -1.993,-0.466 -6.528,-0.004 -13.056,-0.002 -19.584,-0.002 -0.307,0 -1.885,0.431 -2.191,0.583 -1.223,0.603 -2.228,1.496 -2.866,2.668 -0.594,1.09 -1.07,2.255 -1.063,3.575 0.03,5.271 0.042,10.542 -0.009,15.813 -0.013,1.272 0.45,2.371 1.098,3.315 1.004,1.464 2.226,2.79 3.734,3.793 0.377,0.251 0.794,0.442 1.17,0.695 1.049,0.706 2.023,1.551 3.14,2.119 1.772,0.901 3.343,2.106 5.004,3.163 2.253,1.434 4.587,2.761 6.69,4.426 0.632,0.046 0.602,0.5 0.601,0.953 -0.005,2.108 -0.011,4.217 0.004,6.325 0.004,0.56 -0.187,1.054 -0.427,1.528 -0.689,1.362 -1.907,2.101 -3.269,2.615 -0.459,0.173 -1.016,0.33 -1.468,0.228 -1.218,-0.275 -2.462,-0.471 -3.385,-1.538 -0.908,-1.049 -1.468,-2.158 -1.435,-3.552 0.015,-0.648 0.005,-1.297 10e-4,-1.946 -10e-4,-0.226 -0.039,-0.334 -0.302,-0.508 -1.553,-1.028 -3.204,-1.89 -4.773,-2.886 -0.96,-0.61 -1.935,-1.198 -2.911,-1.782 a 159.617,159.617 0 0 0 -2.937,-1.719 c -0.459,-0.262 -0.508,-0.227 -0.51,0.317 -0.005,1.743 -0.07,3.49 0.017,5.23 0.088,1.766 -0.352,3.494 -0.261,5.252 0.115,2.195 -0.249,4.404 0.228,6.592 0.146,0.668 0.552,2.279 1.001,2.743 0.716,0.74 1.347,1.57 2.268,2.11 1.394,0.817 2.865,1.234 4.489,1.216 3.037,-0.031 6.078,-0.008 9.119,-0.008 z M 240.67,56.625 c 0,4.055 0.002,8.111 -0.005,12.166 0,0.186 -0.074,0.373 -0.113,0.559 -0.167,-0.083 -0.346,-0.15 -0.5,-0.253 -1.269,-0.855 -2.527,-1.727 -3.801,-2.576 -2,-1.334 -4.009,-2.655 -6.015,-3.98 a 1967.773,1967.773 0 0 0 -5.448,-3.59 c -0.54,-0.354 -1.079,-0.715 -1.644,-1.026 -0.547,-0.301 -0.789,-0.703 -0.736,-1.339 0.05,-0.604 0.044,-1.218 0.002,-1.823 -0.043,-0.617 -0.093,-1.248 -0.264,-1.836 -0.137,-0.47 -0.525,-0.782 -1.068,-0.855 -0.567,-0.076 -1.091,0.089 -1.596,0.27 -0.274,0.098 -0.571,0.354 -0.69,0.615 -0.169,0.372 -0.353,0.873 -0.234,1.216 0.355,1.023 0.138,2.052 0.21,3.073 0.011,0.161 0.026,0.329 -0.003,0.486 -0.105,0.579 0.231,0.942 0.667,1.147 1.392,0.655 2.526,1.705 3.853,2.448 1.994,1.116 3.759,2.583 5.777,3.667 1.006,0.54 1.894,1.297 2.856,1.923 1.274,0.829 2.598,1.585 3.844,2.454 0.681,0.475 1.221,1.147 1.868,1.677 0.871,0.713 1.512,1.651 2.005,2.587 0.568,1.078 1.048,2.27 1.043,3.581 -0.023,5.515 0.011,11.031 -0.023,16.545 -0.01,1.533 -0.768,3.433 -1.82,4.845 -1.272,1.706 -2.948,2.77 -4.833,3.596 -1.267,0.555 -2.558,0.987 -3.975,0.983 -6.326,-0.016 -12.653,0.019 -18.979,-0.026 -1.53,-0.011 -3.023,-0.397 -4.36,-1.202 a 10.368,10.368 0 0 1 -2.79,-2.461 c -0.681,-0.853 -1.1,-1.826 -1.629,-2.745 -0.433,-0.752 -0.561,-1.638 -0.762,-2.477 -0.153,-0.639 -0.208,-1.306 -0.249,-1.964 -0.04,-0.646 -0.009,-1.297 -0.009,-1.946 V 71.75 c 0,-0.324 -0.023,-0.652 0.016,-0.971 0.01,-0.082 0.294,-0.222 0.326,-0.194 0.634,0.569 1.387,0.944 2.118,1.361 a 97.975,97.975 0 0 1 3.024,1.804 c 1.326,0.82 2.635,1.666 3.958,2.49 a 445.47,445.47 0 0 0 3.782,2.323 c 1.359,0.828 2.714,1.666 4.094,2.457 0.26,0.149 0.196,0.311 0.198,0.484 0.008,1.216 0.04,2.434 -0.008,3.649 -0.034,0.868 0.453,1.428 1.053,1.861 0.272,0.196 0.769,0.1 1.165,0.1 0.887,0 1.441,-0.572 1.444,-1.483 0.005,-1.622 0.002,-3.244 0.002,-4.866 0,-0.238 -0.081,-0.324 -0.318,-0.493 -1.121,-0.796 -2.351,-1.406 -3.502,-2.147 -1.369,-0.882 -2.785,-1.692 -4.179,-2.534 -1.233,-0.745 -2.464,-1.492 -3.697,-2.236 -1.427,-0.861 -2.959,-1.592 -4.251,-2.622 -1.042,-0.831 -1.989,-1.827 -2.828,-2.924 -0.707,-0.925 -1.34,-1.873 -1.833,-2.905 -0.475,-0.997 -0.808,-2.058 -0.807,-3.194 0.004,-5.799 -0.053,-11.599 0.031,-17.397 0.031,-2.15 0.827,-4.104 2.36,-5.704 0.872,-0.91 1.827,-1.678 2.964,-2.247 0.826,-0.414 1.729,-0.525 2.577,-0.831 0.88,-0.318 1.793,-0.239 2.698,-0.24 5.961,-0.004 11.923,-0.01 17.884,0.005 1.239,0.003 2.44,0.297 3.632,0.622 1.181,0.322 2.318,0.847 3.214,1.601 1.343,1.129 2.739,2.297 3.389,4.037 0.468,1.253 0.964,2.473 0.939,3.879 -0.068,3.728 -0.024,7.46 -0.024,11.19 z m -19.565,43.146 c 3.284,0 6.568,0.021 9.852,-0.013 a 6.511,6.511 0 0 0 2.874,-0.691 c 0.507,-0.253 0.904,-0.582 1.313,-0.941 1.694,-1.486 2.388,-3.363 2.374,-5.592 -0.033,-5.068 -0.027,-10.136 0.005,-15.204 0.005,-0.867 -0.261,-1.576 -0.739,-2.255 -0.618,-0.879 -1.277,-1.713 -2.133,-2.382 -0.589,-0.461 -1.11,-1.013 -1.716,-1.448 -1.244,-0.891 -2.475,-1.817 -3.803,-2.567 -1.595,-0.901 -3.07,-1.975 -4.62,-2.938 -1.008,-0.626 -1.956,-1.35 -2.968,-1.948 a 51.84,51.84 0 0 1 -2.591,-1.664 c -0.883,-0.595 -1.824,-1.098 -2.702,-1.708 -0.24,-0.166 -0.411,-0.219 -0.409,-0.559 0.017,-2.392 -0.014,-4.784 0.021,-7.176 0.014,-0.965 0.431,-1.799 1.194,-2.419 1.136,-0.924 2.877,-1.318 4.326,-1.121 2.43,0.33 3.699,2.604 3.715,4.358 0.005,0.568 0.006,1.135 -0.001,1.703 -0.004,0.288 0.063,0.401 0.377,0.577 1.419,0.793 2.791,1.671 4.206,2.477 1.55,0.883 3.033,1.88 4.553,2.816 a 171,171 0 0 0 3.022,1.809 0.787,0.787 0 0 0 0.412,0.087 c 0.033,-0.001 0.081,-0.204 0.082,-0.314 0.005,-1.5 0.024,-3.001 0,-4.5 -0.071,-4.426 -0.158,-8.853 -0.24,-13.279 -0.008,-0.427 -0.528,-1.827 -0.782,-2.231 a 8.777,8.777 0 0 0 -2.837,-2.805 c -1.3,-0.802 -2.702,-1.397 -4.284,-1.396 -6.365,0.003 -12.731,0.006 -19.096,-0.005 -0.677,-10e-4 -1.254,0.255 -1.875,0.466 -1.352,0.46 -2.279,1.453 -3.08,2.488 -0.677,0.875 -1.153,1.947 -1.148,3.164 0.023,5.676 0.015,11.352 0.003,17.028 -0.001,0.638 0.193,1.193 0.443,1.766 0.62,1.419 1.585,2.607 2.711,3.595 0.637,0.559 1.311,1.137 2.134,1.548 1.322,0.66 2.467,1.666 3.742,2.434 1.302,0.785 2.545,1.658 3.842,2.451 2.7,1.651 5.3,3.467 7.941,5.216 0.633,0.038 0.611,0.488 0.61,0.945 -0.006,1.987 0.026,3.974 -0.021,5.96 -0.013,0.555 -0.228,1.112 -0.395,1.654 -0.397,1.292 -1.441,1.99 -2.557,2.528 -0.668,0.322 -1.465,0.59 -2.182,0.544 -0.797,-0.051 -1.632,-0.217 -2.386,-0.665 -1.59,-0.945 -2.454,-2.264 -2.439,-4.132 0.006,-0.77 0.009,-1.541 -0.007,-2.311 -0.003,-0.13 -0.071,-0.316 -0.17,-0.377 a 149.235,149.235 0 0 0 -2.831,-1.677 c -0.947,-0.55 -1.91,-1.073 -2.847,-1.639 -1.494,-0.902 -2.97,-1.835 -4.46,-2.744 -0.32,-0.195 -0.666,-0.346 -1,-0.517 -0.121,0.396 -0.272,0.786 -0.353,1.189 -0.055,0.273 -0.01,0.566 -0.01,0.849 0,4.744 0.016,9.487 -0.01,14.231 -0.007,1.312 0.377,2.459 0.956,3.625 0.704,1.415 1.882,2.306 3.179,2.926 a 8.154,8.154 0 0 0 3.687,0.801 c 3.035,-0.06 6.077,-0.017 9.118,-0.017 z m 22.728,-30.63 V 36.547 c 0,-0.324 -0.022,-0.651 0.012,-0.972 0.011,-0.104 0.154,-0.225 0.265,-0.277 0.1,-0.047 0.239,-0.01 0.36,-0.01 5.595,0 11.189,0.001 16.784,-10e-4 0.678,0 0.585,-0.029 0.585,0.581 v 18.851 c 0,0.324 -0.025,0.651 0.008,0.972 0.026,0.256 -0.19,0.661 0.156,0.737 0.309,0.068 0.42,-0.304 0.601,-0.562 0.427,-0.606 0.994,-1.109 1.46,-1.704 0.328,-0.418 0.457,-0.786 0.457,-1.284 -0.009,-5.473 -0.006,-10.946 -0.006,-16.419 0,-0.284 0.012,-0.568 -0.003,-0.851 -0.015,-0.274 0.115,-0.332 0.362,-0.326 0.608,0.014 1.216,0.005 1.824,0.005 4.986,0 9.973,-10e-4 14.959,10e-4 0.858,0 0.864,0.004 0.864,0.787 10e-4,7.905 -0.003,15.811 0.009,23.716 0.001,0.632 -0.219,1.117 -0.641,1.564 -0.93,0.987 -1.884,1.956 -2.744,3.001 -1.029,1.252 -2.049,2.507 -3.189,3.663 -0.5,0.508 -0.482,0.898 -0.033,1.428 0.89,1.05 1.788,2.093 2.664,3.154 1.172,1.421 2.248,2.922 3.528,4.254 0.381,0.397 0.413,0.89 0.412,1.412 -0.01,4.946 -0.006,9.892 -0.006,14.838 v 9 c 0,0.646 0.059,0.584 -0.583,0.583 -5.635,-0.001 -11.27,-0.006 -16.905,0.012 -0.445,0.002 -0.53,-0.111 -0.529,-0.538 0.016,-5.716 -0.007,-11.433 0.027,-17.148 0.006,-0.962 -0.15,-1.664 -1.13,-2.096 -0.45,-0.198 -0.752,-0.722 -1.137,-1.082 -0.067,-0.062 -0.216,-0.06 -0.322,-0.045 -0.043,0.006 -0.098,0.123 -0.1,0.191 -0.01,0.324 -0.005,0.649 -0.005,0.973 0,6.446 -10e-4,12.892 0.002,19.338 0,0.736 0.031,0.64 -0.649,0.64 -5.595,-0.001 -11.189,10e-4 -16.784,-0.002 -0.566,0 -0.574,-0.009 -0.574,-0.589 -0.002,-8.797 -0.001,-17.594 -0.001,-26.392 0.002,-2.268 0.002,-4.539 0.002,-6.809 z m 3.163,-0.272 0.001,29.441 c 0,0.722 0.005,0.729 0.679,0.729 3.366,0.003 6.732,0.001 10.097,0.001 0.122,0 0.257,0.034 0.361,-0.009 0.115,-0.048 0.274,-0.158 0.285,-0.255 0.036,-0.32 0.014,-0.647 0.014,-0.972 V 75.419 c 0,-0.324 -0.005,-0.649 0.005,-0.973 0.002,-0.068 0.061,-0.135 0.094,-0.203 0.057,0.042 0.12,0.078 0.171,0.126 1.659,1.576 3.319,3.151 4.974,4.732 0.41,0.392 0.793,0.814 1.209,1.199 0.312,0.289 0.648,0.554 0.989,0.811 0.821,0.62 1.664,1.336 1.318,2.594 0,4.947 -10e-4,9.895 0.001,14.842 0,0.727 0.005,0.734 0.673,0.734 3.609,0.003 7.218,0.002 10.827,0 0.659,-0.001 0.664,-0.008 0.664,-0.743 l 10e-4,-20.073 c 0,-0.162 0.012,-0.326 -0.004,-0.486 -0.011,-0.111 -0.033,-0.237 -0.096,-0.323 -0.276,-0.376 -0.536,-0.772 -0.862,-1.101 -1.087,-1.096 -2.03,-2.312 -3.012,-3.497 -0.736,-0.887 -1.548,-1.711 -2.312,-2.575 -0.308,-0.349 -0.552,-0.756 -0.869,-1.095 -0.61,-0.654 -0.613,-0.633 -0.327,-0.954 0.314,-0.351 0.609,-0.719 0.91,-1.082 0.074,-0.089 0.13,-0.195 0.212,-0.276 1.184,-1.17 2.225,-2.463 3.276,-3.75 0.729,-0.892 1.577,-1.688 2.299,-2.585 0.37,-0.46 0.803,-0.894 0.8,-1.616 -0.027,-6.529 -0.015,-13.058 -0.017,-19.586 0,-0.591 -0.007,-0.6 -0.563,-0.6 -3.366,-0.003 -6.732,-0.002 -10.097,-0.002 -0.081,0 -0.18,-0.03 -0.239,0.006 -0.11,0.068 -0.284,0.178 -0.279,0.262 0.069,1.276 -0.216,2.532 -0.236,3.793 -0.058,3.77 -0.033,7.542 -0.01,11.313 0.004,0.72 -0.221,1.273 -0.727,1.775 -2.648,2.628 -5.281,5.271 -7.919,7.909 -0.082,0.082 -0.172,0.158 -0.258,0.236 -0.037,-0.106 -0.103,-0.212 -0.106,-0.319 -0.092,-3.535 -0.014,-7.067 -0.191,-10.608 -0.231,-4.611 -0.056,-9.243 -0.057,-13.866 0,-0.74 -0.005,-0.745 -0.785,-0.745 -2.879,-0.002 -5.758,-10e-4 -8.638,-10e-4 -0.608,0 -1.218,0.026 -1.824,-0.009 -0.414,-0.024 -0.466,0.168 -0.437,0.5 0.021,0.241 0.004,0.486 0.004,0.729 z m 235.789,0.384 V 36.525 c 0,-0.324 -0.023,-0.651 0.013,-0.972 0.011,-0.098 0.173,-0.235 0.283,-0.253 0.237,-0.039 0.485,-0.012 0.728,-0.012 h 29.808 c 0.243,0 0.487,0.012 0.73,-0.003 0.282,-0.017 0.321,0.129 0.319,0.368 -0.009,1.257 -0.004,2.514 -0.004,3.772 0,4.299 10e-4,8.598 -0.001,12.896 0,0.721 -0.005,0.728 -0.679,0.729 -3.609,0.002 -7.219,0.001 -10.828,0.001 -0.243,0 -0.488,0.014 -0.73,-0.004 -0.294,-0.022 -0.444,0.047 -0.423,0.39 0.029,0.485 0.007,0.973 0.007,1.46 0,1.825 0.009,3.65 -0.008,5.475 -0.003,0.363 0.089,0.476 0.465,0.474 3.609,-0.014 7.219,-0.008 10.828,-0.008 0.284,0 0.571,-0.025 0.85,0.013 0.102,0.014 0.239,0.165 0.263,0.274 0.043,0.193 0.012,0.403 0.012,0.606 v 15.938 c 0,0.162 -0.019,0.327 0.004,0.486 0.057,0.394 -0.133,0.455 -0.481,0.453 -2.23,-0.014 -4.461,-0.007 -6.691,-0.007 -1.744,0 -3.488,0.006 -5.232,-0.005 -0.322,-0.002 -0.51,0.011 -0.506,0.432 0.021,2.23 0.021,4.461 0,6.691 -0.004,0.424 0.188,0.431 0.508,0.43 3.772,-0.008 7.543,-0.005 11.315,-0.005 0.243,0 0.488,0.013 0.73,-0.004 0.25,-0.017 0.379,0.058 0.357,0.329 -0.013,0.161 -0.002,0.324 -0.002,0.486 v 15.573 c 0,0.679 0.097,0.65 -0.64,0.65 -10.098,-0.002 -20.196,-0.002 -30.294,-0.002 -0.122,0 -0.244,-0.01 -0.365,0.002 -0.264,0.026 -0.353,-0.092 -0.338,-0.348 0.017,-0.283 0.004,-0.568 0.004,-0.851 -0.002,-10.908 -0.002,-21.817 -0.002,-32.726 z m 3.65,0.578 v 29.443 c 0,0.243 0.037,0.494 -0.008,0.729 -0.095,0.503 0.175,0.537 0.555,0.503 0.241,-0.022 0.486,-0.004 0.73,-0.004 h 21.17 c 0.568,0 1.136,-0.009 1.703,0.004 0.276,0.006 0.437,-0.018 0.435,-0.378 -0.014,-3.406 -0.011,-6.813 -0.004,-10.22 0,-0.248 -0.056,-0.374 -0.329,-0.359 -0.283,0.015 -0.568,0.003 -0.851,0.003 h -11.071 c -0.669,0 -0.652,0.109 -0.651,-0.639 0.004,-4.015 0.002,-8.03 0.002,-12.045 0,-0.527 0.01,-1.055 -0.004,-1.582 -0.007,-0.264 0.092,-0.354 0.349,-0.339 0.283,0.017 0.568,0.004 0.851,0.004 3.771,0 7.543,0.001 11.315,-10e-4 0.62,0 0.627,-0.007 0.628,-0.658 0.003,-3.042 0.003,-6.083 0,-9.125 -10e-4,-0.674 -0.007,-0.679 -0.729,-0.679 -3.853,-0.002 -7.705,0 -11.558,-0.001 -0.846,0 -0.851,-0.003 -0.851,-0.801 -0.002,-4.461 -0.002,-8.922 0,-13.383 0,-0.898 0.004,-0.902 0.872,-0.902 3.853,-0.001 7.705,-0.005 11.558,0.007 0.362,10e-4 0.476,-0.088 0.475,-0.464 -0.015,-3.082 -0.008,-6.164 -0.008,-9.246 0,-0.081 0.031,-0.183 -0.007,-0.239 -0.072,-0.107 -0.171,-0.241 -0.28,-0.266 -0.193,-0.043 -0.403,-0.012 -0.606,-0.012 H 487.37 c -0.203,0 -0.406,0.012 -0.608,-0.003 -0.272,-0.019 -0.344,0.109 -0.329,0.358 0.017,0.283 0.004,0.568 0.004,0.851 -0.002,9.816 -0.002,19.63 -0.002,29.444 z m -15.087,8.158 v 23.713 c 0,0.284 -0.023,0.57 0.006,0.851 0.037,0.351 -0.14,0.408 -0.426,0.384 -0.161,-0.014 -0.324,-0.003 -0.486,-0.003 h -17.633 c -0.203,0 -0.406,-0.011 -0.608,0.003 -0.276,0.019 -0.338,-0.117 -0.324,-0.363 0.017,-0.283 0.004,-0.567 0.004,-0.851 V 54.054 c 0,-1.001 -0.002,-1.002 -1.014,-1.003 -2.189,-0.001 -4.378,-0.01 -6.566,0.009 -0.386,0.003 -0.457,-0.13 -0.457,-0.482 0.01,-5.594 0.015,-11.188 -0.007,-16.781 -0.002,-0.468 0.144,-0.519 0.549,-0.518 5.553,0.013 35.037,0.007 35.037,0.007 0,0 0.202,-0.013 0.202,0.611 -0.009,1.175 -0.004,2.351 -0.004,3.526 0,4.135 0.002,8.269 -0.004,12.404 -0.001,0.394 0.094,0.946 -0.117,1.14 -0.224,0.205 -0.76,0.081 -1.16,0.082 -1.946,0.004 -3.891,0.002 -5.837,0.002 -1.156,0 -1.156,10e-4 -1.157,1.104 v 16.781 c 0.002,2.351 0.002,4.702 0.002,7.053 z m -15.817,-3.523 v 24.078 c 0,0.979 0.002,0.982 0.912,0.983 3.364,0.002 6.729,0.002 10.093,0 0.915,-0.001 0.917,-0.004 0.917,-0.977 0,-15.728 0,-31.456 0.003,-47.184 0,-0.557 0.046,-1.115 0.07,-1.672 0.561,-0.016 1.121,-0.045 1.682,-0.047 2.108,-0.006 4.216,-0.004 6.324,0 0.26,0.001 0.448,0.013 0.447,-0.365 -0.015,-3.324 -0.01,-6.648 -0.005,-9.972 0,-0.231 -0.023,-0.391 -0.311,-0.374 -0.242,0.014 -0.486,0.003 -0.729,0.003 h -26.632 c -0.243,0 -0.487,0.012 -0.729,-0.003 -0.283,-0.017 -0.319,0.13 -0.318,0.369 0.006,3.243 0.01,6.486 -0.005,9.729 -0.002,0.369 0.173,0.374 0.441,0.372 1.094,-0.007 2.189,-0.003 3.284,-0.003 1.378,0 2.756,0.005 4.135,-0.004 0.281,-0.002 0.467,0.026 0.429,0.383 -0.03,0.281 -0.006,0.567 -0.006,0.851 -0.002,7.943 -0.002,15.888 -0.002,23.833 z M 134.334,68.934 V 36.343 c 0,-0.324 0.012,-0.649 -0.004,-0.973 -0.013,-0.272 0.11,-0.348 0.359,-0.328 0.201,0.016 0.405,0.003 0.608,0.003 9.08,0 18.161,-0.032 27.24,0.026 1.945,0.012 3.872,0.472 5.591,1.446 2.718,1.54 4.682,3.763 5.605,6.783 0.29,0.947 0.516,1.93 0.515,2.954 -0.012,15.282 -0.008,30.565 -0.008,45.847 0,0.284 0.088,0.606 -0.016,0.844 -0.329,0.755 -0.177,1.602 -0.498,2.348 -0.223,0.516 -0.435,1.041 -0.712,1.528 -0.265,0.465 -0.6,0.891 -0.922,1.321 -0.303,0.406 -0.609,0.812 -0.946,1.188 -1.613,1.8 -3.727,2.764 -5.957,3.521 -0.216,0.073 -0.463,0.079 -0.696,0.079 -9.85,0.004 -19.701,0.004 -29.551,0.002 -0.599,0 -0.606,-0.007 -0.607,-0.679 -0.002,-4.459 -0.001,-8.918 -0.001,-13.377 z m 3.163,0.35 v 29.442 c 0,0.324 0.012,0.649 -0.004,0.973 -0.013,0.282 0.129,0.342 0.369,0.317 0.12,-0.012 0.243,-0.002 0.365,-0.002 8.233,0 16.465,-0.004 24.698,0.009 0.636,0.001 1.231,-0.17 1.797,-0.372 1.177,-0.419 2.276,-0.966 3.306,-1.744 0.906,-0.685 1.534,-1.509 2.096,-2.427 0.653,-1.066 0.954,-2.242 0.954,-3.497 -0.002,-15.167 -0.005,-30.335 0.007,-45.502 0.001,-0.947 -0.205,-1.827 -0.48,-2.723 -0.412,-1.344 -1.242,-2.424 -2.024,-3.543 -0.686,-0.08 -0.833,-0.952 -1.519,-1.033 -0.658,-0.683 -1.611,-0.614 -2.414,-0.927 -0.317,-0.123 -0.715,-0.044 -1.076,-0.045 -1.217,-0.003 -2.433,-10e-4 -3.65,-10e-4 -1.257,0 -2.515,-0.031 -3.771,0.009 -1.184,0.038 -2.366,0.21 -3.549,0.223 -3.041,0.033 -6.083,0.011 -9.125,0.011 -1.825,0 -3.65,0.022 -5.474,-0.015 -0.478,-0.01 -0.556,0.155 -0.511,0.554 0.027,0.24 0.005,0.486 0.005,0.729 z M 178.62,68.931 V 36.576 c 0,-0.324 0.012,-0.649 -0.004,-0.973 -0.013,-0.283 0.13,-0.322 0.369,-0.319 0.811,0.011 1.622,0.004 2.433,0.004 5.109,0 10.217,-10e-4 15.326,0.001 0.6,0 0.602,0.007 0.611,0.553 0.004,0.243 0.001,0.486 0.001,0.73 0,21.611 0,43.221 -0.002,64.832 0,0.4 -0.023,0.801 -0.035,1.201 -0.434,0.028 -0.868,0.081 -1.302,0.082 -5.433,0.006 -10.866,0.004 -16.299,0.004 -1.097,0 -1.098,-0.001 -1.098,-1.04 z m 15.574,0.299 c 0,-9.609 0.001,-19.218 -0.004,-28.827 0,-0.394 0.071,-0.873 -0.123,-1.152 -0.124,-0.177 -0.675,-0.068 -1.034,-0.069 -3.406,-0.003 -6.811,-0.003 -10.217,0 -0.399,10e-4 -0.936,-0.121 -1.158,0.085 -0.211,0.196 -0.114,0.747 -0.114,1.141 -0.004,14.231 -0.003,28.462 -0.003,42.692 0,5.149 -0.001,10.298 0.001,15.447 0,0.727 0.005,0.734 0.673,0.734 3.771,0.002 7.541,10e-4 11.312,10e-4 0.081,0 0.163,-0.006 0.243,0.001 0.279,0.026 0.469,-0.019 0.431,-0.378 -0.03,-0.281 -0.006,-0.567 -0.006,-0.851 z M 161.587,12.406 c 0,-3.566 0.004,-7.133 -0.007,-10.699 -0.001,-0.338 0.04,-0.503 0.444,-0.495 1.337,0.026 2.675,0.017 4.012,0.004 0.293,-0.003 0.453,0.376 0.453,0.376 l 6.588,14.045 c 0,0 5.798,-12.917 6.267,-13.939 0.149,-0.325 0.332,-0.489 0.713,-0.484 1.337,0.019 2.675,0.018 4.012,0 0.333,-0.005 0.405,0.117 0.396,0.418 -0.018,0.648 -0.006,1.297 -0.006,1.945 v 18.967 c 0,0.243 -0.013,0.487 0.003,0.729 0.017,0.264 -0.093,0.341 -0.348,0.339 -1.175,-0.01 -2.352,-0.034 -3.525,0.01 -0.47,0.017 -0.521,-0.144 -0.519,-0.549 0.017,-2.918 0.009,-5.836 0.009,-8.754 0,-0.324 0.006,-0.649 -0.005,-0.972 -0.002,-0.066 -0.072,-0.13 -0.11,-0.196 -0.043,0.059 -0.096,0.113 -0.126,0.178 a 1261.12,1261.12 0 0 0 -4.381,9.614 c -0.195,0.437 -0.405,0.734 -1.01,0.687 -0.695,-0.054 -1.857,-0.033 -2.561,-0.013 -0.702,-0.008 -0.907,-0.639 -0.907,-0.639 l -4.986,-10.542 c 0,0 -0.03,7.644 -0.019,10.683 0.001,0.335 -0.032,0.509 -0.441,0.498 -1.094,-0.029 -2.188,-0.007 -3.282,-0.011 -0.654,-0.003 -0.661,-0.008 -0.662,-0.623 -0.002,-3.323 -0.001,-6.647 -0.001,-9.97 z m 100.739,-0.047 c 0,-3.485 -0.001,-6.971 10e-4,-10.456 10e-4,-0.676 0.007,-0.679 0.726,-0.681 1.216,-0.003 2.432,0.012 3.647,-0.009 0.373,-0.006 0.598,0.138 0.734,0.46 0.408,0.966 5.602,13 5.602,13 0.066,0.212 0.15,0.491 0.314,0.583 0.251,0.141 0.039,0.696 0.462,0.541 0.194,-0.071 0.359,-0.383 0.425,-0.617 0.37,-1.31 5.548,-12.534 5.548,-12.534 0.239,-0.436 0.124,-1.122 0.598,-1.305 0.494,-0.19 1.098,-0.119 1.654,-0.114 1.042,0.009 2.084,0.052 3.126,0.08 0.012,1.008 0.033,2.017 0.034,3.025 0.003,6.039 0.002,12.077 0.002,18.116 0,0.284 -0.011,0.568 0.003,0.851 0.015,0.287 -0.142,0.314 -0.374,0.312 -1.216,-0.008 -2.432,-0.019 -3.647,0.005 -0.38,0.008 -0.365,-0.189 -0.364,-0.448 0.005,-1.337 0.002,-2.675 0.002,-4.012 0,-1.864 0.003,-3.728 -0.006,-5.593 -10e-4,-0.136 -0.083,-0.271 -0.128,-0.407 -0.057,0.138 -0.112,0.278 -0.172,0.415 -0.314,0.721 -3.667,8.215 -4.527,9.68 -0.14,0.239 -0.182,0.363 -0.46,0.36 -1.175,-0.01 -2.351,-0.022 -3.526,0.006 a 0.664,0.664 0 0 1 -0.662,-0.409 c -0.588,-1.255 -3.98,-8.969 -4.241,-9.55 -0.077,-0.171 -0.17,-0.335 -0.256,-0.502 -0.045,0.175 -0.129,0.35 -0.129,0.525 -0.008,2.715 -0.004,5.431 -0.007,8.146 -10e-4,0.563 -0.02,1.126 -0.031,1.689 -0.596,0.03 -1.191,0.07 -1.787,0.087 -0.526,0.015 -1.054,0.004 -1.581,0.003 -0.979,-0.002 -0.98,-0.002 -0.98,-1.036 z M 249.55,24.063 c -1.739,0.298 -3.358,-0.387 -4.947,-1.06 -0.794,-0.336 -1.544,-0.868 -2.183,-1.453 -0.846,-0.775 -1.661,-1.622 -2.309,-2.563 -0.588,-0.853 -1.022,-1.842 -1.368,-2.826 -0.554,-1.576 -0.637,-3.245 -0.479,-4.892 0.089,-0.926 0.376,-1.859 0.726,-2.728 0.349,-0.867 0.841,-1.688 1.353,-2.475 1.221,-1.875 2.946,-3.189 4.997,-4.001 1.232,-0.488 2.51,-0.904 3.904,-0.869 1.11,0.028 2.224,0.04 3.295,0.293 0.903,0.214 1.826,0.526 2.605,1.012 0.479,0.299 1.019,0.526 1.459,0.901 0.416,0.354 0.686,0.889 1.272,1.033 0.111,0.504 0.56,0.744 0.856,1.104 0.27,0.328 0.576,0.646 0.765,1.02 0.54,1.07 1.091,2.12 1.423,3.304 0.233,0.832 0.163,1.672 0.369,2.502 0.202,0.816 -0.048,1.784 -0.248,2.652 -0.347,1.513 -1.011,2.897 -1.865,4.208 -1.4,2.149 -3.577,3.594 -5.873,4.377 -1.19,0.407 -2.417,0.619 -3.752,0.461 z m 0.253,-4.308 c 0.595,-0.043 1.236,0.043 1.775,-0.154 1.496,-0.547 2.902,-1.183 3.911,-2.596 0.914,-1.28 1.334,-2.632 1.488,-4.135 0.061,-0.599 -0.154,-1.15 -0.237,-1.724 -0.112,-0.768 -0.384,-1.442 -0.797,-2.107 C 255.491,8.312 254.868,7.77 254.287,7.18 253.27,6.147 251.974,5.728 250.569,5.608 250.046,5.563 249.517,5.603 248.99,5.6 a 4.472,4.472 0 0 0 -2.188,0.581 c -1.029,0.569 -2.008,1.157 -2.748,2.18 -0.871,1.204 -1.308,2.504 -1.415,3.914 -0.133,1.739 0.416,3.318 1.433,4.745 0.576,0.807 1.992,1.836 2.886,2.227 0.926,0.408 1.86,0.527 2.845,0.508 z m 97.203,-1.514 c 0,1.783 -0.023,3.567 0.015,5.349 0.01,0.481 -0.16,0.522 -0.555,0.513 a 61.689,61.689 0 0 0 -3.161,10e-4 c -0.407,0.011 -0.479,-0.159 -0.439,-0.497 0.019,-0.16 0.003,-0.324 0.003,-0.486 V 2.21 c 0,-0.203 0.021,-0.408 -0.005,-0.607 -0.044,-0.35 0.138,-0.39 0.424,-0.386 0.972,0.012 1.945,0.005 2.918,0.005 1.581,0 3.162,-0.038 4.741,0.012 1.304,0.041 2.542,0.314 3.748,0.928 1.178,0.6 2.002,1.501 2.765,2.494 0.896,1.166 1.266,2.506 1.242,3.988 -0.016,0.984 -0.084,1.924 -0.481,2.847 -0.166,0.386 -0.303,0.759 -0.555,1.11 -0.9,1.254 -1.9,2.385 -3.377,2.968 -0.275,0.109 -0.285,0.249 -0.163,0.431 0.868,1.289 1.597,2.659 2.374,4.002 0.738,1.278 1.504,2.539 2.268,3.802 0.081,0.134 0.267,0.279 -0.039,0.283 -1.459,0.019 -2.918,0.014 -4.377,-0.003 -0.098,-0.001 -0.224,-0.15 -0.285,-0.259 -1.2,-2.14 -2.429,-4.267 -3.692,-6.366 -0.957,-1.59 -1.784,-3.265 -2.885,-4.769 -0.076,-0.104 -0.187,-0.184 -0.282,-0.275 -0.067,0.118 -0.192,0.236 -0.194,0.355 -0.013,1.459 -0.009,2.918 -0.009,4.377 z m 0,-9.537 c 0,0.85 0.005,1.7 -0.003,2.55 -0.003,0.267 0.002,0.446 0.371,0.44 1.497,-0.022 2.998,0.045 4.491,-0.031 0.776,-0.039 1.515,-0.425 1.939,-1.104 0.73,-1.169 0.731,-2.417 0,-3.586 -0.425,-0.68 -1.163,-1.065 -1.938,-1.105 -1.494,-0.077 -2.994,-0.01 -4.491,-0.031 -0.368,-0.005 -0.376,0.17 -0.373,0.439 0.009,0.809 0.004,1.618 0.004,2.428 z m -45.017,1.1 c 0,-2.635 -0.002,-5.271 0.001,-7.906 10e-4,-0.668 0.008,-0.682 0.61,-0.673 1.245,0.019 2.49,0.055 3.734,0.084 0.011,1.212 0.031,2.423 0.033,3.635 0.004,4.014 -0.016,8.028 0.012,12.041 0.008,1.168 0.566,2.081 1.66,2.567 2.185,0.97 4.384,-0.416 4.402,-2.771 0.036,-4.784 0.011,-9.568 0.011,-14.352 0,-0.284 0.013,-0.568 -0.004,-0.851 -0.015,-0.248 0.056,-0.362 0.327,-0.36 1.257,0.009 2.514,-0.002 3.77,0.016 0.097,0.001 0.255,0.158 0.273,0.262 0.041,0.236 0.013,0.484 0.013,0.727 0,4.987 0.017,9.974 -0.009,14.96 -0.009,1.76 -0.75,3.247 -1.894,4.566 -0.942,1.086 -2.095,1.795 -3.455,2.241 -1.7,0.557 -3.298,0.336 -4.936,-0.306 -1.706,-0.669 -2.73,-2.032 -3.818,-3.359 -0.227,-0.917 -0.746,-1.747 -0.739,-2.738 0.022,-2.594 0.009,-5.189 0.009,-7.783 z"
       id="path36688" />
    <path
       d="m 235.907,7.549 c -0.608,0 -1.217,-0.024 -1.824,0.007 -0.548,0.028 -1.007,-0.157 -1.356,-0.542 -0.599,-0.659 -1.436,-0.902 -2.209,-1.125 -0.686,-0.198 -1.426,-0.408 -2.199,-0.298 -1.474,0.209 -3.392,0.614 -4.548,1.947 -0.464,0.535 -1.014,1.026 -1.35,1.633 -0.338,0.612 -1.055,1.987 -0.985,3.607 0.104,1.798 0.648,3.39 1.986,4.655 0.652,0.617 1.21,1.33 2.119,1.642 1.709,0.587 2.899,0.806 4.629,0.436 1.178,-0.252 2.088,-0.877 3.037,-1.488 0.252,-0.162 0.457,-0.263 0.749,-0.261 1.378,0.01 2.757,0 4.135,0.007 0.423,0.002 0.501,0.114 0.262,0.478 -0.733,1.117 -1.393,2.253 -2.53,3.095 -0.931,0.69 -1.816,1.415 -2.896,1.847 a 13.13,13.13 0 0 1 -2.273,0.7 c -0.868,0.177 -1.719,0.223 -2.583,0.198 -1.983,-0.057 -3.887,-0.408 -5.507,-1.674 -1.479,-0.512 -2.259,-1.85 -3.305,-2.858 -0.791,-0.763 -1.199,-1.845 -1.619,-2.844 -0.348,-0.828 -0.494,-1.595 -0.584,-2.682 -0.09,-1.087 0.006,-3.123 0.242,-4.204 0.236,-1.081 0.551,-1.707 0.967,-2.519 0.271,-0.528 0.644,-0.954 0.991,-1.412 0.934,-1.232 1.993,-2.318 3.373,-3.066 0.962,-0.521 1.946,-1.011 3.002,-1.258 0.745,-0.174 1.501,-0.438 2.293,-0.346 2.526,-0.03 4.24,0.614 5.181,0.998 0.797,0.325 1.587,0.788 2.221,1.364 0.969,0.882 1.989,1.742 2.687,2.886 0.139,0.227 0.307,0.439 0.423,0.677 0.096,0.197 0.083,0.397 -0.219,0.398 -0.77,0.003 -1.54,0.002 -2.31,0.002 z m -75.774,15.572 c 10e-4,0.336 -0.034,0.508 -0.442,0.497 a 87.688,87.688 0 0 0 -3.284,-0.005 c -0.292,0.003 -0.434,-0.047 -0.424,-0.39 0.024,-0.892 0.001,-1.784 0.013,-2.676 0.003,-0.256 -0.076,-0.35 -0.339,-0.349 -2.433,0.007 -4.866,0.005 -7.3,0.003 -0.205,0 -0.301,0.033 -0.419,0.273 -0.283,0.578 -0.678,1.101 -1.04,1.639 -0.339,0.504 -0.592,1.192 -1.069,1.441 -0.479,0.249 -1.188,0.055 -1.796,0.055 -0.284,0 -0.568,0.01 -0.851,-0.002 -0.756,-0.031 -1.511,-0.072 -2.266,-0.109 0.517,-0.525 0.858,-1.179 1.289,-1.761 1.166,-1.575 14.028,-20.256 14.367,-20.419 0.429,-0.207 1.019,-0.091 1.539,-0.092 0.644,-10e-4 1.932,0.033 1.932,0.033 z m -4.171,-10.178 h 0.028 c 0,-0.892 0.005,-1.783 -0.007,-2.675 -0.001,-0.096 -0.075,-0.248 -0.148,-0.272 -0.087,-0.028 -0.25,0.023 -0.309,0.097 -0.165,0.207 -0.279,0.454 -0.44,0.665 -1.056,1.388 -2.129,2.763 -3.167,4.164 -0.162,0.219 -0.18,0.546 -0.265,0.822 0.233,0.026 0.465,0.061 0.698,0.074 0.242,0.013 0.486,0.009 0.729,0.002 0.96,-0.028 1.92,-0.061 2.879,-0.092 0.002,-0.928 0.002,-1.857 0.002,-2.785 z m 174.01,-0.254 c 0,-3.609 0.002,-7.219 -0.002,-10.828 -0.001,-0.741 -0.025,-0.64 0.65,-0.64 3.569,10e-4 7.137,-0.001 10.706,0.002 0.56,0 0.565,0.01 0.567,0.596 0.004,1.054 0.004,2.109 0,3.163 -0.002,0.61 -0.007,0.617 -0.668,0.618 -2.109,0.003 -4.218,0.008 -6.326,-0.005 -0.377,-0.003 -0.583,-10e-4 -0.565,0.504 0.048,1.377 0.027,2.757 0.009,4.136 -0.005,0.348 0.061,0.49 0.453,0.486 1.987,-0.02 3.974,-0.009 5.961,-0.009 0.284,0 0.571,-0.024 0.85,0.013 0.105,0.014 0.207,0.159 0.279,0.266 0.038,0.056 0.007,0.158 0.007,0.239 l -0.021,3.763 c -1.243,0.034 -2.486,0.078 -3.73,0.097 -1.095,0.016 -2.191,0.035 -3.284,-0.011 -0.476,-0.02 -0.525,0.15 -0.517,0.552 a 83.753,83.753 0 0 1 -0.001,3.649 c -0.009,0.407 0.159,0.445 0.497,0.443 2.19,-0.013 4.38,0 6.57,-0.013 0.337,-0.002 0.506,0.036 0.497,0.443 a 69.16,69.16 0 0 0 10e-4,3.528 c 0.012,0.443 -0.215,0.42 -0.518,0.419 -3.65,-0.005 -7.3,-0.008 -10.949,0.004 -0.362,0.001 -0.481,-0.087 -0.475,-0.464 0.021,-1.46 0.009,-2.92 0.009,-4.38 z M 286.416,12.293 V 2.204 c 0,-0.98 0.002,-0.982 1.033,-0.982 2.147,-10e-4 4.295,0.005 6.442,-0.002 1.56,-0.005 2.874,0.556 4.14,1.471 1.148,0.83 1.814,1.942 2.354,3.157 0.454,1.022 0.822,2.133 0.605,3.259 -0.226,1.175 -0.415,2.38 -1.156,3.408 -0.879,1.221 -1.882,2.247 -3.311,2.831 -0.966,0.395 -1.927,0.726 -2.984,0.722 -0.805,-0.003 -1.611,0.021 -2.416,0.033 -0.028,0.839 -0.074,1.678 -0.082,2.517 -0.013,1.499 -0.011,2.998 0.002,4.497 0.003,0.327 -0.019,0.512 -0.436,0.503 a 84.521,84.521 0 0 0 -3.768,0 c -0.423,0.01 -0.431,-0.186 -0.431,-0.507 0.011,-3.605 0.008,-7.211 0.008,-10.818 z M 291.039,8.5 c 0,0.848 0.013,1.696 -0.007,2.544 -0.008,0.318 0.094,0.411 0.407,0.404 0.888,-0.019 1.777,0.017 2.664,-0.019 0.329,-0.014 0.705,-0.093 0.966,-0.277 0.39,-0.275 0.754,-0.629 1.024,-1.022 0.248,-0.361 0.348,-0.821 0.531,-1.229 0.176,-0.395 -0.196,-0.641 -0.245,-0.983 -0.165,-1.161 -1.141,-2.212 -2.234,-2.298 -0.998,-0.079 -2.009,0.001 -3.015,0.011 l -0.092,2.627 c -0.001,0.081 10e-4,0.162 10e-4,0.242 z m -156.462,3.841 c 0,-3.483 -0.001,-6.967 0.001,-10.45 0.001,-0.661 0.008,-0.667 0.616,-0.668 3.605,-0.002 7.21,0.002 10.815,-0.007 0.329,-10e-4 0.512,0.022 0.501,0.437 a 60.793,60.793 0 0 0 0,3.28 c 0.012,0.424 -0.187,0.432 -0.507,0.43 -2.187,-0.01 -4.374,10e-4 -6.562,-0.012 -0.338,-0.002 -0.503,0.039 -0.495,0.444 0.027,1.255 0.007,2.511 0.011,3.767 0.002,0.654 0.008,0.661 0.623,0.661 2.147,0.003 4.293,0.008 6.44,-0.006 0.344,-0.002 0.497,0.053 0.489,0.45 a 85.177,85.177 0 0 0 0,3.645 c 0.009,0.404 -0.048,0.557 -0.517,0.55 -2.187,-0.033 -4.374,-0.007 -6.562,-0.022 -0.351,-0.002 -0.485,0.069 -0.482,0.456 0.017,2.592 0,5.185 0.018,7.777 0.003,0.405 -0.047,0.573 -0.518,0.548 -1.28,-0.07 -2.565,-0.078 -3.847,-0.111 -0.008,-1.212 -0.021,-2.424 -0.023,-3.636 -0.003,-2.511 -0.001,-5.022 -0.001,-7.533 z m 68.863,7.003 c 0,-1.135 -0.031,-2.27 0.014,-3.403 0.02,-0.499 -0.151,-0.902 -0.359,-1.316 -1.183,-2.346 -2.356,-4.697 -3.551,-7.038 a 549.434,549.434 0 0 0 -3.068,-5.9 c -0.15,-0.285 -0.151,-0.459 0.206,-0.461 1.378,-0.01 2.755,0.002 4.133,-0.007 0.439,-0.003 0.539,0.26 0.712,0.617 1.176,2.433 2.401,4.842 3.622,7.252 0.154,0.304 0.377,0.574 0.568,0.859 0.214,-0.293 0.484,-0.561 0.634,-0.884 1.175,-2.515 2.289,-5.059 3.642,-7.488 0.095,-0.17 0.054,-0.359 0.333,-0.357 1.418,0.009 2.836,-10e-4 4.254,0.008 0.367,0.002 0.343,0.183 0.202,0.463 -2.212,4.391 -4.408,8.79 -6.63,13.176 -0.238,0.47 -0.344,0.924 -0.34,1.443 0.016,2.269 0.002,4.538 0.013,6.807 0.002,0.326 -0.017,0.514 -0.435,0.504 a 71.423,71.423 0 0 0 -3.525,0 c -0.422,0.01 -0.435,-0.184 -0.432,-0.506 0.015,-1.257 0.007,-2.513 0.007,-3.769 z m 121.909,-4.37 c 0,2.876 -0.004,5.752 0.006,8.628 10e-4,0.326 -0.017,0.513 -0.435,0.503 a 71.382,71.382 0 0 0 -3.524,0 c -0.42,0.01 -0.437,-0.182 -0.433,-0.505 0.015,-1.094 0.006,-2.187 0.006,-3.281 0,-4.537 0.001,-9.073 -10e-4,-13.61 0,-0.86 -0.004,-0.861 -0.908,-0.863 -0.77,-0.002 -1.539,-0.006 -2.309,0.003 -0.267,0.003 -0.448,0 -0.442,-0.371 0.024,-1.296 0.024,-2.592 0,-3.888 -0.007,-0.373 0.178,-0.373 0.443,-0.37 0.648,0.008 1.296,0.003 1.944,0.003 2.876,0 5.752,-0.001 8.628,10e-4 0.915,0.001 0.916,0.004 0.917,0.976 v 3.524 c -1.158,0.041 -2.315,0.106 -3.473,0.11 -0.429,0.002 -0.426,0.201 -0.425,0.514 0.009,2.874 0.006,5.75 0.006,8.626 z M 191.03,12.404 c 0,-3.565 0.004,-7.131 -0.007,-10.696 -0.001,-0.338 0.038,-0.504 0.443,-0.495 1.215,0.027 2.431,0.024 3.646,10e-4 0.394,-0.007 0.575,0.028 0.556,0.512 -0.047,1.173 -0.015,2.349 -0.015,3.524 0,4.538 -0.001,9.076 0.001,13.613 0,0.596 0.007,0.605 0.556,0.606 1.54,0.005 3.079,0.007 4.619,-0.003 0.284,-0.002 0.442,0.033 0.428,0.385 -0.05,1.242 -0.07,2.486 -0.101,3.729 -1.171,0.009 -2.342,0.024 -3.513,0.026 -1.985,0.004 -3.971,0.003 -5.956,0 -0.648,-0.001 -0.655,-0.008 -0.656,-0.629 -0.002,-3.322 -0.001,-6.645 -0.001,-9.967 z m -5.353,-0.051 c 0,-3.485 -0.001,-6.97 0.001,-10.455 0.001,-0.669 0.008,-0.683 0.609,-0.674 1.245,0.019 2.489,0.054 3.733,0.082 0.012,1.211 0.034,2.421 0.035,3.632 0.004,5.876 0.002,11.752 0.002,17.628 0,0.243 -0.012,0.487 0.003,0.729 0.017,0.284 -0.134,0.318 -0.37,0.316 -1.216,-0.009 -2.432,-0.02 -3.647,0.005 -0.376,0.008 -0.371,-0.181 -0.368,-0.444 0.007,-0.77 0.003,-1.54 0.003,-2.31 z"
       id="path36690" />
    <path
       d="M 522.934,69.134 V 39.941 c 0,-0.324 -0.022,-0.651 0.013,-0.972 0.011,-0.1 0.168,-0.248 0.273,-0.262 0.279,-0.037 0.566,-0.013 0.85,-0.013 2.311,0 4.623,-0.045 6.933,0.014 1.802,0.046 3.567,-0.371 5.374,-0.278 1.779,0.092 3.567,0.015 5.351,0.021 1.934,0.007 3.522,0.801 5.023,1.991 1.249,0.99 2.015,2.255 2.713,3.616 0.054,0.105 0.213,0.156 0.323,0.232 0.052,-0.093 0.149,-0.186 0.15,-0.279 0.007,-0.724 0.527,-1.214 0.918,-1.679 1.159,-1.381 2.542,-2.482 4.348,-2.982 0.304,-0.084 0.597,-0.163 0.898,-0.163 5.23,-0.008 10.461,-0.003 15.691,-0.009 0.919,-10e-4 1.688,0.431 2.45,0.839 1.095,0.586 1.776,1.536 2.246,2.689 0.283,0.694 0.466,1.376 0.465,2.119 l -10e-4,24.328 v 29.071 c 0,0.284 -0.024,0.57 0.006,0.851 0.041,0.384 -0.119,0.464 -0.476,0.461 -2.068,-0.016 -4.136,-0.008 -6.203,-0.008 -1.581,0 -3.163,-0.025 -4.743,0.015 -0.478,0.012 -0.557,-0.154 -0.511,-0.554 0.027,-0.24 0.005,-0.486 0.005,-0.729 0,-14.475 -0.006,-28.95 0.013,-43.425 10e-4,-0.954 -0.286,-1.821 -0.506,-2.716 -0.035,-0.141 -0.135,-0.272 -0.228,-0.39 -0.1,-0.127 -0.241,-0.221 -0.339,-0.348 -0.923,-1.21 -2.222,-1.619 -3.637,-1.457 -0.886,0.102 -1.824,0.089 -2.661,0.605 -1.036,0.638 -1.806,1.477 -2.281,2.574 -0.133,0.308 -0.091,0.701 -0.092,1.055 -0.004,9.731 -0.003,19.462 -0.003,29.193 0,5.19 10e-4,10.379 -0.001,15.569 0,0.597 -0.007,0.607 -0.556,0.607 -3.528,0.003 -7.055,-0.004 -10.582,0.009 -0.394,0.002 -0.634,-0.029 -0.548,-0.514 0.042,-0.236 0.007,-0.485 0.007,-0.728 0,-14.394 -0.007,-28.788 0.016,-43.181 a 7.496,7.496 0 0 0 -0.539,-2.825 c -0.51,-1.263 -1.587,-2.077 -2.826,-2.643 -1.519,0.009 -3.084,-0.207 -4.438,0.735 -1.168,0.813 -1.949,1.87 -1.949,3.377 0.003,14.84 0.002,29.679 -10e-4,44.519 0,0.397 0.108,0.941 -0.1,1.149 -0.209,0.209 -0.753,0.098 -1.15,0.099 -3,0.005 -6.001,0.004 -9.001,0.002 -0.689,-10e-4 -0.695,-0.007 -0.695,-0.713 z M 57.319,4.629 c 11.68,0 23.359,-0.012 35.039,0.012 1.91,0.004 3.587,0.728 4.984,2.052 0.177,0.167 0.331,0.36 0.519,0.513 1.215,0.993 1.839,2.359 2.299,3.793 0.208,0.648 0.368,1.325 0.367,2.047 -0.023,10.382 -0.004,20.764 -0.039,31.145 -0.003,0.795 0.245,1.124 0.947,1.416 2.296,0.959 4.094,2.625 5.672,4.477 1.252,1.469 2.08,3.241 2.633,5.101 0.197,0.662 0.212,1.385 0.253,2.084 0.04,0.687 -0.023,1.38 0.015,2.067 0.098,1.742 -0.454,3.344 -1.118,4.893 -0.449,1.047 -1.138,1.99 -1.873,2.873 -1.249,1.5 -2.837,2.607 -4.434,3.69 -0.49,0.332 -1.139,0.35 -1.666,0.68 -0.248,0.156 -0.431,0.208 -0.415,0.557 0.034,0.728 0.01,1.459 0.01,2.189 0,3.407 0.004,6.813 -0.006,10.22 -0.001,0.33 0.077,0.408 0.427,0.523 0.75,0.248 1.53,0.344 2.279,0.659 1.684,0.707 3.031,1.997 3.638,3.75 0.282,0.815 0.183,1.636 0.238,2.458 0.114,1.693 -0.354,2.49 -1.294,3.964 -0.279,0.437 -0.807,0.733 -1.258,1.039 -0.623,0.424 -1.204,0.898 -1.99,1.084 -0.3,0.071 -0.6,0.149 -0.902,0.149 -10.098,0.007 -20.196,0.006 -30.294,0.005 -0.708,0 -0.837,-0.055 -1.004,-0.663 -0.376,-1.369 -1.069,-2.589 -1.87,-3.723 -1.366,-1.934 -3.046,-3.534 -5.327,-4.389 -1.1,-0.413 -2.187,-0.795 -3.366,-1.01 -1.079,-0.196 -2.134,-0.199 -3.193,-0.174 -2.655,0.064 -5.082,0.871 -7.28,2.387 -2.047,1.412 -3.428,3.352 -4.518,5.534 a 12.199,12.199 0 0 0 -0.696,1.657 c -0.085,0.262 -0.124,0.424 -0.443,0.389 -0.281,-0.03 -0.567,-0.006 -0.851,-0.006 -9.692,0 -19.385,-0.02 -29.077,0.024 C 12.41,98.101 11.312,97.711 10.274,97.007 9.856,96.724 9.446,96.413 9.09,96.057 8.734,95.701 8.304,95.317 8.169,94.866 7.963,94.182 7.538,93.557 7.555,92.804 7.57,92.115 7.5,91.419 7.57,90.737 c 0.169,-1.661 0.762,-3.091 2.196,-4.12 0.723,-0.519 1.493,-0.874 2.282,-1.253 0.555,-0.266 1.208,0.072 1.649,-0.432 0.412,0.072 0.439,-0.161 0.438,-0.491 -0.01,-2.798 -0.006,-5.597 -0.006,-8.395 0,-1.338 -0.015,-2.677 0.01,-4.015 0.007,-0.347 -0.147,-0.416 -0.421,-0.552 C 12.842,71.046 11.913,70.728 11.103,70.138 10.578,69.756 9.976,69.477 9.511,69.001 8.591,68.059 7.561,67.207 6.86,66.081 6.404,65.349 5.924,64.634 5.577,63.817 5.189,62.902 5.08,61.921 4.7,61.017 4.642,60.879 4.642,60.71 4.641,60.556 4.637,59.299 4.562,58.035 4.662,56.786 a 10.61,10.61 0 0 1 0.79,-3.193 c 0.993,-2.396 2.62,-4.341 4.562,-6.009 1.124,-0.965 2.449,-1.662 3.788,-2.297 0.202,-0.096 0.345,-0.106 0.33,-0.363 -0.017,-0.283 -0.004,-0.568 -0.004,-0.851 0,-10.341 -0.027,-20.683 0.023,-31.024 0.01,-2.084 0.813,-3.954 2.283,-5.494 C 17.225,6.726 18.038,5.912 19.08,5.42 20.083,4.946 21.143,4.629 22.282,4.63 33.961,4.631 45.64,4.629 57.319,4.629 Z m 21.514,53.289 c 0.809,-0.119 1.782,0.014 2.784,-0.183 1.09,-0.214 2.161,-0.454 3.213,-0.794 2.151,-0.694 4.135,-1.756 5.832,-3.218 1.436,-1.237 2.809,-2.577 3.821,-4.237 a 25.259,25.259 0 0 0 2.158,-4.463 c 0.507,-1.38 0.597,-2.828 0.933,-4.233 0.195,-0.815 0.089,-4.381 -0.275,-5.101 -0.239,-0.473 -0.098,-0.912 -0.27,-1.352 -0.654,-1.677 -1.151,-3.411 -2.101,-4.972 -0.649,-1.066 -1.411,-2.04 -2.234,-2.957 a 15.918,15.918 0 0 0 -2.183,-2.023 c -1.344,-1.028 -2.713,-1.936 -4.292,-2.586 a 39.473,39.473 0 0 0 -2.85,-1.039 c -1.007,-0.326 -2.12,-0.352 -3.183,-0.533 -0.788,-0.134 -1.619,-0.058 -2.428,-0.017 -0.78,0.039 -1.597,0.031 -2.318,0.278 -0.467,0.161 -0.942,0.062 -1.357,0.242 -1.65,0.716 -3.447,1.05 -4.968,2.122 -1.073,0.757 -2.228,1.393 -3.16,2.34 -0.867,0.881 -1.8,1.703 -2.491,2.741 -0.484,0.727 -1.009,1.442 -1.384,2.225 -0.764,1.597 -1.63,3.171 -1.719,5.005 -0.489,0.422 -0.022,1.068 -0.285,1.456 -0.348,0.514 -0.207,1.018 -0.183,1.504 0.064,1.264 -0.08,2.518 0.162,3.805 0.213,1.132 0.468,2.247 0.814,3.329 a 16.116,16.116 0 0 0 1.966,4.048 20.854,20.854 0 0 0 3.311,3.855 c 1.818,1.652 3.886,2.824 6.156,3.667 1.81,0.673 3.678,1.124 5.632,1.09 0.244,-0.003 0.488,10e-4 0.899,10e-4 z M 17.048,39.244 c 0.102,0.882 -0.085,1.939 0.205,3.016 0.255,0.948 0.475,1.91 0.73,2.864 0.325,1.218 0.861,2.329 1.503,3.393 0.82,1.359 1.727,2.66 2.815,3.822 0.836,0.893 1.838,1.595 2.817,2.311 0.762,0.556 1.593,1.03 2.433,1.461 0.528,0.271 1.193,0.301 1.684,0.615 0.567,0.362 1.205,0.473 1.799,0.654 0.986,0.3 2.04,0.503 3.067,0.507 1.587,0.006 3.169,0.103 4.774,-0.161 a 21.679,21.679 0 0 0 4.163,-1.144 c 1.817,-0.687 3.473,-1.746 4.954,-2.998 1.869,-1.58 3.435,-3.457 4.567,-5.641 a 16.656,16.656 0 0 0 1.51,-4.125 c 0.117,-0.536 0.24,-1.101 0.434,-1.637 0.184,-0.508 -0.065,-1.06 0.172,-1.633 0.214,-0.52 0.081,-1.187 0.085,-1.788 0.003,-0.4 0.112,-0.884 -0.07,-1.179 -0.25,-0.403 -0.097,-0.777 -0.172,-1.153 -0.074,-0.373 -0.185,-0.741 -0.237,-1.117 a 12.215,12.215 0 0 0 -1.108,-3.678 c -0.805,-1.649 -1.726,-3.203 -2.874,-4.667 -0.926,-1.18 -2.013,-2.147 -3.159,-3.006 -1.646,-1.235 -4.492,-2.903 -7.513,-3.271 -0.526,-0.427 -1.224,-0.028 -1.705,-0.28 -0.6,-0.315 -1.17,-0.185 -1.743,-0.189 -0.901,-0.006 -1.792,-0.012 -2.708,0.175 -0.859,0.176 -1.727,0.324 -2.592,0.512 -1.648,0.358 -3.152,1.046 -4.577,1.877 -1.526,0.89 -2.852,2.056 -4.117,3.314 -1.898,1.887 -3.174,4.135 -4.086,6.59 -0.67,1.804 -1.18,3.677 -1.053,5.649 0.016,0.242 0.002,0.486 0.002,0.907 z m 377.407,27.64 v 26.88 c 0,1.74 -1.032,3.54 -2.515,4.559 -0.635,0.436 -1.255,0.817 -2.01,1.039 -0.306,0.09 -0.598,0.159 -0.9,0.16 -8.19,0.007 -16.379,0.006 -24.569,0.006 -0.081,0 -0.163,-0.007 -0.243,10e-4 -0.283,0.028 -0.432,-0.028 -0.43,-0.38 0.014,-3 0.011,-6 0.004,-9.001 -10e-4,-0.249 0.06,-0.372 0.331,-0.357 0.283,0.016 0.567,0.004 0.851,0.004 4.257,0 8.514,-0.006 12.771,0.004 1.304,0.003 2.343,-0.662 3.319,-1.371 0.786,-0.571 1.079,-1.548 1.463,-2.419 0.045,-0.102 0.006,-0.241 0.006,-0.362 0,-1.581 -0.004,-3.162 0.005,-4.743 10e-4,-0.249 -0.059,-0.372 -0.33,-0.357 -0.283,0.015 -0.567,0.003 -0.851,0.003 -4.663,0 -9.325,0.027 -13.987,-0.011 -2.345,-0.019 -4.13,-1.096 -5.272,-3.165 -0.557,-1.008 -0.811,-2.093 -1.029,-3.234 -0.245,-1.282 -0.175,-2.538 -0.178,-3.801 -0.022,-10.055 -0.012,-20.109 -0.012,-30.164 0,-0.284 0.023,-0.57 -0.006,-0.851 -0.036,-0.35 0.138,-0.415 0.425,-0.384 0.08,0.009 0.162,0.001 0.243,0.001 3.446,0 6.892,-0.001 10.339,10e-4 0.673,10e-4 0.678,0.007 0.678,0.729 0.001,8.676 0.012,17.353 -0.008,26.029 -0.005,1.949 0.905,3.22 2.641,3.974 0.172,0.075 0.355,0.138 0.539,0.164 0.379,0.054 0.791,-0.111 1.127,0.236 0.074,0.076 0.387,0.063 0.452,-0.018 0.258,-0.323 0.59,-0.185 0.894,-0.212 1.719,-0.148 3.074,-0.806 3.869,-2.465 0.316,-0.659 0.472,-1.281 0.471,-1.999 -0.013,-8.392 -0.008,-16.785 -0.008,-25.177 0,-0.324 -0.021,-0.651 0.012,-0.972 0.011,-0.105 0.15,-0.228 0.26,-0.281 0.099,-0.048 0.238,-0.01 0.36,-0.01 3.527,0 7.055,-10e-4 10.582,0.001 0.701,10e-4 0.708,0.006 0.708,0.699 0.002,8.514 0.001,17.028 0.001,25.542 -0.003,0.566 -0.003,1.134 -0.003,1.702 z m -60.27,32.887 c -3.041,0 -6.082,-0.04 -9.122,0.012 -2.746,0.047 -4.928,-1.077 -6.581,-3.162 -0.662,-0.836 -1.009,-1.899 -1.202,-3.027 a 18.479,18.479 0 0 1 -0.168,-4.89 c 0.388,-4.023 0.096,-8.046 0.207,-12.066 0.015,-0.544 0.053,-0.58 0.511,-0.318 0.985,0.562 1.962,1.14 2.938,1.717 a 316.99,316.99 0 0 1 3.022,1.806 c 1.518,0.923 3.025,1.862 4.609,2.674 0.242,0.124 0.391,0.356 0.368,0.697 -0.041,0.606 -0.012,1.216 -0.011,1.824 0.001,1.996 0.969,3.736 2.74,4.665 0.62,0.325 1.367,0.487 2.071,0.549 a 3.524,3.524 0 0 0 1.687,-0.294 c 1.384,-0.628 2.655,-1.404 3.267,-2.947 0.121,-0.306 0.209,-0.576 0.209,-0.885 0.004,-2.189 -0.027,-4.379 0.022,-6.568 0.013,-0.581 -0.232,-1 -0.646,-1.177 -1.345,-0.577 -2.42,-1.568 -3.669,-2.29 a 48.565,48.565 0 0 1 -2.703,-1.702 c -0.853,-0.573 -1.665,-1.188 -2.599,-1.653 -0.849,-0.422 -1.577,-1.082 -2.38,-1.603 -1.435,-0.931 -2.889,-1.833 -4.332,-2.753 -0.387,-0.247 -0.801,-0.473 -1.131,-0.784 -1.37,-1.295 -2.723,-2.609 -3.49,-4.388 -0.258,-0.6 -0.476,-1.215 -0.478,-1.867 -0.011,-5.514 -0.017,-11.028 0.002,-16.542 0.004,-1.085 0.475,-2.08 0.99,-2.988 a 6.959,6.959 0 0 1 3.013,-2.828 c 0.629,-0.309 1.344,-0.533 2.09,-0.532 6.568,0.005 13.136,10e-4 19.704,0.006 0.696,10e-4 1.345,0.252 1.986,0.489 1.387,0.513 2.643,1.261 3.639,2.361 1.193,1.318 1.918,2.845 1.912,4.679 -0.016,4.744 0.017,9.487 -0.027,14.231 -0.007,0.804 0.325,1.537 0.27,2.332 -0.039,0.558 -0.021,0.568 -0.596,0.252 -0.925,-0.509 -1.889,-0.965 -2.752,-1.565 -0.754,-0.525 -1.587,-0.888 -2.358,-1.369 -1.514,-0.944 -3.027,-1.89 -4.548,-2.822 -0.611,-0.375 -1.222,-0.765 -1.873,-1.057 -0.599,-0.269 -0.82,-0.661 -0.783,-1.292 0.036,-0.606 0.003,-1.216 0.009,-1.824 0.012,-1.286 -0.691,-2.206 -1.608,-2.966 -0.393,-0.326 -0.917,-0.515 -1.405,-0.702 -0.425,-0.162 -0.955,0.107 -1.341,-0.287 -0.852,0.31 -1.782,0.352 -2.606,0.756 a 4.265,4.265 0 0 0 -1.751,1.572 3.832,3.832 0 0 0 -0.537,1.959 c 0.002,2.068 0.023,4.136 -0.013,6.203 -0.011,0.616 0.262,0.926 0.756,1.199 0.664,0.368 1.297,0.793 1.933,1.209 2.011,1.314 3.969,2.719 6.04,3.928 1.707,0.996 3.235,2.26 5.01,3.157 0.768,0.388 1.459,0.969 2.197,1.446 1.448,0.936 2.821,1.975 4.021,3.238 a 8.267,8.267 0 0 1 1.872,3.122 c 0.085,0.253 0.08,0.544 0.08,0.817 0.004,5.027 0.042,10.055 -0.017,15.082 -0.022,1.868 -0.657,3.615 -1.899,5.034 -0.712,0.814 -1.802,1.644 -3.333,1.927 a 10.75,10.75 0 0 1 -1.974,0.203 c -3.079,0.004 -6.16,0.002 -9.242,0.002 z m 87.114,0 c -3.041,0 -6.082,-0.023 -9.123,0.009 -1.624,0.018 -3.095,-0.399 -4.489,-1.216 -0.921,-0.54 -1.552,-1.37 -2.268,-2.11 -0.449,-0.464 -0.855,-2.075 -1.001,-2.743 -0.477,-2.188 -0.114,-4.397 -0.228,-6.592 -0.092,-1.758 0.349,-3.486 0.261,-5.252 -0.087,-1.739 -0.022,-3.486 -0.017,-5.23 0.002,-0.545 0.05,-0.579 0.51,-0.317 0.986,0.562 1.964,1.136 2.937,1.719 0.976,0.584 1.95,1.173 2.911,1.782 1.57,0.996 3.221,1.857 4.773,2.886 0.264,0.175 0.301,0.282 0.302,0.508 0.004,0.649 0.014,1.298 -0.001,1.946 -0.032,1.394 0.528,2.503 1.435,3.552 0.923,1.067 2.168,1.264 3.385,1.538 0.452,0.102 1.01,-0.055 1.468,-0.228 1.362,-0.515 2.58,-1.254 3.269,-2.615 0.24,-0.474 0.431,-0.968 0.427,-1.528 -0.015,-2.108 -0.009,-4.217 -0.004,-6.325 10e-4,-0.453 0.031,-0.907 -0.601,-0.953 -2.104,-1.665 -4.437,-2.992 -6.69,-4.426 -1.661,-1.057 -3.231,-2.262 -5.004,-3.163 -1.117,-0.568 -2.092,-1.413 -3.14,-2.119 -0.376,-0.253 -0.793,-0.444 -1.17,-0.695 -1.508,-1.003 -2.73,-2.329 -3.734,-3.793 -0.648,-0.944 -1.111,-2.043 -1.098,-3.315 0.051,-5.27 0.039,-10.542 0.009,-15.813 -0.007,-1.32 0.469,-2.485 1.063,-3.575 0.638,-1.172 1.643,-2.065 2.866,-2.668 0.307,-0.151 1.884,-0.583 2.191,-0.583 6.528,-10e-4 13.056,-0.002 19.584,0.002 0.698,0 1.331,0.29 1.993,0.466 1.219,0.325 2.194,1.065 3.139,1.805 1.045,0.816 1.692,2.004 2.227,3.199 0.243,0.543 0.271,1.214 0.273,1.827 0.019,5.596 0.012,11.191 0.008,16.787 0,0.151 -0.052,0.301 -0.08,0.452 -0.123,-0.068 -0.248,-0.135 -0.37,-0.206 -1.08,-0.622 -2.164,-1.239 -3.239,-1.87 a 200.838,200.838 0 0 1 -3.023,-1.806 c -1.49,-0.91 -2.972,-1.833 -4.456,-2.751 -0.034,-0.021 -0.054,-0.075 -0.087,-0.082 -1.347,-0.302 -1.503,-1.261 -1.408,-2.425 0.07,-0.852 -0.032,-1.661 -0.432,-2.494 -0.406,-0.845 -1.062,-1.271 -1.773,-1.707 a 3.542,3.542 0 0 0 -1.619,-0.515 c -1.946,-0.158 -3.597,0.444 -4.802,2.009 a 2.969,2.969 0 0 0 -0.611,1.808 c 0.009,2.149 0.028,4.298 -0.014,6.447 -0.011,0.572 0.24,0.932 0.643,1.187 1.157,0.731 2.338,1.419 3.472,2.191 1.764,1.2 3.537,2.394 5.367,3.489 1.897,1.134 3.694,2.416 5.569,3.58 1.718,1.067 3.423,2.151 4.816,3.654 0.637,0.687 1.109,1.471 1.562,2.275 0.068,0.121 0.487,1.628 0.487,1.744 0,5.028 0.049,10.056 -0.031,15.083 -0.022,1.389 -0.356,2.801 -1.193,3.992 -0.367,0.522 -0.812,0.991 -1.236,1.472 -0.126,0.143 -0.317,0.229 -0.452,0.366 -0.444,0.452 -0.945,0.709 -1.579,0.903 -0.787,0.24 -1.546,0.443 -2.368,0.441 -3.199,-0.009 -6.403,-0.004 -9.606,-0.004 z m -200.194,0 c -3.041,0 -6.083,-0.043 -9.122,0.02 a 8.164,8.164 0 0 1 -3.687,-0.801 c -1.297,-0.621 -2.476,-1.511 -3.179,-2.926 -0.58,-1.166 -0.964,-2.313 -0.956,-3.625 0.027,-4.743 0.01,-9.487 0.01,-14.231 0,-0.284 -0.044,-0.577 0.01,-0.849 0.081,-0.404 0.232,-0.793 0.353,-1.189 0.334,0.171 0.681,0.322 1,0.517 1.49,0.909 2.966,1.842 4.46,2.744 0.937,0.566 1.901,1.089 2.847,1.639 0.948,0.551 1.895,1.105 2.831,1.677 0.099,0.061 0.167,0.247 0.17,0.377 0.016,0.77 0.013,1.541 0.007,2.311 -0.015,1.868 0.849,3.187 2.439,4.132 0.754,0.448 1.588,0.614 2.386,0.665 0.717,0.046 1.514,-0.222 2.182,-0.544 1.116,-0.538 2.16,-1.236 2.557,-2.528 0.167,-0.542 0.382,-1.099 0.395,-1.654 0.048,-1.986 0.015,-3.973 0.021,-5.96 0.001,-0.457 0.023,-0.907 -0.61,-0.945 -2.641,-1.748 -5.241,-3.564 -7.941,-5.216 -1.297,-0.793 -2.54,-1.666 -3.842,-2.451 -1.275,-0.768 -2.419,-1.774 -3.742,-2.434 -0.823,-0.411 -1.497,-0.989 -2.134,-1.548 -1.126,-0.988 -2.091,-2.176 -2.711,-3.595 -0.25,-0.573 -0.444,-1.128 -0.443,-1.766 0.012,-5.676 0.019,-11.352 -0.003,-17.028 -0.005,-1.216 0.471,-2.289 1.148,-3.164 0.801,-1.035 1.727,-2.028 3.08,-2.488 0.622,-0.211 1.199,-0.467 1.875,-0.466 6.365,0.01 12.731,0.008 19.096,0.005 1.582,-0.001 2.984,0.594 4.284,1.396 a 8.787,8.787 0 0 1 2.837,2.805 c 0.254,0.403 0.774,1.804 0.782,2.231 0.083,4.426 0.17,8.852 0.24,13.279 0.024,1.5 0.006,3 0,4.5 0,0.11 -0.049,0.312 -0.082,0.314 a 0.787,0.787 0 0 1 -0.412,-0.087 171,171 0 0 1 -3.022,-1.809 c -1.52,-0.936 -3.003,-1.934 -4.553,-2.816 -1.416,-0.806 -2.787,-1.684 -4.206,-2.477 -0.314,-0.176 -0.381,-0.289 -0.377,-0.577 a 80.56,80.56 0 0 0 0.001,-1.703 c -0.016,-1.754 -1.285,-4.028 -3.715,-4.358 -1.448,-0.197 -3.189,0.197 -4.326,1.121 -0.763,0.62 -1.179,1.453 -1.194,2.419 -0.035,2.392 -0.003,4.784 -0.021,7.176 -0.003,0.34 0.169,0.392 0.409,0.559 0.878,0.609 1.82,1.112 2.702,1.708 a 51.385,51.385 0 0 0 2.591,1.664 c 1.012,0.598 1.96,1.322 2.968,1.948 1.55,0.962 3.025,2.036 4.62,2.938 1.328,0.75 2.559,1.676 3.803,2.567 0.606,0.434 1.127,0.987 1.716,1.448 0.856,0.669 1.515,1.504 2.133,2.382 0.478,0.679 0.745,1.388 0.739,2.255 -0.032,5.068 -0.038,10.136 -0.005,15.204 0.014,2.229 -0.68,4.106 -2.374,5.592 -0.409,0.359 -0.806,0.688 -1.313,0.941 a 6.505,6.505 0 0 1 -2.874,0.691 c -3.28,0.031 -6.564,0.01 -9.848,0.01 z M 246.996,68.869 V 39.915 c 0,-0.243 0.017,-0.488 -0.004,-0.729 -0.029,-0.332 0.023,-0.524 0.437,-0.5 0.606,0.036 1.216,0.009 1.824,0.009 2.879,0 5.758,-10e-4 8.638,10e-4 0.779,0.001 0.784,0.005 0.785,0.745 0.002,4.623 -0.174,9.254 0.057,13.866 0.177,3.54 0.099,7.073 0.191,10.608 0.003,0.107 0.069,0.213 0.106,0.319 0.086,-0.079 0.175,-0.154 0.258,-0.236 2.639,-2.637 5.271,-5.281 7.919,-7.909 0.505,-0.502 0.731,-1.054 0.727,-1.775 -0.023,-3.771 -0.048,-7.543 0.01,-11.313 0.019,-1.262 0.305,-2.517 0.236,-3.793 -0.005,-0.084 0.169,-0.195 0.279,-0.262 0.059,-0.036 0.158,-0.006 0.239,-0.006 3.366,0 6.732,-0.002 10.097,0.002 0.556,0 0.563,0.01 0.563,0.6 0.002,6.529 -0.01,13.058 0.017,19.586 0.003,0.722 -0.43,1.156 -0.8,1.616 -0.722,0.897 -1.57,1.693 -2.299,2.585 -1.051,1.287 -2.092,2.58 -3.276,3.75 -0.082,0.081 -0.138,0.187 -0.212,0.276 -0.301,0.362 -0.596,0.731 -0.91,1.082 -0.287,0.32 -0.284,0.299 0.327,0.954 0.317,0.34 0.561,0.746 0.869,1.095 0.763,0.865 1.576,1.688 2.312,2.575 0.983,1.185 1.925,2.401 3.012,3.497 0.326,0.329 0.586,0.725 0.862,1.101 0.063,0.086 0.085,0.212 0.096,0.323 0.016,0.161 0.004,0.324 0.004,0.486 0,6.691 10e-4,13.382 -0.001,20.073 0,0.736 -0.005,0.743 -0.664,0.743 -3.609,0.002 -7.218,0.003 -10.827,0 -0.668,-0.001 -0.673,-0.007 -0.673,-0.734 l -10e-4,-14.842 c 0.346,-1.258 -0.497,-1.975 -1.318,-2.594 a 12.838,12.838 0 0 1 -0.989,-0.811 c -0.416,-0.385 -0.799,-0.807 -1.209,-1.199 -1.655,-1.581 -3.315,-3.156 -4.974,-4.732 -0.051,-0.048 -0.114,-0.084 -0.171,-0.126 -0.033,0.068 -0.092,0.134 -0.094,0.203 -0.01,0.324 -0.005,0.649 -0.005,0.973 v 22.385 c 0,0.324 0.023,0.651 -0.014,0.972 -0.011,0.098 -0.17,0.208 -0.285,0.255 -0.104,0.043 -0.239,0.009 -0.361,0.009 -3.366,0 -6.732,10e-4 -10.097,-0.001 -0.674,-0.001 -0.678,-0.007 -0.679,-0.729 -0.002,-9.816 -0.002,-19.63 -0.002,-29.444 z m 239.439,0.962 V 40.388 c 0,-0.284 0.013,-0.569 -0.004,-0.851 -0.015,-0.249 0.056,-0.377 0.329,-0.358 0.202,0.014 0.405,0.003 0.608,0.003 h 22.751 c 0.203,0 0.413,-0.031 0.606,0.012 0.11,0.024 0.208,0.159 0.28,0.266 0.038,0.056 0.007,0.158 0.007,0.239 0,3.082 -0.007,6.164 0.008,9.246 0.002,0.376 -0.113,0.465 -0.475,0.464 -3.853,-0.012 -7.705,-0.008 -11.558,-0.007 -0.868,0 -0.871,0.004 -0.872,0.902 v 13.383 c 0,0.797 0.005,0.8 0.851,0.801 l 11.558,0.001 c 0.722,0 0.728,0.005 0.729,0.679 0.003,3.042 0.003,6.083 0,9.125 -10e-4,0.651 -0.008,0.657 -0.628,0.658 -3.772,0.002 -7.543,0.001 -11.315,0.001 -0.284,0 -0.569,0.013 -0.851,-0.004 -0.257,-0.015 -0.356,0.075 -0.349,0.339 0.015,0.527 0.004,1.054 0.004,1.582 0,4.015 0.002,8.03 -0.002,12.045 -0.001,0.747 -0.018,0.639 0.651,0.639 h 11.071 c 0.284,0 0.568,0.012 0.851,-0.003 0.272,-0.015 0.329,0.111 0.329,0.359 -0.006,3.407 -0.01,6.813 0.004,10.22 0.001,0.36 -0.159,0.384 -0.435,0.378 -0.568,-0.012 -1.136,-0.004 -1.703,-0.004 h -21.17 c -0.243,0 -0.488,-0.018 -0.73,0.004 -0.38,0.035 -0.65,0 -0.555,-0.503 0.044,-0.235 0.008,-0.485 0.008,-0.729 0.002,-9.816 0.002,-19.63 0.002,-29.444 z m -30.904,4.635 V 50.631 c 0,-0.284 -0.024,-0.57 0.006,-0.851 0.038,-0.357 -0.148,-0.384 -0.429,-0.383 -1.378,0.009 -2.757,0.004 -4.135,0.004 -1.095,0 -2.189,-0.004 -3.284,0.003 -0.268,0.002 -0.442,-0.003 -0.441,-0.372 0.015,-3.243 0.011,-6.486 0.005,-9.729 -10e-4,-0.239 0.035,-0.386 0.318,-0.369 0.242,0.015 0.486,0.003 0.729,0.003 h 26.632 c 0.243,0 0.487,0.011 0.729,-0.003 0.288,-0.017 0.312,0.143 0.311,0.374 -0.005,3.324 -0.01,6.648 0.005,9.972 0.002,0.378 -0.186,0.366 -0.447,0.365 -2.108,-0.004 -4.216,-0.006 -6.324,0 -0.561,0.002 -1.121,0.03 -1.682,0.047 -0.024,0.557 -0.07,1.115 -0.07,1.672 -0.004,15.728 -0.003,31.456 -0.003,47.184 0,0.974 -0.002,0.977 -0.917,0.977 h -10.093 c -0.91,0 -0.911,-0.004 -0.912,-0.983 V 81.517 c 0.002,-2.349 0.002,-4.7 0.002,-7.051 z M 137.497,69.284 V 39.72 c 0,-0.243 0.022,-0.489 -0.005,-0.729 -0.045,-0.399 0.033,-0.807 0.511,-0.798 1.824,0.037 26.329,-0.062 26.646,0.061 0.803,0.313 1.756,0.244 2.414,0.927 0.685,0.081 0.833,0.953 1.519,1.033 0.782,1.119 1.612,2.199 2.024,3.543 0.275,0.896 0.48,1.776 0.48,2.723 -0.012,15.167 -0.009,30.335 -0.007,45.502 0,1.255 -0.301,2.432 -0.954,3.497 -0.562,0.918 -1.19,1.742 -2.096,2.427 -1.03,0.778 -2.129,1.325 -3.306,1.744 -0.566,0.202 -1.161,0.373 -1.797,0.372 -8.233,-0.013 -16.465,-0.009 -24.698,-0.009 -0.122,0 -0.244,-0.01 -0.365,0.002 -0.24,0.025 -0.382,-0.034 -0.369,-0.317 0.015,-0.324 0.004,-0.649 0.004,-0.973 z m 11.68,2.184 v 4.378 c 0,4.054 -0.001,8.108 0.002,12.162 0,0.56 0.01,0.567 0.595,0.568 1.824,0.003 3.649,-0.003 5.473,0.005 0.358,0.002 0.695,-0.022 0.995,-0.246 0.57,-0.426 1.125,-0.862 1.455,-1.52 0.202,-0.404 0.437,-0.791 0.639,-1.195 0.226,-0.452 -0.048,-0.999 0.309,-1.461 0.137,-0.177 0.022,-0.55 0.022,-0.834 0,-9.568 0.005,-19.135 -0.01,-28.702 a 8.647,8.647 0 0 0 -0.256,-2.083 c -0.116,-0.46 -0.44,-0.87 -0.688,-1.292 -0.84,-1.436 -1.996,-2.359 -3.754,-2.337 -1.459,0.018 -2.919,0.005 -4.378,0.003 -0.687,-0.001 -0.652,-0.088 -0.648,0.641 0.006,1.013 -0.03,2.028 0.01,3.04 0.039,0.982 0.219,1.96 0.223,2.94 0.023,5.312 0.011,10.622 0.011,15.933 z m 45.017,-2.238 v 28.827 c 0,0.284 -0.024,0.57 0.006,0.851 0.038,0.359 -0.152,0.404 -0.431,0.378 -0.08,-0.007 -0.162,-0.001 -0.243,-0.001 -3.771,0 -7.541,0.001 -11.312,-10e-4 -0.668,0 -0.673,-0.008 -0.673,-0.734 -0.002,-5.149 -0.001,-10.298 -0.001,-15.447 0,-14.231 -0.001,-28.462 0.003,-42.692 0,-0.395 -0.096,-0.946 0.114,-1.141 0.222,-0.206 0.759,-0.084 1.158,-0.085 3.406,-0.003 6.811,-0.003 10.217,0 0.359,0 0.911,-0.109 1.034,0.069 0.194,0.278 0.122,0.758 0.123,1.152 0.005,9.606 0.005,19.215 0.005,28.824 z"
       fill="#f8b900"
       id="path36692" />
    <path
       d="m 78.833,57.918 c -0.411,0 -0.655,-0.004 -0.898,10e-4 -1.954,0.034 -3.822,-0.417 -5.632,-1.09 -2.27,-0.844 -4.338,-2.016 -6.156,-3.667 A 20.854,20.854 0 0 1 62.836,49.307 16.116,16.116 0 0 1 60.87,45.259 c -0.347,-1.082 -0.602,-2.198 -0.814,-3.329 -0.242,-1.287 -0.098,-2.541 -0.162,-3.805 -0.025,-0.487 -0.166,-0.991 0.183,-1.504 0.263,-0.388 -0.205,-1.034 0.285,-1.456 0.089,-1.834 0.955,-3.408 1.719,-5.005 0.375,-0.783 0.899,-1.498 1.384,-2.225 0.691,-1.038 1.624,-1.86 2.491,-2.741 0.932,-0.947 2.086,-1.584 3.16,-2.34 1.521,-1.073 3.318,-1.406 4.968,-2.122 0.414,-0.18 0.889,-0.081 1.357,-0.242 0.72,-0.247 1.538,-0.239 2.318,-0.278 0.809,-0.041 1.64,-0.116 2.428,0.017 1.064,0.18 2.176,0.207 3.183,0.533 0.951,0.307 1.912,0.653 2.85,1.039 1.579,0.65 2.948,1.558 4.292,2.586 0.801,0.613 1.524,1.29 2.183,2.023 0.823,0.916 1.586,1.891 2.234,2.957 0.95,1.561 1.447,3.295 2.101,4.972 0.172,0.44 0.031,0.879 0.27,1.352 0.364,0.721 0.47,4.286 0.275,5.101 -0.336,1.405 -0.426,2.853 -0.933,4.233 a 25.223,25.223 0 0 1 -2.158,4.463 c -1.012,1.659 -2.385,2.999 -3.821,4.237 -1.697,1.462 -3.681,2.524 -5.832,3.218 -1.052,0.339 -2.123,0.58 -3.213,0.794 -1.003,0.195 -1.976,0.062 -2.785,0.181 z m -0.39,-2.137 c 1.063,-0.184 1.959,0.067 2.883,-0.245 0.544,-0.184 1.254,-0.09 1.805,-0.348 0.548,-0.257 1.246,-0.128 1.673,-0.664 1.072,-0.099 1.856,-0.822 2.741,-1.306 0.926,-0.506 1.745,-1.184 2.478,-1.959 0.64,-0.677 1.449,-1.236 1.941,-2.003 0.79,-1.234 1.668,-2.422 2.204,-3.825 a 19.01,19.01 0 0 0 1.216,-5.329 c 0.147,-1.88 -0.212,-3.706 -0.666,-5.547 -0.399,-1.62 -1.189,-3.011 -1.951,-4.429 -0.796,-1.481 -2.014,-2.657 -3.27,-3.743 -0.828,-0.716 -1.722,-1.37 -2.748,-1.855 -1.226,-0.58 -2.398,-1.242 -3.748,-1.535 -1.127,-0.244 -2.244,-0.525 -3.398,-0.596 -0.525,-0.032 -1.054,-0.012 -1.581,-0.003 -0.465,0.007 -0.905,0.023 -1.373,0.206 -0.441,0.173 -0.99,0.185 -1.471,0.233 -1.173,0.117 -2.203,0.581 -3.236,1.033 -2.476,1.085 -4.562,2.747 -6.263,4.813 a 15.103,15.103 0 0 0 -2.88,5.487 35.553,35.553 0 0 0 -0.483,1.989 c -0.022,0.097 0.056,0.215 0.088,0.324 0.057,-0.039 0.128,-0.068 0.17,-0.12 0.904,-1.11 2.088,-1.469 3.472,-1.316 0.354,0.039 0.753,-0.052 1.063,0.079 2.355,0.999 3.472,3.451 2.323,5.812 -0.538,1.105 -1.481,1.727 -2.611,2.155 -0.771,0.292 -1.484,0.264 -2.239,-0.007 -0.783,-0.281 -1.469,-0.683 -2.009,-1.322 -0.043,-0.051 -0.113,-0.078 -0.17,-0.117 -0.031,0.068 -0.096,0.141 -0.088,0.204 0.048,0.378 -0.175,0.817 0.238,1.116 0.095,0.837 0.441,1.594 0.719,2.378 0.514,1.448 1.349,2.706 2.218,3.946 0.313,0.447 0.761,0.766 1.062,1.258 0.29,0.473 0.913,0.728 1.319,1.147 1.338,1.381 3.055,2.16 4.732,2.981 0.801,0.392 1.703,0.636 2.586,0.789 1.123,0.195 2.275,0.23 3.254,0.319 z M 17.048,39.244 c 0,-0.421 0.013,-0.666 -0.002,-0.908 -0.126,-1.972 0.384,-3.845 1.053,-5.649 0.912,-2.455 2.188,-4.704 4.086,-6.59 1.265,-1.257 2.591,-2.424 4.117,-3.314 1.425,-0.831 2.929,-1.519 4.577,-1.877 0.865,-0.188 1.733,-0.337 2.592,-0.512 0.915,-0.187 1.807,-0.181 2.708,-0.175 0.573,0.004 1.143,-0.126 1.743,0.189 0.481,0.252 1.179,-0.147 1.705,0.28 3.021,0.368 5.867,2.037 7.513,3.271 1.146,0.859 2.233,1.826 3.159,3.006 1.149,1.464 2.07,3.018 2.874,4.667 a 12.187,12.187 0 0 1 1.108,3.678 c 0.053,0.376 0.163,0.743 0.237,1.117 0.075,0.376 -0.078,0.749 0.172,1.153 0.183,0.295 0.073,0.779 0.07,1.179 -0.004,0.602 0.13,1.269 -0.085,1.788 -0.237,0.573 0.012,1.125 -0.172,1.633 -0.194,0.536 -0.317,1.101 -0.434,1.637 a 16.697,16.697 0 0 1 -1.51,4.125 c -1.132,2.184 -2.698,4.061 -4.567,5.641 -1.48,1.252 -3.137,2.311 -4.954,2.998 a 21.699,21.699 0 0 1 -4.163,1.144 C 37.27,57.989 35.688,57.892 34.101,57.886 33.075,57.882 32.02,57.679 31.034,57.379 30.44,57.198 29.801,57.087 29.235,56.725 28.744,56.411 28.079,56.381 27.551,56.11 26.71,55.678 25.879,55.205 25.118,54.649 24.138,53.934 23.136,53.232 22.301,52.338 21.213,51.175 20.306,49.875 19.486,48.516 18.844,47.452 18.308,46.341 17.983,45.123 17.728,44.169 17.507,43.207 17.253,42.259 16.964,41.183 17.15,40.126 17.048,39.244 Z m 18.919,16.484 c 1.098,0.051 2.39,-0.12 3.701,-0.453 1.737,-0.442 3.374,-1.029 4.906,-1.969 2.018,-1.239 3.643,-2.895 5.04,-4.759 0.69,-0.921 1.158,-2.022 1.646,-3.079 0.506,-1.095 0.729,-2.292 1.065,-3.448 0.029,-0.1 -0.031,-0.226 -0.05,-0.339 -0.086,0.043 -0.197,0.064 -0.254,0.131 -0.544,0.638 -1.221,1.084 -2.034,1.255 -1.358,0.285 -1.363,0.261 -2.471,0.009 -0.953,-0.217 -2.112,-1.388 -2.502,-2.347 -0.284,-0.699 -0.159,-1.397 -0.232,-2.094 -0.146,-1.392 1.385,-3.226 2.89,-3.535 1.539,-0.315 3.15,-0.141 4.336,1.197 0.063,0.071 0.169,0.105 0.255,0.157 0.023,-0.112 0.091,-0.237 0.063,-0.334 -0.231,-0.794 -0.495,-1.579 -0.72,-2.375 -0.638,-2.252 -1.956,-4.112 -3.421,-5.874 -0.861,-1.035 -1.962,-1.808 -3.051,-2.594 a 14.193,14.193 0 0 0 -4.232,-2.104 c -1.693,-0.505 -3.457,-0.92 -5.276,-0.784 -0.621,0.046 -1.232,-0.019 -1.854,0.221 -0.486,0.187 -1.056,0.098 -1.603,0.217 -0.863,0.187 -1.679,0.464 -2.477,0.796 -0.797,0.331 -1.587,0.649 -2.33,1.155 -0.758,0.517 -1.604,0.935 -2.23,1.607 -0.633,0.68 -1.42,1.178 -1.995,1.935 -1.11,1.462 -2.111,2.943 -2.771,4.695 -0.647,1.714 -1.158,3.412 -1.122,5.246 0.026,1.306 -0.105,2.612 0.219,3.916 0.265,1.064 0.475,2.142 0.932,3.143 1.141,2.501 2.549,4.783 4.775,6.528 1.608,1.261 3.28,2.338 5.217,2.981 1.651,0.548 3.296,0.982 4.491,0.903 0.282,-0.02 0.567,-0.004 1.089,-0.004 z m 113.21,15.74 c 0,-5.311 0.012,-10.622 -0.011,-15.932 -0.004,-0.98 -0.184,-1.959 -0.223,-2.94 -0.041,-1.012 -0.005,-2.027 -0.01,-3.04 -0.004,-0.729 -0.039,-0.642 0.648,-0.641 1.459,0.002 2.919,0.015 4.378,-0.003 1.758,-0.022 2.914,0.902 3.754,2.337 0.247,0.423 0.571,0.833 0.688,1.292 0.17,0.673 0.255,1.386 0.256,2.083 0.015,9.567 0.01,19.135 0.01,28.702 0,0.284 0.115,0.657 -0.022,0.834 -0.358,0.462 -0.083,1.009 -0.309,1.461 -0.202,0.404 -0.437,0.791 -0.639,1.195 -0.33,0.658 -0.884,1.094 -1.455,1.52 -0.3,0.224 -0.636,0.248 -0.995,0.246 -1.824,-0.009 -3.649,-0.002 -5.473,-0.005 -0.586,-0.001 -0.595,-0.008 -0.595,-0.568 -0.003,-4.054 -0.002,-8.108 -0.002,-12.162 z m 2.677,-2.595 V 84.44 c 0,0.284 0.002,0.568 0,0.851 -0.003,0.39 0.233,0.574 0.578,0.602 0.362,0.03 0.73,-0.01 1.094,0.01 0.781,0.044 1.27,-0.382 1.631,-1.001 0.252,-0.43 0.59,-1.82 0.59,-2.309 10e-4,-9.243 -0.003,-18.486 0.007,-27.729 0.001,-0.601 -0.225,-1.111 -0.436,-1.646 -0.312,-0.79 -0.887,-1.131 -1.702,-1.141 -0.243,-0.003 -0.486,-10e-4 -0.73,0 -1.03,0.002 -1.032,0.002 -1.032,0.984 z"
       id="path36694" />
    <path
       d="M 78.443,55.781 C 77.464,55.692 76.312,55.657 75.188,55.462 74.305,55.309 73.403,55.065 72.602,54.673 70.925,53.852 69.208,53.073 67.87,51.692 67.464,51.273 66.841,51.018 66.551,50.545 66.25,50.054 65.802,49.734 65.489,49.287 64.62,48.046 63.785,46.788 63.271,45.341 62.993,44.558 62.647,43.8 62.552,42.963 c -0.413,-0.3 -0.19,-0.738 -0.238,-1.116 -0.008,-0.063 0.057,-0.136 0.088,-0.204 0.057,0.038 0.127,0.066 0.17,0.117 0.54,0.639 1.226,1.041 2.009,1.322 0.755,0.271 1.468,0.299 2.239,0.007 1.13,-0.428 2.073,-1.05 2.611,-2.155 1.149,-2.361 0.032,-4.813 -2.323,-5.812 -0.309,-0.131 -0.708,-0.04 -1.063,-0.079 -1.384,-0.153 -2.568,0.206 -3.472,1.316 -0.042,0.052 -0.113,0.081 -0.17,0.12 -0.032,-0.109 -0.109,-0.227 -0.088,-0.324 0.148,-0.666 0.297,-1.333 0.483,-1.989 a 15.11,15.11 0 0 1 2.88,-5.487 c 1.701,-2.066 3.787,-3.728 6.263,-4.813 1.032,-0.452 2.063,-0.916 3.236,-1.033 0.481,-0.048 1.03,-0.06 1.471,-0.233 0.468,-0.183 0.908,-0.199 1.373,-0.206 0.527,-0.008 1.056,-0.029 1.581,0.003 1.154,0.071 2.271,0.352 3.398,0.596 1.35,0.293 2.522,0.955 3.748,1.535 1.026,0.485 1.92,1.139 2.748,1.855 1.256,1.086 2.474,2.262 3.27,3.743 0.761,1.418 1.552,2.809 1.951,4.429 0.453,1.841 0.812,3.667 0.666,5.547 a 19.01,19.01 0 0 1 -1.216,5.329 c -0.536,1.403 -1.413,2.591 -2.204,3.825 -0.491,0.767 -1.3,1.326 -1.941,2.003 -0.733,0.775 -1.552,1.453 -2.478,1.959 -0.886,0.484 -1.669,1.207 -2.741,1.306 -0.427,0.536 -1.124,0.407 -1.673,0.664 -0.551,0.258 -1.26,0.164 -1.805,0.348 -0.923,0.312 -1.819,0.061 -2.882,0.245 z M 35.967,55.728 c -0.523,0 -0.807,-0.016 -1.09,0.003 -1.194,0.079 -2.84,-0.355 -4.491,-0.903 -1.938,-0.643 -3.609,-1.72 -5.217,-2.981 -2.227,-1.745 -3.634,-4.027 -4.775,-6.528 -0.457,-1.001 -0.666,-2.078 -0.932,-3.143 -0.325,-1.304 -0.194,-2.61 -0.219,-3.916 -0.036,-1.834 0.475,-3.532 1.122,-5.246 0.661,-1.751 1.661,-3.233 2.771,-4.695 0.575,-0.757 1.362,-1.255 1.995,-1.935 0.626,-0.673 1.473,-1.09 2.23,-1.607 0.743,-0.507 1.533,-0.824 2.33,-1.155 a 14.316,14.316 0 0 1 2.477,-0.796 c 0.547,-0.118 1.116,-0.029 1.603,-0.217 0.622,-0.24 1.234,-0.174 1.854,-0.221 1.818,-0.136 3.583,0.279 5.276,0.784 a 14.216,14.216 0 0 1 4.232,2.104 c 1.089,0.786 2.19,1.559 3.051,2.594 1.465,1.763 2.783,3.622 3.421,5.874 0.226,0.796 0.489,1.581 0.72,2.375 0.028,0.097 -0.04,0.222 -0.063,0.334 -0.086,-0.051 -0.192,-0.085 -0.255,-0.157 -1.185,-1.338 -2.797,-1.513 -4.336,-1.197 -1.505,0.308 -3.036,2.143 -2.89,3.535 0.073,0.697 -0.052,1.395 0.232,2.094 0.39,0.958 1.548,2.13 2.502,2.347 1.108,0.252 1.113,0.276 2.471,-0.009 0.813,-0.171 1.49,-0.617 2.034,-1.255 0.057,-0.067 0.168,-0.089 0.254,-0.131 0.019,0.114 0.079,0.24 0.05,0.339 -0.336,1.156 -0.559,2.353 -1.065,3.448 -0.488,1.057 -0.956,2.158 -1.646,3.079 -1.397,1.864 -3.021,3.52 -5.04,4.759 -1.532,0.94 -3.169,1.527 -4.906,1.969 -1.31,0.334 -2.601,0.506 -3.7,0.454 z"
       fill="#f8b900"
       id="path36696" />
  </g>
</svg>
