<?xml version="1.0" encoding="UTF-8" standalone="no"?>
<!-- Generator: Adobe Illustrator 13.0.0, SVG Export Plug-In . SVG Version: 6.00 Build 14948)  -->

<svg
   version="1.2"
   id="Ebene_1"
   x="0px"
   y="0px"
   width="333.5827"
   height="100"
   viewBox="0 0 333.5827 100"
   xml:space="preserve"
   sodipodi:docname="videos.svg"
   inkscape:version="1.2.1 (9c6d41e410, 2022-07-14)"
   xmlns:inkscape="http://www.inkscape.org/namespaces/inkscape"
   xmlns:sodipodi="http://sodipodi.sourceforge.net/DTD/sodipodi-0.dtd"
   xmlns="http://www.w3.org/2000/svg"
   xmlns:svg="http://www.w3.org/2000/svg"><defs
     id="defs16050" /><sodipodi:namedview
     id="namedview16048"
     pagecolor="#505050"
     bordercolor="#ffffff"
     borderopacity="1"
     inkscape:showpageshadow="0"
     inkscape:pageopacity="0"
     inkscape:pagecheckerboard="1"
     inkscape:deskcolor="#505050"
     showgrid="false"
     inkscape:zoom="1.6861893"
     inkscape:cx="175.24722"
     inkscape:cy="72.945545"
     inkscape:window-width="1920"
     inkscape:window-height="1017"
     inkscape:window-x="-8"
     inkscape:window-y="-8"
     inkscape:window-maximized="1"
     inkscape:current-layer="Ebene_1" /><g
     aria-label="VIDEOS"
     id="text36264"
     style="font-size:120px;font-family:Impact;-inkscape-font-specification:'Impact, Normal';fill:#ffffff;stroke:#000000;stroke-width:4;stroke-linecap:round;stroke-linejoin:round;stroke-miterlimit:0;paint-order:markers stroke fill"
     transform="matrix(0.97231187,0,0,0.97231187,2.6282492,-1.1128414)"><path
       d="M 63.515625,5.1367187 50.976562,100 H 13.535156 L -0.703125,5.1367187 H 25.3125 Q 29.824219,44.335937 31.757812,71.40625 33.691406,44.042969 35.800781,22.773437 L 37.5,5.1367187 Z"
       id="path36266" /><path
       d="M 92.402344,5.1367187 V 100 H 67.734375 V 5.1367187 Z"
       id="path36268" /><path
       d="m 102.30469,5.1367187 h 18.45703 q 17.87109,0 24.14062,1.640625 6.32813,1.6406251 9.60938,5.3906253 3.28125,3.75 4.10156,8.378906 0.82031,4.570312 0.82031,18.046875 v 33.222656 q 0,12.773438 -1.23047,17.109375 -1.17187,4.277344 -4.16015,6.738281 -2.98828,2.402344 -7.38281,3.398438 Q 142.26562,100 133.41797,100 h -31.11328 z m 24.66797,16.2304683 v 62.402344 q 5.33203,0 6.5625,-2.109375 Q 134.76562,79.492187 134.76562,70 V 33.144531 q 0,-6.445312 -0.41015,-8.261719 -0.41016,-1.816406 -1.875,-2.636718 -1.46485,-0.878907 -5.50781,-0.878907 z"
       id="path36270" /><path
       d="m 168.63281,5.1367187 h 41.13281 V 24.121094 h -16.46484 v 17.988281 h 15.41016 V 60.15625 h -15.41016 v 20.859375 h 18.10547 V 100 h -42.77344 z"
       id="path36272" /><path
       d="m 274.86328,60.683594 q 0,14.296875 -0.70312,20.273437 -0.64454,5.917969 -4.21875,10.839844 -3.51563,4.921875 -9.55079,7.558594 -6.03515,2.636721 -14.0625,2.636721 -7.61718,0 -13.71093,-2.46094 -6.03516,-2.519531 -9.72657,-7.5 -3.6914,-4.980469 -4.39453,-10.839844 -0.70312,-5.859375 -0.70312,-20.507812 V 44.453125 q 0,-14.296875 0.64453,-20.214844 0.70312,-5.976562 4.21875,-10.898437 3.57422,-4.9218752 9.60937,-7.558594 6.03516,-2.6367187 14.0625,-2.6367187 7.61719,0 13.65235,2.5195312 6.09375,2.4609375 9.78515,7.4414065 3.69141,4.980468 4.39454,10.839843 0.70312,5.859375 0.70312,20.507813 z M 250.19531,29.511719 q 0,-6.621094 -0.76172,-8.4375 -0.70312,-1.875 -2.98828,-1.875 -1.93359,0 -2.98828,1.523437 -0.99609,1.464844 -0.99609,8.789063 v 44.296875 q 0,8.261718 0.64453,10.195312 0.70312,1.933594 3.16406,1.933594 2.51953,0 3.22266,-2.226563 0.70312,-2.226562 0.70312,-10.605468 z"
       id="path36274" /><path
       d="m 336.32812,33.847656 h -22.91015 v -7.03125 q 0,-4.921875 -0.87891,-6.269531 -0.8789,-1.347656 -2.92969,-1.347656 -2.22656,0 -3.39843,1.816406 -1.11328,1.816406 -1.11328,5.507812 0,4.746094 1.28906,7.148438 1.23047,2.402344 6.97265,5.800781 16.46485,9.785156 20.74219,16.054688 4.27735,6.269531 4.27735,20.214843 0,10.136719 -2.40235,14.941407 -2.34375,4.804687 -9.14062,8.085937 -6.79688,3.222659 -15.82032,3.222659 -9.90234,0 -16.93359,-3.750003 -6.97266,-3.75 -9.14062,-9.550781 -2.16797,-5.800781 -2.16797,-16.464844 v -6.210937 h 22.91015 v 11.542969 q 0,5.332031 0.9375,6.855468 0.9961,1.523438 3.45703,1.523438 2.46094,0 3.63282,-1.933594 1.23047,-1.933594 1.23047,-5.742187 0,-8.378907 -2.28516,-10.957032 -2.34375,-2.578125 -11.54297,-8.613281 -9.19922,-6.09375 -12.1875,-8.847656 -2.98828,-2.753906 -4.98047,-7.617188 -1.93359,-4.863281 -1.93359,-12.421875 0,-10.898437 2.7539,-15.937499 2.8125,-5.039063 9.02344,-7.851563 6.21094,-2.8710937 15,-2.8710937 9.60938,0 16.34766,3.1054687 6.79687,3.1054688 8.96484,7.851563 2.22656,4.687499 2.22656,15.996093 z"
       id="path36276" /></g></svg>
