<?xml version="1.0" encoding="UTF-8" standalone="no"?>
<svg
   width="323.08224"
   height="100"
   xml:space="preserve"
   version="1.1"
   id="svg23924"
   sodipodi:docname="pcfx.svg"
   inkscape:version="1.2.1 (9c6d41e410, 2022-07-14)"
   viewBox="0 0 323.08224 99.999998"
   xmlns:inkscape="http://www.inkscape.org/namespaces/inkscape"
   xmlns:sodipodi="http://sodipodi.sourceforge.net/DTD/sodipodi-0.dtd"
   xmlns="http://www.w3.org/2000/svg"
   xmlns:svg="http://www.w3.org/2000/svg"><defs
     id="defs23928" /><sodipodi:namedview
     id="namedview23926"
     pagecolor="#505050"
     bordercolor="#ffffff"
     borderopacity="1"
     inkscape:showpageshadow="0"
     inkscape:pageopacity="0"
     inkscape:pagecheckerboard="1"
     inkscape:deskcolor="#505050"
     showgrid="false"
     inkscape:zoom="2.6953317"
     inkscape:cx="120.76436"
     inkscape:cy="76.057429"
     inkscape:window-width="1920"
     inkscape:window-height="1017"
     inkscape:window-x="-8"
     inkscape:window-y="-8"
     inkscape:window-maximized="1"
     inkscape:current-layer="svg23924" /><g
     id="g21141"
     transform="scale(1.0795868)"><g
       transform="matrix(0.76035628,0,0,0.71849275,-6.0265839,-2.9315081)"
       id="g23892">
        <circle
   cx="58.075001"
   cy="13.716"
   r="4.039"
   style="fill:#cccccc"
   id="circle23888" />
        <path
   d="M 58.075,107.3 30.25,91.462 37.785,87.4 c 0.019,0.044 0.031,0.08 0.051,0.125 5.45,7.98 16.47,8.57 25.22,7.76 5.19,-1.655 -1.06,2.033 -0.73,3.49 0.94,2.7 4.047,1.088 5.482,0.668 3.77,-2.16 7.5,-4.563 9.838,-8.747 1.287,-3.878 0.724,-1.814 3.75,-5.09 2.77,-2.86 3,-7.33 6.24,-9.84 3.47,-3.12 5.02,-7.55 6.87,-11.67 6.24,-5.78 11.96,-13.38 11.74,-22.31 0.34,-6.76 -3.84,-12.78 -8.83,-16.93 -8.22,-6.71 -18.67,-10.14 -29.04,-11.73 -2.41,-0.89 -4.8,1.96 -3.14,4.12 4.75,1.95 10.08,1.89 14.83,3.92 7.63,2.8 15.48,7.04 19.62,14.34 3.53,7.16 -0.16,15.82 -5.54,21 l -0.18,0.18 c -2.04,-3.3 -4.2,-6.63 -7.38,-8.95 C 78.43,41.554 68.028,39.33 58.016,38.722 V 19.505 l -50.09,27 v 56.99 l 0.07,-0.038 v 1.038 L 58.075,133 l 50.08,-28.505 v -25.7 z M 58.016,63.735 h 0.06 c 5.65,0.33 11.49,1.21 16.37,4.26 0.644,0.494 1.383,0.802 -0.533,1.385 -1.422,0.513 -6.265,1.407 -9.925,1.917 0,0 -3.304,0.208 -4.452,0.158 a 85.486,85.486 0 0 1 -1.52,-0.087 z m -3.548,14.673 c 3.073,-0.293 6.175,-0.152 9.058,0.538 1.72,0.49 3.84,0.49 4.94,2.11 -5.6,0.95 -11.345,1.071 -16.97,0.7 -0.789,-0.161 -1.673,-0.244 -2.56,-0.366 z m 3.088,11.837 c -5.02,-0.24 -10.81,-0.67 -14.48,-4.57 10.02,2.51 20.59,2.43 30.52,-0.5 -4.33,3.85 -10.43,4.94 -16.04,5.07 z m 17.91,-11.82 c -1.345,-1.67 -3.157,-2.545 -5.06,-3.07 3,-0.8 6.01,-1.61 8.99,-2.49 1.68,3.1 -1.275,4.82 -3.93,5.56 z m 9.53,-25.2 c 2.38,2.03 3.62,4.94 4.41,7.89 -1.8,1.3 -3.65,2.53 -5.52,3.72 -1.27,0.35 -2.77,1.98 -3.99,0.58 -6.223,-4.809 -14.171,-6.574 -21.88,-7.073 V 44.185 c 9.55,0.15 19.76,2.41 26.98,9.04 z"
   style="fill:#cccccc"
   id="path23890" />
    </g><path
       d="m 299.26471,89.754073 c -71.73179,0 -143.46439,0.0065 -215.196177,-0.0082 0.0082,-2.873579 0.0082,-5.747159 0,-8.614211 71.731787,0.0073 143.464387,-0.0073 215.196177,0 z"
       id="path23894"
       style="fill:#ffffff;fill-opacity:1;stroke-width:0.815894" /><path
       d="m 46.620485,5.3239738 c -1.262192,-1.5519442 0.55506,-3.5996485 2.387518,-2.9601906 7.884896,1.1424036 15.830622,3.606834 22.080747,8.4279198 3.794177,2.981745 6.972468,7.307071 6.713944,12.164083 0.167283,6.41614 -4.181955,11.876685 -8.926584,16.029573 -1.406659,2.96019 -2.58521,6.143113 -5.22364,8.38481 -2.463559,1.803417 -2.638441,5.01508 -4.744627,7.069969 -2.300838,2.353782 -1.872758,0.871532 -2.851337,3.657128 -1.777713,3.006893 -4.613842,4.732712 -7.480385,6.284656 -1.091111,0.301767 -3.454298,1.460696 -4.168273,-0.479953 -0.250917,-1.046844 4.501309,-3.696645 0.555061,-2.50754 -6.653118,0.581979 -15.032244,0.158068 -19.176186,-5.575503 -0.796853,-1.735879 -0.686602,-2.274748 -0.691924,-3.276327 -3.003408,-2.047704 -5.124801,-5.187518 -4.86628,-8.808722 -3.330361,-2.184217 -6.493443,-5.295291 -6.637911,-9.354775 -0.570267,-3.98045 2.699265,-7.199297 6.022022,-9.110488 6.409804,-3.628389 14.104609,-4.53369 21.449651,-4.519319 7.633977,0.431095 15.572096,2.026149 21.791811,6.480804 2.417936,1.666903 4.060298,4.059484 5.611427,6.43051 L 68.602386,33.53128 C 72.6931,29.809488 75.498813,23.587341 72.814758,18.442932 69.666883,13.197935 63.698086,10.151527 57.896569,8.139747 54.284877,6.6819252 50.232178,6.7250346 46.620485,5.3239738 Z M 19.430144,30.147898 c -3.786574,2.866787 -0.988463,8.715317 2.919769,9.857721 5.216043,-4.030745 12.14289,-5.194703 18.704764,-5.158778 5.885158,0.352061 11.960404,1.616609 16.712631,5.086928 0.927635,1.00589 2.06817,-0.165253 3.033822,-0.416725 1.421866,-0.855007 2.828527,-1.738753 4.197165,-2.672794 C 64.397618,34.724697 63.45477,32.633883 61.645125,31.175342 56.155352,26.411736 48.392115,24.787943 41.130713,24.680169 33.625996,24.5221 25.398941,25.463325 19.430144,30.147898 Z m 26.241417,14.012046 c 2.782903,-0.366431 6.465309,-1.008046 7.546536,-1.377351 1.457603,-0.418881 0.894938,-0.640177 0.405269,-0.995112 -3.710538,-2.191403 -8.151019,-2.823677 -12.447032,-3.060779 -4.699002,-0.01437 -9.633714,0.45265 -13.792863,2.672793 -0.4258,0.245724 -1.79216,0.484982 0.0076,0.969965 4.042054,1.333523 14.023251,1.868081 14.89538,1.904006 0.872889,0.03592 3.385106,-0.113522 3.385106,-0.113522 z m -21.473983,1.428364 c 0.380178,0.932603 1.1527,2.313546 2.696984,3.161368 0.653146,-0.41026 1.652254,-0.880154 2.488646,-1.29688 0.542894,-0.207645 1.123047,-0.572639 1.680387,-0.757291 -0.272207,-0.01796 -0.680518,-0.06322 -1.484215,-0.09628 -1.927504,-0.222015 -3.56455,-0.594194 -5.381802,-1.010919 z m 26.353949,1.487279 c 1.446198,0.377209 2.824723,1.00589 3.847403,2.205773 2.018746,-0.531684 4.265598,-1.767492 2.9882,-3.99482 -2.265861,0.632274 -4.554534,1.214253 -6.835603,1.789047 z m -18.797528,3.655692 c 1.282721,0.717774 3.042946,0.67682 4.419191,0.942662 4.277004,0.266561 8.645251,0.179623 12.903246,-0.502945 -0.836392,-1.163958 -2.448348,-1.163958 -3.75616,-1.51602 -4.356842,-0.984335 -9.369111,-0.418881 -13.566277,1.076303 z m -1.983009,3.759153 c 2.790507,2.802122 7.19297,3.111074 11.009959,3.283513 4.265598,-0.0934 8.903772,-0.876562 12.196115,-3.642759 C 45.426726,56.23637 37.38976,56.29385 29.77099,54.490432 Z"
       style="fill:#01015b;stroke-width:0.739128"
       id="path23896" /><path
       d="m 99.329834,47.50544 c 3.847756,0 7.676746,-0.22274 11.290346,-1.522459 9.66426,-3.146904 16.06659,-12.796485 15.74676,-22.322865 -0.28067,-4.670995 -1.95407,-9.290588 -4.94188,-13.03391 C 116.97681,4.6840484 109.22908,1.3144053 101.58741,1.493902 L 84.395707,1.4873749 V 15.215611 l -0.04569,0.188471 0.04569,-0.0033 V 65.55543 h 6.995477 V 47.50544 M 91.322648,7.4075032 c 3.938322,-0.00734 7.877459,-0.086485 11.808442,0.085669 5.85485,0.3671524 11.54163,3.4561278 14.40869,8.3563878 3.5883,5.798561 3.1779,13.644199 -1.24751,18.939353 -3.08652,3.930162 -8.11243,6.445564 -13.3056,6.52389 -3.863257,0.05058 -7.647374,0.02448 -11.595486,0.02448 z"
       style="fill:#ffffff;fill-opacity:1;stroke-width:0.739128"
       id="path23898" /><ellipse
       cx="41.176971"
       cy="3.5067122"
       rx="3.0710256"
       ry="2.9021356"
       style="fill:#01015b;stroke-width:0.739128"
       id="ellipse23900" /><path
       style="fill:#01015b;stroke-width:0.739128"
       d="M 41.176334,88.4931 3.0976915,68.012466 V 49.547203 L 41.176334,70.027838 Z"
       id="path23902" /><path
       style="fill:#f00020;stroke-width:0.739128"
       d="M 41.176334,88.4931 79.254978,68.012466 V 49.547203 L 41.176334,70.027838 Z"
       id="path23904" /><path
       d="m 202.39685,38.336421 v -12.44973 h -10.29169 a 25.857319,25.857319 0 0 1 1.08188,7.389554 c 0,1.730511 -0.17868,3.419412 -0.50422,5.060991 h 9.71403 z"
       id="path23906"
       style="fill:#ffffff;fill-opacity:1;stroke-width:0.815894" /><path
       d="m 190.1666,45.420014 c -4.72729,8.963414 -14.51639,15.121783 -25.83284,15.121783 -15.93605,0 -28.8541,-12.206593 -28.8541,-27.264736 0,-15.058144 12.91805,-27.2655528 28.8541,-27.2655528 10.30637,0 19.34485,5.1099458 24.44827,12.7915898 h 7.25493 C 190.33957,7.6775642 178.28963,-2.3179999e-7 164.33294,-2.3179999e-7 144.88366,-2.3179999e-7 129.1165,14.898228 129.1165,33.277061 c 0,18.378016 15.76716,33.276245 35.21644,33.276245 14.9121,0 27.64739,-8.761888 32.78263,-21.13166 z"
       id="path23908"
       style="fill:#ffffff;fill-opacity:1;stroke-width:0.815894" /><path
       style="fill:#fec101;stroke-width:0.739128"
       d="M 3.0444666,67.293973 41.130713,47.894669 V 6.9477672 L 3.0444666,26.347071 Z"
       id="path23910" /><path
       d="m 46.620485,5.3239738 c -1.262192,-1.5519442 0.55506,-3.5996485 2.387518,-2.9601906 7.884896,1.1424036 15.830622,3.606834 22.080747,8.4279198 3.794177,2.981745 6.972468,7.307071 6.713944,12.164083 0.167283,6.41614 -4.181955,11.876685 -8.926584,16.029573 -1.406659,2.96019 -2.58521,6.143113 -5.22364,8.38481 -2.463559,1.803417 -2.638441,5.01508 -4.744627,7.069969 -2.300838,2.353782 -1.872758,0.871532 -2.851337,3.657128 -1.777713,3.006893 -4.613842,4.732712 -7.480385,6.284656 -1.091111,0.301767 -3.454298,1.460696 -4.168273,-0.479953 -0.250917,-1.046844 4.501309,-3.696645 0.555061,-2.50754 -6.653118,0.581979 -15.032244,0.158068 -19.176186,-5.575503 -0.796853,-1.735879 -0.686602,-2.274748 -0.691924,-3.276327 -3.003408,-2.047704 -5.124801,-5.187518 -4.86628,-8.808722 -3.330361,-2.184217 -6.493443,-5.295291 -6.637911,-9.354775 -0.570267,-3.98045 2.699265,-7.199297 6.022022,-9.110488 6.409804,-3.628389 14.104609,-4.53369 21.449651,-4.519319 7.633977,0.431095 15.572096,2.026149 21.791811,6.480804 2.417936,1.666903 4.060298,4.059484 5.611427,6.43051 L 68.602386,33.53128 C 72.6931,29.809488 75.498813,23.587341 72.814758,18.442932 69.666883,13.197935 63.698086,10.151527 57.896569,8.139747 54.284877,6.6819252 50.232178,6.7250346 46.620485,5.3239738 Z M 19.430144,30.147898 c -3.786574,2.866787 -0.988463,8.715317 2.919769,9.857721 5.216043,-4.030745 12.14289,-5.194703 18.704764,-5.158778 5.885158,0.352061 11.960404,1.616609 16.712631,5.086928 0.927635,1.00589 2.06817,-0.165253 3.033822,-0.416725 1.421866,-0.855007 2.828527,-1.738753 4.197165,-2.672794 C 64.397618,34.724697 63.45477,32.633883 61.645125,31.175342 56.155352,26.411736 48.392115,24.787943 41.130713,24.680169 33.625996,24.5221 25.398941,25.463325 19.430144,30.147898 Z m 26.241417,14.012046 c 2.782903,-0.366431 6.465309,-1.008046 7.546536,-1.377351 1.457603,-0.418881 0.894938,-0.640177 0.405269,-0.995112 -3.710538,-2.191403 -8.151019,-2.823677 -12.447032,-3.060779 -4.699002,-0.01437 -9.633714,0.45265 -13.792863,2.672793 -0.4258,0.245724 -1.79216,0.484982 0.0076,0.969965 4.042054,1.333523 14.023251,1.868081 14.89538,1.904006 0.872889,0.03592 3.385106,-0.113522 3.385106,-0.113522 z m -21.473983,1.428364 c 0.380178,0.932603 1.1527,2.313546 2.696984,3.161368 0.653146,-0.41026 1.652254,-0.880154 2.488646,-1.29688 0.542894,-0.207645 1.123047,-0.572639 1.680387,-0.757291 -0.272207,-0.01796 -0.680518,-0.06322 -1.484215,-0.09628 -1.927504,-0.222015 -3.56455,-0.594194 -5.381802,-1.010919 z m 26.353949,1.487279 c 1.446198,0.377209 2.824723,1.00589 3.847403,2.205773 2.018746,-0.531684 4.265598,-1.767492 2.9882,-3.99482 -2.265861,0.632274 -4.554534,1.214253 -6.835603,1.789047 z m -18.797528,3.655692 c 1.282721,0.717774 3.042946,0.67682 4.419191,0.942662 4.277004,0.266561 8.645251,0.179623 12.903246,-0.502945 -0.836392,-1.163958 -2.448348,-1.163958 -3.75616,-1.51602 -4.356842,-0.984335 -9.369111,-0.418881 -13.566277,1.076303 z m -1.983009,3.759153 c 2.790507,2.802122 7.19297,3.111074 11.009959,3.283513 4.265598,-0.0934 8.903772,-0.876562 12.196115,-3.642759 C 45.426726,56.23637 37.38976,56.29385 29.77099,54.490432 Z"
       style="fill:#01015b;stroke-width:0.739128"
       id="path23912" /><ellipse
       cx="41.176971"
       cy="3.5067122"
       rx="3.0710256"
       ry="2.9021356"
       style="fill:#01015b;stroke-width:0.739128"
       id="ellipse23914" /><path
       style="fill:#01015b;stroke-width:0.739128"
       d="M 41.176334,88.4931 3.0976915,68.012466 V 49.547203 L 41.176334,70.027838 Z"
       id="path23916" /><path
       style="fill:#f00020;stroke-width:0.739128"
       d="M 41.176334,88.4931 79.254978,68.012466 V 49.547203 L 41.176334,70.027838 Z"
       id="path23918" /><path
       d="M 241.82739,14.190032 V 1.4873749 H 207.90822 V 65.575864 h 12.88052 V 38.337236 h 20.07018 V 25.886691 h -20.071 V 14.190032 Z"
       id="path23920"
       style="fill:#ffffff;fill-opacity:1;stroke-width:0.815894" /><path
       d="M 295.8355,65.57668 275.68618,32.275958 294.31468,1.4873749 H 278.81106 L 267.93437,19.463972 257.05768,1.4873749 h -15.50362 l 18.6285,30.7885831 -20.14932,33.300722 h 15.50362 L 267.93437,45.087129 280.33188,65.57668 Z M 91.506225,78.258124 v -6.622613 l -2.96088,6.622613 h -0.681272 l -2.949458,-6.622613 v 6.622613 h -0.788969 v -7.438508 h 1.224657 l 2.86542,6.331339 2.853998,-6.331339 h 1.225473 v 7.438508 z m 5.011222,0.130543 c -1.586914,0 -2.673685,-0.905643 -2.673685,-2.92906 v -4.639991 h 0.788969 v 4.639991 c 0,1.520011 0.660875,2.24534 1.895322,2.24534 1.214051,0 1.884716,-0.724514 1.884716,-2.24534 v -4.639991 h 0.788154 v 4.639991 c 0,2.023417 -1.085955,2.92906 -2.684292,2.92906 z m 4.235303,-0.130543 v -7.438508 h 0.78816 v 6.763763 h 3.25868 v 0.674745 z m 6.22854,-6.763763 v 6.763763 h -0.78815 v -6.763763 h -1.79987 v -0.673929 h 4.38788 v 0.673929 z m 2.61739,6.763763 v -7.438508 h 0.78815 v 7.438508 z m 9.72301,0 v -6.622613 l -2.9617,6.622613 h -0.68127 l -2.95027,-6.622613 v 6.622613 h -0.78816 v -7.438508 h 1.22466 l 2.86542,6.331339 2.854,-6.331339 h 1.22547 v 7.438508 z m 2.33754,0 v -7.438508 h 4.30302 v 0.673929 h -3.51569 v 2.667974 h 3.39739 v 0.673113 h -3.39739 v 2.747931 h 3.51569 v 0.675561 z m 7.7616,0 h -2.1197 v -7.438508 h 1.85372 c 1.42781,0 2.25839,0.161547 3.0033,0.584181 1.17163,0.654347 1.78926,1.761515 1.78926,3.159958 0,2.14417 -1.44821,3.694369 -4.52658,3.694369 z m 2.30082,-6.280754 c -0.59642,-0.341859 -1.34215,-0.483009 -2.53498,-0.483009 h -1.09738 v 6.089834 h 1.09738 c 1.39518,0 2.20454,-0.191735 2.83278,-0.664138 0.72533,-0.553992 1.1292,-1.409049 1.1292,-2.385674 0,-1.107985 -0.52217,-2.042999 -1.427,-2.557013 z m 3.43573,6.280754 v -7.438508 h 0.78815 v 7.438508 z m 8.4339,0 -1.13981,-2.506427 h -3.66418 l -1.15041,2.506427 h -0.82976 l 3.37617,-7.438508 h 0.88361 l 3.38678,7.438508 z m -2.9617,-6.592425 -1.54367,3.412069 h 3.05634 z m 7.56742,6.592425 v -7.438508 h 4.30303 v 0.673929 h -3.51487 v 2.667974 h 3.39738 v 0.673113 h -3.39738 v 2.747931 h 3.51487 v 0.675561 z m 11.11656,0 -4.6865,-6.54184 v 6.54184 h -0.78897 v -7.438508 h 1.06556 l 4.40909,6.168976 v -6.16816 h 0.78816 v 7.437692 z m 4.19206,-6.763763 v 6.763763 h -0.78897 v -6.763763 h -1.79986 v -0.673929 h 4.3887 v 0.673929 z m 2.61658,6.763763 v -7.438508 h 4.30302 v 0.673929 h -3.51487 v 2.667974 h 3.39738 v 0.673113 h -3.39738 v 2.747931 h 3.51487 v 0.675561 z m 8.65663,-2.77812 2.20455,2.77812 h -0.97989 l -2.65165,-3.371275 c 2.20291,0 2.94945,-0.362257 2.94945,-1.701139 0,-1.237712 -0.80855,-1.691349 -2.64105,-1.691349 h -1.10798 v 6.763763 h -0.78897 v -7.438508 h 1.94917 c 2.47134,0 3.38759,0.846083 3.38759,2.395466 0,1.318485 -0.80936,2.113982 -2.32122,2.264922 z m 5.23723,-3.985643 v 6.763763 h -0.78897 v -6.763763 h -1.79986 v -0.673929 h 4.38869 v 0.673929 z m 8.17771,6.763763 -1.13981,-2.506427 h -3.66418 l -1.15041,2.506427 h -0.83058 l 3.37617,-7.438508 h 0.88443 l 3.38596,7.438508 z m -2.9617,-6.592425 -1.54449,3.412069 h 3.05634 z m 4.68242,6.592425 v -7.438508 h 0.78815 v 7.438508 z m 7.81626,0 -4.68731,-6.54184 v 6.54184 h -0.78815 v -7.438508 h 1.06556 l 4.40909,6.168976 v -6.16816 h 0.78815 v 7.437692 z m 9.71975,0 v -6.622613 l -2.96169,6.622613 h -0.68046 l -2.95027,-6.622613 v 6.622613 h -0.78897 v -7.438508 h 1.22547 l 2.8646,6.331339 2.85482,-6.331339 h 1.22466 v 7.438508 z m 2.33754,0 v -7.438508 h 4.30302 v 0.673929 h -3.51487 v 2.667974 h 3.39739 v 0.673113 h -3.39739 v 2.747931 h 3.51487 v 0.675561 z m 11.11656,0 -4.6865,-6.54184 v 6.54184 h -0.78897 v -7.438508 h 1.06556 l 4.40909,6.168976 v -6.16816 h 0.78815 v 7.437692 z m 4.19206,-6.763763 v 6.763763 h -0.78897 v -6.763763 h -1.79904 v -0.673929 h 4.38787 v 0.673929 z m 7.80321,3.754745 h -1.51266 v 3.009018 h -0.78897 v -7.438508 h 2.17272 c 2.16212,0 3.03513,0.694326 3.03513,2.255132 8.1e-4,1.409049 -0.76694,2.174358 -2.90703,2.174358 z m -0.39489,-3.754745 h -1.11859 v 3.08 h 1.45882 c 1.5657,0 2.16212,-0.422633 2.16212,-1.499613 0,-1.509404 -1.00029,-1.580387 -2.50235,-1.580387 z m 4.33158,6.763763 v -7.438508 h 0.78816 v 6.763763 h 3.25949 v 0.674745 z m 11.3189,0 -1.1398,-2.506427 h -3.66418 l -1.15041,2.506427 h -0.82977 l 3.37617,-7.438508 h 0.88362 l 3.38677,7.438508 z m -2.96169,-6.592425 -1.54367,3.412069 h 3.05634 z m 6.61037,4.105579 v 2.486846 h -0.78815 v -2.48603 l -2.72672,-4.952478 h 0.87382 l 2.23637,4.166772 2.29021,-4.166772 h 0.86322 z m 3.51161,2.486846 v -7.438508 h 4.30303 v 0.673929 h -3.51488 v 2.667974 h 3.39739 v 0.673113 h -3.39739 v 2.747931 h 3.51488 v 0.675561 z m 8.65664,-2.77812 2.20373,2.77812 h -0.97989 l -2.65166,-3.371275 c 2.20373,0 2.94946,-0.362257 2.94946,-1.701139 0,-1.237712 -0.80855,-1.691349 -2.64105,-1.691349 H 261.745 v 6.763763 h -0.78816 v -7.438508 h 1.94836 c 2.47134,0 3.38759,0.846083 3.38759,2.395466 0.002,1.318485 -0.80773,2.113982 -2.3204,2.264922 z m 8.5677,-0.230898 h -1.51185 v 3.009018 h -0.78897 v -7.438508 h 2.17354 c 2.16212,0 3.03513,0.694326 3.03513,2.255132 0,1.409049 -0.76694,2.174358 -2.90785,2.174358 z m -0.39326,-3.754745 h -1.11859 v 3.08 h 1.45882 c 1.56652,0 2.16212,-0.422633 2.16212,-1.499613 0,-1.509404 -1.0011,-1.580387 -2.50235,-1.580387 z m 8.12304,6.894306 c -2.35467,0 -4.13332,-1.650554 -4.13332,-3.824912 0,-2.224128 1.73623,-3.874682 4.07948,-3.874682 1.62934,0 3.01391,0.785706 3.62093,2.064213 h -0.88442 c -0.67067,-0.997023 -1.59753,-1.378862 -2.70469,-1.378862 -1.87493,0 -3.31253,1.368255 -3.31253,3.159143 0,1.741118 1.50124,3.170565 3.32313,3.170565 1.15041,0 1.90593,-0.412843 2.73651,-1.399259 h 0.87301 c -0.78571,1.378861 -2.00057,2.083794 -3.5981,2.083794 z m 8.47143,-6.894306 v 2.687555 h 3.0898 v 0.673929 h -3.0898 v 3.402279 h -0.78815 v -7.438508 h 3.9938 v 0.673929 h -3.20565 z m 8.97566,6.763763 -2.22576,-3.180356 -2.23718,3.180356 h -0.92604 l 2.67368,-3.804515 -2.52438,-3.633993 h 0.92686 l 2.08787,2.979646 2.07645,-2.979646 h 0.91625 l -2.52437,3.633993 2.68429,3.804515 z m -12.06708,-3.048997 c -0.31983,0 -0.57439,-0.241505 -0.57439,-0.543385 0,-0.301065 0.25456,-0.541754 0.57439,-0.541754 0.31004,0 0.57439,0.240689 0.57439,0.541754 0,0.30188 -0.26435,0.543385 -0.57439,0.543385 z"
       id="path23922"
       style="fill:#ffffff;fill-opacity:1;stroke-width:0.815894" /></g></svg>
