<?xml version="1.0" encoding="UTF-8" standalone="no"?>
<!-- Generator: Adobe Illustrator 13.0.0, SVG Export Plug-In . SVG Version: 6.00 Build 14948)  -->

<svg
   version="1.2"
   id="Ebene_1"
   x="0px"
   y="0px"
   width="285.6698"
   height="100"
   viewBox="0 0 285.66981 99.999994"
   xml:space="preserve"
   sodipodi:docname="tools.svg"
   inkscape:version="1.2.1 (9c6d41e410, 2022-07-14)"
   xmlns:inkscape="http://www.inkscape.org/namespaces/inkscape"
   xmlns:sodipodi="http://sodipodi.sourceforge.net/DTD/sodipodi-0.dtd"
   xmlns="http://www.w3.org/2000/svg"
   xmlns:svg="http://www.w3.org/2000/svg"><defs
     id="defs16050" /><sodipodi:namedview
     id="namedview16048"
     pagecolor="#505050"
     bordercolor="#ffffff"
     borderopacity="1"
     inkscape:showpageshadow="0"
     inkscape:pageopacity="0"
     inkscape:pagecheckerboard="1"
     inkscape:deskcolor="#505050"
     showgrid="false"
     inkscape:zoom="1.1923159"
     inkscape:cx="64.999553"
     inkscape:cy="27.677229"
     inkscape:window-width="1920"
     inkscape:window-height="1017"
     inkscape:window-x="-8"
     inkscape:window-y="-8"
     inkscape:window-maximized="1"
     inkscape:current-layer="Ebene_1" /><g
     aria-label="TOOLS"
     id="text29640"
     style="font-size:120px;font-family:Impact;-inkscape-font-specification:'Impact, Normal';fill:#ffffff;stroke:#000000;stroke-width:4;stroke-linecap:round;stroke-linejoin:round;stroke-miterlimit:0;paint-order:markers stroke fill"
     transform="matrix(0.97231193,0,0,0.97231193,1.260967,-1.1128414)"><path
       d="M 54.609375,5.1367187 V 24.121094 H 39.960937 V 100 H 15.292969 V 24.121094 H 0.703125 V 5.1367187 Z"
       id="path29642" /><path
       d="m 116.60156,60.683594 q 0,14.296875 -0.70312,20.273437 -0.64453,5.917969 -4.21875,10.839844 -3.51563,4.921875 -9.55078,7.558594 -6.03516,2.636721 -14.062504,2.636721 -7.617187,0 -13.710937,-2.46094 -6.035157,-2.519531 -9.726563,-7.5 Q 60.9375,87.050781 60.234375,81.191406 59.53125,75.332031 59.53125,60.683594 V 44.453125 q 0,-14.296875 0.644531,-20.214844 0.703125,-5.976562 4.21875,-10.898437 3.574219,-4.9218752 9.609375,-7.558594 6.035156,-2.6367187 14.0625,-2.6367187 7.617188,0 13.652344,2.5195312 6.09375,2.4609375 9.78516,7.4414065 3.6914,4.980468 4.39453,10.839843 0.70312,5.859375 0.70312,20.507813 z M 91.933594,29.511719 q 0,-6.621094 -0.761719,-8.4375 -0.703125,-1.875 -2.988281,-1.875 -1.933594,0 -2.988282,1.523437 -0.996093,1.464844 -0.996093,8.789063 v 44.296875 q 0,8.261718 0.644531,10.195312 0.703125,1.933594 3.164062,1.933594 2.519532,0 3.222657,-2.226563 0.703125,-2.226562 0.703125,-10.605468 z"
       id="path29644" /><path
       d="m 182.16797,60.683594 q 0,14.296875 -0.70313,20.273437 -0.64453,5.917969 -4.21875,10.839844 -3.51562,4.921875 -9.55078,7.558594 -6.03515,2.636721 -14.0625,2.636721 -7.61719,0 -13.71094,-2.46094 -6.03515,-2.519531 -9.72656,-7.5 -3.6914,-4.980469 -4.39453,-10.839844 -0.70312,-5.859375 -0.70312,-20.507812 V 44.453125 q 0,-14.296875 0.64453,-20.214844 0.70312,-5.976562 4.21875,-10.898437 3.57422,-4.9218752 9.60937,-7.558594 6.03516,-2.6367187 14.0625,-2.6367187 7.61719,0 13.65235,2.5195312 6.09375,2.4609375 9.78515,7.4414065 3.69141,4.980468 4.39453,10.839843 0.70313,5.859375 0.70313,20.507813 z M 157.5,29.511719 q 0,-6.621094 -0.76172,-8.4375 -0.70312,-1.875 -2.98828,-1.875 -1.93359,0 -2.98828,1.523437 -0.9961,1.464844 -0.9961,8.789063 v 44.296875 q 0,8.261718 0.64454,10.195312 0.70312,1.933594 3.16406,1.933594 2.51953,0 3.22265,-2.226563 Q 157.5,81.484375 157.5,73.105469 Z"
       id="path29646" /><path
       d="M 216.03516,5.1367187 V 81.015625 h 15 V 100 H 191.36719 V 5.1367187 Z"
       id="path29648" /><path
       d="m 288.45703,33.847656 h -22.91016 v -7.03125 q 0,-4.921875 -0.8789,-6.269531 -0.87891,-1.347656 -2.92969,-1.347656 -2.22656,0 -3.39844,1.816406 -1.11328,1.816406 -1.11328,5.507812 0,4.746094 1.28906,7.148438 1.23047,2.402344 6.97266,5.800781 16.46484,9.785156 20.74219,16.054688 4.27734,6.269531 4.27734,20.214843 0,10.136719 -2.40234,14.941407 -2.34375,4.804687 -9.14063,8.085937 -6.79687,3.222659 -15.82031,3.222659 -9.90234,0 -16.93359,-3.750003 -6.97266,-3.75 -9.14063,-9.550781 -2.16797,-5.800781 -2.16797,-16.464844 v -6.210937 h 22.91016 v 11.542969 q 0,5.332031 0.9375,6.855468 0.99609,1.523438 3.45703,1.523438 2.46094,0 3.63281,-1.933594 1.23047,-1.933594 1.23047,-5.742187 0,-8.378907 -2.28515,-10.957032 -2.34375,-2.578125 -11.54297,-8.613281 -9.19922,-6.09375 -12.1875,-8.847656 -2.98828,-2.753906 -4.98047,-7.617188 -1.9336,-4.863281 -1.9336,-12.421875 0,-10.898437 2.75391,-15.937499 2.8125,-5.039063 9.02344,-7.851563 6.21094,-2.8710937 15,-2.8710937 9.60937,0 16.34765,3.1054687 6.79688,3.1054688 8.96485,7.851563 2.22656,4.687499 2.22656,15.996093 z"
       id="path29650" /></g></svg>
