<?xml version="1.0" encoding="UTF-8" standalone="no"?>
<!-- Generator: Adobe Illustrator 13.0.0, SVG Export Plug-In . SVG Version: 6.00 Build 14948)  -->

<svg
   version="1.2"
   id="Ebene_1"
   x="0px"
   y="0px"
   width="840.44269"
   height="100"
   viewBox="0 0 840.44272 99.999997"
   xml:space="preserve"
   sodipodi:docname="c16mio.svg"
   inkscape:version="1.2.1 (9c6d41e410, 2022-07-14)"
   xmlns:inkscape="http://www.inkscape.org/namespaces/inkscape"
   xmlns:sodipodi="http://sodipodi.sourceforge.net/DTD/sodipodi-0.dtd"
   xmlns="http://www.w3.org/2000/svg"
   xmlns:svg="http://www.w3.org/2000/svg"
   xmlns:ns="&amp;ns_sfw;"><defs
   id="defs16050" /><sodipodi:namedview
   id="namedview16048"
   pagecolor="#505050"
   bordercolor="#ffffff"
   borderopacity="1"
   inkscape:showpageshadow="0"
   inkscape:pageopacity="0"
   inkscape:pagecheckerboard="1"
   inkscape:deskcolor="#505050"
   showgrid="false"
   inkscape:zoom="0.84309467"
   inkscape:cx="471.4773"
   inkscape:cy="-1.1861064"
   inkscape:window-width="1920"
   inkscape:window-height="1017"
   inkscape:window-x="-8"
   inkscape:window-y="-8"
   inkscape:window-maximized="1"
   inkscape:current-layer="Ebene_1" />
<metadata
   id="metadata16037">
	<ns:sfw>
		<ns:slices />
		<ns:sliceSourceBounds
   x="749.163"
   y="518.519"
   width="352.675"
   height="41.963"
   bottomLeftOrigin="true" />
	</ns:sfw>
</metadata>
<g
   id="g3"
   transform="matrix(2.3830517,0,0,2.3830517,-204.94245,-955.3416)"
   style="display:inline">
	<path
   id="path5"
   fill="#6f685f"
   d="m 106.982,400.89 h 310.711 c 11.541,0 20.982,9.441 20.982,20.981 v 0 c 0,11.542 -9.441,20.982 -20.982,20.982 H 106.982 C 95.441,442.853 86,433.413 86,421.871 v 0 c 0,-11.539 9.441,-20.981 20.982,-20.981 z" />
	<polygon
   id="polygon7"
   fill="#e2001a"
   points="364.238,408.062 364.238,411.131 319.269,411.131 319.269,408.062 " />
	<polygon
   id="polygon9"
   fill="#e95e38"
   points="364.238,414.2 364.238,417.269 319.269,417.269 319.269,414.2 " />
	<polygon
   id="polygon11"
   fill="#ffcc00"
   points="364.238,420.337 364.238,423.407 319.269,423.407 319.269,420.337 " />
	<polygon
   id="polygon13"
   fill="#57ab27"
   points="364.238,426.475 364.238,429.543 319.269,429.543 319.269,426.475 " />
	<polygon
   id="polygon15"
   fill="#009ee0"
   points="364.238,432.614 364.238,435.682 319.269,435.682 319.269,432.614 " />
	
<g
   id="g20330"><path
     id="path17"
     fill="#ffffff"
     d="m 283.488,415.679 h -3.961 v 11.364 h 4.133 v -5.94 c 0,-1.549 0.948,-2.325 2.671,-2.325 1.721,0 2.153,0.517 2.238,1.979 h 3.876 c 0,-3.874 -0.517,-5.338 -4.65,-5.338 -2.498,0 -3.359,0.517 -4.306,2.411 z m -162.519,6.827 h -6.651 v 5.455 h 11.955 z m 5.303,-6.574 h -11.955 v 5.454 h 6.576 z m 176.245,8.874 c -3.959,0 -4.563,-0.345 -4.563,-2.326 h 10.852 c -0.172,-5.508 -0.172,-6.801 -7.492,-6.801 -6.202,0 -7.58,1.119 -7.58,6.027 0,4.564 1.81,5.683 6.805,5.77 5.598,0 8.268,-0.259 8.268,-3.961 h -4.049 c -0.173,0.86 -0.516,1.291 -2.241,1.291 z m -4.648,-4.735 c 0.172,-1.206 0.516,-1.637 3.271,-1.637 3.016,0 3.445,0.173 3.617,1.637 z m -153.973,0.43 h 4.133 c -0.344,-3.876 -1.464,-4.822 -7.232,-4.822 -6.545,0 -8.009,1.031 -8.009,5.855 0,4.822 1.378,5.941 7.492,5.941 6.458,0 7.75,-0.861 7.75,-4.909 h -4.133 c 0,1.12 -0.43,1.638 -3.617,1.638 -2.756,0 -3.358,-0.688 -3.358,-2.928 0,-2.153 0.602,-2.153 3.876,-2.153 2.409,0 2.839,0.259 3.098,1.378 z m 96.017,0.687 c 0,-4.649 -1.377,-5.595 -8.009,-5.595 -7.147,0 -8.007,1.205 -8.007,6.026 0,4.823 1.204,5.856 8.007,5.856 7.235,10e-4 8.009,-1.204 8.009,-6.287 z m -11.797,0.261 c 0,-2.326 0.517,-2.583 3.531,-2.583 3.358,0 3.96,0.085 3.96,2.583 0,2.325 -0.431,2.756 -3.617,2.756 -3.444,0 -3.874,-0.346 -3.874,-2.756 z m 48.911,-0.261 c 0,-4.649 -1.292,-5.595 -7.92,-5.595 -7.062,0 -7.923,1.117 -7.923,5.941 0,4.908 1.205,5.941 7.923,5.941 7.231,10e-4 7.92,-1.204 7.92,-6.287 z m -11.71,0.261 c 0,-2.326 0.516,-2.583 3.53,-2.583 3.359,0 3.961,0.085 3.961,2.583 0,2.325 -0.43,2.756 -3.616,2.756 -3.443,0 -3.875,-0.346 -3.875,-2.756 z m -98.945,-0.261 c 0,-4.649 -1.292,-5.595 -7.922,-5.595 -7.147,0 -8.009,1.117 -8.009,5.941 0,4.908 1.207,5.941 8.009,5.941 7.234,10e-4 7.922,-1.204 7.922,-6.287 z m -11.627,0.261 c 0,-2.326 0.517,-2.583 3.446,-2.583 3.358,0 3.961,0.085 3.961,2.583 0,2.325 -0.432,2.756 -3.617,2.756 -3.36,0 -3.79,-0.346 -3.79,-2.756 z m 99.549,-10.594 v 6.631 c -0.947,-1.292 -1.808,-1.979 -5.252,-1.979 -5.511,0 -6.545,1.464 -6.545,5.941 0,4.565 1.465,5.854 6.803,5.854 3.359,0 4.392,-0.86 5.167,-2.324 v 2.063 h 4.134 v -16.188 z m -3.014,7.924 c 2.324,0 3.101,0.344 3.101,2.151 0,2.757 -0.174,3.018 -3.444,3.018 -3.273,0 -4.134,-0.089 -4.134,-2.413 0,-2.67 1.033,-2.756 4.477,-2.756 z m -137.336,-3.221 v -7.023 c -1.419,-0.374 -2.392,-0.524 -3.81,-0.524 -7.398,0 -13.898,6.203 -13.898,13.898 0,7.921 6.574,13.824 13.972,13.824 1.345,0 2.092,-0.15 3.736,-0.6 v -7.172 c -1.645,0.82 -2.465,1.045 -3.81,1.045 -4.11,0 -7.25,-3.436 -7.25,-7.247 0,-3.959 3.064,-7.323 7.174,-7.323 1.421,0 2.616,0.375 3.886,1.122 z m 58.972,0.121 h -3.874 v 11.364 h 4.133 v -5.855 c 0,-1.721 0.861,-2.323 3.187,-2.323 2.153,0 2.756,0.774 2.756,2.927 v 5.251 h 4.219 v -6.026 c 0,-1.636 1.291,-2.152 3.271,-2.152 1.895,0 2.756,0.517 2.756,2.152 v 6.026 h 4.133 v -6.716 c 0,-3.356 -2.067,-4.908 -5.855,-4.908 -3.273,0 -4.479,1.206 -4.91,2.497 -0.861,-1.464 -2.066,-2.497 -5.339,-2.497 -3.1,0 -3.961,1.033 -4.478,2.928 z m 27.815,0 h -3.875 v 11.364 h 4.133 v -5.855 c 0,-1.721 1.033,-2.323 3.099,-2.323 2.154,0 2.756,0.689 2.756,2.927 v 5.251 h 4.221 v -6.026 c 0,-1.636 1.206,-2.152 3.187,-2.152 1.894,0 2.84,0.602 2.84,2.152 v 6.026 h 4.134 v -6.716 c 0,-3.356 -2.066,-4.908 -5.855,-4.908 -3.272,0 -4.393,1.119 -4.908,2.497 -0.862,-1.464 -2.068,-2.497 -5.34,-2.497 -3.013,0 -3.788,1.033 -4.391,2.928 z"
     style="display:inline"
     sodipodi:nodetypes="ccccssccsccccccccccccsccsscccscsccccsssccssscssscssssssssscssssssssscssssssccssscccccsssssccsssccssscccccsssccsssccsscsccccccsssccsssccsscscc" /><path
     id="path18260"
     style="fill:#ffffff;fill-opacity:1"
     transform="matrix(1.3441064,0,0,1.3441063,86.000501,358.927)"
     d="m 221.96361,53.811527 h 4.411 v -15.657 h -5.73 l -6.64,4.325 2.185,3.136 5.774,-3.698 z m 27.56266,-3.659244 c 0,2.893373 -2.54295,4.339687 -7.63183,4.339687 h -2.60396 c -2.86734,0 -4.85453,-0.495497 -5.96531,-1.48277 -1.11152,-0.989505 -1.66504,-2.702167 -1.66504,-5.137986 v -3.276527 c 0,-2.420939 0.55352,-4.125418 1.66504,-5.114923 1.11003,-0.989505 3.09797,-1.483513 5.96531,-1.483513 h 2.60396 c 2.3629,0 4.13955,0.316939 5.32993,0.952305 1.19187,0.635367 1.78706,1.564609 1.78706,2.789958 v 1.174015 h -6.11782 v -0.420354 c 0,-0.383898 -0.11011,-0.635367 -0.33256,-0.753661 -0.22245,-0.11755 -0.66661,-0.177813 -1.33248,-0.177813 h -1.4545 c -0.82657,0 -1.35704,0.06696 -1.58842,0.200133 -0.23361,0.13243 -0.34893,0.449369 -0.34893,0.951562 v 2.257262 c 0.88609,-0.486569 1.98794,-0.729109 3.30182,-0.729109 h 2.14939 c 2.16054,0 3.74003,0.365298 4.73995,1.095151 0.99843,0.730597 1.49839,1.856996 1.49839,3.376965 z m -6.11633,-0.244028 v -1.172526 c 0,-0.415146 -0.13689,-0.676286 -0.40994,-0.78714 -0.27155,-0.109367 -0.86302,-0.166654 -1.77143,-0.166654 h -1.17997 c -0.9099,0 -1.50509,0.05134 -1.78706,0.156238 -0.28346,0.101926 -0.42407,0.36753 -0.42407,0.796068 v 1.172526 c 0,0.444161 0.14061,0.720925 0.42407,0.829548 0.28197,0.11011 0.87791,0.167397 1.78706,0.167397 h 1.17997 c 0.92849,0 1.52443,-0.0558 1.78706,-0.167397 0.26188,-0.107135 0.39431,-0.383899 0.39431,-0.82806 z"
     sodipodi:nodetypes="ccccccccssscsscsscsccscsscscsscsssscsscsscsscs" /></g></g>
</svg>
