<?xml version="1.0" encoding="UTF-8" standalone="no"?>
<!-- Created with Inkscape (http://www.inkscape.org/) -->

<svg
   id="svg2"
   version="1.1"
   inkscape:version="1.2.1 (9c6d41e410, 2022-07-14)"
   width="246.91811"
   height="100"
   xml:space="preserve"
   sodipodi:docname="msx.svg"
   xmlns:inkscape="http://www.inkscape.org/namespaces/inkscape"
   xmlns:sodipodi="http://sodipodi.sourceforge.net/DTD/sodipodi-0.dtd"
   xmlns="http://www.w3.org/2000/svg"
   xmlns:svg="http://www.w3.org/2000/svg"><defs
     id="defs6" /><sodipodi:namedview
     pagecolor="#ffffff"
     bordercolor="#666666"
     borderopacity="1"
     objecttolerance="10"
     gridtolerance="10"
     guidetolerance="10"
     inkscape:pageopacity="0"
     inkscape:pageshadow="2"
     inkscape:window-width="1920"
     inkscape:window-height="1017"
     id="namedview4"
     showgrid="false"
     inkscape:zoom="2.6566454"
     inkscape:cx="82.622995"
     inkscape:cy="33.124481"
     inkscape:window-x="-8"
     inkscape:window-y="-8"
     inkscape:window-maximized="1"
     inkscape:current-layer="g10"
     inkscape:showpageshadow="0"
     inkscape:pagecheckerboard="1"
     inkscape:deskcolor="#d1d1d1" /><g
     id="g10"
     inkscape:groupmode="layer"
     inkscape:label="ink_ext_XXXXXX"
     transform="matrix(1.25,0,0,-1.25,0,66.01075)"><g
       id="g12"
       transform="matrix(0.15149047,0,0,0.15149047,0,-27.191397)"><path
         d="M 0,0 H 1303.94 V 528.086 H 0 Z"
         style="fill:#231f20;fill-opacity:1;fill-rule:nonzero;stroke:none"
         id="path14" /><path
         d="M 1200.78,453.75 1076.81,272.695 1211.65,74.8828 H 1087.13 L 1013.04,180.781 938.355,74.6289 H 814.664 c 3.359,6.9727 135.399,198.0661 135.399,198.0661 l -56.278,78.301 -238.746,-0.273 c -11.133,-0.879 -24.785,2.5 -30.371,-10.059 -1.953,-4.16 -2.793,-10.293 -0.547,-14.492 1.934,-4.727 6.406,-9.18 11.406,-10.567 l 7.52,-0.566 h 95.562 c 44.278,-1.113 85.254,-28.672 104.454,-68.516 17.011,-33.437 14.5,-79.121 -4.454,-110.898 C 814.664,95.2539 772.027,72.6758 725.797,74.3359 H 460.02 c 0,0 -40.684,146.8361 -40.957,147.0901 L 378.105,74.3359 281.172,74.3164 242.168,221.992 199.531,74.6289 H 92.2852 c 0,0 98.6128,354.9021 105.0198,378.3201 h 90.566 l 42.617,-158.242 43.457,158.242 88.868,0.02 76.054,-275.567 h 177.184 c 12.226,0.586 29.238,-2.754 34.258,12.266 1.953,6.719 0.293,13.672 -4.454,18.398 -4.472,3.907 -10.039,5 -15.878,5 l -95.27,0.02 c -45.137,1.387 -89.98,30.918 -106.699,74.355 -18.106,43.477 -7.52,95.586 25.625,129.239 23.398,23.457 51.25,35.156 83.867,36.543 l 312.563,0.273 62.977,-90.801 65.16,91.075 122.58,-0.02"
         style="fill:#ffffff;fill-opacity:1;fill-rule:nonzero;stroke:none"
         id="path16" /></g></g></svg>
