<?xml version="1.0" encoding="UTF-8" standalone="no"?>
<svg
   id="Layer_1"
   data-name="Layer 1"
   width="551.44275"
   height="100"
   viewBox="0 0 551.44275 100"
   version="1.1"
   sodipodi:docname="arcade.svg"
   inkscape:version="1.2.1 (9c6d41e410, 2022-07-14)"
   xmlns:inkscape="http://www.inkscape.org/namespaces/inkscape"
   xmlns:sodipodi="http://sodipodi.sourceforge.net/DTD/sodipodi-0.dtd"
   xmlns:xlink="http://www.w3.org/1999/xlink"
   xmlns="http://www.w3.org/2000/svg"
   xmlns:svg="http://www.w3.org/2000/svg"
   xmlns:rdf="http://www.w3.org/1999/02/22-rdf-syntax-ns#"
   xmlns:cc="http://creativecommons.org/ns#"
   xmlns:dc="http://purl.org/dc/elements/1.1/">
  <sodipodi:namedview
     id="namedview19664"
     pagecolor="#505050"
     bordercolor="#ffffff"
     borderopacity="1"
     inkscape:showpageshadow="0"
     inkscape:pageopacity="0"
     inkscape:pagecheckerboard="1"
     inkscape:deskcolor="#505050"
     showgrid="false"
     inkscape:zoom="0.90359453"
     inkscape:cx="149.95664"
     inkscape:cy="-26.560586"
     inkscape:window-width="1920"
     inkscape:window-height="1017"
     inkscape:window-x="-8"
     inkscape:window-y="-8"
     inkscape:window-maximized="1"
     inkscape:current-layer="Layer_1" />
  <defs
     id="defs19631">
    <linearGradient
       id="linear-gradient"
       x1="374.716"
       y1="65.510002"
       x2="374.716"
       y2="14.614"
       gradientUnits="userSpaceOnUse">
      <stop
         offset="0"
         stop-color="#f59331"
         id="stop19623" />
      <stop
         offset="0.5"
         stop-color="#f8eb48"
         id="stop19625" />
      <stop
         offset="1"
         stop-color="#f59331"
         id="stop19627" />
    </linearGradient>
    <linearGradient
       id="linear-gradient-2"
       x1="178.315"
       y1="65.510002"
       x2="178.315"
       y2="14.614"
       xlink:href="#linear-gradient" />
    <linearGradient
       inkscape:collect="always"
       xlink:href="#linear-gradient"
       id="linearGradient20400"
       gradientUnits="userSpaceOnUse"
       x1="374.716"
       y1="65.510002"
       x2="374.716"
       y2="14.614" />
  </defs>
  <title
     id="title19633">Artboard 1</title>
  <g
     id="g19661"
     transform="matrix(1.3786068,0,0,1.3786068,-20.146959,-10.07348)">
    <rect
       x="341.979"
       y="14.614"
       width="65.473"
       height="50.896"
       fill="url(#linear-gradient)"
       id="rect19637"
       style="fill:url(#linearGradient20400)" />
    <rect
       x="21.921"
       y="14.614"
       width="312.78699"
       height="50.896"
       fill="url(#linear-gradient-2)"
       id="rect19639"
       style="fill:url(#linear-gradient-2)" />
    <g
       id="g19653">
      <path
         d="m 14.614,21.74 v -7.126 h 7.307 v 7.126 z m 0,7.307 V 21.74 h 7.307 v 7.307 z m 0,7.307 v -7.307 h 7.307 v 7.307 z m 0,7.271 v -7.271 h 7.307 v 7.271 z m 0,7.307 v -7.307 h 7.307 v 7.307 z m 0,7.271 v -7.271 h 7.307 V 58.2 Z m 0,7.308 V 58.2 h 7.307 v 7.31 z m 0,7.125 V 65.51 h 7.307 v 7.125 z M 21.921,14.615 V 7.307 h 7.271 v 7.307 z m 0,7.125 v -7.126 h 7.271 v 7.126 z m 0,50.9 v -7.13 h 7.271 v 7.125 z m 7.271,0 v 7.2 h -7.271 v -7.2 z m 0,-58.021 V 7.307 H 36.5 v 7.307 z m 0,58.021 V 65.51 H 36.5 v 7.125 z m 7.307,0 v 7.2 h -7.307 v -7.2 z m 0,-58.021 V 7.307 h 7.125 v 7.307 z m 0,14.432 V 21.74 h 7.125 v 7.307 z m 0,7.307 v -7.311 h 7.125 v 7.307 z m 0,7.271 v -7.275 h 7.125 v 7.271 z m 0,14.578 v -7.275 h 7.125 V 58.2 Z m 0,7.308 V 58.2 h 7.125 v 7.31 z m 0,7.125 v -7.13 h 7.125 v 7.125 z m 7.125,0 v 7.2 H 36.5 v -7.2 z m 0,-58.021 V 7.307 h 7.307 v 7.307 z m 0,14.432 V 21.74 h 7.307 v 7.307 z m 0,7.307 v -7.311 h 7.307 v 7.307 z m 0,7.271 v -7.275 h 7.307 v 7.271 z m 0,14.578 v -7.275 h 7.307 V 58.2 Z m 0,7.308 V 58.2 h 7.307 v 7.31 z m 0,7.125 v -7.13 h 7.307 v 7.125 z m 7.307,0 v 7.2 h -7.306 v -7.2 z m 0,-58.021 V 7.307 h 7.307 v 7.307 z m 0,14.432 V 21.74 h 7.307 v 7.307 z m 0,7.307 v -7.311 h 7.307 v 7.307 z m 0,7.271 v -7.275 h 7.307 v 7.271 z m 0,14.578 v -7.275 h 7.307 V 58.2 Z m 0,7.308 V 58.2 h 7.307 v 7.31 z m 0,7.125 v -7.13 h 7.307 v 7.125 z M 58.238,14.619 V 7.307 h 7.271 v 7.307 z m 0,58.021 v -7.13 h 7.271 v 7.125 z m 7.271,0 v 7.2 h -7.27 v -7.2 z m 0,-58.021 V 7.307 h 7.307 v 7.307 z m 0,7.125 v -7.13 h 7.307 v 7.126 z m 0,50.9 V 65.51 h 7.307 v 7.125 z m 7.307,0 v 7.2 h -7.307 v -7.2 z m 0,-50.9 v -7.13 h 7.271 v 7.126 z m 0,7.307 V 21.74 h 7.271 v 7.307 z m 0,7.307 v -7.311 h 7.271 v 7.307 z m 0,7.271 v -7.275 h 7.271 v 7.271 z m 0,7.307 v -7.311 h 7.271 v 7.307 z m 0,7.271 v -7.275 h 7.271 V 58.2 Z m 0,7.308 V 58.2 h 7.271 v 7.31 z m 0,7.125 v -7.13 h 7.271 v 7.125 z m 7.271,0 v 7.2 h -7.27 v -7.2 z m 0,-43.589 V 21.74 h 7.162 v 7.307 z m 0,7.307 v -7.311 h 7.162 v 7.307 z m 0,7.271 v -7.275 h 7.162 v 7.271 z m 0,7.307 v -7.311 h 7.162 v 7.307 z m 0,7.271 v -7.275 h 7.162 V 58.2 Z m 0,7.308 V 58.2 h 7.162 v 7.31 z m 0,7.125 v -7.13 h 7.162 v 7.125 z m 7.162,0 v 7.2 h -7.162 v -7.2 z"
         id="path19641" />
      <path
         d="M 80.087,14.614 V 7.307 h 7.307 v 7.307 z m 0,7.125 v -7.125 h 7.307 v 7.126 z m 0,7.307 V 21.74 h 7.307 v 7.307 z m 0,7.307 v -7.306 h 7.307 v 7.307 z m 0,7.271 v -7.27 h 7.307 v 7.271 z m 0,7.307 v -7.306 h 7.307 v 7.307 z m 0,7.271 v -7.27 h 7.307 V 58.2 Z m 0,7.308 V 58.2 h 7.307 v 7.31 z m 0,7.125 V 65.51 h 7.307 v 7.125 z M 87.394,14.614 V 7.307 h 7.271 v 7.307 z m 0,58.021 V 65.51 h 7.271 v 7.125 z m 7.271,0 v 7.2 h -7.271 v -7.2 z m 0,-58.021 V 7.307 h 7.307 v 7.307 z m 0,58.021 V 65.51 h 7.307 v 7.125 z m 7.307,0 v 7.2 h -7.307 v -7.2 z m 0,-58.021 V 7.307 h 7.128 v 7.307 z m 0,14.432 V 21.74 h 7.128 v 7.307 z m 0,7.307 v -7.306 h 7.128 v 7.307 z m 0,14.578 v -7.306 h 7.128 v 7.307 z m 0,7.271 v -7.27 H 109.1 V 58.2 Z m 0,7.308 V 58.2 h 7.128 v 7.31 z m 0,7.125 V 65.51 h 7.128 v 7.125 z m 7.125,0 v 7.2 h -7.125 v -7.2 z m 0,-58.021 V 7.307 h 7.303 v 7.307 z m 0,14.432 V 21.74 h 7.303 v 7.307 z m 0,7.307 v -7.306 h 7.303 v 7.307 z m 0,14.578 v -7.306 h 7.303 v 7.307 z m 0,7.271 v -7.27 H 116.4 V 58.2 Z m 0,7.308 V 58.2 h 7.303 v 7.31 z m 0,7.125 V 65.51 h 7.303 v 7.125 z m 7.307,0 v 7.2 H 109.1 v -7.2 z m 0,-58.021 V 7.307 h 7.307 v 7.307 z m 0,14.432 V 21.74 h 7.307 v 7.307 z m 0,7.307 v -7.306 h 7.307 v 7.307 z m 0,14.578 v -7.306 h 7.307 v 7.307 z m 0,7.271 v -7.27 h 7.307 V 58.2 Z m 0,7.308 V 58.2 h 7.307 v 7.31 z m 0,7.125 V 65.51 h 7.307 v 7.125 z m 7.307,-58.021 V 7.307 h 7.271 v 7.307 z m 0,58.021 V 65.51 h 7.271 v 7.125 z m 7.271,0 v 7.2 h -7.271 v -7.2 z m 0,-58.021 V 7.307 h 7.307 v 7.307 z m 0,7.125 v -7.125 h 7.307 v 7.126 z m 0,21.885 v -7.27 h 7.307 v 7.271 z m 0,29.011 V 65.51 h 7.307 v 7.125 z m 7.307,0 v 7.2 h -7.307 v -7.2 z m 0,-50.9 v -7.121 h 7.271 v 7.126 z m 0,7.307 V 21.74 h 7.271 v 7.307 z m 0,7.307 v -7.302 h 7.271 v 7.307 z m 0,7.271 v -7.266 h 7.271 v 7.271 z m 0,7.307 v -7.302 h 7.271 v 7.307 z m 0,7.271 v -7.266 h 7.271 V 58.2 Z m 0,7.308 V 58.2 h 7.271 v 7.31 z m 0,7.125 V 65.51 h 7.271 v 7.125 z m 7.271,0 v 7.2 h -7.27 v -7.2 z m 0,-43.589 V 21.74 h 7.162 v 7.307 z m 0,7.307 v -7.302 h 7.162 v 7.307 z m 0,7.271 v -7.266 h 7.162 v 7.271 z m 0,7.307 v -7.302 h 7.162 v 7.307 z m 0,7.271 v -7.266 h 7.162 V 58.2 Z m 0,7.308 V 58.2 h 7.162 v 7.31 z m 0,7.125 V 65.51 h 7.162 v 7.125 z m 7.162,0 v 7.2 h -7.162 v -7.2 z"
         id="path19643" />
      <path
         d="m 145.56,21.74 v -7.126 h 7.307 v 7.126 z m 0,7.307 V 21.74 h 7.307 v 7.307 z m 0,7.307 v -7.307 h 7.307 v 7.307 z m 0,7.271 v -7.271 h 7.307 v 7.271 z m 0,7.307 v -7.307 h 7.307 v 7.307 z m 0,7.271 v -7.271 h 7.307 V 58.2 Z m 0,7.308 V 58.2 h 7.307 v 7.31 z m 7.307,-50.9 V 7.307 h 7.271 v 7.307 z m 0,7.125 v -7.122 h 7.271 v 7.126 z m 0,43.77 V 58.2 h 7.271 v 7.31 z m 0,7.125 V 65.51 h 7.271 v 7.125 z M 160.138,14.61 V 7.307 h 7.307 v 7.307 z m 0,58.021 V 65.51 h 7.307 v 7.125 z m 7.307,0 v 7.2 h -7.307 v -7.2 z m 0,-58.021 V 7.307 h 7.125 v 7.307 z m 0,14.432 V 21.74 h 7.125 v 7.307 z m 0,7.307 v -7.302 h 7.125 v 7.307 z m 0,7.271 v -7.266 h 7.125 v 7.271 z m 0,7.307 v -7.302 h 7.125 v 7.307 z m 0,7.271 v -7.266 h 7.125 V 58.2 Z m 0,14.433 V 65.51 h 7.125 v 7.125 z m 7.125,0 v 7.2 h -7.125 v -7.2 z m 0,-58.021 V 7.307 h 7.307 v 7.307 z m 0,14.432 V 21.74 h 7.307 v 7.307 z m 0,7.307 v -7.302 h 7.307 v 7.307 z m 0,7.271 v -7.266 h 7.307 v 7.271 z m 0,7.307 v -7.302 h 7.307 v 7.307 z m 0,7.271 v -7.266 h 7.307 V 58.2 Z m 0,14.433 V 65.51 h 7.307 v 7.125 z m 7.307,0 v 7.2 h -7.307 v -7.2 z m 0,-58.021 V 7.307 h 7.307 v 7.307 z m 0,14.432 V 21.74 h 7.307 v 7.307 z m 0,7.307 v -7.302 h 7.307 v 7.307 z m 0,7.271 v -7.266 h 7.307 v 7.271 z m 0,7.307 v -7.302 h 7.307 v 7.307 z m 0,7.271 v -7.266 h 7.307 V 58.2 Z m 0,14.433 V 65.51 h 7.307 v 7.125 z m 7.307,0 v 7.2 h -7.307 v -7.2 z m 0,-58.021 V 7.307 h 7.271 v 7.307 z m 0,21.74 v -7.303 h 7.271 v 7.307 z m 0,7.271 v -7.267 h 7.271 v 7.271 z m 0,7.307 v -7.303 h 7.271 v 7.307 z m 0,21.7 V 65.51 h 7.271 v 7.125 z m 7.271,0 v 7.2 h -7.271 v -7.2 z m 0,-58.021 v -7.3 h 7.307 v 7.307 z m 0,7.125 v -7.118 h 7.307 v 7.126 z m 0,14.614 v -7.299 h 7.307 v 7.307 z m 0,7.271 v -7.263 h 7.307 v 7.271 z m 0,7.307 v -7.299 h 7.307 v 7.307 z m 0,14.578 V 58.2 h 7.307 v 7.31 z m 0,7.125 V 65.51 h 7.307 v 7.125 z m 7.307,0 v 7.2 h -7.307 v -7.2 z m 0,-50.9 v -7.113 h 7.271 v 7.126 z m 0,7.307 V 21.74 h 7.271 v 7.307 z m 0,7.307 v -7.294 h 7.271 v 7.307 z m 0,7.271 v -7.258 h 7.271 v 7.271 z m 0,7.307 v -7.294 h 7.271 v 7.307 z m 0,7.271 v -7.258 h 7.271 V 58.2 Z m 0,7.308 V 58.2 h 7.271 v 7.31 z m 0,7.125 V 65.51 h 7.271 v 7.125 z m 7.271,0 v 7.2 h -7.271 v -7.2 z m 0,-43.589 V 21.74 h 7.162 v 7.307 z m 0,7.307 v -7.294 h 7.162 v 7.307 z m 0,7.271 v -7.258 h 7.162 v 7.271 z m 0,14.578 v -7.258 h 7.162 V 58.2 Z m 0,7.308 V 58.2 h 7.162 v 7.31 z m 0,7.125 V 65.51 h 7.162 v 7.125 z"
         id="path19645" />
      <path
         d="m 211.033,21.74 v -7.126 h 7.307 v 7.126 z m 0,7.307 V 21.74 h 7.307 v 7.307 z m 0,7.307 v -7.307 h 7.307 v 7.307 z m 0,7.271 v -7.271 h 7.307 v 7.271 z m 0,7.307 v -7.307 h 7.307 v 7.307 z m 0,7.271 v -7.271 h 7.307 V 58.2 Z m 0,7.308 V 58.2 h 7.307 v 7.31 z m 0,7.125 V 65.51 h 7.307 v 7.125 z M 218.34,14.615 V 7.307 h 7.271 v 7.307 z m 0,7.125 v -7.126 h 7.271 v 7.126 z m 0,50.9 v -7.13 h 7.271 v 7.125 z m 7.271,0 v 7.2 h -7.271 v -7.2 z m 0,-58.021 V 7.307 h 7.307 v 7.307 z m 0,58.021 v -7.13 h 7.307 v 7.125 z m 7.307,0 v 7.2 h -7.307 v -7.2 z m 0,-58.021 V 7.307 h 7.125 v 7.307 z m 0,14.432 V 21.74 h 7.125 v 7.307 z m 0,7.307 v -7.311 h 7.125 v 7.307 z m 0,7.271 v -7.275 h 7.125 v 7.271 z m 0,14.578 v -7.275 h 7.125 V 58.2 Z m 0,7.308 V 58.2 h 7.125 v 7.31 z m 0,7.125 v -7.13 h 7.125 v 7.125 z m 7.125,0 v 7.2 h -7.125 v -7.2 z m 0,-58.021 V 7.307 h 7.307 v 7.307 z m 0,14.432 V 21.74 h 7.307 v 7.307 z m 0,7.307 v -7.311 h 7.307 v 7.307 z m 0,7.271 v -7.275 h 7.307 v 7.271 z m 0,14.578 v -7.275 h 7.307 V 58.2 Z m 0,7.308 V 58.2 h 7.307 v 7.31 z m 0,7.125 v -7.13 h 7.307 v 7.125 z m 7.307,0 v 7.2 h -7.307 v -7.2 z m 0,-58.021 V 7.307 h 7.307 v 7.307 z m 0,14.432 V 21.74 h 7.307 v 7.307 z m 0,7.307 v -7.311 h 7.307 v 7.307 z m 0,7.271 v -7.275 h 7.307 v 7.271 z m 0,14.578 v -7.275 h 7.307 V 58.2 Z m 0,7.308 V 58.2 h 7.307 v 7.31 z m 0,7.125 v -7.13 h 7.307 v 7.125 z m 7.307,-58.021 V 7.307 h 7.271 v 7.307 z m 0,58.021 v -7.13 h 7.271 v 7.125 z m 7.271,0 v 7.2 h -7.271 v -7.2 z m 0,-58.021 V 7.307 h 7.307 v 7.307 z m 0,7.125 v -7.13 h 7.307 v 7.126 z m 0,50.9 V 65.51 h 7.307 v 7.125 z m 7.307,0 v 7.2 h -7.307 v -7.2 z m 0,-50.9 v -7.13 h 7.271 v 7.126 z m 0,7.307 V 21.74 h 7.271 v 7.307 z m 0,7.307 v -7.311 h 7.271 v 7.307 z m 0,7.271 v -7.275 h 7.271 v 7.271 z m 0,7.307 v -7.311 h 7.271 v 7.307 z m 0,7.271 v -7.275 h 7.271 V 58.2 Z m 0,7.308 V 58.2 h 7.271 v 7.31 z m 0,7.125 v -7.13 h 7.271 v 7.125 z m 7.271,0 v 7.2 h -7.271 v -7.2 z m 0,-43.589 V 21.74 h 7.162 v 7.307 z m 0,7.307 v -7.311 h 7.162 v 7.307 z m 0,7.271 v -7.275 h 7.162 v 7.271 z m 0,7.307 v -7.311 h 7.162 v 7.307 z m 0,7.271 v -7.275 h 7.162 V 58.2 Z m 0,7.308 V 58.2 h 7.162 v 7.31 z m 0,7.125 v -7.13 h 7.162 v 7.125 z m 7.162,0 v 7.2 h -7.162 v -7.2 z"
         id="path19647" />
      <path
         d="M 276.506,14.614 V 7.307 h 7.307 v 7.307 z m 0,7.125 v -7.125 h 7.307 v 7.126 z m 0,7.307 V 21.74 h 7.307 v 7.307 z m 0,7.307 v -7.306 h 7.307 v 7.307 z m 0,7.271 v -7.27 h 7.307 v 7.271 z m 0,7.307 v -7.306 h 7.307 v 7.307 z m 0,7.271 v -7.27 h 7.307 V 58.2 Z m 0,7.308 V 58.2 h 7.307 v 7.31 z m 0,7.125 V 65.51 h 7.307 v 7.125 z m 7.307,-58.021 V 7.307 h 7.271 v 7.307 z m 0,58.021 V 65.51 h 7.271 v 7.125 z m 7.271,0 v 7.2 h -7.271 v -7.2 z m 0,-58.021 V 7.307 h 7.307 v 7.307 z m 0,58.021 V 65.51 h 7.307 v 7.125 z m 7.307,0 v 7.2 h -7.307 v -7.2 z m 0,-58.021 V 7.307 h 7.125 v 7.307 z m 0,14.432 V 21.74 h 7.125 v 7.307 z m 0,7.307 v -7.306 h 7.125 v 7.307 z m 0,7.271 v -7.27 h 7.125 v 7.271 z m 0,7.307 v -7.306 h 7.125 v 7.307 z m 0,7.271 v -7.27 h 7.125 V 58.2 Z m 0,14.433 V 65.51 h 7.125 v 7.125 z m 7.125,0 v 7.2 h -7.125 v -7.2 z m 0,-58.021 V 7.307 h 7.307 v 7.307 z m 0,14.432 V 21.74 h 7.307 v 7.307 z m 0,7.307 v -7.306 h 7.307 v 7.307 z m 0,7.271 v -7.27 h 7.307 v 7.271 z m 0,7.307 v -7.306 h 7.307 v 7.307 z m 0,7.271 v -7.27 h 7.307 V 58.2 Z m 0,14.433 V 65.51 h 7.307 v 7.125 z m 7.307,0 v 7.2 h -7.307 v -7.2 z m 0,-58.021 V 7.307 h 7.307 v 7.307 z m 0,21.74 v -7.307 h 7.307 v 7.307 z m 0,7.271 v -7.271 h 7.307 v 7.271 z m 0,7.307 v -7.307 h 7.307 v 7.307 z m 0,21.7 V 65.51 h 7.307 v 7.125 z m 7.307,0 v 7.2 h -7.307 v -7.2 z m 0,-58.021 V 7.307 h 7.27 v 7.307 z m 0,7.125 v -7.122 h 7.27 v 7.126 z m 0,43.77 V 58.2 h 7.27 v 7.31 z m 0,7.125 V 65.51 h 7.27 v 7.125 z m 7.271,0 v 7.2 h -7.271 v -7.2 z m 0,-50.9 v -7.117 h 7.307 v 7.126 z m 0,7.307 V 21.74 h 7.307 v 7.307 z m 0,29.156 v -7.262 h 7.307 V 58.2 Z m 0,7.308 V 58.2 h 7.307 v 7.31 z m 0,7.125 V 65.51 h 7.307 v 7.125 z m 7.307,0 v 7.2 H 327.4 v -7.2 z m 0,-43.589 V 21.74 h 7.271 v 7.307 z m 0,7.307 v -7.298 h 7.271 v 7.307 z m 0,7.271 v -7.262 h 7.271 v 7.271 z m 0,7.307 v -7.298 h 7.271 v 7.307 z m 0,7.271 v -7.262 h 7.271 V 58.2 Z m 0,7.308 V 58.2 h 7.271 v 7.31 z m 0,7.125 V 65.51 h 7.271 v 7.125 z m 7.271,-36.282 v -7.298 h 7.162 v 7.307 z m 0,7.271 v -7.262 h 7.162 v 7.271 z m 0,7.307 v -7.298 h 7.162 v 7.307 z m 0,7.271 v -7.262 h 7.162 V 58.2 Z m 0,7.308 V 58.2 h 7.162 v 7.31 z"
         id="path19649" />
      <path
         d="M 341.979,14.614 V 7.307 h 7.307 v 7.307 z m 0,7.125 v -7.125 h 7.307 v 7.126 z m 0,7.307 V 21.74 h 7.307 v 7.307 z m 0,7.307 v -7.306 h 7.307 v 7.307 z m 0,7.271 v -7.27 h 7.307 v 7.271 z m 0,7.307 v -7.306 h 7.307 v 7.307 z m 0,7.271 v -7.27 h 7.307 V 58.2 Z m 0,7.308 V 58.2 h 7.307 v 7.31 z m 0,7.125 V 65.51 h 7.307 v 7.125 z m 7.307,-58.021 V 7.307 h 7.271 v 7.307 z m 0,58.021 V 65.51 h 7.271 v 7.125 z m 7.271,0 v 7.2 h -7.271 v -7.2 z m 0,-58.021 V 7.307 h 7.307 v 7.307 z m 0,58.021 V 65.51 h 7.307 v 7.125 z m 7.307,0 v 7.2 h -7.307 v -7.2 z m 0,-58.021 V 7.307 h 7.125 v 7.307 z m 0,14.432 V 21.74 h 7.125 v 7.307 z m 0,7.307 v -7.306 h 7.125 v 7.307 z m 0,14.578 v -7.306 h 7.125 v 7.307 z m 0,7.271 v -7.27 h 7.125 V 58.2 Z m 0,14.433 V 65.51 h 7.125 v 7.125 z m 7.125,0 v 7.2 h -7.125 v -7.2 z m 0,-58.021 V 7.307 h 7.311 v 7.307 z m 0,14.432 V 21.74 h 7.311 v 7.307 z m 0,7.307 v -7.306 h 7.311 v 7.307 z m 0,14.578 v -7.306 h 7.311 v 7.307 z m 0,7.271 v -7.27 H 378.3 V 58.2 Z m 0,14.433 V 65.51 h 7.311 v 7.125 z m 7.307,0 v 7.2 h -7.306 v -7.2 z m 0,-58.021 V 7.307 h 7.304 v 7.307 z m 0,14.432 V 21.74 h 7.304 v 7.307 z m 0,7.307 v -7.306 h 7.304 v 7.307 z m 0,14.578 v -7.306 h 7.304 v 7.307 z m 0,7.271 v -7.27 H 385.6 V 58.2 Z m 0,14.433 V 65.51 h 7.304 v 7.125 z m 7.307,0 v 7.2 H 378.3 v -7.2 z m 0,-58.021 V 7.307 h 7.271 v 7.307 z m 0,14.432 V 21.74 h 7.271 v 7.307 z m 0,7.307 v -7.306 h 7.271 v 7.307 z m 0,14.578 v -7.306 h 7.271 v 7.307 z m 0,7.271 v -7.27 h 7.271 V 58.2 Z m 0,14.433 V 65.51 h 7.271 v 7.125 z m 7.271,0 v 7.2 H 385.6 v -7.2 z m 0,-58.021 V 7.307 h 7.307 v 7.307 z m 0,14.432 V 21.74 h 7.307 v 7.307 z m 0,7.307 v -7.306 h 7.307 v 7.307 z m 0,7.271 v -7.27 h 7.307 v 7.271 z m 0,7.307 v -7.306 h 7.307 v 7.307 z m 0,7.271 v -7.27 h 7.307 V 58.2 Z m 0,14.433 V 65.51 h 7.307 v 7.125 z m 7.307,0 v 7.2 h -7.307 v -7.2 z m 0,-58.021 V 7.307 h 7.271 v 7.307 z m 0,7.125 v -7.125 h 7.271 v 7.126 z m 0,7.307 V 21.74 h 7.271 v 7.307 z m 0,7.307 v -7.306 h 7.271 v 7.307 z m 0,7.271 v -7.27 h 7.271 v 7.271 z m 0,7.307 v -7.306 h 7.271 v 7.307 z m 0,7.271 v -7.27 h 7.271 V 58.2 Z m 0,7.308 V 58.2 h 7.271 v 7.31 z m 0,7.125 V 65.51 h 7.271 v 7.125 z m 7.271,0 v 7.2 h -7.271 v -7.2 z m 0,-50.9 v -7.121 h 7.162 v 7.126 z m 0,7.307 V 21.74 h 7.162 v 7.307 z m 0,7.307 v -7.302 h 7.162 v 7.307 z m 0,29.156 V 58.2 h 7.162 v 7.31 z m 0,7.125 v -7.12 h 7.162 v 7.125 z m 7.162,0 v 7.2 h -7.162 v -7.2 z"
         id="path19651" />
    </g>
    <rect
       x="80.832001"
       y="72.635002"
       width="13.125"
       height="7.198"
       id="rect19655" />
    <rect
       x="147.396"
       y="65.473999"
       width="10.942"
       height="7.198"
       id="rect19657" />
    <rect
       x="278.34201"
       y="72.635002"
       width="10.942"
       height="7.198"
       id="rect19659" />
  </g>
  <metadata
     id="metadata54266">
    <rdf:RDF>
      <cc:Work
         rdf:about="">
        <dc:title>Artboard 1</dc:title>
      </cc:Work>
    </rdf:RDF>
  </metadata>
</svg>
