<?xml version="1.0" encoding="UTF-8" standalone="no"?>
<!-- Generator: Adobe Illustrator 26.0.1, SVG Export Plug-In . SVG Version: 6.00 Build 0)  -->

<svg
   version="1.1"
   id="Layer_1"
   x="0px"
   y="0px"
   viewBox="0 0 765.96167 99.999998"
   xml:space="preserve"
   sodipodi:docname="amigacd32.svg"
   width="765.96167"
   height="100"
   inkscape:version="1.2.1 (9c6d41e410, 2022-07-14)"
   xmlns:inkscape="http://www.inkscape.org/namespaces/inkscape"
   xmlns:sodipodi="http://sodipodi.sourceforge.net/DTD/sodipodi-0.dtd"
   xmlns="http://www.w3.org/2000/svg"
   xmlns:svg="http://www.w3.org/2000/svg"><defs
   id="defs10667">
		
	
			
		
				
				
				
				
				
			
		
	
			
			
		
		
		
	
	
	
	
</defs><sodipodi:namedview
   id="namedview10665"
   pagecolor="#505050"
   bordercolor="#ffffff"
   borderopacity="1"
   inkscape:showpageshadow="0"
   inkscape:pageopacity="0"
   inkscape:pagecheckerboard="1"
   inkscape:deskcolor="#505050"
   showgrid="false"
   inkscape:zoom="0.80822729"
   inkscape:cx="394.69095"
   inkscape:cy="-71.761992"
   inkscape:window-width="1920"
   inkscape:window-height="1017"
   inkscape:window-x="-8"
   inkscape:window-y="-8"
   inkscape:window-maximized="1"
   inkscape:current-layer="Layer_1" />
<style
   type="text/css"
   id="style10635">
	.st0{fill:#FF001F;}
	.st1{fill:url(#SVGID_1_);}
	.st2{fill:url(#SVGID_00000130606512212214315220000008846499915659980450_);}
	.st3{clip-path:url(#SVGID_00000140736035392270600020000013711345569853377666_);}
	.st4{fill:url(#SVGID_00000119832586673770508320000013100347455236559295_);}
	.st5{fill:url(#SVGID_00000086676042941363961300000007836202702428108215_);}
	.st6{fill:url(#SVGID_00000138566712955593781750000007796203761371047098_);}
	.st7{fill:#FFFFFF;}
</style>
<path
   id="path8517"
   style="stroke-width:0.199501;fill:#ff001f;fill-opacity:1"
   d="M 69.433594 13.085938 C 67.218911 13.145777 65.603074 13.784701 64.605469 15.021484 C 63.587912 16.258267 62.569181 17.71415 61.511719 19.429688 L 22.466797 74.347656 L 15.882812 83.623047 C 14.585926 85.59791 13.169124 87.4329 11.632812 89.148438 C 10.096502 90.844028 8.1403451 91.900282 5.7460938 92.279297 C 4.3893514 92.398985 3.1131413 92.659214 1.9160156 93.078125 C 0.71889002 93.497036 0.07980838 94.494411 0 96.070312 C 0.03990419 97.007875 0.35957986 97.626976 0.99804688 97.90625 C 1.6165618 98.185523 2.3538392 98.303568 3.171875 98.263672 C 5.4264616 98.223772 7.7211344 98.105731 10.015625 97.90625 C 12.330068 97.68682 14.644542 97.566823 16.958984 97.546875 C 19.034002 97.566825 21.108577 97.66617 23.183594 97.845703 C 25.258612 98.025236 27.335138 98.124583 29.410156 98.144531 C 30.367857 98.164481 31.244886 97.946254 32.042969 97.527344 C 32.841053 97.088485 33.260877 96.368916 33.300781 95.351562 C 33.161116 93.835506 32.242802 92.978076 30.546875 92.71875 C 28.850947 92.459425 27.135381 92.139614 25.439453 91.720703 C 23.743526 91.301793 22.825211 90.065958 22.685547 88.03125 C 22.984828 85.856905 24.422274 82.744363 26.996094 78.714844 C 29.549962 74.685324 31.42481 71.852542 32.582031 70.216797 L 56.982422 70.216797 C 57.122086 72.790104 57.243148 75.363776 57.382812 77.957031 C 57.522477 80.550286 57.581611 83.143907 57.601562 85.697266 C 57.461898 89.267978 56.524895 91.381608 54.789062 92 C 53.05323 92.618391 51.296379 92.95927 49.560547 93.039062 C 47.824715 93.118852 46.887712 94.135345 46.748047 96.070312 C 46.767997 96.908134 47.026167 97.487471 47.544922 97.806641 C 48.043724 98.12581 48.683227 98.28362 49.441406 98.263672 C 52.793359 98.223772 56.184316 98.105731 59.576172 97.90625 C 62.968028 97.68682 66.340987 97.566823 69.712891 97.546875 C 71.967477 97.566825 74.221976 97.645518 76.476562 97.785156 C 78.731149 97.924793 80.985648 98.005443 83.240234 98.025391 C 84.25779 98.065291 85.134819 97.905942 85.873047 97.546875 C 86.591322 97.187809 86.971815 96.449543 87.011719 95.3125 C 86.991769 94.315094 86.712535 93.63641 86.173828 93.277344 C 85.635122 92.938226 84.896732 92.718881 83.958984 92.619141 C 80.826506 92.100489 78.950125 90.904419 78.351562 89.029297 C 77.752999 87.134226 77.454237 84.719899 77.494141 81.767578 L 74.322266 20.884766 C 74.342216 18.690473 74.12212 16.85702 73.703125 15.380859 C 73.284131 13.904699 71.867749 13.125833 69.433594 13.085938 z M 55.90625 35.90625 L 56.882812 64.212891 L 36.511719 64.212891 L 55.90625 35.90625 z " /><path
   id="path8509"
   style="stroke-width:0.199501;fill:#ff001f;fill-opacity:1"
   d="M 396.26953 13.085938 C 394.05484 13.145777 392.43902 13.784701 391.44141 15.021484 C 390.42386 16.258267 389.40512 17.71415 388.34766 19.429688 L 349.30078 74.326172 L 342.7168 83.603516 C 341.41991 85.578379 340.00311 87.413369 338.4668 89.128906 C 336.93049 90.824497 334.97628 91.880752 332.58203 92.259766 C 331.22528 92.379455 329.94908 92.639683 328.75195 93.058594 C 327.55483 93.477504 326.91575 94.47488 326.83594 96.050781 C 326.87584 96.988342 327.19552 97.605493 327.83398 97.884766 C 328.45249 98.164039 329.18977 98.284037 330.00781 98.244141 C 332.26239 98.204241 334.55707 98.084247 336.85156 97.884766 C 339.16601 97.665337 341.48047 97.547292 343.79492 97.527344 C 345.86994 97.547294 347.94451 97.646639 350.01953 97.826172 C 352.09455 98.005705 354.16912 98.105052 356.24414 98.125 C 357.20184 98.14495 358.08083 97.92477 358.87891 97.505859 C 359.677 97.067001 360.09486 96.349385 360.13477 95.332031 C 359.9951 93.815975 359.07874 92.958544 357.38281 92.699219 C 355.68688 92.439894 353.97132 92.120081 352.27539 91.701172 C 350.57947 91.282261 349.66115 90.046426 349.52148 88.011719 C 349.82076 85.837374 351.25626 82.724831 353.83008 78.695312 C 356.38395 74.665793 358.26075 71.833011 359.41797 70.197266 L 383.81836 70.197266 C 383.95802 72.770572 384.07908 75.344246 384.21875 77.9375 C 384.35841 80.530755 384.41755 83.124376 384.4375 85.677734 C 384.29784 89.248447 383.36084 91.362077 381.625 91.980469 C 379.88917 92.598861 378.13231 92.937785 376.39648 93.017578 C 374.66066 93.097368 373.72365 94.115814 373.58398 96.050781 C 373.60398 96.888602 373.8621 97.465987 374.38086 97.785156 C 374.87966 98.104326 375.51916 98.264089 376.27734 98.244141 C 379.62929 98.204241 383.02025 98.084247 386.41211 97.884766 C 389.80397 97.665337 393.17692 97.547292 396.54883 97.527344 C 398.80341 97.547294 401.05791 97.625987 403.3125 97.765625 C 405.56709 97.905262 407.82158 97.985911 410.07617 98.005859 C 411.09373 98.045759 411.97076 97.886409 412.70898 97.527344 C 413.42725 97.188226 413.80775 96.449543 413.84766 95.3125 C 413.82776 94.315094 413.54652 93.63641 413.00781 93.277344 C 412.4691 92.938226 411.73266 92.718881 410.79492 92.619141 C 407.66244 92.100489 405.78606 90.904419 405.1875 89.029297 C 404.58894 87.134226 404.29018 84.719899 404.33008 81.767578 L 401.15625 20.884766 C 401.17625 18.690473 400.95805 16.85702 400.53906 15.380859 C 400.12006 13.904699 398.70368 13.125833 396.26953 13.085938 z M 382.74219 35.90625 L 383.69922 64.212891 L 363.32812 64.212891 L 382.74219 35.90625 z " /><path
   id="path8502"
   style="stroke-width:0.199501;fill:#ffffff;fill-opacity:1"
   d="M 539.16602 13.445312 L 539.16602 99.800781 L 548.34375 99.800781 L 560.05664 99.800781 L 601.45703 99.800781 C 614.10666 99.800781 624.36217 89.527965 624.32227 76.880859 L 624.20117 36.246094 C 624.16126 23.638885 613.94566 13.445312 601.33594 13.445312 L 560.05664 13.445312 L 548.34375 13.445312 L 539.16602 13.445312 z M 560.05664 34.330078 L 596.76758 34.330078 C 600.47866 34.330078 603.49219 37.342385 603.49219 41.052734 L 603.49219 72.212891 C 603.49219 75.92324 600.47866 78.935547 596.76758 78.935547 L 560.05664 78.935547 L 560.05664 78.914062 L 560.05664 34.330078 z " /><path
   style="stroke-width:0.199501;fill:#ffffff;fill-opacity:1"
   d="m 533.33996,46.000399 -0.0798,-10.073808 c -0.0998,-12.547377 -10.2953,-22.681029 -22.84518,-22.681029 h -39.36552 c -12.62969,0 -22.84517,10.233393 -22.84517,22.840614 v 40.674247 c 0,12.62717 10.23543,22.840615 22.84517,22.840615 h 39.44533 c 12.62969,0 22.84517,-10.233393 22.84517,-22.840615 V 66.866149 H 512.4501 v 5.166566 c 0,3.710354 -2.99282,6.702574 -6.70391,6.702574 h -29.94813 c -3.71109,0 -6.70391,-2.99222 -6.70391,-6.702574 V 40.833832 c 0,-3.710353 2.99282,-6.702573 6.70391,-6.702573 h 29.94813 c 3.71109,0 6.70391,2.99222 6.70391,6.702573 v 5.166567 z"
   id="path10639" /><path
   style="stroke-width:0.199501;fill:#ff0000;fill-opacity:1"
   d="m 694.63285,45.621385 c -1.11732,4.647915 -5.2075,6.902054 -9.61692,7.779772 -4.01037,0.797926 -8.18037,1.037303 -12.27055,1.117096 -5.12769,0.159585 -10.17558,0.239378 -15.32322,0.239378 -6.24502,0 -17.71748,0.31917 -22.68556,-4.089368 -3.93056,-3.53082 -3.53152,-10.991422 -3.53152,-15.798923 h 15.56265 v 0.95751 c 0,1.755436 -0.23943,4.009576 1.27693,5.286256 1.35675,1.117096 5.76616,0.957511 7.46209,0.957511 2.49402,0 5.04789,0.07979 7.5419,0.07979 2.89306,0 5.76616,-0.07979 8.65922,-0.159585 4.09018,-0.07979 7.78132,0.159585 7.78132,-4.727708 0,-0.877718 0,-1.994813 -0.55865,-2.732894 -1.11732,-1.755436 -5.44693,-1.595851 -7.22267,-1.675644 -5.2075,-0.159585 -10.3352,-0.239377 -15.56265,-0.159585 V 21.224816 h 12.35036 c 2.25459,0 4.96808,0 7.22266,-0.558548 2.25459,-0.558548 2.73344,-1.994814 2.73344,-4.16916 0,-1.117096 -0.15961,-2.154399 -1.03751,-2.972272 -1.67597,-1.516059 -13.06863,-1.196889 -15.48284,-1.196889 -2.49401,0 -4.96807,0.07979 -7.46209,0.07979 -1.9154,0 -4.96807,-0.07979 -6.50439,1.276681 -1.35674,1.196888 -1.03751,3.929782 -1.03751,5.605426 H 631.3647 v -2.772791 c 0,-2.493517 0.0798,-5.126671 0.71827,-7.5403952 1.27694,-4.727708 5.60655,-6.9020548 10.09577,-7.6999802 C 649.52112,0 658.02072,0 665.46286,0 c 3.37191,0 6.664,0 10.01596,0.15958508 5.2075,0.15958508 11.63208,0.23937762 15.64246,4.16916022 2.81324,2.7328945 3.13248,7.3010177 3.13248,10.9914227 0,6.902054 -1.8356,9.854378 -8.73903,11.310592 1.43656,0.398963 2.97287,0.638341 4.32961,1.196888 5.2075,1.994814 5.44693,6.822262 5.44693,11.709556 -0.02,1.994813 -0.17957,4.069419 -0.65842,6.084181 z"
   id="path8498" /><path
   style="stroke-width:0.199501;fill:#ff0000;fill-opacity:1"
   d="m 702.1548,54.099342 c 0,-2.074606 -0.15962,-4.248953 -0.15962,-6.323559 0,-4.328745 -0.0798,-8.65749 0.63847,-12.906443 1.43655,-8.896868 9.13806,-10.013964 16.83958,-10.652304 l 20.21149,-1.595851 c 2.57383,-0.239378 5.36712,-0.239378 7.86114,-1.117095 2.33439,-0.797926 2.33439,-2.154399 2.33439,-4.408538 0,-1.516059 0,-3.21165 -1.35674,-4.169161 -1.99521,-1.516058 -10.65443,-1.117095 -12.98883,-1.117095 -4.88827,0 -10.17558,-0.239378 -15.06384,0.558548 -3.69114,0.558547 -3.2921,3.211649 -3.2921,6.403351 v 1.755436 h -15.80208 v -2.174347 c 0,-4.408538 0.0798,-10.4927188 3.37191,-13.9437462 3.67119,-3.84999002 11.85156,-4.0095751 16.73982,-4.24895272 C 724.94011,0 728.37187,0 731.82359,0 h 1.51636 l 13.22825,0.07979254 c 5.12769,0 11.71189,0.07979254 15.56265,4.00957516 2.97287,3.0520646 2.97287,9.1362463 2.97287,13.0660283 0,4.009575 -0.0798,8.258528 -2.3344,11.789348 -2.97287,4.727708 -11.39266,5.366048 -16.36074,5.685218 -3.85075,0.239378 -7.6217,0.478756 -11.47246,0.718133 -3.05267,0.159585 -6.0854,0.398963 -9.13807,0.638341 -1.35674,0.07979 -4.80846,0.31917 -6.08539,0.797925 -2.57383,0.95751 -2.57383,2.732894 -2.57383,5.046878 h 48.82283 v 12.268103 z"
   id="path10645" /><path
   style="stroke-width:0.199501;fill:#ff001f;fill-opacity:1"
   d="m 263.60733,17.853581 c -0.0199,-0.738081 -0.25938,-1.276681 -0.71828,-1.655695 -0.45889,-0.359067 -1.03751,-0.558548 -1.71588,-0.558548 -1.09736,0 -2.17478,0.05984 -3.23224,0.159585 -1.05746,0.09974 -2.13488,0.199481 -3.23224,0.339118 -2.69354,0.299222 -5.42698,0.478755 -8.20032,0.5386 -2.77335,0.05984 -5.52674,0.07979 -8.28013,0.07979 -2.01516,-0.01995 -4.03033,-0.09974 -6.04549,-0.239377 -2.01516,-0.139637 -4.03033,-0.21943 -6.04549,-0.239378 -0.9577,0 -1.81564,0.279274 -2.57382,0.817874 -0.75818,0.538599 -1.15723,1.316577 -1.19713,2.373828 0.33919,1.835228 1.73583,2.712946 4.15004,2.593257 2.41421,-0.119688 3.81085,0.937563 4.15004,3.131858 -0.0199,0.618392 -0.0798,1.236784 -0.21947,1.895072 -0.13967,0.638341 -0.31924,1.276681 -0.49881,1.895073 l -15.38308,53.321365 c -0.57861,2.493517 -1.23703,4.647915 -1.97526,6.483144 -0.71827,1.835228 -2.39425,3.052065 -4.98802,3.650509 -1.19713,0.179533 -2.59378,0.458807 -4.18995,0.877718 -1.59617,0.398962 -2.47406,1.336525 -2.63368,2.792738 0.0399,0.837822 0.35914,1.436266 0.97766,1.795333 0.61851,0.359066 1.29688,0.538599 2.07502,0.518651 2.63368,-0.0399 5.26735,-0.199481 7.94094,-0.478755 2.67358,-0.279274 5.34716,-0.438859 8.0407,-0.478755 2.8731,0.01995 5.76616,0.119688 8.65922,0.299222 2.91301,0.179533 5.78611,0.279274 8.65921,0.299222 1.17718,0.07979 2.53392,0.0399 4.07024,-0.159585 1.53631,-0.179534 2.3743,-1.037303 2.51396,-2.533414 -0.11971,-1.555954 -0.89784,-2.393776 -2.3743,-2.493516 -1.47646,-0.09974 -2.93296,-0.339119 -4.40942,-0.698185 -1.47645,-0.379015 -2.25459,-1.735488 -2.3743,-4.129264 0.0199,-0.977459 0.13967,-1.974865 0.37909,-2.99222 0.23943,-1.017355 0.51876,-2.014762 0.83799,-2.992221 l 15.38308,-53.560742 c 0.55866,-2.194295 1.23703,-3.810094 2.01516,-4.807501 0.77814,-0.997406 2.2945,-1.715539 4.56904,-2.154398 1.15722,-0.139637 2.39425,-0.458807 3.71109,-0.957511 1.31684,-0.518651 2.03512,-1.416317 2.15483,-2.732894 z"
   id="path8515" /><path
   style="stroke-width:0.199501;fill:#ff001f;fill-opacity:1"
   d="m 343.87468,18.471973 c -0.17956,-1.316577 -1.51636,-2.254139 -4.01037,-2.792739 -2.49401,-0.558548 -5.12769,-0.877718 -7.88109,-0.977459 -2.75339,-0.09974 -4.60893,-0.139636 -5.54668,-0.119688 -10.19553,0.01995 -20.86991,2.094554 -32.02315,6.20387 -11.15323,4.109315 -20.65043,10.133652 -28.51157,18.053062 -7.86113,7.919409 -11.97127,17.614203 -12.3304,29.064433 0.13966,7.281069 2.25459,13.285457 6.30486,18.033114 4.05028,4.747656 9.17798,8.278476 15.36313,10.592459 C 281.42457,98.843009 287.78929,100 294.31363,100 c 3.99043,0 7.98085,-0.239377 11.99122,-0.718132 4.01038,-0.478755 7.94095,-1.17694 11.81166,-2.094554 1.47645,-0.299222 2.73344,-0.678237 3.7909,-1.137044 1.05746,-0.458807 1.8755,-1.416318 2.43416,-2.872531 1.07741,-3.052065 2.03511,-6.144026 2.8731,-9.295831 0.83799,-3.131858 1.71588,-6.263715 2.61373,-9.375624 1.47645,-4.448434 3.21229,-7.041691 5.22745,-7.819669 2.01516,-0.777977 3.81085,-1.137043 5.36712,-1.097147 1.55626,0.0399 2.3743,-0.937562 2.45411,-2.932376 -0.0399,-0.837822 -0.35914,-1.436266 -0.97765,-1.795332 -0.61852,-0.359067 -1.31684,-0.5386 -2.07502,-0.518652 -3.05268,0.0399 -6.10535,0.179534 -9.15802,0.418911 -3.07263,0.239378 -6.14526,0.398963 -9.25779,0.418911 -2.93296,-0.0399 -5.86592,-0.159585 -8.77893,-0.359066 -2.93296,-0.21943 -5.86592,-0.339119 -8.77893,-0.359067 -0.97765,-0.01995 -1.9154,0.159585 -2.81324,0.5386 -0.89785,0.379014 -1.3767,1.137044 -1.45651,2.274087 0.11971,1.376422 0.93775,2.154399 2.43416,2.294036 1.51636,0.159585 3.01277,0.458807 4.52913,0.897666 1.51636,0.438859 2.31444,1.775384 2.43416,4.009575 -0.13967,2.294035 -0.83799,5.425893 -2.11493,9.41552 -1.27693,3.989627 -2.31444,7.201276 -3.13248,9.615001 -0.47885,1.875124 -1.11732,3.191701 -1.9154,3.989627 -0.79809,0.777977 -2.19473,1.156992 -4.18995,1.137043 -7.14285,-0.159585 -12.54988,-2.473568 -16.22106,-6.941951 -3.65124,-4.468382 -5.48684,-10.173548 -5.50679,-17.095551 0.0599,-6.383403 1.3767,-12.567325 3.97047,-18.571714 2.59378,-6.004389 6.10535,-11.290644 10.55467,-15.838819 4.38947,-4.408538 9.81644,-8.178735 16.28093,-11.310593 6.46448,-3.131857 12.82921,-4.767604 19.11412,-4.907241 2.99282,-0.0399 4.82841,0.558548 5.50679,1.735488 0.67837,1.196888 0.9577,3.171753 0.83798,5.944544 -0.0199,0.738081 -0.0598,1.456214 -0.11971,2.194295 -0.0798,0.738081 -0.11971,1.456214 -0.11971,2.194295 -0.0399,1.216836 0.15962,2.313983 0.59856,3.31139 0.43895,0.997407 1.33679,1.516058 2.69354,1.575903 1.49641,-0.119689 2.59377,-0.85777 3.31205,-2.234191 0.71827,-1.376422 1.23703,-2.712947 1.57622,-3.989627 0.31923,-0.937563 0.9976,-2.99222 2.03511,-6.183922 1.01756,-3.231598 1.61612,-5.226411 1.73583,-6.044285 z"
   id="path8513" /><path
   style="stroke-width:0.199501;fill:#ff001f;fill-opacity:1"
   d="m 211.9114,18.352284 c -0.0199,-0.777977 -0.25937,-1.356473 -0.73823,-1.695591 -0.47885,-0.339119 -1.07741,-0.518652 -1.83559,-0.498704 -2.57382,0.01995 -5.14765,0.07979 -7.74142,0.179534 -2.59377,0.09974 -5.18755,0.159585 -7.74142,0.179533 -1.35674,-0.05984 -3.39186,-0.139637 -6.1253,-0.21943 -2.71349,-0.07979 -4.54908,0.239378 -5.46688,0.957511 -0.17957,0.259326 -0.33918,0.538599 -0.47885,0.85777 -0.13966,0.31917 -0.31923,0.598444 -0.47885,0.857769 L 147.7055,69.718732 146.36871,19.808498 c 0.0599,-0.95751 0.0199,-1.775384 -0.0998,-2.453621 -0.13967,-0.698184 -0.75818,-1.057251 -1.85555,-1.077199 -2.81325,0.01995 -5.64645,0.07979 -8.47965,0.159585 -2.8332,0.07979 -5.6664,0.07979 -8.47965,-0.0399 -1.59616,-0.07979 -3.17238,-0.179533 -4.7486,-0.299222 -1.57622,-0.119689 -3.13248,-0.179533 -4.64884,-0.199481 -1.03751,-0.0399 -2.03512,0.09974 -2.99282,0.41891 -0.9577,0.319171 -1.4565,1.0772 -1.51636,2.25414 0.37909,1.934969 1.93536,2.892479 4.62889,2.872531 2.71349,-0.01995 4.2498,0.937562 4.62889,2.872532 -0.0399,1.356473 -0.31923,2.752842 -0.83799,4.16916 -0.51875,1.416317 -1.01755,2.752842 -1.47645,3.989627 -2.97287,8.23858 -5.94573,16.497107 -8.89865,24.755635 -2.95291,8.258528 -6.00558,16.47716 -9.15802,24.655895 -1.19712,3.490924 -2.35435,5.944544 -3.491617,7.340914 -1.13727,1.396369 -3.551476,2.413724 -7.242617,3.032116 -1.017558,0.159585 -1.915403,0.458807 -2.693535,0.917615 -0.778133,0.458807 -1.177175,1.256732 -1.217079,2.373828 0.0399,0.997406 0.399042,1.655695 1.077414,1.934969 0.678372,0.279274 1.456504,0.418911 2.354349,0.379014 2.134876,-0.01995 4.289705,-0.07979 6.464485,-0.179533 2.174781,-0.09974 4.32961,-0.159585 6.46449,-0.179533 2.01516,0.01995 3.99042,0.119689 5.96568,0.299222 1.9553,0.179533 3.93056,0.279274 5.86592,0.299222 0.9178,0 1.77574,-0.21943 2.59377,-0.678237 0.81804,-0.458807 1.25699,-1.216836 1.31684,-2.234191 -0.13966,-1.715539 -1.07741,-2.633154 -2.85315,-2.752842 -1.75579,-0.119689 -3.53152,-0.398963 -5.28731,-0.85777 -1.75579,-0.438859 -2.71349,-2.014762 -2.85315,-4.70776 0.17957,-3.84999 1.53631,-9.555157 4.07023,-17.135448 2.53392,-7.580291 5.22745,-14.921205 8.0407,-22.042689 2.81325,-7.121484 4.7087,-11.909037 5.70631,-14.382606 l 1.33679,58.069021 c -0.0399,1.795333 0.15961,3.21165 0.55866,4.248953 0.41899,1.037303 1.59617,1.575903 3.59138,1.595851 2.01516,-0.07979 3.59138,-0.777977 4.7486,-2.094554 1.13727,-1.316577 2.21469,-2.772791 3.19234,-4.368642 L 179.1899,33.293433 166.26093,81.847194 c -0.39905,2.094554 -0.97766,4.189108 -1.75579,6.323559 -0.77813,2.114502 -2.31445,3.431079 -4.58899,3.929782 -1.31684,0.09974 -2.77334,0.299222 -4.40941,0.638341 -1.63608,0.339118 -2.51397,1.336525 -2.67359,3.012168 0.02,0.897666 0.33919,1.536006 0.93775,1.915021 0.59857,0.359066 1.29689,0.5386 2.11493,0.5386 2.81324,-0.0399 5.64644,-0.199482 8.47965,-0.478756 2.8332,-0.279274 5.6664,-0.438859 8.47964,-0.478755 2.93296,0.0399 5.86593,0.199481 8.77893,0.478755 2.93296,0.279274 5.86593,0.438859 8.77893,0.478756 1.07742,0.0399 2.05507,-0.159585 2.91301,-0.558548 0.85794,-0.398963 1.31684,-1.196888 1.35675,-2.373828 -0.0998,-1.476162 -0.83799,-2.313984 -2.21469,-2.553362 -1.37669,-0.219429 -2.73344,-0.558547 -4.11013,-0.977458 -1.3767,-0.418911 -2.11493,-1.655695 -2.21469,-3.690405 0.0199,-1.476162 0.19952,-2.972272 0.51876,-4.508279 0.31923,-1.516058 0.67837,-2.99222 1.07741,-4.408537 l 12.45012,-49.910234 c 0.43895,-2.194295 0.99761,-3.909835 1.69593,-5.146619 0.69832,-1.236784 2.19473,-1.994814 4.52913,-2.294036 1.23703,-0.07979 2.45411,-0.31917 3.61133,-0.758029 1.17718,-0.339118 1.79569,-1.256732 1.89545,-2.67305 z"
   id="path4764_25_" />
</svg>
