<?xml version="1.0" encoding="UTF-8" standalone="no"?>
<!-- Generator: Adobe Illustrator 13.0.0, SVG Export Plug-In . SVG Version: 6.00 Build 14948)  -->

<svg
   version="1.2"
   id="Ebene_1"
   x="0px"
   y="0px"
   width="429.21417"
   height="100"
   viewBox="0 0 429.21419 99.999997"
   xml:space="preserve"
   sodipodi:docname="msumd.svg"
   inkscape:version="1.2.1 (9c6d41e410, 2022-07-14)"
   xmlns:inkscape="http://www.inkscape.org/namespaces/inkscape"
   xmlns:sodipodi="http://sodipodi.sourceforge.net/DTD/sodipodi-0.dtd"
   xmlns="http://www.w3.org/2000/svg"
   xmlns:svg="http://www.w3.org/2000/svg"><defs
     id="defs16050" /><sodipodi:namedview
     id="namedview16048"
     pagecolor="#505050"
     bordercolor="#ffffff"
     borderopacity="1"
     inkscape:showpageshadow="0"
     inkscape:pageopacity="0"
     inkscape:pagecheckerboard="1"
     inkscape:deskcolor="#505050"
     showgrid="false"
     inkscape:zoom="1.6861893"
     inkscape:cx="257.08857"
     inkscape:cy="-6.5235855"
     inkscape:window-width="1920"
     inkscape:window-height="1017"
     inkscape:window-x="-8"
     inkscape:window-y="-8"
     inkscape:window-maximized="1"
     inkscape:current-layer="Ebene_1"
     showguides="true" /><g
     id="g106092"
     transform="matrix(0.57450115,0,0,0.57450115,0.60469729,-0.59253474)"><path
       d="m 405.26815,58.47358 h 25.13777 c 1.1971,0 2.09459,-0.54093 2.69382,-1.62144 l 7.63135,-16.39337 0.44874,-1.80175 -0.44874,-1.80176 -7.63135,-16.21306 c -0.59923,-1.20117 -1.49672,-1.80175 -2.69382,-1.80175 H 405.26815 Z M 383.72304,4.42914 h 60.14925 c 1.79498,0 3.29169,1.20117 4.48879,3.60351 l 13.91512,28.82397 0.44874,1.80175 -0.44874,1.80175 -13.91512,28.82398 c -1.1971,2.40234 -2.69381,3.6035 -4.48879,3.6035 h -60.14925 z m 86.18451,0 h 57.45679 c 1.79498,0 3.29169,1.20117 4.48879,3.60351 l 9.42633,19.81656 0.44874,1.80176 -0.44874,1.80175 -13.91512,16.21306 14.36386,25.22047 H 520.18173 L 499.53276,38.65837 h 10.77255 c 1.1971,0 2.09459,-0.29961 2.69382,-0.9002 l 7.1826,-8.1072 -3.5913,-9.00741 c -0.59923,-1.20117 -1.49671,-1.80175 -2.69382,-1.80175 H 491.45266 V 72.88625 H 469.9062 V 4.42914 Z M 570.45592,72.88625 H 548.90945 V 4.42914 h 21.54647 z m 28.72771,-45.93859 21.54646,31.52592 21.5465,-31.52592 V 4.42914 h 21.5464 v 25.22047 c 0,2.40234 -0.2996,4.20409 -0.8974,5.4039 l -24.239,37.83138 h -35.9103 L 578.53601,35.05487 c -0.59787,-1.20117 -0.89749,-3.00292 -0.89749,-5.4039 V 4.42914 h 21.54647 z m 93.36716,31.52592 h 50.2741 v 14.41131 h -71.8206 V 27.84786 c 0,-1.20117 0.2996,-2.40234 0.8975,-3.60351 l 9.875,-18.01481 c 0.5979,-1.20117 1.795,-1.80175 3.5914,-1.80175 h 57.4567 v 14.4113 h -43.0929 c -1.1971,0 -2.0946,0.60059 -2.6938,1.80176 l -4.4888,10.80916 h 50.2742 l -7.1826,14.41131 h -43.093 z M 5.3631445,71.4885 41.728994,11.07895 c 1.73125,-3.45166 3.46387,-5.1775 5.19512,-5.1775 h 25.97561 v 8.02587 l 1.73125,-2.84837 c 1.73126,-3.45166 3.46387,-5.1775 5.19512,-5.1775 H 110.99682 V 71.4885 H 90.216334 V 19.70947 L 59.045614,71.4885 h -20.78049 l 31.17073,-51.77903 h -10.39024 c -1.15508,0 -2.30879,0.57482 -3.46387,1.72583 L 26.143634,71.4885 Z M 214.90059,57.68049 h 34.63459 V 45.59831 h -13.8541 l 6.92637,-13.80802 h 27.70822 v 36.24519 c 0,2.30066 -1.15508,3.45166 -3.46387,3.45166 h -69.26918 c -2.30879,0 -3.46387,-1.151 -3.46387,-3.45166 v -39.6955 c 0,-1.151 0.28877,-2.30065 0.86631,-3.45166 l 9.52393,-17.25968 c 0.57754,-1.15101 1.73126,-1.72583 3.46387,-1.72583 h 58.87894 v 13.80801 h -45.02483 c -1.15508,0 -2.02003,0.57483 -2.59756,1.72583 L 214.90059,31.793 Z M 322.26823,11.08031 c -1.73125,-3.45167 -3.46386,-5.1775 -5.19512,-5.1775 H 277.2434 V 71.4885 h 20.78048 V 45.16719 l 6.92638,12.5133 h 25.11065 l 9.52394,13.80801 h 24.24435 z m -1.81937,32.79352 H 298.02388 V 19.70947 h 3.46387 c 1.15507,0 2.30879,0.57482 3.46386,1.72583 z M 139.47101,57.07719 H 189.7452 V 71.4885 H 117.92455 V 26.45146 c 0,-1.20116 0.29961,-2.40233 0.89749,-3.6035 L 128.6971,4.83315 c 0.59788,-1.20117 1.79498,-1.80176 3.59131,-1.80176 H 189.7452 V 17.4427 h -43.09293 c -1.1971,0 -2.09459,0.60059 -2.69382,1.80175 l -4.48879,10.80916 h 50.27418 l -7.1826,14.41131 H 139.4683 Z"
       fill="#99989d"
       stroke="#000000"
       stroke-width="6.06278"
       stroke-miterlimit="10"
       id="path36871"
       style="fill:#f9f7ff;fill-opacity:1;stroke-width:4;stroke-dasharray:none;paint-order:markers stroke fill" /><rect
       style="opacity:1;fill:#ff0000;fill-opacity:1;stroke:#000000;stroke-width:3.99462;stroke-linecap:round;stroke-linejoin:round;stroke-miterlimit:0;stroke-dasharray:none;stroke-opacity:1;paint-order:markers stroke fill"
       id="rect103596"
       width="742.07953"
       height="10.918503"
       x="0.94474941"
       y="78.903221"
       ry="0" /><g
       id="g106084"
       transform="translate(-126.13795,298.901)"><path
         style="opacity:1;fill:#ffffff;fill-opacity:1;stroke:#000000;stroke-width:4;stroke-linecap:round;stroke-linejoin:round;stroke-miterlimit:0;stroke-dasharray:none;stroke-opacity:1;paint-order:markers stroke fill"
         d="m 333.80415,-125.80558 84.70909,-76.53173 h 10.48382 v 53.04802 l 59.12861,-53.04802 h 10.06446 v 76.53173 h -14.67732 v -54.92739 l -60.81413,54.92739 h -10.4757 v -54.6206 l -59.96734,54.6206 z"
         id="path104557" /><path
         style="opacity:1;fill:#ffffff;fill-opacity:1;stroke:#000000;stroke-width:4;stroke-linecap:round;stroke-linejoin:round;stroke-miterlimit:0;stroke-dasharray:none;stroke-opacity:1;paint-order:markers stroke fill"
         d="m 662.44046,-202.33731 h -16.45723 v 49.96048 a 13.454117,13.454117 135 0 1 -13.45412,13.45412 h -14.41938 a 14.381538,14.381538 45 0 1 -14.38154,-14.38154 v -49.03306 h -16.90202 v 59.62972 a 16.902016,16.902016 44.999996 0 0 16.90202,16.90202 l 42.25504,-1e-5 a 16.457235,16.457235 135 0 0 16.45723,-16.45723 z"
         id="path104571"
         sodipodi:nodetypes="ccccccccc" /><path
         style="opacity:1;fill:#ffffff;fill-opacity:1;stroke:#000000;stroke-width:4;stroke-linecap:round;stroke-linejoin:round;stroke-miterlimit:0;stroke-dasharray:none;stroke-opacity:1;paint-order:markers stroke fill"
         d="m 579.75409,-187.86966 v -14.46765 h -50.53191 a 22.015978,22.015978 135 0 0 -22.01598,22.01598 v 1.46773 a 22.015978,22.015978 45 0 0 22.01598,22.01598 h 28.0966 a 8.3870223,8.3870223 45 0 1 8.38702,8.38702 v 0.41936 a 8.3870423,8.3870423 135 0 1 -8.38704,8.38704 H 507.2062 v 13.83863 l 50.11256,-1e-5 a 22.435335,22.435335 135 0 0 22.43533,-22.43533 v -0.62902 a 22.435332,22.435332 45 0 0 -22.43533,-22.43533 h -28.09658 a 8.3870379,8.3870379 45 0 1 -8.38704,-8.38704 8.2828635,8.2828635 135.72522 0 1 8.38704,-8.17736 z"
         id="path105319" /></g></g></svg>
