<?xml version="1.0" encoding="UTF-8" standalone="no"?>
<svg
   xml:space="preserve"
   width="360.95377"
   height="99.99968"
   version="1.1"
   id="svg124206"
   sodipodi:docname="x68000.svg"
   inkscape:version="1.2.1 (9c6d41e410, 2022-07-14)"
   xmlns:inkscape="http://www.inkscape.org/namespaces/inkscape"
   xmlns:sodipodi="http://sodipodi.sourceforge.net/DTD/sodipodi-0.dtd"
   xmlns="http://www.w3.org/2000/svg"
   xmlns:svg="http://www.w3.org/2000/svg"><defs
     id="defs124210" /><sodipodi:namedview
     id="namedview124208"
     pagecolor="#505050"
     bordercolor="#ffffff"
     borderopacity="1"
     inkscape:showpageshadow="0"
     inkscape:pageopacity="0"
     inkscape:pagecheckerboard="1"
     inkscape:deskcolor="#505050"
     showgrid="false"
     inkscape:zoom="1.9639891"
     inkscape:cx="134.16571"
     inkscape:cy="45.315934"
     inkscape:window-width="1920"
     inkscape:window-height="1017"
     inkscape:window-x="-8"
     inkscape:window-y="-8"
     inkscape:window-maximized="1"
     inkscape:current-layer="svg124206" /><g
     id="g125433"
     transform="translate(-5.6e-4,-3.191808e-4)"><path
       style="fill:#ffffff;fill-opacity:1;stroke:none;stroke-width:2.222;stroke-linecap:round;stroke-linejoin:bevel;stroke-miterlimit:0;stroke-dasharray:none;stroke-opacity:1;paint-order:markers stroke fill"
       d="M 15.24111,39.037803 H 63.494888 L 99.040244,100 H 50.786467 Z"
       id="path125427" /><path
       style="fill:#ffffff;fill-opacity:1;stroke:none;stroke-width:2.222;stroke-linecap:round;stroke-linejoin:bevel;stroke-miterlimit:0;stroke-dasharray:none;stroke-opacity:1;paint-order:markers stroke fill"
       d="M 27.949531,71.668823 44.432257,99.952228 H 5.6e-4 Z"
       id="path125425" /><path
       style="fill:#ffffff;fill-opacity:1;stroke:none;stroke-width:2.222;stroke-linecap:round;stroke-linejoin:bevel;stroke-miterlimit:0;stroke-dasharray:none;stroke-opacity:1;paint-order:markers stroke fill"
       d="M 68.654698,38.990027 H 113.0864 L 85.137424,67.273429 Z"
       id="path125423" /><path
       d="M 15.24111,39.037803 50.786467,100 H 99.040244 L 63.494888,39.037803 Z m 7.596387,3.774305 h 36.83531 L 90.058354,94.887964 H 53.223044 Z M 27.949531,71.668823 5.6e-4,99.952228 H 44.432257 Z M 26.468474,79.647418 36.83587,96.177919 H 10.176852 Z M 85.137424,67.273429 113.0864,38.990027 H 68.654698 Z M 86.618481,59.294834 76.251085,42.764332 h 26.659025 z m 34.112079,19.397064 c -0.0478,-0.09555 -0.19111,0.668864 -0.42999,2.341025 -0.23888,1.624384 -0.33443,2.866561 -0.3822,3.678753 0.23888,1.719937 0.81219,1.719937 1.76771,2.579905 0.76441,0.47776 1.43328,0.334432 3.34432,0.573312 1.86326,0.23888 13.09062,0.23888 15.00167,0 1.91104,-0.191104 3.48765,-0.47776 4.49094,-1.146624 2.0066,-1.242177 3.3921,-3.105441 4.10874,-8.026371 0.52554,-2.675457 0.71664,-3.344322 0.66887,-4.586498 -0.0956,-1.672161 -0.90775,-2.818785 -2.57991,-3.392097 -1.62438,-0.573313 -4.01318,-0.286656 -6.68864,-0.286656 h -5.20758 c -5.63757,0 -9.02968,0.04777 -10.70184,1.1944 -1.91104,1.289952 -2.67545,3.009889 -3.39209,7.070851 z M 160.95797,59.10373 h -7.9786 c 0.28665,-1.91104 0.1911,-3.200993 0.14333,-4.395393 -0.0477,-1.194401 -0.19111,-2.245473 -0.71664,-2.627681 -1.14663,-0.955521 -5.73312,-0.907745 -10.65405,-0.907745 h -4.63428 c -4.87315,0 -7.73971,-0.04777 -9.22077,1.051073 -1.91104,1.481056 -3.05767,3.774305 -3.48765,6.83197 l -1.28995,5.303138 c 0,0 0.85997,-1.289952 2.81878,-1.481056 3.3921,-0.382208 9.07744,-0.04777 11.17959,-0.04777 5.20759,0.09555 9.45965,-0.23888 12.27844,0.23888 2.77101,0.477761 5.82868,1.051073 7.26196,2.627681 1.28994,1.337729 2.00658,3.344322 2.10214,6.067555 0.0956,1.815488 -0.28666,4.729825 -1.05108,8.790787 -0.42998,1.958817 -0.95552,3.726529 -1.5766,5.303138 -0.57332,1.576609 -1.3855,3.057665 -2.43658,4.395394 -1.05107,1.337726 -2.29324,3.678746 -3.72653,4.443168 -2.24547,1.146619 -5.15981,1.098846 -7.78749,1.385499 -2.62768,0.286661 -6.83197,0 -10.98849,0 -3.72653,0 -7.50083,0.09555 -10.22406,-0.23888 -2.72324,-0.334425 -4.96871,-1.098847 -6.68864,-2.34102 -2.14992,-1.576607 -3.34432,-4.156512 -3.63099,-7.739713 0,-1.863265 0.19111,-3.96541 0.6211,-6.35421 l 4.44317,-23.314697 c 0.85996,-5.112034 2.3888,-9.077444 6.11533,-11.466245 2.05436,-1.289952 4.58649,-2.14992 7.50083,-2.532129 2.96212,-0.429984 7.83526,-0.621088 12.03956,-0.621088 h 6.54531 c 4.44318,0 5.68535,0.573312 8.79079,1.767713 3.10544,1.1944 4.72983,3.535425 4.92093,7.070851 0.0955,1.146624 -0.14333,5.733122 -0.66886,8.790787 z m 30.62442,-10.08074 c -5.25536,0 -9.98519,0.238881 -11.75289,0.716641 -1.71995,0.47776 -2.77102,0.429984 -3.58321,1.67216 -0.76442,1.242177 -1.24218,2.532129 -1.48106,3.869858 -0.1911,1.337728 -0.3822,3.153217 -0.57331,5.446466 0.14333,1.385504 0.62109,2.293249 1.28995,2.818785 1.33773,0.859968 6.11533,0.95552 12.27844,0.95552 5.54202,0 9.65076,-0.09555 11.80068,-1.051072 0.90774,-0.382208 1.71993,-1.194401 2.34102,-2.436577 0.66887,-1.242176 1.05107,-2.197697 1.52883,-4.586498 0.23888,-1.43328 0.38221,-2.675457 0.33444,-3.678753 -0.0477,-1.289953 -0.42999,-2.102145 -1.1944,-2.532129 -0.8122,-0.47776 -2.10215,-0.764416 -3.82208,-0.907744 -1.62439,-0.238881 -4.06097,-0.286657 -7.16641,-0.286657 z m 13.32952,18.871528 c 3.29654,1.337728 3.29654,4.490945 3.34432,8.169699 0,0.525536 0.14332,3.296545 -0.0477,4.252065 -0.1911,0.955521 -0.0956,1.672161 -0.1911,2.006593 -0.71664,3.344321 -0.95552,4.825378 -2.10215,6.784195 -1.14662,1.958813 -1.81548,3.392093 -3.77431,4.443168 -1.71993,0.95552 -3.91762,1.67216 -6.5453,2.006594 -2.62768,0.382206 -7.26196,0.573314 -11.32292,0.573314 h -5.25536 c -4.53872,0 -8.12193,-0.143326 -10.70183,-0.47776 -2.5799,-0.334434 -4.06097,-1.528834 -5.5898,-2.914343 -1.43328,-1.242172 -2.77101,-4.252062 -3.00989,-7.166399 0.0956,-1.337728 0.33444,-2.054368 0.71664,-4.634273 0.52554,-2.388801 0.66887,-4.252066 1.09885,-5.542019 0.42999,-1.289952 1.24218,-2.771009 2.1977,-3.917633 0.90774,-1.146624 2.29325,-2.006593 3.86986,-2.914337 1.0033,-0.573312 1.28995,-0.764416 0.28666,-1.624385 -1.09886,-0.907744 -1.43328,-1.815488 -1.71995,-2.914337 -0.14332,-0.334432 -0.23888,-3.822081 -0.23888,-3.917633 0.47776,-7.883043 2.57991,-11.896229 6.25867,-14.953894 2.14992,-1.863265 3.10544,-2.962113 7.93081,-3.296545 2.48436,-0.191104 9.26855,-0.286656 12.70842,-0.286656 4.7776,0 9.41188,0.09555 11.3707,0.286656 1.71993,0.23888 3.24877,0.621088 4.53872,1.098848 1.28995,0.47776 1.14662,1.337729 2.14992,2.484353 0.85997,1.098848 1.33773,2.818785 1.3855,5.15981 0.0478,1.624385 -0.0477,3.344321 -0.33443,5.112034 -0.23888,1.767713 -0.71664,3.487649 -1.3855,5.112034 -0.66887,1.624385 -1.52884,2.962113 -2.57991,3.965409 -1.33773,1.433281 -1.14662,2.484353 -2.91433,3.057666 -0.38221,0.143328 -0.57332,0.04777 -0.57332,0 0,-0.04777 0.14333,-0.04777 0.42999,0.04777 z m -18.68043,3.535425 c -3.34432,0 -6.7842,0 -8.59969,0.191104 -1.81548,0.191104 -3.29654,0.573312 -4.44316,1.146624 -1.05108,0.477761 -1.91104,1.337729 -2.57991,2.627681 -0.66886,1.242177 -1.24218,3.00989 -1.71994,5.303138 -0.42998,2.627681 -0.3822,3.153218 -0.42998,3.917634 0.14333,1.385504 0.42998,2.197697 1.48106,2.675457 1.05107,0.47776 2.5799,1.289952 4.63427,1.337728 1.57661,0.191105 5.73313,0.238881 9.93741,0.238881 4.34762,0 7.73972,0.286656 10.08074,-0.573313 1.09885,-0.47776 2.34103,-0.621088 3.05767,-1.863264 0.71664,-1.242177 1.00329,-2.532129 1.52883,-4.968706 0.42998,-1.863265 0.62109,-3.296546 0.62109,-4.347618 -0.0478,-1.1944 -0.38221,-3.392097 -1.0033,-4.013185 -0.52553,-0.621089 -1.71994,-1.051073 -3.5832,-1.337729 -1.95882,-0.286656 -5.20758,-0.334432 -8.98189,-0.334432 z m 45.62609,24.747976 c -4.72982,0 -9.79408,-0.286653 -12.56509,-0.907739 -2.771,-0.621096 -4.82537,-1.672161 -6.06755,-3.153223 -1.57661,-1.767714 -1.28996,-4.29984 -1.48106,-7.739713 0.0956,-2.771009 0.42998,-5.542018 0.90774,-8.169699 l 2.86656,-15.097222 c 0.6211,-3.248769 1.43328,-6.163106 2.53214,-8.790787 1.09885,-2.627681 2.67545,-4.825378 4.63427,-6.545315 1.14663,-1.098848 2.62768,-1.958817 4.49095,-2.627681 1.86326,-0.621088 3.9654,-1.051072 6.35421,-1.242176 2.3888,-0.191104 5.25536,-0.286656 8.743,-0.286656 2.62769,0 4.96871,0.09555 7.02308,0.286656 2.10215,0.191104 3.91764,0.47776 5.49424,0.95552 1.57661,0.47776 2.91435,1.194401 4.01319,2.102145 1.95882,1.815489 3.00989,4.634274 3.10544,8.504131 0.0477,1.576609 -0.1911,4.252066 -0.71664,8.026371 l -2.91434,15.192774 c -1.57661,8.599683 -3.48765,14.285033 -8.21747,16.960486 -1.91104,1.051075 -4.25207,1.767715 -6.9753,2.102149 -2.77101,0.23888 -7.30973,0.429979 -11.22737,0.429979 z m 9.02968,-46.820496 c -3.63099,0 -6.21089,0.04777 -7.78749,0.191104 -1.57662,0.143328 -2.91435,0.429984 -4.01319,0.859968 -0.85997,0.334432 -1.62439,0.859968 -2.34103,1.528833 -0.66886,0.668864 -1.3855,1.767712 -2.05437,3.296545 -0.66886,1.528832 -1.28995,2.388801 -1.76771,4.968706 l -3.24877,17.247142 c -0.38221,2.532129 -0.62109,3.344321 -0.71664,4.968706 0.0956,1.433281 0.33443,2.484353 0.71664,3.153217 0.38221,0.668865 0.95552,1.194401 1.71994,1.576609 0.95552,0.47776 2.1977,0.812192 3.67875,0.95552 1.48106,0.143328 3.91763,0.191104 7.35751,0.191104 4.15651,0 7.21417,-0.143328 9.26855,-0.382208 2.05437,-0.23888 3.5832,-0.812192 4.63427,-1.719936 1.95882,-1.719937 3.05766,-4.347618 4.20429,-9.794084 l 3.00989,-15.909414 c 0.42998,-3.057665 0.62109,-4.060962 0.62109,-5.63757 -0.0477,-2.149921 -0.14333,-3.296546 -1.05108,-3.96541 -0.90774,-0.668864 -2.19769,-1.098848 -3.82208,-1.289952 -1.71993,-0.143328 -4.49094,-0.23888 -8.40857,-0.23888 z m 40.51406,46.820496 c -4.72983,0 -9.79409,-0.286653 -12.56509,-0.907739 -2.77101,-0.621096 -4.82539,-1.672161 -6.06756,-3.153223 -1.57661,-1.767714 -1.28995,-4.29984 -1.48105,-7.739713 0.0955,-2.771009 0.42998,-5.542018 0.90774,-8.169699 l 2.86656,-15.097222 c 0.62108,-3.248769 1.43328,-6.163106 2.53212,-8.790787 1.09886,-2.627681 2.67547,-4.825378 4.63428,-6.545315 1.14663,-1.098848 2.62768,-1.958817 4.49095,-2.627681 1.86326,-0.621088 3.96541,-1.051072 6.35421,-1.242176 2.3888,-0.191104 5.25536,-0.286656 8.74301,-0.286656 2.62768,0 4.96871,0.09555 7.02307,0.286656 2.10215,0.191104 3.91764,0.47776 5.49425,0.95552 1.5766,0.47776 2.91433,1.194401 4.01318,2.102145 1.95882,1.815489 3.00989,4.634274 3.10545,8.504131 0.0477,1.576609 -0.19111,4.252066 -0.71664,8.026371 l -2.91435,15.192774 c -1.5766,8.599683 -3.48764,14.285033 -8.21747,16.960486 -1.91104,1.051075 -4.25206,1.767715 -6.9753,2.102149 -2.77101,0.23888 -7.35751,0.429979 -11.22736,0.429979 z m 8.98189,-46.820496 c -3.63098,0 -6.21089,0.04777 -7.78749,0.191104 -1.57661,0.143328 -2.91434,0.429984 -4.01319,0.859968 -0.85997,0.334432 -1.62438,0.859968 -2.34102,1.528833 -0.66887,0.668864 -1.38551,1.767712 -2.05437,3.296545 -0.66887,1.528832 -1.28995,2.388801 -1.76771,4.968706 l -3.24877,17.247142 c -0.38222,2.532129 -0.6211,3.344321 -0.71664,4.968706 0.0955,1.433281 0.33442,2.484353 0.71664,3.153217 0.38221,0.668865 0.95552,1.194401 1.71993,1.576609 0.95552,0.47776 2.1977,0.812192 3.67876,0.95552 1.48105,0.143328 3.91763,0.191104 7.3575,0.191104 4.15652,0 7.21418,-0.143328 9.26855,-0.382208 2.05437,-0.23888 3.5832,-0.812192 4.63428,-1.719936 1.95881,-1.719937 3.05766,-4.347618 4.20428,-9.794084 l 3.00989,-15.909414 c 0.42999,-3.057665 0.62109,-4.060962 0.62109,-5.63757 -0.0477,-2.149921 -0.14333,-3.296546 -1.05107,-3.96541 -0.90775,-0.668864 -2.1977,-1.098848 -3.82208,-1.289952 -1.67216,-0.143328 -4.44318,-0.23888 -8.40858,-0.23888 z m 40.51406,46.820496 c -4.72982,0 -9.79409,-0.286653 -12.56509,-0.907739 -2.77101,-0.621096 -4.82538,-1.672161 -6.06756,-3.153223 -1.57661,-1.767714 -1.28994,-4.29984 -1.48105,-7.739713 0.0956,-2.771009 0.42999,-5.542018 0.90775,-8.169699 l 2.86656,-15.097222 c 0.62108,-3.248769 1.43328,-6.163106 2.53212,-8.790787 1.09885,-2.627681 2.67546,-4.825378 4.63428,-6.545315 1.14662,-1.098848 2.62768,-1.958817 4.49094,-2.627681 1.86327,-0.621088 3.96541,-1.051072 6.35421,-1.242176 2.3888,-0.191104 5.25536,-0.286656 8.74302,-0.286656 2.62768,0 4.9687,0.09555 7.02306,0.286656 2.10215,0.191104 3.91764,0.47776 5.49425,0.95552 1.57661,0.47776 2.91434,1.194401 4.01319,2.102145 1.95881,1.815489 3.00988,4.634274 3.10544,8.504131 0.0477,1.576609 -0.19111,4.252066 -0.71664,8.026371 l -2.91434,15.192774 c -1.57661,8.599683 -3.48765,14.285033 -8.21747,16.960486 -1.91104,1.051075 -4.25207,1.767715 -6.97531,2.102149 -2.771,0.23888 -7.30973,0.429979 -11.22736,0.429979 z m 9.02967,-46.820496 c -3.63097,0 -6.21088,0.04777 -7.78749,0.191104 -1.57661,0.143328 -2.91434,0.429984 -4.01319,0.859968 -0.85997,0.334432 -1.62438,0.859968 -2.34102,1.528833 -0.66887,0.668864 -1.38551,1.767712 -2.05437,3.296545 -0.66886,1.528832 -1.28995,2.388801 -1.76771,4.968706 l -3.24878,17.247142 c -0.3822,2.532129 -0.62108,3.344321 -0.71664,4.968706 0.0956,1.433281 0.33444,2.484353 0.71664,3.153217 0.38222,0.668865 0.95552,1.194401 1.71995,1.576609 0.95552,0.47776 2.19769,0.812192 3.67875,0.95552 1.48105,0.143328 3.91763,0.191104 7.3575,0.191104 4.15652,0 7.21419,-0.143328 9.26855,-0.382208 2.05437,-0.23888 3.5832,-0.812192 4.63428,-1.719936 1.95881,-1.719937 3.05766,-4.347618 4.20429,-9.794084 l 3.00988,-15.909414 c 0.42999,-3.057665 0.62109,-4.060962 0.62109,-5.63757 -0.0477,-2.149921 -0.14333,-3.296546 -1.05107,-3.96541 -0.90774,-0.668864 -2.1977,-1.098848 -3.82209,-1.289952 -1.71993,-0.143328 -4.49094,-0.23888 -8.40857,-0.23888 z M 130.42909,17.968579 h 18.29821 v 11.03626 h 9.50743 V 1.1991962 H 148.7273 V 11.853248 H 130.42909 V 1.1991962 h -9.50743 V 29.004839 h 9.50743 z m 49.30485,-10.7496045 6.01978,9.9851875 h -12.03956 z m 9.50742,15.6705335 3.67876,6.115331 h 11.03627 L 187.187,1.1991962 H 176.15074 L 159.38135,29.004839 h 7.21419 l 3.67875,-6.115331 z M 245.09153,1.1991962 V 29.004839 h 9.12522 v -10.08074 c 3.0099,0.621088 6.44976,0.907744 10.08074,0.907744 12.08734,0 17.62935,-4.347617 17.7249,-9.698531 0.0956,-6.4497628 -7.11862,-10.08074022 -19.25373,-10.08074022 -3.15321,0 -4.25207,0.14332806 -8.55191,0.38220815 -4.29984,0.23888009 -9.12522,0.76441627 -9.12522,0.76441627 z m 9.12522,4.3953937 c 0,0 2.24547,-0.2388801 4.25207,-0.3822082 2.00659,-0.143328 2.53213,-0.095552 4.01319,-0.095552 5.58978,0 8.98189,1.7677127 8.88633,5.0642583 -0.0477,2.771009 -2.62768,4.968706 -8.21747,4.968706 -1.67216,0 -4.25206,-0.238881 -5.92422,-0.477761 -1.71995,-0.23888 -2.96212,-0.764416 -2.96212,-0.764416 V 5.5945899 Z M 205.103,1.1991962 V 29.004839 h 9.12523 V 5.5945899 c 0,0 2.24546,-0.2388801 4.25206,-0.3822082 2.00659,-0.143328 2.53213,-0.095552 4.01319,-0.095552 5.58979,0 9.36409,1.7677127 9.26854,5.0642583 -0.0477,2.771009 -3.00989,4.204289 -8.59968,4.204289 -1.67216,0 -3.7743,-0.23888 -5.49424,-0.47776 -0.0956,0 -1.91105,2.962113 -1.91105,2.962113 l 13.71172,12.135109 h 13.71172 L 231.09316,18.589667 c 7.59638,-1.289953 11.32292,-4.729826 11.37069,-8.456355 0,-7.2141791 -7.1664,-10.22406827 -19.63594,-10.08074022 -3.15322,0.04777602 -4.25207,0.14332806 -8.55191,0.38220815 -4.39539,0.23888009 -9.173,0.76441627 -9.173,0.76441627 z m -90.29667,8.3608032 c 0,0 3.20099,-5.8764502 3.05767,-6.1153303 C 117.72067,3.205789 111.41424,-0.13853229 98.801364,0.00479576 79.260974,0.24367585 79.356526,8.3655989 79.356526,8.3655989 c 0,0 -1.958817,7.5963871 13.233955,9.1252191 9.316319,0.955521 15.957199,2.532129 15.909409,4.777602 -0.0477,2.245473 -3.9654,2.149921 -5.68534,2.006593 C 87.574001,23.032837 82.127535,18.780771 82.127535,18.780771 l -3.296545,6.927523 c 0,0 7.357507,4.586497 22.64584,4.443169 15.28832,-0.143328 17.39046,-3.774305 17.67712,-8.647459 0.33443,-6.067554 -8.1697,-8.504131 -8.1697,-8.504131 0,0 -4.68205,-1.003297 -9.50742,-1.719937 -5.5898,-0.812192 -11.3707,-1.6721606 -10.654063,-3.9176334 0,-0.095552 1.624388,-3.2487693 13.329513,-1.0510724 5.68535,1.0988484 10.65405,3.2487692 10.65405,3.2487692 z"
       style="fill:#ff0000;stroke-width:0.47776"
       id="path125358" /></g></svg>
