<?xml version="1.0" encoding="UTF-8" standalone="no"?>
<svg
   width="313.35721"
   height="100"
   xml:space="preserve"
   version="1.1"
   id="svg107949"
   sodipodi:docname="odyssey2.svg"
   inkscape:version="1.2.1 (9c6d41e410, 2022-07-14)"
   xmlns:inkscape="http://www.inkscape.org/namespaces/inkscape"
   xmlns:sodipodi="http://sodipodi.sourceforge.net/DTD/sodipodi-0.dtd"
   xmlns="http://www.w3.org/2000/svg"
   xmlns:svg="http://www.w3.org/2000/svg"><defs
     id="defs107953" /><sodipodi:namedview
     id="namedview107951"
     pagecolor="#505050"
     bordercolor="#ffffff"
     borderopacity="1"
     inkscape:showpageshadow="0"
     inkscape:pageopacity="0"
     inkscape:pagecheckerboard="1"
     inkscape:deskcolor="#505050"
     showgrid="false"
     inkscape:zoom="1.3682421"
     inkscape:cx="79.298832"
     inkscape:cy="22.656809"
     inkscape:window-width="1920"
     inkscape:window-height="1017"
     inkscape:window-x="-8"
     inkscape:window-y="-8"
     inkscape:window-maximized="1"
     inkscape:current-layer="svg107949" /><linearGradient
     id="a"
     gradientUnits="userSpaceOnUse"
     x1="426.18301"
     y1="1339.6851"
     x2="426.18301"
     y2="1431.887"
     gradientTransform="translate(-172.125,-1255.071)">
        <stop
   offset="0"
   style="stop-color:#f57e25"
   id="stop107942" />
        <stop
   offset="1"
   style="stop-color:#fcd660"
   id="stop107944" />
    </linearGradient><g
     id="g109053"
     transform="matrix(0.55273131,0,0,0.55273131,3.2170623e-5,-2.1734939e-4)"><path
       d="M 459.742,80.08 368.58,180.919 H 152.56 l -3.645,-3.502 c -10.231,-9.832 -20.466,-19.658 -30.696,-29.488 L 62.569,94.462 10.871,44.802 C 8.404,42.453 5.657,39.864 3.611,37.21 -4.679,26.536 2.041,12.483 16.265,12.483 H 65.83 c 1.796,0 3.448,-0.087 5.262,0.095 a 21.076,21.076 0 0 1 7.616,2.27 c 2.498,-1.48 5.583,-2.356 9.138,-2.356 h 42.453 c 0.71,0 1.43,-0.044 2.14,-0.065 4.686,-0.141 8.612,0.658 11.97,2.236 2.363,-1.373 5.314,-2.171 8.807,-2.171 h 21.51 l 0.601,0.055 c 2.107,0.197 4.105,0.76 5.877,1.659 2.256,-1.104 4.912,-1.714 7.793,-1.714 h 14.313 c 4.543,0 8.127,-0.226 12.393,1.945 0.155,0.082 0.31,0.163 0.462,0.246 2.474,-1.391 5.47,-2.19 8.944,-2.19 h 50.808 c 4.86,0 8.973,0.018 13.168,2.527 2.854,-1.607 6.174,-2.527 9.783,-2.527 h 48.506 c 4.739,0 8.931,0.083 12.791,2.476 3.084,-1.576 6.545,-2.476 10.164,-2.476 h 51.211 c 4.73,0 9.131,0.099 12.885,2.4 a 19.083,19.083 0 0 1 3.676,-1.506 c 3.662,-1.076 6.828,-0.894 10.543,-0.894 h 17.324 c 3.109,0 6.047,0.54 8.525,1.922 2.035,-1.069 4.338,-1.681 6.748,-1.88 l 0.525,-0.042 h 23.484 c 2.117,0 4.182,0.325 6.076,0.99 0.303,-1.388 0.842,-2.8 1.639,-4.201 l 0.627,-1.101 0.855,-0.952 c 3.645,-4.074 7.551,-7.497 13.525,-7.212 h 18.275 c 5.055,0 10.082,0.985 14.082,4.167 8.479,6.744 8.229,18.327 2.4,26.538 -2.273,3.198 -5.67,5.797 -9.486,7.535 -0.521,2.596 -1.932,5.157 -4.363,7.332 -1.414,1.268 -2.793,2.578 -4.186,3.876 -3.834,3.586 -7.342,4.235 -12.357,4.235 h -23.924 c -2.842,0 -5.465,-0.329 -7.906,-1.431 L 483.14,69.874 c -5.754,5.885 -12.205,10.149 -20.977,10.207 l -0.09,10e-4 c -0.775,-0.002 -1.554,-0.002 -2.331,-0.002"
       id="path107938" /><path
       fill="#f57e25"
       d="M 82.539,36.625 C 73.353,24.2 71.162,25.472 65.829,25.472 H 16.265 c -3.994,0 -4.882,2.99 -2.669,5.963 1.245,1.688 3.922,4.414 6.061,6.54 l 51.718,51.871 h 50.978 A 5966.673,5966.673 0 0 1 82.539,36.625 Z m 7.412,40.505 c -1.556,0.023 -4.109,0.079 -5.639,0.055 -1.736,-0.028 -2.228,-0.421 -3.307,-1.621 L 57.359,49.249 c -1.063,-1.184 -0.938,-2.53 1.025,-2.532 l 7.278,-0.007 c 0.98,-10e-4 1.451,0.099 3.262,2.289 l 21.288,25.729 c 1.204,1.454 0.403,2.395 -0.261,2.402 z M 87.845,25.479 h 42.453 c 5.327,0 10.485,-1.854 16.696,11.139 l 25.448,53.229 H 127.41 L 103.726,57.104 c -0.976,-1.35 -1.107,-1.527 -1.712,-2.553 -0.528,-0.894 0.136,-1.907 1.549,-1.995 l 17.248,-0.165 c 2.824,0.051 3.818,0.084 5.401,2.714 4.537,6.723 8.598,13.684 13.135,20.408 0.901,1.666 2.217,1.735 4.94,1.768 3.145,0.038 5.026,-0.345 3.094,-3.572 L 132.46,48.785 c -2.243,-3.747 -8.857,-3.116 -9.838,-3.116 h -22.301 c -2.63,0 -4.637,0.158 -6.288,-2.005 L 85.156,31.428 c -2.167,-2.99 -1.307,-5.949 2.689,-5.949 z m 65.369,0 h 20.907 c 1.08,0.105 1.691,0.444 1.833,1.021 3.115,7.735 5.468,15.47 8.585,23.205 0.578,1.492 1.098,2.161 1.913,2.007 1.733,0.011 3.168,0.022 4.902,0.035 1.584,-0.063 2.022,-0.951 1.492,-2.662 -2.021,-7.354 -4.26,-14.269 -6.282,-21.624 -0.543,-1.814 0.561,-1.984 2.433,-1.984 h 14.314 c 7.166,0 8.325,-1.046 10.993,11.139 2.106,9.618 4.035,19.238 6.141,28.858 0.498,3.184 -0.794,5.764 -4.306,5.67 l -6.695,-0.023 5.114,18.725 H 189.76 l -7.53,-18.679 -7.309,0.004 c -4.363,-0.032 -6.525,-2.871 -8.329,-6.739 L 150.907,31.428 c -1.424,-2.998 -1.688,-5.949 2.307,-5.949 z m 71.894,0 h 50.807 c 5.327,0 9.167,-0.538 8.528,7.315 l -0.589,7.269 c -0.098,1.19 -0.203,2.255 -0.51,3.381 -0.67,2.458 -2.959,2.829 -5.507,2.868 h -28.796 c -1.307,0 -1.741,0.074 -1.745,0.97 l -0.026,4.467 c -0.006,1.014 0.705,0.878 2.325,0.878 h 22.025 c 1.612,0 3.183,-0.076 4.766,0.304 2.953,0.708 4.545,2.445 5.364,4.669 0.681,1.854 0.402,3.382 0.245,5.316 l -2.188,26.93 h -49.454 l -1.566,-8.994 c -0.273,-1.565 0.208,-2.545 2.109,-2.545 h 26.066 c 4.525,-0.654 4.675,-3.78 4.218,-7.263 h -27.814 c -2.85,0.129 -4.684,-0.744 -5.905,-2.153 -1.131,-1.303 -1.198,-2.506 -1.483,-4.15 l -5.47,-31.406 c -0.804,-4.612 0.606,-7.856 4.6,-7.856 z m 73.761,0 h 48.506 c 5.188,0 9.025,-0.526 6.508,7.123 l -2.553,7.743 c -0.387,1.16 -0.752,2.195 -1.326,3.292 -1.254,2.393 -3.571,2.754 -6.063,2.792 h -25.66 c -1.271,0 -1.705,0.072 -1.938,0.944 l -1.313,4.92 c -0.261,0.986 0.474,0.855 2.05,0.855 h 19.067 c 1.567,0 3.115,-0.072 4.563,0.296 2.697,0.689 3.826,2.38 4.076,4.546 0.207,1.805 -0.438,3.293 -1.064,5.175 l -9.508,26.68 h -47.4 l 1.032,-8.678 c 0.12,-1.524 0.823,-2.479 2.68,-2.478 h 19.616 c 4.563,-0.638 5.479,-3.682 5.889,-7.072 h -17.722 c -6.374,0.284 -9.358,-3.927 -8.944,-9.532 l 2.133,-28.96 c 0.332,-4.488 3.482,-7.649 7.371,-7.649 h 0.002 v 0.003 z m 71.459,0 h 51.211 c 5.477,0 9.674,-0.526 4.943,7.123 l -4.791,7.743 c -0.723,1.16 -1.389,2.195 -2.291,3.292 -1.977,2.393 -4.523,2.754 -7.162,2.792 h -20.459 c -1.344,0 -3.1,-0.127 -3.061,0.629 l 0.205,4.084 c 0.043,0.858 0.929,1.521 2.595,1.521 h 11.157 l 7.805,0.053 c 1.717,0.012 2.43,1.576 1.621,2.928 l -3.092,5.176 -7.245,11.194 c -0.306,0.016 -0.612,0.025 -0.921,0.029 h -21.869 c -1.396,0 -3.229,-0.127 -3.174,0.844 l 0.212,3.869 c 0.05,0.857 0.964,1.521 2.69,1.521 h 12.219 l 6.76,0.045 -7.457,11.522 h -49.66 c 4.773,-12.022 4.592,-12.785 19.908,-56.718 1.565,-4.486 5.749,-7.647 9.856,-7.647 z m 134.923,0 h -22.955 c -1.229,0.105 -2.047,0.444 -2.443,1.021 -6.693,7.735 -12.553,15.47 -19.244,23.205 -1.268,1.492 -2.121,2.161 -2.949,2.007 -1.91,0.011 -3.488,0.022 -5.398,0.035 -1.711,-0.063 -1.813,-0.951 -0.51,-2.662 5.332,-7.354 10.717,-14.269 16.047,-21.624 1.363,-1.814 0.229,-1.984 -1.83,-1.984 h -17.324 c -7.861,0 -8.691,-1.046 -16.779,11.139 -6.381,9.618 -12.57,19.238 -18.953,28.858 -1.896,3.184 -1.568,5.764 2.326,5.67 l 8.969,-0.023 -13.539,18.725 h 27.225 l 16.172,-18.679 8.023,0.004 c 4.803,-0.032 8.381,-2.871 11.998,-6.739 l 31.188,-33.005 c 2.826,-2.997 4.363,-5.948 -0.024,-5.948 z m 35.145,13.028 c -1.484,1.387 -2.932,2.818 -4.385,4.237 -1.156,1.132 -2.041,0.882 -3.672,0.882 h -23.922 c -1.426,0 -2.381,-0.085 -2.898,-0.494 -0.758,-0.597 -0.586,-1.702 0.396,-2.691 3.715,-3.944 7.436,-7.889 11.15,-11.832 1.775,-1.632 3.43,-3.309 6.813,-4.407 2.068,-0.67 3.9,-0.827 6.041,-0.827 h 9.855 c 2.434,0.228 4.672,-4.551 2.074,-5.461 H 525.71 c -2.123,0.151 -2.729,-0.605 -1.82,-2.276 1.75,-2.042 2.777,-3.29 3.643,-3.186 h 18.721 c 1.891,0 4.592,0.198 6.137,1.482 3.311,2.743 2.307,7.848 0.063,11.148 -1.939,2.844 -6.27,4.823 -9.564,4.935 h -12.869 c -3.145,0.228 -7.238,6.708 -1.572,6.783 h 11.287 c 1.623,0.001 1.664,0.77 0.66,1.707"
       id="path107940" /><path
       fill="url(#a)"
       d="m 118.668,84.97 c 14.685,19.412 30.529,40.164 40.607,53.508 11.277,14.945 20.692,27.43 28.656,37.979 h -30.208 c -8.839,-8.867 -18.978,-19.033 -30.696,-30.789 L 66.513,84.97 Z m 322.935,0.59 -27.41,-0.589 -66.154,91.488 h 14.856 z m -99.142,-0.59 c -4.017,10.109 -13.427,33.064 -36.628,91.488 h 28.34 l 58.456,-90.331 z m -7.125,1.725 -48.177,0.241 -10.642,89.522 h 26.841 z m -55.316,0.53 -50.03,0.536 15.444,88.698 h 27.331 z m -66.377,-0.73 h -25.234 l 36.271,89.963 h 13.532 L 214.556,89.848 Z M 170.11,84.97 h -46.228 l 66.173,91.488 h 23.795 l -41.407,-86.61"
       id="path107947"
       style="fill:url(#a)" /></g></svg>
