<?xml version="1.0" encoding="UTF-8" standalone="no"?>
<svg
   version="1.0"
   width="125pt"
   height="100pt"
   viewBox="0 0 125 100"
   preserveAspectRatio="xMidYMid"
   id="svg68003"
   sodipodi:docname="gameandwatch.svg"
   inkscape:version="1.2.1 (9c6d41e410, 2022-07-14)"
   xmlns:inkscape="http://www.inkscape.org/namespaces/inkscape"
   xmlns:sodipodi="http://sodipodi.sourceforge.net/DTD/sodipodi-0.dtd"
   xmlns="http://www.w3.org/2000/svg"
   xmlns:svg="http://www.w3.org/2000/svg">
  <defs
     id="defs68007" />
  <sodipodi:namedview
     id="namedview68005"
     pagecolor="#505050"
     bordercolor="#ffffff"
     borderopacity="1"
     inkscape:showpageshadow="0"
     inkscape:pageopacity="0"
     inkscape:pagecheckerboard="1"
     inkscape:deskcolor="#505050"
     inkscape:document-units="pt"
     showgrid="false"
     inkscape:zoom="3.3916667"
     inkscape:cx="39.213759"
     inkscape:cy="74.004913"
     inkscape:window-width="1920"
     inkscape:window-height="1017"
     inkscape:window-x="-8"
     inkscape:window-y="-8"
     inkscape:window-maximized="1"
     inkscape:current-layer="svg68003" />
  <path
     id="path67999"
     style="fill:#ffffff;stroke:none;stroke-width:0.0138802;fill-opacity:1"
     d="m 121.9155,96.441436 c -0.15269,0.152682 0.0139,2.914836 0.18044,3.025878 0.24984,0.138801 0.4164,-0.0694 0.51356,-0.666249 0.0972,-0.569087 0.33313,-0.666248 0.40253,-0.166562 0.0833,0.74953 0.18044,0.943852 0.43028,0.943852 0.29149,0 0.43029,-0.263723 0.43029,-0.83281 0,-0.541327 0.24984,-0.666248 0.36088,-0.180443 0.16657,0.76341 0.22209,0.874451 0.41641,0.874451 0.15268,0 0.19432,-0.291483 0.19432,-1.526819 v -1.526818 h -0.4164 c -0.44417,0 -0.51357,0.138801 -0.58297,1.096533 -0.0694,0.916091 -0.68013,0.638488 -0.79117,-0.360884 -0.0833,-0.652368 -0.0972,-0.666248 -0.56909,-0.707889 -0.2776,-0.02776 -0.52744,-0.01388 -0.56908,0.02776 z m -2.9426,0.04164 c -0.19432,0.180442 -0.0833,0.319244 0.36088,0.430285 l 0.44417,0.111042 0.0694,1.138174 c 0.0694,1.110413 0.2776,1.610099 0.55521,1.332496 0.0694,-0.0694 0.1388,-0.652368 0.16656,-1.304736 0.0416,-1.054893 0.0694,-1.179815 0.31924,-1.221455 0.36089,-0.0694 0.63849,-0.305364 0.54133,-0.458046 -0.0833,-0.138801 -2.31799,-0.166562 -2.45679,-0.02776 z M 94.404999,66.50191 c -0.05552,0.04164 -0.09716,5.76027 -0.09716,12.700355 V 91.80546 h 0.319244 c 2.276348,0.04164 3.858687,0.01388 3.983609,-0.0694 0.09716,-0.05552 0.138801,-1.693381 0.138801,-5.302225 -0.01388,-4.136291 0.02776,-5.246704 0.166562,-5.329985 0.305364,-0.194323 7.245445,-0.152682 7.439775,0.04164 0.12492,0.124922 0.16656,1.512939 0.16656,5.413266 v 5.246705 l 0.31924,0.01388 c 1.48518,0.02776 3.87257,-0.01388 3.98361,-0.08328 0.22208,-0.138802 0.19432,-24.942666 -0.0278,-25.164748 -0.18044,-0.180443 -3.6366,-0.249843 -4.05301,-0.08328 -0.19432,0.0694 -0.22208,0.638487 -0.22208,4.9691 0,2.678873 -0.0555,4.955221 -0.12492,5.052382 -0.0833,0.138802 -0.9161,0.180443 -3.83093,0.180443 -2.04039,0 -3.733766,-0.02776 -3.775406,-0.05552 -0.02776,-0.04164 -0.05552,-2.234707 -0.04164,-4.87194 0,-3.136918 -0.04164,-4.8997 -0.138801,-5.080142 -0.138802,-0.249843 -0.305364,-0.277603 -2.137546,-0.277603 -1.082654,0 -2.026505,0.04164 -2.068146,0.09716 z m -39.378042,0.166562 c -0.0694,0.152682 -0.138802,1.027132 -0.138802,1.957104 0,0.929971 0.0694,1.804422 0.138802,1.957104 0.138802,0.249843 0.319244,0.263723 2.331868,0.263723 1.526819,0 2.248588,0.05552 2.359629,0.166562 0.124922,0.124922 0.166562,2.637232 0.166562,10.479528 V 91.80546 l 0.319244,0.01388 c 1.735022,0.04164 3.900328,-0.01388 3.997489,-0.111041 0.0694,-0.0694 0.138802,-4.774779 0.152682,-10.451769 l 0.04164,-10.340726 2.206947,-0.04164 c 1.346376,-0.01388 2.290228,-0.09716 2.401269,-0.180442 0.138802,-0.124921 0.180442,-0.666248 0.180442,-2.137546 0,-1.679501 -0.02776,-1.998745 -0.222082,-2.068145 -0.124922,-0.04164 -3.275721,-0.08328 -6.995606,-0.08328 -6.579201,0 -6.801283,0.01388 -6.940085,0.263723 z m -6.273837,0.124921 c -0.305364,0.360885 -4.663737,6.829044 -4.830299,7.176048 -0.04164,0.08328 -2.373509,3.608844 -5.205064,7.842296 -2.817674,4.233452 -5.163423,7.759015 -5.191183,7.828416 -0.02776,0.05552 -0.319244,0.513566 -0.652368,0.999372 -0.333125,0.485806 -0.610728,0.957732 -0.610728,1.027133 0,0.08328 0.943852,0.138802 2.484551,0.138802 h 2.48455 l 0.402525,-0.513567 c 0.222083,-0.291483 1.013252,-1.471298 1.776662,-2.609472 0.763409,-1.152054 1.443537,-2.123666 1.526818,-2.179186 0.166562,-0.124922 7.439771,-0.152682 7.759015,-0.02776 0.194323,0.0694 0.222083,0.444166 0.222083,2.706634 v 2.609472 l 1.970984,0.04164 c 1.152054,0.02776 2.040385,-0.01388 2.151427,-0.09716 0.152681,-0.111042 0.180442,-2.262468 0.152681,-12.700356 l -0.04164,-12.561554 -2.026505,-0.04164 -2.040385,-0.04164 z m 0.138802,11.700984 -0.04164,3.525563 -2.48455,0.04164 c -2.137546,0.02776 -2.47067,0 -2.40127,-0.166562 0.05552,-0.124921 0.888331,-1.415777 1.859943,-2.887075 0.971612,-1.471298 1.804422,-2.748274 1.846063,-2.817675 0.235963,-0.485805 1.041013,-1.443537 1.138174,-1.346376 0.0694,0.0694 0.09716,1.707261 0.08328,3.650485 z M 9.0419537,66.50191 c -0.055521,0.04164 -0.097161,5.76027 -0.097161,12.700355 V 91.80546 h 2.2069473 2.206947 l 0.499686,-0.694009 c 0.277603,-0.388645 0.499686,-0.735649 0.499686,-0.777289 0,-0.04164 0.180442,-0.319244 0.402525,-0.596848 0.208202,-0.277603 0.416405,-0.569087 0.444165,-0.638487 0.02776,-0.08328 1.249215,-1.915464 2.692753,-4.094651 1.457418,-2.179186 2.664993,-4.025249 2.692753,-4.09465 0.02776,-0.08328 0.235963,-0.360884 0.444166,-0.638488 0.222082,-0.277603 0.402524,-0.555206 0.402524,-0.610727 0,-0.05552 0.180443,-0.333124 0.416406,-0.624608 0.222082,-0.291483 0.416405,-0.555207 0.416405,-0.596847 0,-0.166562 2.317988,-3.497803 2.44291,-3.497803 0.0694,0 0.152681,3.386762 0.194322,8.397503 l 0.0694,8.397503 h 2.220827 2.220827 L 30.8477,89.598513 c 0.777289,-1.179815 1.415777,-2.165307 1.415777,-2.206947 0,-0.02776 0.180442,-0.291484 0.402525,-0.569087 0.208203,-0.277604 0.416405,-0.569087 0.444165,-0.638488 0.02776,-0.08328 1.62398,-2.484551 3.525564,-5.343866 1.915463,-2.859315 3.497802,-5.274464 3.525563,-5.343865 0.02776,-0.08328 0.222083,-0.360884 0.430285,-0.624608 0.208203,-0.263723 0.402525,-0.555207 0.430285,-0.624607 0.02776,-0.08328 1.165935,-1.804422 2.526191,-3.844807 1.360257,-2.040385 2.44291,-3.775407 2.38739,-3.858688 -0.09716,-0.152682 -4.469415,-0.194322 -4.85806,-0.05552 -0.180442,0.0694 -5.274465,7.564692 -5.468787,8.036618 -0.02776,0.0694 -0.235963,0.360884 -0.444165,0.638488 -0.222083,0.277603 -0.402525,0.555207 -0.402525,0.610727 0,0.05552 -0.180443,0.333124 -0.416405,0.624608 -0.222083,0.291484 -0.416406,0.555207 -0.416406,0.582967 0,0.166562 -4.330613,6.565321 -4.413894,6.53756 -0.05552,-0.02776 -0.124921,-3.872567 -0.166562,-8.536304 l -0.0694,-8.508545 -2.095906,-0.04164 -2.095906,-0.04164 -0.582967,0.76341 c -0.305364,0.416405 -0.569087,0.80505 -0.569087,0.86057 0,0.04164 -0.180442,0.319244 -0.402525,0.596848 -0.208202,0.277603 -0.416405,0.555206 -0.444165,0.638487 -0.02776,0.0694 -1.429658,2.193067 -3.109158,4.719258 -1.679501,2.512311 -3.081398,4.635977 -3.109158,4.719258 -0.02776,0.0694 -0.235963,0.360884 -0.444166,0.638488 -0.222083,0.277603 -0.402525,0.555207 -0.402525,0.610727 0,0.05552 -0.180442,0.333124 -0.416405,0.624608 -0.222083,0.291484 -0.416405,0.555207 -0.416405,0.596847 0,0.04164 -0.263723,0.471926 -0.596847,0.957732 -0.333124,0.485806 -0.638488,0.985492 -0.694009,1.110414 -0.04164,0.138801 -0.180442,0.249843 -0.305364,0.249843 -0.180442,0 -0.208202,-0.943852 -0.208202,-8.369743 0,-6.329357 -0.04164,-8.411383 -0.166562,-8.536304 -0.180442,-0.180443 -4.0113691,-0.249843 -4.1779311,-0.0694 z M 78.831448,65.849542 c -2.873195,0.624607 -4.885819,1.721141 -6.870684,3.733766 -1.179814,1.193694 -2.304108,2.845434 -2.831554,4.177931 -0.138802,0.347004 -0.319244,0.777289 -0.388645,0.971612 -0.347004,0.86057 -0.666248,2.900955 -0.666248,4.261212 0,3.539443 1.540699,7.106647 4.150171,9.591197 0.86057,0.81893 2.651112,2.054265 3.622724,2.484551 1.970984,0.888331 3.27572,1.152054 5.607589,1.152054 2.48455,-0.01388 3.761526,-0.305364 5.843551,-1.346377 2.068145,-1.054893 3.886448,-2.623352 5.107903,-4.441654 0.360884,-0.541327 0.652368,-1.054893 0.652368,-1.138174 0,-0.180442 0.208202,-0.166562 -2.609472,-0.152682 l -2.276348,0.01388 -0.874451,0.721769 c -4.413894,3.636605 -10.923694,2.540071 -13.755248,-2.331868 -1.124294,-1.929344 -1.56846,-4.441655 -1.096534,-6.218317 0.111042,-0.444165 0.208203,-0.88833 0.208203,-0.999372 0,-0.388645 0.87445,-2.082025 1.471298,-2.859315 0.763409,-0.985492 1.707261,-1.832182 2.692753,-2.401269 1.027132,-0.582967 1.499058,-0.749529 3.053637,-1.082654 1.152054,-0.249843 1.443538,-0.277603 2.290228,-0.138801 1.62398,0.263723 2.040385,0.374764 2.984237,0.84669 1.332496,0.666248 1.457418,0.735649 2.220827,1.443538 l 0.707889,0.652368 h 2.415149 c 1.457418,0 2.44291,-0.05552 2.498431,-0.138802 0.235963,-0.388645 -2.179187,-3.23408 -3.775406,-4.441654 -0.81893,-0.610728 -2.581712,-1.554579 -3.650485,-1.929344 -1.984864,-0.707889 -4.705378,-0.874451 -6.731883,-0.430285 z M 55.512763,37.93652 c -1.818302,0.541327 -3.011997,1.554579 -3.775406,3.178559 -0.305364,0.652368 -0.347005,0.943851 -0.347005,2.165306 0,1.318617 0.04164,1.499059 0.458046,2.345749 0.249843,0.513566 0.777289,1.304736 1.193695,1.748902 0.402525,0.458045 0.735649,0.87445 0.735649,0.943851 0,0.05552 -0.360885,0.360885 -0.77729,0.666248 -2.248587,1.59622 -3.664365,4.164051 -3.664365,6.606961 0,0.985492 0.416405,2.623352 0.916091,3.664365 0.610728,1.249215 2.082026,2.692753 3.386762,3.2896 2.345749,1.082654 5.205064,1.027133 7.606333,-0.152682 0.80505,-0.388644 2.082026,-1.66562 2.831555,-2.803794 0.388644,-0.596847 0.80505,-1.096533 0.902211,-1.096533 0.166562,0 0.735649,0.485806 2.887075,2.51231 1.499058,1.415778 1.929344,1.790542 2.040385,1.790542 0.138802,0 0.291484,-0.152681 1.526819,-1.485178 1.041013,-1.138174 1.152054,-1.360256 0.81893,-1.596219 -0.222083,-0.166562 -1.415777,-1.263096 -4.552696,-4.191812 -0.943851,-0.888331 -1.013252,-0.999372 -0.929971,-1.388017 0.04164,-0.235963 0.138801,-0.499686 0.194322,-0.569087 0.05552,-0.08328 0.374765,-0.763409 0.694009,-1.512938 0.319244,-0.749529 0.638487,-1.471298 0.694008,-1.59622 0.180442,-0.347004 0.888331,-1.929343 1.249215,-2.831554 0.291484,-0.694009 0.305364,-0.832811 0.138802,-0.929972 -0.222083,-0.152682 -3.220199,-0.180442 -3.706005,-0.05552 -0.222083,0.05552 -0.458046,0.430285 -0.888331,1.415777 -1.457418,3.359001 -1.415778,3.27572 -1.693381,3.331241 -0.124921,0.02776 -0.666248,-0.374765 -1.235335,-0.916092 -0.555207,-0.527446 -1.221455,-1.138174 -1.485178,-1.374136 l -0.471926,-0.416405 0.916091,-0.985493 c 0.499686,-0.555206 1.013253,-1.207574 1.138174,-1.443537 0.458046,-0.902211 0.763409,-2.095906 0.763409,-3.011997 0,-3.650485 -3.900327,-6.384878 -7.564692,-5.302225 z m 3.234079,4.400014 c 0.235963,0.277603 0.444166,0.652368 0.444166,0.81893 0,0.430285 -0.277604,1.193694 -0.569087,1.568459 -0.319244,0.416405 -1.221455,1.138174 -1.429658,1.138174 -0.263723,0 -1.457417,-1.221455 -1.748901,-1.804422 -0.388645,-0.749529 -0.347004,-1.152054 0.138802,-1.721141 0.499686,-0.555207 0.735649,-0.638488 1.873823,-0.569087 0.763409,0.04164 0.87445,0.09716 1.290855,0.569087 z m -1.082653,9.244193 c 0.347004,0.319244 0.971612,0.902211 1.388017,1.276976 0.416405,0.388644 1.235335,1.138174 1.790542,1.66562 l 1.027133,0.957732 -0.208203,0.430285 c -0.124921,0.235963 -0.263723,0.527447 -0.305364,0.638488 -0.166562,0.444165 -1.110413,1.748901 -1.471298,2.054265 -0.680128,0.569087 -1.235335,0.721769 -2.623352,0.721769 -1.512938,0 -2.123666,-0.194322 -2.845435,-0.929971 -0.83281,-0.832811 -0.985492,-1.249216 -0.985492,-2.748274 0,-1.263096 0.04164,-1.443538 0.360885,-1.943224 0.208202,-0.305364 0.582967,-0.749529 0.83281,-0.985492 0.541327,-0.499686 2.193067,-1.721141 2.331869,-1.721141 0.04164,0 0.360884,0.263723 0.707888,0.582967 z M 95.904058,8.2745966 c -0.04164,0.097161 -0.05552,5.8019114 -0.04164,12.6725954 l 0.04164,12.492153 h 6.523682 6.52368 l 0.0416,-1.804422 c 0.0139,-0.999372 0,-1.943224 -0.0416,-2.123666 l -0.0694,-0.305364 h -4.28898 c -3.7754,0 -4.30285,-0.02776 -4.37225,-0.222083 -0.0416,-0.124921 -0.0833,-1.360256 -0.0833,-2.762154 0,-1.401897 0.0416,-2.637232 0.0833,-2.762153 0.0694,-0.194323 0.58297,-0.222083 4.28897,-0.222083 3.41452,0 4.23345,-0.04164 4.35838,-0.194322 0.11104,-0.124922 0.15268,-0.818931 0.12492,-2.109786 l -0.0416,-1.929344 -4.37226,-0.0694 -4.37225,-0.0694 -0.0416,-2.914835 c -0.0139,-1.6101 0,-3.053638 0.0416,-3.23408 l 0.0694,-0.305364 h 4.30285 4.30286 l 0.0694,-0.319244 c 0.0416,-0.166562 0.0555,-1.124293 0.0416,-2.1097854 l -0.0416,-1.8044222 -6.49592,-0.04164 c -5.121785,-0.02776 -6.509802,0 -6.551442,0.1388017 z M 68.393561,13.47966 c -1.970985,2.970357 -3.594964,5.427147 -3.622725,5.482668 -0.02776,0.04164 -2.179186,3.30348 -4.802539,7.245448 -2.623352,3.928088 -4.733138,7.189928 -4.691497,7.231569 0.04164,0.04164 1.207575,0.0694 2.581712,0.0694 h 2.51231 L 61.77272,31.38508 c 0.777289,-1.152054 2.956476,-4.455535 4.858059,-7.31485 1.901583,-2.859315 3.483923,-5.260584 3.511683,-5.343865 0.02776,-0.0694 0.235963,-0.360885 0.444165,-0.638488 0.222083,-0.277604 0.402525,-0.555207 0.402525,-0.596847 0,-0.194323 0.624608,-0.916092 0.79117,-0.916092 0.138802,0 0.180442,1.6101 0.208203,8.425263 l 0.04164,8.439144 2.151426,0.04164 2.151427,0.02776 2.290228,-3.428402 c 1.263095,-1.887703 2.317988,-3.497803 2.359629,-3.581084 0.04164,-0.0694 1.443537,-2.193067 3.123038,-4.719258 1.679501,-2.512311 3.081398,-4.635977 3.109158,-4.719258 0.08328,-0.222082 0.582967,-0.666248 0.652368,-0.582967 0.04164,0.04164 0.08328,3.872568 0.09716,8.508544 l 0.02776,8.453024 2.123666,0.04164 2.109785,0.04164 V 20.80839 8.1080346 H 90.088266 87.95072 l -2.415149,3.6366044 c -1.332497,2.012625 -2.664993,4.011369 -2.970357,4.455535 -0.291483,0.444165 -0.610727,0.916091 -0.680128,1.041012 -0.596847,1.013253 -5.246704,7.883937 -5.343866,7.911697 -0.08328,0.02776 -0.152681,-3.247959 -0.166562,-8.466903 l -0.04164,-8.5085446 -2.179187,-0.04164 -2.179187,-0.04164 z M 46.143648,13.202057 c -1.873823,2.817674 -3.428402,5.163423 -3.470042,5.246704 -0.04164,0.0694 -1.443538,2.193067 -3.123039,4.719258 -1.6795,2.512311 -3.081397,4.635977 -3.109158,4.719258 -0.02776,0.0694 -0.235963,0.360884 -0.444165,0.638488 -0.222083,0.277603 -0.402525,0.541326 -0.402525,0.582967 0,0.02776 -0.624608,0.985492 -1.374137,2.123666 -0.763409,1.138174 -1.346376,2.109786 -1.318616,2.165306 0.04164,0.05552 1.179814,0.111042 2.553951,0.111042 h 2.47067 l 1.096534,-1.63786 c 0.596847,-0.888331 1.110413,-1.693381 1.152054,-1.762782 0.152682,-0.305364 0.902211,-1.415777 1.165934,-1.707261 0.263723,-0.305364 0.305364,-0.305364 4.09465,-0.305364 2.109786,0 3.900328,0.05552 3.983609,0.111042 0.111042,0.0694 0.152682,0.888331 0.138802,2.567831 -0.01388,1.360257 0.01388,2.540071 0.0694,2.609472 0.04164,0.08328 0.943851,0.111042 2.151426,0.09716 l 2.068145,-0.04164 V 20.80839 8.1774354 l -2.151426,-0.04164 -2.151426,-0.02776 z m 3.414522,6.745763 c -0.01388,2.678872 -0.05552,3.428402 -0.208203,3.622724 -0.166562,0.194322 -0.471925,0.222083 -2.359629,0.194322 -1.957104,-0.04164 -2.165306,-0.0694 -2.206947,-0.291483 -0.02776,-0.152682 0.80505,-1.526819 2.012625,-3.331241 1.124294,-1.693381 2.095906,-3.192439 2.151426,-3.317361 0.05552,-0.138801 0.222083,-0.249843 0.360885,-0.249843 0.235963,0 0.249843,0.180443 0.249843,3.372882 z M 19.771325,8.0525139 c -1.512938,0.2637232 -2.137546,0.4580456 -3.678245,1.1936946 -0.763409,0.3608845 -0.943852,0.485806 -2.151426,1.3741365 -1.138174,0.860571 -1.693381,1.415778 -2.664993,2.692753 -0.610727,0.80505 -1.9154634,3.317361 -1.9154634,3.692126 0,0.09716 -0.083281,0.430285 -0.1943224,0.749529 -0.1110414,0.305363 -0.2776034,1.193694 -0.3747646,1.970984 -0.3747646,3.123038 0.4302853,6.287717 2.3457484,9.174792 1.526819,2.317989 4.622097,4.483295 7.453652,5.218944 3.123038,0.80505 6.329357,0.499686 9.299714,-0.916091 1.054892,-0.499686 2.48455,-1.512939 3.456162,-2.44291 0.652368,-0.624608 2.165306,-2.540071 2.165306,-2.748274 0,-0.05552 0.08328,-0.208202 0.180443,-0.319244 0.263723,-0.305363 0.999372,-2.137546 1.263095,-3.136918 0.124922,-0.458046 0.277603,-1.401897 0.347004,-2.082025 0.124922,-1.096534 0.111042,-1.276976 -0.09716,-1.429658 -0.166562,-0.124921 -1.66562,-0.166562 -6.398758,-0.166562 -3.400642,0 -6.273837,0.05552 -6.370998,0.111041 -0.124922,0.09716 -0.166562,0.610728 -0.138802,2.123666 l 0.04164,1.998745 3.955848,0.0694 c 4.511055,0.08328 4.275092,-0.01388 3.414522,1.290856 -0.916091,1.374136 -2.720514,2.831554 -4.247332,3.400641 -0.263723,0.09716 -1.110414,0.319244 -1.859943,0.471926 -1.429657,0.305364 -2.095906,0.277603 -3.900328,-0.152682 -3.081398,-0.735649 -5.885192,-3.539443 -6.606961,-6.606961 -0.485806,-2.082025 -0.485806,-2.651112 -0.01388,-4.858059 0.388645,-1.762782 1.998745,-4.02525 3.719886,-5.191184 0.707888,-0.485806 2.345748,-1.263095 2.664992,-1.263095 0.124922,0 0.541327,-0.09716 0.916092,-0.208203 0.374764,-0.111041 1.124293,-0.208203 1.6795,-0.208203 0.555207,0 1.304736,0.09716 1.679501,0.208203 0.374764,0.111041 0.791169,0.208203 0.916091,0.208203 0.416405,0 2.082025,0.84669 2.887075,1.457417 0.416405,0.319244 1.027133,0.874451 1.346377,1.221455 0.333124,0.347005 0.707888,0.707889 0.86057,0.79117 0.152682,0.0694 1.138174,0.138802 2.234708,0.138802 2.234707,0 2.304108,-0.04164 1.804422,-0.999372 -0.81893,-1.58234 -2.304108,-3.303481 -3.817047,-4.441655 -0.86057,-0.6384877 -3.345121,-1.9154633 -3.747646,-1.9154633 -0.124921,0 -0.347004,-0.069401 -0.499686,-0.1526819 C 25.309513,8.1496741 22.894363,7.8304302 21.79783,7.8443104 21.256503,7.8581904 20.340412,7.9553517 19.771325,8.0525139 Z M 5.724593,0.34901957 C 5.5857913,0.48782127 5.3220681,0.6127428 5.1416259,0.6127428 c -0.2914836,0 -0.7634093,0.18044221 -1.471298,0.5829671 C 3.5592865,1.2512306 3.3649642,1.3483918 3.2539228,1.4039125 2.9069185,1.5565944 1.963067,2.3200037 1.5189015,2.8196898 0.97757491,3.4304173 0.31132675,4.6796326 0.08924403,5.5124428 -0.16059903,6.4979349 -0.14671886,94.234489 0.11700437,95.136701 c 0.16656204,0.596847 0.43028527,1.193694 0.84669037,1.943223 0.61072746,1.082654 2.34574876,2.317989 3.81704676,2.734394 0.9438515,0.249842 108.0571185,0.249842 108.9593385,-0.01388 1.13817,-0.319244 1.84606,-0.721769 2.72051,-1.526819 0.80505,-0.721769 1.24921,-1.401897 1.65174,-2.512311 l 0.347,-0.943851 V 50.678516 c 0,-40.252493 -0.0139,-44.2083415 -0.22208,-44.9162301 -0.47192,-1.6378601 -1.16593,-2.9425961 -2.04038,-3.830927 -0.49969,-0.4996861 -1.87383,-1.3186161 -2.22083,-1.3186161 -0.12492,0 -0.36089,-0.12492153 -0.51357,-0.2776034 C 113.18487,0.057536 113.00443,0.057536 59.579653,0.07141617 6.9182877,0.08529634 5.9605559,0.08529634 5.724593,0.34901957 Z M 113.39307,1.7370366 c 1.85994,0.652368 2.8732,1.8599427 3.59497,4.2750923 0.2082,0.6662482 0.22208,4.7747781 0.22208,44.6386271 0,43.528213 0,43.889097 -0.2776,44.694147 -0.26373,0.77729 -0.79117,1.62398 -1.24922,1.970984 -0.72177,0.582967 -1.31862,0.929972 -2.15143,1.221455 l -0.94385,0.347004 H 59.32981 c -48.636116,0 -53.3276135,-0.01388 -54.0077419,-0.222082 C 4.1144933,98.301379 3.6564477,98.023776 2.781997,97.135445 1.8936661,96.260994 1.6160627,95.802949 1.2551783,94.595374 1.0469758,93.915246 1.0330956,90.001038 1.0330956,50.331512 c 0,-39.905489 0.01388,-43.5837341 0.2220827,-44.2916227 C 1.9491868,3.6941405 3.2955633,2.4171649 5.8217542,1.7092762 6.5990438,1.4871935 10.38833,1.4733133 59.607413,1.4594332 l 52.966727,-0.01388 z" />
</svg>
