<?xml version="1.0" encoding="UTF-8" standalone="no"?>
<svg
   width="634.65265"
   height="100"
   version="1.1"
   id="svg43415"
   sodipodi:docname="intellivision.svg"
   inkscape:version="1.2.1 (9c6d41e410, 2022-07-14)"
   viewBox="0 0 634.65265 100"
   xmlns:inkscape="http://www.inkscape.org/namespaces/inkscape"
   xmlns:sodipodi="http://sodipodi.sourceforge.net/DTD/sodipodi-0.dtd"
   xmlns="http://www.w3.org/2000/svg"
   xmlns:svg="http://www.w3.org/2000/svg">
  <defs
     id="defs43419" />
  <sodipodi:namedview
     id="namedview43417"
     pagecolor="#505050"
     bordercolor="#ffffff"
     borderopacity="1"
     inkscape:showpageshadow="0"
     inkscape:pageopacity="0"
     inkscape:pagecheckerboard="1"
     inkscape:deskcolor="#505050"
     showgrid="false"
     inkscape:zoom="0.9798817"
     inkscape:cx="366.88102"
     inkscape:cy="45.923911"
     inkscape:window-width="1920"
     inkscape:window-height="1017"
     inkscape:window-x="-8"
     inkscape:window-y="-8"
     inkscape:window-maximized="1"
     inkscape:current-layer="svg43415" />
  <g
     transform="matrix(0.98795188,0,0,0.98795188,-14.1697,-492.37546)"
     id="g43413"
     style="fill:#ffffff;fill-opacity:1;stroke:#000000;stroke-opacity:1">
    <path
       d="m 492.48,498.88 c -0.71965,0 -1.1301,0.61138 -1.1301,1.371 l -0.1482,14.803 c 0,0.72026 0.61041,1.0931 1.371,1.0931 l 6.7993,-0.0556 c 0.75885,0 1.371,-0.40988 1.371,-1.1301 v -2.742 c 0,-0.72046 -0.61213,-1.1116 -1.371,-1.1116 l -4.3908,0.0185 c -0.75886,0 -1.3895,-0.37283 -1.3895,-1.0931 v -9.7821 c 0,-0.75959 -0.39054,-1.371 -1.1116,-1.371 z m 33.256,0 c -0.0899,0 -0.17916,0.0187 -0.25937,0.0371 -0.56149,0.12811 -0.87077,0.66928 -0.87077,1.3339 l -0.16673,14.803 c 0,0.45016 0.24554,0.75203 0.61138,0.92634 0.0731,0.0348 0.15854,0.0693 0.24084,0.0927 0.0822,0.0233 0.16979,0.0437 0.25938,0.0556 0.0895,0.0118 0.18286,0.0185 0.2779,0.0185 l 6.7808,-0.0556 c 0.76034,0 1.371,-0.40988 1.371,-1.1301 v -2.742 c 0,-0.72046 -0.61064,-1.1116 -1.371,-1.1116 l -4.3908,0.0185 c -0.75885,0 -1.371,-0.37284 -1.371,-1.0931 l -0.0185,-9.7821 c 0,-0.7596 -0.37201,-1.371 -1.0931,-1.371 z m -106.34,0.0185 c -0.7599,0 -1.3895,0.42834 -1.3895,1.1487 l 0.074,2.2232 -0.074,12.431 c 0,0.7593 0.39167,1.371 1.1116,1.371 0.09,0 0.16059,-2.4e-4 0.24085,-0.0185 0.56179,-0.12813 0.88928,-0.68806 0.88928,-1.3525 v -9.7821 c 0,-0.72031 0.61226,-1.1301 1.371,-1.1301 h 0.94485 c 0.75901,0 1.371,0.40981 1.371,1.1301 l 0.92633,5.206 c 0,0.75959 0.37317,1.371 1.0931,1.371 h 2.427 c 0.0899,0 0.17981,-0.003 0.25938,-0.0185 0.557,-0.11081 0.87092,-0.59697 1.2228,-1.2784 0,0 2.792,-6.6756 2.9087,-6.929 0.25071,-0.54544 0.94487,-0.45577 0.94487,0.074 v 9.9488 l 0.0371,1.4636 c 0,0.7593 0.37232,1.3895 1.0931,1.3895 l 2.7975,0.0185 c 0.09,0 0.16707,-0.002 0.24085,-0.0185 0.0737,-0.0163 0.14272,-0.0423 0.20379,-0.0741 0.3664,-0.19022 0.53218,-0.64979 0.88929,-1.2784 l 2.0935,-4.5761 c 0.33986,-0.66177 0.79695,-1.1171 1.371,-1.1301 h 3.4645 c 0.7599,0 1.371,0.40989 1.371,1.1301 l 0.18526,4.8725 c -0.0105,0.49339 0.24693,0.76692 0.64843,0.92634 0.13384,0.0532 0.28456,0.1 0.44465,0.12969 0.64036,0.1189 1.4607,0.0746 2.1306,0.0927 0.63718,0.0171 1.6315,-0.405 1.6304,-1.1116 l 0.0371,-15.118 c 0,-0.72032 -0.61189,-1.1116 -1.371,-1.1116 h -7.3366 c -0.7587,0 -1.1547,0.38461 -1.371,1.1116 0,0 -4.8251,12.191 -4.9466,12.468 -0.0151,0.0346 -0.0394,0.0631 -0.074,0.0927 -0.0693,0.0592 -0.1855,0.10446 -0.29642,0.12968 -0.2773,0.0631 -0.61138,-0.002 -0.61138,-0.352 0,-0.56048 -0.0185,-11.931 -0.0185,-11.931 0,-0.7596 -0.31734,-1.4636 -1.0375,-1.4636 h -2.5938 c -0.72025,0 -0.98599,0.48243 -1.5007,1.371 0,0 -3.0601,7.545 -3.2422,7.8924 -0.0457,0.087 -0.12403,0.16516 -0.2038,0.22231 -0.0797,0.0572 -0.15342,0.0987 -0.24085,0.11117 -0.17484,0.025 -0.34229,-0.0534 -0.38905,-0.29643 -0.0935,-0.48547 -1.5007,-8.2074 -1.5007,-8.2074 0,-0.72031 -0.61108,-1.1486 -1.371,-1.1486 h -4.854 z m 133.93,0 c -0.75959,0 -1.3895,0.39129 -1.3895,1.1116 l -0.074,14.97 c 0,0.26997 0.0926,0.48873 0.24085,0.66696 0.14827,0.17823 0.34618,0.31398 0.59285,0.38906 0.0822,0.0249 0.16991,0.0429 0.25937,0.0556 0.0894,0.0128 0.18305,0.0185 0.27791,0.0185 l 2.3344,0.0185 v 0.0185 h 5.7062 c 0.0949,0 0.18846,-0.007 0.2779,-0.0185 0.0894,-0.0118 0.17714,-0.0321 0.25938,-0.0556 0.49313,-0.14032 0.8337,-0.47878 0.8337,-1.019 0,-0.71964 -0.61212,-1.1486 -1.371,-1.1486 h -5.7062 v 0.0371 c -0.73273,-0.0201 -1.3154,-0.44691 -1.3154,-1.1486 l 0.0927,-7.8924 c 0,-0.72032 0.61138,-1.0931 1.371,-1.0931 h 5.6321 c 0.75959,0 1.3895,-0.37275 1.3895,-1.0931 v -2.6308 c 0,-0.72032 -0.6299,-1.1301 -1.3895,-1.1301 l -8.0221,-0.0556 z m 24.474,0 c -0.095,0 -0.18834,0.007 -0.27791,0.0185 -0.62695,0.0823 -1.1116,0.46281 -1.1116,1.0931 -9.9e-4,0.37499 0.003,0.73664 0,1.1116 -0.0266,4.2539 -0.11705,8.5299 -0.0556,12.784 0.004,0.26097 -0.042,0.53907 -0.0556,0.81517 -0.007,0.13806 -0.002,0.2768 0.0185,0.40759 0.0206,0.13079 0.0608,0.2544 0.12968,0.37054 0.18009,0.3041 0.43761,0.49826 0.72255,0.61138 0.28495,0.11312 0.60767,0.1382 0.92634,0.12969 0.50188,-0.0136 0.97655,0.0384 1.4266,0.0185 0.15001,-0.007 0.30479,-0.0308 0.44464,-0.0556 0.55941,-0.0991 1.0245,-0.37432 1.3339,-1.1116 l 0.18528,-4.8725 c 0,-0.72026 0.61211,-1.1301 1.371,-1.1301 h 3.7054 c 0.75959,0 1.371,0.40988 1.371,1.1301 l 0.0556,4.5761 c 0,0.75961 0.37276,1.371 1.0931,1.371 0.0901,0 0.1791,-2.2e-4 0.25937,-0.0185 0.562,-0.12813 0.88929,-0.68782 0.88929,-1.3525 v -6.2806 c 0,-1.0794 -0.94761,-1.429 -1.6489,-1.7786 -0.21039,-0.10486 -0.40054,-0.21097 -0.53729,-0.33347 -0.13675,-0.12251 -0.20379,-0.26603 -0.20379,-0.44465 0,-0.95212 -0.0185,-5.9471 -0.0185,-5.9471 0,-0.72031 -0.61212,-1.1116 -1.371,-1.1116 h -8.652 z m 16.433,0 c -0.0948,0 -0.18844,0.007 -0.27789,0.0185 -0.62625,0.0823 -1.1116,0.46281 -1.1116,1.0931 l -0.074,14.97 c 0,0.35997 0.15868,0.64014 0.40758,0.8337 0.0623,0.0484 0.13063,0.0928 0.2038,0.12969 0.21952,0.11078 0.47474,0.16674 0.75959,0.16674 h 9.5413 c 0.75886,0 1.371,-0.41019 1.371,-1.1301 l -0.074,-14.97 c 0,-0.72031 -0.61138,-1.1116 -1.371,-1.1116 h -9.3745 z m 14.84,0 c -0.0949,0 -0.18846,0.006 -0.27791,0.0185 -0.17889,0.0254 -0.33551,0.0743 -0.4817,0.1482 -0.36547,0.18468 -0.61137,0.53174 -0.61137,0.98193 l 0.074,2.2232 -0.074,12.431 c 0,0.6644 0.29733,1.2243 0.85223,1.3525 0.0792,0.0183 0.1508,0.0185 0.24084,0.0185 0.0899,0 0.17916,-2.3e-4 0.25938,-0.0185 0.56149,-0.12813 0.88927,-0.68806 0.88927,-1.3525 v -9.7821 c 0,-0.72031 0.61287,-1.1301 1.371,-1.1301 h 5.0208 c 0.76034,0 1.371,0.40982 1.371,1.1301 l 0.0556,9.7451 c 0,0.7593 0.37423,1.371 1.0931,1.371 0.09,0 0.17909,-2.3e-4 0.25937,-0.0185 0.56199,-0.12813 0.88928,-0.68806 0.88928,-1.3525 l -0.0185,-10.838 0.0185,-3.7795 c 0,-0.72032 -0.6299,-1.1487 -1.3895,-1.1487 h -9.5413 z m 23.566,0 c -0.56914,0 -1.0698,0.21952 -1.2783,0.62991 -0.0696,0.1368 -0.0927,0.30161 -0.0927,0.4817 l -0.0926,14.97 c 0,0.26997 0.0928,0.48868 0.24085,0.66696 0.24683,0.29713 0.65631,0.46317 1.1301,0.46317 l 8.0406,0.0371 c 0.75885,0 1.371,-0.37225 1.371,-1.0931 0,-0.71964 -0.61213,-1.1486 -1.371,-1.1486 l -5.6321,0.0371 c -0.75885,0 -1.3895,-0.42901 -1.3895,-1.1487 l 0.0926,-7.8924 c 0,-0.72032 0.61139,-1.0931 1.371,-1.0931 h 5.6321 c 0.75959,0 1.3895,-0.37276 1.3895,-1.0931 v -2.6308 c 0,-0.72031 -0.62991,-1.1301 -1.3895,-1.1301 l -8.0221,-0.0556 z m -6.7437,0.0185 c -0.45019,0 -0.7706,0.22721 -0.94485,0.59285 -0.0698,0.14626 -0.1247,0.3212 -0.14823,0.50022 -0.0118,0.0895 -0.0185,0.18295 -0.0185,0.27791 l 0.074,9.8748 c 0,0.54013 -0.28139,0.89732 -0.74108,1.0375 -0.0766,0.0233 -0.15461,0.0438 -0.24084,0.0556 -0.0862,0.0118 -0.18295,0 -0.27791,0 h -0.51875 c -0.75885,0 -1.5007,0.37283 -1.5007,1.0931 v 2.6308 c 0,0.36012 0.18434,0.6401 0.46317,0.8337 0.0698,0.0484 0.14215,0.0928 0.22232,0.1297 0.24051,0.11078 0.53061,0.16673 0.81517,0.16673 h 4.5205 c 0.75886,0 1.371,-0.40989 1.371,-1.1301 v -2.6308 c 0,-0.11314 -0.004,-0.20745 -0.0185,-0.29643 -0.10017,-0.62288 -0.53591,-0.70192 -0.9634,-0.77812 -0.1832,-0.0326 -0.36129,-0.0699 -0.51875,-0.14821 -0.2624,-0.13069 -0.44463,-0.38082 -0.44463,-0.9634 v -9.8748 c 0,-0.7596 -0.40908,-1.371 -1.1301,-1.371 z m -170.2,0.0371 c -0.75989,0 -1.3895,0.40981 -1.3895,1.1301 v 2.6308 c 0,0.72032 0.62962,1.0931 1.3895,1.0931 h 1.723 c 0.7587,0 1.371,0.37276 1.371,1.0931 l -0.0741,9.8748 c 0,0.7593 0.39085,1.371 1.1116,1.371 0.09,0 0.16058,-2.2e-4 0.24085,-0.0185 0.56195,-0.12812 0.88928,-0.68806 0.88928,-1.3524 v -9.8748 c 0,-0.63027 0.46626,-0.99223 1.0931,-1.0746 0.0895,-0.0118 0.1829,-0.0185 0.2779,-0.0185 h 4.7428 c 0.75871,0 1.371,0.37276 1.371,1.0931 v 9.8748 c 0,0.7593 0.40959,1.371 1.1301,1.371 0.0901,0 0.18006,-2.2e-4 0.25937,-0.0185 0.5552,-0.12812 0.8337,-0.68806 0.8337,-1.3524 l -0.074,-9.8748 c 0,-0.63029 0.48522,-0.99222 1.1116,-1.0746 0.0894,-0.0118 0.18302,-0.0185 0.2779,-0.0185 h 1.723 c 0.7599,0 1.371,-0.37276 1.371,-1.0931 v -2.6308 c 0,-0.72031 -0.61109,-1.1301 -1.371,-1.1301 h -18.008 z m 109.48,0 c -0.18991,0 -0.37272,0.024 -0.53728,0.074 -0.0822,0.0251 -0.16768,0.0557 -0.24085,0.0927 -0.36587,0.18468 -0.61139,0.51321 -0.61139,0.9634 v 2.6308 c 0,0.72032 0.62992,1.0931 1.3895,1.0931 h 1.723 c 0.75885,0 1.371,0.37276 1.371,1.0931 l -0.074,9.8748 c 0,0.37966 0.0933,0.73322 0.2779,0.98192 0.0462,0.0622 0.10942,0.11735 0.16674,0.16674 0.11465,0.0988 0.24915,0.16719 0.4076,0.20379 0.0792,0.0183 0.16942,0.0185 0.25937,0.0185 0.09,0 0.16058,-2.2e-4 0.24085,-0.0185 0.56184,-0.12812 0.88927,-0.68806 0.88927,-1.3524 v -9.8748 c 0,-0.63027 0.46733,-0.99223 1.0931,-1.0746 0.0893,-0.0118 0.18314,-0.0185 0.2779,-0.0185 h 1.723 c 0.75961,0 1.371,-0.37276 1.371,-1.0931 v -2.6308 c 0,-0.72031 -0.61137,-1.1301 -1.371,-1.1301 h -8.3556 z m 88.725,0 -8.1332,0.0556 c -0.0948,0 -0.18846,0.006 -0.2779,0.0185 -0.6261,0.0894 -1.0931,0.48263 -1.0931,1.1116 l 0.0926,7.5589 c 0,0.72047 0.61213,1.1116 1.371,1.1116 l 3.9833,0.074 c 0.75885,0 1.371,0.429 1.371,1.1487 l -0.0926,2.7605 c 0,0.17996 -0.0416,0.34495 -0.11116,0.48169 -0.13907,0.27345 -0.39358,0.4623 -0.72255,0.55581 -0.0822,0.0234 -0.16985,0.0252 -0.25937,0.0371 -0.0895,0.0118 -0.18294,0.0185 -0.2779,0.0185 l -5.6692,0.0185 c -0.095,0 -0.18841,0.007 -0.27791,0.0185 -0.62645,0.0823 -1.0931,0.46286 -1.0931,1.0931 0,0.35998 0.14052,0.64016 0.38906,0.83371 0.24853,0.19353 0.60211,0.29643 0.98192,0.29643 h 10.69 c 0.37905,0 0.71485,-0.0932 0.96338,-0.27791 0.24855,-0.18468 0.4076,-0.45475 0.4076,-0.81518 l 0.0926,-7.4292 c 0,-0.71988 -0.62991,-1.0931 -1.3895,-1.0931 h -6.5955 c -0.75961,0 -1.371,-0.37253 -1.371,-1.0931 l -0.0927,-3.131 c 0,-0.71958 0.62917,-1.1301 1.3895,-1.1301 l 5.7248,0.0185 c 0.75959,0 1.371,-0.40983 1.371,-1.1301 0,-0.72032 -0.61139,-1.1116 -1.371,-1.1116 z m -173.69,0.12968 c -0.7593,0 -1.371,0.37276 -1.371,1.0931 v 5.206 c 0,0.75901 -0.37232,1.371 -1.0931,1.371 l -1.4821,0.0371 c -0.7587,0 -1.371,0.37312 -1.371,1.0931 l -0.0927,7.0958 c 0,0.53995 0.35879,0.90584 0.85223,1.056 0.0822,0.025 0.15137,0.0428 0.24084,0.0556 0.0894,0.0128 0.18303,0.0185 0.27791,0.0185 l 11.135,0.0371 c 0.759,0 1.371,-0.37283 1.371,-1.0931 0,-0.71964 -0.61198,-1.1486 -1.371,-1.1486 l -8.7261,0.0371 c -0.7593,0 -1.371,-0.429 -1.371,-1.1487 l 0.074,-2.6493 c 0,-0.72025 0.61227,-1.0931 1.371,-1.0931 l 8.652,0.0185 c 0.0949,0 0.18843,-0.007 0.2779,-0.0185 0.0894,-0.0118 0.15863,-0.0321 0.24085,-0.0556 0.4933,-0.1403 0.85223,-0.49693 0.85223,-1.0375 0,-0.6297 -0.4668,-1.0223 -1.0931,-1.1116 -0.0894,-0.0128 -0.18304,-0.0185 -0.2779,-0.0185 l -1.9268,-0.0185 c -0.095,0 -0.18836,-0.006 -0.27791,-0.0185 -0.35817,-0.051 -0.65463,-0.18823 -0.85222,-0.42611 -0.14821,-0.17842 -0.24086,-0.4154 -0.24086,-0.68549 l 0.0741,-3.2422 c 0,-0.72031 0.63019,-1.1116 1.3895,-1.1116 h 1.8342 c 0.759,0 1.371,-0.39203 1.371,-1.1116 0,-0.72032 -0.61198,-1.1301 -1.371,-1.1301 h -7.0958 z m 33.237,0 c -0.47429,0 -0.88323,0.13932 -1.1301,0.42612 -0.0494,0.0573 -0.0949,0.13539 -0.1297,0.2038 -0.0695,0.13679 -0.11115,0.28309 -0.11115,0.46317 v 5.206 c 0,0.75901 -0.37202,1.371 -1.0931,1.371 l -1.4821,0.0371 c -0.75885,0 -1.371,0.37312 -1.371,1.0931 l -0.0927,7.0958 c 0,0.26999 0.0926,0.48873 0.24084,0.66697 0.14831,0.17822 0.36456,0.31397 0.61138,0.38905 0.0822,0.025 0.16984,0.0428 0.25938,0.0556 0.0895,0.0128 0.18295,0.0185 0.2779,0.0185 l 11.116,0.0371 c 0.76033,0 1.371,-0.37283 1.371,-1.0931 0,-0.71964 -0.61065,-1.1486 -1.371,-1.1486 l -8.7261,0.0371 c -0.75885,0 -1.371,-0.429 -1.371,-1.1487 l 0.074,-2.6493 c 0,-0.72025 0.63066,-1.0931 1.3895,-1.0931 l 8.6335,0.0185 c 0.095,0 0.18831,-0.007 0.2779,-0.0185 0.0895,-0.0118 0.17708,-0.0321 0.25938,-0.0556 0.49375,-0.1403 0.8337,-0.49693 0.8337,-1.0375 0,-0.6297 -0.46598,-1.0223 -1.0931,-1.1116 -0.0895,-0.0128 -0.18286,-0.0185 -0.2779,-0.0185 l -1.9268,-0.0185 c -0.0949,0 -0.18839,-0.006 -0.2779,-0.0185 -0.35806,-0.051 -0.65467,-0.18823 -0.85223,-0.42611 -0.14818,-0.17842 -0.24084,-0.4154 -0.24084,-0.68549 l 0.0927,-3.2422 c 0,-0.72031 0.61137,-1.1116 1.371,-1.1116 h 1.8342 c 0.76033,0 1.371,-0.39203 1.371,-1.1116 0,-0.72032 -0.61065,-1.1301 -1.371,-1.1301 h -7.0957 z m 27.586,0 c -0.47427,0 -0.90175,0.13932 -1.1486,0.42612 -0.0494,0.0573 -0.0949,0.13539 -0.12969,0.2038 -0.0696,0.13679 -0.11116,0.28309 -0.11116,0.46317 l 0.0185,5.206 c 0,0.75901 -0.39129,1.371 -1.1116,1.371 l -1.4636,0.0371 c -0.7596,0 -1.371,0.37312 -1.371,1.0931 l -0.0927,7.0958 c 0,0.26999 0.0925,0.48873 0.24085,0.66697 0.14836,0.17822 0.34624,0.31397 0.59285,0.38905 0.0822,0.025 0.16997,0.0428 0.25937,0.0556 0.0894,0.0128 0.18314,0.0185 0.27791,0.0185 l 11.116,0.0371 c 0.7596,0 1.3895,-0.37283 1.3895,-1.0931 0,-0.71964 -0.62992,-1.1486 -1.3895,-1.1486 l -8.7076,0.0371 c -0.7596,0 -1.3895,-0.429 -1.3895,-1.1487 l 0.0927,-2.6493 c 0,-0.72025 0.61138,-1.0931 1.371,-1.0931 l 8.6334,0.0185 c 0.0949,0 0.1884,-0.007 0.27792,-0.0185 0.0895,-0.0118 0.17713,-0.0321 0.25937,-0.0556 0.49344,-0.1403 0.85223,-0.49693 0.85223,-1.0375 0,-0.6297 -0.485,-1.0223 -1.1116,-1.1116 -0.0895,-0.0128 -0.18296,-0.0185 -0.27792,-0.0185 l -1.9082,-0.0185 c -0.095,0 -0.18839,-0.006 -0.27791,-0.0185 -0.35805,-0.051 -0.67318,-0.18823 -0.87075,-0.42611 -0.14818,-0.17842 -0.22233,-0.4154 -0.22233,-0.68549 l 0.0741,-3.2422 c 0,-0.72031 0.61137,-1.1116 1.371,-1.1116 h 1.8341 c 0.7596,0 1.3895,-0.39203 1.3895,-1.1116 0,-0.72032 -0.62992,-1.1301 -1.3895,-1.1301 h -7.0772 z m -95.542,2.2788 h 3.0569 c 0.75871,0 1.371,0.3735 1.371,1.0931 l 0.0927,3.2237 c 0,0.72023 -0.61169,1.1301 -1.371,1.1301 h -4.539 c -1.5586,-0.0223 -1.3545,-1.1142 -1.2598,-1.4821 l 1.2783,-2.8716 c 0.36943,-0.62843 0.61198,-1.0931 1.371,-1.0931 z m 134.74,0 h 3.7795 c 0.75961,0 1.371,0.3735 1.371,1.0931 l 0.0927,3.2237 c 0,0.72023 -0.63064,1.1301 -1.3895,1.1301 h -3.9277 c -0.75959,0 -1.371,-0.40989 -1.371,-1.1301 l 0.074,-3.2237 c 0,-0.71958 0.61138,-1.0931 1.371,-1.0931 z m 16.192,0 h 4.9837 c 0.75887,0 1.371,0.3735 1.371,1.0931 l 0.074,7.9109 c 0,0.72025 -0.61211,1.1301 -1.371,1.1301 h -5.1319 c -0.75885,0 -1.371,-0.40988 -1.371,-1.1301 l 0.0741,-7.9109 c 0,-0.71958 0.61287,-1.0931 1.371,-1.0931 z"
       id="path43409"
       style="fill:#ffffff;fill-opacity:1;stroke:#000000;stroke-opacity:1" />
    <path
       d="m 392.66,505.47 c 0,0 -17.531,67.348 -18,68.875 -0.6125,1.9898 -2.5062,2.6406 -3.5,0.34375 -1.2238,-2.4488 -14.5,-47.938 -14.5,-47.938 h -24.188 c 0,0 18.058,59.245 18.875,61 8.5725,18.367 27.464,11.031 31.344,-2.4375 3.9912,-13.863 21.062,-79.844 21.062,-79.844 h -11.094 z m -249.75,5.0312 -37.531,23.938 c -0.001,-4.6294 0,-7.5625 0,-7.5625 H 93.441 v 33.031 c 0,0.82525 -1.5499,2.338 -2.9375,0.3125 0,0 -15.896,-22.795 -21.656,-29.688 -4.7831,-5.7266 -21.466,-5.4331 -21.531,8.125 -0.0425,8.6069 0.03125,59 0.03125,59 h 11.938 v -41.656 c 0,-2.3058 2.0424,-1.4956 3.3125,-0.0625 0.58925,0.66313 26.161,39.6 27.312,41.156 2.6069,3.5186 15.5,6.1177 15.5,-7.1875 0,-9.5332 -0.0249,-37.764 -0.0312,-53 h 11.656 c 1.2221,0 2.7788,1.373 2.7812,1.375 -0.01,1.1537 -0.1875,37.488 -0.1875,42.281 0,10.781 8.9316,18.062 18.594,18.062 h 21.531 v -10.469 h -9.9062 c -3.5488,0 -6.3438,-2.6085 -6.3438,-6.1562 v -40.844 c 0,-2.1972 1.7625,-5.3125 5.2812,-5.3125 3.52,0 11.031,-0.0937 11.031,-0.0937 v -9 h -14.812 c -1.3775,0 -2.0938,-1.084 -2.0938,-2.0938 V 510.5 Z m -127.88,0.40625 c 0,0 -0.1875,82.926 -0.1875,87.875 l 23.156,-0.0312 v -87.844 h -22.969 z m 541.53,15 c -11.134,0 -21.122,4.6406 -28.062,12.031 -0.40828,0.43475 -0.80088,0.89035 -1.1875,1.3438 -5.4127,6.3476 -8.6875,14.471 -8.6875,23.344 0,5.0702 1.0801,9.9191 3,14.312 0.23999,0.54917 0.48359,1.0899 0.75,1.625 4.529,9.0973 12.807,16.116 22.906,19.156 0.59409,0.17883 1.2063,0.3178 1.8125,0.46875 3.031,0.75473 6.1941,1.1562 9.4688,1.1562 20.958,0 37.969,-16.438 37.969,-36.719 0,-20.281 -17.011,-36.719 -37.969,-36.719 z m -101.28,0.53125 c -13.922,0 -24.719,9.9604 -24.719,24.125 0,14.588 16.095,19.23 24.594,20.125 5.3462,0.563 10.5,4.2588 10.5,9.5 0,4.2162 -3.64,7.625 -7.5625,7.625 l -24.844,-0.0937 v 10.469 h 27.5 c 0.43512,0 0.85155,-0.0101 1.2812,-0.0312 13.321,-0.65489 23.906,-11.36 23.906,-24.562 0,-2.1779 -0.12307,-4.108 -0.40625,-5.8438 -0.0708,-0.43395 -0.16188,-0.84105 -0.25,-1.25 -2.3793,-11.042 -11.036,-13.179 -24.531,-16.75 0,0 -7.1562,-2.2246 -7.1562,-6.5312 0,-2.6916 1.5576,-4.5393 3.6875,-5.5312 0.21299,-0.0992 0.43292,-0.19874 0.65625,-0.28125 1.1166,-0.41257 2.3371,-0.59375 3.5625,-0.59375 l 16.844,0.0625 v -10.438 h -23.062 z m -151.38,0.0937 c 0,0 -0.1875,7.3622 -0.1875,12.312 l 23.156,-0.0625 v -12.25 h -22.969 z m 98.344,0 c 0,0 -0.15625,7.3622 -0.15625,12.312 l 23.125,-0.0625 v -12.25 h -22.969 z m 88.562,0 c 0,0 -0.15625,7.3622 -0.15625,12.312 l 23.125,-0.0625 v -12.25 h -22.969 z m -310.66,0.0625 c -6.6421,0 -11.472,3.4392 -13.844,9.0938 -0.2156,0.51405 -0.38806,1.0441 -0.5625,1.5938 -0.69775,2.1988 -1.0625,4.68 -1.0625,7.375 v 35.281 c 0,10.781 5.8075,18.469 15.469,18.469 h 34.688 v -10.438 h -20.656 c -3.5488,0 -6.3112,-3.0069 -6.2812,-6.5625 v -13.812 h 23.719 v -10.438 l -23.75,-0.0625 -0.0625,-13.875 c 0,-3.5484 2.8262,-6.1562 6.375,-6.1562 h 20.656 v -10.469 h -34.688 z m 39.562,0.125 c 0,0 -0.1875,48.896 -0.1875,53.844 0,2.0215 0.31182,3.9056 0.84375,5.6562 0.17731,0.58354 0.36391,1.169 0.59375,1.7188 2.5282,6.0472 8.1269,9.978 14.625,10.594 0.59074,0.056 1.2087,0.0937 1.8125,0.0937 h 21.531 v -10.469 h -9.5 c -3.5475,0 -6.3438,-2.6085 -6.3438,-6.1562 v -55.281 h -23.375 z m 41,0 c 0,0 -0.15625,48.896 -0.15625,53.844 0,10.108 7.2013,17.129 16.062,17.969 0.59075,0.056 1.1774,0.0937 1.7812,0.0937 h 21.531 v -10.469 h -9.875 c -3.5488,0 -6.375,-2.6085 -6.375,-6.1562 v -55.281 h -22.969 z m 383.53,0.15625 v 33.031 c 0,0.82525 -1.5488,2.3375 -2.9375,0.3125 0,0 -15.865,-22.795 -21.625,-29.688 -4.785,-5.7266 -21.495,-5.4331 -21.562,8.125 -0.04,8.6069 0.0312,59 0.0312,59 h 11.938 v -41.656 c 0,-2.3058 2.0412,-1.4956 3.3125,-0.0625 0.58875,0.66363 26.192,39.6 27.344,41.156 0.48844,0.65973 1.3172,1.2858 2.375,1.7812 0.35259,0.16515 0.73175,0.33646 1.125,0.46875 4.719,1.5875 11.969,0.54138 11.969,-9.4375 0,-13.304 -0.0312,-63.031 -0.0312,-63.031 h -11.938 z m -87.688,7.5938 c 9.1962,0 12.875,12.607 12.875,28.156 0,15.548 -4.3238,28.138 -12.875,28.156 -2.3381,0.005 -4.2942,-0.76378 -5.9375,-2.1875 -0.20542,-0.17796 -0.39855,-0.36488 -0.59375,-0.5625 -0.58561,-0.59286 -1.1287,-1.2722 -1.625,-2.0312 -0.16544,-0.25303 -0.3442,-0.51094 -0.5,-0.78125 -2.9602,-5.1359 -4.1875,-13.362 -4.1875,-22.594 0,-0.97181 0.0134,-1.9286 0.0312,-2.875 0.16102,-8.5179 1.1156,-15.915 4.0312,-20.469 0.16198,-0.25296 0.32569,-0.48362 0.5,-0.71875 1.9174,-2.5864 4.5795,-4.0934 8.2812,-4.0938 z m -252.66,8.875 c 0,0 -0.1875,50.489 -0.1875,55.438 l 23.156,-0.0312 v -55.406 h -22.969 z m 98.344,0 c 0,0 -0.15625,50.489 -0.15625,55.438 l 23.125,-0.0312 v -55.406 h -22.969 z m 88.562,0 c 0,0 -0.15625,50.489 -0.15625,55.438 l 23.125,-0.0312 v -55.406 h -22.969 z"
       id="path43411"
       style="fill:#ffffff;fill-opacity:1;stroke:#000000;stroke-opacity:1" />
  </g>
</svg>
