<?xml version="1.0" encoding="UTF-8" standalone="no"?>
<!-- Created with Inkscape (http://www.inkscape.org/) -->

<svg
   width="452.77884"
   height="100"
   viewBox="0 0 452.77884 100"
   version="1.1"
   id="svg9037"
   xml:space="preserve"
   inkscape:version="1.2.1 (9c6d41e410, 2022-07-14)"
   sodipodi:docname="arduboy.svg"
   xmlns:inkscape="http://www.inkscape.org/namespaces/inkscape"
   xmlns:sodipodi="http://sodipodi.sourceforge.net/DTD/sodipodi-0.dtd"
   xmlns="http://www.w3.org/2000/svg"
   xmlns:svg="http://www.w3.org/2000/svg"><sodipodi:namedview
     id="namedview9039"
     pagecolor="#505050"
     bordercolor="#ffffff"
     borderopacity="1"
     inkscape:showpageshadow="0"
     inkscape:pageopacity="0"
     inkscape:pagecheckerboard="1"
     inkscape:deskcolor="#505050"
     inkscape:document-units="px"
     showgrid="false"
     showguides="false"
     inkscape:zoom="1.0255231"
     inkscape:cx="584.09217"
     inkscape:cy="117.98857"
     inkscape:window-width="1920"
     inkscape:window-height="1017"
     inkscape:window-x="-8"
     inkscape:window-y="-8"
     inkscape:window-maximized="1"
     inkscape:current-layer="svg9037"><sodipodi:guide
       position="0.052917619,-16.319914"
       orientation="1,0"
       id="guide11386"
       inkscape:locked="false" /><sodipodi:guide
       position="259.88298,-7.9280136"
       orientation="1,0"
       id="guide11388"
       inkscape:locked="false" /><sodipodi:guide
       position="24.910009,12.139546"
       orientation="1,0"
       id="guide11451"
       inkscape:locked="false" /><sodipodi:guide
       position="234.34244,-13.036124"
       orientation="1,0"
       id="guide11453"
       inkscape:locked="false" /><sodipodi:guide
       position="35.080617,26.405437"
       orientation="0,-1"
       id="guide11455"
       inkscape:locked="false" /></sodipodi:namedview><defs
     id="defs9034" /><g
     id="g12749"
     transform="matrix(1.7418867,0,0,1.7418867,78.345843,-180.34199)"><path
       id="rect10561"
       style="opacity:1;fill:#ffffff;fill-opacity:1;stroke:#000000;stroke-width:0.105833;stroke-linecap:round;stroke-linejoin:round;stroke-miterlimit:0;paint-order:stroke markers fill"
       d="m -20.067568,103.68398 209.432428,-0.0985 c 0,0 25.54054,0.63488 25.54054,28.49562 0,27.86073 -25.54054,28.80756 -25.54054,28.80756 L -20.067568,160.501 c 0,0 -24.857092,0.0228 -24.857092,-28.41991 0,-28.4427 24.857092,-28.39709 24.857092,-28.39709 z"
       sodipodi:nodetypes="cczcczc" /><path
       style="fill:#8b2db4;fill-opacity:1;stroke-width:0.264583"
       d="m -19.304318,149.62335 -0.773397,-0.7734 v -10.87619 -10.87619 l 2.616948,-2.83635 c 1.439323,-1.55999 3.980884,-4.1758 5.647915,-5.81291 2.6665132,-2.61865 3.1395274,-2.97656 3.9337959,-2.97656 0.8231452,0 1.404702,0.50225 6.589064,5.69058 l 5.6862343,5.69057 0.077396,10.87516 c 0.084603,11.88784 0.090498,11.8373 -1.4490964,12.42265 -0.8301593,0.31563 -1.5185574,0.12296 -2.2091252,-0.61827 -0.4899025,-0.52585 -0.5202158,-0.96403 -0.5202158,-7.51996 v -6.96157 h -8.0697915 -8.0697913 v 7.02349 7.02348 l -0.649433,0.64943 c -0.873773,0.87378 -1.856092,0.83045 -2.810503,-0.12396 z m 17.7086237,-18.97575 1.6263117,-0.16999 v -0.9578 c 0,-0.88268 -0.3124465,-1.26884 -3.9833946,-4.92325 l -3.9833918,-3.96544 -3.954108,4.03084 c -3.770008,3.84317 -3.954105,4.0803 -3.954105,5.09323 v 1.06239 h 6.311188 c 3.4711533,0 7.0430282,-0.0765 7.9374997,-0.16998 z m 14.9268963,19.54479 c -0.324524,-0.0526 -0.83054,-0.40139 -1.124479,-0.77508 -0.522864,-0.66471 -0.534439,-1.02726 -0.534439,-16.73721 v -16.05778 l 0.682376,-0.64143 0.682376,-0.64143 7.966678,-0.0775 c 5.417764,-0.0527 8.194188,0.0167 8.677769,0.21705 0.3911,0.162 1.975901,1.57806 3.521779,3.14681 l 2.810687,2.85226 v 6.14357 6.14356 l -2.813624,2.88525 c -1.547492,1.58688 -3.035773,2.95575 -3.307291,3.04193 -0.271518,0.0862 -0.493668,0.28726 -0.493668,0.44685 0,0.15959 1.488281,1.7943 3.307292,3.63269 3.036051,3.06841 3.307291,3.42289 3.307291,4.32222 0,1.29569 -0.742174,2.03801 -2.037611,2.03801 -0.923814,0 -1.255525,-0.28471 -5.856767,-5.02708 L 23.242086,140.078 H 19.57385 15.905617 v 4.45179 c 0,4.28152 -0.02278,4.4723 -0.595313,4.98766 -0.711462,0.64041 -1.1885,0.8031 -1.979102,0.67494 z m 16.663477,-16.40861 1.785937,-1.76138 v -4.36608 -4.36608 l -1.778841,-1.79258 -1.778842,-1.79258 h -6.158658 -6.158658 v 8.1077 8.10771 l 6.151562,-0.18766 6.151562,-0.18766 z m 14.077036,15.69895 -0.649433,-0.64943 v -16.2647 -16.2647 l 0.69714,-0.54837 c 0.671841,-0.52847 1.000268,-0.54837 9.049829,-0.54837 h 8.35269 l 3.121003,3.12101 3.121004,3.121 v 11.22049 11.2205 l -3.121004,3.121 -3.121003,3.121 h -8.400397 -8.400398 z m 17.547293,-5.50835 1.911607,-1.92445 v -9.39311 -9.39311 l -1.924452,-1.91161 -1.92445,-1.9116 h -6.01305 -6.013048 v 13.22916 13.22917 h 6.025894 6.025893 z m 19.506398,5.67303 c -0.436563,-0.27447 -1.940153,-1.68508 -3.341312,-3.13471 L 75.236533,143.87702 75.0396,130.74798 c -0.108312,-7.22097 -0.119739,-13.43659 -0.0254,-13.81249 0.432387,-1.72277 2.42199,-2.31831 3.590318,-1.07468 l 0.614069,0.65365 0.121116,12.77395 0.121116,12.77396 1.751234,1.78594 1.751238,1.78594 h 4.234206 4.234209 l 1.924449,-1.91161 1.924452,-1.91161 v -12.74925 -12.74924 l 0.835642,-0.70315 c 0.990481,-0.83343 1.88495,-0.7428 2.802379,0.28395 l 0.59531,0.66625 v 13.52368 13.52367 l -3.165996,3.19647 -3.165999,3.19646 -5.631397,0.0733 c -5.136051,0.0668 -5.701215,0.0294 -6.425146,-0.42574 z m 26.306014,-0.46244 -0.64143,-0.68262 -0.0741,-15.99855 -0.0741,-15.99856 0.78133,-0.78133 0.78133,-0.78133 h 8.26712 8.26712 l 3.19646,3.16583 3.19646,3.16583 0.0876,3.30964 0.0876,3.30964 -1.40202,1.52817 c -0.77111,0.8405 -1.69799,1.85768 -2.05973,2.2604 l -0.65772,0.73223 1.6034,1.64902 c 2.4898,2.56069 2.47321,2.52019 2.47321,6.03383 0,2.97112 -0.026,3.11176 -0.75928,4.10832 -0.41761,0.56753 -1.83103,2.07368 -3.14093,3.34699 l -2.38165,2.3151 h -8.45462 -8.45461 z m 17.68759,-5.47517 1.9116,-1.92445 v -1.70735 -1.70735 l -1.9116,-1.92445 -1.91161,-1.92445 h -6.01028 c -3.39768,0 -6.07604,0.10641 -6.16157,0.2448 -0.0832,0.13464 -0.0714,2.63495 0.0262,5.55625 l 0.17747,5.31145 h 5.98411 5.9841 z m 0.0259,-15.40656 1.88572,-1.98517 v -1.52677 -1.52676 l -2.06161,-2.04952 -2.06161,-2.04952 -5.94204,0.0714 -5.94202,0.0714 -0.0715,5.4901 -0.0715,5.4901 h 6.18944 6.18944 l 1.88572,-1.98517 z m 16.60626,18.41258 -3.21115,-3.18087 -0.0749,-10.78069 c -0.0515,-7.42027 0.0161,-11.00038 0.21705,-11.4855 0.16056,-0.38764 1.57545,-1.96961 3.1442,-3.51549 l 2.85226,-2.81069 h 6.04657 6.04657 l 2.96558,3.09194 c 1.95057,2.03368 3.01881,3.35808 3.1211,3.86953 0.0855,0.42768 0.15552,5.293 0.15552,10.81183 0,8.19 -0.0695,10.16554 -0.37824,10.74869 -0.20803,0.39296 -1.63867,1.96463 -3.1792,3.49259 l -2.80095,2.77813 -5.84663,0.0807 -5.84663,0.0807 z m 15.13899,-3.27551 1.94598,-1.9071 -0.17593,-9.39271 -0.17592,-9.39271 -1.76296,-1.78594 -1.76295,-1.78594 h -4.23421 -4.23421 l -1.92445,1.91161 -1.92445,1.91161 v 9.26118 9.26119 l 2.05052,2.08317 2.05052,2.08318 4.10104,-0.17022 4.10104,-0.17022 z m 24.44064,5.9856 c -0.18496,-0.0744 -0.51238,-0.47582 -0.7276,-0.89201 -0.31779,-0.61454 -0.39131,-2.13694 -0.39131,-8.10338 v -7.34668 l -5.02708,-5.05118 -5.02708,-5.05119 v -3.44416 c 0,-3.32867 0.0221,-3.46492 0.6593,-4.06354 0.92254,-0.86668 2.15846,-0.82446 2.95444,0.10093 0.5527,0.64255 0.61959,0.98326 0.61959,3.15626 v 2.43595 l 3.96875,3.96213 3.96875,3.96213 3.96875,-3.96213 3.96875,-3.96213 v -2.47106 c 0,-2.37839 0.029,-2.50006 0.7734,-3.24446 0.42536,-0.42536 0.96706,-0.77339 1.20376,-0.77339 0.65396,0 1.90673,0.72015 2.09182,1.20248 0.0904,0.23556 0.16435,1.92965 0.16435,3.76464 v 3.33635 l -5.02708,5.05119 -5.02709,5.05118 v 7.68429 7.68429 l -0.61236,0.57529 c -0.57741,0.54245 -1.69964,0.72105 -2.50206,0.3982 z"
       id="path10505" /></g></svg>
